<?xml version="1.0" encoding="UTF-8" standalone="no"?>
<svg
   xmlns:dc="http://purl.org/dc/elements/1.1/"
   xmlns:cc="http://creativecommons.org/ns#"
   xmlns:rdf="http://www.w3.org/1999/02/22-rdf-syntax-ns#"
   xmlns:svg="http://www.w3.org/2000/svg"
   xmlns="http://www.w3.org/2000/svg"
   xmlns:xlink="http://www.w3.org/1999/xlink"
   xmlns:sodipodi="http://sodipodi.sourceforge.net/DTD/sodipodi-0.dtd"
   xmlns:inkscape="http://www.inkscape.org/namespaces/inkscape"
   version="1.1"
   width="32"
   height="32"
   id="svg3658"
   sodipodi:docname="accessibility.svg"
   inkscape:version="0.92.4 (5da689c313, 2019-01-14)">
  <sodipodi:namedview
     pagecolor="#ffffff"
     bordercolor="#666666"
     borderopacity="1"
     objecttolerance="10"
     gridtolerance="10"
     guidetolerance="10"
     inkscape:pageopacity="0"
     inkscape:pageshadow="2"
     inkscape:window-width="2880"
     inkscape:window-height="1706"
     id="namedview27"
     showgrid="false"
     inkscape:zoom="7.375"
     inkscape:cx="-1.4237288"
     inkscape:cy="16"
     inkscape:window-x="-11"
     inkscape:window-y="-11"
     inkscape:window-maximized="1"
     inkscape:current-layer="svg3658" />
  <defs
     id="defs3660">
    <linearGradient
       id="linearGradient4011">
      <stop
         id="stop4013"
         style="stop-color:#ffffff;stop-opacity:1"
         offset="0" />
      <stop
         id="stop4015"
         style="stop-color:#ffffff;stop-opacity:0.23529412"
         offset="0.507761" />
      <stop
         id="stop4017"
         style="stop-color:#ffffff;stop-opacity:0.15686275"
         offset="0.83456558" />
      <stop
         id="stop4019"
         style="stop-color:#ffffff;stop-opacity:0.39215687"
         offset="1" />
    </linearGradient>
    <linearGradient
       id="linearGradient3820-7-2-2">
      <stop
         id="stop3822-2-6-36"
         style="stop-color:#3d3d3d;stop-opacity:1"
         offset="0" />
      <stop
         id="stop3864-8-7-6"
         style="stop-color:#686868;stop-opacity:0.49803922"
         offset="0.5" />
      <stop
         id="stop3824-1-2-4"
         style="stop-color:#686868;stop-opacity:0"
         offset="1" />
    </linearGradient>
    <radialGradient
       xlink:href="#linearGradient3820-7-2-2"
       id="radialGradient4048"
       gradientUnits="userSpaceOnUse"
       gradientTransform="matrix(0.1489586,0,0,0.04739593,1.2297114,17.876271)"
       cx="99.157013"
       cy="186.17059"
       fx="99.157013"
       fy="186.17059"
       r="62.769119" />
    <linearGradient
       gradientTransform="matrix(0.62027056,0,0,0.62027056,-28.494196,0.34682062)"
       gradientUnits="userSpaceOnUse"
       xlink:href="#linearGradient4011"
       id="linearGradient12398-3"
       y2="44.340794"
       x2="71.204407"
       y1="6.2375584"
       x1="71.204407" />
    <linearGradient
       gradientTransform="matrix(0.94466952,0,0,0.70623123,-1910.0101,-2261.2097)"
       gradientUnits="userSpaceOnUse"
       xlink:href="#linearGradient947-5"
       id="linearGradient11527-6-5"
       y2="3241.9966"
       x2="2035.1652"
       y1="3208.0737"
       x1="2035.1652" />
    <linearGradient
       id="linearGradient947-5">
      <stop
         offset="0"
         style="stop-color:#64baff;stop-opacity:1"
         id="stop943-6" />
      <stop
         offset="1"
         style="stop-color:#3689e6;stop-opacity:1"
         id="stop945-2" />
    </linearGradient>
  </defs>
  <metadata
     id="metadata3663">
    <rdf:RDF>
      <cc:Work
         rdf:about="">
        <dc:format>image/svg+xml</dc:format>
        <dc:type
           rdf:resource="http://purl.org/dc/dcmitype/StillImage" />
        <dc:title />
      </cc:Work>
    </rdf:RDF>
  </metadata>
  <path
     d="m 25.350001,26.699997 a 9.35,2.9749999 0 1 1 -18.6999999,0 9.35,2.9749999 0 1 1 18.6999999,0 z"
     id="path3818-0-2"
     style="fill:url(#radialGradient4048);fill-opacity:1;stroke:none;stroke-width:1;stroke-miterlimit:4;stroke-dasharray:none"
     inkscape:connector-curvature="0" />
  <path
     style="color:#000000;display:inline;overflow:visible;visibility:visible;opacity:0.98999999;fill:url(#linearGradient11527-6-5);fill-opacity:1;fill-rule:nonzero;stroke:none;stroke-width:1;marker:none;enable-background:accumulate;stroke-miterlimit:4;stroke-dasharray:none"
     id="path2555-7-8-5-0-9"
     d="m 15.999999,3.7501632 c -6.8005124,0 -12.3249999,5.5244878 -12.3249999,12.3250008 0,6.800512 5.5244875,12.325 12.3249999,12.325 6.800514,0 12.325013,-5.524488 12.325001,-12.325 0,-6.800513 -5.524487,-12.3250008 -12.325001,-12.3250008 z"
     inkscape:connector-curvature="0" />
  <path
     style="color:#000000;display:inline;overflow:visible;visibility:visible;opacity:0.5;fill:none;stroke:url(#linearGradient12398-3);stroke-width:1;stroke-linecap:round;stroke-linejoin:round;stroke-miterlimit:4;stroke-dasharray:none;stroke-dashoffset:0;stroke-opacity:1;marker:none;enable-background:accumulate"
     id="path8655-6-0-9-5-0"
     d="m 27.475,16.074753 c 0,6.337682 -5.137916,11.475416 -11.474861,11.475416 -6.3375257,0 -11.4751387,-5.137795 -11.4751387,-11.475416 0,-6.3373797 5.137613,-11.4745947 11.4751387,-11.4745947 6.336945,0 11.474861,5.1372151 11.474861,11.4745947 z"
     inkscape:connector-curvature="0" />
  <path
     style="color:#000000;clip-rule:nonzero;display:inline;overflow:visible;visibility:visible;opacity:0.5;isolation:auto;mix-blend-mode:normal;color-interpolation:sRGB;color-interpolation-filters:linearRGB;solid-color:#000000;solid-opacity:1;vector-effect:none;fill:none;fill-opacity:1;fill-rule:nonzero;stroke:#002e99;stroke-width:1;stroke-linecap:round;stroke-linejoin:round;stroke-miterlimit:4;stroke-dasharray:none;stroke-dashoffset:0;stroke-opacity:1;marker:none;color-rendering:auto;image-rendering:auto;shape-rendering:auto;text-rendering:auto;enable-background:accumulate"
     id="path2555-4"
     d="m 16.000001,3.7516919 c -6.7996662,0 -12.3234728,5.5238046 -12.3234728,12.3234711 0,6.799667 5.5238066,12.323475 12.3234728,12.323472 6.799664,0 12.323477,-5.523805 12.323471,-12.323472 0,-6.7996665 -5.523807,-12.3234711 -12.323471,-12.3234711 z"
     inkscape:connector-curvature="0" />
  <path
     style="color:#000000;display:inline;overflow:visible;visibility:visible;opacity:0.05;vector-effect:none;fill:#002e99;fill-opacity:1;fill-rule:nonzero;stroke:none;stroke-width:1;stroke-linecap:butt;stroke-linejoin:miter;stroke-miterlimit:4;stroke-dasharray:none;stroke-dashoffset:0;stroke-opacity:1;marker:none;enable-background:accumulate"
     id="path3175"
     d="m 16.079687,8.4251635 c -1.488618,0 -2.709375,1.2312363 -2.709375,2.7093755 0,0.739069 0.305131,1.401338 0.796875,1.885937 L 9.8375,12.356414 c -0.014861,-0.0065 -0.037942,0.006 -0.053125,0 -0.3188289,-0.126349 -0.6845287,-0.207038 -1.0625,-0.02656 -0.5366382,0.256222 -0.7895901,0.706037 -0.796875,1.275 -0.00706,0.602733 0.4142902,1.00117 0.796875,1.195313 a 0.84473714,0.84473714 0 0 0 0.10625,0.05312 l 4.382812,1.38125 -0.05312,2.86875 -1.7,5.20625 0.05312,0.02656 c -0.239184,0.57348 -0.122708,1.320959 0.425,1.673438 0.639852,0.411819 1.46962,0.307847 1.939063,-0.371875 a 0.84473714,0.84473714 0 0 0 0.07969,-0.10625 L 16,21.334539 l 2.01875,4.196875 a 0.84473714,0.84473714 0 0 0 0.05312,0.05312 c 0.388991,0.65718 1.22283,0.855842 1.859375,0.504687 0.585629,-0.323061 0.809724,-1.067801 0.557812,-1.7 l 0.05312,-0.02656 -1.673437,-5.232813 -0.05312,-2.682812 4.4625,-1.620313 a 0.84473714,0.84473714 0 0 0 0.185937,-0.10625 c 0.490949,-0.332366 0.774283,-1.001793 0.53125,-1.620312 -0.248258,-0.631834 -0.88051,-0.913893 -1.460937,-0.85 a 0.84473714,0.84473714 0 0 0 -0.05313,0.02656 c -0.03783,0.006 -0.164574,0.06169 -0.239063,0.07969 l -4.25,0.664062 c 0.498385,-0.482767 0.823438,-1.139541 0.823438,-1.885937 0,-1.4927926 -1.24732,-2.7093755 -2.735938,-2.7093755 z"
     inkscape:connector-curvature="0" />
  <path
     style="color:#000000;display:inline;overflow:visible;visibility:visible;opacity:0.15;vector-effect:none;fill:#002e99;fill-opacity:1;fill-rule:nonzero;stroke:none;stroke-width:1;stroke-linecap:butt;stroke-linejoin:miter;stroke-miterlimit:4;stroke-dasharray:none;stroke-dashoffset:0;stroke-opacity:1;marker:none;enable-background:accumulate"
     id="path6668-1"
     d="m 17.954829,11.124461 c 0,1.020815 -0.836199,1.849302 -1.866516,1.849302 -1.030318,0 -1.866516,-0.828487 -1.866516,-1.849302 0,-1.020814 0.836198,-1.8493019 1.866516,-1.8493019 1.030317,0 1.866516,0.8284879 1.866516,1.8493019 z m 4.658566,1.966409 c -0.08633,0.01385 -0.167903,0.04759 -0.237817,0.09841 L 15.999805,14.174349 9.6583713,13.175697 C 9.4944455,13.0579 9.2639729,13.022626 9.0808047,13.110086 c -0.1831692,0.08745 -0.3032482,0.29474 -0.3057737,0.491986 -0.00231,0.197273 0.1248824,0.367401 0.3057737,0.459194 l 4.9691323,1.561811 -0.03398,3.585391 -1.753407,5.369761 c -0.168874,0.244517 -0.117403,0.558545 0.1359,0.721559 0.253315,0.163037 0.612536,0.113362 0.781428,-0.131183 l 2.829644,-5.796132 2.776231,5.786115 c 0.150119,0.253617 0.484752,0.341718 0.747448,0.1968 0.262695,-0.144916 0.353962,-0.467966 0.203849,-0.721585 l -1.720859,-5.392861 -0.06794,-3.375403 5.038856,-1.823484 c 0.203589,-0.137827 0.292035,-0.398757 0.203856,-0.623173 -0.08819,-0.224441 -0.33053,-0.355203 -0.57758,-0.328008 h 1.7e-5 z"
     inkscape:connector-curvature="0" />
  <path
     style="fill:#ffffff;fill-opacity:1;stroke:none;stroke-width:1;stroke-miterlimit:4;stroke-dasharray:none"
     id="path6668"
     d="m 17.954829,10.274465 c 0,1.020815 -0.836199,1.849303 -1.866516,1.849303 -1.030318,0 -1.866516,-0.828488 -1.866516,-1.849303 0,-1.0208138 0.836198,-1.8493013 1.866516,-1.8493013 1.030317,0 1.866516,0.8284875 1.866516,1.8493013 z m 4.658566,1.966409 c -0.08633,0.01385 -0.167903,0.04759 -0.237817,0.09841 l -6.375773,0.98507 -6.3414337,-0.998653 C 9.4944455,12.207904 9.2639729,12.17263 9.0808047,12.26009 8.8976355,12.34755 8.7775565,12.554831 8.775031,12.752077 c -0.00231,0.197273 0.1248824,0.3674 0.3057737,0.459193 l 4.9691323,1.561812 -0.03398,3.585391 -1.753407,5.36976 c -0.168874,0.244517 -0.117403,0.558545 0.1359,0.721559 0.253315,0.163038 0.612536,0.113362 0.781428,-0.131182 l 2.829644,-5.796132 2.776231,5.786114 c 0.150119,0.253618 0.484752,0.341718 0.747448,0.1968 0.262695,-0.144916 0.353962,-0.467966 0.203849,-0.721584 l -1.720859,-5.392862 -0.06794,-3.375403 5.038856,-1.823483 c 0.203589,-0.137828 0.292035,-0.398758 0.203856,-0.623174 -0.08819,-0.22444 -0.33053,-0.355203 -0.57758,-0.328008 h 1.7e-5 z"
     inkscape:connector-curvature="0" />
</svg>
