<?xml version="1.0" encoding="UTF-8" standalone="no"?>
<svg
   xmlns:dc="http://purl.org/dc/elements/1.1/"
   xmlns:cc="http://creativecommons.org/ns#"
   xmlns:rdf="http://www.w3.org/1999/02/22-rdf-syntax-ns#"
   xmlns:svg="http://www.w3.org/2000/svg"
   xmlns="http://www.w3.org/2000/svg"
   xmlns:xlink="http://www.w3.org/1999/xlink"
   xmlns:sodipodi="http://sodipodi.sourceforge.net/DTD/sodipodi-0.dtd"
   xmlns:inkscape="http://www.inkscape.org/namespaces/inkscape"
   version="1.1"
   width="32"
   height="32"
   id="svg4505"
   sodipodi:docname="avatar.svg"
   inkscape:version="0.92.4 (5da689c313, 2019-01-14)">
  <sodipodi:namedview
     pagecolor="#ffffff"
     bordercolor="#666666"
     borderopacity="1"
     objecttolerance="10"
     gridtolerance="10"
     guidetolerance="10"
     inkscape:pageopacity="0"
     inkscape:pageshadow="2"
     inkscape:window-width="2880"
     inkscape:window-height="1706"
     id="namedview27"
     showgrid="false"
     inkscape:zoom="7.375"
     inkscape:cx="-1.4237288"
     inkscape:cy="16"
     inkscape:window-x="-11"
     inkscape:window-y="-11"
     inkscape:window-maximized="1"
     inkscape:current-layer="svg4505" />
  <defs
     id="defs4507">
    <linearGradient
       id="linearGradient4806-9">
      <stop
         id="stop4808-49"
         style="stop-color:#ffffff;stop-opacity:1"
         offset="0" />
      <stop
         id="stop4810-05"
         style="stop-color:#ffffff;stop-opacity:0.23529412"
         offset="0.42447853" />
      <stop
         id="stop4812-6"
         style="stop-color:#ffffff;stop-opacity:0.15686275"
         offset="0.82089913" />
      <stop
         id="stop4814-7"
         style="stop-color:#ffffff;stop-opacity:0.39215687"
         offset="1" />
    </linearGradient>
    <linearGradient
       id="linearGradient3820-7-2-2">
      <stop
         id="stop3822-2-6-36"
         style="stop-color:#3d3d3d;stop-opacity:1"
         offset="0" />
      <stop
         id="stop3864-8-7-6"
         style="stop-color:#686868;stop-opacity:0.49803922"
         offset="0.5" />
      <stop
         id="stop3824-1-2-4"
         style="stop-color:#686868;stop-opacity:0"
         offset="1" />
    </linearGradient>
    <linearGradient
       x1="71.204407"
       y1="15.369057"
       x2="71.204407"
       y2="40.495617"
       id="linearGradient3028"
       xlink:href="#linearGradient4806-9"
       gradientUnits="userSpaceOnUse"
       gradientTransform="matrix(0.9368728,0,0,0.93687323,-51.619838,-10.032701)" />
    <radialGradient
       cx="99.157013"
       cy="186.17059"
       r="62.769119"
       fx="99.157013"
       fy="186.17059"
       id="radialGradient3043"
       xlink:href="#linearGradient3820-7-2-2"
       gradientUnits="userSpaceOnUse"
       gradientTransform="matrix(0.1489586,0,0,0.04739593,1.2297115,17.876323)" />
    <linearGradient
       id="linearGradient27416-1-2-0-1">
      <stop
         id="stop27420-2-0-8-7"
         style="stop-color:#55c1ec;stop-opacity:1"
         offset="0" />
      <stop
         id="stop27422-3-5-3-3"
         style="stop-color:#3689e6;stop-opacity:1"
         offset="1" />
    </linearGradient>
    <linearGradient
       xlink:href="#linearGradient27416-1-2-0-1"
       id="linearGradient3836"
       gradientUnits="userSpaceOnUse"
       gradientTransform="matrix(0.40741567,0,0,0.74161394,37.773225,-26.955666)"
       x1="30.271185"
       y1="10.028973"
       x2="30.271185"
       y2="55.052982" />
  </defs>
  <metadata
     id="metadata4510">
    <rdf:RDF>
      <cc:Work
         rdf:about="">
        <dc:format>image/svg+xml</dc:format>
        <dc:type
           rdf:resource="http://purl.org/dc/dcmitype/StillImage" />
        <dc:title />
      </cc:Work>
    </rdf:RDF>
  </metadata>
  <path
     d="m 25.350001,26.700049 a 9.35,2.9749999 0 1 1 -18.6999998,0 9.35,2.9749999 0 1 1 18.6999998,0 z"
     id="path3818-0-2"
     style="fill:url(#radialGradient3043);fill-opacity:1;stroke:none;stroke-width:1;stroke-miterlimit:4;stroke-dasharray:none"
     inkscape:connector-curvature="0" />
  <path
     style="color:#000000;display:inline;overflow:visible;visibility:visible;fill:url(#linearGradient3836);fill-opacity:1;fill-rule:nonzero;stroke:none;stroke-width:1;marker:none;enable-background:accumulate;stroke-miterlimit:4;stroke-dasharray:none"
     id="path3029"
     d="m 28.325,16.07505 a 12.325,12.325 0 0 1 -24.6499999,0 12.325,12.325 0 1 1 24.6499999,0 z"
     inkscape:connector-curvature="0" />
  <path
     d="m 16,3.7500496 c -6.80051,0 -12.325,5.5244892 -12.325,12.3249994 0,6.800511 5.52449,12.325003 12.325,12.325001 6.80051,0 12.325009,-5.52449 12.325,-12.325001 C 28.325,9.2745388 22.80051,3.7500496 16,3.7500496 Z"
     id="path2555-7-1-7"
     style="color:#000000;display:inline;overflow:visible;visibility:visible;opacity:0.5;fill:none;stroke:#003651;stroke-width:1;stroke-linecap:round;stroke-linejoin:round;stroke-miterlimit:4;stroke-dasharray:none;stroke-dashoffset:0;stroke-opacity:1;marker:none;enable-background:accumulate"
     inkscape:connector-curvature="0" />
  <path
     d="m 27.475,16.07505 c 0,6.337468 -5.137544,11.475 -11.475,11.475 -6.3374555,0 -11.475,-5.137532 -11.475,-11.475 C 4.525,9.7375831 9.6625445,4.6000496 16,4.6000496 c 6.337456,0 11.475,5.1375335 11.475,11.4750004 z"
     id="path3421"
     style="color:#000000;display:inline;overflow:visible;visibility:visible;opacity:0.5;fill:none;stroke:url(#linearGradient3028);stroke-width:1;stroke-linecap:round;stroke-linejoin:round;stroke-miterlimit:4;stroke-dasharray:none;stroke-dashoffset:0;stroke-opacity:1;marker:none;enable-background:accumulate"
     inkscape:connector-curvature="0" />
  <path
     style="color:#000000;display:inline;overflow:visible;visibility:visible;opacity:0.07000002;fill:#000000;fill-opacity:1;fill-rule:nonzero;stroke:#000000;stroke-width:1;stroke-miterlimit:4;stroke-dasharray:none;stroke-opacity:1;marker:none;enable-background:accumulate"
     id="path3840"
     d="m 16,9.8567121 c -2.832753,0 -5.129153,2.2080779 -5.129153,4.9318789 0,2.723801 2.2964,4.931879 5.129153,4.931879 2.832753,0 5.129154,-2.208078 5.129154,-4.931879 C 21.129154,12.06479 18.832753,9.8567121 16,9.8567121 Z M 14.119722,20.546559 c -2.308987,0 -4.3061937,1.358419 -5.3141003,3.353678 C 10.605266,25.819798 13.161141,27.01965 16,27.01965 c 2.83886,0 5.394734,-1.199852 7.194379,-3.119413 -1.007907,-1.995259 -3.005113,-3.353678 -5.3141,-3.353678 z"
     inkscape:connector-curvature="0" />
  <path
     d="m 16,9.5905031 c -2.832753,0 -5.129153,2.2080779 -5.129153,4.9318789 0,2.723801 2.2964,4.931879 5.129153,4.931879 2.832753,0 5.129154,-2.208078 5.129154,-4.931879 0,-2.723801 -2.296401,-4.9318789 -5.129154,-4.9318789 z M 14.119722,20.28035 c -2.308987,0 -4.3061937,1.358419 -5.3141003,3.353678 1.7996443,1.919561 4.3555193,3.119413 7.1943783,3.119413 2.83886,0 5.394734,-1.199852 7.194379,-3.119413 -1.007907,-1.995259 -3.005113,-3.353678 -5.3141,-3.353678 z"
     id="path3070"
     style="color:#000000;display:inline;overflow:visible;visibility:visible;opacity:0.15;fill:#000000;fill-opacity:1;fill-rule:nonzero;stroke:none;stroke-width:1;marker:none;enable-background:accumulate;stroke-miterlimit:4;stroke-dasharray:none"
     inkscape:connector-curvature="0" />
  <path
     style="color:#000000;display:inline;overflow:visible;visibility:visible;fill:#ffffff;fill-opacity:1;fill-rule:nonzero;stroke:none;stroke-width:1;marker:none;enable-background:accumulate;stroke-miterlimit:4;stroke-dasharray:none"
     id="rect3049"
     d="m 16,8.7405031 c -2.832753,0 -5.129153,2.2080779 -5.129153,4.9318789 0,2.723801 2.2964,4.931879 5.129153,4.931879 2.832753,0 5.129154,-2.208078 5.129154,-4.931879 0,-2.723801 -2.296401,-4.9318789 -5.129154,-4.9318789 z M 14.119722,19.43035 c -2.308987,0 -4.3061937,1.358419 -5.3141003,3.353678 1.7996443,1.919561 4.3555193,3.119413 7.1943783,3.119413 2.83886,0 5.394734,-1.199852 7.194379,-3.119413 -1.007907,-1.995259 -3.005113,-3.353678 -5.3141,-3.353678 z"
     inkscape:connector-curvature="0" />
</svg>
