<?xml version="1.0" encoding="UTF-8" standalone="no"?>
<svg
   xmlns:dc="http://purl.org/dc/elements/1.1/"
   xmlns:cc="http://creativecommons.org/ns#"
   xmlns:rdf="http://www.w3.org/1999/02/22-rdf-syntax-ns#"
   xmlns:svg="http://www.w3.org/2000/svg"
   xmlns="http://www.w3.org/2000/svg"
   xmlns:xlink="http://www.w3.org/1999/xlink"
   xmlns:sodipodi="http://sodipodi.sourceforge.net/DTD/sodipodi-0.dtd"
   xmlns:inkscape="http://www.inkscape.org/namespaces/inkscape"
   id="svg3753"
   height="32"
   width="32"
   version="1.1"
   sodipodi:docname="base-config.svg"
   inkscape:version="0.92.4 (5da689c313, 2019-01-14)">
  <sodipodi:namedview
     pagecolor="#ffffff"
     bordercolor="#666666"
     borderopacity="1"
     objecttolerance="10"
     gridtolerance="10"
     guidetolerance="10"
     inkscape:pageopacity="0"
     inkscape:pageshadow="2"
     inkscape:window-width="2880"
     inkscape:window-height="1706"
     id="namedview33"
     showgrid="false"
     inkscape:zoom="7.375"
     inkscape:cx="-13.762712"
     inkscape:cy="16"
     inkscape:window-x="-11"
     inkscape:window-y="-11"
     inkscape:window-maximized="1"
     inkscape:current-layer="svg3753" />
  <defs
     id="defs3755">
    <linearGradient
       gradientUnits="userSpaceOnUse"
       xlink:href="#linearGradient3679"
       id="linearGradient3698"
       y2="10.997566"
       x2="16.116789"
       y1="21.119221"
       x1="16.116789"
       gradientTransform="matrix(0.44988409,0,0,0.44988409,15.981456,16.043441)" />
    <linearGradient
       id="linearGradient3679">
      <stop
         offset="0"
         style="stop-color:#ffffff;stop-opacity:1"
         id="stop3681" />
      <stop
         offset="1"
         style="stop-color:#ffffff;stop-opacity:0"
         id="stop3683" />
    </linearGradient>
    <linearGradient
       gradientUnits="userSpaceOnUse"
       xlink:href="#linearGradient3679"
       id="linearGradient3688"
       y2="29.045145"
       x2="15.321168"
       y1="3"
       x1="15.321168"
       gradientTransform="matrix(0.45535715,0,0,0.45535715,15.946428,15.982142)" />
    <linearGradient
       gradientTransform="matrix(0.09303051,0,0,0.09303055,17.278187,17.406932)"
       gradientUnits="userSpaceOnUse"
       xlink:href="#linearGradient5128"
       id="linearGradient2836"
       y2="20.895"
       x2="84.63858"
       y1="105.105"
       x1="86.132919" />
    <linearGradient
       id="linearGradient5128">
      <stop
         offset="0"
         style="stop-color:#ffffff;stop-opacity:1"
         id="stop5130" />
      <stop
         offset="1"
         style="stop-color:#959595;stop-opacity:1"
         id="stop5132" />
    </linearGradient>
    <linearGradient
       gradientTransform="matrix(0.45535715,0,0,0.45535715,9.1160714,8.2410712)"
       gradientUnits="userSpaceOnUse"
       xlink:href="#linearGradient3309"
       id="linearGradient2840"
       y2="47.012184"
       x2="32.036148"
       y1="19"
       x1="32.036148" />
    <linearGradient
       gradientUnits="userSpaceOnUse"
       id="linearGradient3309"
       y2="122.8994"
       x2="63.9995"
       y1="3.1001"
       x1="63.9995">
      <stop
         offset="0"
         style="stop-color:#f6f6f6;stop-opacity:1"
         id="stop3311" />
      <stop
         offset="1"
         style="stop-color:#d2d2d2;stop-opacity:1"
         id="stop3313" />
    </linearGradient>
    <linearGradient
       gradientTransform="matrix(0.45535715,0,0,0.45535715,9.1160714,8.2410712)"
       gradientUnits="userSpaceOnUse"
       xlink:href="#linearGradient3397"
       id="linearGradient2842"
       y2="47.044857"
       x2="25.922546"
       y1="19"
       x1="25.922546" />
    <linearGradient
       id="linearGradient3397">
      <stop
         offset="0"
         style="stop-color:#aaaaaa;stop-opacity:1"
         id="stop3399" />
      <stop
         offset="1"
         style="stop-color:#8c8c8c;stop-opacity:1"
         id="stop3401" />
    </linearGradient>
    <linearGradient
       id="linearGradient10691">
      <stop
         offset="0"
         style="stop-color:#000000;stop-opacity:1"
         id="stop10693" />
      <stop
         offset="1"
         style="stop-color:#000000;stop-opacity:0"
         id="stop10695" />
    </linearGradient>
    <radialGradient
       gradientTransform="matrix(2.2134617,0,0,0.4842001,1.1638028,-7.1447362)"
       gradientUnits="userSpaceOnUse"
       xlink:href="#linearGradient10691"
       id="radialGradient3751"
       fy="73.615715"
       fx="6.702713"
       r="7.228416"
       cy="73.615715"
       cx="6.702713" />
  </defs>
  <metadata
     id="metadata3758">
    <rdf:RDF>
      <cc:Work
         rdf:about="">
        <dc:format>image/svg+xml</dc:format>
        <dc:type
           rdf:resource="http://purl.org/dc/dcmitype/StillImage" />
        <dc:title />
      </cc:Work>
    </rdf:RDF>
  </metadata>
  <path
     inkscape:connector-curvature="0"
     d="m 22.26451,17.120535 c -0.340944,0 -0.626116,0.270943 -0.626116,0.611887 v 0.796875 c -0.215568,0.07234 -0.424735,0.156372 -0.626117,0.256138 L 20.45731,18.230468 c -0.241083,-0.241083 -0.626941,-0.241083 -0.868024,0 l -1.394531,1.380301 c -0.241084,0.241084 -0.241083,0.626943 0,0.868026 l 0.554967,0.554966 c -0.10215,0.20488 -0.182432,0.420719 -0.256139,0.640346 h -0.782646 c -0.340943,0 -0.626116,0.270943 -0.626116,0.611886 v 1.963728 c 0,0.340943 0.285175,0.611887 0.626116,0.611886 h 0.782646 c 0.0737,0.219627 0.153989,0.435466 0.256139,0.640346 l -0.554967,0.554967 c -0.241084,0.241083 -0.241085,0.626941 0,0.868024 l 1.394531,1.380301 c 0.241083,0.241084 0.626941,0.241083 0.868024,0 l 0.554967,-0.554966 c 0.201382,0.09977 0.410549,0.183793 0.626117,0.256138 v 0.796875 c -1e-6,0.340944 0.285174,0.611887 0.626116,0.611887 h 1.949498 c 0.340943,0 0.611886,-0.270945 0.611886,-0.611887 v -0.796875 c 0.219626,-0.07371 0.435466,-0.153989 0.640346,-0.256138 l 0.554965,0.554966 c 0.241084,0.241084 0.626941,0.241084 0.868025,0 l 1.394531,-1.380301 c 0.241085,-0.241083 0.241082,-0.626942 0,-0.868024 l -0.569196,-0.569197 c 0.09977,-0.201381 0.183793,-0.410549 0.256138,-0.626116 h 0.796875 c 0.340944,0 0.611887,-0.270943 0.611887,-0.611886 v -1.963728 c 0,-0.340943 -0.270946,-0.611886 -0.611887,-0.611886 H 27.970703 C 27.89836,21.45854 27.814331,21.249372 27.714565,21.047991 l 0.569196,-0.569196 c 0.241085,-0.241084 0.241084,-0.626942 0,-0.868026 L 26.88923,18.230468 c -0.241082,-0.241083 -0.626942,-0.241083 -0.868025,0 l -0.554965,0.554967 c -0.20488,-0.102149 -0.42072,-0.182431 -0.640346,-0.256138 v -0.796875 c 0,-0.340944 -0.270945,-0.611887 -0.611886,-0.611887 z m 0.967634,4.553572 c 0.87975,0 1.59375,0.714 1.59375,1.59375 0,0.87975 -0.714,1.59375 -1.59375,1.59375 -0.879751,0 -1.59375,-0.714 -1.59375,-1.59375 -1e-6,-0.87975 0.714,-1.59375 1.59375,-1.59375 z"
     id="rect2576"
     style="display:block;overflow:visible;visibility:visible;fill:url(#linearGradient2840);fill-opacity:1;fill-rule:nonzero;stroke:url(#linearGradient2842);stroke-width:1;stroke-linecap:butt;stroke-linejoin:round;stroke-miterlimit:4;stroke-dasharray:none;stroke-dashoffset:0;stroke-opacity:1;marker:none;enable-background:accumulate" />
  <path
     inkscape:connector-curvature="0"
     d="m 23.232143,19.625 c -2.008705,0 -3.642857,1.634152 -3.642857,3.642857 0,2.008706 1.634152,3.642857 3.642857,3.642857 2.008705,0 3.642857,-1.634151 3.642857,-3.642857 0,-2.008705 -1.634152,-3.642857 -3.642857,-3.642857 z m 0,2.276785 c 0.75446,0 1.366072,0.611612 1.366072,1.366072 0,0.75446 -0.611612,1.366072 -1.366072,1.366072 -0.75446,0 -1.366072,-0.611612 -1.366072,-1.366072 0,-0.75446 0.611612,-1.366072 1.366072,-1.366072 z"
     id="path3315"
     style="opacity:0.05;fill:#000000;fill-opacity:1;stroke:none;stroke-width:1;stroke-miterlimit:4;stroke-dasharray:none" />
  <path
     inkscape:connector-curvature="0"
     d="m 23.232143,19.397321 c -2.134215,0 -3.870535,1.736322 -3.870535,3.870535 -1e-6,2.134214 1.73632,3.870536 3.870535,3.870536 2.134214,0 3.870536,-1.736322 3.870536,-3.870536 0,-2.134213 -1.736322,-3.870535 -3.870536,-3.870535 z"
     id="path28"
     style="fill:none;stroke:url(#linearGradient2836);stroke-width:1;stroke-miterlimit:4;stroke-dasharray:none" />
  <path
     inkscape:connector-curvature="0"
     d="m 22.264509,17.575892 c -0.291318,0.06356 -0.128149,0.441586 -0.170759,0.658828 0.02111,0.271744 0.0054,0.63164 -0.313058,0.721474 -0.348456,0.07314 -0.749519,0.463651 -1.081473,0.142299 -0.230231,-0.194092 -0.404209,-0.482162 -0.675921,-0.607883 -0.246215,0.125313 -0.424041,0.398843 -0.644548,0.585397 -0.297834,0.308734 -0.626985,0.592532 -0.904995,0.917053 -0.01734,0.245294 0.28036,0.36819 0.412915,0.551534 0.228014,0.172922 0.417701,0.481712 0.229399,0.755373 -0.154745,0.300416 -0.176909,0.828149 -0.622486,0.829497 -0.299729,0.02409 -0.623084,-0.05181 -0.906072,0.04493 -0.101193,0.282599 -0.02239,0.612794 -0.04733,0.915272 0.0081,0.406942 -0.01632,0.81711 0.01241,1.222004 0.171721,0.178047 0.466208,0.06059 0.694129,0.09457 0.290873,-0.04267 0.648045,0.05558 0.700219,0.39133 0.07978,0.324515 0.423137,0.709557 0.115838,1.017431 -0.191412,0.227905 -0.478054,0.400255 -0.601842,0.668138 0.129897,0.273313 0.420021,0.448571 0.618068,0.679872 0.293648,0.287484 0.590743,0.590389 0.880981,0.868854 0.251037,0.01874 0.376784,-0.282597 0.563124,-0.418545 0.173081,-0.228501 0.482721,-0.417898 0.756438,-0.228803 0.295721,0.155703 0.814074,0.182385 0.814202,0.62189 0.02538,0.300097 -0.05453,0.628313 0.04734,0.90847 0.323679,0.09612 0.687217,0.02123 1.027563,0.04494 0.370619,-0.0068 0.743282,0.01358 1.112622,-0.01019 0.171979,-0.165201 0.05464,-0.459241 0.08927,-0.682124 -0.02509,-0.263179 0.01062,-0.60327 0.313057,-0.687987 0.354074,-0.06774 0.75989,-0.465072 1.095704,-0.142299 0.23023,0.194092 0.404208,0.482162 0.675921,0.607884 0.246215,-0.125314 0.424041,-0.398844 0.644547,-0.585397 0.297835,-0.308735 0.626985,-0.592533 0.904995,-0.917054 0.01733,-0.245294 -0.28036,-0.36819 -0.412914,-0.551534 -0.230709,-0.177482 -0.438315,-0.488145 -0.243034,-0.770668 0.155703,-0.295721 0.182386,-0.814074 0.621891,-0.814202 0.302363,-0.02149 0.625794,0.04621 0.913186,-0.04022 0.0872,-0.334188 0.01817,-0.704743 0.04021,-1.053935 -0.0065,-0.364218 0.01323,-0.730418 -0.01019,-1.093364 -0.1652,-0.171981 -0.459239,-0.05465 -0.682123,-0.08927 -0.292769,0.04091 -0.658259,-0.04585 -0.713291,-0.387283 -0.08577,-0.319851 -0.422661,-0.702146 -0.116995,-1.007249 0.198498,-0.210462 0.423238,-0.39934 0.605451,-0.623197 0.01173,-0.247313 -0.2821,-0.367933 -0.417049,-0.550587 -0.356892,-0.350388 -0.717984,-0.715902 -1.071378,-1.057308 -0.251038,-0.01874 -0.376785,0.282597 -0.563125,0.418544 -0.172922,0.228014 -0.481711,0.417701 -0.755372,0.229399 -0.300417,-0.154745 -0.828149,-0.176909 -0.829498,-0.622487 -0.02149,-0.302363 0.04621,-0.625793 -0.04022,-0.913185 -0.334186,-0.0872 -0.704742,-0.01817 -1.053934,-0.04022 -0.337291,0 -0.674583,0 -1.011874,0 z"
     id="path2901"
     style="display:block;overflow:visible;visibility:visible;opacity:0.8;fill:none;stroke:url(#linearGradient3688);stroke-width:1;stroke-linecap:butt;stroke-linejoin:round;stroke-miterlimit:4;stroke-dasharray:none;stroke-dashoffset:0;stroke-opacity:1;marker:none;enable-background:accumulate" />
  <path
     inkscape:connector-curvature="0"
     d="m 25.28125,23.267857 a 2.0491073,2.0491073 0 1 1 -4.098214,0 2.0491073,2.0491073 0 1 1 4.098214,0 z"
     id="path3690"
     style="color:#000000;display:inline;overflow:visible;visibility:visible;opacity:0.4;fill:none;stroke:url(#linearGradient3698);stroke-width:1;stroke-linecap:butt;stroke-linejoin:miter;stroke-miterlimit:4;stroke-dasharray:none;stroke-dashoffset:0;stroke-opacity:1;marker:none;enable-background:accumulate" />
</svg>
