<?xml version="1.0" encoding="UTF-8" standalone="no"?>
<svg
   xmlns:dc="http://purl.org/dc/elements/1.1/"
   xmlns:cc="http://creativecommons.org/ns#"
   xmlns:rdf="http://www.w3.org/1999/02/22-rdf-syntax-ns#"
   xmlns:svg="http://www.w3.org/2000/svg"
   xmlns="http://www.w3.org/2000/svg"
   xmlns:xlink="http://www.w3.org/1999/xlink"
   xmlns:sodipodi="http://sodipodi.sourceforge.net/DTD/sodipodi-0.dtd"
   xmlns:inkscape="http://www.inkscape.org/namespaces/inkscape"
   id="svg3753"
   height="32"
   width="32"
   version="1.1"
   sodipodi:docname="base-config.svg"
   inkscape:version="0.92.4 (5da689c313, 2019-01-14)">
  <sodipodi:namedview
     pagecolor="#ffffff"
     bordercolor="#666666"
     borderopacity="1"
     objecttolerance="10"
     gridtolerance="10"
     guidetolerance="10"
     inkscape:pageopacity="0"
     inkscape:pageshadow="2"
     inkscape:window-width="1920"
     inkscape:window-height="1017"
     id="namedview33"
     showgrid="false"
     inkscape:zoom="7.375"
     inkscape:cx="16"
     inkscape:cy="16"
     inkscape:window-x="-8"
     inkscape:window-y="-8"
     inkscape:window-maximized="1"
     inkscape:current-layer="svg3753" />
  <defs
     id="defs3755">
    <linearGradient
       gradientUnits="userSpaceOnUse"
       xlink:href="#linearGradient3679"
       id="linearGradient3698"
       y2="10.997566"
       x2="16.116789"
       y1="21.119221"
       x1="16.116789"
       gradientTransform="matrix(0.5292754,0,0,0.5292754,14.701923,14.768544)" />
    <linearGradient
       id="linearGradient3679">
      <stop
         offset="0"
         style="stop-color:#ffffff;stop-opacity:1"
         id="stop3681" />
      <stop
         offset="1"
         style="stop-color:#ffffff;stop-opacity:0"
         id="stop3683" />
    </linearGradient>
    <linearGradient
       gradientUnits="userSpaceOnUse"
       xlink:href="#linearGradient3679"
       id="linearGradient3688"
       y2="29.045145"
       x2="15.321168"
       y1="3"
       x1="15.321168"
       gradientTransform="matrix(0.53571429,0,0,0.53571429,14.660714,14.696428)" />
    <linearGradient
       gradientTransform="matrix(0.10944766,0,0,0.10944771,16.227489,16.372651)"
       gradientUnits="userSpaceOnUse"
       xlink:href="#linearGradient5128"
       id="linearGradient2836"
       y2="20.895"
       x2="84.63858"
       y1="105.105"
       x1="86.132919" />
    <linearGradient
       id="linearGradient5128">
      <stop
         offset="0"
         style="stop-color:#ffffff;stop-opacity:1"
         id="stop5130" />
      <stop
         offset="1"
         style="stop-color:#959595;stop-opacity:1"
         id="stop5132" />
    </linearGradient>
    <linearGradient
       gradientTransform="matrix(0.53571429,0,0,0.53571429,6.625,5.5892854)"
       gradientUnits="userSpaceOnUse"
       xlink:href="#linearGradient3309"
       id="linearGradient2840"
       y2="47.012184"
       x2="32.036148"
       y1="19"
       x1="32.036148" />
    <linearGradient
       gradientUnits="userSpaceOnUse"
       id="linearGradient3309"
       y2="122.8994"
       x2="63.9995"
       y1="3.1001"
       x1="63.9995">
      <stop
         offset="0"
         style="stop-color:#f6f6f6;stop-opacity:1"
         id="stop3311" />
      <stop
         offset="1"
         style="stop-color:#d2d2d2;stop-opacity:1"
         id="stop3313" />
    </linearGradient>
    <linearGradient
       gradientTransform="matrix(0.53571429,0,0,0.53571429,6.625,5.5892854)"
       gradientUnits="userSpaceOnUse"
       xlink:href="#linearGradient3397"
       id="linearGradient2842"
       y2="47.044857"
       x2="25.922546"
       y1="19"
       x1="25.922546" />
    <linearGradient
       id="linearGradient3397">
      <stop
         offset="0"
         style="stop-color:#aaaaaa;stop-opacity:1"
         id="stop3399" />
      <stop
         offset="1"
         style="stop-color:#8c8c8c;stop-opacity:1"
         id="stop3401" />
    </linearGradient>
    <linearGradient
       id="linearGradient10691">
      <stop
         offset="0"
         style="stop-color:#000000;stop-opacity:1"
         id="stop10693" />
      <stop
         offset="1"
         style="stop-color:#000000;stop-opacity:0"
         id="stop10695" />
    </linearGradient>
    <radialGradient
       gradientTransform="matrix(2.2134617,0,0,0.4842001,1.1638028,-7.1447362)"
       gradientUnits="userSpaceOnUse"
       xlink:href="#linearGradient10691"
       id="radialGradient3751"
       fy="73.615715"
       fx="6.702713"
       r="7.228416"
       cy="73.615715"
       cx="6.702713" />
  </defs>
  <metadata
     id="metadata3758">
    <rdf:RDF>
      <cc:Work
         rdf:about="">
        <dc:format>image/svg+xml</dc:format>
        <dc:type
           rdf:resource="http://purl.org/dc/dcmitype/StillImage" />
        <dc:title />
      </cc:Work>
    </rdf:RDF>
  </metadata>
  <path
     inkscape:connector-curvature="0"
     d="m 22.093751,16.035714 c -0.40111,0 -0.736607,0.318756 -0.736607,0.719866 v 0.9375 c -0.253609,0.08511 -0.499688,0.183967 -0.736608,0.301339 l -0.652902,-0.652902 c -0.283628,-0.283627 -0.737578,-0.283627 -1.021205,0 l -1.640625,1.623884 c -0.283628,0.283628 -0.283627,0.737579 0,1.021206 l 0.652902,0.652902 c -0.120176,0.241035 -0.214625,0.494963 -0.30134,0.753348 h -0.920759 c -0.40111,0 -0.736608,0.318756 -0.736607,0.719866 v 2.310268 c 0,0.40111 0.335499,0.719867 0.736607,0.719866 h 0.920759 c 0.08671,0.258385 0.181164,0.512313 0.30134,0.753348 l -0.652902,0.652902 c -0.283628,0.283628 -0.283629,0.737578 0,1.021205 l 1.640625,1.623884 c 0.283627,0.283628 0.737578,0.283627 1.021205,0 l 0.652902,-0.652901 c 0.23692,0.117371 0.482999,0.216227 0.736608,0.301339 v 0.9375 c -1e-6,0.40111 0.335499,0.719867 0.736607,0.719866 h 2.293527 c 0.40111,0 0.719866,-0.318758 0.719866,-0.719866 v -0.9375 c 0.258384,-0.08672 0.512313,-0.181164 0.753348,-0.301339 l 0.652901,0.652901 c 0.283628,0.283628 0.737577,0.283628 1.021205,0 l 1.640625,-1.623884 c 0.283629,-0.283627 0.283626,-0.737579 0,-1.021205 l -0.669642,-0.669643 c 0.117371,-0.236919 0.216227,-0.482999 0.301339,-0.736607 h 0.9375 c 0.40111,0 0.719866,-0.318757 0.719866,-0.719866 v -2.310268 c 10e-7,-0.40111 -0.318759,-0.719866 -0.719866,-0.719866 h -0.9375 C 28.72181,21.139249 28.622952,20.893169 28.505581,20.65625 l 0.669642,-0.669643 c 0.283629,-0.283628 0.283628,-0.737578 0,-1.021206 l -1.640625,-1.623884 c -0.283626,-0.283627 -0.737578,-0.283627 -1.021205,0 l -0.652901,0.652902 C 25.619457,17.874244 25.365528,17.779795 25.107144,17.69308 v -0.9375 c 0,-0.40111 -0.318759,-0.719866 -0.719866,-0.719866 z m 1.138393,5.357143 c 1.035,0 1.875,0.84 1.875,1.875 0,1.035 -0.84,1.875 -1.875,1.875 -1.035001,0 -1.875,-0.84 -1.875,-1.875 -1e-6,-1.035 0.84,-1.875 1.875,-1.875 z"
     id="rect2576"
     style="display:block;overflow:visible;visibility:visible;fill:url(#linearGradient2840);fill-opacity:1;fill-rule:nonzero;stroke:url(#linearGradient2842);stroke-width:1;stroke-linecap:butt;stroke-linejoin:round;stroke-miterlimit:4;stroke-dasharray:none;stroke-dashoffset:0;stroke-opacity:1;marker:none;enable-background:accumulate" />
  <path
     inkscape:connector-curvature="0"
     d="m 23.232143,18.982143 c -2.363182,0 -4.285714,1.922532 -4.285714,4.285714 0,2.363183 1.922532,4.285714 4.285714,4.285714 2.363182,0 4.285714,-1.922531 4.285714,-4.285714 0,-2.363182 -1.922532,-4.285714 -4.285714,-4.285714 z m 0,2.678571 c 0.8876,0 1.607143,0.719543 1.607143,1.607143 0,0.8876 -0.719543,1.607143 -1.607143,1.607143 -0.8876,0 -1.607143,-0.719543 -1.607143,-1.607143 0,-0.8876 0.719543,-1.607143 1.607143,-1.607143 z"
     id="path3315"
     style="opacity:0.05;fill:#000000;fill-opacity:1;stroke:none;stroke-width:1;stroke-miterlimit:4;stroke-dasharray:none" />
  <path
     inkscape:connector-curvature="0"
     d="m 23.232143,18.714285 c -2.510841,0 -4.553571,2.042732 -4.553571,4.553571 -10e-7,2.51084 2.04273,4.553572 4.553571,4.553572 2.51084,0 4.553572,-2.042732 4.553572,-4.553572 0,-2.510839 -2.042732,-4.553571 -4.553572,-4.553571 z"
     id="path28"
     style="fill:none;stroke:url(#linearGradient2836);stroke-width:1;stroke-miterlimit:4;stroke-dasharray:none" />
  <path
     inkscape:connector-curvature="0"
     d="m 22.09375,16.571428 c -0.342727,0.07478 -0.150764,0.519512 -0.200893,0.775091 0.02484,0.319699 0.0064,0.743106 -0.368303,0.848793 -0.409949,0.08605 -0.881788,0.545472 -1.272322,0.167411 -0.270859,-0.228344 -0.475539,-0.56725 -0.795201,-0.715157 -0.289665,0.147427 -0.498872,0.469228 -0.758291,0.688703 -0.350394,0.363216 -0.73763,0.697096 -1.0647,1.078886 -0.0204,0.288581 0.329835,0.433164 0.485782,0.648863 0.268252,0.203438 0.491413,0.56672 0.269881,0.888674 -0.182053,0.353431 -0.208128,0.974293 -0.732337,0.975879 -0.352622,0.02834 -0.733039,-0.06095 -1.065967,0.05286 -0.11905,0.332469 -0.02634,0.720934 -0.05568,1.076791 0.0095,0.478755 -0.0192,0.961305 0.0146,1.437652 0.202025,0.209466 0.548481,0.07128 0.816623,0.111264 0.342203,-0.0502 0.762406,0.06539 0.823787,0.460388 0.09386,0.381783 0.497808,0.834773 0.13628,1.196978 -0.225191,0.268124 -0.562416,0.470888 -0.708049,0.786045 0.15282,0.321544 0.494142,0.52773 0.727138,0.799849 0.345468,0.338217 0.694992,0.694575 1.036448,1.022181 0.295338,0.02205 0.443276,-0.332467 0.662499,-0.492405 0.203625,-0.268825 0.567907,-0.491645 0.889927,-0.269181 0.347907,0.18318 0.957734,0.214571 0.957885,0.731636 0.02986,0.353055 -0.06415,0.739191 0.05569,1.068788 0.380798,0.11308 0.80849,0.02497 1.208897,0.05287 0.436023,-0.008 0.87445,0.01598 1.308967,-0.01199 0.202328,-0.194354 0.06428,-0.540283 0.105021,-0.802499 -0.02952,-0.309622 0.01249,-0.709729 0.368303,-0.809396 0.416557,-0.0797 0.893988,-0.547144 1.289063,-0.167411 0.270859,0.228344 0.475539,0.56725 0.795201,0.715158 0.289665,-0.147428 0.498872,-0.469229 0.758291,-0.688703 0.350394,-0.363217 0.73763,-0.697097 1.0647,-1.078887 0.02039,-0.288581 -0.329835,-0.433164 -0.485781,-0.648863 -0.271423,-0.208803 -0.515665,-0.574289 -0.285922,-0.906668 0.18318,-0.347907 0.214571,-0.957734 0.731636,-0.957885 0.355721,-0.02528 0.736228,0.05436 1.074337,-0.04732 0.102589,-0.393162 0.02138,-0.82911 0.04731,-1.239924 -0.0077,-0.428492 0.01557,-0.859315 -0.01199,-1.28631 -0.194354,-0.202331 -0.540282,-0.06429 -0.802498,-0.105023 -0.344434,0.04813 -0.774422,-0.05394 -0.839166,-0.455627 -0.100903,-0.376295 -0.497248,-0.826054 -0.137641,-1.184998 0.233527,-0.247603 0.497927,-0.469812 0.712295,-0.733173 0.0138,-0.290957 -0.331882,-0.432863 -0.490646,-0.64775 -0.419873,-0.412221 -0.844687,-0.842237 -1.260445,-1.243892 -0.295338,-0.02205 -0.443276,0.332467 -0.662499,0.492405 -0.203438,0.268252 -0.566719,0.491413 -0.888674,0.269881 -0.353431,-0.182053 -0.974293,-0.208128 -0.975879,-0.732337 -0.02528,-0.355721 0.05436,-0.736228 -0.04732,-1.074336 -0.393161,-0.102591 -0.829109,-0.02138 -1.239923,-0.04732 -0.396813,0 -0.793627,0 -1.19044,0 z"
     id="path2901"
     style="display:block;overflow:visible;visibility:visible;opacity:0.8;fill:none;stroke:url(#linearGradient3688);stroke-width:1;stroke-linecap:butt;stroke-linejoin:round;stroke-miterlimit:4;stroke-dasharray:none;stroke-dashoffset:0;stroke-opacity:1;marker:none;enable-background:accumulate" />
  <path
     inkscape:connector-curvature="0"
     d="m 25.642857,23.267857 a 2.4107145,2.4107145 0 1 1 -4.821428,0 2.4107145,2.4107145 0 1 1 4.821428,0 z"
     id="path3690"
     style="color:#000000;display:inline;overflow:visible;visibility:visible;opacity:0.4;fill:none;stroke:url(#linearGradient3698);stroke-width:1;stroke-linecap:butt;stroke-linejoin:miter;stroke-miterlimit:4;stroke-dasharray:none;stroke-dashoffset:0;stroke-opacity:1;marker:none;enable-background:accumulate" />
</svg>
