<?xml version="1.0" encoding="UTF-8" standalone="no"?>
<svg
   xmlns:dc="http://purl.org/dc/elements/1.1/"
   xmlns:cc="http://creativecommons.org/ns#"
   xmlns:rdf="http://www.w3.org/1999/02/22-rdf-syntax-ns#"
   xmlns:svg="http://www.w3.org/2000/svg"
   xmlns="http://www.w3.org/2000/svg"
   xmlns:xlink="http://www.w3.org/1999/xlink"
   xmlns:sodipodi="http://sodipodi.sourceforge.net/DTD/sodipodi-0.dtd"
   xmlns:inkscape="http://www.inkscape.org/namespaces/inkscape"
   version="1.1"
   width="32"
   height="32"
   id="svg3658"
   sodipodi:docname="base-error.svg"
   inkscape:version="0.92.4 (5da689c313, 2019-01-14)">
  <sodipodi:namedview
     pagecolor="#ffffff"
     bordercolor="#666666"
     borderopacity="1"
     objecttolerance="10"
     gridtolerance="10"
     guidetolerance="10"
     inkscape:pageopacity="0"
     inkscape:pageshadow="2"
     inkscape:window-width="2880"
     inkscape:window-height="1706"
     id="namedview27"
     showgrid="false"
     inkscape:zoom="32"
     inkscape:cx="16.369879"
     inkscape:cy="10.805026"
     inkscape:window-x="-11"
     inkscape:window-y="-11"
     inkscape:window-maximized="1"
     inkscape:current-layer="svg3658" />
  <defs
     id="defs3660">
    <linearGradient
       id="linearGradient4011">
      <stop
         id="stop4013"
         style="stop-color:#ffffff;stop-opacity:1"
         offset="0" />
      <stop
         id="stop4015"
         style="stop-color:#ffffff;stop-opacity:0.23529412"
         offset="0.507761" />
      <stop
         id="stop4017"
         style="stop-color:#ffffff;stop-opacity:0.15686275"
         offset="0.83456558" />
      <stop
         id="stop4019"
         style="stop-color:#ffffff;stop-opacity:0.39215687"
         offset="1" />
    </linearGradient>
    <linearGradient
       id="linearGradient3820-7-2-2">
      <stop
         id="stop3822-2-6-36"
         style="stop-color:#3d3d3d;stop-opacity:1"
         offset="0" />
      <stop
         id="stop3864-8-7-6"
         style="stop-color:#686868;stop-opacity:0.49803922"
         offset="0.5" />
      <stop
         id="stop3824-1-2-4"
         style="stop-color:#686868;stop-opacity:0"
         offset="1" />
    </linearGradient>
    <radialGradient
       xlink:href="#linearGradient3820-7-2-2"
       id="radialGradient4048"
       gradientUnits="userSpaceOnUse"
       gradientTransform="matrix(0.08763321,0,0,0.0278833,14.810553,24.058741)"
       cx="99.157013"
       cy="186.17059"
       fx="99.157013"
       fy="186.17059"
       r="62.769119" />
    <linearGradient
       gradientTransform="matrix(0.31017246,0,0,0.31017246,0.5002051,15.384916)"
       gradientUnits="userSpaceOnUse"
       xlink:href="#linearGradient4011"
       id="linearGradient12398-3"
       y2="44.340794"
       x2="71.204407"
       y1="6.2375584"
       x1="71.204407" />
    <linearGradient
       gradientTransform="matrix(0.47239138,0,0,0.35315795,-940.37047,-1115.5289)"
       gradientUnits="userSpaceOnUse"
       xlink:href="#linearGradient947"
       id="linearGradient11527-6-5"
       y2="3241.9966"
       x2="2035.1652"
       y1="3208.0737"
       x1="2035.1652" />
    <linearGradient
       id="linearGradient947">
      <stop
         id="stop943"
         style="stop-color:#ed5353;stop-opacity:1"
         offset="0" />
      <stop
         id="stop945"
         style="stop-color:#c6262e;stop-opacity:1"
         offset="1" />
    </linearGradient>
  </defs>
  <metadata
     id="metadata3663">
    <rdf:RDF>
      <cc:Work
         rdf:about="">
        <dc:format>image/svg+xml</dc:format>
        <dc:type
           rdf:resource="http://purl.org/dc/dcmitype/StillImage" />
        <dc:title />
      </cc:Work>
    </rdf:RDF>
  </metadata>
  <path
     style="color:#000000;display:inline;overflow:visible;visibility:visible;opacity:0.98999999;fill:url(#linearGradient11527-6-5);fill-opacity:1;fill-rule:nonzero;stroke:none;stroke-width:1;stroke-miterlimit:4;stroke-dasharray:none;marker:none;enable-background:accumulate"
     id="path2555-7-8-5-0-9"
     d="m 22.749969,17.086791 c -3.400664,0 -6.163238,2.762575 -6.163238,6.163239 0,3.400664 2.762574,6.163239 6.163238,6.163239 3.400665,0 6.163246,-2.762575 6.16324,-6.163239 0,-3.400664 -2.762575,-6.163239 -6.16324,-6.163239 z"
     inkscape:connector-curvature="0" />
  <path
     style="color:#000000;display:inline;overflow:visible;visibility:visible;opacity:0.4;fill:none;stroke:url(#linearGradient12398-3);stroke-width:1;stroke-linecap:round;stroke-linejoin:round;stroke-miterlimit:4;stroke-dasharray:none;stroke-dashoffset:0;stroke-opacity:1;marker:none;enable-background:accumulate"
     id="path8655-6-0-9-5-0"
     d="m 28.488158,23.249824 c 0,3.169221 -2.569266,5.738396 -5.738119,5.738396 -3.169142,0 -5.738257,-2.569205 -5.738257,-5.738396 0,-3.169069 2.569115,-5.737984 5.738257,-5.737984 3.168853,0 5.738119,2.568915 5.738119,5.737984 z"
     inkscape:connector-curvature="0" />
  <path
     style="color:#000000;display:inline;overflow:visible;visibility:visible;opacity:0.5;vector-effect:none;fill:none;fill-opacity:1;stroke:#7a0000;stroke-width:1;stroke-linecap:round;stroke-linejoin:round;stroke-miterlimit:4;stroke-dasharray:none;stroke-dashoffset:0;stroke-opacity:1;marker:none;enable-background:accumulate"
     id="path2555-4"
     d="m 22.74997,17.087556 c -3.400241,0 -6.162474,2.762233 -6.162474,6.162473 0,3.400242 2.762233,6.162477 6.162474,6.162476 3.40024,0 6.162478,-2.762234 6.162475,-6.162476 0,-3.40024 -2.762235,-6.162473 -6.162475,-6.162473 z"
     inkscape:connector-curvature="0" />
  <path
     style="opacity:0.05;vector-effect:none;fill:#7a0000;fill-opacity:1;stroke:none;stroke-width:1;stroke-linecap:butt;stroke-linejoin:miter;stroke-miterlimit:4;stroke-dasharray:none;stroke-dashoffset:0;stroke-opacity:1;marker:none"
     id="path4159-3-3-6"
     d="m 22.74997,19.006162 c -0.699357,0 -1.275153,0.575797 -1.275153,1.275153 0,0.944709 0.287511,2.891167 0.570332,5.153743 a 0.42535919,0.42535919 0 0 0 0.42173,0.371919 h 0.283091 0.283921 a 0.42535919,0.42535919 0 0 0 0.421729,-0.371919 c 0.282835,-2.262677 0.569503,-4.209311 0.569503,-5.153743 0,-0.699356 -0.575796,-1.275153 -1.275153,-1.275153 z m 0,6.800815 c -0.699357,0 -1.275153,0.575796 -1.275153,1.275153 0,0.699357 0.575796,1.275153 1.275153,1.275153 0.699357,0 1.275153,-0.575796 1.275153,-1.275153 0,-0.699357 -0.575796,-1.275153 -1.275153,-1.275153 z"
     inkscape:connector-curvature="0" />
  <path
     style="opacity:0.15;vector-effect:none;fill:#7a0000;fill-opacity:1;stroke:none;stroke-width:1;stroke-linecap:butt;stroke-linejoin:miter;stroke-miterlimit:4;stroke-dasharray:none;stroke-dashoffset:0;stroke-opacity:1;marker:none"
     d="m 22.750225,19.430947 c -0.469498,0 -0.850102,0.380604 -0.850102,0.850102 0,0.850102 0.283368,2.833673 0.566735,5.100612 h 0.566734 c 0.283367,-2.266939 0.566735,-4.25051 0.566735,-5.100612 0,-0.469498 -0.380604,-0.850102 -0.850102,-0.850102 z m 0,6.800815 c -0.469498,0 -0.850102,0.380605 -0.850102,0.850102 0,0.469498 0.380604,0.850102 0.850102,0.850102 0.469498,0 0.850102,-0.380604 0.850102,-0.850102 0,-0.469497 -0.380604,-0.850102 -0.850102,-0.850102 z"
     id="path4159-3-3"
     inkscape:connector-curvature="0" />
  <path
     style="opacity:1;fill:#ffffff;fill-opacity:1;stroke:none;stroke-width:1;stroke-linejoin:round;stroke-miterlimit:4;stroke-dasharray:none;stroke-opacity:0.49803922"
     d="m 22.750225,19.005896 c -0.469498,0 -0.850102,0.380604 -0.850102,0.850102 0,0.850102 0.283368,2.833673 0.566735,5.100612 h 0.566734 c 0.283367,-2.266939 0.566735,-4.25051 0.566735,-5.100612 0,-0.469498 -0.380604,-0.850102 -0.850102,-0.850102 z m 0,6.800816 c -0.469498,0 -0.850102,0.380604 -0.850102,0.850101 0,0.469498 0.380604,0.850102 0.850102,0.850102 0.469498,0 0.850102,-0.380604 0.850102,-0.850102 0,-0.469497 -0.380604,-0.850101 -0.850102,-0.850101 z"
     id="path4159-3"
     inkscape:connector-curvature="0" />
</svg>
