<?xml version="1.0" encoding="UTF-8" standalone="no"?>
<svg
   xmlns:dc="http://purl.org/dc/elements/1.1/"
   xmlns:cc="http://creativecommons.org/ns#"
   xmlns:rdf="http://www.w3.org/1999/02/22-rdf-syntax-ns#"
   xmlns:svg="http://www.w3.org/2000/svg"
   xmlns="http://www.w3.org/2000/svg"
   xmlns:xlink="http://www.w3.org/1999/xlink"
   xmlns:sodipodi="http://sodipodi.sourceforge.net/DTD/sodipodi-0.dtd"
   xmlns:inkscape="http://www.inkscape.org/namespaces/inkscape"
   version="1.1"
   width="32"
   height="32"
   id="svg3658"
   sodipodi:docname="base-error.svg"
   inkscape:version="0.92.4 (5da689c313, 2019-01-14)">
  <sodipodi:namedview
     pagecolor="#ffffff"
     bordercolor="#666666"
     borderopacity="1"
     objecttolerance="10"
     gridtolerance="10"
     guidetolerance="10"
     inkscape:pageopacity="0"
     inkscape:pageshadow="2"
     inkscape:window-width="1920"
     inkscape:window-height="1017"
     id="namedview27"
     showgrid="false"
     inkscape:zoom="32"
     inkscape:cx="23.229254"
     inkscape:cy="10.805026"
     inkscape:window-x="-8"
     inkscape:window-y="-8"
     inkscape:window-maximized="1"
     inkscape:current-layer="svg3658" />
  <defs
     id="defs3660">
    <linearGradient
       id="linearGradient4011">
      <stop
         id="stop4013"
         style="stop-color:#ffffff;stop-opacity:1"
         offset="0" />
      <stop
         id="stop4015"
         style="stop-color:#ffffff;stop-opacity:0.23529412"
         offset="0.507761" />
      <stop
         id="stop4017"
         style="stop-color:#ffffff;stop-opacity:0.15686275"
         offset="0.83456558" />
      <stop
         id="stop4019"
         style="stop-color:#ffffff;stop-opacity:0.39215687"
         offset="1" />
    </linearGradient>
    <linearGradient
       id="linearGradient3820-7-2-2">
      <stop
         id="stop3822-2-6-36"
         style="stop-color:#3d3d3d;stop-opacity:1"
         offset="0" />
      <stop
         id="stop3864-8-7-6"
         style="stop-color:#686868;stop-opacity:0.49803922"
         offset="0.5" />
      <stop
         id="stop3824-1-2-4"
         style="stop-color:#686868;stop-opacity:0"
         offset="1" />
    </linearGradient>
    <radialGradient
       xlink:href="#linearGradient3820-7-2-2"
       id="radialGradient4048"
       gradientUnits="userSpaceOnUse"
       gradientTransform="matrix(0.08763321,0,0,0.0278833,14.810553,24.058741)"
       cx="99.157013"
       cy="186.17059"
       fx="99.157013"
       fy="186.17059"
       r="62.769119" />
    <linearGradient
       gradientTransform="matrix(0.36490878,0,0,0.36490878,-3.426224,13.996955)"
       gradientUnits="userSpaceOnUse"
       xlink:href="#linearGradient4011"
       id="linearGradient12398-3"
       y2="44.340794"
       x2="71.204407"
       y1="6.2375584"
       x1="71.204407" />
    <linearGradient
       gradientTransform="matrix(0.55575457,0,0,0.41547994,-1110.3329,-1316.4899)"
       gradientUnits="userSpaceOnUse"
       xlink:href="#linearGradient947"
       id="linearGradient11527-6-5"
       y2="3241.9966"
       x2="2035.1652"
       y1="3208.0737"
       x1="2035.1652" />
    <linearGradient
       id="linearGradient947">
      <stop
         id="stop943"
         style="stop-color:#ed5353;stop-opacity:1"
         offset="0" />
      <stop
         id="stop945"
         style="stop-color:#c6262e;stop-opacity:1"
         offset="1" />
    </linearGradient>
  </defs>
  <metadata
     id="metadata3663">
    <rdf:RDF>
      <cc:Work
         rdf:about="">
        <dc:format>image/svg+xml</dc:format>
        <dc:type
           rdf:resource="http://purl.org/dc/dcmitype/StillImage" />
        <dc:title />
      </cc:Work>
    </rdf:RDF>
  </metadata>
  <path
     style="color:#000000;display:inline;overflow:visible;visibility:visible;opacity:0.98999999;fill:url(#linearGradient11527-6-5);fill-opacity:1;fill-rule:nonzero;stroke:none;stroke-width:1;stroke-miterlimit:4;stroke-dasharray:none;marker:none;enable-background:accumulate"
     id="path2555-7-8-5-0-9"
     d="m 22.749969,15.999161 c -4.000781,0 -7.250869,3.250088 -7.250869,7.250869 0,4.000781 3.250088,7.250869 7.250869,7.250869 4.000782,0 7.250877,-3.250088 7.25087,-7.250869 0,-4.000781 -3.250088,-7.250869 -7.25087,-7.250869 z"
     inkscape:connector-curvature="0" />
  <path
     style="color:#000000;display:inline;overflow:visible;visibility:visible;opacity:0.4;fill:none;stroke:url(#linearGradient12398-3);stroke-width:1;stroke-linecap:round;stroke-linejoin:round;stroke-miterlimit:4;stroke-dasharray:none;stroke-dashoffset:0;stroke-opacity:1;marker:none;enable-background:accumulate"
     id="path8655-6-0-9-5-0"
     d="m 29.500779,23.249788 c 0,3.728495 -3.022666,6.751054 -6.750728,6.751054 -3.728402,0 -6.75089,-3.022594 -6.75089,-6.751054 0,-3.728317 3.022488,-6.75057 6.75089,-6.75057 3.728062,0 6.750728,3.022253 6.750728,6.75057 z"
     inkscape:connector-curvature="0" />
  <path
     style="color:#000000;display:inline;overflow:visible;visibility:visible;opacity:0.5;vector-effect:none;fill:none;fill-opacity:1;stroke:#7a0000;stroke-width:1;stroke-linecap:round;stroke-linejoin:round;stroke-miterlimit:4;stroke-dasharray:none;stroke-dashoffset:0;stroke-opacity:1;marker:none;enable-background:accumulate"
     id="path2555-4"
     d="m 22.74997,16.00006 c -4.000283,0 -7.24997,3.249686 -7.24997,7.249969 0,4.000284 3.249687,7.249973 7.24997,7.249971 4.000282,0 7.249974,-3.249687 7.24997,-7.249971 0,-4.000283 -3.249688,-7.249969 -7.24997,-7.249969 z"
     inkscape:connector-curvature="0" />
  <path
     style="opacity:0.05;vector-effect:none;fill:#7a0000;fill-opacity:1;stroke:none;stroke-width:1;stroke-linecap:butt;stroke-linejoin:miter;stroke-miterlimit:4;stroke-dasharray:none;stroke-dashoffset:0;stroke-opacity:1;marker:none"
     id="path4159-3-3-6"
     d="m 22.74997,18.257244 c -0.822773,0 -1.50018,0.677408 -1.50018,1.50018 0,1.111422 0.338248,3.401373 0.670979,6.063227 a 0.50042258,0.50042258 0 0 0 0.496153,0.437552 h 0.333048 0.334025 a 0.50042258,0.50042258 0 0 0 0.496152,-0.437552 c 0.332747,-2.661973 0.670003,-4.95213 0.670003,-6.063227 0,-0.822772 -0.677407,-1.50018 -1.50018,-1.50018 z m 0,8.000959 c -0.822773,0 -1.50018,0.677407 -1.50018,1.50018 0,0.822773 0.677407,1.50018 1.50018,1.50018 0.822773,0 1.50018,-0.677407 1.50018,-1.50018 0,-0.822773 -0.677407,-1.50018 -1.50018,-1.50018 z"
     inkscape:connector-curvature="0" />
  <path
     style="opacity:0.15;vector-effect:none;fill:#7a0000;fill-opacity:1;stroke:none;stroke-width:1;stroke-linecap:butt;stroke-linejoin:miter;stroke-miterlimit:4;stroke-dasharray:none;stroke-dashoffset:0;stroke-opacity:1;marker:none"
     d="m 22.75027,18.756991 c -0.552351,0 -1.00012,0.44777 -1.00012,1.00012 0,1.00012 0.333374,3.333733 0.666747,6.00072 h 0.666746 c 0.333373,-2.666987 0.666747,-5.0006 0.666747,-6.00072 0,-0.55235 -0.447769,-1.00012 -1.00012,-1.00012 z m 0,8.000959 c -0.552351,0 -1.00012,0.44777 -1.00012,1.00012 0,0.552351 0.447769,1.00012 1.00012,1.00012 0.552351,0 1.00012,-0.447769 1.00012,-1.00012 0,-0.55235 -0.447769,-1.00012 -1.00012,-1.00012 z"
     id="path4159-3-3"
     inkscape:connector-curvature="0" />
  <path
     style="opacity:1;fill:#ffffff;fill-opacity:1;stroke:none;stroke-width:1;stroke-linejoin:round;stroke-miterlimit:4;stroke-dasharray:none;stroke-opacity:0.49803922"
     d="m 22.75027,18.256931 c -0.552351,0 -1.00012,0.44777 -1.00012,1.00012 0,1.00012 0.333374,3.333733 0.666747,6.00072 h 0.666746 c 0.333373,-2.666987 0.666747,-5.0006 0.666747,-6.00072 0,-0.55235 -0.447769,-1.00012 -1.00012,-1.00012 z m 0,8.00096 c -0.552351,0 -1.00012,0.447769 -1.00012,1.000119 0,0.552351 0.447769,1.00012 1.00012,1.00012 0.552351,0 1.00012,-0.447769 1.00012,-1.00012 0,-0.55235 -0.447769,-1.000119 -1.00012,-1.000119 z"
     id="path4159-3"
     inkscape:connector-curvature="0" />
</svg>
