<?xml version="1.0" encoding="UTF-8" standalone="no"?>
<svg
   xmlns:dc="http://purl.org/dc/elements/1.1/"
   xmlns:cc="http://creativecommons.org/ns#"
   xmlns:rdf="http://www.w3.org/1999/02/22-rdf-syntax-ns#"
   xmlns:svg="http://www.w3.org/2000/svg"
   xmlns="http://www.w3.org/2000/svg"
   xmlns:xlink="http://www.w3.org/1999/xlink"
   xmlns:sodipodi="http://sodipodi.sourceforge.net/DTD/sodipodi-0.dtd"
   xmlns:inkscape="http://www.inkscape.org/namespaces/inkscape"
   version="1.0"
   width="32"
   height="32"
   id="svg2485"
   viewBox="0 0 32 32"
   sodipodi:docname="battery-empty.svg"
   inkscape:version="0.92.4 (5da689c313, 2019-01-14)">
  <sodipodi:namedview
     pagecolor="#ffffff"
     bordercolor="#666666"
     borderopacity="1"
     objecttolerance="10"
     gridtolerance="10"
     guidetolerance="10"
     inkscape:pageopacity="0"
     inkscape:pageshadow="2"
     inkscape:window-width="2880"
     inkscape:window-height="1706"
     id="namedview72"
     showgrid="false"
     inkscape:zoom="7.375"
     inkscape:cx="-1.4237288"
     inkscape:cy="16"
     inkscape:window-x="-11"
     inkscape:window-y="-11"
     inkscape:window-maximized="1"
     inkscape:current-layer="svg2485" />
  <metadata
     id="metadata71">
    <rdf:RDF>
      <cc:Work
         rdf:about="">
        <dc:format>image/svg+xml</dc:format>
        <dc:type
           rdf:resource="http://purl.org/dc/dcmitype/StillImage" />
        <dc:title></dc:title>
      </cc:Work>
    </rdf:RDF>
  </metadata>
  <defs
     id="defs2487">
    <linearGradient
       id="linearGradient5126">
      <stop
         id="stop5128"
         style="stop-color:#ffffff;stop-opacity:1"
         offset="0" />
      <stop
         id="stop5130"
         style="stop-color:#ffffff;stop-opacity:0"
         offset="1" />
    </linearGradient>
    <linearGradient
       id="linearGradient5118">
      <stop
         id="stop5120"
         style="stop-color:#9d9d9d;stop-opacity:1"
         offset="0" />
      <stop
         id="stop5122"
         style="stop-color:#ffffff;stop-opacity:1"
         offset="1" />
    </linearGradient>
    <linearGradient
       id="linearGradient4762">
      <stop
         id="stop4764"
         style="stop-color:#ffffff;stop-opacity:1"
         offset="0" />
      <stop
         id="stop4766"
         style="stop-color:#ffffff;stop-opacity:0.23529412"
         offset="0.05034721" />
      <stop
         id="stop4768"
         style="stop-color:#ffffff;stop-opacity:0.15686275"
         offset="0.94965279" />
      <stop
         id="stop4770"
         style="stop-color:#ffffff;stop-opacity:0.39215687"
         offset="1" />
    </linearGradient>
    <linearGradient
       x1="16.498198"
       y1="8.7942686"
       x2="16.498198"
       y2="65.258163"
       id="linearGradient4393"
       xlink:href="#linearGradient3242-4-2"
       gradientUnits="userSpaceOnUse"
       gradientTransform="matrix(0.47222223,0,0,0.15657895,5.1170962,20.582236)" />
    <linearGradient
       id="linearGradient3254-3-182-8-5">
      <stop
         id="stop4663-8-7"
         style="stop-color:#ffffff;stop-opacity:1"
         offset="0" />
      <stop
         id="stop4665-7-6"
         style="stop-color:#ffffff;stop-opacity:0"
         offset="1" />
    </linearGradient>
    <linearGradient
       x1="30"
       y1="7"
       x2="30"
       y2="43"
       id="linearGradient4760"
       xlink:href="#linearGradient4762"
       gradientUnits="userSpaceOnUse"
       gradientTransform="matrix(0.44199998,0,0,0.55135134,5.8424294,2.7162165)" />
    <linearGradient
       x1="-20.446733"
       y1="-93.091553"
       x2="-48.479328"
       y2="-93.091553"
       id="linearGradient3457-7-6"
       xlink:href="#linearGradient2793-2-0-669-94-2"
       gradientUnits="userSpaceOnUse"
       gradientTransform="matrix(0.1082923,0,0,0.12846791,19.271796,16.945641)"
       spreadMethod="reflect" />
    <linearGradient
       id="linearGradient2793-2-0-669-94-2">
      <stop
         id="stop4681-3-1"
         style="stop-color:#b4b4b4;stop-opacity:1"
         offset="0" />
      <stop
         id="stop4683-67-4"
         style="stop-color:#ffffff;stop-opacity:1"
         offset="1" />
    </linearGradient>
    <linearGradient
       x1="-17.12093"
       y1="-93.091553"
       x2="-45.761551"
       y2="-93.091553"
       id="linearGradient5066-8"
       xlink:href="#linearGradient5118"
       gradientUnits="userSpaceOnUse"
       gradientTransform="matrix(0.31326911,0,0,0.11355647,24.647221,15.819384)"
       spreadMethod="reflect" />
    <radialGradient
       cx="16.5"
       cy="7.5"
       r="3.5"
       fx="16.5"
       fy="7.5"
       id="radialGradient5132"
       xlink:href="#linearGradient5126"
       gradientUnits="userSpaceOnUse"
       gradientTransform="matrix(0.45432907,0,0,0.5016592,5.2040002,2.5398465)" />
    <linearGradient
       id="linearGradient3820-7-2-1-2-6">
      <stop
         id="stop3822-2-6-3-3-7"
         style="stop-color:#3d3d3d;stop-opacity:1"
         offset="0" />
      <stop
         id="stop3864-8-7-7-9-1"
         style="stop-color:#686868;stop-opacity:0.49803922"
         offset="0.5" />
      <stop
         id="stop3824-1-2-5-0-3"
         style="stop-color:#686868;stop-opacity:0"
         offset="1" />
    </linearGradient>
    <radialGradient
       cx="99.157013"
       cy="186.17059"
       r="62.769119"
       fx="99.157013"
       fy="186.17059"
       id="radialGradient5362"
       xlink:href="#linearGradient3820-7-2-1-2-6"
       gradientUnits="userSpaceOnUse"
       gradientTransform="matrix(0.13541689,0,0,0.03385424,3.0228941,20.397551)" />
    <linearGradient
       x1="13.681819"
       y1="17.458462"
       x2="17.77273"
       y2="35.717499"
       id="linearGradient5508"
       xlink:href="#linearGradient3254-3-182-8-5"
       gradientUnits="userSpaceOnUse"
       gradientTransform="matrix(0.83111062,0,0,1.1850219,0.82932455,-15.00734)" />
    <linearGradient
       x1="25.272734"
       y1="17.458462"
       x2="27.31819"
       y2="35.717499"
       id="linearGradient5510"
       xlink:href="#linearGradient3254-3-182-8-5"
       gradientUnits="userSpaceOnUse"
       gradientTransform="matrix(0.83111062,0,0,1.2024487,-2.004009,-15.470683)" />
    <linearGradient
       id="linearGradient3821">
      <stop
         style="stop-color:#000000;stop-opacity:1;"
         offset="0"
         id="stop3823" />
      <stop
         style="stop-color:#000000;stop-opacity:0;"
         offset="1"
         id="stop3825" />
    </linearGradient>
    <linearGradient
       y2="25"
       x2="36.608757"
       y1="25"
       x1="12.029413"
       gradientTransform="matrix(0.51000002,0,0,0.56666667,-28.690428,2.3333339)"
       gradientUnits="userSpaceOnUse"
       id="linearGradient3941"
       xlink:href="#linearGradient3821" />
    <linearGradient
       id="linearGradient3242-4-2">
      <stop
         offset="0"
         style="stop-color:#f89b7e;stop-opacity:1"
         id="stop3244-8-8" />
      <stop
         offset="0.26238"
         style="stop-color:#e35d4f;stop-opacity:1"
         id="stop3246-2-8" />
      <stop
         offset="0.66093999"
         style="stop-color:#c6262e;stop-opacity:1"
         id="stop3248-8-0" />
      <stop
         offset="1"
         style="stop-color:#690b2c;stop-opacity:1"
         id="stop3250-3-0" />
    </linearGradient>
    <linearGradient
       id="linearGradient3117">
      <stop
         offset="0"
         style="stop-color:#ffffff;stop-opacity:1"
         id="stop3119" />
      <stop
         offset="0.56911701"
         style="stop-color:#ffffff;stop-opacity:0.23529412"
         id="stop3121" />
      <stop
         offset="0.93297637"
         style="stop-color:#ffffff;stop-opacity:0.15686275"
         id="stop3123" />
      <stop
         offset="1"
         style="stop-color:#ffffff;stop-opacity:0.39215687"
         id="stop3125" />
    </linearGradient>
    <linearGradient
       gradientTransform="matrix(0.27278906,0,-0.00118744,0.25352486,15.334641,13.919326)"
       gradientUnits="userSpaceOnUse"
       xlink:href="#linearGradient3117"
       id="linearGradient3039"
       y2="57.567127"
       x2="29.291178"
       y1="19.787613"
       x1="29.126724" />
    <linearGradient
       gradientTransform="matrix(0.28334504,0,0,0.27675772,16.456314,16.920705)"
       gradientUnits="userSpaceOnUse"
       xlink:href="#linearGradient4171"
       id="linearGradient3042"
       y2="43.828014"
       x2="24"
       y1="1.7296801"
       x1="24" />
    <linearGradient
       id="linearGradient4171">
      <stop
         style="stop-color:#ffe16b;stop-opacity:1"
         offset="0"
         id="stop4173" />
      <stop
         style="stop-color:#f9c440;stop-opacity:1"
         offset="1"
         id="stop4175" />
    </linearGradient>
  </defs>
  <rect
     width="12.75"
     height="22.1"
     rx="7.6500001"
     ry="0.85000002"
     x="-22.82543"
     y="5.4499998"
     id="rect3268-4"
     style="color:#000000;display:block;overflow:visible;visibility:visible;opacity:0.1;fill:url(#linearGradient3941);fill-opacity:1;stroke:none;stroke-width:1;marker:none;enable-background:accumulate;stroke-miterlimit:5.875;stroke-dasharray:none"
     transform="scale(-1,1)" />
  <path
     d="m 24.950429,26.700212 a 8.5,2.125 0 0 1 -16.9999996,0 8.5,2.125 0 1 1 16.9999996,0 z"
     id="path3818-0-5"
     style="fill:url(#radialGradient5362);fill-opacity:1;stroke:none;stroke-width:1;stroke-miterlimit:5.875;stroke-dasharray:none"
     inkscape:connector-curvature="0" />
  <rect
     width="12.75"
     height="2.9749999"
     rx="7.8030005"
     ry="0.85817319"
     x="10.075429"
     y="24.575001"
     id="rect3268-0-1"
     style="color:#000000;display:inline;overflow:visible;visibility:visible;fill:url(#linearGradient4393);fill-opacity:1;fill-rule:nonzero;stroke:none;stroke-width:1;marker:none;enable-background:accumulate;stroke-miterlimit:5.875;stroke-dasharray:none" />
  <path
     d="m 22.400429,25.449382 c 0,-0.484264 -2.6537,-0.874122 -5.95,-0.874122 -3.296301,0 -5.95,0.389858 -5.95,0.874122"
     id="rect3268-0"
     style="color:#000000;display:inline;overflow:visible;visibility:visible;opacity:0.5;fill:none;fill-opacity:1;fill-rule:nonzero;stroke:#6f0000;stroke-width:1;stroke-linecap:round;stroke-linejoin:round;stroke-miterlimit:5.875;stroke-dasharray:none;stroke-dashoffset:0;stroke-opacity:1;marker:none;enable-background:accumulate"
     inkscape:connector-curvature="0" />
  <path
     d="m 16.450428,5.45 c -3.53175,0 -6.374999,0.4874144 -6.374999,1.0928573 V 8 c 0,-0.6054429 2.843249,-1.0928573 6.374999,-1.0928573 3.531751,0 6.375,0.4874144 6.375,1.0928573 V 6.5428573 C 22.825428,5.9374144 19.982179,5.45 16.450428,5.45 Z"
     id="rect3268-6-4"
     style="color:#000000;display:inline;overflow:visible;visibility:visible;fill:url(#linearGradient5066-8);fill-opacity:1;fill-rule:nonzero;stroke:none;stroke-width:1;marker:none;enable-background:accumulate;stroke-miterlimit:5.875;stroke-dasharray:none"
     inkscape:connector-curvature="0" />
  <path
     d="m 10.450429,7.5971164 c 0,-0.4802373 2.676,-0.8668543 6,-0.8668543 3.324001,0 6,0.386617 6,0.8668543"
     id="rect3268-6"
     style="color:#000000;display:block;overflow:visible;visibility:visible;opacity:0.3;fill:none;stroke:#000000;stroke-width:1;stroke-linecap:butt;stroke-linejoin:miter;stroke-miterlimit:5.875;stroke-dasharray:none;stroke-dashoffset:0;stroke-opacity:1;marker:none;enable-background:accumulate"
     inkscape:connector-curvature="0" />
  <path
     d="M 18.575429,5.45 V 4.4454545 c 0,-0.3864441 -0.94775,-0.6954546 -2.125,-0.6954546 -1.17725,0 -2.125,0.3090105 -2.125,0.6954546 V 5.45"
     id="rect3268-3-9"
     style="color:#000000;display:inline;overflow:visible;visibility:visible;fill:url(#linearGradient3457-7-6);fill-opacity:1;fill-rule:nonzero;stroke:none;stroke-width:1;marker:none;enable-background:accumulate;stroke-miterlimit:5.875;stroke-dasharray:none"
     inkscape:connector-curvature="0" />
  <path
     d="M 18.575428,5.0249999 V 4.2715908 c 0,-0.289833 -0.947749,-0.5215909 -2.125,-0.5215909 -1.17725,0 -2.124999,0.2317579 -2.124999,0.5215909 v 0.7534091"
     id="rect3268-3"
     style="color:#000000;display:block;overflow:visible;visibility:visible;opacity:0.3;fill:none;stroke:#000000;stroke-width:1;stroke-linecap:butt;stroke-linejoin:miter;stroke-miterlimit:5.875;stroke-dasharray:none;stroke-dashoffset:0;stroke-opacity:1;marker:none;enable-background:accumulate"
     inkscape:connector-curvature="0" />
  <path
     d="m 16.450429,6.2999999 c -1.63977,0 -3.117301,0.095121 -4.171374,0.2412165 -0.527038,0.073052 -0.952584,0.1547748 -1.215501,0.2412165 -0.0723,0.023769 -0.09423,0.031352 -0.138125,0.051689 V 26.165879 c 0.0439,0.02034 0.06582,0.02791 0.138125,0.05169 0.262917,0.08644 0.688463,0.168168 1.215501,0.241216 1.054073,0.146095 2.531604,0.241217 4.171374,0.241217 1.639771,0 3.117301,-0.09512 4.171374,-0.241216 0.527039,-0.07305 0.952584,-0.154775 1.215501,-0.241216 0.0723,-0.02377 0.09423,-0.03136 0.138125,-0.05169 V 6.8341221 c -0.0439,-0.020337 -0.06582,-0.027918 -0.138125,-0.051689 C 21.574387,6.6959912 21.148842,6.6142635 20.621803,6.5412164 19.56773,6.3951212 18.0902,6.2999999 16.450429,6.2999999 Z"
     id="path4752"
     style="color:#000000;display:block;overflow:visible;visibility:visible;opacity:0.8;fill:none;stroke:url(#linearGradient4760);stroke-width:1;stroke-linecap:butt;stroke-linejoin:miter;stroke-miterlimit:5.875;stroke-dasharray:none;stroke-dashoffset:0;stroke-opacity:1;marker:none;enable-background:accumulate"
     inkscape:connector-curvature="0" />
  <rect
     width="12.75"
     height="22.1"
     rx="7.8030005"
     ry="0.85000002"
     x="10.075429"
     y="5.4499998"
     id="rect3268"
     style="color:#000000;display:block;overflow:visible;visibility:visible;opacity:0.3;fill:none;stroke:#000000;stroke-width:1;stroke-linecap:butt;stroke-linejoin:miter;stroke-miterlimit:5.875;stroke-dasharray:none;stroke-dashoffset:0;stroke-opacity:1;marker:none;enable-background:accumulate" />
  <path
     d="m 15.600429,5.4499999 c -1.82052,0.068986 -2.554117,0.2052187 -3.4,0.4092587 V 27.14074 c 0.845883,0.20404 1.57948,0.340272 3.4,0.409259 z"
     id="path5194"
     style="display:inline;overflow:visible;visibility:visible;opacity:0.3;fill:url(#linearGradient5508);fill-opacity:1;fill-rule:nonzero;stroke:none;stroke-width:1;marker:none;stroke-miterlimit:5.875;stroke-dasharray:none"
     inkscape:connector-curvature="0" />
  <path
     d="M 19.000429,5.4499998 V 27.549999 c 0.644115,-0.07145 1.305763,-0.156283 1.7,-0.252778 V 5.7027771 c -0.394237,-0.096494 -1.055885,-0.1813327 -1.7,-0.2527773 z"
     id="rect3244"
     style="display:inline;overflow:visible;visibility:visible;opacity:0.1;fill:url(#linearGradient5510);fill-opacity:1;fill-rule:nonzero;stroke:none;stroke-width:1;marker:none;stroke-miterlimit:5.875;stroke-dasharray:none"
     inkscape:connector-curvature="0" />
  <path
     d="m 14.290582,6.3022907 a 1.590152,1.7558075 0 1 1 -3.180304,0 1.590152,1.7558074 0 1 1 3.180304,0 z"
     id="path5124"
     style="color:#000000;display:inline;overflow:visible;visibility:visible;opacity:0.2;fill:url(#radialGradient5132);fill-opacity:1;fill-rule:nonzero;stroke:none;stroke-width:1;marker:none;enable-background:accumulate;stroke-miterlimit:5.875;stroke-dasharray:none"
     inkscape:connector-curvature="0" />
  <path
     d="M 22.38506,26.100891 C 21.617467,25.708939 19.257658,25.425 16.450429,25.425 c -2.797823,0 -5.151222,0.28204 -5.926863,0.671956"
     id="rect3268-0-7"
     style="color:#000000;display:block;overflow:visible;visibility:visible;opacity:0.2;fill:none;stroke:#ffffff;stroke-width:1;stroke-linecap:butt;stroke-linejoin:miter;stroke-miterlimit:5.875;stroke-dasharray:none;stroke-dashoffset:0;stroke-opacity:1;marker:none;enable-background:accumulate"
     inkscape:connector-curvature="0" />
  <path
     d="m 29.540859,27.99074 -5.533788,-10.2 C 23.848014,17.507407 23.560205,17.35 23.23967,17.35 c -0.320532,0 -0.609819,0.188887 -0.771293,0.472222 l -5.492579,10.2 c -0.129287,0.251852 -0.130765,0.598149 0.02843,0.85 0.159187,0.251852 0.415078,0.377778 0.735613,0.377778 h 11.026362 c 0.320535,0 0.609685,-0.157408 0.738975,-0.409261 0.161339,-0.25185 0.162684,-0.566665 0.03568,-0.849999 z"
     id="path11155"
     style="fill:url(#linearGradient3042);fill-opacity:1;fill-rule:nonzero;stroke:none;stroke-width:1;stroke-miterlimit:5.875;stroke-dasharray:none"
     inkscape:connector-curvature="0" />
  <path
     d="m 28.356596,27.565556 c -1.661293,-2.9507 -3.4,-6.390556 -5.121129,-9.365556 -1.678871,2.975 -3.290086,6.328897 -5.078871,9.361189 -0.271109,0.444349 -0.537971,0.588988 -0.407478,0.784562 0.130491,0.195576 0.355665,0.04086 0.974731,0.05361 h 9.176256 c 0.576339,0.0064 0.734977,0.08815 0.84102,-0.107416 0.132323,-0.195573 -0.131616,-0.32776 -0.384529,-0.726389 z"
     id="path11159"
     style="opacity:0.6;fill:none;stroke:url(#linearGradient3039);stroke-width:1;stroke-linejoin:round;stroke-miterlimit:5.875;stroke-dasharray:none;stroke-opacity:1"
     inkscape:connector-curvature="0" />
  <path
     d="m 29.540859,27.99074 -5.533788,-10.2 C 23.848014,17.507407 23.560206,17.35 23.239671,17.35 c -0.320533,0 -0.60982,0.188887 -0.771293,0.472222 l -5.49258,10.200001 c -0.129287,0.251852 -0.130765,0.598148 0.02843,0.849999 0.159187,0.251852 0.415078,0.377778 0.735613,0.377778 h 11.026362 c 0.320535,0 0.609686,-0.157407 0.738975,-0.409259 0.16134,-0.251851 0.162684,-0.566666 0.03568,-0.850001 z"
     id="path11155-59"
     style="color:#000000;clip-rule:nonzero;display:inline;overflow:visible;visibility:visible;opacity:0.5;isolation:auto;mix-blend-mode:normal;color-interpolation:sRGB;color-interpolation-filters:linearRGB;solid-color:#000000;solid-opacity:1;fill:none;fill-opacity:1;fill-rule:nonzero;stroke:#ad5f00;stroke-width:1;stroke-linecap:butt;stroke-linejoin:miter;stroke-miterlimit:5.875;stroke-dasharray:none;stroke-dashoffset:0;stroke-opacity:1;marker:none;color-rendering:auto;image-rendering:auto;shape-rendering:auto;text-rendering:auto;enable-background:accumulate"
     inkscape:connector-curvature="0" />
  <path
     id="path4231"
     d="m 22.406596,21.175 v 3.4 l 0.425,1.7 h 0.85 l 0.425,-1.7 v -3.4 z m 0.85,5.95 c -0.469442,0 -0.85,0.380558 -0.85,0.85 0,0.469442 0.380558,0.85 0.85,0.85 0.469442,0 0.85,-0.380558 0.85,-0.85 0,-0.469442 -0.380558,-0.85 -0.85,-0.85 z"
     style="opacity:0.15;fill:#ffffff;fill-opacity:1;stroke:none;stroke-width:1;stroke-linecap:butt;stroke-linejoin:round;stroke-miterlimit:5.875;stroke-dasharray:none;stroke-opacity:1"
     inkscape:connector-curvature="0" />
  <path
     style="color:#000000;clip-rule:nonzero;display:inline;overflow:visible;visibility:visible;opacity:1;isolation:auto;mix-blend-mode:normal;color-interpolation:sRGB;color-interpolation-filters:linearRGB;solid-color:#000000;solid-opacity:1;fill:#7a0000;fill-opacity:1;fill-rule:nonzero;stroke:none;stroke-width:1;stroke-linecap:butt;stroke-linejoin:round;stroke-miterlimit:5.875;stroke-dasharray:none;stroke-dashoffset:0;stroke-opacity:0.49803922;color-rendering:auto;image-rendering:auto;shape-rendering:auto;text-rendering:auto;enable-background:accumulate"
     d="m 22.406596,20.325 v 3.4 l 0.425,1.7 h 0.85 l 0.425,-1.7 v -3.4 z m 0.85,5.95 c -0.469442,0 -0.85,0.380558 -0.85,0.85 0,0.469442 0.380558,0.85 0.85,0.85 0.469442,0 0.85,-0.380558 0.85,-0.85 0,-0.469442 -0.380558,-0.85 -0.85,-0.85 z"
     id="path4156"
     inkscape:connector-curvature="0" />
</svg>
