<?xml version="1.0" encoding="UTF-8" standalone="no"?>
<svg
   xmlns:dc="http://purl.org/dc/elements/1.1/"
   xmlns:cc="http://creativecommons.org/ns#"
   xmlns:rdf="http://www.w3.org/1999/02/22-rdf-syntax-ns#"
   xmlns:svg="http://www.w3.org/2000/svg"
   xmlns="http://www.w3.org/2000/svg"
   xmlns:xlink="http://www.w3.org/1999/xlink"
   xmlns:sodipodi="http://sodipodi.sourceforge.net/DTD/sodipodi-0.dtd"
   xmlns:inkscape="http://www.inkscape.org/namespaces/inkscape"
   version="1.1"
   width="32"
   height="32"
   id="svg4103"
   sodipodi:docname="bluetooth.svg"
   inkscape:version="0.92.4 (5da689c313, 2019-01-14)">
  <sodipodi:namedview
     pagecolor="#ffffff"
     bordercolor="#666666"
     borderopacity="1"
     objecttolerance="10"
     gridtolerance="10"
     guidetolerance="10"
     inkscape:pageopacity="0"
     inkscape:pageshadow="2"
     inkscape:window-width="2880"
     inkscape:window-height="1706"
     id="namedview29"
     showgrid="false"
     inkscape:zoom="7.375"
     inkscape:cx="-1.4237288"
     inkscape:cy="16"
     inkscape:window-x="-11"
     inkscape:window-y="-11"
     inkscape:window-maximized="1"
     inkscape:current-layer="svg4103" />
  <defs
     id="defs4105">
    <radialGradient
       cx="27"
       cy="45.047001"
       r="17.625"
       id="radialGradient3904"
       gradientUnits="userSpaceOnUse"
       gradientTransform="matrix(0.91545,0,6.5816e-6,0.20922,-0.71745,35.213)">
      <stop
         id="stop8694"
         style="stop-color:#000000;stop-opacity:1"
         offset="0" />
      <stop
         id="stop8696"
         style="stop-color:#000000;stop-opacity:0"
         offset="1" />
    </radialGradient>
    <radialGradient
       cx="27"
       cy="45.047001"
       r="17.625"
       id="radialGradient4099"
       xlink:href="#radialGradient3904"
       gradientUnits="userSpaceOnUse"
       gradientTransform="matrix(0.43229585,0,3.1079778e-6,0.14468095,4.3278708,20.660244)" />
    <linearGradient
       id="linearGradient947">
      <stop
         id="stop943"
         style="stop-color:#64baff;stop-opacity:1"
         offset="0" />
      <stop
         id="stop945"
         style="stop-color:#3689e6;stop-opacity:1"
         offset="1" />
    </linearGradient>
    <linearGradient
       y2="43.432285"
       x2="27.583231"
       y1="7.4575353"
       x1="27.583231"
       gradientTransform="matrix(0.56983151,0,0,0.62252448,0.28167489,0.24018395)"
       gradientUnits="userSpaceOnUse"
       id="linearGradient1295"
       xlink:href="#linearGradient954" />
    <linearGradient
       id="linearGradient954">
      <stop
         id="stop946"
         style="stop-color:#ffffff;stop-opacity:1"
         offset="0" />
      <stop
         id="stop948"
         style="stop-color:#ffffff;stop-opacity:0.23529412"
         offset="0.33333334" />
      <stop
         id="stop950"
         style="stop-color:#ffffff;stop-opacity:0.15686275"
         offset="0.73809522" />
      <stop
         id="stop952"
         style="stop-color:#ffffff;stop-opacity:0.39215687"
         offset="1" />
    </linearGradient>
    <linearGradient
       gradientTransform="matrix(0.54090909,0,0,0.54777286,28.981819,2.9285633)"
       gradientUnits="userSpaceOnUse"
       y2="46.525425"
       x2="-24"
       y1="2"
       x1="-24"
       id="linearGradient880-3"
       xlink:href="#linearGradient947" />
  </defs>
  <metadata
     id="metadata4108">
    <rdf:RDF>
      <cc:Work
         rdf:about="">
        <dc:format>image/svg+xml</dc:format>
        <dc:type
           rdf:resource="http://purl.org/dc/dcmitype/StillImage" />
        <dc:title />
      </cc:Work>
    </rdf:RDF>
  </metadata>
  <path
     style="opacity:0.4;fill:url(#radialGradient4099);stroke-width:1;stroke-miterlimit:4;stroke-dasharray:none"
     id="path3361"
     d="m 24.5,27.125314 a 8.5,2.55 0 0 1 -16.9999999,0 8.5,2.55 0 1 1 16.9999999,0 z"
     inkscape:connector-curvature="0" />
  <path
     id="path855-0"
     d="M 13.045735,28.155646 C 10.180882,27.34589 8.4427685,25.33037 7.572556,21.808934 7.0997791,19.895776 6.9154779,14.769149 7.233795,12.385791 7.9517991,7.0098231 10.142121,4.4113895 14.416282,3.8650254 c 1.194325,-0.1526702 1.989529,-0.1530109 3.175881,-0.00137 4.307298,0.5506 6.477215,3.1794828 7.207639,8.7321436 0.252617,1.920393 0.100334,7.138499 -0.25463,8.725067 -0.793002,3.544461 -2.292183,5.599223 -4.807561,6.589201 -1.324258,0.521187 -5.212016,0.663856 -6.691876,0.245568 z"
     style="fill:url(#linearGradient880-3);fill-opacity:1;stroke-width:1;stroke-miterlimit:4;stroke-dasharray:none"
     inkscape:connector-curvature="0" />
  <path
     id="path855-3-63"
     d="M 13.047828,28.154219 C 10.186041,27.344463 8.4497872,25.328943 7.5805049,21.807507 7.1082356,19.89435 6.9241298,14.767723 7.2421072,12.384365 7.9593431,7.0083967 10.14732,4.4099631 14.416908,3.8635991 c 1.193048,-0.1526703 1.987401,-0.1530105 3.172485,-0.00137 4.302688,0.5505999 6.470284,3.1794827 7.199925,8.7321449 0.252348,1.920393 0.100227,7.138498 -0.254356,8.725066 -0.792155,3.54446 -2.289731,5.599223 -4.802417,6.5892 -1.32284,0.521188 -5.206439,0.663856 -6.684717,0.245569 z"
     style="opacity:0.5;fill:none;stroke:#002e99;stroke-width:1;stroke-miterlimit:4;stroke-dasharray:none"
     inkscape:connector-curvature="0" />
  <path
     d="M 17.47416,4.7228587 C 16.358825,4.5789429 15.664888,4.5789553 14.541648,4.7238987 12.571903,4.9780781 11.164479,5.6817155 10.125558,6.9259601 9.086637,8.1702046 8.40658,10.004594 8.0683159,12.561321 c -0.2900212,2.192087 -0.094382,7.295888 0.3158718,8.971784 0.8108289,3.312247 2.3123443,5.052127 4.9112953,5.793693 0.584245,0.166704 1.879418,0.250393 3.124073,0.204164 1.244654,-0.04623 2.507484,-0.231496 2.999762,-0.427079 2.263265,-0.8992 3.571159,-2.681689 4.314196,-6.034314 0.294761,-1.329977 0.461005,-6.589262 0.237413,-8.305124 C 23.626228,10.119194 22.946382,8.2321993 21.906553,6.9603363 20.866723,5.6884734 19.459314,4.9790267 17.47416,4.7228587 Z"
     id="path855-3-6-0"
     style="opacity:0.5;vector-effect:none;fill:none;fill-opacity:1;stroke:url(#linearGradient1295);stroke-width:1;stroke-linecap:round;stroke-linejoin:round;stroke-miterlimit:4;stroke-dasharray:none;stroke-dashoffset:0;stroke-opacity:1;marker:none"
     inkscape:connector-curvature="0" />
  <g
     style="color:#000000;clip-rule:nonzero;display:inline;overflow:visible;visibility:visible;opacity:0.15;isolation:auto;mix-blend-mode:normal;color-interpolation:sRGB;color-interpolation-filters:linearRGB;solid-color:#000000;solid-opacity:1;fill:#000000;fill-opacity:1;fill-rule:nonzero;stroke:none;stroke-width:0.91503263;stroke-linecap:butt;stroke-linejoin:miter;stroke-miterlimit:4;stroke-dasharray:none;stroke-dashoffset:0;stroke-opacity:1;marker:none;color-rendering:auto;image-rendering:auto;shape-rendering:auto;text-rendering:auto;enable-background:accumulate"
     id="layer1-4-1-2"
     transform="matrix(1.0928572,0,0,1.0928572,7.4295714,8.1821445)">
    <path
       style="color:#000000;clip-rule:nonzero;display:inline;overflow:visible;visibility:visible;isolation:auto;mix-blend-mode:normal;color-interpolation:sRGB;color-interpolation-filters:linearRGB;solid-color:#000000;solid-opacity:1;fill:#000000;fill-opacity:1;fill-rule:nonzero;stroke:none;stroke-width:0.91503263;stroke-linecap:butt;stroke-linejoin:miter;stroke-miterlimit:4;stroke-dasharray:none;stroke-dashoffset:0;stroke-opacity:1;marker:none;color-rendering:auto;image-rendering:auto;shape-rendering:auto;text-rendering:auto;enable-background:accumulate"
       id="rect6885-0-7"
       d="m 7.5097742,1 c -0.277,0 -0.4422236,0.2230174 -0.4453298,0.5 v 4.875 l -1.7734202,-1.5 c -0.31288,-0.27345 -0.75785,-0.21912 -1.03125,0.09375 -0.2734,0.31288 -0.25038,0.78909 0.0625,1.0625 l 2.25,1.96875 -2.25,1.96875 c -0.31288,0.273401 -0.3359,0.749622 -0.0625,1.0625 0.2734,0.312878 0.71837,0.367151 1.03125,0.09375 l 1.7734202,-1.5 V 14.5 c 0,0.277 0.1683298,0.5 0.4453298,0.5 0.28242,0 0.4375,-0.01953 0.65625,-0.1875 l 3.5312498,-3.15625 c 0.11231,-0.09991 0.18145,-0.24072 0.21875,-0.375 0.0142,-0.05132 0.0283,-0.10335 0.0312,-0.15625 0.004,-0.042 0.003,-0.083 0,-0.125 -0.006,-0.05361 -0.0136,-0.10455 -0.0312,-0.15625 -0.0385,-0.13396 -0.10556,-0.2761 -0.21875,-0.375 L 8.8847742,8 11.697274,5.53125 c 0.11319,-0.098907 0.18028,-0.2410493 0.21875,-0.375 0.0176,-0.051747 0.0254,-0.102645 0.0312,-0.15625 0.003,-0.041989 0.004,-0.083009 0,-0.125 -0.003,-0.052913 -0.017,-0.1049375 -0.0312,-0.15625 -0.0373,-0.1342859 -0.10644,-0.2750953 -0.21875,-0.375 L 8.1660242,1.1875 C 7.9667342,1.0265176 7.7385742,1 7.5097742,1 Z M 7.8422222,2.9444435 10.103524,4.9375 7.8422222,6.8333323 Z m 0,6.2222221 2.2613018,1.8958344 -2.2613018,1.993054 z"
       inkscape:connector-curvature="0" />
  </g>
  <g
     style="color:#000000;clip-rule:nonzero;display:inline;overflow:visible;visibility:visible;opacity:0.05;isolation:auto;mix-blend-mode:normal;color-interpolation:sRGB;color-interpolation-filters:linearRGB;solid-color:#000000;solid-opacity:1;vector-effect:none;fill:#002e99;fill-opacity:1;fill-rule:nonzero;stroke:none;stroke-width:0.91503263;stroke-linecap:butt;stroke-linejoin:miter;stroke-miterlimit:4;stroke-dasharray:none;stroke-dashoffset:0;stroke-opacity:1;marker:none;color-rendering:auto;image-rendering:auto;shape-rendering:auto;text-rendering:auto;enable-background:accumulate"
     id="layer1-4-1-2-5"
     transform="matrix(1.0928572,0,0,1.0928572,7.4295714,8.1821447)">
    <path
       style="color:#000000;clip-rule:nonzero;display:inline;overflow:visible;visibility:visible;isolation:auto;mix-blend-mode:normal;color-interpolation:sRGB;color-interpolation-filters:linearRGB;solid-color:#000000;solid-opacity:1;vector-effect:none;fill:#002e99;fill-opacity:1;fill-rule:nonzero;stroke:none;stroke-width:0.91503263;stroke-linecap:butt;stroke-linejoin:miter;stroke-miterlimit:4;stroke-dasharray:none;stroke-dashoffset:0;stroke-opacity:1;marker:none;color-rendering:auto;image-rendering:auto;shape-rendering:auto;text-rendering:auto;enable-background:accumulate"
       id="path3499"
       d="m 7.5097656,0.2265625 c -0.3462601,0 -0.7031901,0.16787958 -0.9160156,0.41992188 C 6.3809245,0.89852667 6.2942683,1.2021411 6.2910156,1.4921875 a 0.77422636,0.77422636 0 0 0 0,0.00781 V 4.7070287 L 5.8007812,4.2929688 C 5.1758032,3.7467522 4.1957771,3.8661533 3.6777344,4.4589844 3.1340658,5.0811608 3.1783982,6.0591718 3.8125,6.6132812 L 5.3964844,8 3.8125,9.3867188 C 3.1783763,9.9408291 3.134057,10.918833 3.6777344,11.541016 c 0.5180697,0.592877 1.4980854,0.712119 2.1230468,0.166015 L 6.2910156,11.292969 V 14.5 c 0,0.295298 0.088534,0.603088 0.3027344,0.855469 0.2142005,0.25238 0.5697717,0.417969 0.9160156,0.417969 0.3181095,0 0.7910133,-0.0897 1.1269532,-0.347657 a 0.77422636,0.77422636 0 0 0 0.044922,-0.03516 l 3.5292972,-3.15625 c 0.264304,-0.235123 0.385197,-0.508585 0.451171,-0.746094 0.01436,-0.0519 0.04653,-0.156353 0.05664,-0.310547 0.0069,-0.09053 0.0043,-0.172447 0,-0.232422 a 0.77422636,0.77422636 0 0 0 -0.002,-0.03125 c -0.0074,-0.06587 -0.02558,-0.173879 -0.0625,-0.292968 -0.06471,-0.222105 -0.175011,-0.496492 -0.447266,-0.7343752 L 10.056641,8 12.207031,6.1132812 c 0.272187,-0.2378402 0.382543,-0.5120683 0.447266,-0.734375 0.03654,-0.1178211 0.055,-0.2255822 0.0625,-0.2949218 a 0.77422636,0.77422636 0 0 0 0.002,-0.029297 c 0.0043,-0.059994 0.0069,-0.1418696 0,-0.2324219 C 12.70849,4.66988 12.676713,4.5644913 12.662109,4.5117188 12.596135,4.2742012 12.475258,4.0007499 12.210938,3.765625 L 8.6816406,0.609375 A 0.77422636,0.77422636 0 0 0 8.6523438,0.5859375 C 8.2607006,0.26957617 7.7983808,0.2265625 7.5097656,0.2265625 Z M 8.6152344,4.6582031 8.9160156,4.921875 8.6152344,5.1738281 Z m 0,6.1679689 0.3007812,0.251953 -0.3007812,0.263672 z"
       inkscape:connector-curvature="0" />
  </g>
  <g
     style="fill:#ffffff;stroke-width:0.91503263;stroke-miterlimit:4;stroke-dasharray:none"
     id="layer1-4-1"
     transform="matrix(1.0928572,0,0,1.0928572,7.4295714,7.3321457)">
    <path
       style="color:#bebebe;display:inline;overflow:visible;visibility:visible;fill:#ffffff;fill-opacity:1;fill-rule:nonzero;stroke:none;stroke-width:0.91503263;marker:none;enable-background:accumulate;stroke-miterlimit:4;stroke-dasharray:none"
       id="rect6885-0"
       d="m 7.5097742,1 c -0.277,0 -0.4422236,0.2230174 -0.4453298,0.5 v 4.875 l -1.7734202,-1.5 c -0.31288,-0.27345 -0.75785,-0.21912 -1.03125,0.09375 -0.2734,0.31288 -0.25038,0.78909 0.0625,1.0625 l 2.25,1.96875 -2.25,1.96875 c -0.31288,0.273401 -0.3359,0.749622 -0.0625,1.0625 0.2734,0.312878 0.71837,0.367151 1.03125,0.09375 l 1.7734202,-1.5 V 14.5 c 0,0.277 0.1683298,0.5 0.4453298,0.5 0.28242,0 0.4375,-0.01953 0.65625,-0.1875 l 3.5312498,-3.15625 c 0.11231,-0.09991 0.18145,-0.24072 0.21875,-0.375 0.0142,-0.05132 0.0283,-0.10335 0.0312,-0.15625 0.004,-0.042 0.003,-0.083 0,-0.125 -0.006,-0.05361 -0.0136,-0.10455 -0.0312,-0.15625 -0.0385,-0.13396 -0.10556,-0.2761 -0.21875,-0.375 L 8.8847742,8 11.697274,5.53125 c 0.11319,-0.098907 0.18028,-0.2410493 0.21875,-0.375 0.0176,-0.051747 0.0254,-0.102645 0.0312,-0.15625 0.003,-0.041989 0.004,-0.083009 0,-0.125 -0.003,-0.052913 -0.017,-0.1049375 -0.0312,-0.15625 -0.0373,-0.1342859 -0.10644,-0.2750953 -0.21875,-0.375 L 8.1660242,1.1875 C 7.9667342,1.0265176 7.7385742,1 7.5097742,1 Z M 7.8422222,2.9444435 10.103524,4.9375 7.8422222,6.8333323 Z m 0,6.2222221 2.2613018,1.8958344 -2.2613018,1.993054 z"
       inkscape:connector-curvature="0" />
  </g>
</svg>
