<?xml version="1.0" encoding="UTF-8" standalone="no"?>
<svg
   xmlns:dc="http://purl.org/dc/elements/1.1/"
   xmlns:cc="http://creativecommons.org/ns#"
   xmlns:rdf="http://www.w3.org/1999/02/22-rdf-syntax-ns#"
   xmlns:svg="http://www.w3.org/2000/svg"
   xmlns="http://www.w3.org/2000/svg"
   xmlns:xlink="http://www.w3.org/1999/xlink"
   xmlns:sodipodi="http://sodipodi.sourceforge.net/DTD/sodipodi-0.dtd"
   xmlns:inkscape="http://www.inkscape.org/namespaces/inkscape"
   id="svg6955"
   height="32"
   width="32"
   version="1.1"
   sodipodi:docname="chat.svg"
   inkscape:version="0.92.4 (5da689c313, 2019-01-14)">
  <sodipodi:namedview
     pagecolor="#ffffff"
     bordercolor="#666666"
     borderopacity="1"
     objecttolerance="10"
     gridtolerance="10"
     guidetolerance="10"
     inkscape:pageopacity="0"
     inkscape:pageshadow="2"
     inkscape:window-width="2880"
     inkscape:window-height="1706"
     id="namedview38"
     showgrid="false"
     inkscape:zoom="7.375"
     inkscape:cx="-1.4237288"
     inkscape:cy="16"
     inkscape:window-x="-11"
     inkscape:window-y="-11"
     inkscape:window-maximized="1"
     inkscape:current-layer="svg6955" />
  <defs
     id="defs6957">
    <linearGradient
       id="linearGradient4566">
      <stop
         id="stop4568"
         offset="0"
         style="stop-color:#000000;stop-opacity:1;" />
      <stop
         id="stop4570"
         offset="1"
         style="stop-color:#000000;stop-opacity:0;" />
    </linearGradient>
    <linearGradient
       id="linearGradient4223">
      <stop
         id="stop4225"
         style="stop-color:#d1ff82;stop-opacity:1"
         offset="0" />
      <stop
         id="stop4227"
         style="stop-color:#9bdb4d;stop-opacity:1"
         offset="0.26238" />
      <stop
         id="stop4229"
         style="stop-color:#68b723;stop-opacity:1"
         offset="0.66093999" />
      <stop
         id="stop4231"
         style="stop-color:#3a9104;stop-opacity:1"
         offset="1" />
    </linearGradient>
    <linearGradient
       id="linearGradient4546">
      <stop
         id="stop4548"
         style="stop-color:#ffffff;stop-opacity:1"
         offset="0" />
      <stop
         id="stop4550"
         style="stop-color:#ffffff;stop-opacity:0.23529412"
         offset="0.33333334" />
      <stop
         id="stop4552"
         style="stop-color:#ffffff;stop-opacity:0.15686275"
         offset="0.95056331" />
      <stop
         id="stop4554"
         style="stop-color:#ffffff;stop-opacity:0.39215687"
         offset="1" />
    </linearGradient>
    <radialGradient
       gradientUnits="userSpaceOnUse"
       gradientTransform="matrix(0.61388889,0,0,0.18888889,1.7389077,19.172222)"
       r="18"
       fy="38"
       fx="26"
       cy="38"
       cx="26"
       id="radialGradient4572"
       xlink:href="#linearGradient4566" />
    <linearGradient
       id="linearGradient4129">
      <stop
         id="stop4131"
         style="stop-color:#8cd5ff;stop-opacity:1"
         offset="0" />
      <stop
         id="stop4133"
         style="stop-color:#64baff;stop-opacity:1"
         offset="0.26238" />
      <stop
         id="stop4135"
         style="stop-color:#3689e6;stop-opacity:1"
         offset="0.704952" />
      <stop
         id="stop4137"
         style="stop-color:#0d52bf;stop-opacity:1"
         offset="1" />
    </linearGradient>
    <radialGradient
       gradientUnits="userSpaceOnUse"
       gradientTransform="matrix(-3.4635353,0,0,-3.3823634,80.043656,45.525464)"
       r="13.5"
       fy="9.1875"
       fx="18"
       cy="9.1875"
       cx="18"
       id="radialGradient3835"
       xlink:href="#linearGradient4129" />
    <clipPath
       id="clipPath3858"
       clipPathUnits="userSpaceOnUse">
      <path
         id="path3860"
         d="m 11,14 c -3.3326486,0 -6,2.667351 -6,6 l 0,2 c 0,3.332649 2.6673514,6 6,6 l 13,0 c 0.259481,0 0.513076,-0.0276 0.78125,-0.0625 L 25.0625,27.90625 25.25,28.125 c 1.056448,1.365618 2.962771,1.79377 4.5,0.90625 0.09957,-0.05749 0.18882,-0.14629 0.28125,-0.21875 C 29.317927,28.296324 28.600709,27.729911 28.0625,27 l -0.25,-0.34375 0.3125,-0.3125 C 29.277198,25.25082 30,23.722169 30,22 l 0,-2 c 0,-3.332649 -2.667351,-6 -6,-6 l -13,0 z"
         style="fill:#8c8c8c;fill-opacity:1;stroke:none" />
    </clipPath>
    <linearGradient
       gradientUnits="userSpaceOnUse"
       y2="28"
       x2="18"
       y1="14"
       x1="18"
       id="linearGradient3868"
       xlink:href="#linearGradient4546" />
    <radialGradient
       r="13.5"
       fy="9.1875"
       fx="18"
       cy="9.1875"
       cx="18"
       gradientTransform="matrix(3.4635353,0,0,-3.3738261,-48.043405,36.097027)"
       gradientUnits="userSpaceOnUse"
       id="radialGradient3872"
       xlink:href="#linearGradient4223" />
    <linearGradient
       y2="28"
       x2="18"
       y1="14"
       x1="18"
       gradientUnits="userSpaceOnUse"
       id="linearGradient3876"
       xlink:href="#linearGradient4546" />
  </defs>
  <metadata
     id="metadata6960">
    <rdf:RDF>
      <cc:Work
         rdf:about="">
        <dc:format>image/svg+xml</dc:format>
        <dc:type
           rdf:resource="http://purl.org/dc/dcmitype/StillImage" />
        <dc:title />
      </cc:Work>
    </rdf:RDF>
  </metadata>
  <path
     style="fill:url(#radialGradient3872);fill-opacity:1;stroke:#206b00;stroke-width:1;stroke-opacity:0.49803922;stroke-miterlimit:4;stroke-dasharray:none"
     d="m 20.250231,4.675 c 3.06085,0 5.525,2.46415 5.525,5.525 v 1.7 c 0,3.06085 -2.46415,5.525 -5.525,5.525 H 9.2002313 C 8.9540882,17.425 8.7204981,17.40277 8.4830438,17.37187 7.4582982,18.696513 5.5909094,19.109081 4.1002312,18.248437 3.8455695,18.101408 3.6367594,17.914036 3.4361688,17.717187 4.1838559,17.264762 4.8597011,16.646115 5.4017937,15.910937 4.3417783,14.905448 3.6752313,13.483135 3.6752313,11.9 v -1.7 c 0,-3.06085 2.4641499,-5.525 5.5249999,-5.525 z"
     id="path3870"
     inkscape:connector-curvature="0" />
  <path
     transform="matrix(-0.85,0,0,0.85,29.600019,-6.8)"
     id="path3874"
     d="m 11,14 c -3.3326486,0 -6,2.667351 -6,6 v 2 c 0,3.332649 2.6673514,6 6,6 h 13 c 0.259481,0 0.513076,-0.0276 0.78125,-0.0625 L 25.0625,27.90625 25.25,28.125 c 1.056448,1.365618 2.962771,1.79377 4.5,0.90625 0.09957,-0.05749 0.18882,-0.14629 0.28125,-0.21875 C 29.317927,28.296324 28.600709,27.729911 28.0625,27 l -0.25,-0.34375 0.3125,-0.3125 C 29.277198,25.25082 30,23.722169 30,22 v -2 c 0,-3.332649 -2.667351,-6 -6,-6 z"
     style="fill:none;stroke:url(#linearGradient3876);stroke-width:1.17647059;stroke-miterlimit:4;stroke-dasharray:none;stroke-opacity:0.49803922"
     clip-path="url(#clipPath3858)"
     inkscape:connector-curvature="0" />
  <path
     d="m 28.750019,26.35 a 11.05,3.4 0 1 1 -22.1000003,0 11.05,3.4 0 1 1 22.1000003,0 z"
     id="path4564"
     style="opacity:0.2;fill:url(#radialGradient4572);fill-opacity:1;stroke:none;stroke-width:1;stroke-miterlimit:4;stroke-dasharray:none"
     inkscape:connector-curvature="0" />
  <path
     id="rect3059"
     d="m 11.750019,14.025 c -3.0608502,0 -5.5250003,2.46415 -5.5250003,5.525 v 1.7 c 0,3.06085 2.4641501,5.525 5.5250003,5.525 h 11.05 c 0.246143,0 0.479733,-0.02223 0.717187,-0.05312 1.024746,1.324638 2.892135,1.737206 4.382813,0.876562 0.254661,-0.147029 0.463472,-0.334401 0.664062,-0.53125 -0.747687,-0.452425 -1.423532,-1.071072 -1.965625,-1.80625 1.060016,-1.005489 1.726563,-2.427802 1.726563,-4.010937 v -1.7 c 0,-3.06085 -2.46415,-5.525 -5.525,-5.525 z"
     style="fill:url(#radialGradient3835);fill-opacity:1;stroke:#002e99;stroke-width:1;stroke-opacity:0.49803922;stroke-miterlimit:4;stroke-dasharray:none"
     inkscape:connector-curvature="0" />
  <g
     id="g3878"
     transform="matrix(0.85,0,0,0.85,2.4000188,2.55)"
     style="stroke-width:1.17647059;stroke-miterlimit:4;stroke-dasharray:none">
    <path
       id="path3963"
       d="m 9,24 v 2 h 2 v -2 z m 3,0 v 2 h 2 v -2 z m 3,0 v 2 h 2 v -2 z"
       style="opacity:0.4;fill:#ffffff;fill-opacity:0.49803922;stroke:none;stroke-width:1.17647059;stroke-miterlimit:4;stroke-dasharray:none"
       inkscape:connector-curvature="0" />
    <path
       style="fill:#002e99;fill-opacity:0.49803922;stroke:none;stroke-width:1.17647059;stroke-miterlimit:4;stroke-dasharray:none"
       d="m 9,23 v 2 h 2 v -2 z m 3,0 v 2 h 2 v -2 z m 3,0 v 2 h 2 v -2 z"
       id="rect3956"
       inkscape:connector-curvature="0" />
  </g>
  <path
     clip-path="url(#clipPath3858)"
     style="fill:none;fill-opacity:1;stroke:url(#linearGradient3868);stroke-width:1.17647059;stroke-miterlimit:4;stroke-dasharray:none;stroke-opacity:0.49803922"
     d="m 11,14 c -3.3326486,0 -6,2.667351 -6,6 v 2 c 0,3.332649 2.6673514,6 6,6 h 13 c 0.259481,0 0.513076,-0.0276 0.78125,-0.0625 L 25.0625,27.90625 25.25,28.125 c 1.056448,1.365618 2.962771,1.79377 4.5,0.90625 0.09957,-0.05749 0.18882,-0.14629 0.28125,-0.21875 C 29.317927,28.296324 28.600709,27.729911 28.0625,27 l -0.25,-0.34375 0.3125,-0.3125 C 29.277198,25.25082 30,23.722169 30,22 v -2 c 0,-3.332649 -2.667351,-6 -6,-6 z"
     id="path3856"
     inkscape:connector-curvature="0"
     transform="matrix(0.85,0,0,0.85,2.4000188,2.55)" />
</svg>
