<?xml version="1.0" encoding="UTF-8" standalone="no"?>
<svg
   xmlns:dc="http://purl.org/dc/elements/1.1/"
   xmlns:cc="http://creativecommons.org/ns#"
   xmlns:rdf="http://www.w3.org/1999/02/22-rdf-syntax-ns#"
   xmlns:svg="http://www.w3.org/2000/svg"
   xmlns="http://www.w3.org/2000/svg"
   xmlns:xlink="http://www.w3.org/1999/xlink"
   xmlns:sodipodi="http://sodipodi.sourceforge.net/DTD/sodipodi-0.dtd"
   xmlns:inkscape="http://www.inkscape.org/namespaces/inkscape"
   id="svg4279"
   height="32"
   width="32"
   version="1.1"
   sodipodi:docname="clock.svg"
   inkscape:version="0.92.4 (5da689c313, 2019-01-14)">
  <sodipodi:namedview
     pagecolor="#ffffff"
     bordercolor="#666666"
     borderopacity="1"
     objecttolerance="10"
     gridtolerance="10"
     guidetolerance="10"
     inkscape:pageopacity="0"
     inkscape:pageshadow="2"
     inkscape:window-width="2880"
     inkscape:window-height="1706"
     id="namedview59"
     showgrid="false"
     inkscape:zoom="7.375"
     inkscape:cx="-30.644068"
     inkscape:cy="16"
     inkscape:window-x="-11"
     inkscape:window-y="-11"
     inkscape:window-maximized="1"
     inkscape:current-layer="svg4279" />
  <defs
     id="defs4281">
    <radialGradient
       gradientTransform="matrix(0,1.3590436,-1.3590456,0,36.898349,-6.1120453)"
       gradientUnits="userSpaceOnUse"
       xlink:href="#linearGradient4119"
       id="radialGradient4125"
       fy="15.377224"
       fx="16"
       r="0.62612247"
       cy="15.377224"
       cx="16" />
    <linearGradient
       id="linearGradient4119">
      <stop
         offset="0"
         style="stop-color:#ffffff;stop-opacity:1"
         id="stop4121" />
      <stop
         offset="0.53996283"
         style="stop-color:#afaba5;stop-opacity:1"
         id="stop4148" />
      <stop
         offset="0.61988848"
         style="stop-color:#837874;stop-opacity:1"
         id="stop4146" />
      <stop
         offset="1"
         style="stop-color:#b4b2aa;stop-opacity:1"
         id="stop4123" />
    </linearGradient>
    <linearGradient
       gradientTransform="matrix(0.9368728,0,0,0.93687323,-51.619838,-10.032701)"
       gradientUnits="userSpaceOnUse"
       xlink:href="#linearGradient4806-9"
       id="linearGradient3221"
       y2="40.495617"
       x2="71.204407"
       y1="15.369057"
       x1="71.204407" />
    <linearGradient
       id="linearGradient4806-9">
      <stop
         offset="0"
         style="stop-color:#ffffff;stop-opacity:1"
         id="stop4808-49" />
      <stop
         offset="0.42447853"
         style="stop-color:#ffffff;stop-opacity:0.23529412"
         id="stop4810-05" />
      <stop
         offset="0.82089913"
         style="stop-color:#ffffff;stop-opacity:0.15686275"
         id="stop4812-6" />
      <stop
         offset="1"
         style="stop-color:#ffffff;stop-opacity:0.39215687"
         id="stop4814-7" />
    </linearGradient>
    <radialGradient
       gradientTransform="matrix(-4.0364152e-8,0.66332133,-0.62494479,-4.5688608e-8,21.280711,3.9066107)"
       gradientUnits="userSpaceOnUse"
       xlink:href="#linearGradient2867-449-88-871-390-598-476-591-434-148-57-177-641-289-620-227-114-444-680-744-4-8-69-5-4-8-426-2-9-1-4-965"
       id="radialGradient3228"
       fy="8.625761"
       fx="0.3035326"
       r="19.99999"
       cy="8.6257601"
       cx="15.026252" />
    <linearGradient
       id="linearGradient2867-449-88-871-390-598-476-591-434-148-57-177-641-289-620-227-114-444-680-744-4-8-69-5-4-8-426-2-9-1-4-965">
      <stop
         offset="0"
         style="stop-color:#f4f4f4;stop-opacity:1"
         id="stop4036" />
      <stop
         offset="1"
         style="stop-color:#dadada;stop-opacity:1"
         id="stop4040" />
    </linearGradient>
    <linearGradient
       id="linearGradient3820-7-2-2">
      <stop
         offset="0"
         style="stop-color:#3d3d3d;stop-opacity:1"
         id="stop3822-2-6-36" />
      <stop
         offset="0.5"
         style="stop-color:#686868;stop-opacity:0.49803922"
         id="stop3864-8-7-6" />
      <stop
         offset="1"
         style="stop-color:#686868;stop-opacity:0"
         id="stop3824-1-2-4" />
    </linearGradient>
    <radialGradient
       gradientTransform="matrix(0.1489586,0,0,0.04739593,1.2297115,17.876323)"
       gradientUnits="userSpaceOnUse"
       xlink:href="#linearGradient3820-7-2-2"
       id="radialGradient4277"
       fy="186.17059"
       fx="99.157013"
       r="62.769119"
       cy="186.17059"
       cx="99.157013" />
    <radialGradient
       gradientTransform="matrix(0,0.68597915,-0.7462606,0,60.288383,-27.737493)"
       gradientUnits="userSpaceOnUse"
       xlink:href="#linearGradient3242-7-3-8-0-4-58-06"
       id="radialGradient3343"
       fy="48.709068"
       fx="65.325226"
       r="31.000002"
       cy="48.709068"
       cx="65.325226" />
    <linearGradient
       id="linearGradient3242-7-3-8-0-4-58-06">
      <stop
         id="stop3244-5-8-5-6-4-3-8"
         style="stop-color:#cdf87e;stop-opacity:1"
         offset="0" />
      <stop
         id="stop3246-9-5-1-5-3-0-7"
         style="stop-color:#a2e34f;stop-opacity:1"
         offset="0.26238" />
      <stop
         id="stop3248-7-2-0-7-5-35-9"
         style="stop-color:#68b723;stop-opacity:1"
         offset="0.66093999" />
      <stop
         id="stop3250-8-2-8-5-6-40-4"
         style="stop-color:#1d7e0d;stop-opacity:1"
         offset="1" />
    </linearGradient>
    <linearGradient
       gradientTransform="matrix(0.42269325,0,0,0.38513145,14.544843,15.082967)"
       gradientUnits="userSpaceOnUse"
       xlink:href="#linearGradient4154"
       id="linearGradient3030"
       y2="36.135799"
       x2="24.138529"
       y1="10.170639"
       x1="24.138529" />
    <linearGradient
       id="linearGradient4154">
      <stop
         offset="0"
         style="stop-color:#ffffff;stop-opacity:1"
         id="stop4156" />
      <stop
         offset="0"
         style="stop-color:#ffffff;stop-opacity:0.23529412"
         id="stop4158" />
      <stop
         offset="1"
         style="stop-color:#ffffff;stop-opacity:0.15686275"
         id="stop4160" />
      <stop
         offset="1"
         style="stop-color:#ffffff;stop-opacity:0.39215687"
         id="stop4162" />
    </linearGradient>
    <linearGradient
       gradientTransform="matrix(0.38833389,0,0,0.41842122,15.301011,14.318351)"
       gradientUnits="userSpaceOnUse"
       xlink:href="#linearGradient4333"
       id="linearGradient3030-1"
       y2="25.52846"
       x2="24.138529"
       y1="20.748587"
       x1="24.138529" />
    <linearGradient
       id="linearGradient4333">
      <stop
         id="stop4335"
         style="stop-color:#ffffff;stop-opacity:1"
         offset="0" />
      <stop
         id="stop4337"
         style="stop-color:#ffffff;stop-opacity:0.23529412"
         offset="0.00000003" />
      <stop
         id="stop4339"
         style="stop-color:#ffffff;stop-opacity:0.15686275"
         offset="1" />
      <stop
         id="stop4341"
         style="stop-color:#ffffff;stop-opacity:0.39215687"
         offset="1" />
    </linearGradient>
  </defs>
  <metadata
     id="metadata4284">
    <rdf:RDF>
      <cc:Work
         rdf:about="">
        <dc:format>image/svg+xml</dc:format>
        <dc:type
           rdf:resource="http://purl.org/dc/dcmitype/StillImage" />
        <dc:title />
      </cc:Work>
    </rdf:RDF>
  </metadata>
  <path
     inkscape:connector-curvature="0"
     d="m 25.350001,26.700049 a 9.35,2.9749999 0 1 1 -18.6999998,0 9.35,2.9749999 0 1 1 18.6999998,0 z"
     id="path3818-0-2"
     style="fill:url(#radialGradient4277);fill-opacity:1;stroke:none;stroke-width:1;stroke-miterlimit:4;stroke-dasharray:none" />
  <path
     inkscape:connector-curvature="0"
     d="m 16,3.7502145 c -6.800419,0 -12.3248359,5.5244163 -12.3248359,12.3248355 0,6.800419 5.5244169,12.324838 12.3248359,12.324836 6.800418,0 12.32484,-5.524417 12.324836,-12.324836 C 28.324836,9.2746308 22.800418,3.7502145 16,3.7502145 Z"
     id="path2555-7-65"
     style="color:#000000;display:inline;overflow:visible;visibility:visible;fill:url(#radialGradient3228);fill-opacity:1;fill-rule:nonzero;stroke:none;stroke-width:1;marker:none;enable-background:accumulate;stroke-miterlimit:4;stroke-dasharray:none" />
  <path
     inkscape:connector-curvature="0"
     d="m 16,3.75005 c -6.80051,0 -12.325,5.5244891 -12.325,12.324999 0,6.800511 5.52449,12.325004 12.325,12.325001 6.80051,0 12.325009,-5.52449 12.325,-12.325001 C 28.325,9.2745391 22.80051,3.75005 16,3.75005 Z"
     id="path2555-7-1-7"
     style="color:#000000;display:inline;overflow:visible;visibility:visible;opacity:0.4;fill:none;stroke:#000000;stroke-width:1;stroke-linecap:round;stroke-linejoin:round;stroke-miterlimit:4;stroke-dasharray:none;stroke-dashoffset:0;stroke-opacity:1;marker:none;enable-background:accumulate" />
  <path
     inkscape:connector-curvature="0"
     d="M 15.375731,16.786547 22.151836,9.0259268"
     id="path2312"
     style="fill:none;stroke:#333333;stroke-width:1;stroke-linecap:round;stroke-linejoin:miter;stroke-miterlimit:4;stroke-dasharray:none;stroke-opacity:1" />
  <path
     inkscape:connector-curvature="0"
     d="m 16.995637,16.103718 -5.935946,-0.38638"
     id="path2314"
     style="fill:#0000ff;fill-opacity:1;stroke:#333333;stroke-width:1;stroke-linecap:round;stroke-linejoin:miter;stroke-miterlimit:4;stroke-dasharray:none;stroke-opacity:1" />
  <path
     inkscape:connector-curvature="0"
     d="m 15.293067,14.255949 3.212976,8.716015"
     id="path2316"
     style="fill:none;stroke:#eb5c3a;stroke-width:1;stroke-linecap:round;stroke-linejoin:miter;stroke-miterlimit:4;stroke-dasharray:none;stroke-opacity:1" />
  <path
     inkscape:connector-curvature="0"
     d="m 16.770313,5.1578625 c -0.106534,1.9e-6 -0.206056,0.023661 -0.292188,0.053125 -0.08387,0.027202 -0.149034,0.043423 -0.2125,0.079688 -0.0612,0.036269 -0.120842,0.096548 -0.159375,0.1328125 -0.03853,0.036269 -0.06609,0.039527 -0.07969,0.053125 l 0.159378,0.185937 c 0.01587,-0.020398 0.05022,-0.047953 0.07969,-0.079688 0.03173,-0.033998 0.06092,-0.076781 0.10625,-0.10625 0.04533,-0.029465 0.100441,-0.059286 0.159375,-0.079687 0.0612,-0.022665 0.137699,-0.026561 0.2125,-0.026563 0.07253,1.8e-6 0.131537,0.00616 0.185938,0.026563 0.05667,0.020402 0.09654,0.045689 0.132812,0.079687 0.03853,0.034002 0.06155,0.089747 0.07969,0.1328125 0.0204,0.043068 0.02656,0.063185 0.02656,0.10625 -2e-6,0.068002 -0.01233,0.1360721 -0.05312,0.1859375 -0.03854,0.049868 -0.09818,0.092014 -0.159375,0.1328125 -0.0612,0.040801 -0.113405,0.072251 -0.185937,0.10625 -0.07027,0.031735 -0.151301,0.074518 -0.2125,0.10625 -0.115601,0.061201 -0.190826,0.1156715 -0.265625,0.1859375 -0.07253,0.068001 -0.142872,0.1377006 -0.185938,0.2125 -0.0408,0.0748 -0.06382,0.1574628 -0.07969,0.2390625 C 16.012963,6.9637585 16,7.0661834 16,7.15005 h 1.460938 v -0.2125 h -1.195313 c 0.0091,-0.070266 0.03272,-0.1315372 0.05313,-0.1859375 0.02267,-0.0544 0.06318,-0.1140412 0.10625,-0.159375 0.04307,-0.045333 0.09137,-0.089745 0.159375,-0.1328125 0.068,-0.043066 0.163624,-0.087479 0.265625,-0.1328125 0.04306,-0.020399 0.09364,-0.047954 0.159375,-0.079688 0.068,-0.031732 0.12247,-0.082945 0.185938,-0.1328125 0.06346,-0.049865 0.116307,-0.091374 0.159375,-0.159375 0.04533,-0.070265 0.07969,-0.1704237 0.07969,-0.265625 -2e-6,-0.072532 -0.02365,-0.1224693 -0.05312,-0.1859375 -0.02947,-0.065731 -0.07614,-0.1360691 -0.132812,-0.1859375 -0.05667,-0.049864 -0.130902,-0.079048 -0.2125,-0.10625 -0.07933,-0.029464 -0.163626,-0.053123 -0.265625,-0.053125 z m -1.673438,0.026562 c -0.0045,0.011336 -0.04116,0.045689 -0.07969,0.079688 -0.03853,0.034002 -0.07614,0.067719 -0.132813,0.10625 -0.0544,0.038535 -0.122471,0.076785 -0.185937,0.10625 -0.0612,0.029469 -0.107242,0.053127 -0.159375,0.053125 v 0.2125 c 0.04307,1.3e-6 0.07614,-0.00842 0.132812,-0.026562 0.05667,-0.018132 0.133804,-0.052486 0.185938,-0.079688 0.0544,-0.027198 0.08975,-0.047953 0.132812,-0.079687 0.04307,-0.031731 0.08585,-0.052486 0.10625,-0.079688 V 6.93755 H 14.61875 v 0.2125 h 1.142188 v -0.2125 h -0.425 V 5.184425 Z m -9.35,9.6687505 c -0.1201342,2e-6 -0.2410466,0.01006 -0.3453125,0.05312 -0.1042672,0.04307 -0.1885588,0.111138 -0.265625,0.185936 -0.0748,0.0748 -0.1406044,0.163627 -0.1859375,0.265625 -0.043067,0.09973 -0.053125,0.203151 -0.053125,0.31875 -2e-7,0.113335 0.010058,0.219018 0.053125,0.31875 0.043066,0.09973 0.1111372,0.190826 0.1859375,0.265625 0.0748,0.07253 0.1658911,0.116309 0.265625,0.159375 0.1019992,0.0408 0.2031492,0.07969 0.31875,0.07969 0.1541322,0 0.2783029,-0.05348 0.3984375,-0.132813 0.1223985,-0.07933 0.2157568,-0.185016 0.265625,-0.31875 -1.6e-6,0.167734 -0.019127,0.320097 -0.053125,0.451563 -0.031735,0.1292 -0.07388,0.23035 -0.1328125,0.31875 -0.056668,0.09067 -0.1309013,0.1649 -0.2125,0.2125 -0.081601,0.0476 -0.1658927,0.07969 -0.265625,0.07969 -0.1269342,0 -0.2410466,-0.03598 -0.3453125,-0.10625 -0.1042672,-0.068 -0.1671671,-0.176587 -0.2125,-0.292186 l -0.159375,0.159375 c 0.065733,0.140533 0.1652538,0.239415 0.2921875,0.31875 0.1269327,0.07933 0.2663325,0.106249 0.425,0.10625 0.1337322,-1e-6 0.2630738,-0.02076 0.371875,-0.07969 0.1087986,-0.05893 0.1885568,-0.143225 0.265625,-0.265625 0.079332,-0.120133 0.1428691,-0.270229 0.1859375,-0.451562 0.043065,-0.183599 0.079686,-0.392699 0.079687,-0.6375 -1.9e-6,-0.156399 -0.036623,-0.300332 -0.079687,-0.425 C 6.5006816,15.310618 6.4348775,15.204935 6.3578125,15.1188 6.283011,15.032669 6.1987194,14.951635 6.0921875,14.9063 5.9856529,14.858702 5.8738072,14.853177 5.746875,14.853175 Z m 20.267188,0 c -0.0816,2e-6 -0.161997,0.0062 -0.239063,0.02656 -0.07707,0.01814 -0.149034,0.04569 -0.2125,0.07969 -0.06347,0.034 -0.109509,0.08295 -0.159375,0.132812 -0.04987,0.0476 -0.105612,0.100444 -0.132812,0.159375 l 0.159375,0.132814 c 0.04987,-0.101998 0.115033,-0.182395 0.2125,-0.239063 0.09973,-0.05893 0.216111,-0.07969 0.345312,-0.07969 0.07027,2e-6 0.153565,0.0084 0.2125,0.02656 0.0612,0.01814 0.116307,0.04343 0.159375,0.07969 0.04533,0.034 0.08132,0.08068 0.10625,0.132811 0.02493,0.04987 0.02656,0.09138 0.02656,0.159376 -2e-6,0.129201 -0.03988,0.237151 -0.132813,0.31875 -0.09294,0.0816 -0.223905,0.132813 -0.398437,0.132813 h -0.10625 v 0.185936 h 0.07969 c 0.192665,2e-6 0.349562,0.04214 0.451563,0.132813 0.101998,0.09067 0.159373,0.215475 0.159375,0.371875 -2e-6,0.154133 -0.06191,0.290275 -0.159375,0.371875 -0.09747,0.08387 -0.228439,0.10625 -0.398438,0.10625 -0.147334,0 -0.274409,-0.02076 -0.371875,-0.07969 -0.09747,-0.05893 -0.1649,-0.139329 -0.2125,-0.239062 L 25.24375,16.92505 c 0.06573,0.1224 0.162988,0.197625 0.292188,0.265625 0.129199,0.07027 0.279295,0.106249 0.451562,0.10625 0.117865,-1e-6 0.223549,-0.01913 0.31875,-0.05313 0.09746,-0.03173 0.171061,-0.07161 0.239063,-0.132813 0.07026,-0.05893 0.123106,-0.126366 0.159375,-0.2125 0.03853,-0.08387 0.07969,-0.190187 0.07969,-0.292187 -2e-6,-0.1632 -0.04215,-0.287371 -0.132812,-0.398438 -0.0884,-0.111066 -0.222277,-0.187566 -0.371875,-0.2125 0.07026,-0.0091 0.131535,-0.02139 0.185937,-0.05312 0.05667,-0.034 0.12084,-0.08521 0.159375,-0.132812 0.03853,-0.04986 0.05929,-0.09817 0.07969,-0.159375 0.0204,-0.06346 0.02656,-0.117936 0.02656,-0.185938 -2e-6,-0.09066 -0.01686,-0.190823 -0.05312,-0.265625 -0.034,-0.0748 -0.09591,-0.133802 -0.159375,-0.185937 -0.06347,-0.0544 -0.124102,-0.103344 -0.2125,-0.132813 -0.08613,-0.02946 -0.187922,-0.02656 -0.292187,-0.02656 z M 5.746875,15.039112 c 0.086132,2e-6 0.1642614,0.01913 0.2390625,0.05313 0.077065,0.03174 0.1292694,0.07388 0.1859375,0.132813 0.058932,0.05667 0.1253735,0.135435 0.159375,0.2125 0.033998,0.0748 0.053123,0.155197 0.053125,0.239062 -1.6e-6,0.08613 -0.019127,0.161997 -0.053125,0.239063 -0.031735,0.0748 -0.07388,0.129271 -0.1328125,0.185937 -0.056668,0.05667 -0.1354347,0.125376 -0.2125,0.159375 -0.077068,0.03173 -0.1529302,0.02656 -0.2390625,0.02656 -0.086134,10e-7 -0.1619967,0.0052 -0.2390625,-0.02656 -0.074801,-0.034 -0.1558339,-0.102708 -0.2125,-0.159375 C 5.2386455,16.044947 5.1964995,15.990481 5.1625,15.91568 5.1285,15.83861 5.109375,15.762752 5.109375,15.676617 c -3e-7,-0.08613 0.021391,-0.16426 0.053125,-0.239062 0.033999,-0.07706 0.076146,-0.155832 0.1328125,-0.2125 0.058933,-0.05667 0.1376993,-0.101078 0.2125,-0.132813 0.077066,-0.034 0.1529283,-0.05313 0.2390625,-0.05313 z M 16.026563,24.4688 c -0.133734,3e-6 -0.263076,0.04732 -0.371875,0.10625 -0.108801,0.05894 -0.186292,0.143228 -0.265625,0.265625 -0.07707,0.120136 -0.142872,0.267964 -0.185938,0.451562 -0.04307,0.181335 -0.05312,0.392701 -0.05312,0.6375 0,0.156401 0.01232,0.298067 0.05312,0.425 0.04307,0.124667 0.108871,0.232617 0.185938,0.31875 0.07707,0.08613 0.159091,0.138338 0.265625,0.185938 0.106532,0.04533 0.218378,0.07969 0.345312,0.07969 0.120132,0 0.241045,-0.01006 0.345313,-0.05313 0.104265,-0.04307 0.190823,-0.111137 0.265625,-0.185937 0.07707,-0.0748 0.142868,-0.165891 0.185937,-0.265625 0.04533,-0.101999 0.05313,-0.203149 0.05313,-0.31875 -2e-6,-0.113332 -0.01006,-0.219015 -0.05313,-0.31875 -0.04307,-0.09973 -0.111139,-0.19309 -0.185937,-0.265625 -0.0748,-0.0748 -0.163627,-0.118573 -0.265625,-0.159375 -0.09974,-0.04306 -0.203151,-0.07969 -0.31875,-0.07969 -0.154134,2e-6 -0.276039,0.05348 -0.398438,0.132813 -0.120134,0.07933 -0.215759,0.185018 -0.265625,0.31875 0,-0.165465 0.0214,-0.320095 0.05312,-0.451563 0.034,-0.131465 0.07614,-0.25691 0.132813,-0.345312 0.05893,-0.09066 0.130899,-0.138336 0.2125,-0.185938 0.0816,-0.0476 0.165891,-0.07969 0.265625,-0.07969 0.126932,3e-6 0.241044,0.03599 0.345312,0.10625 0.104265,0.068 0.193728,0.150027 0.239063,0.265625 l 0.132812,-0.132813 c -0.06574,-0.140531 -0.165256,-0.239414 -0.292187,-0.31875 -0.126935,-0.07933 -0.266335,-0.132809 -0.425,-0.132812 z M 16,25.478175 c 0.08387,2e-6 0.161995,0.01912 0.239063,0.05313 0.07707,0.03173 0.155832,0.07614 0.2125,0.132812 0.05667,0.05667 0.09881,0.135435 0.132812,0.2125 0.034,0.0748 0.05312,0.152931 0.05312,0.239063 -2e-6,0.08613 -0.01912,0.161996 -0.05312,0.239062 -0.03173,0.0748 -0.07388,0.129272 -0.132812,0.185938 -0.05667,0.05667 -0.135435,0.125375 -0.2125,0.159375 -0.0748,0.03173 -0.152931,0.02656 -0.239063,0.02656 -0.08613,0 -0.161996,0.0052 -0.239062,-0.02656 -0.0748,-0.034 -0.127005,-0.102708 -0.185938,-0.159375 -0.05667,-0.05893 -0.125376,-0.111137 -0.159375,-0.185938 -0.034,-0.0748 -0.02656,-0.152928 -0.02656,-0.239062 -1e-6,-0.08613 -0.0052,-0.164262 0.02656,-0.239063 0.034,-0.07707 0.07614,-0.155832 0.132813,-0.2125 0.05893,-0.05667 0.135432,-0.101077 0.2125,-0.132812 0.07707,-0.034 0.152928,-0.05313 0.239062,-0.05313 z"
     id="text4045"
     style="font-style:normal;font-variant:normal;font-weight:normal;font-stretch:normal;font-size:4px;line-height:125%;font-family:Raleway;-inkscape-font-specification:Raleway;letter-spacing:0px;word-spacing:0px;opacity:0.4;fill:#000000;fill-opacity:1;stroke:none;stroke-width:1;stroke-miterlimit:4;stroke-dasharray:none" />
  <path
     inkscape:connector-curvature="0"
     d="m 27.475,16.07505 c 0,6.337468 -5.137544,11.475 -11.475,11.475 -6.3374555,0 -11.475,-5.137532 -11.475,-11.475 0,-6.3374666 5.1375445,-11.475 11.475,-11.475 6.337456,0 11.475,5.1375334 11.475,11.475 z"
     id="path3421"
     style="color:#000000;display:inline;overflow:visible;visibility:visible;fill:none;stroke:url(#linearGradient3221);stroke-width:1;stroke-linecap:round;stroke-linejoin:round;stroke-miterlimit:4;stroke-dasharray:none;stroke-dashoffset:0;stroke-opacity:1;marker:none;enable-background:accumulate" />
  <path
     inkscape:connector-curvature="0"
     d="m 16.444775,16.07505 a 0.4447755,0.4447755 0 1 1 -0.88955,0 0.4447755,0.4447755 0 1 1 0.88955,0 z"
     id="path4117"
     style="color:#000000;display:inline;overflow:visible;visibility:visible;fill:url(#radialGradient4125);fill-opacity:1;fill-rule:nonzero;stroke:none;stroke-width:1;marker:none;enable-background:accumulate;stroke-miterlimit:4;stroke-dasharray:none" />
</svg>
