<?xml version="1.0" encoding="UTF-8" standalone="no"?>
<svg
   xmlns:dc="http://purl.org/dc/elements/1.1/"
   xmlns:cc="http://creativecommons.org/ns#"
   xmlns:rdf="http://www.w3.org/1999/02/22-rdf-syntax-ns#"
   xmlns:svg="http://www.w3.org/2000/svg"
   xmlns="http://www.w3.org/2000/svg"
   xmlns:xlink="http://www.w3.org/1999/xlink"
   xmlns:sodipodi="http://sodipodi.sourceforge.net/DTD/sodipodi-0.dtd"
   xmlns:inkscape="http://www.inkscape.org/namespaces/inkscape"
   id="svg3753"
   height="32"
   width="32"
   version="1.1"
   sodipodi:docname="config.svg"
   inkscape:version="0.92.4 (5da689c313, 2019-01-14)">
  <sodipodi:namedview
     pagecolor="#ffffff"
     bordercolor="#666666"
     borderopacity="1"
     objecttolerance="10"
     gridtolerance="10"
     guidetolerance="10"
     inkscape:pageopacity="0"
     inkscape:pageshadow="2"
     inkscape:window-width="2880"
     inkscape:window-height="1706"
     id="namedview33"
     showgrid="false"
     inkscape:zoom="7.375"
     inkscape:cx="-1.4237288"
     inkscape:cy="16"
     inkscape:window-x="-11"
     inkscape:window-y="-11"
     inkscape:window-maximized="1"
     inkscape:current-layer="svg3753" />
  <defs
     id="defs3755">
    <linearGradient
       gradientUnits="userSpaceOnUse"
       xlink:href="#linearGradient3679"
       id="linearGradient3698"
       y2="10.997566"
       x2="16.116789"
       y1="21.119221"
       x1="16.116789"
       gradientTransform="matrix(0.83978362,0,0,0.83978362,2.4653847,2.6644242)" />
    <linearGradient
       id="linearGradient3679">
      <stop
         offset="0"
         style="stop-color:#ffffff;stop-opacity:1"
         id="stop3681" />
      <stop
         offset="1"
         style="stop-color:#ffffff;stop-opacity:0"
         id="stop3683" />
    </linearGradient>
    <linearGradient
       gradientUnits="userSpaceOnUse"
       xlink:href="#linearGradient3679"
       id="linearGradient3688"
       y2="29.045145"
       x2="15.321168"
       y1="3"
       x1="15.321168"
       gradientTransform="matrix(0.85,0,0,0.85,2.4,2.55)" />
    <linearGradient
       gradientTransform="matrix(0.17365695,0,0,0.17365703,4.8859495,5.2096072)"
       gradientUnits="userSpaceOnUse"
       xlink:href="#linearGradient5128"
       id="linearGradient2836"
       y2="20.895"
       x2="84.63858"
       y1="105.105"
       x1="86.132919" />
    <linearGradient
       id="linearGradient5128">
      <stop
         offset="0"
         style="stop-color:#ffffff;stop-opacity:1"
         id="stop5130" />
      <stop
         offset="1"
         style="stop-color:#959595;stop-opacity:1"
         id="stop5132" />
    </linearGradient>
    <linearGradient
       gradientTransform="matrix(0.85,0,0,0.85,-10.35,-11.9)"
       gradientUnits="userSpaceOnUse"
       xlink:href="#linearGradient3309"
       id="linearGradient2840"
       y2="47.012184"
       x2="32.036148"
       y1="19"
       x1="32.036148" />
    <linearGradient
       gradientUnits="userSpaceOnUse"
       id="linearGradient3309"
       y2="122.8994"
       x2="63.9995"
       y1="3.1001"
       x1="63.9995">
      <stop
         offset="0"
         style="stop-color:#f6f6f6;stop-opacity:1"
         id="stop3311" />
      <stop
         offset="1"
         style="stop-color:#d2d2d2;stop-opacity:1"
         id="stop3313" />
    </linearGradient>
    <linearGradient
       gradientTransform="matrix(0.85,0,0,0.85,-10.35,-11.9)"
       gradientUnits="userSpaceOnUse"
       xlink:href="#linearGradient3397"
       id="linearGradient2842"
       y2="47.044857"
       x2="25.922546"
       y1="19"
       x1="25.922546" />
    <linearGradient
       id="linearGradient3397">
      <stop
         offset="0"
         style="stop-color:#aaaaaa;stop-opacity:1"
         id="stop3399" />
      <stop
         offset="1"
         style="stop-color:#8c8c8c;stop-opacity:1"
         id="stop3401" />
    </linearGradient>
    <linearGradient
       id="linearGradient10691">
      <stop
         offset="0"
         style="stop-color:#000000;stop-opacity:1"
         id="stop10693" />
      <stop
         offset="1"
         style="stop-color:#000000;stop-opacity:0"
         id="stop10695" />
    </linearGradient>
    <radialGradient
       gradientTransform="matrix(1.8814424,0,0,0.41157009,3.3892324,-3.5230258)"
       gradientUnits="userSpaceOnUse"
       xlink:href="#linearGradient10691"
       id="radialGradient3751"
       fy="73.615715"
       fx="6.702713"
       r="7.228416"
       cy="73.615715"
       cx="6.702713" />
  </defs>
  <metadata
     id="metadata3758">
    <rdf:RDF>
      <cc:Work
         rdf:about="">
        <dc:format>image/svg+xml</dc:format>
        <dc:type
           rdf:resource="http://purl.org/dc/dcmitype/StillImage" />
        <dc:title />
      </cc:Work>
    </rdf:RDF>
  </metadata>
  <path
     inkscape:connector-curvature="0"
     d="M 29.599847,26.775 C 29.599847,28.418047 23.510988,29.75 16,29.75 8.4890114,29.75 2.4001528,28.418047 2.4001528,26.775 2.4001528,25.131953 8.4890114,23.8 16,23.8 c 7.510988,0 13.599847,1.331953 13.599847,2.975 z"
     id="path10689"
     style="display:inline;overflow:visible;visibility:visible;opacity:0.2;fill:url(#radialGradient3751);fill-opacity:1;fill-rule:nonzero;stroke:none;stroke-width:1;marker:none;stroke-miterlimit:4;stroke-dasharray:none" />
  <path
     inkscape:connector-curvature="0"
     d="m 14.193751,4.675 c -0.636428,0 -1.16875,0.5057602 -1.16875,1.1421875 v 1.4874997 c -0.402392,0.1350446 -0.792839,0.2918951 -1.16875,0.478125 L 10.820313,6.7468747 c -0.450023,-0.4500223 -1.1702905,-0.4500223 -1.6203128,0 l -2.603125,2.5765625 c -0.4500231,0.4500223 -0.4500206,1.1702908 0,1.6203128 l 1.0359375,1.035937 C 7.4421348,12.36213 7.2922755,12.76503 7.1546877,13.175 H 5.6937502 c -0.6364281,0 -1.1687517,0.50576 -1.16875,1.142187 v 3.665626 c -8e-7,0.636427 0.5323244,1.142189 1.16875,1.142187 h 1.4609375 c 0.1375878,0.40997 0.2874471,0.81287 0.478125,1.195312 L 6.5968752,21.35625 c -0.4500231,0.450022 -0.450024,1.17029 0,1.620312 l 2.603125,2.576563 c 0.4500215,0.450022 1.1702908,0.450021 1.6203128,0 l 1.035938,-1.035938 c 0.375911,0.18623 0.766358,0.343081 1.16875,0.478125 v 1.487501 c -10e-7,0.636427 0.532326,1.142189 1.16875,1.142187 h 3.639062 c 0.636428,0 1.142188,-0.505762 1.142188,-1.142187 v -1.487501 c 0.40997,-0.137587 0.81287,-0.287447 1.195312,-0.478125 l 1.035937,1.035938 c 0.450023,0.450022 1.170289,0.450022 1.620312,0 l 2.603125,-2.576563 c 0.450024,-0.450022 0.450019,-1.170291 0,-1.620312 l -1.0625,-1.0625 c 0.18623,-0.375912 0.343081,-0.766358 0.478125,-1.16875 h 1.4875 c 0.636429,0 1.142188,-0.505762 1.142188,-1.142187 V 14.317188 C 27.475001,13.68076 26.969236,13.175 26.332812,13.175 h -1.4875 c -0.135044,-0.402392 -0.291895,-0.792838 -0.478125,-1.16875 l 1.0625,-1.0625 c 0.450024,-0.450023 0.450023,-1.1702905 0,-1.6203128 L 22.826562,6.7468747 c -0.450021,-0.4500223 -1.170291,-0.4500223 -1.620312,0 L 20.170313,7.7828122 C 19.787871,7.5921342 19.384971,7.442275 18.975001,7.3046872 V 5.8171875 C 18.975002,5.1807602 18.469237,4.675 17.832813,4.675 Z m 1.80625,8.5 c 1.6422,0 2.975,1.3328 2.975,2.975 0,1.6422 -1.3328,2.975 -2.975,2.975 -1.642201,0 -2.975,-1.3328 -2.975,-2.975 -10e-7,-1.6422 1.3328,-2.975 2.975,-2.975 z"
     id="rect2576"
     style="display:block;overflow:visible;visibility:visible;fill:url(#linearGradient2840);fill-opacity:1;fill-rule:nonzero;stroke:url(#linearGradient2842);stroke-width:1;stroke-linecap:butt;stroke-linejoin:round;stroke-miterlimit:4;stroke-dasharray:none;stroke-dashoffset:0;stroke-opacity:1;marker:none;enable-background:accumulate" />
  <path
     inkscape:connector-curvature="0"
     d="m 16,9.35 c -3.749582,0 -6.8000001,3.050418 -6.8000001,6.8 0,3.749583 3.0504181,6.8 6.8000001,6.8 3.749582,0 6.8,-3.050417 6.8,-6.8 0,-3.749582 -3.050418,-6.8 -6.8,-6.8 z m 0,4.25 c 1.408326,0 2.55,1.141674 2.55,2.55 0,1.408326 -1.141674,2.55 -2.55,2.55 -1.408326,0 -2.55,-1.141674 -2.55,-2.55 0,-1.408326 1.141674,-2.55 2.55,-2.55 z"
     id="path3315"
     style="opacity:0.05;fill:#000000;fill-opacity:1;stroke:none;stroke-width:1;stroke-miterlimit:4;stroke-dasharray:none" />
  <path
     inkscape:connector-curvature="0"
     d="m 15.999999,8.9249998 c -3.983867,0 -7.224999,3.2411342 -7.224999,7.2249992 -2e-7,3.983866 3.241132,7.225001 7.224999,7.225001 3.983868,0 7.225001,-3.241135 7.225001,-7.225001 0,-3.983865 -3.241133,-7.2249992 -7.225001,-7.2249992 z"
     id="path28"
     style="fill:none;stroke:url(#linearGradient2836);stroke-width:1;stroke-miterlimit:4;stroke-dasharray:none" />
  <path
     inkscape:connector-curvature="0"
     d="M 14.19375,5.525 C 13.649956,5.6436563 13.954538,6.3492913 13.875,6.7548111 13.91441,7.262066 13.88512,7.9338717 13.290625,8.1015625 12.640173,8.2380945 11.891522,8.9670437 11.271875,8.3671875 10.842112,8.0048817 10.517353,7.4671504 10.010156,7.2324711 9.5505543,7.4663898 9.2186112,7.9769807 8.8070011,8.3252131 8.2510416,8.9015165 7.6366273,9.4312733 7.117677,10.037046 c -0.032362,0.457882 0.5233385,0.687288 0.7707729,1.029529 0.4256267,0.322788 0.7797089,0.899195 0.4282125,1.41003 -0.2888572,0.560777 -0.3302308,1.545878 -1.1619749,1.548395 -0.5594936,0.04496 -1.163089,-0.09671 -1.6913351,0.08388 -0.1888922,0.527518 -0.041792,1.143883 -0.088352,1.708509 0.015115,0.759624 -0.030462,1.52527 0.023172,2.281074 0.3205476,0.332353 0.8702575,0.1131 1.2957098,0.17654 0.5429615,-0.07965 1.2096831,0.103749 1.3070745,0.730481 0.1489187,0.605763 0.789856,1.324508 0.2162311,1.899206 -0.3573024,0.425424 -0.892367,0.747142 -1.1234372,1.247192 0.2424733,0.510182 0.7840387,0.837331 1.1537258,1.269092 0.548142,0.536639 1.1027204,1.10206 1.6444964,1.621861 0.4686032,0.03499 0.7033312,-0.527515 1.0511642,-0.781282 0.323086,-0.426535 0.90108,-0.780077 1.41202,-0.427101 0.552011,0.290646 1.519603,0.340454 1.519843,1.160863 0.04738,0.560181 -0.101783,1.172849 0.08836,1.695811 0.6042,0.179419 1.282804,0.03961 1.918117,0.08388 0.691822,-0.01265 1.38746,0.02535 2.076894,-0.01902 0.321028,-0.308376 0.101997,-0.85725 0.166633,-1.273299 -0.04684,-0.491267 0.01982,-1.126104 0.584375,-1.284242 0.660938,-0.12645 1.41846,-0.868135 2.045312,-0.265625 0.429764,0.362305 0.754523,0.900036 1.261719,1.134716 0.459602,-0.233919 0.791545,-0.74451 1.203156,-1.092742 0.555958,-0.576303 1.170373,-1.10606 1.689323,-1.711833 0.03236,-0.457883 -0.523337,-0.687288 -0.770772,-1.029529 -0.430656,-0.331301 -0.818188,-0.911205 -0.453663,-1.438581 0.290646,-0.552012 0.340453,-1.519603 1.160863,-1.519844 0.564412,-0.04011 1.16815,0.08625 1.704616,-0.07507 0.162773,-0.623818 0.03392,-1.315521 0.07507,-1.967346 -0.01219,-0.679875 0.02471,-1.363448 -0.01902,-2.040946 -0.308375,-0.321032 -0.857249,-0.102 -1.273297,-0.166636 -0.546502,0.07637 -1.228749,-0.08559 -1.331477,-0.722929 -0.1601,-0.597054 -0.788967,-1.310672 -0.218391,-1.880196 0.37053,-0.392864 0.790044,-0.745436 1.130176,-1.163302 C 24.934891,9.7969211 24.386402,9.5717647 24.134495,9.2308109 23.468296,8.5767522 22.794258,7.8944606 22.134589,7.2571676 21.665986,7.2221776 21.431259,7.7846826 21.083425,8.03845 20.760637,8.4640766 20.18423,8.8181588 19.673395,8.4666625 19.112618,8.1778052 18.127517,8.1364316 18.125,7.3046875 18.084887,6.7402769 18.211255,6.1365387 18.049926,5.6000734 17.42611,5.4372964 16.734406,5.5661477 16.082582,5.525 c -0.629611,0 -1.259222,0 -1.888832,0 z"
     id="path2901"
     style="display:block;overflow:visible;visibility:visible;opacity:0.8;fill:none;stroke:url(#linearGradient3688);stroke-width:1;stroke-linecap:butt;stroke-linejoin:round;stroke-miterlimit:4;stroke-dasharray:none;stroke-dashoffset:0;stroke-opacity:1;marker:none;enable-background:accumulate" />
  <path
     inkscape:connector-curvature="0"
     d="m 19.825,16.15 a 3.8250003,3.8250003 0 1 1 -7.65,0 3.8250003,3.8250003 0 1 1 7.65,0 z"
     id="path3690"
     style="color:#000000;display:inline;overflow:visible;visibility:visible;opacity:0.4;fill:none;stroke:url(#linearGradient3698);stroke-width:1;stroke-linecap:butt;stroke-linejoin:miter;stroke-miterlimit:4;stroke-dasharray:none;stroke-dashoffset:0;stroke-opacity:1;marker:none;enable-background:accumulate" />
</svg>
