<?xml version="1.0" encoding="UTF-8" standalone="no"?>
<svg
   xmlns:dc="http://purl.org/dc/elements/1.1/"
   xmlns:cc="http://creativecommons.org/ns#"
   xmlns:rdf="http://www.w3.org/1999/02/22-rdf-syntax-ns#"
   xmlns:svg="http://www.w3.org/2000/svg"
   xmlns="http://www.w3.org/2000/svg"
   xmlns:xlink="http://www.w3.org/1999/xlink"
   xmlns:sodipodi="http://sodipodi.sourceforge.net/DTD/sodipodi-0.dtd"
   xmlns:inkscape="http://www.inkscape.org/namespaces/inkscape"
   version="1.1"
   width="32"
   height="32"
   id="svg3194"
   inkscape:version="0.92.4 (5da689c313, 2019-01-14)"
   sodipodi:docname="contacts.svg">
  <sodipodi:namedview
     pagecolor="#ffffff"
     bordercolor="#666666"
     borderopacity="1"
     objecttolerance="10"
     gridtolerance="10"
     guidetolerance="10"
     inkscape:pageopacity="0"
     inkscape:pageshadow="2"
     inkscape:window-width="2880"
     inkscape:window-height="1706"
     id="namedview2178"
     showgrid="false"
     inkscape:zoom="7.375"
     inkscape:cx="-1.4237288"
     inkscape:cy="16"
     inkscape:window-x="-11"
     inkscape:window-y="-11"
     inkscape:window-maximized="1"
     inkscape:current-layer="svg3194" />
  <defs
     id="defs3196">
    <linearGradient
       x1="23.99999"
       y1="14.915504"
       x2="23.99999"
       y2="32.595779"
       id="linearGradient3066"
       xlink:href="#linearGradient3195"
       gradientUnits="userSpaceOnUse"
       gradientTransform="matrix(0.38454332,0,0,0.49441855,6.5995438,4.8103506)" />
    <linearGradient
       id="linearGradient3195">
      <stop
         id="stop3197"
         style="stop-color:#ffffff;stop-opacity:1"
         offset="0" />
      <stop
         id="stop3199"
         style="stop-color:#ffffff;stop-opacity:0.23529412"
         offset="0.12291458" />
      <stop
         id="stop3201"
         style="stop-color:#ffffff;stop-opacity:0.15686275"
         offset="0.93706012" />
      <stop
         id="stop3203"
         style="stop-color:#ffffff;stop-opacity:0.39215687"
         offset="1" />
    </linearGradient>
    <radialGradient
       cx="10.90426"
       cy="8.4497671"
       r="19.99999"
       fx="10.90426"
       fy="8.4497671"
       id="radialGradient3069"
       xlink:href="#linearGradient2867-449-88-871-390-598-476-591-434-148-57-177-641-289-620-227-114-444-680-744-8-7"
       gradientUnits="userSpaceOnUse"
       gradientTransform="matrix(0,0.74141875,-0.63468972,0,22.130867,2.8355811)" />
    <linearGradient
       id="linearGradient2867-449-88-871-390-598-476-591-434-148-57-177-641-289-620-227-114-444-680-744-8-7">
      <stop
         id="stop5430-8-6"
         style="stop-color:#5f5f5f;stop-opacity:1"
         offset="0" />
      <stop
         id="stop5432-3-5"
         style="stop-color:#4f4f4f;stop-opacity:1"
         offset="0.26238" />
      <stop
         id="stop5434-1-6"
         style="stop-color:#3b3b3b;stop-opacity:1"
         offset="0.704952" />
      <stop
         id="stop5436-8-9"
         style="stop-color:#2b2b2b;stop-opacity:1"
         offset="1" />
    </linearGradient>
    <linearGradient
       x1="24"
       y1="44"
       x2="24"
       y2="3.8990016"
       id="linearGradient3071"
       xlink:href="#linearGradient3707-319-631-407-324-616-674-812-821-107-178-392-400-6-7"
       gradientUnits="userSpaceOnUse"
       gradientTransform="matrix(0.50204999,0,0,0.52730318,4.7186318,4.0397681)" />
    <linearGradient
       id="linearGradient3707-319-631-407-324-616-674-812-821-107-178-392-400-6-7">
      <stop
         id="stop5440-4-4"
         style="stop-color:#272727;stop-opacity:1"
         offset="0" />
      <stop
         id="stop5442-3-5"
         style="stop-color:#454545;stop-opacity:1"
         offset="1" />
    </linearGradient>
    <linearGradient
       x1="23.99999"
       y1="4.999989"
       x2="23.99999"
       y2="43"
       id="linearGradient3075"
       xlink:href="#linearGradient3731"
       gradientUnits="userSpaceOnUse"
       gradientTransform="matrix(0.43418919,0,0,0.51689189,5.5794602,4.0358752)" />
    <linearGradient
       id="linearGradient3731">
      <stop
         id="stop3733"
         style="stop-color:#ffffff;stop-opacity:1"
         offset="0" />
      <stop
         id="stop3735"
         style="stop-color:#ffffff;stop-opacity:0.23529412"
         offset="0.02706478" />
      <stop
         id="stop3737"
         style="stop-color:#ffffff;stop-opacity:0.15686275"
         offset="0.97377032" />
      <stop
         id="stop3739"
         style="stop-color:#ffffff;stop-opacity:0.39215687"
         offset="1" />
    </linearGradient>
    <radialGradient
       cx="7.4956832"
       cy="8.4497671"
       r="19.99999"
       fx="7.4956832"
       fy="8.4497671"
       id="radialGradient3078"
       xlink:href="#linearGradient2867-449-88-871-390-598-476-591-434-148-57-177-641-289-620-227-114-444-680-744-8"
       gradientUnits="userSpaceOnUse"
       gradientTransform="matrix(0,1.2377059,-1.1347658,-2.2803266e-8,25.741559,-2.8551557)" />
    <linearGradient
       id="linearGradient2867-449-88-871-390-598-476-591-434-148-57-177-641-289-620-227-114-444-680-744-8">
      <stop
         id="stop5430-8"
         style="stop-color:#5f5f5f;stop-opacity:1"
         offset="0" />
      <stop
         id="stop5432-3"
         style="stop-color:#4f4f4f;stop-opacity:1"
         offset="0.26238" />
      <stop
         id="stop5434-1"
         style="stop-color:#3b3b3b;stop-opacity:1"
         offset="0.704952" />
      <stop
         id="stop5436-8"
         style="stop-color:#2b2b2b;stop-opacity:1"
         offset="1" />
    </linearGradient>
    <linearGradient
       x1="24"
       y1="44"
       x2="24"
       y2="3.8990016"
       id="linearGradient3080"
       xlink:href="#linearGradient3707-319-631-407-324-616-674-812-821-107-178-392-400-6"
       gradientUnits="userSpaceOnUse"
       gradientTransform="matrix(0.45900001,0,0,0.52961539,5.1370006,3.7305057)" />
    <linearGradient
       id="linearGradient3707-319-631-407-324-616-674-812-821-107-178-392-400-6">
      <stop
         id="stop5440-4"
         style="stop-color:#272727;stop-opacity:1"
         offset="0" />
      <stop
         id="stop5442-3"
         style="stop-color:#454545;stop-opacity:1"
         offset="1" />
    </linearGradient>
    <radialGradient
       cx="24.501682"
       cy="6.6475959"
       r="17.49832"
       fx="24.501682"
       fy="6.6475959"
       id="radialGradient3083"
       xlink:href="#linearGradient8967"
       gradientUnits="userSpaceOnUse"
       gradientTransform="matrix(0,1.3823147,-1.5754644,0,26.855551,-27.916368)" />
    <linearGradient
       id="linearGradient8967">
      <stop
         id="stop8969"
         style="stop-color:#ddcfbd;stop-opacity:1"
         offset="0" />
      <stop
         id="stop8971"
         style="stop-color:#856f50;stop-opacity:1"
         offset="1" />
    </linearGradient>
    <linearGradient
       x1="32.901409"
       y1="4.6481781"
       x2="32.901409"
       y2="61.481758"
       id="linearGradient3085"
       xlink:href="#linearGradient3319"
       gradientUnits="userSpaceOnUse"
       gradientTransform="matrix(0.34678013,0,0,0.3712616,5.2855347,4.2908215)" />
    <linearGradient
       id="linearGradient3319">
      <stop
         id="stop3321"
         style="stop-color:#a79071;stop-opacity:1"
         offset="0" />
      <stop
         id="stop3323"
         style="stop-color:#6f5d45;stop-opacity:1"
         offset="1" />
    </linearGradient>
    <linearGradient
       x1="10.654308"
       y1="1"
       x2="10.654308"
       y2="3"
       id="linearGradient3088"
       xlink:href="#linearGradient2346"
       gradientUnits="userSpaceOnUse"
       gradientTransform="matrix(0.45900001,0,0,0.57375355,4.2190113,4.2968842)" />
    <linearGradient
       id="linearGradient2346">
      <stop
         id="stop2348"
         style="stop-color:#eeeeee;stop-opacity:1"
         offset="0" />
      <stop
         id="stop2350"
         style="stop-color:#d9d9da;stop-opacity:1"
         offset="1" />
    </linearGradient>
    <linearGradient
       x1="24"
       y1="44"
       x2="24"
       y2="3.8990016"
       id="linearGradient3090"
       xlink:href="#linearGradient3707-319-631-407-324-616-674-812-821-107-178-392-400-6-2"
       gradientUnits="userSpaceOnUse"
       gradientTransform="matrix(0.45900001,0,0,0.05884615,5.1371311,4.3189674)" />
    <linearGradient
       id="linearGradient3707-319-631-407-324-616-674-812-821-107-178-392-400-6-2">
      <stop
         id="stop5440-4-8"
         style="stop-color:#272727;stop-opacity:1"
         offset="0" />
      <stop
         id="stop5442-3-8"
         style="stop-color:#454545;stop-opacity:1"
         offset="1" />
    </linearGradient>
    <linearGradient
       id="linearGradient3101">
      <stop
         id="stop3103"
         style="stop-color:#9b876c;stop-opacity:1"
         offset="0" />
      <stop
         id="stop3105"
         style="stop-color:#9b876c;stop-opacity:1"
         offset="0.95429963" />
      <stop
         id="stop3107"
         style="stop-color:#c2c2c2;stop-opacity:1"
         offset="0.95717829" />
      <stop
         id="stop3109"
         style="stop-color:#c2c2c2;stop-opacity:1"
         offset="1" />
    </linearGradient>
    <linearGradient
       x1="24.62738"
       y1="3.1234391"
       x2="24.640038"
       y2="4.882647"
       id="linearGradient3190"
       xlink:href="#linearGradient2346"
       gradientUnits="userSpaceOnUse"
       gradientTransform="matrix(0.52816796,0,0,0.77759006,3.9513973,2.2951617)" />
    <linearGradient
       x1="5.2122574"
       y1="0.065301567"
       x2="54.887218"
       y2="0.065301567"
       id="linearGradient3192"
       xlink:href="#linearGradient3101"
       gradientUnits="userSpaceOnUse"
       gradientTransform="matrix(0.37679091,0,0,0.37773658,4.4410731,4.3115347)" />
    <radialGradient
       cx="4.9929786"
       cy="43.5"
       r="2.5"
       fx="4.9929786"
       fy="43.5"
       id="radialGradient2976"
       xlink:href="#linearGradient3688-166-749"
       gradientUnits="userSpaceOnUse"
       gradientTransform="matrix(2.003784,0,0,1.4,27.98813,-17.4)" />
    <linearGradient
       id="linearGradient3688-166-749">
      <stop
         id="stop2883"
         style="stop-color:#181818;stop-opacity:1"
         offset="0" />
      <stop
         id="stop2885"
         style="stop-color:#181818;stop-opacity:0"
         offset="1" />
    </linearGradient>
    <radialGradient
       cx="4.9929786"
       cy="43.5"
       r="2.5"
       fx="4.9929786"
       fy="43.5"
       id="radialGradient2978"
       xlink:href="#linearGradient3688-464-309"
       gradientUnits="userSpaceOnUse"
       gradientTransform="matrix(2.003784,0,0,1.4,-20.01187,-104.4)" />
    <linearGradient
       id="linearGradient3688-464-309">
      <stop
         id="stop2889"
         style="stop-color:#181818;stop-opacity:1"
         offset="0" />
      <stop
         id="stop2891"
         style="stop-color:#181818;stop-opacity:0"
         offset="1" />
    </linearGradient>
    <linearGradient
       x1="25.058096"
       y1="47.027729"
       x2="25.058096"
       y2="39.999443"
       id="linearGradient2980"
       xlink:href="#linearGradient3702-501-757"
       gradientUnits="userSpaceOnUse" />
    <linearGradient
       id="linearGradient3702-501-757">
      <stop
         id="stop2895"
         style="stop-color:#181818;stop-opacity:0"
         offset="0" />
      <stop
         id="stop2897"
         style="stop-color:#181818;stop-opacity:1"
         offset="0.5" />
      <stop
         id="stop2899"
         style="stop-color:#181818;stop-opacity:0"
         offset="1" />
    </linearGradient>
  </defs>
  <metadata
     id="metadata3199">
    <rdf:RDF>
      <cc:Work
         rdf:about="">
        <dc:format>image/svg+xml</dc:format>
        <dc:type
           rdf:resource="http://purl.org/dc/dcmitype/StillImage" />
        <dc:title />
      </cc:Work>
    </rdf:RDF>
  </metadata>
  <g
     style="display:inline;stroke-width:2.8082931;stroke-miterlimit:2.85714293;stroke-dasharray:none"
     id="g2036"
     transform="matrix(0.4972498,0,0,0.2550002,4.0659998,15.931273)">
    <g
       style="opacity:0.4;stroke-width:2.41397142;stroke-miterlimit:2.85714293;stroke-dasharray:none"
       id="g3712"
       transform="matrix(1.052632,0,0,1.285713,-1.263158,-13.42854)">
      <rect
         style="fill:url(#radialGradient2976);fill-opacity:1;stroke:none;stroke-width:2.41397142;stroke-miterlimit:2.85714293;stroke-dasharray:none"
         id="rect2801"
         y="40"
         x="38"
         height="7"
         width="5" />
      <rect
         style="fill:url(#radialGradient2978);fill-opacity:1;stroke:none;stroke-width:2.41397142;stroke-miterlimit:2.85714293;stroke-dasharray:none"
         id="rect3696"
         transform="scale(-1)"
         y="-47"
         x="-10"
         height="7"
         width="5" />
      <rect
         style="fill:url(#linearGradient2980);fill-opacity:1;stroke:none;stroke-width:2.41397142;stroke-miterlimit:2.85714293;stroke-dasharray:none"
         id="rect3700"
         y="40"
         x="10"
         height="7.0000005"
         width="28" />
    </g>
  </g>
  <path
     inkscape:connector-curvature="0"
     style="display:inline;fill:url(#linearGradient3190);fill-opacity:1;stroke:url(#linearGradient3192);stroke-width:1;stroke-linecap:butt;stroke-linejoin:round;stroke-miterlimit:2.85714293;stroke-dasharray:none;stroke-dashoffset:0;stroke-opacity:1"
     id="path2723"
     d="M 24.790845,5.9641241 C 24.635451,5.4629999 24.732304,5.0683624 24.646477,4.5904297 H 8.7391545 l 0.093887,1.5166909" />
  <path
     inkscape:connector-curvature="0"
     style="color:#000000;display:inline;overflow:visible;visibility:visible;fill:url(#linearGradient3088);fill-opacity:1;fill-rule:nonzero;stroke:url(#linearGradient3090);stroke-width:1;stroke-linecap:round;stroke-linejoin:round;stroke-miterlimit:2.85714293;stroke-dasharray:none;stroke-dashoffset:0;stroke-opacity:1;marker:none;enable-background:accumulate"
     id="rect5505-21-3-9"
     d="M 9.4976308,6.878775 H 7.6616306 C 7.3996113,6.878775 7.2026307,6.854487 7.2026307,6.8228 V 5.2183427 c 0,-0.509447 0.2565957,-0.6345677 0.5925205,-0.6345677 h 1.7024796" />
  <rect
     style="display:inline;fill:url(#radialGradient3083);fill-opacity:1;stroke:url(#linearGradient3085);stroke-width:1;stroke-linecap:round;stroke-linejoin:round;stroke-miterlimit:2.85714293;stroke-dasharray:none;stroke-dashoffset:0;stroke-opacity:1"
     id="rect2719"
     y="6.1210918"
     x="7.9747829"
     ry="0.38250002"
     rx="0.38250002"
     height="20.640434"
     width="16.815434" />
  <path
     inkscape:connector-curvature="0"
     style="color:#000000;display:inline;overflow:visible;visibility:visible;fill:url(#radialGradient3078);fill-opacity:1;fill-rule:nonzero;stroke:url(#linearGradient3080);stroke-width:1;stroke-linecap:round;stroke-linejoin:round;stroke-miterlimit:2.85714293;stroke-dasharray:none;stroke-dashoffset:0;stroke-opacity:1;marker:none;enable-background:accumulate"
     id="rect5505-21-3"
     d="m 9.4975,6.1137751 c 0,0 0,14.3623369 0,20.6549999 h -1.836 c -0.2620193,0 -0.459,-0.218616 -0.459,-0.503781 V 6.1137751 Z" />
  <rect
     style="opacity:0.5;fill:none;stroke:url(#linearGradient3075);stroke-width:1;stroke-linecap:round;stroke-linejoin:round;stroke-miterlimit:2.85714293;stroke-dasharray:none;stroke-dashoffset:0;stroke-opacity:1"
     id="rect6741-0"
     y="6.8787751"
     x="7.9674997"
     height="19.125"
     width="16.065001" />
  <path
     inkscape:connector-curvature="0"
     style="display:inline;overflow:visible;visibility:visible;opacity:0.4;fill:#ffffff;fill-opacity:1;fill-rule:evenodd;stroke:none;stroke-width:1;stroke-miterlimit:2.85714293;stroke-dasharray:none;marker:none;enable-background:accumulate"
     id="rect2382-1"
     d="m 16.72074,11.851322 c -0.33043,-0.002 -0.620566,0.06135 -0.81805,0.192572 -0.254779,0.169283 -0.367112,0.19077 -0.438239,0.07407 -0.06807,-0.111655 -0.129946,-0.09918 -0.189905,0.05925 -0.05071,0.133989 -0.156701,0.195158 -0.277553,0.148133 -0.115226,-0.04485 -0.162476,-0.03039 -0.116864,0.04444 0.04383,0.07193 0.02241,0.133318 -0.04382,0.133318 -0.06622,0 -0.278326,0.2269 -0.467456,0.50365 -0.301492,0.441162 -0.350671,0.642789 -0.350593,1.570201 4.3e-5,0.581877 0.0575,1.14845 -0.116864,1.185057 -0.102264,0.02146 -0.09253,0.425907 -0.04382,0.844353 0.06368,0.547193 0.158819,0.815258 0.423632,1.066551 0.412462,0.391402 0.788832,1.068928 0.788832,1.436881 0,0.504041 -1.159933,1.386175 -2.89504,2.19157 l -2e-6,1.259912 h 9.17915 L 21.355,21.170144 c -1.440645,-0.664449 -2.63295,-1.583837 -2.63295,-2.060347 0,-0.367066 0.362176,-1.045873 0.774225,-1.436882 0.264809,-0.251293 0.374553,-0.519358 0.43824,-1.06655 0.0487,-0.418446 0.05529,-0.810961 -0.04382,-0.844354 -0.136583,-0.04601 -0.131492,-0.607952 -0.131492,-1.185056 -1e-6,-0.827235 -0.05192,-1.135083 -0.262944,-1.481322 -0.419903,-0.688961 -1.784235,-1.238368 -2.775524,-1.24431 z" />
  <path
     inkscape:connector-curvature="0"
     style="color:#000000;display:inline;overflow:visible;visibility:visible;fill:url(#radialGradient3069);fill-opacity:1;fill-rule:nonzero;stroke:url(#linearGradient3071);stroke-width:1;stroke-linecap:round;stroke-linejoin:round;stroke-miterlimit:2.85714293;stroke-dasharray:none;stroke-dashoffset:0;stroke-opacity:1;marker:none;enable-background:accumulate"
     id="path3107"
     d="m 16.720764,11.491141 c -0.47851,-0.111844 -1.051739,0.232152 -1.051739,0.232152 l -0.514771,0.257288 c 0,0 -0.557824,0.487094 -0.563792,0.652569 -0.313985,0.555991 -0.170873,1.229747 -0.202708,1.837972 0.03059,0.522195 -0.332409,0.909339 -0.150327,1.438846 -0.02656,0.511189 0.394417,0.810991 0.665069,1.180727 0.304593,0.46776 0.718253,1.078091 0.392487,1.637887 -0.602201,0.873342 -1.603369,1.336184 -2.517414,1.81199 -0.31051,0.0318 -0.193611,0.330062 -0.214405,0.542703 -4.95e-4,0.169108 -0.05611,0.393275 0.191927,0.314092 2.739135,0 5.478272,0 8.21741,0 0,-0.29259 0,-0.585178 0,-0.877766 -0.884869,-0.448376 -1.808397,-0.928672 -2.428649,-1.725984 -0.372626,-0.534035 8.41e-4,-1.17573 0.294933,-1.650535 0.228962,-0.395511 0.707538,-0.648227 0.714376,-1.152533 0.175977,-0.51165 -0.08958,-0.935185 -0.139143,-1.42318 -0.0648,-0.646974 0.110567,-1.354446 -0.198241,-1.956398 -0.4187,-0.615959 -1.185633,-0.885699 -1.881604,-1.050896 -0.201878,-0.04074 -0.407241,-0.06735 -0.613409,-0.06893 z" />
  <path
     inkscape:connector-curvature="0"
     style="color:#000000;display:inline;overflow:visible;visibility:visible;opacity:0.5;fill:none;stroke:url(#linearGradient3066);stroke-width:1;stroke-linecap:round;stroke-linejoin:round;stroke-miterlimit:2.85714293;stroke-dasharray:none;stroke-dashoffset:0;stroke-opacity:1;marker:none;enable-background:accumulate"
     id="path3151"
     d="m 16.61005,12.234943 c -0.08152,-0.0085 -0.208053,0.0288 -0.390733,0.117266 -0.135221,0.06547 -0.334925,0.122352 -0.538944,0.161241 l 0.01347,0.01466 c -0.0025,0.0015 -0.14053,0.08477 -0.229051,0.146582 -0.01702,0.01189 -0.02601,0.0043 -0.04042,0.01466 -0.0045,0.0064 -0.01107,0.01183 -0.01347,0.01466 -0.05841,0.06869 -0.172395,0.211577 -0.255998,0.366457 -0.08734,0.161795 -0.127246,0.336902 -0.121263,0.381114 a 0.4017542,0.4370783 0 0 1 0.01347,0.102608 c -0.03855,0.447703 0.09008,1.053214 -0.107788,1.729672 a 0.4017542,0.4370783 0 0 1 -0.02695,0.08795 c -0.0752,0.138764 -0.01862,0.604248 0.107788,0.952786 0.413979,0.47378 0.916033,1.104982 0.902731,1.964204 a 0.4017542,0.4370783 0 0 1 -0.01346,0.102603 c -0.218724,0.815595 -0.892938,1.208477 -1.320412,1.539116 a 0.4017542,0.4370783 0 0 1 -0.01347,0.01466 c -0.401589,0.289369 -0.830101,0.476927 -1.253042,0.703603 h 6.885 c -0.785637,-0.401583 -1.563541,-0.875984 -2.18272,-1.612406 -0.0043,-0.0053 -0.0091,-0.0094 -0.01347,-0.01466 -0.288621,-0.326481 -0.346865,-0.77384 -0.282946,-1.128684 0.06279,-0.348582 0.210313,-0.640622 0.350313,-0.879493 0.0049,-0.0082 0.0087,-0.02129 0.01347,-0.02932 0.141001,-0.276054 0.314755,-0.464724 0.431155,-0.615646 0.121247,-0.157211 0.171648,-0.243233 0.175155,-0.366456 a 0.4017542,0.4370783 0 0 1 0.02696,-0.117266 c 0.04329,-0.142164 0.02496,-0.255828 -0.01347,-0.439748 -0.0377,-0.180381 -0.113045,-0.422362 -0.134734,-0.718254 -4.26e-4,-0.0058 3.83e-4,-0.0088 0,-0.01466 -0.03587,-0.383912 0.0066,-0.729567 0,-1.026076 -0.0066,-0.294908 -0.05677,-0.509697 -0.175157,-0.688938 -0.0016,-0.0018 0.0016,-0.01284 0,-0.01466 -0.420114,-0.473505 -1.111046,-0.716445 -1.765059,-0.747567 a 0.4017542,0.4370783 0 0 1 -0.02695,0 z" />
</svg>
