<?xml version="1.0" encoding="UTF-8" standalone="no"?>
<svg
   xmlns:dc="http://purl.org/dc/elements/1.1/"
   xmlns:cc="http://creativecommons.org/ns#"
   xmlns:rdf="http://www.w3.org/1999/02/22-rdf-syntax-ns#"
   xmlns:svg="http://www.w3.org/2000/svg"
   xmlns="http://www.w3.org/2000/svg"
   xmlns:xlink="http://www.w3.org/1999/xlink"
   xmlns:sodipodi="http://sodipodi.sourceforge.net/DTD/sodipodi-0.dtd"
   xmlns:inkscape="http://www.inkscape.org/namespaces/inkscape"
   id="svg3182"
   height="32"
   width="32"
   version="1.1"
   sodipodi:docname="document-properties.svg"
   inkscape:version="0.92.4 (5da689c313, 2019-01-14)">
  <sodipodi:namedview
     pagecolor="#ffffff"
     bordercolor="#666666"
     borderopacity="1"
     objecttolerance="10"
     gridtolerance="10"
     guidetolerance="10"
     inkscape:pageopacity="0"
     inkscape:pageshadow="2"
     inkscape:window-width="757"
     inkscape:window-height="405"
     id="namedview58"
     showgrid="false"
     inkscape:zoom="1.84375"
     inkscape:cx="-51.674863"
     inkscape:cy="4.0408846"
     inkscape:window-x="1072"
     inkscape:window-y="638"
     inkscape:window-maximized="0"
     inkscape:current-layer="svg3182" />
  <defs
     id="defs3184">
    <linearGradient
       id="linearGradient3977">
      <stop
         offset="0"
         style="stop-color:#ffffff;stop-opacity:1"
         id="stop3979" />
      <stop
         offset="0.03626217"
         style="stop-color:#ffffff;stop-opacity:0.23529412"
         id="stop3981" />
      <stop
         offset="0.95056331"
         style="stop-color:#ffffff;stop-opacity:0.15686275"
         id="stop3983" />
      <stop
         offset="1"
         style="stop-color:#ffffff;stop-opacity:0.39215687"
         id="stop3985" />
    </linearGradient>
    <linearGradient
       id="linearGradient3600-4">
      <stop
         offset="0"
         style="stop-color:#f4f4f4;stop-opacity:1"
         id="stop3602-7" />
      <stop
         offset="1"
         style="stop-color:#dbdbdb;stop-opacity:1"
         id="stop3604-6" />
    </linearGradient>
    <linearGradient
       id="linearGradient5060">
      <stop
         offset="0"
         style="stop-color:#000000;stop-opacity:1"
         id="stop5062" />
      <stop
         offset="1"
         style="stop-color:#000000;stop-opacity:0"
         id="stop5064" />
    </linearGradient>
    <linearGradient
       id="linearGradient5048">
      <stop
         offset="0"
         style="stop-color:#000000;stop-opacity:0"
         id="stop5050" />
      <stop
         offset="0.5"
         style="stop-color:#000000;stop-opacity:1"
         id="stop5056" />
      <stop
         offset="1"
         style="stop-color:#000000;stop-opacity:0"
         id="stop5052" />
    </linearGradient>
    <linearGradient
       gradientTransform="matrix(0.56756757,0,0,0.72972971,2.378382,-2.5135063)"
       gradientUnits="userSpaceOnUse"
       xlink:href="#linearGradient3977"
       id="linearGradient3013"
       y2="43"
       x2="23.99999"
       y1="5.5641499"
       x1="23.99999" />
    <linearGradient
       gradientTransform="matrix(0.62856997,0,0,0.60839392,0.91431981,-0.5347905)"
       gradientUnits="userSpaceOnUse"
       xlink:href="#linearGradient3600-4"
       id="linearGradient3016"
       y2="47.013336"
       x2="25.132275"
       y1="0.98520643"
       x1="25.132275" />
    <radialGradient
       gradientTransform="matrix(0.01566318,0,0,0.00823529,43.593611,18.69377)"
       gradientUnits="userSpaceOnUse"
       xlink:href="#linearGradient5060"
       id="radialGradient3021"
       fy="486.64789"
       fx="605.71429"
       r="117.14286"
       cy="486.64789"
       cx="605.71429" />
    <radialGradient
       gradientTransform="matrix(-0.01566318,0,0,0.00823529,14.389566,25.980565)"
       gradientUnits="userSpaceOnUse"
       xlink:href="#linearGradient5060"
       id="radialGradient3024"
       fy="486.64789"
       fx="605.71429"
       r="117.14286"
       cy="486.64789"
       cx="605.71429" />
    <linearGradient
       gradientTransform="matrix(0.04576928,0,0,0.00823529,-0.5423243,25.980548)"
       gradientUnits="userSpaceOnUse"
       xlink:href="#linearGradient5048"
       id="linearGradient3027"
       y2="609.50507"
       x2="302.85715"
       y1="366.64789"
       x1="302.85715" />
    <linearGradient
       id="linearGradient3104-6">
      <stop
         id="stop3106-3"
         style="stop-color:#000000;stop-opacity:0.31782946"
         offset="0" />
      <stop
         id="stop3108-9"
         style="stop-color:#000000;stop-opacity:0.24031007"
         offset="1" />
    </linearGradient>
    <linearGradient
       y2="2.9062471"
       x2="-51.786404"
       y1="50.786446"
       x1="-51.786404"
       gradientTransform="matrix(0.53064141,0,0,0.58970049,39.269607,-1.791918)"
       gradientUnits="userSpaceOnUse"
       id="linearGradient3148"
       xlink:href="#linearGradient3104-6" />
    <radialGradient
       gradientTransform="matrix(0,0.68597915,-0.7462606,0,60.288383,-27.737493)"
       gradientUnits="userSpaceOnUse"
       xlink:href="#linearGradient3242-7-3-8-0-4-58-06"
       id="radialGradient3343"
       fy="48.709068"
       fx="65.325226"
       r="31.000002"
       cy="48.709068"
       cx="65.325226" />
    <linearGradient
       id="linearGradient3242-7-3-8-0-4-58-06">
      <stop
         id="stop3244-5-8-5-6-4-3-8"
         style="stop-color:#cdf87e;stop-opacity:1"
         offset="0" />
      <stop
         id="stop3246-9-5-1-5-3-0-7"
         style="stop-color:#a2e34f;stop-opacity:1"
         offset="0.26238" />
      <stop
         id="stop3248-7-2-0-7-5-35-9"
         style="stop-color:#68b723;stop-opacity:1"
         offset="0.66093999" />
      <stop
         id="stop3250-8-2-8-5-6-40-4"
         style="stop-color:#1d7e0d;stop-opacity:1"
         offset="1" />
    </linearGradient>
    <linearGradient
       gradientTransform="matrix(0.42269325,0,0,0.38513145,14.544843,15.082967)"
       gradientUnits="userSpaceOnUse"
       xlink:href="#linearGradient4154"
       id="linearGradient3030"
       y2="36.135799"
       x2="24.138529"
       y1="10.170639"
       x1="24.138529" />
    <linearGradient
       id="linearGradient4154">
      <stop
         offset="0"
         style="stop-color:#ffffff;stop-opacity:1"
         id="stop4156" />
      <stop
         offset="0"
         style="stop-color:#ffffff;stop-opacity:0.23529412"
         id="stop4158" />
      <stop
         offset="1"
         style="stop-color:#ffffff;stop-opacity:0.15686275"
         id="stop4160" />
      <stop
         offset="1"
         style="stop-color:#ffffff;stop-opacity:0.39215687"
         id="stop4162" />
    </linearGradient>
    <linearGradient
       gradientTransform="matrix(0.38833389,0,0,0.41842122,15.301011,14.318351)"
       gradientUnits="userSpaceOnUse"
       xlink:href="#linearGradient4333"
       id="linearGradient3030-1"
       y2="25.52846"
       x2="24.138529"
       y1="20.748587"
       x1="24.138529" />
    <linearGradient
       id="linearGradient4333">
      <stop
         id="stop4335"
         style="stop-color:#ffffff;stop-opacity:1"
         offset="0" />
      <stop
         id="stop4337"
         style="stop-color:#ffffff;stop-opacity:0.23529412"
         offset="0.00000003" />
      <stop
         id="stop4339"
         style="stop-color:#ffffff;stop-opacity:0.15686275"
         offset="1" />
      <stop
         id="stop4341"
         style="stop-color:#ffffff;stop-opacity:0.39215687"
         offset="1" />
    </linearGradient>
    <linearGradient
       gradientTransform="matrix(1.3,0,0,1.3,0.25368511,-0.17957353)"
       inkscape:collect="always"
       xlink:href="#linearGradient966"
       id="linearGradient968"
       x1="18.171396"
       y1="15.64911"
       x2="22.467634"
       y2="20.46686"
       gradientUnits="userSpaceOnUse" />
    <linearGradient
       inkscape:collect="always"
       id="linearGradient966">
      <stop
         style="stop-color:#ffffff;stop-opacity:0.60280377"
         offset="0"
         id="stop962" />
      <stop
         style="stop-color:#ffffff;stop-opacity:0.04672897"
         offset="1"
         id="stop964" />
    </linearGradient>
    <linearGradient
       id="linearGradient3223"
       x1="299.23199"
       x2="308.64999"
       y1="58.039154"
       y2="60.768002"
       gradientTransform="matrix(0.90566492,0,0,0.90076236,-257.95098,-32.901993)"
       gradientUnits="userSpaceOnUse">
      <stop
         id="stop7383"
         style="stop-color:#abacae;stop-opacity:1"
         offset="0" />
      <stop
         id="stop7385"
         style="stop-color:#fafafa;stop-opacity:0.29439253"
         offset="1" />
    </linearGradient>
    <linearGradient
       inkscape:collect="always"
       xlink:href="#linearGradient992"
       id="linearGradient994"
       x1="18.565117"
       y1="20.562592"
       x2="20.187092"
       y2="23.426311"
       gradientUnits="userSpaceOnUse" />
    <linearGradient
       inkscape:collect="always"
       id="linearGradient992">
      <stop
         style="stop-color:#acacac;stop-opacity:1"
         offset="0"
         id="stop988" />
      <stop
         style="stop-color:#d4d4d4;stop-opacity:0"
         offset="1"
         id="stop990" />
    </linearGradient>
    <linearGradient
       inkscape:collect="always"
       xlink:href="#linearGradient984"
       id="linearGradient986"
       x1="17.691467"
       y1="20.709438"
       x2="19.03684"
       y2="22.699766"
       gradientUnits="userSpaceOnUse" />
    <linearGradient
       inkscape:collect="always"
       id="linearGradient984">
      <stop
         style="stop-color:#37383e;stop-opacity:1"
         offset="0"
         id="stop980" />
      <stop
         style="stop-color:#42434b;stop-opacity:0"
         offset="1"
         id="stop982" />
    </linearGradient>
    <radialGradient
       cx="605.71429"
       cy="486.64789"
       r="117.14286"
       fx="605.71429"
       fy="486.64789"
       id="radialGradient3021-3"
       xlink:href="#linearGradient5060"
       gradientUnits="userSpaceOnUse"
       gradientTransform="matrix(0.01204859,0,0,0.0082353,45.248363,19.23521)" />
  </defs>
  <metadata
     id="metadata3187">
    <rdf:RDF>
      <cc:Work
         rdf:about="">
        <dc:format>image/svg+xml</dc:format>
        <dc:type
           rdf:resource="http://purl.org/dc/dcmitype/StillImage" />
        <dc:title></dc:title>
      </cc:Work>
    </rdf:RDF>
  </metadata>
  <rect
     style="opacity:0.15;fill:url(#linearGradient3027);fill-opacity:1;fill-rule:nonzero;stroke:none;stroke-width:1;marker:none;visibility:visible;display:inline;overflow:visible"
     id="rect2879"
     y="29"
     x="4.9499893"
     height="2"
     width="22.100021" />
  <path
     style="opacity:0.15;fill:url(#radialGradient3024);fill-opacity:1;fill-rule:nonzero;stroke:none;stroke-width:1;marker:none;visibility:visible;display:inline;overflow:visible"
     id="path2881"
     d="m 4.9499887,29.000086 c 0,0 0,1.99989 0,1.99989 -0.806615,0.0038 -1.950002,-0.448074 -1.950002,-1.000074 0,-0.552 0.900121,-0.999816 1.950002,-0.999816 z" />
  <path
     style="fill:url(#linearGradient3016);fill-opacity:1;stroke:none;display:inline"
     id="path4160-3"
     d="m 5,1 c 5.041316,0 21.999973,0.00179 21.999973,0.00179 L 27,29 C 27,29 12.333334,29 5,29 5,19.666667 5,10.333336 5,1.0000041 z" />
  <path
     style="fill:none;stroke:url(#linearGradient3013);stroke-width:0.99999994;stroke-linecap:round;stroke-linejoin:round;stroke-miterlimit:4;stroke-opacity:1;stroke-dasharray:none;stroke-dashoffset:0"
     id="rect6741-1"
     d="m 26.5,28.5 -21,0 0,-27 21,0 z" />
  <path
     d="m 4.499961,0.499944 c 5.27048,0 23.000054,0.002 23.000054,0.002 l 2.4e-5,28.998112 c 0,0 -15.333385,0 -23.000078,0 0,-9.666722 0,-19.333346 0,-28.999956 z"
     id="path4160-6-1"
     style="fill:none;stroke:url(#linearGradient3148);stroke-width:0.9999218;stroke-linecap:butt;stroke-linejoin:round;stroke-miterlimit:4;stroke-opacity:1;stroke-dasharray:none;stroke-dashoffset:0;display:inline" />
  <path
     transform="matrix(1.3,0,0,1.3,0.25368507,-0.17957353)"
     sodipodi:type="inkscape:offset"
     inkscape:radius="0.5339964"
     inkscape:original="M 14.162109 10.591797 C 14.05701 10.557417 13.937823 10.592281 13.861328 10.681641 C 13.784798 10.771001 13.765709 10.89457 13.818359 10.990234 L 15.220703 13.660156 C 15.346685 13.899517 15.262326 14.220005 15.027344 14.552734 C 14.790113 14.888639 14.40566 15.229553 13.919922 15.509766 C 13.434116 15.790005 12.953705 15.953229 12.556641 15.984375 C 12.16193 16.015365 11.856772 15.919714 11.730469 15.679688 L 10.318359 12.994141 C 10.279009 12.919631 10.207656 12.873446 10.121094 12.867188 C 10.034574 12.861088 9.9437316 12.895691 9.8828125 12.962891 C 9.8499775 12.997881 9.8271351 13.040736 9.8144531 13.085938 C 9.4624895 14.374147 9.5354229 15.833309 10.050781 16.8125 C 10.754604 18.149716 12.318524 18.731213 13.890625 18.384766 C 14.51844 18.571169 15.343084 19.006351 16.300781 19.958984 L 25.800781 29.390625 L 28.261719 26.939453 L 18.761719 17.507812 C 17.898366 16.649006 17.459916 15.900485 17.244141 15.302734 C 17.49223 14.45191 17.445058 13.556403 17.037109 12.78125 C 16.52195 11.802493 15.387702 10.969058 14.162109 10.591797 z "
     style="opacity:1;fill:url(#linearGradient994);fill-opacity:1;fill-rule:evenodd;stroke:url(#linearGradient986);stroke-width:0.76923077;stroke-linecap:round;stroke-linejoin:round;stroke-dashoffset:0.3612;stroke-opacity:0.5;enable-background:new;stroke-miterlimit:4;stroke-dasharray:none"
     id="path3688"
     d="m 13.851562,10.078125 c -0.151873,0.04493 -0.291448,0.133158 -0.396484,0.255859 -0.205393,0.239827 -0.275493,0.597427 -0.105469,0.910157 6.67e-4,0.0012 -6.73e-4,0.0027 0,0.0039 l 1.398438,2.660156 c -0.01128,-0.02143 0.02026,0.086 -0.15625,0.335938 -0.178619,0.252913 -0.51046,0.555256 -0.939453,0.802734 -0.431557,0.248945 -0.85118,0.381899 -1.136719,0.404297 -0.143911,0.0113 -0.249995,-0.0056 -0.294922,-0.02148 -0.04493,-0.0159 -0.02334,-0.009 -0.01758,0.002 l -1.412109,-2.685547 a 0.5340498,0.5340498 0 0 0 0,-0.002 c -0.121282,-0.229649 -0.376885,-0.391796 -0.63086,-0.410157 a 0.5340498,0.5340498 0 0 0 -0.002,0 c -0.251838,-0.01775 -0.4893848,0.07565 -0.6660155,0.267578 -0.095308,0.10273 -0.1577631,0.219931 -0.1914063,0.339844 a 0.5340498,0.5340498 0 0 0 -0.00195,0.0039 c -0.3839268,1.405197 -0.3282212,2.960938 0.2792969,4.115235 0.792713,1.506101 2.515092,2.153886 4.214844,1.861328 0.529297,0.166286 1.2502,0.540013 2.130859,1.416016 l 9.5,9.43164 a 0.5340498,0.5340498 0 0 0 0.753906,0 l 2.460938,-2.451172 a 0.5340498,0.5340498 0 0 0 0,-0.757812 l -9.5,-9.431641 c -0.783662,-0.779534 -1.161003,-1.427393 -1.355469,-1.933594 0.203611,-0.892139 0.163859,-1.831192 -0.273437,-2.662109 -0.606802,-1.152869 -1.840737,-2.033616 -3.1875,-2.449219 -0.158107,-0.05038 -0.320697,-0.05024 -0.470704,-0.0059 z" />
  <path
     style="opacity:1;fill:url(#linearGradient3223);fill-rule:evenodd;stroke-width:1.13043392;enable-background:new"
     d="m 18.449586,13.969334 c 0.01694,0.01131 0.0068,0.02829 0,0.02829 l 2.037746,3.631226 c 0.274894,0.489195 0.07656,1.066883 -0.254716,1.548157 -0.334644,0.48614 -0.853132,0.957003 -1.528338,1.323079 -0.676618,0.366756 -1.386277,0.542948 -1.98117,0.562977 -0.593515,0.02037 -1.150602,-0.14858 -1.415074,-0.619331 L 13.27029,16.784444 h -0.02834 c 0.01863,-0.02037 0.0034,0.01472 0,0.02829 -0.375761,1.610735 -0.180875,3.472348 0.50944,4.700938 0.944264,1.680442 2.915745,2.483208 4.867893,2.139311 1.943002,-0.345934 3.604478,-2.029657 4.018916,-3.631226 0.26166,-1.037348 0.15018,-2.152098 -0.396234,-3.124492 -0.688429,-1.225195 -2.202956,-2.378985 -3.7925,-2.927591 z"
     id="path2777"
     inkscape:connector-curvature="0" />
  <path
     style="opacity:1;fill:none;stroke:url(#linearGradient968);stroke-width:1;stroke-linecap:round;stroke-linejoin:round;stroke-miterlimit:4;stroke-dasharray:none;stroke-dashoffset:0.3612;enable-background:new"
     d="m 19.189101,14.522831 1.411573,2.758302 c 0.326288,0.619919 0.09599,1.267971 -0.282315,1.803562 -0.38231,0.541351 -0.964611,1.049557 -1.658654,1.449819 -0.685324,0.395329 -1.38255,0.655159 -2.04678,0.707258 -0.316306,0.02478 -0.620979,-0.0022 -0.917522,-0.106028 -1.301339,-0.861872 -1.622099,-2.519097 -2.294057,-3.945909 -0.195204,1.317196 -0.140559,3.207457 0.32481,4.091697 0.771713,1.466229 2.627323,2.233876 4.439442,1.834418 0.103558,-0.02694 0.214018,-0.02694 0.317605,0 0.929571,0.275999 2.117245,0.89352 3.423006,2.192496 l 12.351824,12.27119 2.293749,-2.263222 -12.351824,-12.27119 c -1.176009,-1.169747 -1.800489,-2.233801 -2.117358,-3.11193 -0.04043,-0.125424 -0.04043,-0.263564 0,-0.388991 0.281365,-0.964925 0.200103,-1.979415 -0.247026,-2.829027 -0.463605,-0.880801 -1.733565,-1.974331 -2.885747,-2.499285 z"
     id="path3711"
     inkscape:connector-curvature="0"
     sodipodi:nodetypes="ccccccccccccccccccc" />
</svg>
