<?xml version="1.0" encoding="UTF-8" standalone="no"?>
<svg
   xmlns:dc="http://purl.org/dc/elements/1.1/"
   xmlns:cc="http://creativecommons.org/ns#"
   xmlns:rdf="http://www.w3.org/1999/02/22-rdf-syntax-ns#"
   xmlns:svg="http://www.w3.org/2000/svg"
   xmlns="http://www.w3.org/2000/svg"
   xmlns:xlink="http://www.w3.org/1999/xlink"
   xmlns:sodipodi="http://sodipodi.sourceforge.net/DTD/sodipodi-0.dtd"
   xmlns:inkscape="http://www.inkscape.org/namespaces/inkscape"
   id="svg3182"
   height="32"
   width="32"
   version="1.1"
   sodipodi:docname="document-properties.svg"
   inkscape:version="0.92.4 (5da689c313, 2019-01-14)">
  <sodipodi:namedview
     pagecolor="#ffffff"
     bordercolor="#666666"
     borderopacity="1"
     objecttolerance="10"
     gridtolerance="10"
     guidetolerance="10"
     inkscape:pageopacity="0"
     inkscape:pageshadow="2"
     inkscape:window-width="2880"
     inkscape:window-height="1706"
     id="namedview58"
     showgrid="false"
     inkscape:zoom="1.84375"
     inkscape:cx="-153.09859"
     inkscape:cy="4.0408846"
     inkscape:window-x="-11"
     inkscape:window-y="-11"
     inkscape:window-maximized="1"
     inkscape:current-layer="svg3182" />
  <defs
     id="defs3184">
    <linearGradient
       id="linearGradient3977">
      <stop
         offset="0"
         style="stop-color:#ffffff;stop-opacity:1"
         id="stop3979" />
      <stop
         offset="0.03626217"
         style="stop-color:#ffffff;stop-opacity:0.23529412"
         id="stop3981" />
      <stop
         offset="0.95056331"
         style="stop-color:#ffffff;stop-opacity:0.15686275"
         id="stop3983" />
      <stop
         offset="1"
         style="stop-color:#ffffff;stop-opacity:0.39215687"
         id="stop3985" />
    </linearGradient>
    <linearGradient
       id="linearGradient3600-4">
      <stop
         offset="0"
         style="stop-color:#f4f4f4;stop-opacity:1"
         id="stop3602-7" />
      <stop
         offset="1"
         style="stop-color:#dbdbdb;stop-opacity:1"
         id="stop3604-6" />
    </linearGradient>
    <linearGradient
       id="linearGradient5060">
      <stop
         offset="0"
         style="stop-color:#000000;stop-opacity:1"
         id="stop5062" />
      <stop
         offset="1"
         style="stop-color:#000000;stop-opacity:0"
         id="stop5064" />
    </linearGradient>
    <linearGradient
       id="linearGradient5048">
      <stop
         offset="0"
         style="stop-color:#000000;stop-opacity:0"
         id="stop5050" />
      <stop
         offset="0.5"
         style="stop-color:#000000;stop-opacity:1"
         id="stop5056" />
      <stop
         offset="1"
         style="stop-color:#000000;stop-opacity:0"
         id="stop5052" />
    </linearGradient>
    <linearGradient
       gradientTransform="matrix(0.48243243,0,0,0.62027025,5.1105549,0.80503205)"
       gradientUnits="userSpaceOnUse"
       xlink:href="#linearGradient3977"
       id="linearGradient3013"
       y2="43"
       x2="23.99999"
       y1="5.5641499"
       x1="23.99999" />
    <linearGradient
       gradientTransform="matrix(0.53428447,0,0,0.51713483,3.866102,2.4869405)"
       gradientUnits="userSpaceOnUse"
       xlink:href="#linearGradient3600-4"
       id="linearGradient3016"
       y2="47.013336"
       x2="25.132275"
       y1="0.98520643"
       x1="25.132275" />
    <radialGradient
       gradientTransform="matrix(0.01566318,0,0,0.00823529,43.593611,18.69377)"
       gradientUnits="userSpaceOnUse"
       xlink:href="#linearGradient5060"
       id="radialGradient3021"
       fy="486.64789"
       fx="605.71429"
       r="117.14286"
       cy="486.64789"
       cx="605.71429" />
    <radialGradient
       gradientTransform="matrix(-0.0133137,0,0,0.007,15.320061,25.024993)"
       gradientUnits="userSpaceOnUse"
       xlink:href="#linearGradient5060"
       id="radialGradient3024"
       fy="486.64789"
       fx="605.71429"
       r="117.14286"
       cy="486.64789"
       cx="605.71429" />
    <linearGradient
       gradientTransform="matrix(0.03890389,0,0,0.007,2.6279545,25.024978)"
       gradientUnits="userSpaceOnUse"
       xlink:href="#linearGradient5048"
       id="linearGradient3027"
       y2="609.50507"
       x2="302.85715"
       y1="366.64789"
       x1="302.85715" />
    <linearGradient
       id="linearGradient3104-6">
      <stop
         id="stop3106-3"
         style="stop-color:#000000;stop-opacity:0.31782946"
         offset="0" />
      <stop
         id="stop3108-9"
         style="stop-color:#000000;stop-opacity:0.24031007"
         offset="1" />
    </linearGradient>
    <linearGradient
       y2="2.9062471"
       x2="-51.786404"
       y1="50.786446"
       x1="-51.786404"
       gradientTransform="matrix(0.4510452,0,0,0.50124542,36.468096,1.4183821)"
       gradientUnits="userSpaceOnUse"
       id="linearGradient3148"
       xlink:href="#linearGradient3104-6" />
    <radialGradient
       gradientTransform="matrix(0,0.68597915,-0.7462606,0,60.288383,-27.737493)"
       gradientUnits="userSpaceOnUse"
       xlink:href="#linearGradient3242-7-3-8-0-4-58-06"
       id="radialGradient3343"
       fy="48.709068"
       fx="65.325226"
       r="31.000002"
       cy="48.709068"
       cx="65.325226" />
    <linearGradient
       id="linearGradient3242-7-3-8-0-4-58-06">
      <stop
         id="stop3244-5-8-5-6-4-3-8"
         style="stop-color:#cdf87e;stop-opacity:1"
         offset="0" />
      <stop
         id="stop3246-9-5-1-5-3-0-7"
         style="stop-color:#a2e34f;stop-opacity:1"
         offset="0.26238" />
      <stop
         id="stop3248-7-2-0-7-5-35-9"
         style="stop-color:#68b723;stop-opacity:1"
         offset="0.66093999" />
      <stop
         id="stop3250-8-2-8-5-6-40-4"
         style="stop-color:#1d7e0d;stop-opacity:1"
         offset="1" />
    </linearGradient>
    <linearGradient
       gradientTransform="matrix(0.42269325,0,0,0.38513145,14.544843,15.082967)"
       gradientUnits="userSpaceOnUse"
       xlink:href="#linearGradient4154"
       id="linearGradient3030"
       y2="36.135799"
       x2="24.138529"
       y1="10.170639"
       x1="24.138529" />
    <linearGradient
       id="linearGradient4154">
      <stop
         offset="0"
         style="stop-color:#ffffff;stop-opacity:1"
         id="stop4156" />
      <stop
         offset="0"
         style="stop-color:#ffffff;stop-opacity:0.23529412"
         id="stop4158" />
      <stop
         offset="1"
         style="stop-color:#ffffff;stop-opacity:0.15686275"
         id="stop4160" />
      <stop
         offset="1"
         style="stop-color:#ffffff;stop-opacity:0.39215687"
         id="stop4162" />
    </linearGradient>
    <linearGradient
       gradientTransform="matrix(0.38833389,0,0,0.41842122,15.301011,14.318351)"
       gradientUnits="userSpaceOnUse"
       xlink:href="#linearGradient4333"
       id="linearGradient3030-1"
       y2="25.52846"
       x2="24.138529"
       y1="20.748587"
       x1="24.138529" />
    <linearGradient
       id="linearGradient4333">
      <stop
         id="stop4335"
         style="stop-color:#ffffff;stop-opacity:1"
         offset="0" />
      <stop
         id="stop4337"
         style="stop-color:#ffffff;stop-opacity:0.23529412"
         offset="0.00000003" />
      <stop
         id="stop4339"
         style="stop-color:#ffffff;stop-opacity:0.15686275"
         offset="1" />
      <stop
         id="stop4341"
         style="stop-color:#ffffff;stop-opacity:0.39215687"
         offset="1" />
    </linearGradient>
    <linearGradient
       gradientTransform="matrix(1.105,0,0,1.105,3.3045625,2.7888749)"
       inkscape:collect="always"
       xlink:href="#linearGradient966"
       id="linearGradient968"
       x1="18.171396"
       y1="15.64911"
       x2="22.467634"
       y2="20.46686"
       gradientUnits="userSpaceOnUse" />
    <linearGradient
       inkscape:collect="always"
       id="linearGradient966">
      <stop
         style="stop-color:#ffffff;stop-opacity:0.60280377"
         offset="0"
         id="stop962" />
      <stop
         style="stop-color:#ffffff;stop-opacity:0.04672897"
         offset="1"
         id="stop964" />
    </linearGradient>
    <linearGradient
       id="linearGradient3223"
       x1="299.23199"
       x2="308.64999"
       y1="58.039154"
       y2="60.768002"
       gradientTransform="matrix(0.76981518,0,0,0.76564801,-216.1694,-25.025182)"
       gradientUnits="userSpaceOnUse">
      <stop
         id="stop7383"
         style="stop-color:#abacae;stop-opacity:1"
         offset="0" />
      <stop
         id="stop7385"
         style="stop-color:#fafafa;stop-opacity:0.29439253"
         offset="1" />
    </linearGradient>
    <linearGradient
       inkscape:collect="always"
       xlink:href="#linearGradient992"
       id="linearGradient994"
       x1="18.565117"
       y1="20.562592"
       x2="20.187092"
       y2="23.426311"
       gradientUnits="userSpaceOnUse" />
    <linearGradient
       inkscape:collect="always"
       id="linearGradient992">
      <stop
         style="stop-color:#acacac;stop-opacity:1"
         offset="0"
         id="stop988" />
      <stop
         style="stop-color:#d4d4d4;stop-opacity:0"
         offset="1"
         id="stop990" />
    </linearGradient>
    <linearGradient
       inkscape:collect="always"
       xlink:href="#linearGradient984"
       id="linearGradient986"
       x1="17.691467"
       y1="20.709438"
       x2="19.03684"
       y2="22.699766"
       gradientUnits="userSpaceOnUse" />
    <linearGradient
       inkscape:collect="always"
       id="linearGradient984">
      <stop
         style="stop-color:#37383e;stop-opacity:1"
         offset="0"
         id="stop980" />
      <stop
         style="stop-color:#42434b;stop-opacity:0"
         offset="1"
         id="stop982" />
    </linearGradient>
    <radialGradient
       cx="605.71429"
       cy="486.64789"
       r="117.14286"
       fx="605.71429"
       fy="486.64789"
       id="radialGradient3021-3"
       xlink:href="#linearGradient5060"
       gradientUnits="userSpaceOnUse"
       gradientTransform="matrix(0.01204859,0,0,0.0082353,45.248363,19.23521)" />
  </defs>
  <metadata
     id="metadata3187">
    <rdf:RDF>
      <cc:Work
         rdf:about="">
        <dc:format>image/svg+xml</dc:format>
        <dc:type
           rdf:resource="http://purl.org/dc/dcmitype/StillImage" />
        <dc:title />
      </cc:Work>
    </rdf:RDF>
  </metadata>
  <rect
     style="display:inline;overflow:visible;visibility:visible;opacity:0.15;fill:url(#linearGradient3027);fill-opacity:1;fill-rule:nonzero;stroke:none;stroke-width:1;marker:none;stroke-miterlimit:4;stroke-dasharray:none"
     id="rect2879"
     y="27.591513"
     x="7.2964211"
     height="1.7"
     width="18.785019" />
  <path
     style="display:inline;overflow:visible;visibility:visible;opacity:0.15;fill:url(#radialGradient3024);fill-opacity:1;fill-rule:nonzero;stroke:none;stroke-width:1;marker:none;stroke-miterlimit:4;stroke-dasharray:none"
     id="path2881"
     d="m 7.2964206,27.591586 c 0,0 0,1.699906 0,1.699906 -0.6856228,0.0032 -1.6575017,-0.380863 -1.6575017,-0.850063 0,-0.4692 0.7651028,-0.849843 1.6575017,-0.849843 z"
     inkscape:connector-curvature="0" />
  <path
     style="display:inline;fill:url(#linearGradient3016);fill-opacity:1;stroke:none;stroke-width:1;stroke-miterlimit:4;stroke-dasharray:none"
     id="path4160-3"
     d="m 7.3389302,3.7915124 c 4.2851188,0 18.6999768,0.00152 18.6999768,0.00152 l 2.3e-5,23.7984786 c 0,0 -12.466666,0 -18.6999998,0 0,-7.933334 0,-15.866664 0,-23.7999966 z"
     inkscape:connector-curvature="0" />
  <path
     style="fill:none;stroke:url(#linearGradient3013);stroke-width:1;stroke-linecap:round;stroke-linejoin:round;stroke-miterlimit:4;stroke-dasharray:none;stroke-dashoffset:0;stroke-opacity:1"
     id="rect6741-1"
     d="M 25.61393,27.166512 H 7.7639302 V 4.2165124 H 25.61393 Z"
     inkscape:connector-curvature="0" />
  <path
     d="m 6.9138971,3.3664648 c 4.4799079,0 19.5500459,0.0017 19.5500459,0.0017 l 2e-5,24.6483952 c 0,0 -13.033377,0 -19.5500659,0 0,-8.216714 0,-16.433344 0,-24.6499626 z"
     id="path4160-6-1"
     style="display:inline;fill:none;stroke:url(#linearGradient3148);stroke-width:1;stroke-linecap:butt;stroke-linejoin:round;stroke-miterlimit:4;stroke-dasharray:none;stroke-dashoffset:0;stroke-opacity:1"
     inkscape:connector-curvature="0" />
  <path
     transform="matrix(1.105,0,0,1.105,3.3045625,2.7888749)"
     sodipodi:type="inkscape:offset"
     inkscape:radius="0.5339964"
     inkscape:original="M 14.162109 10.591797 C 14.05701 10.557417 13.937823 10.592281 13.861328 10.681641 C 13.784798 10.771001 13.765709 10.89457 13.818359 10.990234 L 15.220703 13.660156 C 15.346685 13.899517 15.262326 14.220005 15.027344 14.552734 C 14.790113 14.888639 14.40566 15.229553 13.919922 15.509766 C 13.434116 15.790005 12.953705 15.953229 12.556641 15.984375 C 12.16193 16.015365 11.856772 15.919714 11.730469 15.679688 L 10.318359 12.994141 C 10.279009 12.919631 10.207656 12.873446 10.121094 12.867188 C 10.034574 12.861088 9.9437316 12.895691 9.8828125 12.962891 C 9.8499775 12.997881 9.8271351 13.040736 9.8144531 13.085938 C 9.4624895 14.374147 9.5354229 15.833309 10.050781 16.8125 C 10.754604 18.149716 12.318524 18.731213 13.890625 18.384766 C 14.51844 18.571169 15.343084 19.006351 16.300781 19.958984 L 25.800781 29.390625 L 28.261719 26.939453 L 18.761719 17.507812 C 17.898366 16.649006 17.459916 15.900485 17.244141 15.302734 C 17.49223 14.45191 17.445058 13.556403 17.037109 12.78125 C 16.52195 11.802493 15.387702 10.969058 14.162109 10.591797 z "
     style="opacity:1;fill:url(#linearGradient994);fill-opacity:1;fill-rule:evenodd;stroke:url(#linearGradient986);stroke-width:0.90497738;stroke-linecap:round;stroke-linejoin:round;stroke-miterlimit:4;stroke-dasharray:none;stroke-dashoffset:0.3612;stroke-opacity:0.5;enable-background:new"
     id="path3688"
     d="m 13.851562,10.078125 c -0.151873,0.04493 -0.291448,0.133158 -0.396484,0.255859 -0.205393,0.239827 -0.275493,0.597427 -0.105469,0.910157 6.67e-4,0.0012 -6.73e-4,0.0027 0,0.0039 l 1.398438,2.660156 c -0.01128,-0.02143 0.02026,0.086 -0.15625,0.335938 -0.178619,0.252913 -0.51046,0.555256 -0.939453,0.802734 -0.431557,0.248945 -0.85118,0.381899 -1.136719,0.404297 -0.143911,0.0113 -0.249995,-0.0056 -0.294922,-0.02148 -0.04493,-0.0159 -0.02334,-0.009 -0.01758,0.002 l -1.412109,-2.685547 a 0.5340498,0.5340498 0 0 0 0,-0.002 c -0.121282,-0.229649 -0.376885,-0.391796 -0.63086,-0.410157 a 0.5340498,0.5340498 0 0 0 -0.002,0 c -0.251838,-0.01775 -0.4893848,0.07565 -0.6660155,0.267578 -0.095308,0.10273 -0.1577631,0.219931 -0.1914063,0.339844 a 0.5340498,0.5340498 0 0 0 -0.00195,0.0039 c -0.3839268,1.405197 -0.3282212,2.960938 0.2792969,4.115235 0.792713,1.506101 2.515092,2.153886 4.214844,1.861328 0.529297,0.166286 1.2502,0.540013 2.130859,1.416016 l 9.5,9.43164 a 0.5340498,0.5340498 0 0 0 0.753906,0 l 2.460938,-2.451172 a 0.5340498,0.5340498 0 0 0 0,-0.757812 l -9.5,-9.431641 c -0.783662,-0.779534 -1.161003,-1.427393 -1.355469,-1.933594 0.203611,-0.892139 0.163859,-1.831192 -0.273437,-2.662109 -0.606802,-1.152869 -1.840737,-2.033616 -3.1875,-2.449219 -0.158107,-0.05038 -0.320697,-0.05024 -0.470704,-0.0059 z" />
  <path
     style="opacity:1;fill:url(#linearGradient3223);fill-rule:evenodd;stroke-width:1;enable-background:new;stroke-miterlimit:4;stroke-dasharray:none"
     d="m 18.771078,14.815446 c 0.0144,0.0096 0.0058,0.02405 0,0.02405 l 1.732084,3.086542 c 0.23366,0.415816 0.06508,0.90685 -0.216508,1.315933 -0.284448,0.413219 -0.725162,0.813453 -1.299087,1.124618 -0.575126,0.311742 -1.178336,0.461505 -1.683995,0.47853 -0.504488,0.01731 -0.978012,-0.126293 -1.202813,-0.526431 L 14.368677,17.20829 h -0.02409 c 0.01584,-0.01731 0.0029,0.01251 0,0.02405 -0.319397,1.369125 -0.153744,2.951496 0.433024,3.995798 0.802624,1.428375 2.478383,2.110726 4.137709,1.818414 1.651551,-0.294044 3.063806,-1.725208 3.416078,-3.086542 0.222412,-0.88175 0.127654,-1.829287 -0.336798,-2.655822 -0.585164,-1.041416 -1.872512,-2.022138 -3.223625,-2.488453 z"
     id="path2777"
     inkscape:connector-curvature="0" />
  <path
     style="opacity:1;fill:none;stroke:url(#linearGradient968);stroke-width:1;stroke-linecap:round;stroke-linejoin:round;stroke-miterlimit:4;stroke-dasharray:none;stroke-dashoffset:0.3612;enable-background:new"
     d="m 19.399666,15.285919 1.199837,2.344556 c 0.277345,0.526932 0.08159,1.077776 -0.239968,1.533028 -0.324963,0.460149 -0.819919,0.892124 -1.409856,1.232346 -0.582525,0.33603 -1.175167,0.556885 -1.739763,0.60117 -0.26886,0.02106 -0.527832,-0.0019 -0.779893,-0.09012 -1.106138,-0.732591 -1.378784,-2.141233 -1.949949,-3.354023 -0.165923,1.119617 -0.119475,2.726339 0.276089,3.477943 0.655956,1.246294 2.233224,1.898794 3.773526,1.559255 0.08802,-0.0229 0.181915,-0.0229 0.269964,0 0.790135,0.234599 1.799658,0.759492 2.909555,1.863622 l 10.49905,10.430511 1.949687,-1.923739 -10.49905,-10.430511 c -0.999608,-0.994285 -1.530416,-1.898731 -1.799755,-2.645141 -0.03437,-0.10661 -0.03437,-0.224029 0,-0.330642 0.23916,-0.820186 0.170088,-1.682503 -0.209972,-2.404673 -0.394064,-0.748681 -1.47353,-1.678181 -2.452885,-2.124392 z"
     id="path3711"
     inkscape:connector-curvature="0"
     sodipodi:nodetypes="ccccccccccccccccccc" />
</svg>
