<?xml version="1.0" encoding="UTF-8" standalone="no"?>
<svg
   xmlns:dc="http://purl.org/dc/elements/1.1/"
   xmlns:cc="http://creativecommons.org/ns#"
   xmlns:rdf="http://www.w3.org/1999/02/22-rdf-syntax-ns#"
   xmlns:svg="http://www.w3.org/2000/svg"
   xmlns="http://www.w3.org/2000/svg"
   xmlns:xlink="http://www.w3.org/1999/xlink"
   xmlns:sodipodi="http://sodipodi.sourceforge.net/DTD/sodipodi-0.dtd"
   xmlns:inkscape="http://www.inkscape.org/namespaces/inkscape"
   width="32"
   height="32"
   id="svg3495"
   version="1.1"
   sodipodi:docname="draw-text.svg"
   inkscape:version="0.92.4 (5da689c313, 2019-01-14)">
  <sodipodi:namedview
     pagecolor="#ffffff"
     bordercolor="#666666"
     borderopacity="1"
     objecttolerance="10"
     gridtolerance="10"
     guidetolerance="10"
     inkscape:pageopacity="0"
     inkscape:pageshadow="2"
     inkscape:window-width="2880"
     inkscape:window-height="1706"
     id="namedview30"
     showgrid="false"
     inkscape:zoom="9.8333333"
     inkscape:cx="-45.305085"
     inkscape:cy="12"
     inkscape:window-x="-11"
     inkscape:window-y="-11"
     inkscape:window-maximized="1"
     inkscape:current-layer="svg3495" />
  <defs
     id="defs3497">
    <linearGradient
       id="linearGradient3821">
      <stop
         style="stop-color:#555555;stop-opacity:1;"
         offset="0"
         id="stop3823" />
      <stop
         style="stop-color:#666666;stop-opacity:1;"
         offset="1"
         id="stop3825" />
    </linearGradient>
    <linearGradient
       xlink:href="#linearGradient3821"
       id="linearGradient3800"
       x1="12"
       y1="22"
       x2="12"
       y2="0"
       gradientUnits="userSpaceOnUse"
       gradientTransform="matrix(1.105,0,0,1.105,2.198974,7.1599558)" />
    <linearGradient
       id="linearGradient3952">
      <stop
         style="stop-color:#000000;stop-opacity:1;"
         offset="0"
         id="stop3954" />
      <stop
         style="stop-color:#000000;stop-opacity:0;"
         offset="1"
         id="stop3956" />
    </linearGradient>
    <linearGradient
       id="linearGradient3944">
      <stop
         style="stop-color:#000000;stop-opacity:1;"
         offset="0"
         id="stop3946" />
      <stop
         style="stop-color:#000000;stop-opacity:0;"
         offset="1"
         id="stop3948" />
    </linearGradient>
    <linearGradient
       id="linearGradient3960">
      <stop
         style="stop-color:#000000;stop-opacity:0;"
         offset="0"
         id="stop3962" />
      <stop
         id="stop3970"
         offset="0.5"
         style="stop-color:#000000;stop-opacity:1;" />
      <stop
         style="stop-color:#000000;stop-opacity:0;"
         offset="1"
         id="stop3964" />
    </linearGradient>
    <radialGradient
       xlink:href="#linearGradient3952"
       id="radialGradient4051"
       gradientUnits="userSpaceOnUse"
       gradientTransform="matrix(1.105,0,0,0.82875,-22.111026,-10.105669)"
       cx="40"
       cy="43.5"
       fx="40"
       fy="43.5"
       r="2" />
    <radialGradient
       xlink:href="#linearGradient3944"
       id="radialGradient4053"
       gradientUnits="userSpaceOnUse"
       gradientTransform="matrix(1.105,0,0,0.82875,-2.221026,-10.105669)"
       cx="9"
       cy="43.5"
       fx="9"
       fy="43.5"
       r="2" />
    <linearGradient
       xlink:href="#linearGradient3960"
       id="linearGradient4055"
       gradientUnits="userSpaceOnUse"
       gradientTransform="matrix(1.105,0,0,1.105,-7.7460256,-22.122544)"
       x1="25"
       y1="45"
       x2="25"
       y2="42" />
  </defs>
  <metadata
     id="metadata3500">
    <rdf:RDF>
      <cc:Work
         rdf:about="">
        <dc:format>image/svg+xml</dc:format>
        <dc:type
           rdf:resource="http://purl.org/dc/dcmitype/StillImage" />
        <dc:title />
      </cc:Work>
    </rdf:RDF>
  </metadata>
  <path
     id="path11643-3-2"
     d="m 7.1714739,7.7124558 v 0.5525 3.3150002 0.5525 h 0.5525 9.3925001 c 0.09068,0 0.430649,0.147403 0.690625,0.414375 0.259975,0.266972 0.414375,0.643776 0.414375,0.690625 v 1.105 h -7.735 c -1.6775352,0 -3.178888,0.698732 -4.1437501,1.795625 l -0.034531,0.03453 c -0.9233777,1.068626 -1.3583012,2.388661 -1.3467188,3.694844 0.011039,1.32569 0.4754456,2.667496 1.4157813,3.729375 0.9562423,1.079841 2.4455035,1.795625 4.1092186,1.795625 h 8.2875 1.6575 1.6575 0.5525 v -0.5525 c -0.04021,-1.1954 0,-2.099315 0,-3.315 v -8.2875 c 0,-3.006364 -2.440687,-5.5250004 -5.525,-5.5250004 H 7.7239739 Z M 10.486474,18.762456 h 7.735 v 2.21 h -7.735 c -0.55783,0 -0.5998667,-0.05679 -0.7942188,-0.27625 -0.1636123,-0.184754 -0.3081281,-0.529866 -0.3107813,-0.82875 -0.00229,-0.319862 0.1470217,-0.681845 0.27625,-0.82875 0.1742782,-0.198118 0.2298849,-0.27625 0.8287501,-0.27625 z"
     style="color:#000000;font-style:normal;font-variant:normal;font-weight:normal;font-stretch:normal;line-height:normal;font-family:Sans;-inkscape-font-specification:Sans;text-indent:0;text-align:start;text-decoration:none;text-decoration-line:none;letter-spacing:normal;word-spacing:normal;text-transform:none;writing-mode:lr-tb;direction:ltr;baseline-shift:baseline;text-anchor:start;display:inline;overflow:visible;visibility:visible;opacity:1;fill:url(#linearGradient3800);fill-opacity:1;stroke:none;stroke-width:1;marker:none;enable-background:accumulate;stroke-miterlimit:4;stroke-dasharray:none"
     inkscape:connector-curvature="0" />
  <path
     style="color:#000000;font-style:normal;font-variant:normal;font-weight:normal;font-stretch:normal;line-height:normal;font-family:Sans;-inkscape-font-specification:Sans;text-indent:0;text-align:start;text-decoration:none;text-decoration-line:none;letter-spacing:normal;word-spacing:normal;text-transform:none;writing-mode:lr-tb;direction:ltr;baseline-shift:baseline;text-anchor:start;display:inline;overflow:visible;visibility:visible;opacity:0.61000001;fill:none;stroke:#000000;stroke-width:1;stroke-miterlimit:4;stroke-dasharray:none;stroke-opacity:1;marker:none;enable-background:accumulate"
     d="m 7.1714739,7.7124558 v 0.5525 3.3150002 0.5525 h 0.5525 9.3925001 c 0.09068,0 0.430649,0.147403 0.690625,0.414375 0.259975,0.266972 0.414375,0.643776 0.414375,0.690625 v 1.105 h -7.735 c -1.6775352,0 -3.178888,0.698732 -4.1437501,1.795625 l -0.034531,0.03453 c -0.9233777,1.068626 -1.3583012,2.388661 -1.3467188,3.694844 0.011039,1.32569 0.4754456,2.667496 1.4157813,3.729375 0.9562423,1.079841 2.4455035,1.795625 4.1092186,1.795625 h 8.2875 1.6575 1.6575 0.5525 v -0.5525 c -0.04021,-1.1954 0,-2.099315 0,-3.315 v -8.2875 c 0,-3.006364 -2.440687,-5.5250004 -5.525,-5.5250004 H 7.7239739 Z M 10.486474,18.762456 h 7.735 v 2.21 h -7.735 c -0.55783,0 -0.5998667,-0.05679 -0.7942188,-0.27625 -0.1636123,-0.184754 -0.3081281,-0.529866 -0.3107813,-0.82875 -0.00229,-0.319862 0.1470217,-0.681845 0.27625,-0.82875 0.1742782,-0.198118 0.2298849,-0.27625 0.8287501,-0.27625 z"
     id="path3791"
     inkscape:connector-curvature="0" />
  <path
     id="path3802"
     d="m 7.7239739,8.2649558 v 1.105 h 9.3925001 c 2.783533,0 4.9725,2.2651642 4.9725,4.9725002 v -1.105 c 0,-2.707336 -2.188967,-4.9725002 -4.9725,-4.9725002 z m 2.7625001,6.6300002 c -1.5241158,0 -2.8753864,0.652121 -3.7293751,1.622969 h -0.034531 l -0.034531,0.03453 c -0.8104623,0.95648 -1.1843942,2.149891 -1.1740625,3.315 0.00154,0.184377 0.013543,0.369268 0.034531,0.5525 0.095613,-0.980861 0.4585625,-1.958844 1.1395312,-2.7625 l 0.034531,-0.03454 h 0.034531 c 0.8539887,-0.970848 2.2052593,-1.622969 3.7293754,-1.622969 h 7.735 0.5525 v -0.5525 -0.5525 h -0.5525 z m -1.5884376,5.525 c -0.046307,0.171566 -0.070531,0.347316 -0.069063,0.5525 0.0042,0.473184 0.1659493,0.889074 0.4489063,1.208594 0.094603,0.106831 0.2502692,0.252454 0.4834375,0.345312 0.2331683,0.09286 0.4274948,0.103594 0.7251568,0.103594 h 7.735 0.552499 v -0.5525 -0.5525 h -0.552499 -7.735 c -0.297662,0 -0.4919885,-0.01072 -0.7251568,-0.103594 C 9.5281494,21.328498 9.3724837,21.182881 9.2778802,21.07605 9.1122671,20.889037 8.9733189,20.665161 8.8980364,20.419956 Z"
     style="color:#000000;font-style:normal;font-variant:normal;font-weight:normal;font-stretch:normal;line-height:normal;font-family:Sans;-inkscape-font-specification:Sans;text-indent:0;text-align:start;text-decoration:none;text-decoration-line:none;letter-spacing:normal;word-spacing:normal;text-transform:none;writing-mode:lr-tb;direction:ltr;baseline-shift:baseline;text-anchor:start;display:inline;overflow:visible;visibility:visible;opacity:0.2;fill:#ffffff;fill-opacity:1;stroke:none;stroke-width:1;stroke-miterlimit:4;stroke-dasharray:none;marker:none;enable-background:accumulate"
     inkscape:connector-curvature="0" />
  <path
     id="rect3940"
     d="m 22.088974,24.287456 v 3.315 h 0.5525 c 0.918255,0 1.6575,-0.739245 1.6575,-1.6575 0,-0.918255 -0.739245,-1.6575 -1.6575,-1.6575 z"
     style="opacity:0.2;fill:url(#radialGradient4051);fill-opacity:1;stroke:none;stroke-width:1;stroke-miterlimit:4;stroke-dasharray:none"
     inkscape:connector-curvature="0" />
  <path
     id="rect3942"
     d="m 7.0678802,24.287456 c -0.8608641,0 -1.5539063,0.693041 -1.5539063,1.553906 v 0.207188 c 0,0.860864 0.6930422,1.553906 1.5539063,1.553906 h 0.6560937 v -3.315 z"
     style="opacity:0.2;fill:url(#radialGradient4053);fill-opacity:1;stroke:none;stroke-width:1;stroke-miterlimit:4;stroke-dasharray:none"
     inkscape:connector-curvature="0" />
  <path
     id="rect3938"
     d="M 7.7239739,24.287456 H 22.088974 v 3.315 H 7.7239739 Z"
     style="opacity:0.2;fill:url(#linearGradient4055);fill-opacity:1;stroke:none;stroke-width:1;stroke-miterlimit:4;stroke-dasharray:none"
     inkscape:connector-curvature="0" />
  <path
     id="path13619"
     d="M 19.87875,3.845 V 7.16 h 1.105 l 1.105,1.1223816 V 23.665263 L 20.98375,24.84 h -1.105 v 3.315 h 7.735 V 24.84 h -1.105 l -1.105,-1.028236 V 8.2649558 L 26.50875,7.16 h 1.105 V 3.845 Z"
     style="display:inline;opacity:1;fill:#000000;fill-opacity:1;fill-rule:evenodd;stroke:none;stroke-width:1;stroke-opacity:1;stroke-miterlimit:4;stroke-dasharray:none"
     inkscape:connector-curvature="0" />
  <path
     id="path13667"
     style="display:inline;opacity:1;fill:none;fill-rule:evenodd;stroke:#ffffff;stroke-width:2;stroke-linecap:butt;stroke-linejoin:miter;stroke-opacity:1;stroke-miterlimit:4;stroke-dasharray:none"
     d="m 20.950268,5.5024558 c 1.105,0 1.690982,0 1.690982,0 0,0 1.105,0 1.105,1.105 0,1.105 0,18.7850002 0,18.7850002 0,0 -0.09724,1.105 -1.202682,1.105 -1.105,0 -1.5933,0 -1.5933,0 M 26.523999,5.5024558 c -1.105,0 -1.690982,0 -1.690982,0 0,0 -1.105,0 -1.105,1.105 0,1.105 0,18.7850002 0,18.7850002 0,0 0.09724,1.105 1.202682,1.105 1.105,0 1.5933,0 1.5933,0"
     inkscape:connector-curvature="0" />
</svg>
