<?xml version="1.0" encoding="UTF-8" standalone="no"?>
<svg
   xmlns:dc="http://purl.org/dc/elements/1.1/"
   xmlns:cc="http://creativecommons.org/ns#"
   xmlns:rdf="http://www.w3.org/1999/02/22-rdf-syntax-ns#"
   xmlns:svg="http://www.w3.org/2000/svg"
   xmlns="http://www.w3.org/2000/svg"
   xmlns:xlink="http://www.w3.org/1999/xlink"
   xmlns:sodipodi="http://sodipodi.sourceforge.net/DTD/sodipodi-0.dtd"
   xmlns:inkscape="http://www.inkscape.org/namespaces/inkscape"
   width="32"
   height="32"
   id="svg3495"
   version="1.1"
   sodipodi:docname="draw-text.svg"
   inkscape:version="0.92.4 (5da689c313, 2019-01-14)">
  <sodipodi:namedview
     pagecolor="#ffffff"
     bordercolor="#666666"
     borderopacity="1"
     objecttolerance="10"
     gridtolerance="10"
     guidetolerance="10"
     inkscape:pageopacity="0"
     inkscape:pageshadow="2"
     inkscape:window-width="1920"
     inkscape:window-height="1017"
     id="namedview30"
     showgrid="false"
     inkscape:zoom="9.8333333"
     inkscape:cx="-0.66101695"
     inkscape:cy="12"
     inkscape:window-x="-8"
     inkscape:window-y="-8"
     inkscape:window-maximized="1"
     inkscape:current-layer="svg3495" />
  <defs
     id="defs3497">
    <linearGradient
       id="linearGradient3821">
      <stop
         style="stop-color:#555555;stop-opacity:1;"
         offset="0"
         id="stop3823" />
      <stop
         style="stop-color:#666666;stop-opacity:1;"
         offset="1"
         id="stop3825" />
    </linearGradient>
    <linearGradient
       xlink:href="#linearGradient3821"
       id="linearGradient3800"
       x1="12"
       y1="22"
       x2="12"
       y2="0"
       gradientUnits="userSpaceOnUse"
       gradientTransform="matrix(1.3,0,0,1.3,-0.24973652,5.599948)" />
    <linearGradient
       id="linearGradient3952">
      <stop
         style="stop-color:#000000;stop-opacity:1;"
         offset="0"
         id="stop3954" />
      <stop
         style="stop-color:#000000;stop-opacity:0;"
         offset="1"
         id="stop3956" />
    </linearGradient>
    <linearGradient
       id="linearGradient3944">
      <stop
         style="stop-color:#000000;stop-opacity:1;"
         offset="0"
         id="stop3946" />
      <stop
         style="stop-color:#000000;stop-opacity:0;"
         offset="1"
         id="stop3948" />
    </linearGradient>
    <linearGradient
       id="linearGradient3960">
      <stop
         style="stop-color:#000000;stop-opacity:0;"
         offset="0"
         id="stop3962" />
      <stop
         id="stop3970"
         offset="0.5"
         style="stop-color:#000000;stop-opacity:1;" />
      <stop
         style="stop-color:#000000;stop-opacity:0;"
         offset="1"
         id="stop3964" />
    </linearGradient>
    <radialGradient
       xlink:href="#linearGradient3952"
       id="radialGradient4051"
       gradientUnits="userSpaceOnUse"
       gradientTransform="matrix(1.3,0,0,0.975,-28.849736,-14.712552)"
       cx="40"
       cy="43.5"
       fx="40"
       fy="43.5"
       r="2" />
    <radialGradient
       xlink:href="#linearGradient3944"
       id="radialGradient4053"
       gradientUnits="userSpaceOnUse"
       gradientTransform="matrix(1.3,0,0,0.975,-5.4497365,-14.712552)"
       cx="9"
       cy="43.5"
       fx="9"
       fy="43.5"
       r="2" />
    <linearGradient
       xlink:href="#linearGradient3960"
       id="linearGradient4055"
       gradientUnits="userSpaceOnUse"
       gradientTransform="matrix(1.3,0,0,1.3,-11.949736,-28.850052)"
       x1="25"
       y1="45"
       x2="25"
       y2="42" />
  </defs>
  <metadata
     id="metadata3500">
    <rdf:RDF>
      <cc:Work
         rdf:about="">
        <dc:format>image/svg+xml</dc:format>
        <dc:type
           rdf:resource="http://purl.org/dc/dcmitype/StillImage" />
        <dc:title></dc:title>
      </cc:Work>
    </rdf:RDF>
  </metadata>
  <path
     id="path11643-3-2"
     d="m 5.6002635,6.249948 v 0.65 3.9 0.65 h 0.65 11.0500005 c 0.106678,0 0.506646,0.173415 0.8125,0.4875 0.305853,0.314085 0.4875,0.757384 0.4875,0.8125 v 1.3 H 9.5002635 c -1.9735708,0 -3.7398682,0.822038 -4.875,2.1125 l -0.040625,0.04062 c -1.0863267,1.257207 -1.5980014,2.81019 -1.584375,4.346875 0.012987,1.559636 0.5593477,3.138231 1.665625,4.3875 1.124991,1.270402 2.8770629,2.1125 4.834375,2.1125 h 9.7500005 1.95 1.95 0.65 v -0.65 c -0.04731,-1.406352 0,-2.469782 0,-3.9 v -9.75 c 0,-3.536898 -2.871397,-6.5 -6.5,-6.5 H 6.2502635 Z m 3.9,13 h 9.1000005 v 2.6 H 9.5002635 c -0.6562705,0 -0.7057255,-0.06681 -0.934375,-0.325 -0.1924851,-0.217357 -0.3625037,-0.623372 -0.365625,-0.975 -0.00269,-0.376308 0.1729667,-0.80217 0.325,-0.975 0.2050331,-0.23308 0.2704528,-0.325 0.975,-0.325 z"
     style="color:#000000;font-style:normal;font-variant:normal;font-weight:normal;font-stretch:normal;line-height:normal;font-family:Sans;-inkscape-font-specification:Sans;text-indent:0;text-align:start;text-decoration:none;text-decoration-line:none;letter-spacing:normal;word-spacing:normal;text-transform:none;writing-mode:lr-tb;direction:ltr;baseline-shift:baseline;text-anchor:start;display:inline;overflow:visible;visibility:visible;opacity:1;fill:url(#linearGradient3800);fill-opacity:1;stroke:none;stroke-width:2.5999999;marker:none;enable-background:accumulate"
     inkscape:connector-curvature="0" />
  <path
     style="color:#000000;font-style:normal;font-variant:normal;font-weight:normal;font-stretch:normal;line-height:normal;font-family:Sans;-inkscape-font-specification:Sans;text-indent:0;text-align:start;text-decoration:none;text-decoration-line:none;letter-spacing:normal;word-spacing:normal;text-transform:none;writing-mode:lr-tb;direction:ltr;baseline-shift:baseline;text-anchor:start;display:inline;overflow:visible;visibility:visible;opacity:0.61000001;fill:none;stroke:#000000;stroke-width:1;stroke-miterlimit:4;stroke-dasharray:none;stroke-opacity:1;marker:none;enable-background:accumulate"
     d="m 5.6002635,6.249948 v 0.65 3.9 0.65 h 0.65 11.0500005 c 0.106678,0 0.506646,0.173415 0.8125,0.4875 0.305853,0.314085 0.4875,0.757384 0.4875,0.8125 v 1.3 H 9.5002635 c -1.9735708,0 -3.7398682,0.822038 -4.875,2.1125 l -0.040625,0.04062 c -1.0863267,1.257207 -1.5980014,2.81019 -1.584375,4.346875 0.012987,1.559636 0.5593477,3.138231 1.665625,4.3875 1.124991,1.270402 2.8770629,2.1125 4.834375,2.1125 h 9.7500005 1.95 1.95 0.65 v -0.65 c -0.04731,-1.406352 0,-2.469782 0,-3.9 v -9.75 c 0,-3.536898 -2.871397,-6.5 -6.5,-6.5 H 6.2502635 Z m 3.9,13 h 9.1000005 v 2.6 H 9.5002635 c -0.6562705,0 -0.7057255,-0.06681 -0.934375,-0.325 -0.1924851,-0.217357 -0.3625037,-0.623372 -0.365625,-0.975 -0.00269,-0.376308 0.1729667,-0.80217 0.325,-0.975 0.2050331,-0.23308 0.2704528,-0.325 0.975,-0.325 z"
     id="path3791"
     inkscape:connector-curvature="0" />
  <path
     id="path3802"
     d="m 6.2502635,6.899948 v 1.3 H 17.300264 c 3.274744,0 5.85,2.664899 5.85,5.85 v -1.3 c 0,-3.185101 -2.575256,-5.85 -5.85,-5.85 z m 3.25,7.8 c -1.7930774,0 -3.3828075,0.767202 -4.3875,1.909375 h -0.040625 l -0.040625,0.04063 c -0.9534851,1.125271 -1.393405,2.529284 -1.38125,3.9 0.00181,0.216914 0.015933,0.434433 0.040625,0.65 0.1124864,-1.153954 0.5394853,-2.304522 1.340625,-3.25 l 0.040625,-0.04063 h 0.040625 c 1.0046925,-1.142174 2.5944226,-1.909375 4.3875,-1.909375 h 9.1000005 0.65 v -0.65 -0.65 h -0.65 z m -1.86875,6.5 c -0.054479,0.201843 -0.082978,0.408607 -0.08125,0.65 0.00494,0.556687 0.1952344,1.04597 0.528125,1.421875 0.1112982,0.125684 0.2944343,0.297005 0.56875,0.40625 0.2743157,0.109246 0.502934,0.121875 0.853125,0.121875 h 9.1000005 0.65 v -0.65 -0.65 h -0.65 -9.1000005 c -0.350191,0 -0.5788093,-0.01261 -0.853125,-0.121875 -0.2743157,-0.109252 -0.4574518,-0.280566 -0.56875,-0.40625 -0.1948389,-0.220015 -0.3583074,-0.483398 -0.446875,-0.771875 z"
     style="color:#000000;font-style:normal;font-variant:normal;font-weight:normal;font-stretch:normal;line-height:normal;font-family:Sans;-inkscape-font-specification:Sans;text-indent:0;text-align:start;text-decoration:none;text-decoration-line:none;letter-spacing:normal;word-spacing:normal;text-transform:none;writing-mode:lr-tb;direction:ltr;baseline-shift:baseline;text-anchor:start;display:inline;overflow:visible;visibility:visible;opacity:0.2;fill:#ffffff;fill-opacity:1;stroke:none;stroke-width:2;marker:none;enable-background:accumulate;stroke-miterlimit:4;stroke-dasharray:none"
     inkscape:connector-curvature="0" />
  <path
     id="rect3940"
     d="m 23.150264,25.749948 v 3.9 h 0.65 c 1.0803,0 1.95,-0.8697 1.95,-1.95 0,-1.0803 -0.8697,-1.95 -1.95,-1.95 z"
     style="opacity:0.2;fill:url(#radialGradient4051);fill-opacity:1;stroke:none;stroke-width:1.29999995"
     inkscape:connector-curvature="0" />
  <path
     id="rect3942"
     d="m 5.4783885,25.749948 c -1.0127813,0 -1.828125,0.815343 -1.828125,1.828125 v 0.24375 c 0,1.012782 0.8153437,1.828125 1.828125,1.828125 h 0.771875 v -3.9 z"
     style="opacity:0.2;fill:url(#radialGradient4053);fill-opacity:1;stroke:none;stroke-width:1.29999995"
     inkscape:connector-curvature="0" />
  <path
     id="rect3938"
     d="M 6.2502635,25.749948 H 23.150264 v 3.9 H 6.2502635 Z"
     style="opacity:0.2;fill:url(#linearGradient4055);fill-opacity:1;stroke:none;stroke-width:1.29999995"
     inkscape:connector-curvature="0" />
  <path
     id="path13619"
     d="m 20.55,1.7 v 3.9 h 1.3 l 1.3,1.320449 V 25.017957 L 21.85,26.4 h -1.3 v 3.9 h 9.1 v -3.9 h -1.3 l -1.3,-1.209689 V 6.899948 L 28.35,5.6 h 1.3 V 1.7 Z"
     style="display:inline;opacity:1;fill:#000000;fill-opacity:1;fill-rule:evenodd;stroke:none;stroke-width:1.29999992pt;stroke-opacity:1"
     inkscape:connector-curvature="0" />
  <path
     id="path13667"
     style="display:inline;opacity:1;fill:none;fill-rule:evenodd;stroke:#ffffff;stroke-width:1.29999995px;stroke-linecap:butt;stroke-linejoin:miter;stroke-opacity:1"
     d="m 21.81061,3.649948 c 1.3,0 1.98939,0 1.98939,0 0,0 1.3,0 1.3,1.3 0,1.3 0,22.1 0,22.1 0,0 -0.1144,1.3 -1.41492,1.3 -1.3,0 -1.87447,0 -1.87447,0 m 6.55733,-24.7 c -1.3,0 -1.98939,0 -1.98939,0 0,0 -1.3,0 -1.3,1.3 0,1.3 0,22.1 0,22.1 0,0 0.1144,1.3 1.41492,1.3 1.3,0 1.87447,0 1.87447,0"
     inkscape:connector-curvature="0" />
</svg>
