<?xml version="1.0" encoding="UTF-8" standalone="no"?>
<svg
   xmlns:osb="http://www.openswatchbook.org/uri/2009/osb"
   xmlns:dc="http://purl.org/dc/elements/1.1/"
   xmlns:cc="http://creativecommons.org/ns#"
   xmlns:rdf="http://www.w3.org/1999/02/22-rdf-syntax-ns#"
   xmlns:svg="http://www.w3.org/2000/svg"
   xmlns="http://www.w3.org/2000/svg"
   xmlns:xlink="http://www.w3.org/1999/xlink"
   xmlns:sodipodi="http://sodipodi.sourceforge.net/DTD/sodipodi-0.dtd"
   xmlns:inkscape="http://www.inkscape.org/namespaces/inkscape"
   version="1.1"
   width="32"
   height="32"
   id="svg6860"
   sodipodi:docname="draw-spiral.svg"
   inkscape:version="0.92.4 (5da689c313, 2019-01-14)">
  <sodipodi:namedview
     pagecolor="#ffffff"
     bordercolor="#666666"
     borderopacity="1"
     objecttolerance="10"
     gridtolerance="10"
     guidetolerance="10"
     inkscape:pageopacity="0"
     inkscape:pageshadow="2"
     inkscape:window-width="2880"
     inkscape:window-height="1706"
     id="namedview14"
     showgrid="false"
     inkscape:zoom="9.8333333"
     inkscape:cx="-22.983051"
     inkscape:cy="12"
     inkscape:window-x="-11"
     inkscape:window-y="-11"
     inkscape:window-maximized="1"
     inkscape:current-layer="svg6860" />
  <defs
     id="defs6862">
    <linearGradient
       id="linearGradient4526"
       osb:paint="solid">
      <stop
         style="stop-color:#ffffff;stop-opacity:1;"
         offset="0"
         id="stop4528" />
    </linearGradient>
    <radialGradient
       xlink:href="#linearGradient2195"
       id="radialGradient17200"
       gradientUnits="userSpaceOnUse"
       gradientTransform="matrix(0.61435569,0,0,0.1637032,0.56194853,17.501124)"
       cx="25.125"
       cy="44.8125"
       fx="25.125"
       fy="44.8125"
       r="20.25" />
    <linearGradient
       id="linearGradient2195">
      <stop
         id="stop2197"
         offset="0"
         style="stop-color:#000000;stop-opacity:1;" />
      <stop
         id="stop2199"
         offset="1"
         style="stop-color:#000000;stop-opacity:0;" />
    </linearGradient>
  </defs>
  <metadata
     id="metadata6865">
    <rdf:RDF>
      <cc:Work
         rdf:about="">
        <dc:format>image/svg+xml</dc:format>
        <dc:type
           rdf:resource="http://purl.org/dc/dcmitype/StillImage" />
        <dc:title />
      </cc:Work>
    </rdf:RDF>
  </metadata>
  <ellipse
     id="path17194"
     style="display:block;overflow:visible;visibility:visible;opacity:0.18333333;fill:url(#radialGradient17200);fill-opacity:1;fill-rule:evenodd;stroke:none;stroke-width:0.79933071;marker:none"
     cx="15.997635"
     cy="24.837091"
     rx="12.440702"
     ry="3.3149984" />
  <path
     id="path17196"
     d="m 15.202978,16.401391 c 1.08732,1.244871 -0.869193,2.465741 -1.877727,2.334301 -2.199834,-0.286703 -3.016208,-2.851264 -2.355418,-4.758229 0.875934,-2.52761 3.841422,-3.460285 6.544805,-2.55434 2.720841,0.911791 4.046731,5.465584 2.721504,8.21994 -1.848665,3.842174 -5.88534,5.693944 -9.815273,3.937844 C 5.7958915,21.514193 3.9901005,15.813531 6.072915,11.292236 8.459936,6.1104379 14.846173,4.1025092 19.895581,6.512238 c 5.677711,2.7095814 7.865169,9.806808 5.161455,15.403512 -0.319345,0.661055 -0.699244,1.292463 -1.132956,1.884191"
     style="opacity:1;fill:none;stroke:#0e141f;stroke-width:3.4000001;stroke-linecap:round;stroke-linejoin:miter;stroke-miterlimit:4;stroke-dasharray:none;stroke-opacity:1"
     inkscape:connector-curvature="0" />
  <path
     id="path17198"
     d="m 15.202978,16.401391 c 1.08732,1.244871 -0.869193,2.465741 -1.877727,2.334301 -2.199834,-0.286703 -3.016208,-2.851264 -2.355418,-4.758229 0.875934,-2.52761 3.841422,-3.460285 6.544805,-2.55434 2.720841,0.911791 4.046731,5.465584 2.721504,8.21994 -1.848665,3.842174 -5.88534,5.693944 -9.815273,3.937844 C 5.7958915,21.514193 3.9901005,15.813531 6.072915,11.292236 8.459936,6.1104379 14.846173,4.1025092 19.895581,6.512238 c 5.677711,2.7095814 7.865169,9.806808 5.161455,15.403512 -0.319345,0.661055 -0.699244,1.292463 -1.132956,1.884191"
     style="opacity:1;fill:none;stroke:#667885;stroke-width:1.70000005;stroke-linecap:round;stroke-linejoin:miter;stroke-miterlimit:4;stroke-dasharray:none;stroke-opacity:1"
     inkscape:connector-curvature="0" />
</svg>
