<?xml version="1.0" encoding="UTF-8" standalone="no"?>
<svg
   xmlns:dc="http://purl.org/dc/elements/1.1/"
   xmlns:cc="http://creativecommons.org/ns#"
   xmlns:rdf="http://www.w3.org/1999/02/22-rdf-syntax-ns#"
   xmlns:svg="http://www.w3.org/2000/svg"
   xmlns="http://www.w3.org/2000/svg"
   xmlns:xlink="http://www.w3.org/1999/xlink"
   xmlns:sodipodi="http://sodipodi.sourceforge.net/DTD/sodipodi-0.dtd"
   xmlns:inkscape="http://www.inkscape.org/namespaces/inkscape"
   version="1.0"
   width="32"
   height="32"
   id="svg3786"
   sodipodi:docname="drive-harddisk.svg"
   inkscape:version="0.92.4 (5da689c313, 2019-01-14)">
  <sodipodi:namedview
     pagecolor="#ffffff"
     bordercolor="#666666"
     borderopacity="1"
     objecttolerance="10"
     gridtolerance="10"
     guidetolerance="10"
     inkscape:pageopacity="0"
     inkscape:pageshadow="2"
     inkscape:window-width="2880"
     inkscape:window-height="1706"
     id="namedview95"
     showgrid="false"
     inkscape:zoom="7.375"
     inkscape:cx="-1.4237288"
     inkscape:cy="16"
     inkscape:window-x="-11"
     inkscape:window-y="-11"
     inkscape:window-maximized="1"
     inkscape:current-layer="svg3786" />
  <metadata
     id="metadata90">
    <rdf:RDF>
      <cc:Work
         rdf:about="">
        <dc:format>image/svg+xml</dc:format>
        <dc:type
           rdf:resource="http://purl.org/dc/dcmitype/StillImage" />
        <dc:title />
      </cc:Work>
    </rdf:RDF>
  </metadata>
  <defs
     id="defs3788">
    <linearGradient
       id="linearGradient5060">
      <stop
         id="stop5062"
         style="stop-color:#000000;stop-opacity:1"
         offset="0" />
      <stop
         id="stop5064"
         style="stop-color:#000000;stop-opacity:0"
         offset="1" />
    </linearGradient>
    <linearGradient
       id="linearGradient5048">
      <stop
         id="stop5050"
         style="stop-color:#000000;stop-opacity:0"
         offset="0" />
      <stop
         id="stop5056"
         style="stop-color:#000000;stop-opacity:1"
         offset="0.5" />
      <stop
         id="stop5052"
         style="stop-color:#000000;stop-opacity:0"
         offset="1" />
    </linearGradient>
    <linearGradient
       x1="29.9375"
       y1="41"
       x2="30"
       y2="49.999996"
       id="linearGradient2465"
       xlink:href="#linearGradient2215-9"
       gradientUnits="userSpaceOnUse"
       gradientTransform="matrix(0.58535063,0,0,0.43071073,-0.97521705,6.6368111)" />
    <linearGradient
       x1="302.85715"
       y1="366.64789"
       x2="302.85715"
       y2="609.50507"
       id="linearGradient2471"
       xlink:href="#linearGradient5048"
       gradientUnits="userSpaceOnUse"
       gradientTransform="matrix(0.07635654,0,0,0.02184879,1.4025717,30.138555)" />
    <radialGradient
       cx="605.71429"
       cy="486.64789"
       r="117.14286"
       fx="605.71429"
       fy="486.64789"
       id="radialGradient2473"
       xlink:href="#linearGradient5060"
       gradientUnits="userSpaceOnUse"
       gradientTransform="matrix(0.04484747,0,0,0.02184879,20.38888,30.138555)" />
    <radialGradient
       cx="605.71429"
       cy="486.64789"
       r="117.14286"
       fx="605.71429"
       fy="486.64789"
       id="radialGradient2475"
       xlink:href="#linearGradient5060"
       gradientUnits="userSpaceOnUse"
       gradientTransform="matrix(-0.04484747,0,0,0.02184879,37.61113,30.138555)" />
    <linearGradient
       id="linearGradient2215-9">
      <stop
         id="stop2223-6"
         style="stop-color:#7a7a7a;stop-opacity:1"
         offset="0" />
      <stop
         id="stop2219-1"
         style="stop-color:#474747;stop-opacity:1"
         offset="1" />
    </linearGradient>
    <linearGradient
       id="linearGradient7056-0">
      <stop
         id="stop7064-4"
         style="stop-color:#e6e6e6;stop-opacity:1"
         offset="0" />
      <stop
         id="stop7060-2"
         style="stop-color:#c8c8c8;stop-opacity:1"
         offset="1" />
    </linearGradient>
    <radialGradient
       cx="10"
       cy="7.2368369"
       r="16"
       fx="10"
       fy="7.2368369"
       id="radialGradient5024"
       xlink:href="#linearGradient7056-0"
       gradientUnits="userSpaceOnUse"
       gradientTransform="matrix(1.1938359,0,0,0.796875,-1.0383245,6.4329881)" />
    <linearGradient
       id="linearGradient4472">
      <stop
         id="stop4474"
         style="stop-color:#ffffff;stop-opacity:1"
         offset="0" />
      <stop
         id="stop4476"
         style="stop-color:#ffffff;stop-opacity:0.23529412"
         offset="0.02116842" />
      <stop
         id="stop4478"
         style="stop-color:#ffffff;stop-opacity:0.15686275"
         offset="0.99223143" />
      <stop
         id="stop4480"
         style="stop-color:#ffffff;stop-opacity:0.39215687"
         offset="1" />
    </linearGradient>
    <linearGradient
       x1="23.99999"
       y1="51.346149"
       x2="23.99999"
       y2="53.354122"
       id="linearGradient3171"
       xlink:href="#linearGradient4472"
       gradientUnits="userSpaceOnUse"
       gradientTransform="matrix(0.49989092,0,0,0.43685711,9.9071849,3.3452183)" />
    <linearGradient
       x1="23.99999"
       y1="6.5391083"
       x2="23.99999"
       y2="42.102226"
       id="linearGradient3168-6"
       xlink:href="#linearGradient4075-8"
       gradientUnits="userSpaceOnUse"
       gradientTransform="matrix(0.22297952,0,0,0.36103145,6.7069046,8.0324138)" />
    <linearGradient
       id="linearGradient4075-8">
      <stop
         id="stop4077-4"
         style="stop-color:#ffffff;stop-opacity:1"
         offset="0" />
      <stop
         id="stop4079-5"
         style="stop-color:#ffffff;stop-opacity:0.23529412"
         offset="0.03367912" />
      <stop
         id="stop4081-2"
         style="stop-color:#ffffff;stop-opacity:0.15686275"
         offset="0.99223143" />
      <stop
         id="stop4083-4"
         style="stop-color:#ffffff;stop-opacity:0.39215687"
         offset="1" />
    </linearGradient>
    <radialGradient
       cx="113.0654"
       cy="97.587898"
       r="2.5631001"
       fx="113.667"
       fy="98"
       id="radialGradient3789"
       xlink:href="#radialGradient3437"
       gradientUnits="userSpaceOnUse"
       gradientTransform="matrix(2.4956521,0,0,2.4956521,-223.97574,-53.226089)" />
    <radialGradient
       cx="113.0654"
       cy="97.587898"
       r="2.5631001"
       fx="113.667"
       fy="98"
       id="radialGradient3437"
       gradientUnits="userSpaceOnUse">
      <stop
         id="stop3439"
         style="stop-color:#eeeeee;stop-opacity:1"
         offset="0" />
      <stop
         id="stop3441"
         style="stop-color:#cecece;stop-opacity:1"
         offset="0.16" />
      <stop
         id="stop3443"
         style="stop-color:#888888;stop-opacity:1"
         offset="0.4675" />
      <stop
         id="stop3445"
         style="stop-color:#555555;stop-opacity:1"
         offset="1" />
    </radialGradient>
    <radialGradient
       cx="113.0654"
       cy="97.587898"
       r="2.5631001"
       fx="113.667"
       fy="98"
       id="radialGradient3793"
       xlink:href="#radialGradient3437"
       gradientUnits="userSpaceOnUse"
       gradientTransform="matrix(2.4956521,0,0,2.4956521,-223.97574,-53.226089)" />
    <radialGradient
       cx="141.74666"
       cy="206.42612"
       r="78.728165"
       fx="141.74666"
       fy="206.42612"
       id="radialGradient3831"
       xlink:href="#linearGradient4035"
       gradientUnits="userSpaceOnUse"
       gradientTransform="matrix(0.20887896,-0.0026253,0.00154592,0.15105467,-14.316152,-8.3191024)" />
    <linearGradient
       id="linearGradient4035">
      <stop
         id="stop4037"
         style="stop-color:#f5f5f5;stop-opacity:1"
         offset="0" />
      <stop
         id="stop4039"
         style="stop-color:#e7e7e7;stop-opacity:1"
         offset="0.47025558" />
      <stop
         id="stop4041"
         style="stop-color:#8c8c8c;stop-opacity:1"
         offset="0.69348532" />
      <stop
         id="stop4043"
         style="stop-color:#dddddd;stop-opacity:1"
         offset="0.83542866" />
      <stop
         id="stop4045"
         style="stop-color:#a8a8a8;stop-opacity:1"
         offset="1" />
    </linearGradient>
    <radialGradient
       cx="142.62215"
       cy="191.85428"
       r="78.728165"
       fx="142.62215"
       fy="191.85428"
       id="radialGradient3820"
       xlink:href="#linearGradient4035"
       gradientUnits="userSpaceOnUse"
       gradientTransform="matrix(0.10480633,0,0,-0.07331974,0.63703855,29.410428)" />
    <radialGradient
       cx="127.31733"
       cy="143.82751"
       r="78.728165"
       fx="127.31733"
       fy="143.82751"
       id="radialGradient3827"
       xlink:href="#linearGradient5026"
       gradientUnits="userSpaceOnUse"
       gradientTransform="matrix(0.10278408,-0.01314821,0.00464578,0.03916727,-1.3543935,8.7760359)" />
    <linearGradient
       id="linearGradient5026">
      <stop
         id="stop5028"
         style="stop-color:#f5f5f5;stop-opacity:1"
         offset="0" />
      <stop
         id="stop5030"
         style="stop-color:#e7e7e7;stop-opacity:1"
         offset="0.27751356" />
      <stop
         id="stop5032"
         style="stop-color:#8c8c8c;stop-opacity:1"
         offset="0.52359134" />
      <stop
         id="stop5034"
         style="stop-color:#dddddd;stop-opacity:1"
         offset="1" />
      <stop
         id="stop5036"
         style="stop-color:#a8a8a8;stop-opacity:1"
         offset="1" />
    </linearGradient>
    <radialGradient
       cx="113.0654"
       cy="97.587898"
       r="2.5631001"
       fx="113.667"
       fy="98"
       id="radialGradient3797"
       xlink:href="#radialGradient3437"
       gradientUnits="userSpaceOnUse"
       gradientTransform="matrix(2.4956521,0,0,2.4956521,-223.97574,-53.226089)" />
    <radialGradient
       cx="113.0654"
       cy="97.587898"
       r="2.5631001"
       fx="113.667"
       fy="98"
       id="radialGradient3801"
       xlink:href="#radialGradient3437"
       gradientUnits="userSpaceOnUse"
       gradientTransform="matrix(2.4956521,0,0,2.4956521,-223.97574,-53.226089)" />
    <linearGradient
       x1="7.0625"
       y1="35.28125"
       x2="24.6875"
       y2="35.28125"
       id="linearGradient4238"
       xlink:href="#linearGradient6309"
       gradientUnits="userSpaceOnUse"
       gradientTransform="matrix(0.67408949,0,0,0.45842695,1.9084484,10.050965)" />
    <linearGradient
       id="linearGradient6309">
      <stop
         id="stop6311"
         style="stop-color:#000000;stop-opacity:1"
         offset="0" />
      <stop
         id="stop6313"
         style="stop-color:#bbbbbb;stop-opacity:0"
         offset="1" />
    </linearGradient>
    <linearGradient
       x1="12.277412"
       y1="37.205811"
       x2="12.221823"
       y2="33.758667"
       id="linearGradient4235"
       xlink:href="#linearGradient4236-0"
       gradientUnits="userSpaceOnUse"
       gradientTransform="matrix(0.67408949,0,0,0.45842695,1.3722155,10.658757)" />
    <linearGradient
       id="linearGradient4236-0">
      <stop
         id="stop4238-4"
         style="stop-color:#eeeeee;stop-opacity:1"
         offset="0" />
      <stop
         id="stop4240-3"
         style="stop-color:#eeeeee;stop-opacity:0"
         offset="1" />
    </linearGradient>
  </defs>
  <path
     d="M 29.177023,24.526628 25.197904,9.9739314 C 25.085388,9.5595148 24.495999,9.2230548 24.0005,9.2230548 H 7.8627485 c -0.7612387,0 -1.197456,0.1121181 -1.3579744,0.7508766 L 2.8234391,24.512459"
     id="path6345"
     style="display:inline;overflow:visible;visibility:visible;fill:url(#radialGradient5024);fill-opacity:1;fill-rule:nonzero;stroke:none;stroke-width:0.84641582;marker:none;enable-background:accumulate"
     inkscape:connector-curvature="0" />
  <path
     d="M 29.177023,24.526628 25.197904,9.9739311 C 25.085388,9.5595145 24.495999,9.2230544 24.0005,9.2230544 H 7.8627485 c -0.7612387,0 -1.197456,0.1121182 -1.3579744,0.7508767 L 2.8234391,24.512459 Z"
     id="path6345-9"
     style="color:#000000;display:inline;overflow:visible;visibility:visible;opacity:0.35;fill:none;stroke:#000000;stroke-width:0.8499999;stroke-linecap:round;stroke-linejoin:round;stroke-miterlimit:4;stroke-dasharray:none;stroke-dashoffset:0;stroke-opacity:1;marker:none;enable-background:accumulate"
     inkscape:connector-curvature="0" />
  <g
     transform="matrix(0.56666066,0,0,0.5320977,-0.43312459,6.0772734)"
     id="g6029"
     style="display:inline;enable-background:new">
    <rect
       width="36.869301"
       height="5.3061337"
       x="10.565332"
       y="38.149361"
       id="rect2723"
       style="display:inline;overflow:visible;visibility:visible;opacity:0.40206185;fill:url(#linearGradient2471);fill-opacity:1;fill-rule:nonzero;stroke:none;stroke-width:0.5;marker:none" />
    <path
       d="m 47.41667,38.149545 c 0,0 0,5.30584 0,5.30584 2.30953,0.01 5.58333,-1.18877 5.58333,-2.65326 0,-1.46449 -2.57726,-2.65258 -5.58333,-2.65258 z"
       id="path2725"
       style="display:inline;overflow:visible;visibility:visible;opacity:0.40206185;fill:url(#radialGradient2473);fill-opacity:1;fill-rule:nonzero;stroke:none;stroke-width:0.5;marker:none"
       inkscape:connector-curvature="0" />
    <path
       d="m 10.58333,38.149545 c 0,0 0,5.30584 0,5.30584 C 8.2737899,43.465375 5,42.266615 5,40.802125 c 0,-1.46449 2.5772699,-2.65258 5.58333,-2.65258 z"
       id="path2727"
       style="display:inline;overflow:visible;visibility:visible;opacity:0.40206185;fill:url(#radialGradient2475);fill-opacity:1;fill-rule:nonzero;stroke:none;stroke-width:1;marker:none"
       inkscape:connector-curvature="0" />
  </g>
  <rect
     width="26.35"
     height="0.85000002"
     x="2.8250346"
     y="24.099842"
     id="rect6381"
     style="display:inline;fill:#d2d2d3;fill-opacity:1;fill-rule:evenodd;stroke:none;stroke-width:0.85000002;enable-background:new" />
  <path
     d="M 2.8315342,24.512754 H 29.168364 l -0.526597,3.442782 H 3.4166683 Z"
     id="rect6431"
     style="display:inline;fill:url(#linearGradient2465);fill-opacity:1;fill-rule:evenodd;stroke:none;stroke-width:0.85000002;enable-background:new"
     inkscape:connector-curvature="0" />
  <path
     d="M 2.8315342,24.524842 H 29.168364 l -0.526597,3.4 H 3.4166683 Z"
     id="rect6431-1"
     style="color:#000000;display:inline;overflow:visible;visibility:visible;opacity:0.5;fill:none;stroke:#000000;stroke-width:0.85000002;stroke-linecap:butt;stroke-linejoin:round;stroke-miterlimit:4;stroke-dasharray:none;stroke-dashoffset:0;stroke-opacity:1;marker:none;enable-background:accumulate"
     inkscape:connector-curvature="0" />
  <path
     d="m 7.8719096,10.074842 c -0.3412338,0 -0.5254129,0.05035 -0.53125,0.05312 -0.00584,0.0028 0.038594,-0.100454 0,0.05312 L 3.9140971,23.674842 H 28.05941 L 24.367222,10.207655 a 0.85677858,0.85677858 0 0 1 0,-0.02656 c 0.02746,0.101153 0.01319,0.05591 -0.07969,0 -0.09288,-0.05591 -0.234238,-0.10625 -0.292188,-0.10625 z"
     id="path4094"
     style="color:#000000;display:inline;overflow:visible;visibility:visible;opacity:0.8;fill:none;stroke:url(#linearGradient3168-6);stroke-width:0.85000002;stroke-linecap:round;stroke-linejoin:round;stroke-miterlimit:4;stroke-dasharray:none;stroke-dashoffset:0;stroke-opacity:1;marker:none;enable-background:accumulate"
     inkscape:connector-curvature="0" />
  <path
     d="m 4.113913,27.074842 23.78098,2e-6 c 0.06451,-0.169986 0.282618,-1.7 0.282618,-1.7 H 3.8610606 c 0,0 0.1582095,1.267591 0.2528524,1.699998 z"
     id="path4497"
     style="color:#000000;display:inline;overflow:visible;visibility:visible;opacity:0.2;fill:none;stroke:url(#linearGradient3171);stroke-width:0.85000002;stroke-linecap:round;stroke-linejoin:miter;stroke-miterlimit:4;stroke-dasharray:none;stroke-dashoffset:0;stroke-opacity:1;marker:none;enable-background:accumulate"
     inkscape:connector-curvature="0" />
  <g
     transform="matrix(0.05701743,0,0,0.03955284,4.4920233,2.6687265)"
     id="g9164"
     style="display:inline;enable-background:new">
    <path
       d="m 48.2999,190.27968 c 0.31446,4.2476 5.02375,7.71156 10.51419,7.71156 5.48794,0 9.6432,-3.46396 9.27634,-7.71156 -0.36437,-4.22514 -5.07117,-7.6367 -10.5067,-7.6367 -5.43803,0.002 -9.59329,3.41156 -9.28383,7.6367 z"
       id="path9166"
       style="fill:#f0f0f0;fill-opacity:1"
       inkscape:connector-curvature="0" />
    <path
       d="m 51.85122,187.29238 c -0.50163,0.53906 -1.07563,1.40256 -1.07563,2.55056 0,0.0824 0.005,0.16471 0.01,0.25206 0.21713,2.9274 3.89322,5.40059 8.02602,5.40059 2.3534,0 4.50465,-0.81109 5.75248,-2.17371 0.53656,-0.58149 1.148,-1.54481 1.03819,-2.82758 -0.25206,-2.90244 -3.92316,-5.35567 -8.02103,-5.35567 -2.33593,0.002 -4.47969,0.8061 -5.73001,2.15375 z"
       id="path9168"
       style="fill:url(#radialGradient3789);fill-opacity:1"
       inkscape:connector-curvature="0" />
  </g>
  <g
     transform="matrix(0.05701743,0,0,0.03955284,20.557023,2.6687265)"
     id="g9170"
     style="display:inline;enable-background:new">
    <path
       d="m 48.2999,190.27968 c 0.31446,4.2476 5.02375,7.71156 10.51419,7.71156 5.48794,0 9.6432,-3.46396 9.27634,-7.71156 -0.36437,-4.22514 -5.07117,-7.6367 -10.5067,-7.6367 -5.43803,0.002 -9.59329,3.41156 -9.28383,7.6367 z"
       id="path9172"
       style="fill:#e6e6e6;fill-opacity:1"
       inkscape:connector-curvature="0" />
    <path
       d="m 51.85122,187.29238 c -0.50163,0.53906 -1.07563,1.40256 -1.07563,2.55056 0,0.0824 0.005,0.16471 0.01,0.25206 0.21713,2.9274 3.89322,5.40059 8.02602,5.40059 2.3534,0 4.50465,-0.81109 5.75248,-2.17371 0.53656,-0.58149 1.148,-1.54481 1.03819,-2.82758 -0.25206,-2.90244 -3.92316,-5.35567 -8.02103,-5.35567 -2.33593,0.002 -4.47969,0.8061 -5.73001,2.15375 z"
       id="path9174"
       style="fill:url(#radialGradient3793);fill-opacity:1"
       inkscape:connector-curvature="0" />
  </g>
  <path
     d="m 18.836082,10.395334 c -0.302078,0 -0.574691,0.06784 -0.788995,0.182889 -0.214304,0.115046 -0.383347,0.30507 -0.394497,0.548668 -0.02683,0.584151 -0.453992,1.024682 -1.262392,1.436988 -0.803215,0.409661 -1.964033,0.751479 -3.366378,1.071209 -0.0091,0.0021 -0.01723,-0.0021 -0.0263,0 -0.522104,0.08129 -1.393288,0.28789 -2.235485,0.522541 -0.8415613,0.234474 -1.6151795,0.495465 -1.9724876,0.679303 -0.00426,0.0022 -0.022159,-0.0022 -0.0263,0 -1.7772388,0.838086 -2.8933069,1.968872 -3.0507802,3.239754 -0.1440846,1.162696 0.5446744,2.317249 1.8672879,3.213627 1.9340529,1.310816 5.0647109,2.064037 8.4159449,2.064037 3.351243,0 6.507212,-0.752721 8.442245,-2.064037 1.208098,-0.818605 1.867289,-1.840961 1.867289,-2.900103 0,-0.115871 -0.01631,-0.226962 -0.0263,-0.313524 -0.137658,-1.111257 -1.00741,-2.130179 -2.419586,-2.926229 C 23.815328,14.68933 23.46485,11.100764 23.46485,11.100764 23.44174,10.857875 23.261629,10.692216 23.044053,10.578223 22.826476,10.464231 22.55593,10.395334 22.255058,10.395334 Z m 0,0.548668 h 3.418978 c 0.06972,0 0.120257,0.0165 0.157799,0.02613 l 0.394497,4.25871 a 0.21217317,0.21077927 0 0 0 0,0.02613 0.21217317,0.21077927 0 0 0 0.0263,0.05225 0.21217317,0.21077927 0 0 0 0.0789,0.07838 c 1.385008,0.705917 2.203656,1.770023 2.314386,2.664958 0.06902,0.556656 -0.116735,1.068139 -0.525997,1.541496 -0.409263,0.473357 -1.059718,0.894664 -1.893588,1.254099 -1.667739,0.718867 -4.070214,1.14959 -6.811656,1.14959 -2.741438,0 -5.143944,-0.430723 -6.8116555,-1.14959 C 8.350189,20.486719 7.6997328,20.065414 7.2904573,19.592055 6.8811818,19.118695 6.6954948,18.607218 6.7644607,18.050559 6.8833468,17.09141 7.7812395,15.983515 9.341844,15.254965 a 0.21217317,0.21077927 0 0 0 0.0263,0 c 0.00353,-0.0024 0.084889,-0.03953 0.1840989,-0.07838 0.099209,-0.03885 0.2415385,-0.105484 0.3944973,-0.156762 0.3059178,-0.102557 0.6902838,-0.220886 1.1045928,-0.339652 0.828616,-0.23753 1.751269,-0.458503 2.209186,-0.522541 a 0.21217317,0.21077927 0 0 0 0.0263,0 c 1.355592,-0.307507 2.656734,-0.675313 3.655675,-1.175716 0.960359,-0.481078 1.644346,-1.128176 1.73579,-2.011784 0.02481,-0.0092 0.08006,-0.02613 0.157798,-0.02613 z"
     id="path3829"
     style="display:inline;fill:url(#radialGradient3831);fill-opacity:1;stroke-width:0.83882552;enable-background:new"
     inkscape:connector-curvature="0" />
  <path
     d="m 15.999902,19.849792 c -1.90681,0 -3.368573,-0.71059 -3.399391,-1.653116 -2.38e-4,-0.01055 -4.76e-4,-0.02026 -4.76e-4,-0.03017 0,-0.341064 0.191592,-0.665426 0.555656,-0.940068 0.61585,-0.464243 1.679153,-0.741343 2.844449,-0.741343 1.165067,0 2.22836,0.2771 2.84421,0.741343 0.374817,0.282364 0.566887,0.617984 0.55518,0.970113 -0.03131,0.942537 -1.493058,1.653296 -3.399628,1.653296 v -5.2e-5 z m 0.05694,-2.309945 c -1.79167,0 -2.761378,0.176772 -2.739873,0.819717 0.02077,0.632922 1.221912,1.138626 2.682958,1.138626 1.461047,0 2.662179,-0.505883 2.682959,-1.138626 0.02127,-0.643114 -0.834374,-0.819717 -2.626044,-0.819717 z"
     id="path9156"
     style="display:inline;overflow:visible;visibility:visible;fill:url(#radialGradient3820);fill-opacity:1;fill-rule:nonzero;stroke-width:0.85000002;stroke-linecap:butt;stroke-linejoin:miter;stroke-miterlimit:4;stroke-dasharray:none;stroke-dashoffset:0;stroke-opacity:1;marker:none;enable-background:accumulate"
     inkscape:connector-curvature="0" />
  <path
     d="m 8.695394,10.597129 a 0.07297618,0.0686941 0 0 0 -0.025396,0.0239 0.07297618,0.0686941 0 0 0 -0.025395,0.02391 l -0.076187,0.167337 -0.8126571,2.48616 -0.1523732,0.406391 a 0.07297618,0.0686941 0 0 0 0,0.0239 0.07297618,0.0686941 0 0 0 0,0.0239 0.07297618,0.0686941 0 0 0 0.025395,0.0239 0.07297618,0.0686941 0 0 0 0.025396,0.0239 0.07297618,0.0686941 0 0 0 0.025395,0 0.07297618,0.0686941 0 0 0 0.025396,0 l 0.4063289,-0.09562 7.0345624,-1.55385 h 0.0254 a 0.07297618,0.0686941 0 0 0 0.0254,0 c 0.397584,-0.165155 0.63485,-0.525873 0.685675,-0.836688 0.02509,-0.153697 0.01638,-0.287723 -0.05079,-0.430297 -0.07165,-0.152169 -0.25935,-0.291253 -0.457119,-0.286865 h -0.0254 -6.4758614 -0.1523732 a 0.07297618,0.0686941 0 0 0 -0.025395,0 z m 0.3047464,0.286864 h 6.3742786 c -0.0097,0.05948 -0.02624,0.177942 -0.07618,0.31077 -0.04995,0.132829 -0.128712,0.253966 -0.203165,0.286865 l -6.7044214,1.482134 z"
     id="path3825"
     style="display:inline;overflow:visible;visibility:visible;fill:url(#radialGradient3827);fill-opacity:1;fill-rule:nonzero;stroke:none;stroke-width:0.78845423;marker:none;enable-background:accumulate"
     inkscape:connector-curvature="0" />
  <g
     transform="matrix(-0.08313951,0,0,0.09152179,10.187913,5.5543282)"
     id="g9158"
     style="display:inline;enable-background:new">
    <path
       d="m 48.2999,190.27968 c 0.31446,4.2476 5.02375,7.71156 10.51419,7.71156 5.48794,0 9.6432,-3.46396 9.27634,-7.71156 -0.36437,-4.22514 -5.07117,-7.6367 -10.5067,-7.6367 -5.43803,0.002 -9.59329,3.41156 -9.28383,7.6367 z"
       id="path9160"
       style="fill:#e6e6e6;fill-opacity:1"
       inkscape:connector-curvature="0" />
    <path
       d="m 51.85122,187.29238 c -0.50163,0.53906 -1.07563,1.40256 -1.07563,2.55056 0,0.0824 0.005,0.16471 0.01,0.25206 0.21713,2.9274 3.89322,5.40059 8.02602,5.40059 2.3534,0 4.50465,-0.81109 5.75248,-2.17371 0.53656,-0.58149 1.148,-1.54481 1.03819,-2.82758 -0.25206,-2.90244 -3.92316,-5.35567 -8.02103,-5.35567 -2.33593,0.002 -4.47969,0.8061 -5.73001,2.15375 z"
       id="path9162"
       style="fill:url(#radialGradient3797);fill-opacity:1"
       inkscape:connector-curvature="0" />
  </g>
  <g
     transform="matrix(0.08313951,0,0,0.09152179,21.760753,5.5543282)"
     id="g9190"
     style="display:inline;enable-background:new">
    <path
       d="m 48.2999,190.27968 c 0.31446,4.2476 5.02375,7.71156 10.51419,7.71156 5.48794,0 9.6432,-3.46396 9.27634,-7.71156 -0.36437,-4.22514 -5.07117,-7.6367 -10.5067,-7.6367 -5.43803,0.002 -9.59329,3.41156 -9.28383,7.6367 z"
       id="path9192"
       style="fill:#e6e6e6;fill-opacity:1"
       inkscape:connector-curvature="0" />
    <path
       d="m 51.85122,187.29238 c -0.50163,0.53906 -1.07563,1.40256 -1.07563,2.55056 0,0.0824 0.005,0.16471 0.01,0.25206 0.21713,2.9274 3.89322,5.40059 8.02602,5.40059 2.3534,0 4.50465,-0.81109 5.75248,-2.17371 0.53656,-0.58149 1.148,-1.54481 1.03819,-2.82758 -0.25206,-2.90244 -3.92316,-5.35567 -8.02103,-5.35567 -2.33593,0.002 -4.47969,0.8061 -5.73001,2.15375 z"
       id="path9194"
       style="fill:url(#radialGradient3801);fill-opacity:1"
       inkscape:connector-curvature="0" />
  </g>
  <path
     d="M 6.3950337,24.949842 H 18.550035 v 2.55 H 6.6692076 Z"
     id="rect9146"
     style="display:inline;overflow:visible;visibility:visible;fill:url(#linearGradient4238);fill-opacity:1;fill-rule:evenodd;stroke:none;stroke-width:2.04764986;marker:none"
     inkscape:connector-curvature="0" />
  <path
     d="m 6.6692066,27.499841 c 0,0 -0.1827819,-1.838973 -0.1827819,-1.838973 1.2373096,1.457443 5.7753593,1.838973 8.9038133,1.838973 0,0 -8.7210314,0 -8.7210314,0 z"
     id="path9148"
     style="opacity:0.81142853;fill:url(#linearGradient4235);fill-opacity:1;fill-rule:evenodd;stroke:none;stroke-width:0.85000002"
     inkscape:connector-curvature="0" />
</svg>
