<?xml version="1.0" encoding="UTF-8" standalone="no"?>
<svg
   xmlns:dc="http://purl.org/dc/elements/1.1/"
   xmlns:cc="http://creativecommons.org/ns#"
   xmlns:rdf="http://www.w3.org/1999/02/22-rdf-syntax-ns#"
   xmlns:svg="http://www.w3.org/2000/svg"
   xmlns="http://www.w3.org/2000/svg"
   xmlns:xlink="http://www.w3.org/1999/xlink"
   xmlns:sodipodi="http://sodipodi.sourceforge.net/DTD/sodipodi-0.dtd"
   xmlns:inkscape="http://www.inkscape.org/namespaces/inkscape"
   version="1.0"
   width="32"
   height="32"
   id="svg2"
   sodipodi:docname="edit.svg"
   inkscape:version="0.92.4 (5da689c313, 2019-01-14)">
  <sodipodi:namedview
     pagecolor="#ffffff"
     bordercolor="#666666"
     borderopacity="1"
     objecttolerance="10"
     gridtolerance="10"
     guidetolerance="10"
     inkscape:pageopacity="0"
     inkscape:pageshadow="2"
     inkscape:window-width="2880"
     inkscape:window-height="1706"
     id="namedview67"
     showgrid="false"
     inkscape:zoom="31.930291"
     inkscape:cx="16"
     inkscape:cy="16"
     inkscape:window-x="-11"
     inkscape:window-y="-11"
     inkscape:window-maximized="1"
     inkscape:current-layer="svg2" />
  <defs
     id="defs4">
    <linearGradient
       inkscape:collect="always"
       id="linearGradient881">
      <stop
         style="stop-color:#000000;stop-opacity:1"
         offset="0"
         id="stop877" />
      <stop
         style="stop-color:#000000;stop-opacity:0"
         offset="1"
         id="stop879" />
    </linearGradient>
    <linearGradient
       id="linearGradient3191-577">
      <stop
         id="stop2613"
         style="stop-color:#dbce48;stop-opacity:1"
         offset="0" />
      <stop
         id="stop2615"
         style="stop-color:#c5b625;stop-opacity:1"
         offset="1" />
    </linearGradient>
    <linearGradient
       x1="5.5178981"
       y1="37.371799"
       x2="9.5220556"
       y2="41.391716"
       id="linearGradient3901"
       xlink:href="#linearGradient3191-577"
       gradientUnits="userSpaceOnUse"
       gradientTransform="matrix(0.61920299,0.02672578,0.02669289,0.61843933,0.53222135,1.0105603)" />
    <linearGradient
       id="linearGradient3290-678">
      <stop
         id="stop2607"
         style="stop-color:#ece5a5;stop-opacity:1"
         offset="0" />
      <stop
         id="stop2609"
         style="stop-color:#fcfbf2;stop-opacity:1"
         offset="1" />
    </linearGradient>
    <linearGradient
       x1="9"
       y1="29.056757"
       x2="9"
       y2="26.02973"
       id="linearGradient3899"
       xlink:href="#linearGradient3290-678"
       gradientUnits="userSpaceOnUse"
       gradientTransform="matrix(0.70500006,-0.70845605,0.94988707,0.94516098,-25.112499,5.0178493)" />
    <linearGradient
       id="linearGradient3223-699">
      <stop
         id="stop2599"
         style="stop-color:#b1b1b1;stop-opacity:1"
         offset="0" />
      <stop
         id="stop2601"
         style="stop-color:#ffffff;stop-opacity:1"
         offset="0.5" />
      <stop
         id="stop2603"
         style="stop-color:#8f8f8f;stop-opacity:1"
         offset="1" />
    </linearGradient>
    <linearGradient
       x1="30.037716"
       y1="24.989594"
       x2="30.037716"
       y2="30.000141"
       id="linearGradient3897"
       xlink:href="#linearGradient3223-699"
       gradientUnits="userSpaceOnUse"
       gradientTransform="matrix(0.70500006,-0.70845605,0.94988698,0.9451609,-23.640022,3.5381587)" />
    <linearGradient
       id="linearGradient3240-907">
      <stop
         id="stop2591"
         style="stop-color:#565656;stop-opacity:1"
         offset="0" />
      <stop
         id="stop2593"
         style="stop-color:#9a9a9a;stop-opacity:1"
         offset="0.5" />
      <stop
         id="stop2595"
         style="stop-color:#545454;stop-opacity:1"
         offset="1" />
    </linearGradient>
    <linearGradient
       x1="30.037716"
       y1="24.989594"
       x2="30.037716"
       y2="30.000141"
       id="linearGradient3895"
       xlink:href="#linearGradient3240-907"
       gradientUnits="userSpaceOnUse"
       gradientTransform="matrix(0.70500006,-0.70845605,0.94988698,0.9451609,-23.438119,3.3352649)" />
    <linearGradient
       id="linearGradient3223-768">
      <stop
         id="stop2583"
         style="stop-color:#b1b1b1;stop-opacity:1"
         offset="0" />
      <stop
         id="stop2585"
         style="stop-color:#ffffff;stop-opacity:1"
         offset="0.5" />
      <stop
         id="stop2587"
         style="stop-color:#8f8f8f;stop-opacity:1"
         offset="1" />
    </linearGradient>
    <linearGradient
       x1="30.037716"
       y1="24.989594"
       x2="30.037716"
       y2="30.000141"
       id="linearGradient3893"
       xlink:href="#linearGradient3223-768"
       gradientUnits="userSpaceOnUse"
       gradientTransform="matrix(0.70500006,-0.70845605,0.94988698,0.9451609,-24.345024,4.2466129)" />
    <linearGradient
       id="linearGradient3240-686">
      <stop
         id="stop2575"
         style="stop-color:#565656;stop-opacity:1"
         offset="0" />
      <stop
         id="stop2577"
         style="stop-color:#9a9a9a;stop-opacity:1"
         offset="0.5" />
      <stop
         id="stop2579"
         style="stop-color:#545454;stop-opacity:1"
         offset="1" />
    </linearGradient>
    <linearGradient
       x1="30.037716"
       y1="24.989594"
       x2="30.037716"
       y2="30.000141"
       id="linearGradient3891"
       xlink:href="#linearGradient3240-686"
       gradientUnits="userSpaceOnUse"
       gradientTransform="matrix(0.70500006,-0.70845605,0.94988698,0.9451609,-24.14312,4.0437216)" />
    <linearGradient
       id="linearGradient3223-789">
      <stop
         id="stop2567"
         style="stop-color:#b1b1b1;stop-opacity:1"
         offset="0" />
      <stop
         id="stop2569"
         style="stop-color:#ffffff;stop-opacity:1"
         offset="0.5" />
      <stop
         id="stop2571"
         style="stop-color:#8f8f8f;stop-opacity:1"
         offset="1" />
    </linearGradient>
    <linearGradient
       x1="30.037716"
       y1="24.989594"
       x2="30.037716"
       y2="30.000141"
       id="linearGradient3889"
       xlink:href="#linearGradient3223-789"
       gradientUnits="userSpaceOnUse"
       gradientTransform="matrix(0.70500006,-0.70845605,0.94988698,0.9451609,-25.046631,4.9516628)" />
    <linearGradient
       id="linearGradient3240-279">
      <stop
         id="stop2559"
         style="stop-color:#565656;stop-opacity:1"
         offset="0" />
      <stop
         id="stop2561"
         style="stop-color:#9a9a9a;stop-opacity:1"
         offset="0.5" />
      <stop
         id="stop2563"
         style="stop-color:#545454;stop-opacity:1"
         offset="1" />
    </linearGradient>
    <linearGradient
       x1="30.037716"
       y1="24.989594"
       x2="30.037716"
       y2="30.000141"
       id="linearGradient3887"
       xlink:href="#linearGradient3240-279"
       gradientUnits="userSpaceOnUse"
       gradientTransform="matrix(0.70500006,-0.70845605,0.94988698,0.9451609,-24.844728,4.7487698)" />
    <linearGradient
       id="linearGradient3155-40">
      <stop
         id="stop2541"
         style="stop-color:#181818;stop-opacity:1"
         offset="0" />
      <stop
         id="stop2543"
         style="stop-color:#dbdbdb;stop-opacity:1"
         offset="0.13482948" />
      <stop
         id="stop2545"
         style="stop-color:#a4a4a4;stop-opacity:1"
         offset="0.20224422" />
      <stop
         id="stop2547"
         style="stop-color:#ffffff;stop-opacity:1"
         offset="0.26965895" />
      <stop
         id="stop2549"
         style="stop-color:#8d8d8d;stop-opacity:1"
         offset="0.44650277" />
      <stop
         id="stop2551"
         style="stop-color:#959595;stop-opacity:1"
         offset="0.57114136" />
      <stop
         id="stop2553"
         style="stop-color:#cecece;stop-opacity:1"
         offset="0.72038066" />
      <stop
         id="stop2555"
         style="stop-color:#181818;stop-opacity:1"
         offset="1" />
    </linearGradient>
    <linearGradient
       x1="23.575972"
       y1="25.356892"
       x2="23.575972"
       y2="31.210939"
       id="linearGradient3885"
       xlink:href="#linearGradient3155-40"
       gradientUnits="userSpaceOnUse"
       gradientTransform="matrix(0.7255093,-0.72906574,0.81164869,0.80761036,-22.186035,8.4793452)"
       spreadMethod="pad" />
    <linearGradient
       inkscape:collect="always"
       xlink:href="#linearGradient881"
       id="linearGradient883"
       x1="0.25044656"
       y1="23.750134"
       x2="22.323114"
       y2="19.508556"
       gradientUnits="userSpaceOnUse"
       gradientTransform="matrix(1.105,0,0,1.105,2.818464,2.6195841)" />
  </defs>
  <metadata
     id="metadata7">
    <rdf:RDF>
      <cc:Work
         rdf:about="">
        <dc:format>image/svg+xml</dc:format>
        <dc:type
           rdf:resource="http://purl.org/dc/dcmitype/StillImage" />
        <dc:title />
      </cc:Work>
    </rdf:RDF>
  </metadata>
  <path
     inkscape:connector-curvature="0"
     style="opacity:0.15;fill:url(#linearGradient883);fill-opacity:1;fill-rule:evenodd;stroke:none;stroke-width:0.5;stroke-miterlimit:4;stroke-dasharray:none"
     id="path2422"
     d="m 25.062405,22.527497 c -0.220172,-0.0325 -0.392818,-0.01581 -0.507734,0.01072 l -15.3041424,3.52171 -2.8167857,0.649701 -0.086397,0.0142 -3.4250713,2.415761 8.1722754,-0.216535 0.06865,-0.01647 2.834538,-0.647425 15.301775,-3.547228 c 0.459661,-0.106323 -0.226822,-0.677379 -1.53981,-1.283332 -0.984743,-0.454467 -2.036782,-0.803601 -2.697294,-0.901097 z" />
  <path
     d="m 6.4854587,20.816975 c 0.4927432,-0.369751 1.8753007,0.323839 3.1458116,1.588029 1.2674727,1.261165 1.9353197,2.610675 1.5739407,3.108241 -0.0014,0.0019 0.03108,0.02767 0.02968,0.02954 L 28.92599,7.76496 C 29.375153,7.3135951 28.677273,5.8872267 27.366427,4.5829049 26.055586,3.2785828 24.62572,2.5877881 24.176553,3.0391551 Z"
     id="rect2383"
     style="fill:url(#linearGradient3885);fill-opacity:1;stroke:#0c0c0c;stroke-width:0.5;stroke-linecap:butt;stroke-linejoin:round;stroke-miterlimit:4;stroke-dasharray:none;stroke-dashoffset:0;stroke-opacity:1"
     inkscape:connector-curvature="0" />
  <path
     d="m 22.017493,5.208802 c 0.492742,-0.3697514 1.8753,0.3238395 3.145811,1.5880284 1.267471,1.2611641 1.964999,2.6402111 1.603619,3.1377762 -0.0014,0.00189 0.0014,-0.00187 0,0 l 2.159063,-2.1696468 0.04406,-0.044278 c 0.0014,-0.00187 -0.03106,-0.027644 -0.02968,-0.029537 C 29.301746,7.1935797 28.633897,5.844069 27.366425,4.5829048 26.095917,3.3187166 24.713359,2.6251246 24.220615,2.994876 l -0.04406,0.044279 z"
     id="rect3175"
     style="opacity:0.8;fill:#ffb6ed;fill-opacity:1;stroke:#e28ccd;stroke-width:0.5;stroke-linecap:butt;stroke-linejoin:round;stroke-miterlimit:4;stroke-dasharray:none;stroke-dashoffset:0;stroke-opacity:1"
     inkscape:connector-curvature="0"
     sodipodi:nodetypes="cscccccscccc" />
  <path
     d="m 6.4854587,20.816973 c 0.4927432,-0.369751 1.875301,0.32384 3.145811,1.588028 1.2674723,1.261166 1.9353193,2.610676 1.5739403,3.108242 -0.0014,0.0019 0.03109,0.02767 0.02968,0.02954 l 12.183279,-12.243006 0.04406,-0.04428 c 0.0014,-0.0019 -0.03106,-0.02764 -0.02968,-0.02954 0.361381,-0.497571 -0.306466,-1.84708 -1.573938,-3.108244 -1.27051,-1.2641889 -2.65307,-1.9577796 -3.145813,-1.5880279 l -0.04406,0.044277 z"
     id="path3208"
     style="opacity:0.6;fill:#0c0c0c;fill-opacity:1;stroke:none;stroke-width:0.5;stroke-miterlimit:4;stroke-dasharray:none"
     inkscape:connector-curvature="0" />
  <path
     d="m 19.597444,7.6407112 c 0.492742,-0.3697519 1.875303,0.3238393 3.145812,1.5880281 1.267471,1.2611637 1.93532,2.6106747 1.573938,3.1082417 -0.0014,0.0019 0.03109,0.02767 0.02968,0.02954 l 0.220313,-0.221393 c 0.0014,-0.0019 -0.03106,-0.02764 -0.02968,-0.02954 C 24.898888,11.61802 24.23104,10.26851 22.963567,9.007347 21.693058,7.7431571 20.310499,7.0495662 19.817757,7.4193178 Z"
     id="path3233"
     style="fill:url(#linearGradient3887);fill-opacity:1;stroke:none;stroke-width:0.5;stroke-miterlimit:4;stroke-dasharray:none"
     inkscape:connector-curvature="0" />
  <path
     d="m 19.395541,7.8436034 c 0.492743,-0.3697518 1.875303,0.3238393 3.145811,1.5880276 1.267474,1.261165 1.935322,2.610673 1.57394,3.10824 -0.0014,0.0019 0.03108,0.02767 0.02968,0.02954 l 0.220311,-0.221393 c 0.0014,-0.0019 -0.03106,-0.02764 -0.02968,-0.02954 C 24.696988,11.820913 24.029139,10.471402 22.761665,9.2102383 21.491156,7.9460496 20.108598,7.2524579 19.615853,7.6222098 Z"
     id="path3216"
     style="fill:url(#linearGradient3889);fill-opacity:1;stroke:none;stroke-width:0.5;stroke-miterlimit:4;stroke-dasharray:none"
     inkscape:connector-curvature="0" />
  <path
     d="m 20.299053,6.9356626 c 0.492742,-0.369752 1.875301,0.3238386 3.145812,1.5880284 1.26747,1.2611639 1.93532,2.610673 1.57394,3.108239 -0.0014,0.0019 0.03108,0.02767 0.02968,0.02954 l 0.220312,-0.221393 c 0.0014,-0.0019 -0.03106,-0.02764 -0.02968,-0.02954 C 25.600497,10.912972 24.932649,9.5634619 23.665176,8.3022985 22.394667,7.038109 21.01211,6.344518 20.519364,6.7142699 Z"
     id="path3248"
     style="fill:url(#linearGradient3891);fill-opacity:1;stroke:none;stroke-width:0.5;stroke-miterlimit:4;stroke-dasharray:none"
     inkscape:connector-curvature="0" />
  <path
     d="m 20.09715,7.1385548 c 0.492745,-0.3697522 1.875303,0.3238388 3.145811,1.5880275 1.267474,1.2611654 1.935321,2.6106747 1.573941,3.1082407 -0.0014,0.0019 0.03109,0.02767 0.02968,0.02954 l 0.220312,-0.221394 c 0.0014,-0.0019 -0.03106,-0.02764 -0.02968,-0.02954 C 25.398595,11.115864 24.730747,9.7663529 23.463275,8.505191 22.192767,7.2410016 20.810207,6.5474098 20.317462,6.9171621 Z"
     id="path3250"
     style="fill:url(#linearGradient3893);fill-opacity:1;stroke:none;stroke-width:0.5;stroke-miterlimit:4;stroke-dasharray:none"
     inkscape:connector-curvature="0" />
  <path
     d="m 21.004054,6.2272064 c 0.492742,-0.3697514 1.8753,0.3238391 3.14581,1.5880285 1.267472,1.2611639 1.935321,2.6106741 1.57394,3.1082391 -0.0014,0.0019 0.03108,0.02767 0.02968,0.02954 l 0.220311,-0.221394 c 0.0014,-0.0019 -0.03106,-0.02764 -0.02968,-0.02954 0.361381,-0.497564 -0.306468,-1.8470748 -1.57394,-3.1082391 -1.270507,-1.2641885 -2.653066,-1.9577795 -3.14581,-1.5880277 l -0.220312,0.2213923 z"
     id="path3256"
     style="fill:url(#linearGradient3895);fill-opacity:1;stroke:none;stroke-width:0.5;stroke-miterlimit:4;stroke-dasharray:none"
     inkscape:connector-curvature="0" />
  <path
     d="m 20.802152,6.4300984 c 0.492741,-0.3697522 1.875301,0.3238393 3.14581,1.5880291 1.267471,1.261163 1.935321,2.6106735 1.573939,3.1082385 -0.0014,0.0019 0.03109,0.02767 0.02968,0.02954 l 0.220312,-0.221391 c 0.0014,-0.0019 -0.03106,-0.02764 -0.02968,-0.02954 C 26.103595,10.407408 25.435747,9.0578979 24.168275,7.7967341 22.897766,6.5325453 21.515206,5.8389536 21.022463,6.2087064 Z"
     id="path3258"
     style="fill:url(#linearGradient3897);fill-opacity:1;stroke:none;stroke-width:0.5;stroke-miterlimit:4;stroke-dasharray:none"
     inkscape:connector-curvature="0" />
  <path
     d="m 3.0952074,28.863481 8.0485266,-3.282776 0.06857,-0.06856 C 11.573685,25.014571 10.897127,23.664955 9.6296549,22.403788 8.3591447,21.139599 6.9782212,20.449842 6.4854775,20.819594 Z"
     id="path3270"
     style="fill:url(#linearGradient3899);fill-opacity:1;fill-rule:evenodd;stroke:url(#linearGradient3901);stroke-width:0.5;stroke-linecap:butt;stroke-linejoin:miter;stroke-miterlimit:4;stroke-dasharray:none;stroke-opacity:1"
     inkscape:connector-curvature="0" />
  <path
     d="m 4.0135389,26.684862 -0.9188253,2.17001 2.1952358,-0.89995 C 5.1140045,27.744173 4.9515784,27.530113 4.7403331,27.319919 4.4971324,27.077927 4.2579221,26.88158 4.0135389,26.684862 Z"
     id="path3281"
     style="fill:#0c0c0c;fill-opacity:1;fill-rule:evenodd;stroke:#0c0c0c;stroke-width:0.5;stroke-linecap:butt;stroke-linejoin:miter;stroke-miterlimit:4;stroke-dasharray:none;stroke-opacity:1"
     inkscape:connector-curvature="0" />
</svg>
