<?xml version="1.0" encoding="UTF-8" standalone="no"?>
<svg
   xmlns:dc="http://purl.org/dc/elements/1.1/"
   xmlns:cc="http://creativecommons.org/ns#"
   xmlns:rdf="http://www.w3.org/1999/02/22-rdf-syntax-ns#"
   xmlns:svg="http://www.w3.org/2000/svg"
   xmlns="http://www.w3.org/2000/svg"
   xmlns:xlink="http://www.w3.org/1999/xlink"
   xmlns:sodipodi="http://sodipodi.sourceforge.net/DTD/sodipodi-0.dtd"
   xmlns:inkscape="http://www.inkscape.org/namespaces/inkscape"
   id="svg2437"
   height="32"
   width="32"
   version="1.1"
   sodipodi:docname="edit-clear.svg"
   inkscape:version="0.92.4 (5da689c313, 2019-01-14)">
  <sodipodi:namedview
     pagecolor="#ffffff"
     bordercolor="#666666"
     borderopacity="1"
     objecttolerance="10"
     gridtolerance="10"
     guidetolerance="10"
     inkscape:pageopacity="0"
     inkscape:pageshadow="2"
     inkscape:window-width="2880"
     inkscape:window-height="1706"
     id="namedview53"
     showgrid="false"
     inkscape:zoom="3.6875"
     inkscape:cx="-1.4237288"
     inkscape:cy="16"
     inkscape:window-x="-11"
     inkscape:window-y="-11"
     inkscape:window-maximized="1"
     inkscape:current-layer="svg2437" />
  <defs
     id="defs2439">
    <linearGradient
       id="linearGradient6019">
      <stop
         offset="0"
         style="stop-color:#000000;stop-opacity:1"
         id="stop6021" />
      <stop
         offset="1"
         style="stop-color:#000000;stop-opacity:0"
         id="stop6023" />
    </linearGradient>
    <radialGradient
       gradientTransform="matrix(0.56666667,0,0,0.17000003,-5.5333327,13.939216)"
       gradientUnits="userSpaceOnUse"
       xlink:href="#linearGradient6019"
       id="radialGradient6025"
       fy="69"
       fx="28.603323"
       r="20"
       cy="69"
       cx="38" />
    <linearGradient
       id="linearGradient5996">
      <stop
         offset="0"
         style="stop-color:#8f5902;stop-opacity:1"
         id="stop5998" />
      <stop
         offset="1"
         style="stop-color:#73521e;stop-opacity:1"
         id="stop6000" />
    </linearGradient>
    <linearGradient
       gradientTransform="matrix(0.56666667,0,0,0.56666667,1.2666668,2.4358847)"
       gradientUnits="userSpaceOnUse"
       xlink:href="#linearGradient5996"
       id="linearGradient6002"
       y2="18"
       x2="34"
       y1="9.2407961"
       x1="30.324829" />
    <linearGradient
       id="linearGradient5958">
      <stop
         offset="0"
         style="stop-color:#c17d11;stop-opacity:1"
         id="stop5960" />
      <stop
         offset="1"
         style="stop-color:#e9b96e;stop-opacity:1"
         id="stop5962" />
    </linearGradient>
    <linearGradient
       gradientTransform="matrix(0.56666667,0,0,0.56666667,1.2666668,2.4358847)"
       gradientUnits="userSpaceOnUse"
       xlink:href="#linearGradient5958"
       id="linearGradient5964"
       y2="8"
       x2="26"
       y1="16"
       x1="28" />
    <linearGradient
       id="linearGradient5984">
      <stop
         offset="0"
         style="stop-color:#ffffff;stop-opacity:1"
         id="stop5986" />
      <stop
         offset="1"
         style="stop-color:#ffffff;stop-opacity:0.13438736"
         id="stop5988" />
    </linearGradient>
    <linearGradient
       gradientTransform="matrix(0.56666667,0,0,0.56666667,1.2666668,2.4358847)"
       gradientUnits="userSpaceOnUse"
       xlink:href="#linearGradient5984"
       id="linearGradient5994"
       y2="16.685888"
       x2="33.447109"
       y1="8"
       x1="28" />
    <linearGradient
       id="linearGradient5966">
      <stop
         offset="0"
         style="stop-color:#fdef72;stop-opacity:1"
         id="stop5968" />
      <stop
         offset="1"
         style="stop-color:#e2cb0b;stop-opacity:1"
         id="stop5970" />
    </linearGradient>
    <linearGradient
       gradientTransform="matrix(0.56666667,0,0,0.56666667,1.2666668,2.4358847)"
       gradientUnits="userSpaceOnUse"
       xlink:href="#linearGradient5966"
       id="linearGradient5972"
       y2="30.742676"
       x2="30.208115"
       y1="25.060659"
       x1="20.933708" />
    <linearGradient
       id="linearGradient5981">
      <stop
         offset="0"
         style="stop-color:#ffffff;stop-opacity:1"
         id="stop5983" />
      <stop
         offset="1"
         style="stop-color:#ffffff;stop-opacity:0.69411767"
         id="stop5985" />
    </linearGradient>
    <linearGradient
       gradientTransform="matrix(0.56666667,0,0,0.56666667,1.2666668,2.4358847)"
       gradientUnits="userSpaceOnUse"
       xlink:href="#linearGradient5981"
       id="linearGradient5973"
       y2="37.029255"
       x2="18.985712"
       y1="41.955986"
       x1="22.319767" />
    <linearGradient
       id="linearGradient5999">
      <stop
         offset="0"
         style="stop-color:#c4a000;stop-opacity:1"
         id="stop6001" />
      <stop
         offset="1"
         style="stop-color:#c4a000;stop-opacity:0"
         id="stop6003" />
    </linearGradient>
    <linearGradient
       gradientTransform="matrix(0.56666667,0,0,0.56666667,1.2666668,2.4358847)"
       gradientUnits="userSpaceOnUse"
       xlink:href="#linearGradient5999"
       id="linearGradient6005"
       y2="34.728424"
       x2="23.489431"
       y1="36.218422"
       x1="27.354809" />
    <linearGradient
       id="linearGradient5974-892">
      <stop
         offset="0"
         style="stop-color:#919191;stop-opacity:1"
         id="stop2473" />
      <stop
         offset="1"
         style="stop-color:#cecece;stop-opacity:1"
         id="stop2475" />
    </linearGradient>
    <linearGradient
       gradientTransform="matrix(0.55353094,0,0,0.56666667,1.6210242,2.4358847)"
       gradientUnits="userSpaceOnUse"
       xlink:href="#linearGradient5974-892"
       id="linearGradient5980-761"
       y2="20.618719"
       x2="21.59099"
       y1="23.145937"
       x1="27.651777" />
  </defs>
  <metadata
     id="metadata2442">
    <rdf:RDF>
      <cc:Work
         rdf:about="">
        <dc:format>image/svg+xml</dc:format>
        <dc:type
           rdf:resource="http://purl.org/dc/dcmitype/StillImage" />
        <dc:title />
      </cc:Work>
    </rdf:RDF>
  </metadata>
  <path
     d="m 27.333334,25.669218 a 11.333333,3.400001 0 1 1 -22.6666667,0 11.333333,3.400001 0 1 1 22.6666667,0 z"
     id="path6017"
     style="opacity:0.25;fill:url(#radialGradient6025);fill-opacity:1;stroke:none;stroke-width:1;stroke-miterlimit:7.19999981;stroke-dasharray:none"
     inkscape:connector-curvature="0" />
  <path
     d="m 22.003125,3.834843 c -4.648489,0.059869 -5.324853,9.206931 -6.658333,10.855209 l 2.266666,0.814583 C 19.102853,13.026858 26.539856,4.7901032 22.463542,3.8525514 22.305164,3.8350022 22.153076,3.8329118 22.003125,3.834843 Z m -0.584375,1.16875 c 0.109686,-0.010619 0.208525,0.00324 0.301042,0.053125 0.370065,0.1995361 0.410071,0.8470971 0.08854,1.4343751 C 21.486804,7.078371 20.921106,7.3989624 20.551042,7.1994264 20.180978,6.9998901 20.140971,6.3523294 20.4625,5.7650514 20.703648,5.3245928 21.089694,5.0354487 21.41875,5.003593 Z"
     id="path5371"
     style="fill:url(#linearGradient5964);fill-opacity:1;fill-rule:evenodd;stroke:url(#linearGradient6002);stroke-width:1;stroke-linecap:butt;stroke-linejoin:miter;stroke-opacity:1;stroke-miterlimit:7.19999981;stroke-dasharray:none"
     inkscape:connector-curvature="0" />
  <path
     d="m 22.008105,4.7252402 c -0.873049,0.011244 -1.493961,0.4088438 -2.12832,1.1753906 -0.628432,0.7593856 -1.17018,1.8742279 -1.610351,3.0746094 -0.441078,1.2028498 -0.799665,2.4887718 -1.127246,3.5925778 -0.189404,0.638207 -0.379362,1.128499 -0.586035,1.607032 l 0.705566,0.252343 c 0.977335,-1.45912 2.772214,-3.6369 4.112207,-5.8055661 0.739921,-1.1974984 1.263744,-2.3414336 1.371289,-3.0297852 0.05473,-0.3503261 0.0065,-0.5563808 -0.03154,-0.6225586 -0.04604,-0.080084 -0.119663,-0.1513 -0.42334,-0.2291016 -0.09581,-0.00861 -0.185867,-0.016182 -0.282228,-0.014941 z"
     id="path5992"
     style="opacity:0.26666667;fill:none;stroke:url(#linearGradient5994);stroke-width:1;stroke-linecap:butt;stroke-linejoin:miter;stroke-opacity:1;stroke-miterlimit:7.19999981;stroke-dasharray:none"
     inkscape:connector-curvature="0" />
  <path
     d="M 14.016667,11.785885 C 14.41872,12.920922 13.70988,13.903989 13.45,14.619218 10.508112,15.4951 8.4708129,20.117996 5.4415367,22.526249 c 0.3784132,0.395192 0.8229284,0.818368 1.2084634,1.159636 l 2.3020834,-2.001042 -1.7382818,2.563968 c 1.251901,1.01489 2.5528651,1.703741 3.4028653,1.987074 L 12.175,24.16401 11.183333,26.519218 c 0.822797,0.3337 2.824996,0.839814 3.966667,0.85 l 1.135538,-1.928082 -0.290796,1.963499 c 0.470086,0.08974 1.381627,0.212055 1.988591,0.230208 1.905239,-3.116666 2.266667,-8.198958 1.133334,-10.465625 -0.283334,-1.133333 0.85,-2.55 1.7,-3.116666 -1.416667,-1.133334 -4.649834,-2.438779 -6.8,-2.266667 z"
     id="path5367"
     style="fill:url(#linearGradient5972);fill-opacity:1;fill-rule:evenodd;stroke:none;stroke-width:1;stroke-linecap:butt;stroke-linejoin:miter;stroke-miterlimit:7.19999981;stroke-dasharray:none;stroke-opacity:1"
     inkscape:connector-curvature="0" />
  <path
     d="M 14.016667,11.785885 C 14.41872,12.920922 13.70988,13.903989 13.45,14.619218 10.508112,15.4951 8.4708129,20.117996 5.4415367,22.526249 c 0.3784132,0.395192 0.8229284,0.818368 1.2084634,1.159636 l 2.3020834,-2.001042 -1.7382818,2.563968 c 1.251901,1.01489 2.5528651,1.703741 3.4028653,1.987074 L 12.175,24.16401 11.183333,26.519218 c 0.822797,0.3337 2.824996,0.839814 3.966667,0.85 l 1.135538,-1.928082 -0.290796,1.963499 c 0.470086,0.08974 1.381627,0.212055 1.988591,0.230208 1.905239,-3.116666 2.266667,-8.198958 1.133334,-10.465625 -0.283334,-1.133333 0.85,-2.55 1.7,-3.116666 -1.416667,-1.133334 -4.649834,-2.438779 -6.8,-2.266667 z"
     id="path5367-6"
     style="opacity:0.5;fill:none;fill-opacity:1;fill-rule:evenodd;stroke:#ad5f00;stroke-width:1;stroke-linecap:butt;stroke-linejoin:miter;stroke-miterlimit:7.19999981;stroke-dasharray:none;stroke-opacity:1"
     inkscape:connector-curvature="0" />
  <path
     d="m 7.5000001,24.252552 c 2.7293469,-2.839508 2.5301799,-4.082226 5.7324659,-6.53238 -1.69005,2.736111 -1.963975,4.159367 -4.0324659,7.665713 z"
     id="path5975"
     style="opacity:0.26666667;fill:#c4a000;fill-rule:evenodd;stroke:none;stroke-width:1;stroke-miterlimit:7.19999981;stroke-dasharray:none"
     inkscape:connector-curvature="0" />
  <path
     d="m 11.551558,26.350607 2.462749,-5.576083 c 0.943223,-1.690778 1.62048,-3.38303 2.566417,-4.730167 -0.907773,3.070222 -2.771391,6.869016 -4.267708,10.554167 z"
     id="path5979"
     style="opacity:0.41568627;fill:#c4a000;fill-rule:evenodd;stroke:none;stroke-width:1;stroke-miterlimit:7.19999981;stroke-dasharray:none"
     inkscape:connector-curvature="0" />
  <path
     d="m 14.93252,12.69067 c -0.06263,1.038492 -0.559701,1.895019 -0.680665,2.22793 a 0.30660274,0.30660274 0 0 1 -0.0017,0 c -0.09151,0.25029 -0.294934,0.445548 -0.551171,0.524609 l 0.02656,-0.0083 c -1.464292,0.600024 -2.50867,1.761684 -3.575976,3.127734 -0.7814562,1.000188 -1.5748922,2.103466 -2.5533208,3.137695 l 3.9561518,-3.348535 a 0.30660274,0.30660274 0 0 1 0.451563,0.405078 l -3.559375,5.30918 c 0.5803469,0.440196 1.2176113,0.815066 1.880957,1.102344 l 3.810059,-5.066798 a 0.30660274,0.30660274 0 0 1 0.52959,0.300489 L 12.38082,25.96691 c 0.70922,0.213276 1.412077,0.36811 2.23125,0.489746 l 2.505175,-4.168652 a 0.30660274,0.30660274 0 0 1 0.564454,0.21084 l -0.722129,4.162041 0.52295,0.06309 c 0.718066,-1.350953 1.09875,-3.009594 1.313183,-4.688282 0.233784,-1.830168 -0.02444,-3.633161 -0.448242,-4.480762 a 0.30660274,0.30660274 0 0 1 -0.005,-0.01162 c -0.02127,-0.04713 -0.04082,-0.101705 -0.05478,-0.162696 -2.99e-4,-0.0013 -0.0014,-0.002 -0.0017,-0.0033 -0.221134,-0.898321 0.112982,-1.750948 0.53457,-2.425489 0.182383,-0.291813 0.406771,-0.52738 0.625879,-0.768652 -0.584205,-0.355419 -1.257861,-0.682637 -2.116699,-0.992773 -0.859876,-0.310511 -1.688348,-0.458465 -2.397265,-0.499707 z"
     id="path6014"
     style="opacity:0.47843137;fill:none;stroke:url(#linearGradient5973);stroke-width:1;stroke-linecap:butt;stroke-linejoin:miter;stroke-opacity:1;stroke-miterlimit:7.19999981;stroke-dasharray:none"
     inkscape:connector-curvature="0" />
  <path
     d="m 13.148958,26.802552 c 1.233954,-3.259394 3.624353,-5.705735 4.542918,-9.030067 0.02921,2.075175 0.141508,5.782111 -1.072084,9.472775 -0.181201,0.001 -0.09856,-0.06279 -0.266266,-0.06718 l 0.453783,-3.243894 -1.859509,3.147485 c -1.241458,-0.08858 -0.733613,0.01847 -1.798842,-0.27912 z"
     id="path5977"
     style="opacity:0.24705882;fill:url(#linearGradient6005);fill-opacity:1;fill-rule:evenodd;stroke:none;stroke-width:1;stroke-miterlimit:7.19999981;stroke-dasharray:none"
     inkscape:connector-curvature="0" />
  <path
     d="m 14.301738,15.248471 c -0.709464,0.349282 -1.168585,0.865458 -1.690427,1.33982 0.695009,-0.401564 1.348092,-0.821096 2.266425,-1.126951 z"
     id="path5995"
     style="opacity:0.48235294;fill:#c4a000;fill-rule:evenodd;stroke:none;stroke-width:1;stroke-miterlimit:7.19999981;stroke-dasharray:none"
     inkscape:connector-curvature="0" />
  <path
     d="m 15.438262,15.503813 -0.575996,1.126951 1.68907,-0.900008 z"
     id="path5997"
     style="opacity:0.48235294;fill:#c4a000;fill-rule:evenodd;stroke:none;stroke-width:1;stroke-miterlimit:7.19999981;stroke-dasharray:none"
     inkscape:connector-curvature="0" />
  <path
     d="m 15.399223,12.614011 -0.507276,0.967313 0.887245,0.284513 z"
     id="path6007"
     style="opacity:0.48235294;fill:#c4a000;fill-rule:evenodd;stroke:none;stroke-width:1;stroke-miterlimit:7.19999981;stroke-dasharray:none"
     inkscape:connector-curvature="0" />
  <path
     d="m 19.356511,13.704261 -1.394141,1.040087 0.887246,0.284514 z"
     id="path6009"
     style="opacity:0.48235294;fill:#c4a000;fill-rule:evenodd;stroke:none;stroke-width:1;stroke-miterlimit:7.19999981;stroke-dasharray:none"
     inkscape:connector-curvature="0" />
  <path
     d="m 17.140658,12.601072 -0.857883,1.430615 0.887245,0.284514 -0.02937,-1.715129 z"
     id="path6011"
     style="opacity:0.48235294;fill:#c4a000;fill-rule:evenodd;stroke:none;stroke-width:1;stroke-miterlimit:7.19999981;stroke-dasharray:none"
     inkscape:connector-curvature="0" />
  <path
     d="m 13.148378,14.916548 c -0.321175,-1.680442 5.288607,1.219978 6.254199,1.696809 -0.0037,0.611471 0,1.133333 -0.553531,1.133333 -1.454938,-0.789355 -3.70331,-2.042915 -5.700668,-2.830142 z"
     id="path6013"
     style="opacity:0.2;fill:#000000;fill-opacity:1;fill-rule:evenodd;stroke:none;stroke-width:1;stroke-miterlimit:7.19999981;stroke-dasharray:none"
     inkscape:connector-curvature="0" />
  <path
     d="m 12.968409,14.619218 c -0.276766,-0.566666 0,-1.133333 0.553531,-1.133333 2.261816,0.552736 4.150762,1.250198 6.088841,2.266667 0.276765,0.566666 0,1.133333 -0.553532,1.133333 -2.002567,-1.056505 -3.891135,-1.742394 -6.08884,-2.266667 z"
     id="path5373"
     style="fill:url(#linearGradient5980-761);fill-opacity:1;fill-rule:evenodd;stroke:#464646;stroke-width:1;stroke-linecap:butt;stroke-linejoin:round;stroke-opacity:1;stroke-miterlimit:7.19999981;stroke-dasharray:none"
     inkscape:connector-curvature="0" />
</svg>
