<?xml version="1.0" encoding="UTF-8" standalone="no"?>
<svg
   xmlns:dc="http://purl.org/dc/elements/1.1/"
   xmlns:cc="http://creativecommons.org/ns#"
   xmlns:rdf="http://www.w3.org/1999/02/22-rdf-syntax-ns#"
   xmlns:svg="http://www.w3.org/2000/svg"
   xmlns="http://www.w3.org/2000/svg"
   xmlns:xlink="http://www.w3.org/1999/xlink"
   xmlns:sodipodi="http://sodipodi.sourceforge.net/DTD/sodipodi-0.dtd"
   xmlns:inkscape="http://www.inkscape.org/namespaces/inkscape"
   version="1.0"
   width="32"
   height="32"
   id="svg2"
   sodipodi:docname="edit-find-replace.svg"
   inkscape:version="0.92.4 (5da689c313, 2019-01-14)">
  <sodipodi:namedview
     pagecolor="#ffffff"
     bordercolor="#666666"
     borderopacity="1"
     objecttolerance="10"
     gridtolerance="10"
     guidetolerance="10"
     inkscape:pageopacity="0"
     inkscape:pageshadow="2"
     inkscape:window-width="2880"
     inkscape:window-height="1706"
     id="namedview112"
     showgrid="false"
     inkscape:zoom="27.812867"
     inkscape:cx="11.616945"
     inkscape:cy="11.085276"
     inkscape:window-x="-11"
     inkscape:window-y="-11"
     inkscape:window-maximized="1"
     inkscape:current-layer="svg2" />
  <defs
     id="defs4">
    <linearGradient
       id="linearGradient8838">
      <stop
         id="stop8840"
         style="stop-color:#000000;stop-opacity:1"
         offset="0" />
      <stop
         id="stop8842"
         style="stop-color:#000000;stop-opacity:0"
         offset="1" />
    </linearGradient>
    <radialGradient
       cx="62.625"
       cy="4.625"
       r="10.625"
       fx="62.625"
       fy="4.625"
       id="radialGradient2506"
       xlink:href="#linearGradient8838"
       gradientUnits="userSpaceOnUse"
       gradientTransform="matrix(1.1376308,0,0,0.30858011,-55.86438,22.240602)" />
    <linearGradient
       id="linearGradient3277-442">
      <stop
         id="stop3378"
         style="stop-color:#575757;stop-opacity:1"
         offset="0" />
      <stop
         id="stop3380"
         style="stop-color:#333333;stop-opacity:1"
         offset="1" />
    </linearGradient>
    <linearGradient
       x1="32.892574"
       y1="27.988184"
       x2="31.364458"
       y2="29.484051"
       id="linearGradient2543"
       xlink:href="#linearGradient3277-442"
       gradientUnits="userSpaceOnUse"
       gradientTransform="matrix(0.55457574,0,0,0.51073873,1.7673058,3.6344776)" />
    <linearGradient
       id="linearGradient11114-516">
      <stop
         id="stop3372"
         style="stop-color:#242424;stop-opacity:0.99215686"
         offset="0" />
      <stop
         id="stop3374"
         style="stop-color:#656565;stop-opacity:1"
         offset="1" />
    </linearGradient>
    <linearGradient
       x1="-172.65306"
       y1="99.667191"
       x2="-164.71831"
       y2="91.972626"
       id="linearGradient2541"
       xlink:href="#linearGradient11114-516"
       gradientUnits="userSpaceOnUse"
       gradientTransform="matrix(0.2158633,0,0,0.19880022,57.439348,0.54676899)" />
    <linearGradient
       id="linearGradient3294">
      <stop
         id="stop3296"
         style="stop-color:#ffffff;stop-opacity:0.19520548"
         offset="0" />
      <stop
         id="stop3298"
         style="stop-color:#ffffff;stop-opacity:0"
         offset="1" />
    </linearGradient>
    <linearGradient
       x1="212.04402"
       y1="123.74026"
       x2="210.58083"
       y2="74.261711"
       id="linearGradient2538"
       xlink:href="#linearGradient3294"
       gradientUnits="userSpaceOnUse"
       gradientTransform="matrix(0.2158633,0,0,0.19880022,-25.683955,2.4679846)" />
    <linearGradient
       id="linearGradient4454-600">
      <stop
         id="stop3408"
         style="stop-color:#ffffff;stop-opacity:0.64726025"
         offset="0" />
      <stop
         id="stop3410"
         style="stop-color:#ffffff;stop-opacity:0.19520548"
         offset="1" />
    </linearGradient>
    <radialGradient
       cx="18.240929"
       cy="21.817987"
       r="8.3085051"
       fx="18.240929"
       fy="21.817987"
       id="radialGradient2514"
       xlink:href="#linearGradient4454-600"
       gradientUnits="userSpaceOnUse"
       gradientTransform="matrix(0.77686859,0,0,0.75878947,-1.3900816,-3.4314583)" />
    <linearGradient
       id="linearGradient4467-402">
      <stop
         id="stop3390"
         style="stop-color:#ffffff;stop-opacity:1"
         offset="0" />
      <stop
         id="stop3392"
         style="stop-color:#ffffff;stop-opacity:0.24761905"
         offset="1" />
    </linearGradient>
    <radialGradient
       cx="15.414371"
       cy="13.078408"
       r="6.65625"
       fx="15.414371"
       fy="13.078408"
       id="radialGradient2533"
       xlink:href="#linearGradient4467-402"
       gradientUnits="userSpaceOnUse"
       gradientTransform="matrix(1.6023103,0,0,1.2464914,-14.696963,-9.4148925)" />
    <linearGradient
       id="linearGradient11104-770">
      <stop
         id="stop3402"
         style="stop-color:#333333;stop-opacity:1"
         offset="0" />
      <stop
         id="stop3404"
         style="stop-color:#333333;stop-opacity:0.6122449"
         offset="1" />
    </linearGradient>
    <linearGradient
       x1="41.541653"
       y1="68.291702"
       x2="41.485142"
       y2="4.5362983"
       id="linearGradient2530"
       xlink:href="#linearGradient11104-770"
       gradientUnits="userSpaceOnUse"
       gradientTransform="matrix(0.21066913,0,0,0.21089466,2.8081565,3.257215)" />
    <linearGradient
       id="linearGradient2300-465">
      <stop
         id="stop3396"
         style="stop-color:#343434;stop-opacity:0.97647059"
         offset="0" />
      <stop
         id="stop3398"
         style="stop-color:#929292;stop-opacity:1"
         offset="1" />
    </linearGradient>
    <linearGradient
       x1="173.09576"
       y1="75.31868"
       x2="173.09576"
       y2="11.949074"
       id="linearGradient2528"
       xlink:href="#linearGradient2300-465"
       gradientUnits="userSpaceOnUse"
       gradientTransform="matrix(0.21066913,0,0,0.21089466,-24.517982,1.6700419)" />
    <linearGradient
       id="linearGradient6209-717">
      <stop
         id="stop3366"
         style="stop-color:#979797;stop-opacity:1"
         offset="0" />
      <stop
         id="stop3368"
         style="stop-color:#000000;stop-opacity:0.34117648"
         offset="1" />
    </linearGradient>
    <linearGradient
       x1="173.09576"
       y1="75.31868"
       x2="173.09576"
       y2="11.949074"
       id="linearGradient2525"
       xlink:href="#linearGradient6209-717"
       gradientUnits="userSpaceOnUse"
       gradientTransform="matrix(0.20063087,0,0,0.20084557,-22.724879,1.9819323)" />
    <linearGradient
       id="linearGradient3191-577">
      <stop
         id="stop2613"
         style="stop-color:#dbce48;stop-opacity:1"
         offset="0" />
      <stop
         id="stop2615"
         style="stop-color:#c5b625;stop-opacity:1"
         offset="1" />
    </linearGradient>
    <linearGradient
       x1="5.5178981"
       y1="37.371799"
       x2="9.5220556"
       y2="41.391716"
       id="linearGradient8655"
       xlink:href="#linearGradient3191-577"
       gradientUnits="userSpaceOnUse"
       gradientTransform="matrix(0.3763801,0.03615261,0.03669995,0.374874,-2.2182805,-1.1331002)" />
    <linearGradient
       id="linearGradient3290-678">
      <stop
         id="stop2607"
         style="stop-color:#ece5a5;stop-opacity:1"
         offset="0" />
      <stop
         id="stop2609"
         style="stop-color:#fcfbf2;stop-opacity:1"
         offset="1" />
    </linearGradient>
    <linearGradient
       x1="9"
       y1="29.056757"
       x2="9"
       y2="26.02973"
       id="linearGradient8653"
       xlink:href="#linearGradient3290-678"
       gradientUnits="userSpaceOnUse"
       gradientTransform="matrix(0.4040235,-0.4056919,0.6073752,0.602268,-17.636692,0.462492)" />
    <linearGradient
       id="linearGradient3223-699">
      <stop
         id="stop2599"
         style="stop-color:#b1b1b1;stop-opacity:1"
         offset="0" />
      <stop
         id="stop2601"
         style="stop-color:#ffffff;stop-opacity:1"
         offset="0.5" />
      <stop
         id="stop2603"
         style="stop-color:#8f8f8f;stop-opacity:1"
         offset="1" />
    </linearGradient>
    <linearGradient
       x1="30.037716"
       y1="24.989594"
       x2="30.037716"
       y2="30.000141"
       id="linearGradient8651"
       xlink:href="#linearGradient3223-699"
       gradientUnits="userSpaceOnUse"
       gradientTransform="matrix(0.4040235,-0.4056919,0.6073752,0.6022679,-17.177369,-2.1969969e-4)" />
    <linearGradient
       id="linearGradient3240-907">
      <stop
         id="stop2591"
         style="stop-color:#565656;stop-opacity:1"
         offset="0" />
      <stop
         id="stop2593"
         style="stop-color:#9a9a9a;stop-opacity:1"
         offset="0.5" />
      <stop
         id="stop2595"
         style="stop-color:#545454;stop-opacity:1"
         offset="1" />
    </linearGradient>
    <linearGradient
       x1="30.037716"
       y1="24.989594"
       x2="30.037716"
       y2="30.000141"
       id="linearGradient8649"
       xlink:href="#linearGradient3240-907"
       gradientUnits="userSpaceOnUse"
       gradientTransform="matrix(0.4040235,-0.4056919,0.6073752,0.6022679,-17.061661,-0.1164056)" />
    <linearGradient
       id="linearGradient3223-768">
      <stop
         id="stop2583"
         style="stop-color:#b1b1b1;stop-opacity:1"
         offset="0" />
      <stop
         id="stop2585"
         style="stop-color:#ffffff;stop-opacity:1"
         offset="0.5" />
      <stop
         id="stop2587"
         style="stop-color:#8f8f8f;stop-opacity:1"
         offset="1" />
    </linearGradient>
    <linearGradient
       x1="30.037716"
       y1="24.989594"
       x2="30.037716"
       y2="30.000141"
       id="linearGradient8647"
       xlink:href="#linearGradient3223-768"
       gradientUnits="userSpaceOnUse"
       gradientTransform="matrix(0.4040235,-0.4056919,0.6073752,0.6022679,-17.581392,0.4054707)" />
    <linearGradient
       id="linearGradient3240-686">
      <stop
         id="stop2575"
         style="stop-color:#565656;stop-opacity:1"
         offset="0" />
      <stop
         id="stop2577"
         style="stop-color:#9a9a9a;stop-opacity:1"
         offset="0.5" />
      <stop
         id="stop2579"
         style="stop-color:#545454;stop-opacity:1"
         offset="1" />
    </linearGradient>
    <linearGradient
       x1="30.037716"
       y1="24.989594"
       x2="30.037716"
       y2="30.000141"
       id="linearGradient8645"
       xlink:href="#linearGradient3240-686"
       gradientUnits="userSpaceOnUse"
       gradientTransform="matrix(0.4040235,-0.4056919,0.6073752,0.6022679,-17.465684,0.2892868)" />
    <linearGradient
       id="linearGradient3223-789">
      <stop
         id="stop2567"
         style="stop-color:#b1b1b1;stop-opacity:1"
         offset="0" />
      <stop
         id="stop2569"
         style="stop-color:#ffffff;stop-opacity:1"
         offset="0.5" />
      <stop
         id="stop2571"
         style="stop-color:#8f8f8f;stop-opacity:1"
         offset="1" />
    </linearGradient>
    <linearGradient
       x1="30.037716"
       y1="24.989594"
       x2="30.037716"
       y2="30.000141"
       id="linearGradient8643"
       xlink:href="#linearGradient3223-789"
       gradientUnits="userSpaceOnUse"
       gradientTransform="matrix(0.4040235,-0.4056919,0.6073752,0.6022679,-17.983472,0.8092126)" />
    <linearGradient
       id="linearGradient3240-279">
      <stop
         id="stop2559"
         style="stop-color:#565656;stop-opacity:1"
         offset="0" />
      <stop
         id="stop2561"
         style="stop-color:#9a9a9a;stop-opacity:1"
         offset="0.5" />
      <stop
         id="stop2563"
         style="stop-color:#545454;stop-opacity:1"
         offset="1" />
    </linearGradient>
    <linearGradient
       x1="30.037716"
       y1="24.989594"
       x2="30.037716"
       y2="30.000141"
       id="linearGradient8641"
       xlink:href="#linearGradient3240-279"
       gradientUnits="userSpaceOnUse"
       gradientTransform="matrix(0.4040235,-0.4056919,0.6073752,0.6022679,-17.867764,0.6930272)" />
    <linearGradient
       id="linearGradient3155-40">
      <stop
         id="stop2541"
         style="stop-color:#181818;stop-opacity:1"
         offset="0" />
      <stop
         id="stop2543"
         style="stop-color:#dbdbdb;stop-opacity:1"
         offset="0.13482948" />
      <stop
         id="stop2545"
         style="stop-color:#a4a4a4;stop-opacity:1"
         offset="0.20224422" />
      <stop
         id="stop2547"
         style="stop-color:#ffffff;stop-opacity:1"
         offset="0.26965895" />
      <stop
         id="stop2549"
         style="stop-color:#8d8d8d;stop-opacity:1"
         offset="0.44650277" />
      <stop
         id="stop2551"
         style="stop-color:#959595;stop-opacity:1"
         offset="0.57114136" />
      <stop
         id="stop2553"
         style="stop-color:#cecece;stop-opacity:1"
         offset="0.72038066" />
      <stop
         id="stop2555"
         style="stop-color:#181818;stop-opacity:1"
         offset="1" />
    </linearGradient>
    <linearGradient
       x1="23.575972"
       y1="25.356892"
       x2="23.575972"
       y2="31.210939"
       id="linearGradient8639"
       xlink:href="#linearGradient3155-40"
       gradientUnits="userSpaceOnUse"
       gradientTransform="matrix(0.415777,-0.4174938,0.518983,0.5146192,-15.747227,2.6503673)"
       spreadMethod="pad" />
  </defs>
  <metadata
     id="metadata7">
    <rdf:RDF>
      <cc:Work
         rdf:about="">
        <dc:format>image/svg+xml</dc:format>
        <dc:type
           rdf:resource="http://purl.org/dc/dcmitype/StillImage" />
        <dc:title />
      </cc:Work>
    </rdf:RDF>
  </metadata>
  <path
     inkscape:connector-curvature="0"
     style="display:inline;overflow:visible;visibility:visible;opacity:0.2;fill:url(#radialGradient2506);fill-opacity:1;fill-rule:evenodd;stroke:none;stroke-width:1;marker:none;stroke-miterlimit:4;stroke-dasharray:none"
     id="path8836"
     d="m 27.467076,23.667786 a 12.087327,3.2786683 0 1 1 -24.1746544,0 12.087327,3.2786683 0 1 1 24.1746544,0 z" />
  <path
     sodipodi:nodetypes="ccccc"
     inkscape:connector-curvature="0"
     style="display:inline;fill:url(#linearGradient2541);fill-opacity:1;fill-rule:evenodd;stroke:url(#linearGradient2543);stroke-width:1;stroke-linecap:round;stroke-linejoin:round;stroke-miterlimit:4;stroke-dasharray:none;stroke-opacity:1"
     id="path11112"
     d="m 17.303004,15.344121 9.651835,8.272834 -1.262244,1.504687 -9.692515,-8.781516 z" />
  <path
     inkscape:connector-curvature="0"
     style="display:inline;fill:url(#linearGradient2538);fill-opacity:1;fill-rule:evenodd;stroke:none;stroke-width:1;stroke-miterlimit:4;stroke-dasharray:none"
     id="path11122"
     d="M 25.633232,24.746089 17.892651,15.857195 27.2578,23.425957 Z" />
  <path
     sodipodi:nodetypes="sss"
     inkscape:connector-curvature="0"
     style="display:inline;fill:#3e3e3e;fill-opacity:1;stroke:none;stroke-width:1;stroke-miterlimit:4;stroke-dasharray:none"
     id="path13082"
     d="m 27.404919,23.39511 c 0.921522,0.558707 -1.054387,2.741516 -1.975909,2.182809 -0.921522,-0.558707 1.054386,-2.741516 1.975909,-2.182809 z" />
  <path
     inkscape:connector-curvature="0"
     style="display:inline;visibility:visible;opacity:0.4;fill:url(#radialGradient2514);fill-opacity:1;fill-rule:evenodd;stroke:none;stroke-width:1;marker:none;stroke-miterlimit:4;stroke-dasharray:none"
     id="path4452"
     d="m 18.729095,10.589675 a 6.4546166,6.3044062 0 1 1 -12.9092332,0 6.4546166,6.3044062 0 1 1 12.9092332,0 z" />
  <path
     inkscape:connector-curvature="0"
     style="display:inline;overflow:visible;visibility:visible;opacity:0.6;fill:url(#radialGradient2533);fill-opacity:1;fill-rule:evenodd;stroke:none;stroke-width:1;marker:none;stroke-miterlimit:4;stroke-dasharray:none"
     id="path4462"
     d="m 12.008591,5.1624586 c -3.2180068,0 -5.8238587,2.3339954 -5.8238587,5.2162844 0,0.832417 0.072154,1.692208 0.4595202,2.390771 0.7739031,0.255494 1.78358,0.335436 2.6561248,0.335436 3.8133167,0 7.0932237,-2.831645 7.3285517,-6.1942994 -1.069642,-1.1321576 -2.836045,-1.748192 -4.620338,-1.748192 z" />
  <path
     inkscape:connector-curvature="0"
     style="display:inline;fill:url(#linearGradient2528);fill-opacity:1;stroke:url(#linearGradient2530);stroke-width:1;stroke-linecap:round;stroke-linejoin:round;stroke-miterlimit:4;stroke-dasharray:none;stroke-opacity:1"
     id="path2298"
     d="m 12.132581,4.2941209 c -3.9640631,0 -7.1825032,2.9709142 -7.182501,6.6300001 0,3.659087 3.2184379,6.63 7.182501,6.63 3.964059,0 7.182499,-2.970913 7.182499,-6.63 0,-3.6590859 -3.218438,-6.6300001 -7.182499,-6.6300001 z m 0.08558,0.4349705 c 3.547862,0 6.431992,2.6565058 6.431992,5.9314116 0,3.274905 -2.88413,5.931413 -6.431992,5.931413 -3.5478615,0 -6.4254075,-2.656507 -6.4254075,-5.931413 0,-3.2749058 2.877546,-5.9314116 6.4254075,-5.9314116 z" />
  <path
     inkscape:connector-curvature="0"
     style="display:inline;fill:url(#linearGradient2525);fill-opacity:1;stroke:none;stroke-width:1;stroke-miterlimit:4;stroke-dasharray:none"
     id="path4267"
     d="m 12.178666,4.4852456 c -3.7751765,0 -6.8335809,2.8289257 -6.8335809,6.3136594 0,3.484732 3.0584023,6.313657 6.8335809,6.313657 3.775176,0 6.840163,-2.828926 6.840163,-6.313657 0,-3.4847337 -3.064989,-6.3136594 -6.840163,-6.3136594 z m 0.0395,0.2438469 c 3.54786,0 6.150632,2.6565069 6.150632,5.9314115 0,3.274905 -2.602772,5.649749 -6.150632,5.649749 -3.5478621,0 -6.1909404,-2.374842 -6.1909404,-5.649749 0,-3.2749046 2.6430783,-5.9314115 6.1909404,-5.9314115 z" />
  <g
     id="g2712"
     transform="matrix(1.105,0,0,1.105,11.027494,10.331744)"
     style="stroke-width:0.45248869;stroke-miterlimit:4;stroke-dasharray:none">
    <path
       inkscape:connector-curvature="0"
       style="opacity:0.15;fill:#0c0c0c;fill-opacity:1;fill-rule:evenodd;stroke:none;stroke-width:0.45248869;stroke-miterlimit:4;stroke-dasharray:none"
       id="path2422"
       d="m 13.219868,12.085402 c -0.135595,-0.02111 -0.239457,-0.01225 -0.307686,0.003 l -9.0874927,2.017202 -1.6724992,0.372194 -0.051633,0.008 -1.9387153,1.432663 4.9498341,-0.07402 0.040722,-0.0095 1.6834123,-0.370698 9.0845618,-2.03263 c 0.272911,-0.06092 -0.177299,-0.409927 -1.009983,-0.78431 -0.624515,-0.280788 -1.283742,-0.498541 -1.690521,-0.561884 z" />
    <g
       id="g8626"
       transform="matrix(1.030012,0,0,1.0325071,-0.016773,-0.5215254)"
       style="stroke-width:0.43877317;stroke-miterlimit:4;stroke-dasharray:none">
      <path
         inkscape:connector-curvature="0"
         style="fill:url(#linearGradient8639);fill-opacity:1;stroke:#0c0c0c;stroke-width:0.43877317;stroke-linecap:butt;stroke-linejoin:round;stroke-miterlimit:4;stroke-dasharray:none;stroke-dashoffset:0;stroke-opacity:1"
         id="rect2383"
         d="m 2.0488085,11.037368 c 0.2865424,-0.207707 1.1479509,0.256388 1.9603385,1.061945 0.8104458,0.803629 1.2601996,1.641331 1.0575577,1.930575 -7.708e-4,0.0011 0.01977,0.01774 0.01898,0.01882 L 15.224149,3.8683779 C 15.481557,3.6099071 15.011041,2.7247557 14.172862,1.893626 13.334685,1.0624962 12.444681,0.59856571 12.187272,0.85703737 Z" />
      <path
         inkscape:connector-curvature="0"
         style="opacity:0.8;fill:#ffb6ed;fill-opacity:1;stroke:#e28ccd;stroke-width:0.43877317;stroke-linecap:butt;stroke-linejoin:round;stroke-miterlimit:4;stroke-dasharray:none;stroke-dashoffset:0;stroke-opacity:1"
         id="rect3175"
         d="m 10.565423,2.4840909 c 0.286542,-0.2077065 1.147951,0.2563879 1.960338,1.0619443 0.810445,0.8036291 1.260199,1.6413295 1.057557,1.9305744 -7.69e-4,0.0011 0.01977,0.017738 0.01898,0.018821 L 15.154234,3.9383089 C 15.562715,3.5297289 15.124956,2.8454879 14.172862,1.893626 13.360476,1.0880699 12.499066,0.6239749 12.212525,0.83168148 l -0.02525,0.0253559 -1.621849,1.62705352 z" />
      <path
         inkscape:connector-curvature="0"
         style="opacity:0.6;fill:#0c0c0c;fill-opacity:1;stroke:none;stroke-width:0.43877317;stroke-miterlimit:4;stroke-dasharray:none"
         id="path3208"
         d="m 2.0488079,11.037368 c 0.286543,-0.207708 1.1479512,0.256388 1.960339,1.061943 0.8104449,0.80363 1.2601992,1.641332 1.0575579,1.930577 -7.714e-4,0.0011 0.01977,0.01774 0.01898,0.01882 l 6.9820302,-7.0108637 0.02525,-0.025356 c 7.9e-4,-0.00108 -0.01975,-0.01772 -0.01898,-0.01882 C 12.276628,6.7044221 11.826873,5.8667226 11.01643,5.0630931 10.204041,4.2575368 9.3426319,3.7934425 9.0560897,4.0011493 l -0.025251,0.025355 z" />
      <path
         inkscape:connector-curvature="0"
         style="fill:url(#linearGradient8641);fill-opacity:1;stroke:none;stroke-width:0.43877317;stroke-miterlimit:4;stroke-dasharray:none"
         id="path3233"
         d="m 9.1785348,3.8767048 c 0.2865413,-0.2077068 1.1479522,0.2563879 1.9603392,1.0619443 0.810445,0.8036291 1.2602,1.6413294 1.057556,1.9305753 -7.71e-4,0.0011 0.01977,0.017736 0.01898,0.01882 l 0.126256,-0.1267795 c 7.9e-4,-0.00108 -0.01975,-0.01772 -0.01898,-0.01882 C 12.525331,6.4531992 12.075576,5.6154986 11.26513,4.8118704 10.452743,4.0063135 9.5913335,3.542219 9.3047918,3.7499256 Z" />
      <path
         inkscape:connector-curvature="0"
         style="fill:url(#linearGradient8643);fill-opacity:1;stroke:none;stroke-width:0.43877317;stroke-miterlimit:4;stroke-dasharray:none"
         id="path3216"
         d="m 9.0628273,3.9928895 c 0.2865436,-0.2077068 1.1479527,0.2563878 1.9603397,1.061944 0.810444,0.8036294 1.2602,1.6413292 1.057556,1.9305742 -7.71e-4,0.0011 0.01977,0.017738 0.01898,0.018822 L 12.22596,6.8774498 c 7.9e-4,-0.00108 -0.01975,-0.017721 -0.01898,-0.018821 C 12.409623,6.569384 11.95987,5.7316836 11.149423,4.9280545 10.337036,4.1224982 9.4756273,3.6584033 9.1890844,3.8661101 Z" />
      <path
         inkscape:connector-curvature="0"
         style="fill:url(#linearGradient8645);fill-opacity:1;stroke:none;stroke-width:0.43877317;stroke-miterlimit:4;stroke-dasharray:none"
         id="path3248"
         d="m 9.5806143,3.4729643 c 0.2865426,-0.2077069 1.1479517,0.2563872 1.9603387,1.0619442 0.810446,0.803629 1.2602,1.6413292 1.057558,1.9305747 -7.73e-4,0.0011 0.01977,0.017737 0.01898,0.01882 l 0.126258,-0.1267784 c 7.91e-4,-0.00108 -0.01975,-0.017721 -0.01898,-0.01882 C 12.927411,6.0494594 12.477656,5.2117588 11.66721,4.4081298 10.854824,3.6025731 9.9934151,3.1384786 9.7068717,3.3461854 Z" />
      <path
         inkscape:connector-curvature="0"
         style="fill:url(#linearGradient8647);fill-opacity:1;stroke:none;stroke-width:0.43877317;stroke-miterlimit:4;stroke-dasharray:none"
         id="path3250"
         d="m 9.4649071,3.5891488 c 0.2865435,-0.207707 1.1479529,0.2563877 1.9603379,1.061944 0.810447,0.8036298 1.260201,1.6413294 1.057558,1.9305748 -7.69e-4,0.0011 0.01977,0.017737 0.01898,0.018821 l 0.126257,-0.12678 c 7.9e-4,-0.00108 -0.01975,-0.01772 -0.01898,-0.01882 C 12.811705,6.1656438 12.361949,5.3279425 11.551504,4.5243147 10.739118,3.718758 9.877708,3.254663 9.5911645,3.46237 Z" />
      <path
         inkscape:connector-curvature="0"
         style="fill:url(#linearGradient8649);fill-opacity:1;stroke:none;stroke-width:0.43877317;stroke-miterlimit:4;stroke-dasharray:none"
         id="path3256"
         d="M 9.9846388,3.0672723 C 10.27118,2.8595657 11.13259,3.3236601 11.944976,4.1292168 c 0.810446,0.8036288 1.260201,1.641329 1.057558,1.9305741 -7.7e-4,0.0011 0.01977,0.017738 0.01898,0.018821 L 13.14777,5.9518328 c 7.92e-4,-0.00108 -0.01975,-0.017721 -0.01898,-0.018821 C 13.331434,5.6437674 12.881679,4.8060668 12.071233,4.0024374 11.258848,3.1968815 10.397438,2.7327869 10.110895,2.9404937 Z" />
      <path
         inkscape:connector-curvature="0"
         style="fill:url(#linearGradient8651);fill-opacity:1;stroke:none;stroke-width:0.43877317;stroke-miterlimit:4;stroke-dasharray:none"
         id="path3258"
         d="m 9.8689318,3.1834569 c 0.2865412,-0.2077072 1.1479512,0.2563879 1.9603392,1.0619447 0.810444,0.8036283 1.260198,1.6413291 1.057556,1.9305739 -7.71e-4,0.0011 0.01977,0.017737 0.01898,0.018821 l 0.126258,-0.1267782 c 7.89e-4,-0.00108 -0.01975,-0.017722 -0.01898,-0.018821 C 13.215727,5.7599515 12.765972,4.9222512 11.955527,4.1186224 11.143141,3.313066 10.281731,2.848971 9.9951884,3.0566783 Z" />
      <path
         inkscape:connector-curvature="0"
         style="fill:url(#linearGradient8653);fill-opacity:1;fill-rule:evenodd;stroke:url(#linearGradient8655);stroke-width:0.43877317;stroke-linecap:butt;stroke-linejoin:miter;stroke-miterlimit:4;stroke-dasharray:none;stroke-opacity:1"
         id="path3270"
         d="m 0.25980529,15.79419 4.77185621,-1.725488 0.039308,-0.03926 C 5.2736124,13.740202 4.8185731,12.902156 4.0081274,12.098526 3.1957395,11.29297 2.335449,10.831246 2.0489062,11.038953 Z" />
      <path
         inkscape:connector-curvature="0"
         style="fill:#0c0c0c;fill-opacity:1;fill-rule:evenodd;stroke:#0c0c0c;stroke-width:0.43877317;stroke-linecap:butt;stroke-linejoin:miter;stroke-miterlimit:4;stroke-dasharray:none;stroke-opacity:1"
         id="path3281"
         d="M 0.7444326,14.506276 0.25922075,15.788967 1.560593,15.315574 C 1.446907,15.182439 1.3413094,15.047739 1.2062351,14.913801 1.0507282,14.759602 0.89915498,14.633134 0.7444326,14.506276 Z" />
    </g>
  </g>
</svg>
