<?xml version="1.0" encoding="UTF-8" standalone="no"?>
<svg
   xmlns:dc="http://purl.org/dc/elements/1.1/"
   xmlns:cc="http://creativecommons.org/ns#"
   xmlns:rdf="http://www.w3.org/1999/02/22-rdf-syntax-ns#"
   xmlns:svg="http://www.w3.org/2000/svg"
   xmlns="http://www.w3.org/2000/svg"
   xmlns:xlink="http://www.w3.org/1999/xlink"
   xmlns:sodipodi="http://sodipodi.sourceforge.net/DTD/sodipodi-0.dtd"
   xmlns:inkscape="http://www.inkscape.org/namespaces/inkscape"
   version="1.1"
   width="32"
   height="32"
   id="svg3658"
   sodipodi:docname="error.svg"
   inkscape:version="0.92.4 (5da689c313, 2019-01-14)">
  <sodipodi:namedview
     pagecolor="#ffffff"
     bordercolor="#666666"
     borderopacity="1"
     objecttolerance="10"
     gridtolerance="10"
     guidetolerance="10"
     inkscape:pageopacity="0"
     inkscape:pageshadow="2"
     inkscape:window-width="2880"
     inkscape:window-height="1706"
     id="namedview27"
     showgrid="false"
     inkscape:zoom="7.375"
     inkscape:cx="-1.4237288"
     inkscape:cy="16"
     inkscape:window-x="-11"
     inkscape:window-y="-11"
     inkscape:window-maximized="1"
     inkscape:current-layer="svg3658" />
  <defs
     id="defs3660">
    <linearGradient
       id="linearGradient4011">
      <stop
         id="stop4013"
         style="stop-color:#ffffff;stop-opacity:1"
         offset="0" />
      <stop
         id="stop4015"
         style="stop-color:#ffffff;stop-opacity:0.23529412"
         offset="0.507761" />
      <stop
         id="stop4017"
         style="stop-color:#ffffff;stop-opacity:0.15686275"
         offset="0.83456558" />
      <stop
         id="stop4019"
         style="stop-color:#ffffff;stop-opacity:0.39215687"
         offset="1" />
    </linearGradient>
    <linearGradient
       id="linearGradient3820-7-2-2">
      <stop
         id="stop3822-2-6-36"
         style="stop-color:#3d3d3d;stop-opacity:1"
         offset="0" />
      <stop
         id="stop3864-8-7-6"
         style="stop-color:#686868;stop-opacity:0.49803922"
         offset="0.5" />
      <stop
         id="stop3824-1-2-4"
         style="stop-color:#686868;stop-opacity:0"
         offset="1" />
    </linearGradient>
    <radialGradient
       xlink:href="#linearGradient3820-7-2-2"
       id="radialGradient4048"
       gradientUnits="userSpaceOnUse"
       gradientTransform="matrix(0.1489586,0,0,0.04739593,1.2297114,17.876271)"
       cx="99.157013"
       cy="186.17059"
       fx="99.157013"
       fy="186.17059"
       r="62.769119" />
    <linearGradient
       gradientTransform="matrix(0.62027056,0,0,0.62027056,-28.494196,0.34682062)"
       gradientUnits="userSpaceOnUse"
       xlink:href="#linearGradient4011"
       id="linearGradient12398-3"
       y2="44.340794"
       x2="71.204407"
       y1="6.2375584"
       x1="71.204407" />
    <linearGradient
       gradientTransform="matrix(0.94466952,0,0,0.70623123,-1910.0101,-2261.2097)"
       gradientUnits="userSpaceOnUse"
       xlink:href="#linearGradient947"
       id="linearGradient11527-6-5"
       y2="3241.9966"
       x2="2035.1652"
       y1="3208.0737"
       x1="2035.1652" />
    <linearGradient
       id="linearGradient947">
      <stop
         id="stop943"
         style="stop-color:#ed5353;stop-opacity:1"
         offset="0" />
      <stop
         id="stop945"
         style="stop-color:#c6262e;stop-opacity:1"
         offset="1" />
    </linearGradient>
  </defs>
  <metadata
     id="metadata3663">
    <rdf:RDF>
      <cc:Work
         rdf:about="">
        <dc:format>image/svg+xml</dc:format>
        <dc:type
           rdf:resource="http://purl.org/dc/dcmitype/StillImage" />
        <dc:title />
      </cc:Work>
    </rdf:RDF>
  </metadata>
  <path
     d="m 25.350001,26.699997 a 9.35,2.9749999 0 1 1 -18.6999999,0 9.35,2.9749999 0 1 1 18.6999999,0 z"
     id="path3818-0-2"
     style="fill:url(#radialGradient4048);fill-opacity:1;stroke:none;stroke-width:1;stroke-miterlimit:4;stroke-dasharray:none"
     inkscape:connector-curvature="0" />
  <path
     style="color:#000000;display:inline;overflow:visible;visibility:visible;opacity:0.98999999;fill:url(#linearGradient11527-6-5);fill-opacity:1;fill-rule:nonzero;stroke:none;stroke-width:1;marker:none;enable-background:accumulate;stroke-miterlimit:4;stroke-dasharray:none"
     id="path2555-7-8-5-0-9"
     d="m 15.999999,3.7501632 c -6.8005124,0 -12.3249999,5.5244878 -12.3249999,12.3250008 0,6.800512 5.5244875,12.325 12.3249999,12.325 6.800514,0 12.325013,-5.524488 12.325001,-12.325 0,-6.800513 -5.524487,-12.3250008 -12.325001,-12.3250008 z"
     inkscape:connector-curvature="0" />
  <path
     style="color:#000000;display:inline;overflow:visible;visibility:visible;opacity:0.4;fill:none;stroke:url(#linearGradient12398-3);stroke-width:1;stroke-linecap:round;stroke-linejoin:round;stroke-miterlimit:4;stroke-dasharray:none;stroke-dashoffset:0;stroke-opacity:1;marker:none;enable-background:accumulate"
     id="path8655-6-0-9-5-0"
     d="m 27.475,16.074753 c 0,6.337682 -5.137916,11.475416 -11.474861,11.475416 -6.3375257,0 -11.4751387,-5.137795 -11.4751387,-11.475416 0,-6.3373797 5.137613,-11.4745947 11.4751387,-11.4745947 6.336945,0 11.474861,5.1372151 11.474861,11.4745947 z"
     inkscape:connector-curvature="0" />
  <path
     style="color:#000000;display:inline;overflow:visible;visibility:visible;opacity:0.5;vector-effect:none;fill:none;fill-opacity:1;stroke:#7a0000;stroke-width:1;stroke-linecap:round;stroke-linejoin:round;stroke-miterlimit:4;stroke-dasharray:none;stroke-dashoffset:0;stroke-opacity:1;marker:none;enable-background:accumulate"
     id="path2555-4"
     d="m 16.000001,3.7516919 c -6.7996662,0 -12.3234728,5.5238046 -12.3234728,12.3234711 0,6.799667 5.5238066,12.323475 12.3234728,12.323472 6.799664,0 12.323477,-5.523805 12.323471,-12.323472 0,-6.7996665 -5.523807,-12.3234711 -12.323471,-12.3234711 z"
     inkscape:connector-curvature="0" />
  <path
     style="opacity:0.05;vector-effect:none;fill:#7a0000;fill-opacity:1;stroke:none;stroke-width:1;stroke-linecap:butt;stroke-linejoin:miter;stroke-miterlimit:4;stroke-dasharray:none;stroke-dashoffset:0;stroke-opacity:1;marker:none"
     id="path4159-3-3-6"
     d="m 16,7.5884448 c -1.398546,0 -2.55,1.1514547 -2.55,2.5500002 0,1.889191 0.574952,5.78164 1.140527,10.30625 a 0.85061642,0.85061642 0 0 0 0.843359,0.74375 H 16 16.567774 a 0.85061642,0.85061642 0 0 0 0.843359,-0.74375 C 17.976734,15.919883 18.55,12.027083 18.55,10.138445 18.55,8.7398995 17.398546,7.5884448 16,7.5884448 Z m 0,13.6000002 c -1.398546,0 -2.55,1.151454 -2.55,2.55 0,1.398546 1.151454,2.55 2.55,2.55 1.398546,0 2.55,-1.151454 2.55,-2.55 0,-1.398546 -1.151454,-2.55 -2.55,-2.55 z"
     inkscape:connector-curvature="0" />
  <path
     style="opacity:0.15;vector-effect:none;fill:#7a0000;fill-opacity:1;stroke:none;stroke-width:1;stroke-linecap:butt;stroke-linejoin:miter;stroke-miterlimit:4;stroke-dasharray:none;stroke-dashoffset:0;stroke-opacity:1;marker:none"
     d="m 16.00051,8.4379135 c -0.938884,0 -1.7,0.7611164 -1.7,1.6999995 0,1.700001 0.566667,5.666667 1.133333,10.200001 h 1.133334 c 0.566666,-4.533334 1.133333,-8.5 1.133333,-10.200001 0,-0.9388831 -0.761116,-1.6999995 -1.7,-1.6999995 z m 0,13.6000005 c -0.938884,0 -1.7,0.761116 -1.7,1.7 0,0.938883 0.761116,1.7 1.7,1.7 0.938884,0 1.7,-0.761117 1.7,-1.7 0,-0.938884 -0.761116,-1.7 -1.7,-1.7 z"
     id="path4159-3-3"
     inkscape:connector-curvature="0" />
  <path
     style="opacity:1;fill:#ffffff;fill-opacity:1;stroke:none;stroke-width:1;stroke-linejoin:round;stroke-miterlimit:4;stroke-dasharray:none;stroke-opacity:0.49803922"
     d="m 16.00051,7.5879135 c -0.938884,0 -1.7,0.7611164 -1.7,1.6999997 0,1.7000008 0.566667,5.6666668 1.133333,10.2000008 h 1.133334 c 0.566666,-4.533334 1.133333,-8.5 1.133333,-10.2000008 0,-0.9388833 -0.761116,-1.6999997 -1.7,-1.6999997 z m 0,13.6000005 c -0.938884,0 -1.7,0.761116 -1.7,1.7 0,0.938883 0.761116,1.7 1.7,1.7 0.938884,0 1.7,-0.761117 1.7,-1.7 0,-0.938884 -0.761116,-1.7 -1.7,-1.7 z"
     id="path4159-3"
     inkscape:connector-curvature="0" />
</svg>
