<?xml version="1.0" encoding="UTF-8" standalone="no"?>
<svg
   xmlns:osb="http://www.openswatchbook.org/uri/2009/osb"
   xmlns:dc="http://purl.org/dc/elements/1.1/"
   xmlns:cc="http://creativecommons.org/ns#"
   xmlns:rdf="http://www.w3.org/1999/02/22-rdf-syntax-ns#"
   xmlns:svg="http://www.w3.org/2000/svg"
   xmlns="http://www.w3.org/2000/svg"
   xmlns:xlink="http://www.w3.org/1999/xlink"
   xmlns:sodipodi="http://sodipodi.sourceforge.net/DTD/sodipodi-0.dtd"
   xmlns:inkscape="http://www.inkscape.org/namespaces/inkscape"
   version="1.0"
   width="32"
   height="32"
   id="svg3783"
   sodipodi:docname="extension.svg"
   inkscape:version="0.92.4 (5da689c313, 2019-01-14)">
  <sodipodi:namedview
     pagecolor="#ffffff"
     bordercolor="#666666"
     borderopacity="1"
     objecttolerance="10"
     gridtolerance="10"
     guidetolerance="10"
     inkscape:pageopacity="0"
     inkscape:pageshadow="2"
     inkscape:window-width="2880"
     inkscape:window-height="1706"
     id="namedview50"
     showgrid="false"
     inkscape:zoom="7.375"
     inkscape:cx="-1.4237288"
     inkscape:cy="16"
     inkscape:window-x="-11"
     inkscape:window-y="-11"
     inkscape:window-maximized="1"
     inkscape:current-layer="svg3783" />
  <metadata
     id="metadata43">
    <rdf:RDF>
      <cc:Work
         rdf:about="">
        <dc:format>image/svg+xml</dc:format>
        <dc:type
           rdf:resource="http://purl.org/dc/dcmitype/StillImage" />
        <dc:title />
      </cc:Work>
    </rdf:RDF>
  </metadata>
  <defs
     id="defs3785">
    <linearGradient
       id="linearGradient4380">
      <stop
         id="stop4383"
         style="stop-color:#ffffff;stop-opacity:1"
         offset="0" />
      <stop
         id="stop4385"
         style="stop-color:#ffffff;stop-opacity:0.23529412"
         offset="0" />
      <stop
         id="stop4387"
         style="stop-color:#ffffff;stop-opacity:0.15686275"
         offset="0.99999994" />
      <stop
         id="stop4389"
         style="stop-color:#ffffff;stop-opacity:0.39215687"
         offset="1" />
    </linearGradient>
    <linearGradient
       id="linearGradient3702">
      <stop
         id="stop3704"
         style="stop-color:#000000;stop-opacity:0"
         offset="0" />
      <stop
         id="stop3710"
         style="stop-color:#000000;stop-opacity:1"
         offset="0.5" />
      <stop
         id="stop3706"
         style="stop-color:#000000;stop-opacity:0"
         offset="1" />
    </linearGradient>
    <linearGradient
       id="linearGradient3688">
      <stop
         id="stop3690"
         style="stop-color:#000000;stop-opacity:1"
         offset="0" />
      <stop
         id="stop3692"
         style="stop-color:#000000;stop-opacity:0"
         offset="1" />
    </linearGradient>
    <radialGradient
       cx="4.9929786"
       cy="43.5"
       r="2.5"
       fx="4.9929786"
       fy="43.5"
       id="radialGradient2470"
       xlink:href="#linearGradient3688"
       gradientUnits="userSpaceOnUse"
       gradientTransform="matrix(2.003784,0,0,1.4,27.98813,-17.4)" />
    <radialGradient
       cx="4.9929786"
       cy="43.5"
       r="2.5"
       fx="4.9929786"
       fy="43.5"
       id="radialGradient2472"
       xlink:href="#linearGradient3688"
       gradientUnits="userSpaceOnUse"
       gradientTransform="matrix(2.003784,0,0,1.4,-20.01187,-104.4)" />
    <linearGradient
       x1="25.058096"
       y1="47.027729"
       x2="25.058096"
       y2="39.999443"
       id="linearGradient2474"
       xlink:href="#linearGradient3702"
       gradientUnits="userSpaceOnUse" />
    <radialGradient
       cx="4.9929786"
       cy="43.5"
       r="2.5"
       fx="4.9929786"
       fy="43.5"
       id="radialGradient2476"
       xlink:href="#linearGradient3688"
       gradientUnits="userSpaceOnUse"
       gradientTransform="matrix(2.003784,0,0,1.4,27.98813,-17.4)" />
    <radialGradient
       cx="4.9929786"
       cy="43.5"
       r="2.5"
       fx="4.9929786"
       fy="43.5"
       id="radialGradient2478"
       xlink:href="#linearGradient3688"
       gradientUnits="userSpaceOnUse"
       gradientTransform="matrix(2.003784,0,0,1.4,-20.01187,-104.4)" />
    <linearGradient
       x1="25.058096"
       y1="47.027729"
       x2="25.058096"
       y2="39.999443"
       id="linearGradient2480"
       xlink:href="#linearGradient3702"
       gradientUnits="userSpaceOnUse" />
    <linearGradient
       x1="26.95891"
       y1="12.060429"
       x2="26.95891"
       y2="37.263515"
       id="linearGradient2489"
       xlink:href="#linearGradient4380"
       gradientUnits="userSpaceOnUse"
       gradientTransform="matrix(0.63582966,0,0,0.64079456,-1.5036369,3.2525126)" />
    <linearGradient
       id="linearGradient4364">
      <stop
         offset="0"
         style="stop-color:#ffffff;stop-opacity:1"
         id="stop4366" />
      <stop
         offset="0.40000001"
         style="stop-color:#ffffff;stop-opacity:0.23529412"
         id="stop4368" />
      <stop
         offset="0.80000001"
         style="stop-color:#ffffff;stop-opacity:0.15686275"
         id="stop4370" />
      <stop
         offset="1"
         style="stop-color:#ffffff;stop-opacity:0.39215687"
         id="stop4372" />
    </linearGradient>
    <linearGradient
       id="linearGradient4223">
      <stop
         offset="0"
         style="stop-color:#cdf87e;stop-opacity:1"
         id="stop4225" />
      <stop
         offset="0.26238"
         style="stop-color:#a2e34f;stop-opacity:1"
         id="stop4227" />
      <stop
         offset="0.66093999"
         style="stop-color:#68b723;stop-opacity:1"
         id="stop4229" />
      <stop
         offset="1"
         style="stop-color:#1d7e0d;stop-opacity:1"
         id="stop4231" />
    </linearGradient>
    <linearGradient
       id="linearGradient4526"
       osb:paint="solid">
      <stop
         style="stop-color:#ffffff;stop-opacity:1;"
         offset="0"
         id="stop4528" />
    </linearGradient>
    <linearGradient
       y2="-5.7774076"
       x2="107.05136"
       y1="-23.105574"
       x1="107.05136"
       gradientTransform="matrix(0.24135006,0,0,0.24954296,-10.146754,10.971832)"
       gradientUnits="userSpaceOnUse"
       id="linearGradient4362"
       xlink:href="#linearGradient4364" />
    <radialGradient
       r="12.671875"
       fy="12.591532"
       fx="6.8950286"
       cy="12.591532"
       cx="6.8950286"
       gradientTransform="matrix(0,5.4094966,-6.6411336,0,98.606808,-45.867865)"
       gradientUnits="userSpaceOnUse"
       id="radialGradient4321-4"
       xlink:href="#linearGradient4223" />
  </defs>
  <g
     transform="matrix(0.22746452,0,0,0.26511625,14.065789,17.220306)"
     id="g3761"
     style="opacity:0.3;stroke-width:4.0721615;stroke-miterlimit:4;stroke-dasharray:none">
    <rect
       width="5"
       height="7"
       x="38"
       y="40"
       id="rect3763"
       style="fill:url(#radialGradient2470);fill-opacity:1;stroke:none;stroke-width:4.0721615;stroke-miterlimit:4;stroke-dasharray:none" />
    <rect
       width="5"
       height="7"
       x="-10"
       y="-47"
       transform="scale(-1)"
       id="rect3765"
       style="fill:url(#radialGradient2472);fill-opacity:1;stroke:none;stroke-width:4.0721615;stroke-miterlimit:4;stroke-dasharray:none" />
    <rect
       width="28"
       height="7.0000005"
       x="10"
       y="40"
       id="rect3767"
       style="fill:url(#linearGradient2474);fill-opacity:1;stroke:none;stroke-width:4.0721615;stroke-miterlimit:4;stroke-dasharray:none" />
  </g>
  <g
     transform="matrix(0.24423421,0,0,0.26511625,3.0288289,17.220306)"
     id="g3550"
     style="opacity:0.3;stroke-width:3.92987356;stroke-miterlimit:4;stroke-dasharray:none">
    <rect
       width="5"
       height="7"
       x="38"
       y="40"
       id="rect3552"
       style="fill:url(#radialGradient2476);fill-opacity:1;stroke:none;stroke-width:3.92987356;stroke-miterlimit:4;stroke-dasharray:none" />
    <rect
       width="5"
       height="7"
       x="-10"
       y="-47"
       transform="scale(-1)"
       id="rect3554"
       style="fill:url(#radialGradient2478);fill-opacity:1;stroke:none;stroke-width:3.92987356;stroke-miterlimit:4;stroke-dasharray:none" />
    <rect
       width="28"
       height="7.0000005"
       x="10"
       y="40"
       id="rect3556"
       style="fill:url(#linearGradient2480);fill-opacity:1;stroke:none;stroke-width:3.92987356;stroke-miterlimit:4;stroke-dasharray:none" />
  </g>
  <path
     d="m 14.121867,3.8211569 c -1.607004,0 -2.911238,1.3196821 -2.911238,2.9267396 0,1.0044101 0.519449,2.1145634 1.293882,2.6379207 l 3.33e-4,0.2888188 H 6.0354268 C 5.3186153,9.674636 4.675,10.468349 4.675,11.185185 v 6.287675 c 0.5335335,-0.66953 1.4085065,-1.111968 2.3305066,-1.111968 1.6070035,0 2.9374482,1.304278 2.9374482,2.911335 0,1.607058 -1.3304447,2.911336 -2.9374482,2.911336 -0.9220001,0 -1.7969731,-0.442439 -2.3305066,-1.111968 v 6.287677 c 0,0.716835 0.6432824,1.046497 1.360094,1.046497 h 6.287466 c -0.669509,-0.533551 -1.111931,-1.094912 -1.111931,-2.016942 0,-1.607058 1.304234,-2.911337 2.911238,-2.911337 1.607003,0 2.911238,1.304279 2.911238,2.911337 0,0.92203 -0.442424,1.483391 -1.111933,2.016942 h 6.287466 c 0.716812,0 1.196868,-0.329889 1.196868,-1.046725 v -5.977563 l 0.602439,2.27e-4 c 0.523341,0.774459 1.401437,1.155178 2.405815,1.155178 1.607003,0 2.911239,-1.304278 2.911239,-2.911335 0,-1.607058 -1.304236,-2.911336 -2.911239,-2.911336 -1.004378,0 -1.882474,0.380944 -2.405815,1.155405 l -0.602439,-2.27e-4 v -6.684437 c 0,-0.716835 -0.480125,-1.5343087 -1.196535,-1.51032 h -6.469417 l -3.33e-4,-0.2888188 c 0.774434,-0.5233573 1.293884,-1.6335106 1.293884,-2.6379207 0,-1.6070575 -1.304235,-2.9267396 -2.911238,-2.9267396 z"
     id="rect3558"
     style="color:#000000;clip-rule:nonzero;display:inline;overflow:visible;visibility:visible;opacity:1;isolation:auto;mix-blend-mode:normal;color-interpolation:sRGB;color-interpolation-filters:linearRGB;solid-color:#000000;solid-opacity:1;fill:url(#radialGradient4321-4);fill-opacity:1;fill-rule:nonzero;stroke:none;stroke-width:1;stroke-linecap:butt;stroke-linejoin:miter;stroke-miterlimit:4;stroke-dasharray:none;stroke-dashoffset:0;stroke-opacity:1;marker:none;color-rendering:auto;image-rendering:auto;shape-rendering:auto;text-rendering:auto;enable-background:accumulate"
     inkscape:connector-curvature="0" />
  <path
     d="M 12.808282,10.555769 H 6.4306392 c -0.3280678,0 -0.9056391,0.362345 -0.9056391,0.692974 l -10e-8,4.424259 c 2.9109289,-0.920763 5.351578,1.245776 5.365585,3.658286 0.01401,2.41251 -2.2330284,4.186085 -5.365585,3.47862 l 10e-8,4.453955 c 0,0.33063 0.9880365,0.291906 1.3161052,0.291906 h 3.5339097 c -0.5325298,-2.440897 0.829534,-4.961744 3.66776,-4.98493 2.838226,-0.02319 4.211347,1.94622 3.631459,4.98493 h 4.029912 c 0.32807,0 0.820854,0.03873 0.820854,-0.291906 v -5.958438 c 0.08935,-0.899201 1.029474,-0.789186 1.029474,-0.789186 0.229237,-7.68e-4 0.833886,-0.175967 0.965719,0.01304 0.39203,0.584653 1.043717,1.145658 1.789013,1.145658 1.199913,0 2.206759,-0.844145 2.206759,-2.053427 0,-1.209281 -1.006846,-2.053427 -2.206759,-2.053427 -0.745296,0 -1.39723,0.520433 -1.789261,1.105083 -0.131833,0.189003 -0.982017,0.05439 -1.211254,0.05362 0,0 -0.667685,0.0086 -0.783691,-0.625335 V 11.24874 c 0,-0.330626 -0.492784,-0.692971 -0.820854,-0.692971 h -6.039477"
     id="path3741"
     style="opacity:0.4;fill:none;stroke:url(#linearGradient2489);stroke-width:1;stroke-linecap:round;stroke-linejoin:round;stroke-miterlimit:4;stroke-dasharray:none;stroke-dashoffset:0;stroke-opacity:1"
     inkscape:connector-curvature="0" />
  <path
     id="path4335"
     d="m 13.333475,10.113334 c 0,-0.4177969 -0.01125,-1.2936345 -0.01125,-1.2936345 C 13.073556,8.7102932 12.84962,8.55198 12.661556,8.3563519 12.285428,7.9650958 12.052788,7.4245804 12.052788,6.8275437 c 0,-1.1940736 0.93056,-2.1620614 2.078464,-2.1620611 1.147903,2e-7 2.078462,0.9679879 2.078462,2.1620611 0,0.5970366 -0.23264,1.1375518 -0.608767,1.5288079 -0.188065,0.195628 -0.48062,0.4716976 -0.718291,0.5353815 0,0 -0.0023,0.7317699 -0.0023,1.2216009"
     style="color:#000000;clip-rule:nonzero;display:inline;overflow:visible;visibility:visible;opacity:0.6;isolation:auto;mix-blend-mode:normal;color-interpolation:sRGB;color-interpolation-filters:linearRGB;solid-color:#000000;solid-opacity:1;fill:none;fill-opacity:1;fill-rule:nonzero;stroke:url(#linearGradient4362);stroke-width:1;stroke-linecap:butt;stroke-linejoin:miter;stroke-miterlimit:4;stroke-dasharray:none;stroke-dashoffset:0;stroke-opacity:1;marker:none;color-rendering:auto;image-rendering:auto;shape-rendering:auto;text-rendering:auto;enable-background:accumulate"
     inkscape:connector-curvature="0" />
  <path
     d="m 14.121867,3.8211567 c -1.607004,0 -2.911238,1.3196821 -2.911238,2.9267395 0,1.0044102 0.519449,2.1145635 1.293882,2.6379207 l 3.33e-4,0.2888189 H 6.0354268 C 5.3186153,9.6746358 4.675,10.468349 4.675,11.185185 v 6.287675 c 0.5335335,-0.66953 1.4085065,-1.111968 2.3305066,-1.111968 1.6070035,0 2.9374482,1.304278 2.9374482,2.911335 0,1.607058 -1.3304447,2.911336 -2.9374482,2.911336 -0.9220001,0 -1.7969731,-0.442439 -2.3305066,-1.111968 v 6.287677 c 0,0.716835 0.6432824,1.046497 1.360094,1.046497 h 6.287466 c -0.669509,-0.533551 -1.111931,-1.094912 -1.111931,-2.016942 0,-1.607058 1.304234,-2.911337 2.911238,-2.911337 1.607003,0 2.911238,1.304279 2.911238,2.911337 0,0.92203 -0.442424,1.483391 -1.111933,2.016942 h 6.287466 c 0.716812,0 1.196868,-0.329889 1.196868,-1.046725 v -5.977563 l 0.602439,2.27e-4 c 0.523341,0.774459 1.401437,1.155178 2.405815,1.155178 1.607003,0 2.911239,-1.304278 2.911239,-2.911335 0,-1.607058 -1.304236,-2.911336 -2.911239,-2.911336 -1.004378,0 -1.882474,0.380944 -2.405815,1.155405 l -0.602439,-2.27e-4 v -6.684437 c 0,-0.716835 -0.480125,-1.5343089 -1.196535,-1.5103202 h -6.469417 l -3.33e-4,-0.2888189 c 0.774434,-0.5233572 1.293884,-1.6335105 1.293884,-2.6379207 0,-1.6070574 -1.304235,-2.9267395 -2.911238,-2.9267395 z"
     id="rect3558-2"
     style="color:#000000;clip-rule:nonzero;display:inline;overflow:visible;visibility:visible;opacity:0.4;isolation:auto;mix-blend-mode:normal;color-interpolation:sRGB;color-interpolation-filters:linearRGB;solid-color:#000000;solid-opacity:1;fill:none;fill-opacity:1;fill-rule:nonzero;stroke:#0a3600;stroke-width:1;stroke-linecap:round;stroke-linejoin:miter;stroke-miterlimit:4;stroke-dasharray:none;stroke-dashoffset:0;stroke-opacity:1;marker:none;color-rendering:auto;image-rendering:auto;shape-rendering:auto;text-rendering:auto;enable-background:accumulate"
     inkscape:connector-curvature="0" />
</svg>
