<?xml version="1.0" encoding="UTF-8" standalone="no"?>
<svg
   xmlns:dc="http://purl.org/dc/elements/1.1/"
   xmlns:cc="http://creativecommons.org/ns#"
   xmlns:rdf="http://www.w3.org/1999/02/22-rdf-syntax-ns#"
   xmlns:svg="http://www.w3.org/2000/svg"
   xmlns="http://www.w3.org/2000/svg"
   xmlns:xlink="http://www.w3.org/1999/xlink"
   xmlns:sodipodi="http://sodipodi.sourceforge.net/DTD/sodipodi-0.dtd"
   xmlns:inkscape="http://www.inkscape.org/namespaces/inkscape"
   version="1.1"
   width="32"
   height="32"
   id="svg4876"
   sodipodi:docname="face-angel.svg"
   inkscape:version="0.92.4 (5da689c313, 2019-01-14)">
  <sodipodi:namedview
     pagecolor="#ffffff"
     bordercolor="#666666"
     borderopacity="1"
     objecttolerance="10"
     gridtolerance="10"
     guidetolerance="10"
     inkscape:pageopacity="0"
     inkscape:pageshadow="2"
     inkscape:window-width="2880"
     inkscape:window-height="1706"
     id="namedview27"
     showgrid="false"
     inkscape:zoom="14.75"
     inkscape:cx="-6.8813559"
     inkscape:cy="8"
     inkscape:window-x="-11"
     inkscape:window-y="-11"
     inkscape:window-maximized="1"
     inkscape:current-layer="svg4876" />
  <defs
     id="defs4878">
    <linearGradient
       x1="71.204407"
       y1="6.2375584"
       x2="71.204407"
       y2="44.340794"
       id="linearGradient5726-5-4-8-0-8"
       xlink:href="#linearGradient4011-7-0-0-5-3-5"
       gradientUnits="userSpaceOnUse"
       gradientTransform="matrix(0.52263511,0,0,0.52263511,-21.490375,2.9068258)" />
    <linearGradient
       id="linearGradient4011-7-0-0-5-3-5">
      <stop
         id="stop4013-1-0-0-8-8-4"
         style="stop-color:#ffffff;stop-opacity:1"
         offset="0" />
      <stop
         id="stop4015-6-1-4-5-2-5"
         style="stop-color:#ffffff;stop-opacity:0.23529412"
         offset="0.507761" />
      <stop
         id="stop4017-5-2-7-7-3-7"
         style="stop-color:#ffffff;stop-opacity:0.15686275"
         offset="0.83456558" />
      <stop
         id="stop4019-1-1-5-0-7-6"
         style="stop-color:#ffffff;stop-opacity:0.39215687"
         offset="1" />
    </linearGradient>
    <linearGradient
       id="linearGradient4044-1-0-1-6-9-6">
      <stop
         id="stop4046-5-15-6-5-7-4"
         style="stop-color:#fff3cb;stop-opacity:1"
         offset="0" />
      <stop
         id="stop4048-7-8-1-9-7-2"
         style="stop-color:#fdde76;stop-opacity:1"
         offset="0.4334898" />
      <stop
         id="stop4050-0-5-9-1-8-7"
         style="stop-color:#f9c440;stop-opacity:1"
         offset="0.69222504" />
      <stop
         id="stop4052-2-7-1-8-4-5"
         style="stop-color:#e48b20;stop-opacity:1"
         offset="1" />
    </linearGradient>
    <radialGradient
       cx="282.78751"
       cy="533.11218"
       r="6.8303571"
       fx="277.66473"
       fy="533.11218"
       id="radialGradient4874"
       xlink:href="#linearGradient4044-1-0-1-6-9-6"
       gradientUnits="userSpaceOnUse"
       gradientTransform="matrix(0,1.6085298,-1.7427802,0,945.09734,-439.73625)" />
  </defs>
  <metadata
     id="metadata4881">
    <rdf:RDF>
      <cc:Work
         rdf:about="">
        <dc:format>image/svg+xml</dc:format>
        <dc:type
           rdf:resource="http://purl.org/dc/dcmitype/StillImage" />
        <dc:title />
      </cc:Work>
    </rdf:RDF>
  </metadata>
  <path
     inkscape:connector-curvature="0"
     style="color:#000000;display:inline;overflow:visible;visibility:visible;fill:url(#radialGradient4874);fill-opacity:1;fill-rule:nonzero;stroke:none;stroke-width:1;stroke-miterlimit:4;stroke-dasharray:none;marker:none;enable-background:accumulate"
     id="path3009-1-5-0-2-1-3"
     d="m 27.156257,16.15941 a 11.15625,11.15625 0 1 1 -22.3125009,0 11.15625,11.15625 0 1 1 22.3125009,0 z" />
  <path
     inkscape:connector-curvature="0"
     style="opacity:0.3;fill:none;stroke:#ffffff;stroke-width:1;stroke-linecap:butt;stroke-linejoin:miter;stroke-miterlimit:4;stroke-dasharray:none;stroke-opacity:1"
     id="path3417-3-7"
     d="m 11.53754,22.257277 c 0,0 1.880914,1.834893 4.4625,1.896193 2.5816,0.06129 4.4625,-1.896193 4.4625,-1.896193" />
  <path
     inkscape:connector-curvature="0"
     style="fill:none;stroke:#5e4506;stroke-width:1;stroke-linecap:butt;stroke-linejoin:miter;stroke-miterlimit:4;stroke-dasharray:none;stroke-opacity:1"
     id="path3417-7-7-5"
     d="m 11.53754,20.992551 c 0,0 1.880914,2.169949 4.4625,2.23125 2.5816,0.06128 4.4625,-2.23125 4.4625,-2.23125" />
  <path
     inkscape:connector-curvature="0"
     style="color:#000000;display:inline;overflow:visible;visibility:visible;fill:#43340d;fill-opacity:1;stroke:none;stroke-width:1;stroke-miterlimit:4;stroke-dasharray:none;marker:none;enable-background:accumulate"
     id="path3964-7-71-6-4"
     d="m 14.140656,15.063534 a 1.1156259,2.9750024 0 1 1 -2.231251,0 1.1156259,2.9750024 0 1 1 2.231251,0 z" />
  <path
     inkscape:connector-curvature="0"
     style="color:#000000;display:inline;overflow:visible;visibility:visible;fill:#43340d;fill-opacity:1;stroke:none;stroke-width:1;stroke-miterlimit:4;stroke-dasharray:none;marker:none;enable-background:accumulate"
     id="path3964-7-7-2-8-7"
     d="m 17.859369,15.063534 a 1.115626,2.9750027 0 1 0 2.231252,0 1.115626,2.9750027 0 1 0 -2.231252,0 z" />
  <path
     inkscape:connector-curvature="0"
     style="color:#000000;display:inline;overflow:visible;visibility:visible;fill:none;stroke:url(#linearGradient5726-5-4-8-0-8);stroke-width:1;stroke-linecap:round;stroke-linejoin:round;stroke-miterlimit:4;stroke-dasharray:none;stroke-dashoffset:0;stroke-opacity:1;marker:none;enable-background:accumulate"
     id="path8655-6-3-8-4-4-9-4"
     d="m 25.668835,16.158964 c 0,5.340125 -4.329161,9.669196 -9.668617,9.669196 -5.339961,0 -9.6688835,-4.329071 -9.6688835,-9.669196 0,-5.339828 4.3289225,-9.6683045 9.6688835,-9.6683045 5.339456,0 9.668617,4.3284765 9.668617,9.6683045 z" />
  <path
     inkscape:connector-curvature="0"
     style="color:#000000;display:inline;overflow:visible;visibility:visible;opacity:0.5;fill:none;stroke:#a53400;stroke-width:1;stroke-miterlimit:4;stroke-dasharray:none;stroke-opacity:1;marker:none;enable-background:accumulate"
     id="path3009-5-8-4-1-5-2-3"
     d="m 27.156257,16.15941 a 11.15625,11.15625 0 1 1 -22.3125009,0 11.15625,11.15625 0 1 1 22.3125009,0 z" />
  <path
     inkscape:connector-curvature="0"
     style="color:#000000;display:inline;overflow:visible;visibility:visible;fill:#966500;fill-opacity:0.54509804;fill-rule:nonzero;stroke:none;stroke-width:1;stroke-miterlimit:4;stroke-dasharray:none;marker:none;enable-background:accumulate"
     id="path4880"
     d="m 27.9,7.9781275 a 11.9,3.71875 0 1 1 -23.8,0 11.9,3.71875 0 1 1 23.8,0 z" />
  <path
     inkscape:connector-curvature="0"
     style="color:#000000;display:inline;overflow:visible;visibility:visible;fill:#fff9e2;fill-opacity:1;fill-rule:nonzero;stroke:none;stroke-width:1;stroke-miterlimit:4;stroke-dasharray:none;marker:none;enable-background:accumulate"
     id="path4882"
     d="m 16.00001,5.7468797 c -5.75066,0 -10.4124999,0.9989604 -10.4124999,2.23125 0,1.2322898 4.6618399,2.2312503 10.4124999,2.2312503 5.750661,0 10.4125,-0.9989605 10.4125,-2.2312503 0,-1.2322895 -4.661839,-2.23125 -10.4125,-2.23125 z m 0,1.4875 c 4.929144,0 8.925,0.3329918 8.925,0.74375 0,0.4107584 -3.995856,0.74375 -8.925,0.74375 -4.929144,0 -8.9249999,-0.3329916 -8.9249999,-0.74375 0,-0.4107582 3.9958559,-0.74375 8.9249999,-0.74375 z" />
</svg>
