<?xml version="1.0" encoding="UTF-8" standalone="no"?>
<svg
   xmlns:dc="http://purl.org/dc/elements/1.1/"
   xmlns:cc="http://creativecommons.org/ns#"
   xmlns:rdf="http://www.w3.org/1999/02/22-rdf-syntax-ns#"
   xmlns:svg="http://www.w3.org/2000/svg"
   xmlns="http://www.w3.org/2000/svg"
   xmlns:xlink="http://www.w3.org/1999/xlink"
   xmlns:sodipodi="http://sodipodi.sourceforge.net/DTD/sodipodi-0.dtd"
   xmlns:inkscape="http://www.inkscape.org/namespaces/inkscape"
   version="1.1"
   width="32"
   height="32"
   id="svg4170"
   sodipodi:docname="face-kiss.svg"
   inkscape:version="0.92.4 (5da689c313, 2019-01-14)">
  <sodipodi:namedview
     pagecolor="#ffffff"
     bordercolor="#666666"
     borderopacity="1"
     objecttolerance="10"
     gridtolerance="10"
     guidetolerance="10"
     inkscape:pageopacity="0"
     inkscape:pageshadow="2"
     inkscape:window-width="2880"
     inkscape:window-height="1706"
     id="namedview61"
     showgrid="false"
     inkscape:zoom="5.2149125"
     inkscape:cx="-38.785821"
     inkscape:cy="34.525508"
     inkscape:window-x="-11"
     inkscape:window-y="-11"
     inkscape:window-maximized="1"
     inkscape:current-layer="svg4170" />
  <defs
     id="defs4172">
    <linearGradient
       x1="200.23929"
       y1="1020.5864"
       x2="200.23929"
       y2="1031.7922"
       id="linearGradient4084"
       xlink:href="#linearGradient8687-5-3-4"
       gradientUnits="userSpaceOnUse"
       gradientTransform="matrix(0.39512714,0.1051053,-0.105874,0.39225835,53.748174,-410.50669)" />
    <linearGradient
       id="linearGradient8687-5-3-4">
      <stop
         id="stop8689-7-1-9"
         style="stop-color:#ffffff;stop-opacity:1"
         offset="0" />
      <stop
         id="stop8691-3-8-4"
         style="stop-color:#ffffff;stop-opacity:0.23529412"
         offset="0.24566023" />
      <stop
         id="stop8693-6-4-9"
         style="stop-color:#ffffff;stop-opacity:0.15686275"
         offset="0.69259435" />
      <stop
         id="stop8695-6-2-7"
         style="stop-color:#ffffff;stop-opacity:0.39215687"
         offset="1" />
    </linearGradient>
    <radialGradient
       cx="196"
       cy="1026.3622"
       r="7.5"
       fx="196.37857"
       fy="1023.4138"
       id="radialGradient4091"
       xlink:href="#linearGradient8810-7-8"
       gradientUnits="userSpaceOnUse"
       gradientTransform="matrix(0.49690309,0.13314478,-0.11539214,0.43064935,43.505426,-455.32846)" />
    <linearGradient
       id="linearGradient8810-7-8">
      <stop
         id="stop8812-8-1"
         style="stop-color:#fda767;stop-opacity:1"
         offset="0" />
      <stop
         id="stop8814-3-4"
         style="stop-color:#d94500;stop-opacity:1"
         offset="1" />
    </linearGradient>
    <linearGradient
       x1="200.23929"
       y1="1020.5864"
       x2="200.23929"
       y2="1031.7922"
       id="linearGradient4074"
       xlink:href="#linearGradient8687-5-3"
       gradientUnits="userSpaceOnUse"
       gradientTransform="matrix(0.60080847,-0.16048139,0.16098614,0.59892468,-271.018,-570.31386)" />
    <linearGradient
       id="linearGradient8687-5-3">
      <stop
         id="stop8689-7-1"
         style="stop-color:#ffffff;stop-opacity:1"
         offset="0" />
      <stop
         id="stop8691-3-8"
         style="stop-color:#ffffff;stop-opacity:0.23529412"
         offset="0.24566023" />
      <stop
         id="stop8693-6-4"
         style="stop-color:#ffffff;stop-opacity:0.15686275"
         offset="0.69259435" />
      <stop
         id="stop8695-6-2"
         style="stop-color:#ffffff;stop-opacity:0.39215687"
         offset="1" />
    </linearGradient>
    <radialGradient
       cx="196"
       cy="1026.3622"
       r="7.5"
       fx="196.37857"
       fy="1023.4138"
       id="radialGradient4081"
       xlink:href="#linearGradient8810-7"
       gradientUnits="userSpaceOnUse"
       gradientTransform="matrix(0.68862019,-0.18451523,0.15991319,0.59680416,-287.07287,-563.36078)" />
    <linearGradient
       id="linearGradient8810-7">
      <stop
         id="stop8812-8"
         style="stop-color:#fda767;stop-opacity:1"
         offset="0" />
      <stop
         id="stop8814-3"
         style="stop-color:#d94500;stop-opacity:1"
         offset="1" />
    </linearGradient>
    <linearGradient
       x1="71.204407"
       y1="6.2375584"
       x2="71.204407"
       y2="44.340794"
       id="linearGradient5726-5-4-8-0"
       xlink:href="#linearGradient4011-7-0-0-5-3"
       gradientUnits="userSpaceOnUse"
       gradientTransform="matrix(0.52263511,0,0,0.52263511,-21.490454,2.7474208)" />
    <linearGradient
       id="linearGradient4011-7-0-0-5-3">
      <stop
         id="stop4013-1-0-0-8-8"
         style="stop-color:#ffffff;stop-opacity:1"
         offset="0" />
      <stop
         id="stop4015-6-1-4-5-2"
         style="stop-color:#ffffff;stop-opacity:0.23529412"
         offset="0.507761" />
      <stop
         id="stop4017-5-2-7-7-3"
         style="stop-color:#ffffff;stop-opacity:0.15686275"
         offset="0.83456558" />
      <stop
         id="stop4019-1-1-5-0-7"
         style="stop-color:#ffffff;stop-opacity:0.39215687"
         offset="1" />
    </linearGradient>
    <linearGradient
       x1="7.0285702"
       y1="-0.14285773"
       x2="10.142858"
       y2="15.314286"
       id="linearGradient4048"
       xlink:href="#linearGradient4044-1-0-1-6-9"
       gradientUnits="userSpaceOnUse"
       gradientTransform="matrix(1.4875,0,0,1.4875,4.1000057,4.1000059)" />
    <linearGradient
       id="linearGradient4044-1-0-1-6-9">
      <stop
         id="stop4046-5-15-6-5-7"
         style="stop-color:#fff3cb;stop-opacity:1"
         offset="0" />
      <stop
         id="stop4048-7-8-1-9-7"
         style="stop-color:#fdde76;stop-opacity:1"
         offset="0.4334898" />
      <stop
         id="stop4050-0-5-9-1-8"
         style="stop-color:#f9c440;stop-opacity:1"
         offset="0.69222504" />
      <stop
         id="stop4052-2-7-1-8-4"
         style="stop-color:#e48b20;stop-opacity:1"
         offset="1" />
    </linearGradient>
    <linearGradient
       x1="284.22501"
       y1="532.26221"
       x2="280.82501"
       y2="538.21216"
       id="linearGradient3968"
       xlink:href="#linearGradient4044-1-0-1-6-9-8"
       gradientUnits="userSpaceOnUse"
       gradientTransform="matrix(1.7500001,0,0,1.7500001,-479.90626,-916.94632)" />
    <linearGradient
       id="linearGradient4044-1-0-1-6-9-8">
      <stop
         id="stop4048-7-8-1-9-7-5"
         style="stop-color:#fdde76;stop-opacity:0"
         offset="0" />
      <stop
         id="stop4052-2-7-1-8-4-6"
         style="stop-color:#e48b20;stop-opacity:1"
         offset="1" />
    </linearGradient>
    <radialGradient
       cx="282.78751"
       cy="533.11218"
       r="6.8303571"
       fx="277.66473"
       fy="533.11218"
       id="radialGradient4168"
       xlink:href="#linearGradient4044-1-0-1-6-9"
       gradientUnits="userSpaceOnUse"
       gradientTransform="matrix(0,1.6085297,-1.7427802,0,945.09734,-439.89566)" />
  </defs>
  <metadata
     id="metadata4175">
    <rdf:RDF>
      <cc:Work
         rdf:about="">
        <dc:format>image/svg+xml</dc:format>
        <dc:type
           rdf:resource="http://purl.org/dc/dcmitype/StillImage" />
        <dc:title />
      </cc:Work>
    </rdf:RDF>
  </metadata>
  <path
     inkscape:connector-curvature="0"
     style="color:#000000;display:inline;overflow:visible;visibility:visible;fill:url(#radialGradient4168);fill-opacity:1;fill-rule:nonzero;stroke:none;stroke-width:1;stroke-miterlimit:4;stroke-dasharray:none;marker:none;enable-background:accumulate"
     id="path3009-1-5-0-2-1"
     d="M 27.15625,16 A 11.15625,11.15625 0 1 1 4.8437501,16 11.15625,11.15625 0 1 1 27.15625,16 Z" />
  <path
     inkscape:connector-curvature="0"
     style="color:#000000;display:inline;overflow:visible;visibility:visible;fill:url(#linearGradient3968);fill-opacity:1;fill-rule:nonzero;stroke:none;stroke-width:1;stroke-miterlimit:4;stroke-dasharray:none;marker:none;enable-background:accumulate"
     id="path3009-1-5-0-2-1-0"
     d="M 27.15625,16 A 11.15625,11.15625 0 1 1 4.8437501,16 11.15625,11.15625 0 1 1 27.15625,16 Z" />
  <path
     inkscape:connector-curvature="0"
     style="color:#000000;display:inline;overflow:visible;visibility:visible;opacity:0.5;fill:none;stroke:#a53400;stroke-width:1;stroke-linecap:butt;stroke-linejoin:round;stroke-miterlimit:4;stroke-dasharray:none;stroke-dashoffset:0;stroke-opacity:1;marker:none;enable-background:accumulate"
     id="path3028"
     d="M 27.15625,16 C 27.15625,22.161435 22.161435,27.15625 16,27.15625 9.8385652,27.15625 4.8437501,22.161435 4.8437501,16 4.8437501,9.8385829 9.8385652,4.84375 16,4.84375 22.161435,4.84375 27.15625,9.8385829 27.15625,16 Z" />
  <path
     inkscape:connector-curvature="0"
     style="color:#000000;display:inline;overflow:visible;visibility:visible;fill:url(#linearGradient4048);fill-opacity:1;fill-rule:nonzero;stroke:none;stroke-width:1;stroke-miterlimit:4;stroke-dasharray:none;marker:none;enable-background:accumulate"
     id="path4027-5"
     d="m 18.975006,18.231256 h 6.041025 l -3.809775,2.975 3.63375,2.69875 c 0,0 -2.438926,2.326953 -7.3525,3.12375" />
  <path
     inkscape:connector-curvature="0"
     style="color:#000000;display:inline;overflow:visible;visibility:visible;opacity:0.5;fill:none;stroke:#a53400;stroke-width:1;stroke-linecap:butt;stroke-linejoin:round;stroke-miterlimit:4;stroke-dasharray:none;stroke-dashoffset:0;stroke-opacity:1;marker:none;enable-background:accumulate"
     id="path4027"
     d="m 18.975006,18.231256 h 6.041025 l -3.809775,2.975 3.63375,2.69875 c 0,0 -1.660008,1.583795 -5.000083,2.585532 -0.708483,0.212485 -1.492559,0.398781 -2.352417,0.538218"
     sodipodi:nodetypes="ccccsc" />
  <path
     inkscape:connector-curvature="0"
     style="color:#000000;display:inline;overflow:visible;visibility:visible;fill:none;stroke:url(#linearGradient5726-5-4-8-0);stroke-width:1;stroke-linecap:round;stroke-linejoin:round;stroke-miterlimit:4;stroke-dasharray:none;stroke-dashoffset:0;stroke-opacity:1;marker:none;enable-background:accumulate"
     id="path8655-6-3-8-4-4-9"
     d="m 25.622227,16.954172 c 0.03078,-0.31404 0.04653,-0.632487 0.04653,-0.954614 v 0 c 0,-5.339827 -4.329161,-9.6683037 -9.668617,-9.6683037 -5.339961,0 -9.6688835,4.3284767 -9.6688835,9.6683037 0,5.340127 4.3289225,9.669198 9.6688835,9.669198 2.249485,0 4.31965,-0.768362 5.962334,-2.056984 0,0 -2.08722,-1.4992 -2.902537,-2.065554 l 1.614999,-1.827499 h -1.699999" />
  <path
     inkscape:connector-curvature="0"
     style="color:#000000;display:inline;overflow:visible;visibility:visible;fill:url(#radialGradient4081);fill-opacity:1;stroke:none;stroke-width:1;stroke-miterlimit:4;stroke-dasharray:none;marker:none;enable-background:accumulate"
     id="path7461-1-4-6"
     d="M 8.5666722,9.1408851 C 6.9622215,9.5707955 6.0067469,11.207578 6.4325711,12.796776 c 0.221695,0.827377 0.784493,1.478553 1.4902068,1.849425 1.8383114,0.693416 4.1099201,1.790104 5.3021271,2.841305 0.506881,-1.506472 1.925808,-3.592035 3.171124,-5.111706 0.42573,-0.674042 0.58754,-1.519375 0.365845,-2.346752 C 16.33605,8.4398501 14.690193,7.5000918 13.085742,7.9300031 12.001372,8.2205595 11.805285,8.9018557 11.539856,9.9076565 10.807088,9.169321 9.6510423,8.8503287 8.5666722,9.1408851 Z" />
  <path
     inkscape:connector-curvature="0"
     style="color:#000000;display:inline;overflow:visible;visibility:visible;fill:none;stroke:#ff0b0a;stroke-width:1;stroke-miterlimit:4;stroke-dasharray:none;stroke-opacity:1;marker:none;enable-background:accumulate"
     id="path8633-64-7"
     d="m 8.6612975,9.4940159 c -1.4200107,0.3804906 -2.261006,1.8050351 -1.8861819,3.2038991 0.1946267,0.726357 0.6946548,1.306226 1.3136396,1.631624 1.6949437,0.642378 3.6894698,1.600158 4.9885988,2.607284 0.621516,-1.521762 1.869935,-3.348485 3.016611,-4.752274 0.373372,-0.591297 0.516479,-1.343422 0.321833,-2.069847 C 16.040974,8.7158392 14.600378,7.9026433 13.180367,8.2831339 12.699263,8.4120458 12.465965,8.5841597 12.292721,8.8438798 12.119475,9.1036007 12.017089,9.4908394 11.885103,9.9910355 A 0.36107144,0.36107144 0 0 1 11.282561,10.152487 C 10.648303,9.5133729 9.6235134,9.2361905 8.6612975,9.4940159 Z" />
  <path
     inkscape:connector-curvature="0"
     style="color:#000000;display:inline;overflow:visible;visibility:visible;opacity:0.3;fill:none;stroke:#000000;stroke-width:1;stroke-miterlimit:4;stroke-dasharray:none;stroke-opacity:1;marker:none;enable-background:accumulate"
     id="path7461-1-5-3-9"
     d="M 8.5666722,9.1408851 C 6.9622215,9.5707955 6.0067469,11.207578 6.4325711,12.796776 c 0.221695,0.827377 0.784493,1.478553 1.4902068,1.849425 1.8383114,0.693416 4.1099201,1.790104 5.3021271,2.841305 0.506881,-1.506472 1.925808,-3.592035 3.171124,-5.111706 0.42573,-0.674042 0.58754,-1.519375 0.365845,-2.346752 C 16.33605,8.4398501 14.690193,7.5000918 13.085742,7.9300031 12.001372,8.2205595 11.805285,8.9018557 11.539856,9.9076565 10.807088,9.169321 9.6510423,8.8503287 8.5666722,9.1408851 Z" />
  <path
     inkscape:connector-curvature="0"
     style="color:#000000;display:inline;overflow:visible;visibility:visible;opacity:0.1;fill:none;stroke:#f50100;stroke-width:1;stroke-miterlimit:4;stroke-dasharray:none;stroke-opacity:1;marker:none;enable-background:accumulate"
     id="path8633-2-4-1"
     d="m 8.8400559,10.16115 c -1.0641662,0.285144 -1.6742986,1.326255 -1.3978394,2.358015 0.1396599,0.521217 0.4988226,0.938522 0.93854,1.178587 0.00873,0.0051 0.018657,0.01116 0.027205,0.01559 1.4868301,0.56684 3.0800165,1.376937 4.4156135,2.2765 0.706878,-1.446843 1.68157,-2.945 2.685782,-4.179315 0.0059,-0.0089 0.0095,-0.01953 0.01577,-0.0271 0.260809,-0.427769 0.363203,-0.968601 0.223507,-1.489954 C 15.472172,9.2617143 14.423226,8.6651494 13.35906,8.950293 12.995799,9.047635 12.968234,9.111844 12.882948,9.2392794 12.797736,9.3669961 12.688905,9.6847338 12.558319,10.179685 A 1.0577057,1.0577057 0 0 1 10.793726,10.6525 C 10.349582,10.204972 9.5664971,9.966428 8.839987,10.16117 Z" />
  <path
     inkscape:connector-curvature="0"
     style="color:#000000;display:inline;overflow:visible;visibility:visible;opacity:0.05;fill:none;stroke:#e10100;stroke-width:1;stroke-miterlimit:4;stroke-dasharray:none;stroke-opacity:1;marker:none;enable-background:accumulate"
     id="path8633-24-2-4"
     d="m 13.507331,9.6755504 c -0.223327,0.5026766 -0.253462,1.1026016 -0.677466,1.4994816 -0.716899,0.791398 -2.016682,0.663625 -2.699867,-0.100027 -0.6393594,-0.406366 -1.6360229,-0.183889 -1.9272985,0.54963 -0.2259963,0.537861 0.026125,1.20962 0.5471575,1.47085 0.3327878,0.172251 0.7271023,0.296057 1.0766948,0.465578 0.9367112,0.417912 1.8463262,0.895785 2.7270862,1.421243 0.689124,-1.232179 1.467864,-2.416559 2.356518,-3.514441 0.156495,-0.314055 0.251662,-0.710062 0.103122,-1.055824 C 14.82128,9.8296401 14.134565,9.5241628 13.561939,9.7071942 Z" />
  <path
     inkscape:connector-curvature="0"
     style="color:#000000;display:inline;overflow:visible;visibility:visible;opacity:0.5;fill:none;stroke:url(#linearGradient4074);stroke-width:1;stroke-miterlimit:4;stroke-dasharray:none;stroke-opacity:1;marker:none;enable-background:accumulate"
     id="path8633-6-6-0"
     d="m 9.1258589,10.223032 c -1.0634069,0.284045 -1.6767648,1.323274 -1.3982588,2.359413 0.1363873,0.50741 0.4727267,0.918658 0.8966561,1.164772 0.015972,0.006 0.031557,0.0211 0.047531,0.0271 0.00803,0.0043 0.015638,0.0092 0.023736,0.01354 1.3845078,0.525088 2.9023728,1.286481 4.0718268,2.122 0.593703,-1.306475 1.526319,-2.722412 2.461965,-3.86724 0.0051,-0.0077 0.0084,-0.017 0.01376,-0.02358 0.0096,-0.01539 0.01845,-0.03125 0.02757,-0.04717 0.243704,-0.424447 0.32871,-0.948175 0.192306,-1.455644 C 15.184445,9.4800839 14.132013,8.8858039 13.068606,9.1698492 12.70698,9.2664472 12.607051,9.3615004 12.499331,9.52251 c -0.10772,0.1610104 -0.21,0.456654 -0.324475,0.889077 a 0.65865463,0.65658948 0 0 1 -1.088965,0.290909 C 10.626294,10.240852 9.8490582,10.029859 9.1257988,10.223048 Z" />
  <path
     inkscape:connector-curvature="0"
     style="color:#000000;display:inline;overflow:visible;visibility:visible;fill:url(#radialGradient4091);fill-opacity:1;stroke:none;stroke-width:1;stroke-miterlimit:4;stroke-dasharray:none;marker:none;enable-background:accumulate"
     id="path7461-1-4-6-8"
     d="m 21.699271,9.1033848 c -1.157759,-0.3102211 -2.345397,0.3679021 -2.652669,1.5146542 -0.159973,0.597029 -0.04321,1.207015 0.263992,1.693398 0.89861,1.096584 1.922496,2.601512 2.288257,3.688569 0.860289,-0.758539 2.499464,-1.5499 3.825975,-2.050265 0.509237,-0.267617 0.915348,-0.7375 1.075322,-1.334529 0.307271,-1.146754 -0.382191,-2.327844 -1.539951,-2.6380655 -0.782473,-0.2096627 -1.15082,0.1453445 -1.679581,0.6781195 -0.19153,-0.7257773 -0.798872,-1.3422185 -1.581345,-1.5518812 z" />
  <path
     inkscape:connector-curvature="0"
     style="color:#000000;display:inline;overflow:visible;visibility:visible;fill:none;stroke:#ff0b0a;stroke-width:1;stroke-miterlimit:4;stroke-dasharray:none;stroke-opacity:1;marker:none;enable-background:accumulate"
     id="path8633-64-7-4"
     d="m 21.630993,9.3582029 c -1.024668,-0.2745602 -2.064192,0.3122347 -2.334662,1.3216441 -0.140435,0.524133 -0.03717,1.066913 0.232233,1.493586 0.827433,1.012962 1.728283,2.331114 2.176763,3.429206 0.937442,-0.726735 2.376677,-1.417862 3.599735,-1.881398 0.446665,-0.234801 0.807459,-0.653184 0.947913,-1.177366 0.27047,-1.009409 -0.336385,-2.037351 -1.361054,-2.31191 -0.347162,-0.09303 -0.555052,-0.06963 -0.757021,0.03017 -0.201971,0.0998 -0.405669,0.30485 -0.668617,0.56981 A 0.26054639,0.26054639 0 0 1 23.031492,10.71544 C 22.865725,10.087209 22.325322,9.5442534 21.630993,9.3582088 Z" />
  <path
     inkscape:connector-curvature="0"
     style="color:#000000;display:inline;overflow:visible;visibility:visible;opacity:0.3;fill:none;stroke:#000000;stroke-width:1;stroke-miterlimit:4;stroke-dasharray:none;stroke-opacity:1;marker:none;enable-background:accumulate"
     id="path7461-1-5-3-9-2"
     d="m 21.699271,9.1033848 c -1.157759,-0.3102211 -2.345397,0.3679021 -2.652669,1.5146542 -0.159973,0.597029 -0.04321,1.207015 0.263992,1.693398 0.89861,1.096584 1.922496,2.601512 2.288257,3.688569 0.860289,-0.758539 2.499464,-1.5499 3.825975,-2.050265 0.509237,-0.267617 0.915348,-0.7375 1.075322,-1.334529 0.307271,-1.146754 -0.382191,-2.327844 -1.539951,-2.6380655 -0.782473,-0.2096627 -1.15082,0.1453445 -1.679581,0.6781195 -0.19153,-0.7257773 -0.798872,-1.3422185 -1.581345,-1.5518812 z" />
  <path
     inkscape:connector-curvature="0"
     style="color:#000000;display:inline;overflow:visible;visibility:visible;opacity:0.1;fill:none;stroke:#f50100;stroke-width:1;stroke-miterlimit:4;stroke-dasharray:none;stroke-opacity:1;marker:none;enable-background:accumulate"
     id="path8633-2-4-1-0"
     d="m 21.502003,9.8396021 c -0.767893,-0.205757 -1.524806,0.2247179 -1.724296,0.9692289 -0.100778,0.376106 -0.02689,0.766473 0.161281,1.075141 0.0036,0.0063 0.0076,0.01369 0.01131,0.01956 0.724632,0.890672 1.427962,1.971731 1.938041,3.01576 0.963756,-0.649116 2.113387,-1.233677 3.186273,-1.642705 0.0069,-0.0034 0.01294,-0.0088 0.01964,-0.01131 0.317321,-0.173221 0.576438,-0.474252 0.677243,-0.850458 0.199491,-0.744509 -0.240777,-1.495768 -1.00867,-1.701525 -0.262126,-0.07024 -0.30252,-0.04004 -0.401796,0.0088 -0.09933,0.04907 -0.28198,0.208362 -0.542161,0.47055 A 0.76323242,0.76323241 0 0 1 22.545609,10.851533 C 22.429525,10.41162 22.026225,9.9800161 21.501955,9.839591 Z" />
  <path
     inkscape:connector-curvature="0"
     style="color:#000000;display:inline;overflow:visible;visibility:visible;opacity:0.05;fill:none;stroke:#e10100;stroke-width:1;stroke-miterlimit:4;stroke-dasharray:none;stroke-opacity:1;marker:none;enable-background:accumulate"
     id="path8633-24-2-4-2"
     d="m 24.593869,11.220078 c -0.320925,0.233555 -0.556208,0.597587 -0.964368,0.692625 -0.733536,0.235904 -1.499692,-0.312902 -1.651105,-1.036611 -0.252931,-0.484623 -0.956032,-0.705186 -1.402707,-0.351889 -0.335286,0.25458 -0.420099,0.765338 -0.188748,1.116573 0.145819,0.227711 0.347563,0.447347 0.504866,0.679413 0.434585,0.599124 0.830606,1.22594 1.191425,1.872084 0.875211,-0.521378 1.789179,-0.98055 2.740627,-1.346013 0.211106,-0.139795 0.413455,-0.352932 0.445378,-0.622597 0.09014,-0.433224 -0.228779,-0.871886 -0.652659,-0.964109 z" />
  <path
     inkscape:connector-curvature="0"
     style="color:#000000;display:inline;overflow:visible;visibility:visible;opacity:0.5;fill:none;stroke:url(#linearGradient4084);stroke-width:1;stroke-miterlimit:4;stroke-dasharray:none;stroke-opacity:1;marker:none;enable-background:accumulate"
     id="path8633-6-6-0-8"
     d="m 21.805846,10.220329 c -0.699358,-0.186033 -1.391499,0.203184 -1.574662,0.881792 -0.0897,0.332321 -0.0338,0.675372 0.126467,0.953355 0.0071,0.0086 0.01101,0.02227 0.01813,0.0309 0.0031,0.005 0.0058,0.01041 0.0089,0.01544 0.615337,0.749791 1.228681,1.677143 1.619136,2.532802 0.769101,-0.547213 1.767338,-1.045877 2.677873,-1.389781 0.0055,-0.0028 0.01041,-0.0069 0.01561,-0.0089 0.01057,-0.0056 0.02082,-0.01176 0.03127,-0.01775 0.278812,-0.161186 0.499987,-0.430491 0.589694,-0.762852 0.183161,-0.678607 -0.220219,-1.359237 -0.919578,-1.545269 -0.237827,-0.06327 -0.326096,-0.04196 -0.440561,0.01413 -0.114463,0.05615 -0.270238,0.190459 -0.478078,0.398358 A 0.43317019,0.4300252 0 0 1 22.76402,11.132016 c -0.10948,-0.411875 -0.482557,-0.785271 -0.958216,-0.911798 z" />
</svg>
