<?xml version="1.0" encoding="UTF-8" standalone="no"?>
<svg
   xmlns:dc="http://purl.org/dc/elements/1.1/"
   xmlns:cc="http://creativecommons.org/ns#"
   xmlns:rdf="http://www.w3.org/1999/02/22-rdf-syntax-ns#"
   xmlns:svg="http://www.w3.org/2000/svg"
   xmlns="http://www.w3.org/2000/svg"
   xmlns:xlink="http://www.w3.org/1999/xlink"
   xmlns:sodipodi="http://sodipodi.sourceforge.net/DTD/sodipodi-0.dtd"
   xmlns:inkscape="http://www.inkscape.org/namespaces/inkscape"
   version="1.1"
   width="32"
   height="32"
   id="svg4876"
   sodipodi:docname="face-angel.svg"
   inkscape:version="0.92.4 (5da689c313, 2019-01-14)">
  <sodipodi:namedview
     pagecolor="#ffffff"
     bordercolor="#666666"
     borderopacity="1"
     objecttolerance="10"
     gridtolerance="10"
     guidetolerance="10"
     inkscape:pageopacity="0"
     inkscape:pageshadow="2"
     inkscape:window-width="1920"
     inkscape:window-height="1017"
     id="namedview27"
     showgrid="false"
     inkscape:zoom="14.75"
     inkscape:cx="8"
     inkscape:cy="8"
     inkscape:window-x="-8"
     inkscape:window-y="-8"
     inkscape:window-maximized="1"
     inkscape:current-layer="svg4876" />
  <defs
     id="defs4878">
    <linearGradient
       x1="71.204407"
       y1="6.2375584"
       x2="71.204407"
       y2="44.340794"
       id="linearGradient5726-5-4-8-0-8"
       xlink:href="#linearGradient4011-7-0-0-5-3-5"
       gradientUnits="userSpaceOnUse"
       gradientTransform="matrix(0.61486483,0,0,0.61486483,-28.106323,0.59626268)" />
    <linearGradient
       id="linearGradient4011-7-0-0-5-3-5">
      <stop
         id="stop4013-1-0-0-8-8-4"
         style="stop-color:#ffffff;stop-opacity:1"
         offset="0" />
      <stop
         id="stop4015-6-1-4-5-2-5"
         style="stop-color:#ffffff;stop-opacity:0.23529412"
         offset="0.507761" />
      <stop
         id="stop4017-5-2-7-7-3-7"
         style="stop-color:#ffffff;stop-opacity:0.15686275"
         offset="0.83456558" />
      <stop
         id="stop4019-1-1-5-0-7-6"
         style="stop-color:#ffffff;stop-opacity:0.39215687"
         offset="1" />
    </linearGradient>
    <linearGradient
       id="linearGradient4044-1-0-1-6-9-6">
      <stop
         id="stop4046-5-15-6-5-7-4"
         style="stop-color:#fff3cb;stop-opacity:1"
         offset="0" />
      <stop
         id="stop4048-7-8-1-9-7-2"
         style="stop-color:#fdde76;stop-opacity:1"
         offset="0.4334898" />
      <stop
         id="stop4050-0-5-9-1-8-7"
         style="stop-color:#f9c440;stop-opacity:1"
         offset="0.69222504" />
      <stop
         id="stop4052-2-7-1-8-4-5"
         style="stop-color:#e48b20;stop-opacity:1"
         offset="1" />
    </linearGradient>
    <radialGradient
       cx="282.78751"
       cy="533.11218"
       r="6.8303571"
       fx="277.66473"
       fy="533.11218"
       id="radialGradient4874"
       xlink:href="#linearGradient4044-1-0-1-6-9-6"
       gradientUnits="userSpaceOnUse"
       gradientTransform="matrix(0,1.892388,-2.0503297,0,1109.0557,-520.1603)" />
  </defs>
  <metadata
     id="metadata4881">
    <rdf:RDF>
      <cc:Work
         rdf:about="">
        <dc:format>image/svg+xml</dc:format>
        <dc:type
           rdf:resource="http://purl.org/dc/dcmitype/StillImage" />
        <dc:title></dc:title>
      </cc:Work>
    </rdf:RDF>
  </metadata>
  <path
     inkscape:connector-curvature="0"
     style="color:#000000;display:inline;overflow:visible;visibility:visible;fill:url(#radialGradient4874);fill-opacity:1;fill-rule:nonzero;stroke:none;stroke-width:1;stroke-miterlimit:4;stroke-dasharray:none;marker:none;enable-background:accumulate"
     id="path3009-1-5-0-2-1-3"
     d="m 29.125008,16.187538 a 13.125,13.125 0 1 1 -26.2500008,0 13.125,13.125 0 1 1 26.2500008,0 z" />
  <path
     inkscape:connector-curvature="0"
     style="opacity:0.3;fill:none;stroke:#ffffff;stroke-width:1;stroke-linecap:butt;stroke-linejoin:miter;stroke-miterlimit:4;stroke-dasharray:none;stroke-opacity:1"
     id="path3417-3-7"
     d="m 10.750047,23.361499 c 0,0 2.21284,2.158698 5.25,2.230816 3.037177,0.0721 5.25,-2.230816 5.25,-2.230816" />
  <path
     inkscape:connector-curvature="0"
     style="fill:none;stroke:#5e4506;stroke-width:1;stroke-linecap:butt;stroke-linejoin:miter;stroke-miterlimit:4;stroke-dasharray:none;stroke-opacity:1"
     id="path3417-7-7-5"
     d="m 10.750047,21.873586 c 0,0 2.21284,2.552882 5.25,2.625 3.037177,0.0721 5.25,-2.625 5.25,-2.625" />
  <path
     inkscape:connector-curvature="0"
     style="color:#000000;display:inline;overflow:visible;visibility:visible;fill:#43340d;fill-opacity:1;stroke:none;stroke-width:0.99999994;stroke-miterlimit:4;stroke-dasharray:none;marker:none;enable-background:accumulate"
     id="path3964-7-71-6-4"
     d="m 13.812537,14.898272 a 1.3125011,3.5000028 0 1 1 -2.625002,0 1.3125011,3.5000028 0 1 1 2.625002,0 z" />
  <path
     inkscape:connector-curvature="0"
     style="color:#000000;display:inline;overflow:visible;visibility:visible;fill:#43340d;fill-opacity:1;stroke:none;stroke-width:0.99999994;stroke-miterlimit:4;stroke-dasharray:none;marker:none;enable-background:accumulate"
     id="path3964-7-7-2-8-7"
     d="m 18.187493,14.898272 a 1.3125011,3.5000028 0 1 0 2.625002,0 1.3125011,3.5000028 0 1 0 -2.625002,0 z" />
  <path
     inkscape:connector-curvature="0"
     style="color:#000000;display:inline;overflow:visible;visibility:visible;fill:none;stroke:url(#linearGradient5726-5-4-8-0-8);stroke-width:1;stroke-linecap:round;stroke-linejoin:round;stroke-miterlimit:4;stroke-dasharray:none;stroke-dashoffset:0;stroke-opacity:1;marker:none;enable-background:accumulate"
     id="path8655-6-3-8-4-4-9-4"
     d="m 27.3751,16.187013 c 0,6.2825 -5.09313,11.375525 -11.374843,11.375525 -6.2823076,0 -11.3751576,-5.093025 -11.3751576,-11.375525 0,-6.2821503 5.09285,-11.3744753 11.3751576,-11.3744753 6.281713,0 11.374843,5.092325 11.374843,11.3744753 z" />
  <path
     inkscape:connector-curvature="0"
     style="color:#000000;display:inline;overflow:visible;visibility:visible;opacity:0.5;fill:none;stroke:#a53400;stroke-width:1;stroke-miterlimit:4;stroke-dasharray:none;stroke-opacity:1;marker:none;enable-background:accumulate"
     id="path3009-5-8-4-1-5-2-3"
     d="m 29.125008,16.187538 a 13.125,13.125 0 1 1 -26.2500008,0 13.125,13.125 0 1 1 26.2500008,0 z" />
  <path
     inkscape:connector-curvature="0"
     style="color:#000000;display:inline;overflow:visible;visibility:visible;fill:#966500;fill-opacity:0.54509804;fill-rule:nonzero;stroke:none;stroke-width:1;stroke-miterlimit:4;stroke-dasharray:none;marker:none;enable-background:accumulate"
     id="path4880"
     d="m 30,6.5625 a 14,4.375 0 1 1 -28,0 14,4.375 0 1 1 28,0 z" />
  <path
     inkscape:connector-curvature="0"
     style="color:#000000;display:inline;overflow:visible;visibility:visible;fill:#fff9e2;fill-opacity:1;fill-rule:nonzero;stroke:none;stroke-width:1;stroke-miterlimit:4;stroke-dasharray:none;marker:none;enable-background:accumulate"
     id="path4882"
     d="m 16.000012,3.9375027 c -6.7654826,0 -12.2500001,1.1752475 -12.2500001,2.625 0,1.4497526 5.4845175,2.6250001 12.2500001,2.6250001 6.765483,0 12.25,-1.1752475 12.25,-2.6250001 0,-1.4497524 -5.484517,-2.625 -12.25,-2.625 z m 0,1.75 c 5.798993,0 10.5,0.391755 10.5,0.875 0,0.4832451 -4.701007,0.875 -10.5,0.875 -5.798993,0 -10.5000001,-0.3917549 -10.5000001,-0.875 0,-0.483245 4.7010071,-0.875 10.5000001,-0.875 z" />
</svg>
