<?xml version="1.0" encoding="UTF-8" standalone="no"?>
<svg
   xmlns:dc="http://purl.org/dc/elements/1.1/"
   xmlns:cc="http://creativecommons.org/ns#"
   xmlns:rdf="http://www.w3.org/1999/02/22-rdf-syntax-ns#"
   xmlns:svg="http://www.w3.org/2000/svg"
   xmlns="http://www.w3.org/2000/svg"
   xmlns:xlink="http://www.w3.org/1999/xlink"
   xmlns:sodipodi="http://sodipodi.sourceforge.net/DTD/sodipodi-0.dtd"
   xmlns:inkscape="http://www.inkscape.org/namespaces/inkscape"
   version="1.1"
   width="32"
   height="32"
   id="svg4170"
   sodipodi:docname="face-kiss.svg"
   inkscape:version="0.92.4 (5da689c313, 2019-01-14)">
  <sodipodi:namedview
     pagecolor="#ffffff"
     bordercolor="#666666"
     borderopacity="1"
     objecttolerance="10"
     gridtolerance="10"
     guidetolerance="10"
     inkscape:pageopacity="0"
     inkscape:pageshadow="2"
     inkscape:window-width="928"
     inkscape:window-height="575"
     id="namedview61"
     showgrid="false"
     inkscape:zoom="5.2149125"
     inkscape:cx="3.3050096"
     inkscape:cy="34.525508"
     inkscape:window-x="0"
     inkscape:window-y="0"
     inkscape:window-maximized="0"
     inkscape:current-layer="svg4170" />
  <defs
     id="defs4172">
    <linearGradient
       x1="200.23929"
       y1="1020.5864"
       x2="200.23929"
       y2="1031.7922"
       id="linearGradient4084"
       xlink:href="#linearGradient8687-5-3-4"
       gradientUnits="userSpaceOnUse"
       gradientTransform="matrix(0.46485546,0.1236533,-0.12455765,0.46148041,60.409617,-485.77258)" />
    <linearGradient
       id="linearGradient8687-5-3-4">
      <stop
         id="stop8689-7-1-9"
         style="stop-color:#ffffff;stop-opacity:1"
         offset="0" />
      <stop
         id="stop8691-3-8-4"
         style="stop-color:#ffffff;stop-opacity:0.23529412"
         offset="0.24566023" />
      <stop
         id="stop8693-6-4-9"
         style="stop-color:#ffffff;stop-opacity:0.15686275"
         offset="0.69259435" />
      <stop
         id="stop8695-6-2-7"
         style="stop-color:#ffffff;stop-opacity:0.39215687"
         offset="1" />
    </linearGradient>
    <radialGradient
       cx="196"
       cy="1026.3622"
       r="7.5"
       fx="196.37857"
       fy="1023.4138"
       id="radialGradient4091"
       xlink:href="#linearGradient8810-7-8"
       gradientUnits="userSpaceOnUse"
       gradientTransform="matrix(0.58459187,0.15664092,-0.13575546,0.5066463,48.359325,-538.50407)" />
    <linearGradient
       id="linearGradient8810-7-8">
      <stop
         id="stop8812-8-1"
         style="stop-color:#fda767;stop-opacity:1"
         offset="0" />
      <stop
         id="stop8814-3-4"
         style="stop-color:#d94500;stop-opacity:1"
         offset="1" />
    </linearGradient>
    <linearGradient
       x1="200.23929"
       y1="1020.5864"
       x2="200.23929"
       y2="1031.7922"
       id="linearGradient4074"
       xlink:href="#linearGradient8687-5-3"
       gradientUnits="userSpaceOnUse"
       gradientTransform="matrix(0.70683349,-0.18880164,0.18939546,0.70461727,-321.66824,-673.78101)" />
    <linearGradient
       id="linearGradient8687-5-3">
      <stop
         id="stop8689-7-1"
         style="stop-color:#ffffff;stop-opacity:1"
         offset="0" />
      <stop
         id="stop8691-3-8"
         style="stop-color:#ffffff;stop-opacity:0.23529412"
         offset="0.24566023" />
      <stop
         id="stop8693-6-4"
         style="stop-color:#ffffff;stop-opacity:0.15686275"
         offset="0.69259435" />
      <stop
         id="stop8695-6-2"
         style="stop-color:#ffffff;stop-opacity:0.39215687"
         offset="1" />
    </linearGradient>
    <radialGradient
       cx="196"
       cy="1026.3622"
       r="7.5"
       fx="196.37857"
       fy="1023.4138"
       id="radialGradient4081"
       xlink:href="#linearGradient8810-7"
       gradientUnits="userSpaceOnUse"
       gradientTransform="matrix(0.8101414,-0.21707674,0.18813317,0.70212254,-340.55632,-665.60092)" />
    <linearGradient
       id="linearGradient8810-7">
      <stop
         id="stop8812-8"
         style="stop-color:#fda767;stop-opacity:1"
         offset="0" />
      <stop
         id="stop8814-3"
         style="stop-color:#d94500;stop-opacity:1"
         offset="1" />
    </linearGradient>
    <linearGradient
       x1="71.204407"
       y1="6.2375584"
       x2="71.204407"
       y2="44.340794"
       id="linearGradient5726-5-4-8-0"
       xlink:href="#linearGradient4011-7-0-0-5-3"
       gradientUnits="userSpaceOnUse"
       gradientTransform="matrix(0.61486483,0,0,0.61486483,-28.106416,0.4087303)" />
    <linearGradient
       id="linearGradient4011-7-0-0-5-3">
      <stop
         id="stop4013-1-0-0-8-8"
         style="stop-color:#ffffff;stop-opacity:1"
         offset="0" />
      <stop
         id="stop4015-6-1-4-5-2"
         style="stop-color:#ffffff;stop-opacity:0.23529412"
         offset="0.507761" />
      <stop
         id="stop4017-5-2-7-7-3"
         style="stop-color:#ffffff;stop-opacity:0.15686275"
         offset="0.83456558" />
      <stop
         id="stop4019-1-1-5-0-7"
         style="stop-color:#ffffff;stop-opacity:0.39215687"
         offset="1" />
    </linearGradient>
    <linearGradient
       x1="7.0285702"
       y1="-0.14285773"
       x2="10.142858"
       y2="15.314286"
       id="linearGradient4048"
       xlink:href="#linearGradient4044-1-0-1-6-9"
       gradientUnits="userSpaceOnUse"
       gradientTransform="matrix(1.75,0,0,1.75,2.0000067,2.000007)" />
    <linearGradient
       id="linearGradient4044-1-0-1-6-9">
      <stop
         id="stop4046-5-15-6-5-7"
         style="stop-color:#fff3cb;stop-opacity:1"
         offset="0" />
      <stop
         id="stop4048-7-8-1-9-7"
         style="stop-color:#fdde76;stop-opacity:1"
         offset="0.4334898" />
      <stop
         id="stop4050-0-5-9-1-8"
         style="stop-color:#f9c440;stop-opacity:1"
         offset="0.69222504" />
      <stop
         id="stop4052-2-7-1-8-4"
         style="stop-color:#e48b20;stop-opacity:1"
         offset="1" />
    </linearGradient>
    <linearGradient
       x1="284.22501"
       y1="532.26221"
       x2="280.82501"
       y2="538.21216"
       id="linearGradient3968"
       xlink:href="#linearGradient4044-1-0-1-6-9-8"
       gradientUnits="userSpaceOnUse"
       gradientTransform="matrix(2.0588236,0,0,2.0588236,-567.41913,-1081.5839)" />
    <linearGradient
       id="linearGradient4044-1-0-1-6-9-8">
      <stop
         id="stop4048-7-8-1-9-7-5"
         style="stop-color:#fdde76;stop-opacity:0"
         offset="0" />
      <stop
         id="stop4052-2-7-1-8-4-6"
         style="stop-color:#e48b20;stop-opacity:1"
         offset="1" />
    </linearGradient>
    <radialGradient
       cx="282.78751"
       cy="533.11218"
       r="6.8303571"
       fx="277.66473"
       fy="533.11218"
       id="radialGradient4168"
       xlink:href="#linearGradient4044-1-0-1-6-9"
       gradientUnits="userSpaceOnUse"
       gradientTransform="matrix(0,1.8923879,-2.0503296,0,1109.0557,-520.34784)" />
  </defs>
  <metadata
     id="metadata4175">
    <rdf:RDF>
      <cc:Work
         rdf:about="">
        <dc:format>image/svg+xml</dc:format>
        <dc:type
           rdf:resource="http://purl.org/dc/dcmitype/StillImage" />
        <dc:title></dc:title>
      </cc:Work>
    </rdf:RDF>
  </metadata>
  <path
     inkscape:connector-curvature="0"
     style="color:#000000;display:inline;overflow:visible;visibility:visible;fill:url(#radialGradient4168);fill-opacity:1;fill-rule:nonzero;stroke:none;stroke-width:1;marker:none;enable-background:accumulate;stroke-miterlimit:4;stroke-dasharray:none"
     id="path3009-1-5-0-2-1"
     d="M 29.125,16 A 13.125,13.125 0 1 1 2.8750001,16 13.125,13.125 0 1 1 29.125,16 Z" />
  <path
     inkscape:connector-curvature="0"
     style="color:#000000;display:inline;overflow:visible;visibility:visible;fill:url(#linearGradient3968);fill-opacity:1;fill-rule:nonzero;stroke:none;stroke-width:1;marker:none;enable-background:accumulate;stroke-miterlimit:4;stroke-dasharray:none"
     id="path3009-1-5-0-2-1-0"
     d="M 29.125,16 A 13.125,13.125 0 1 1 2.8750001,16 13.125,13.125 0 1 1 29.125,16 Z" />
  <path
     inkscape:connector-curvature="0"
     style="color:#000000;display:inline;overflow:visible;visibility:visible;opacity:0.5;fill:none;stroke:#a53400;stroke-width:1;stroke-linecap:butt;stroke-linejoin:round;stroke-miterlimit:4;stroke-dasharray:none;stroke-dashoffset:0;stroke-opacity:1;marker:none;enable-background:accumulate"
     id="path3028"
     d="M 29.125,16 C 29.125,23.248747 23.248747,29.125 16,29.125 8.7512532,29.125 2.8750001,23.248747 2.8750001,16 2.8750001,8.751274 8.7512532,2.875 16,2.875 23.248747,2.875 29.125,8.751274 29.125,16 Z" />
  <path
     inkscape:connector-curvature="0"
     style="color:#000000;display:inline;overflow:visible;visibility:visible;fill:url(#linearGradient4048);fill-opacity:1;fill-rule:nonzero;stroke:none;stroke-width:1;marker:none;enable-background:accumulate;stroke-miterlimit:4;stroke-dasharray:none"
     id="path4027-5"
     d="m 19.500007,18.625007 h 7.107088 l -4.482088,3.5 4.275,3.175 c 0,0 -2.869325,2.737592 -8.65,3.675" />
  <path
     inkscape:connector-curvature="0"
     style="color:#000000;display:inline;overflow:visible;visibility:visible;opacity:0.5;fill:none;stroke:#a53400;stroke-width:1;stroke-linecap:butt;stroke-linejoin:round;stroke-miterlimit:4;stroke-dasharray:none;stroke-dashoffset:0;stroke-opacity:1;marker:none;enable-background:accumulate"
     id="path4027"
     d="m 19.500007,18.625007 h 7.107088 l -4.482088,3.5 4.275,3.175 c 0,0 -1.952951,1.863288 -5.88245,3.041803 -0.83351,0.249982 -1.755952,0.469154 -2.76755,0.633197"
     sodipodi:nodetypes="ccccsc" />
  <path
     inkscape:connector-curvature="0"
     style="color:#000000;display:inline;overflow:visible;visibility:visible;fill:none;stroke:url(#linearGradient5726-5-4-8-0);stroke-width:1;stroke-linecap:round;stroke-linejoin:round;stroke-miterlimit:4;stroke-dasharray:none;stroke-dashoffset:0;stroke-opacity:1;marker:none;enable-background:accumulate"
     id="path8655-6-3-8-4-4-9"
     d="m 27.320267,17.122555 c 0.03621,-0.369458 0.05474,-0.744102 0.05474,-1.123075 v 0 c 0,-6.28215 -5.09313,-11.374475 -11.374843,-11.374475 -6.2823075,0 -11.3751575,5.092325 -11.3751575,11.374475 0,6.282502 5.09285,11.375527 11.3751575,11.375527 2.646452,0 5.081941,-0.903955 7.01451,-2.419981 0,0 -2.455553,-1.763765 -3.414749,-2.430064 l 1.899999,-2.149999 h -1.999999" />
  <path
     inkscape:connector-curvature="0"
     style="color:#000000;display:inline;overflow:visible;visibility:visible;fill:url(#radialGradient4081);fill-opacity:1;stroke:none;stroke-width:1;marker:none;enable-background:accumulate;stroke-miterlimit:4;stroke-dasharray:none"
     id="path7461-1-4-6"
     d="m 7.2549085,7.930453 c -1.8875891,0.505777 -3.0116769,2.431404 -2.5107072,4.301048 0.2608176,0.973385 0.9229329,1.739474 1.7531845,2.175794 2.1627192,0.815784 4.8352002,2.106005 6.2377962,3.342712 0.596331,-1.77232 2.265657,-4.225923 3.730734,-6.013772 0.500859,-0.79299 0.691224,-1.7875 0.430406,-2.760885 C 16.395353,7.105706 14.45905,6.000108 12.571461,6.505886 11.295732,6.847717 11.065041,7.649242 10.752772,8.832537 9.890692,7.963907 8.530638,7.588622 7.2549085,7.930453 Z" />
  <path
     inkscape:connector-curvature="0"
     style="color:#000000;display:inline;overflow:visible;visibility:visible;fill:none;stroke:#ff0b0a;stroke-width:1;stroke-opacity:1;marker:none;enable-background:accumulate;stroke-miterlimit:4;stroke-dasharray:none"
     id="path8633-64-7"
     d="m 7.3662323,8.345901 c -1.6706008,0.447636 -2.660007,2.123571 -2.2190375,3.769293 0.2289726,0.854538 0.8172409,1.536737 1.5454584,1.919558 1.9940514,0.755739 4.3405528,1.882538 5.8689398,3.067393 0.731195,-1.790308 2.199924,-3.939395 3.548954,-5.590911 C 16.549808,10.81559 16.718169,9.930738 16.489174,9.07612 16.048205,7.430399 14.353386,6.473698 12.682785,6.921334 12.11678,7.072995 11.842312,7.275482 11.638495,7.581035 11.434677,7.886589 11.314222,8.342164 11.158945,8.93063 A 0.42478993,0.42478993 0 0 1 10.450072,9.120573 C 9.7038861,8.368674 8.498251,8.042577 7.3662323,8.345901 Z" />
  <path
     inkscape:connector-curvature="0"
     style="color:#000000;display:inline;overflow:visible;visibility:visible;opacity:0.3;fill:none;stroke:#000000;stroke-width:1;stroke-opacity:1;marker:none;enable-background:accumulate;stroke-miterlimit:4;stroke-dasharray:none"
     id="path7461-1-5-3-9"
     d="m 7.2549085,7.930453 c -1.8875891,0.505777 -3.0116769,2.431404 -2.5107072,4.301048 0.2608176,0.973385 0.9229329,1.739474 1.7531845,2.175794 2.1627192,0.815784 4.8352002,2.106005 6.2377962,3.342712 0.596331,-1.77232 2.265657,-4.225923 3.730734,-6.013772 0.500859,-0.79299 0.691224,-1.7875 0.430406,-2.760885 C 16.395353,7.105706 14.45905,6.000108 12.571461,6.505886 11.295732,6.847717 11.065041,7.649242 10.752772,8.832537 9.890692,7.963907 8.530638,7.588622 7.2549085,7.930453 Z" />
  <path
     inkscape:connector-curvature="0"
     style="color:#000000;display:inline;overflow:visible;visibility:visible;opacity:0.1;fill:none;stroke:#f50100;stroke-width:1;stroke-opacity:1;marker:none;enable-background:accumulate;stroke-miterlimit:4;stroke-dasharray:none"
     id="path8633-2-4-1"
     d="m 7.5765363,9.130765 c -1.2519602,0.335463 -1.969763,1.5603 -1.6445169,2.774135 0.1643058,0.613197 0.5868501,1.104144 1.1041647,1.386573 0.010273,0.006 0.02195,0.01313 0.032006,0.01834 1.7492119,0.66687 3.6235489,1.619926 5.1948389,2.678235 0.831622,-1.702168 1.978318,-3.464706 3.159744,-4.916841 0.0069,-0.0105 0.01122,-0.02298 0.01855,-0.03188 0.306835,-0.503258 0.427298,-1.13953 0.26295,-1.752887 C 15.379026,8.072605 14.144972,7.370764 12.893012,7.706227 12.465646,7.820747 12.433217,7.896287 12.33288,8.046211 12.23263,8.196466 12.104594,8.570275 11.950963,9.15257 A 1.2443597,1.2443597 0 0 1 9.8749722,9.708824 C 9.352449,9.18232 8.4311731,8.90168 7.5764553,9.130788 Z" />
  <path
     inkscape:connector-curvature="0"
     style="color:#000000;display:inline;overflow:visible;visibility:visible;opacity:0.05;fill:none;stroke:#e10100;stroke-width:1;stroke-opacity:1;marker:none;enable-background:accumulate;stroke-miterlimit:4;stroke-dasharray:none"
     id="path8633-24-2-4"
     d="m 13.067448,8.559471 c -0.262737,0.591384 -0.29819,1.297178 -0.797019,1.764096 -0.84341,0.931056 -2.3725661,0.780735 -3.1763143,-0.117679 -0.7521869,-0.478077 -1.9247322,-0.21634 -2.2674094,0.646624 -0.265878,0.632777 0.030735,1.423082 0.6437147,1.730412 0.391515,0.202648 0.8554145,0.348302 1.2666997,0.547738 1.1020127,0.491662 2.1721483,1.053865 3.2083373,1.672051 0.810733,-1.449623 1.726898,-2.843011 2.772374,-4.134636 C 14.901942,10.2986 15.013903,9.832709 14.83915,9.425931 14.613271,8.740753 13.80537,8.381368 13.131693,8.596699 Z" />
  <path
     inkscape:connector-curvature="0"
     style="color:#000000;display:inline;overflow:visible;visibility:visible;opacity:0.5;fill:none;stroke:url(#linearGradient4074);stroke-width:1;stroke-opacity:1;marker:none;enable-background:accumulate;stroke-miterlimit:4;stroke-dasharray:none"
     id="path8633-6-6-0"
     d="m 7.9127752,9.203567 c -1.251067,0.334171 -1.9726645,1.556793 -1.6450104,2.77578 0.1604557,0.596953 0.5561491,1.080774 1.0548895,1.37032 0.018791,0.007 0.037126,0.02482 0.055919,0.03188 0.00945,0.0051 0.018398,0.01085 0.027925,0.01593 1.6288319,0.61775 3.4145557,1.513507 4.7903837,2.49647 0.698474,-1.537029 1.79567,-3.202838 2.89643,-4.549694 0.006,-0.0091 0.0099,-0.02 0.01619,-0.02774 0.01127,-0.01811 0.02171,-0.03677 0.03243,-0.05549 0.28671,-0.499349 0.386717,-1.115499 0.226242,-1.712522 C 15.04052,8.329514 13.802365,7.630361 12.551298,7.964532 12.125855,8.078177 12.008292,8.190004 11.881562,8.379427 11.754833,8.568851 11.634503,8.916667 11.499827,9.4254 A 0.7748878,0.77245821 0 0 1 10.218692,9.767646 C 9.6779928,9.224532 8.7635979,8.976305 7.9127045,9.203586 Z" />
  <path
     inkscape:connector-curvature="0"
     style="color:#000000;display:inline;overflow:visible;visibility:visible;fill:url(#radialGradient4091);fill-opacity:1;stroke:none;stroke-width:1;marker:none;enable-background:accumulate;stroke-miterlimit:4;stroke-dasharray:none"
     id="path7461-1-4-6-8"
     d="m 22.705025,7.886335 c -1.36207,-0.364966 -2.759291,0.432826 -3.120787,1.781946 -0.188204,0.702387 -0.05084,1.420018 0.310578,1.992233 1.057189,1.290099 2.261761,3.060602 2.692068,4.339493 1.012104,-0.892399 2.940545,-1.823412 4.501147,-2.412076 0.599102,-0.314844 1.07688,-0.867648 1.265084,-1.570035 C 28.714611,10.668774 27.903479,9.279256 26.541408,8.91429 25.620852,8.667628 25.187502,9.085283 24.565431,9.712078 24.340101,8.858222 23.625581,8.132997 22.705025,7.886335 Z" />
  <path
     inkscape:connector-curvature="0"
     style="color:#000000;display:inline;overflow:visible;visibility:visible;fill:none;stroke:#ff0b0a;stroke-width:1;stroke-opacity:1;marker:none;enable-background:accumulate;stroke-miterlimit:4;stroke-dasharray:none"
     id="path8633-64-7-4"
     d="m 22.624698,8.186121 c -1.205492,-0.323012 -2.428461,0.367335 -2.746661,1.554875 -0.165218,0.616628 -0.04373,1.255192 0.273215,1.757161 0.97345,1.19172 2.033274,2.742486 2.560897,4.034359 1.102873,-0.854982 2.796091,-1.668072 4.234983,-2.213409 0.525488,-0.276236 0.949951,-0.768452 1.115191,-1.385137 0.318201,-1.18754 -0.395747,-2.396883 -1.60124,-2.719894 -0.408425,-0.109445 -0.653002,-0.08192 -0.890613,0.03549 -0.237612,0.117407 -0.477257,0.358647 -0.786608,0.670365 A 0.30652517,0.30652517 0 0 1 24.272344,9.782871 C 24.077323,9.043775 23.441555,8.405004 22.624698,8.186128 Z" />
  <path
     inkscape:connector-curvature="0"
     style="color:#000000;display:inline;overflow:visible;visibility:visible;opacity:0.3;fill:none;stroke:#000000;stroke-width:1;stroke-opacity:1;marker:none;enable-background:accumulate;stroke-miterlimit:4;stroke-dasharray:none"
     id="path7461-1-5-3-9-2"
     d="m 22.705025,7.886335 c -1.36207,-0.364966 -2.759291,0.432826 -3.120787,1.781946 -0.188204,0.702387 -0.05084,1.420018 0.310578,1.992233 1.057189,1.290099 2.261761,3.060602 2.692068,4.339493 1.012104,-0.892399 2.940545,-1.823412 4.501147,-2.412076 0.599102,-0.314844 1.07688,-0.867648 1.265084,-1.570035 C 28.714611,10.668774 27.903479,9.279256 26.541408,8.91429 25.620852,8.667628 25.187502,9.085283 24.565431,9.712078 24.340101,8.858222 23.625581,8.132997 22.705025,7.886335 Z" />
  <path
     inkscape:connector-curvature="0"
     style="color:#000000;display:inline;overflow:visible;visibility:visible;opacity:0.1;fill:none;stroke:#f50100;stroke-width:1;stroke-opacity:1;marker:none;enable-background:accumulate;stroke-miterlimit:4;stroke-dasharray:none"
     id="path8633-2-4-1-0"
     d="m 22.472945,8.752473 c -0.903404,-0.242067 -1.79389,0.264374 -2.028584,1.140269 -0.118562,0.442478 -0.03164,0.901733 0.189742,1.264872 0.0042,0.0074 0.0089,0.0161 0.0133,0.02301 0.852509,1.047849 1.679956,2.319683 2.280049,3.547953 1.13383,-0.763666 2.486337,-1.451385 3.748556,-1.932595 0.0081,-0.004 0.01523,-0.01033 0.0231,-0.0133 0.373319,-0.203789 0.678163,-0.557943 0.796757,-1.000539 0.234695,-0.875893 -0.283267,-1.759727 -1.186671,-2.001794 -0.308383,-0.08263 -0.355906,-0.04711 -0.472701,0.01033 -0.116865,0.05773 -0.331741,0.245131 -0.637837,0.553588 A 0.89792049,0.89792048 0 0 1 23.700717,9.94298 C 23.564147,9.425435 23.089677,8.917666 22.472888,8.75246 Z" />
  <path
     inkscape:connector-curvature="0"
     style="color:#000000;display:inline;overflow:visible;visibility:visible;opacity:0.05;fill:none;stroke:#e10100;stroke-width:1;stroke-opacity:1;marker:none;enable-background:accumulate;stroke-miterlimit:4;stroke-dasharray:none"
     id="path8633-24-2-4-2"
     d="m 26.110434,10.376562 c -0.377559,0.274771 -0.654362,0.703044 -1.134551,0.814853 C 24.1129,11.468949 23.21154,10.823295 23.033407,9.971873 22.735841,9.401728 21.908663,9.142242 21.383164,9.557886 c -0.394455,0.299506 -0.494235,0.900398 -0.222057,1.313615 0.171552,0.267895 0.408898,0.526291 0.59396,0.79931 0.511277,0.704851 0.977183,1.442282 1.401677,2.202451 1.02966,-0.613386 2.104916,-1.153588 3.224266,-1.583544 0.24836,-0.164465 0.486418,-0.415214 0.523975,-0.732468 0.10605,-0.509675 -0.269152,-1.025748 -0.767835,-1.134245 z" />
  <path
     inkscape:connector-curvature="0"
     style="color:#000000;display:inline;overflow:visible;visibility:visible;opacity:0.5;fill:none;stroke:url(#linearGradient4084);stroke-width:1;stroke-opacity:1;marker:none;enable-background:accumulate;stroke-miterlimit:4;stroke-dasharray:none"
     id="path8633-6-6-0-8"
     d="m 22.830407,9.200387 c -0.822774,-0.218862 -1.637058,0.23904 -1.852544,1.037402 -0.105525,0.390966 -0.03976,0.794556 0.148785,1.121594 0.0084,0.01015 0.01295,0.0262 0.02133,0.03635 0.0037,0.0059 0.0068,0.01225 0.0105,0.01816 0.723926,0.882107 1.445507,1.973109 1.904865,2.979767 0.904825,-0.64378 2.079222,-1.230444 3.150439,-1.635037 0.0065,-0.0033 0.01225,-0.0081 0.01837,-0.0105 0.01243,-0.0066 0.0245,-0.01383 0.03679,-0.02088 0.328015,-0.18963 0.58822,-0.50646 0.693758,-0.897473 0.215484,-0.798361 -0.259081,-1.599102 -1.081856,-1.817963 -0.279797,-0.07443 -0.383643,-0.04937 -0.518308,0.01662 -0.134662,0.06606 -0.317927,0.224069 -0.562444,0.468656 A 0.50961199,0.505912 0 0 1 23.95767,10.27296 C 23.82887,9.788401 23.389957,9.349112 22.830358,9.200257 Z" />
</svg>
