<?xml version="1.0" encoding="UTF-8" standalone="no"?>
<svg
   xmlns:dc="http://purl.org/dc/elements/1.1/"
   xmlns:cc="http://creativecommons.org/ns#"
   xmlns:rdf="http://www.w3.org/1999/02/22-rdf-syntax-ns#"
   xmlns:svg="http://www.w3.org/2000/svg"
   xmlns="http://www.w3.org/2000/svg"
   xmlns:xlink="http://www.w3.org/1999/xlink"
   xmlns:sodipodi="http://sodipodi.sourceforge.net/DTD/sodipodi-0.dtd"
   xmlns:inkscape="http://www.inkscape.org/namespaces/inkscape"
   id="svg3182"
   height="32"
   width="32"
   version="1.1"
   sodipodi:docname="filetype-contact.svg"
   inkscape:version="0.92.4 (5da689c313, 2019-01-14)">
  <sodipodi:namedview
     pagecolor="#ffffff"
     bordercolor="#666666"
     borderopacity="1"
     objecttolerance="10"
     gridtolerance="10"
     guidetolerance="10"
     inkscape:pageopacity="0"
     inkscape:pageshadow="2"
     inkscape:window-width="2880"
     inkscape:window-height="1706"
     id="namedview54"
     showgrid="false"
     inkscape:zoom="7.375"
     inkscape:cx="-1.4237288"
     inkscape:cy="16"
     inkscape:window-x="-11"
     inkscape:window-y="-11"
     inkscape:window-maximized="1"
     inkscape:current-layer="svg3182" />
  <defs
     id="defs3184">
    <linearGradient
       id="linearGradient3977">
      <stop
         offset="0"
         style="stop-color:#ffffff;stop-opacity:1"
         id="stop3979" />
      <stop
         offset="0"
         style="stop-color:#ffffff;stop-opacity:0.23529412"
         id="stop3981" />
      <stop
         offset="0.99999994"
         style="stop-color:#ffffff;stop-opacity:0.15686275"
         id="stop3983" />
      <stop
         offset="1"
         style="stop-color:#ffffff;stop-opacity:0.39215687"
         id="stop3985" />
    </linearGradient>
    <linearGradient
       id="linearGradient3600-4">
      <stop
         offset="0"
         style="stop-color:#f4f4f4;stop-opacity:1"
         id="stop3602-7" />
      <stop
         offset="1"
         style="stop-color:#dbdbdb;stop-opacity:1"
         id="stop3604-6" />
    </linearGradient>
    <linearGradient
       id="linearGradient5060">
      <stop
         offset="0"
         style="stop-color:#000000;stop-opacity:1"
         id="stop5062" />
      <stop
         offset="1"
         style="stop-color:#000000;stop-opacity:0"
         id="stop5064" />
    </linearGradient>
    <linearGradient
       id="linearGradient5048">
      <stop
         offset="0"
         style="stop-color:#000000;stop-opacity:0"
         id="stop5050" />
      <stop
         offset="0.5"
         style="stop-color:#000000;stop-opacity:1"
         id="stop5056" />
      <stop
         offset="1"
         style="stop-color:#000000;stop-opacity:0"
         id="stop5052" />
    </linearGradient>
    <linearGradient
       gradientTransform="matrix(0.48243243,0,0,0.62027025,4.4216247,0.18851835)"
       gradientUnits="userSpaceOnUse"
       xlink:href="#linearGradient3977"
       id="linearGradient3013"
       y2="41.814808"
       x2="23.99999"
       y1="6.1851754"
       x1="23.99999" />
    <linearGradient
       gradientTransform="matrix(0.53428447,0,0,0.51713483,3.1771718,1.8704268)"
       gradientUnits="userSpaceOnUse"
       xlink:href="#linearGradient3600-4"
       id="linearGradient3016"
       y2="47.013336"
       x2="25.132275"
       y1="0.98520643"
       x1="25.132275" />
    <radialGradient
       gradientTransform="matrix(0.0133137,0,0,0.007,17.368868,24.408479)"
       gradientUnits="userSpaceOnUse"
       xlink:href="#linearGradient5060"
       id="radialGradient3021"
       fy="486.64789"
       fx="605.71429"
       r="117.14286"
       cy="486.64789"
       cx="605.71429" />
    <radialGradient
       gradientTransform="matrix(-0.0133137,0,0,0.007,14.631131,24.408479)"
       gradientUnits="userSpaceOnUse"
       xlink:href="#linearGradient5060"
       id="radialGradient3024"
       fy="486.64789"
       fx="605.71429"
       r="117.14286"
       cy="486.64789"
       cx="605.71429" />
    <linearGradient
       gradientTransform="matrix(0.03890389,0,0,0.007,1.9390243,24.408464)"
       gradientUnits="userSpaceOnUse"
       xlink:href="#linearGradient5048"
       id="linearGradient3027"
       y2="609.50507"
       x2="302.85715"
       y1="366.64789"
       x1="302.85715" />
    <linearGradient
       id="linearGradient3104-6">
      <stop
         id="stop3106-3"
         style="stop-color:#000000;stop-opacity:0.31782946"
         offset="0" />
      <stop
         id="stop3108-9"
         style="stop-color:#000000;stop-opacity:0.24031007"
         offset="1" />
    </linearGradient>
    <linearGradient
       y2="2.9062471"
       x2="-51.786404"
       y1="50.786446"
       x1="-51.786404"
       gradientTransform="matrix(0.4510452,0,0,0.50124542,35.779166,0.8018684)"
       gradientUnits="userSpaceOnUse"
       id="linearGradient3148"
       xlink:href="#linearGradient3104-6" />
    <linearGradient
       x1="23.99999"
       y1="14.915504"
       x2="23.99999"
       y2="32.595779"
       id="linearGradient3032"
       xlink:href="#linearGradient3195"
       gradientUnits="userSpaceOnUse"
       gradientTransform="matrix(0.42727035,0,0,0.54935395,4.7050487,3.0017491)" />
    <linearGradient
       id="linearGradient3195">
      <stop
         id="stop3197"
         style="stop-color:#ffffff;stop-opacity:1"
         offset="0" />
      <stop
         id="stop3199"
         style="stop-color:#ffffff;stop-opacity:0.23529412"
         offset="0.12291458" />
      <stop
         id="stop3201"
         style="stop-color:#ffffff;stop-opacity:0.15686275"
         offset="0.93706012" />
      <stop
         id="stop3203"
         style="stop-color:#ffffff;stop-opacity:0.39215687"
         offset="1" />
    </linearGradient>
    <radialGradient
       cx="10.90426"
       cy="8.4497671"
       r="19.99999"
       fx="10.90426"
       fy="8.4497671"
       id="radialGradient3035"
       xlink:href="#linearGradient2867-449-88-871-390-598-476-591-434-148-57-177-641-289-620-227-114-444-680-744-8-7"
       gradientUnits="userSpaceOnUse"
       gradientTransform="matrix(0,0.82379861,-0.7052108,0,21.962074,0.80756085)" />
    <linearGradient
       id="linearGradient2867-449-88-871-390-598-476-591-434-148-57-177-641-289-620-227-114-444-680-744-8-7">
      <stop
         id="stop5430-8-6"
         style="stop-color:#5f5f5f;stop-opacity:1"
         offset="0" />
      <stop
         id="stop5432-3-5"
         style="stop-color:#4f4f4f;stop-opacity:1"
         offset="0.26238" />
      <stop
         id="stop5434-1-6"
         style="stop-color:#3b3b3b;stop-opacity:1"
         offset="0.704952" />
      <stop
         id="stop5436-8-9"
         style="stop-color:#2b2b2b;stop-opacity:1"
         offset="1" />
    </linearGradient>
    <linearGradient
       x1="24"
       y1="44"
       x2="24"
       y2="3.8990016"
       id="linearGradient3037"
       xlink:href="#linearGradient3707-319-631-407-324-616-674-812-821-107-178-392-400-6-7"
       gradientUnits="userSpaceOnUse"
       gradientTransform="matrix(0.55783332,0,0,0.58589242,2.6151464,2.1455462)" />
    <linearGradient
       id="linearGradient3707-319-631-407-324-616-674-812-821-107-178-392-400-6-7">
      <stop
         id="stop5440-4-4"
         style="stop-color:#272727;stop-opacity:1"
         offset="0" />
      <stop
         id="stop5442-3-5"
         style="stop-color:#454545;stop-opacity:1"
         offset="1" />
    </linearGradient>
  </defs>
  <metadata
     id="metadata3187">
    <rdf:RDF>
      <cc:Work
         rdf:about="">
        <dc:format>image/svg+xml</dc:format>
        <dc:type
           rdf:resource="http://purl.org/dc/dcmitype/StillImage" />
        <dc:title />
      </cc:Work>
    </rdf:RDF>
  </metadata>
  <rect
     style="display:inline;overflow:visible;visibility:visible;opacity:0.15;fill:url(#linearGradient3027);fill-opacity:1;fill-rule:nonzero;stroke:none;stroke-width:1;marker:none;stroke-miterlimit:4;stroke-dasharray:none"
     id="rect2879"
     y="26.974998"
     x="6.607491"
     height="1.7"
     width="18.785019" />
  <path
     style="display:inline;overflow:visible;visibility:visible;opacity:0.15;fill:url(#radialGradient3024);fill-opacity:1;fill-rule:nonzero;stroke:none;stroke-width:1;marker:none;stroke-miterlimit:4;stroke-dasharray:none"
     id="path2881"
     d="m 6.6074904,26.975072 c 0,0 0,1.699906 0,1.699906 -0.6856228,0.0032 -1.6575017,-0.380863 -1.6575017,-0.850063 0,-0.4692 0.7651028,-0.849843 1.6575017,-0.849843 z"
     inkscape:connector-curvature="0" />
  <path
     style="display:inline;overflow:visible;visibility:visible;opacity:0.15;fill:url(#radialGradient3021);fill-opacity:1;fill-rule:nonzero;stroke:none;stroke-width:1;marker:none;stroke-miterlimit:4;stroke-dasharray:none"
     id="path2883"
     d="m 25.392509,26.975072 c 0,0 0,1.699906 0,1.699906 0.685622,0.0032 1.657502,-0.380863 1.657502,-0.850063 0,-0.4692 -0.765104,-0.849843 -1.657502,-0.849843 z"
     inkscape:connector-curvature="0" />
  <path
     style="display:inline;fill:url(#linearGradient3016);fill-opacity:1;stroke:none;stroke-width:1;stroke-miterlimit:4;stroke-dasharray:none"
     id="path4160-3"
     d="m 6.65,3.1749987 c 4.285119,0 18.699977,0.00152 18.699977,0.00152 L 25.35,26.974999 c 0,0 -12.466666,0 -18.7,0 0,-7.933333 0,-15.866665 0,-23.7999968 z"
     inkscape:connector-curvature="0" />
  <path
     style="fill:none;stroke:url(#linearGradient3013);stroke-width:1;stroke-linecap:round;stroke-linejoin:miter;stroke-miterlimit:4;stroke-dasharray:none;stroke-dashoffset:0;stroke-opacity:1"
     id="rect6741-1"
     d="M 24.925,26.549999 H 7.075 V 3.5999987 h 17.85 z"
     inkscape:connector-curvature="0" />
  <path
     d="m 6.2249668,2.7499511 c 4.4799082,0 19.5500462,0.0017 19.5500462,0.0017 l 2e-5,24.6483949 c 0,0 -13.033377,0 -19.5500662,0 0,-8.216713 0,-16.433344 0,-24.6499623 z"
     id="path4160-6-1"
     style="display:inline;fill:none;stroke:url(#linearGradient3148);stroke-width:1;stroke-linecap:butt;stroke-linejoin:round;stroke-miterlimit:4;stroke-dasharray:none;stroke-dashoffset:0;stroke-opacity:1"
     inkscape:connector-curvature="0" />
  <path
     d="m 15.950822,10.825051 c -0.367144,-0.0022 -0.689518,0.06817 -0.908944,0.213968 -0.283088,0.188093 -0.407903,0.211967 -0.486933,0.0823 -0.07563,-0.124061 -0.144384,-0.1102 -0.211005,0.06583 -0.05634,0.148877 -0.174112,0.216842 -0.308392,0.164591 -0.128029,-0.04983 -0.180529,-0.03377 -0.129849,0.04938 0.0487,0.07992 0.0249,0.148132 -0.04869,0.148132 -0.07358,0 -0.309251,0.252111 -0.519396,0.559611 -0.334991,0.49018 -0.389634,0.71421 -0.389547,1.744667 4.7e-5,0.646531 0.0639,1.276055 -0.129849,1.31673 -0.113627,0.02385 -0.102809,0.47323 -0.04869,0.93817 0.07076,0.607992 0.176465,0.905842 0.470702,1.185056 0.458291,0.434892 0.87648,1.187699 0.87648,1.596536 0,0.560044 -1.288815,1.540193 -3.216711,2.435076 l -2e-6,1.399904 h 10.199051 l 9.35e-4,-1.545701 c -1.600716,-0.738277 -2.9255,-1.759819 -2.9255,-2.289275 0,-0.40785 0.402418,-1.162081 0.86025,-1.596535 0.294233,-0.279214 0.41617,-0.577064 0.486934,-1.185057 0.05411,-0.46494 0.06143,-0.901066 -0.04869,-0.93817 -0.151759,-0.05112 -0.146102,-0.675502 -0.146102,-1.316729 -1e-6,-0.91915 -0.05769,-1.261203 -0.292161,-1.645914 -0.466545,-0.765512 -1.982469,-1.375964 -3.083901,-1.382566 z"
     id="rect2382-1"
     style="display:inline;overflow:visible;visibility:visible;opacity:0.4;fill:#ffffff;fill-opacity:1;fill-rule:evenodd;stroke:none;stroke-width:1;marker:none;enable-background:accumulate;stroke-miterlimit:4;stroke-dasharray:none"
     inkscape:connector-curvature="0" />
  <path
     d="m 15.950849,10.424849 c -0.531678,-0.12427 -1.168599,0.257947 -1.168599,0.257947 l -0.571968,0.285877 c 0,0 -0.619804,0.541214 -0.626435,0.725075 -0.348873,0.617768 -0.189859,1.366386 -0.225231,2.042191 0.03399,0.580217 -0.369344,1.010377 -0.16703,1.598719 -0.02951,0.567987 0.438241,0.901101 0.738965,1.311918 0.338437,0.519734 0.798059,1.197879 0.436097,1.819874 -0.669113,0.970381 -1.781521,1.484649 -2.797127,2.013324 -0.345011,0.03533 -0.215123,0.366735 -0.238228,0.603003 -5.5e-4,0.187897 -0.06234,0.436972 0.213252,0.34899 3.043484,0 6.086969,0 9.130456,0 0,-0.325099 0,-0.650197 0,-0.975296 -0.983188,-0.498194 -2.00933,-1.031857 -2.698499,-1.91776 -0.414029,-0.593371 9.35e-4,-1.306366 0.327703,-1.833927 0.254403,-0.439456 0.786154,-0.720253 0.793752,-1.280593 0.19553,-0.568498 -0.09953,-1.039093 -0.154604,-1.581311 -0.072,-0.718859 0.122853,-1.50494 -0.220267,-2.173774 -0.465223,-0.6844 -1.31737,-0.984111 -2.090672,-1.167663 -0.224308,-0.04527 -0.45249,-0.07483 -0.681565,-0.07659 z"
     id="path3107"
     style="color:#000000;display:inline;overflow:visible;visibility:visible;fill:url(#radialGradient3035);fill-opacity:1;fill-rule:nonzero;stroke:url(#linearGradient3037);stroke-width:1;stroke-linecap:round;stroke-linejoin:round;stroke-miterlimit:4;stroke-dasharray:none;stroke-dashoffset:0;stroke-opacity:1;marker:none;enable-background:accumulate"
     inkscape:connector-curvature="0" />
  <path
     d="m 15.827833,11.251297 c -0.09058,-0.0094 -0.23117,0.032 -0.434148,0.130295 -0.150245,0.07275 -0.372138,0.135947 -0.598826,0.179157 l 0.01497,0.01629 c -0.0028,0.0017 -0.156145,0.09419 -0.254501,0.162869 -0.01891,0.01321 -0.0289,0.0048 -0.04491,0.01629 -0.005,0.0071 -0.0123,0.01314 -0.01497,0.01629 -0.0649,0.07632 -0.19155,0.235085 -0.284443,0.407174 -0.09704,0.179772 -0.141384,0.374335 -0.134736,0.423459 a 0.44639356,0.48564256 0 0 1 0.01497,0.114009 c -0.04283,0.497448 0.100086,1.170239 -0.119765,1.921859 a 0.44639356,0.48564256 0 0 1 -0.02994,0.09772 c -0.08356,0.154181 -0.02069,0.671387 0.119765,1.05865 0.459977,0.526424 1.017814,1.227759 1.003034,2.18245 a 0.44639356,0.48564256 0 0 1 -0.01496,0.114004 c -0.243026,0.906215 -0.992153,1.342751 -1.467124,1.710127 a 0.44639356,0.48564256 0 0 1 -0.01497,0.01629 c -0.44621,0.321522 -0.922335,0.529919 -1.392269,0.781783 h 7.65 c -0.87293,-0.446204 -1.737268,-0.973317 -2.425245,-1.791563 -0.0048,-0.0059 -0.01011,-0.01046 -0.01497,-0.01629 -0.320689,-0.362756 -0.385405,-0.859823 -0.314384,-1.254094 0.06977,-0.387312 0.233681,-0.711801 0.389237,-0.977215 0.0054,-0.0091 0.0097,-0.02366 0.01497,-0.03258 0.156668,-0.306726 0.349728,-0.516359 0.479061,-0.684051 0.134719,-0.17468 0.19072,-0.270259 0.194617,-0.407173 a 0.44639356,0.48564256 0 0 1 0.02995,-0.130297 c 0.0481,-0.15796 0.02773,-0.284253 -0.01497,-0.488607 -0.04189,-0.200425 -0.125606,-0.469292 -0.149705,-0.798061 -4.73e-4,-0.0064 4.26e-4,-0.0098 0,-0.01629 -0.03985,-0.426569 0.0073,-0.810629 0,-1.140084 -0.0073,-0.327675 -0.06308,-0.566331 -0.194619,-0.765487 -0.0018,-0.002 0.0018,-0.01427 0,-0.01629 -0.466781,-0.526113 -1.234483,-0.796047 -1.961165,-0.830626 a 0.44639356,0.48564256 0 0 1 -0.02995,0 z"
     id="path3151"
     style="color:#000000;display:inline;overflow:visible;visibility:visible;opacity:0.5;fill:none;stroke:url(#linearGradient3032);stroke-width:1;stroke-linecap:round;stroke-linejoin:round;stroke-miterlimit:4;stroke-dasharray:none;stroke-dashoffset:0;stroke-opacity:1;marker:none;enable-background:accumulate"
     inkscape:connector-curvature="0" />
</svg>
