<?xml version="1.0" encoding="UTF-8" standalone="no"?>
<svg
   xmlns:dc="http://purl.org/dc/elements/1.1/"
   xmlns:cc="http://creativecommons.org/ns#"
   xmlns:rdf="http://www.w3.org/1999/02/22-rdf-syntax-ns#"
   xmlns:svg="http://www.w3.org/2000/svg"
   xmlns="http://www.w3.org/2000/svg"
   xmlns:xlink="http://www.w3.org/1999/xlink"
   xmlns:sodipodi="http://sodipodi.sourceforge.net/DTD/sodipodi-0.dtd"
   xmlns:inkscape="http://www.inkscape.org/namespaces/inkscape"
   version="1.1"
   width="32"
   height="32"
   id="svg3182"
   sodipodi:docname="filetype-go.svg"
   inkscape:version="0.92.4 (5da689c313, 2019-01-14)">
  <sodipodi:namedview
     pagecolor="#ffffff"
     bordercolor="#666666"
     borderopacity="1"
     objecttolerance="10"
     gridtolerance="10"
     guidetolerance="10"
     inkscape:pageopacity="0"
     inkscape:pageshadow="2"
     inkscape:window-width="2880"
     inkscape:window-height="1706"
     id="namedview36"
     showgrid="false"
     inkscape:zoom="7.375"
     inkscape:cx="-1.4237288"
     inkscape:cy="16"
     inkscape:window-x="-11"
     inkscape:window-y="-11"
     inkscape:window-maximized="1"
     inkscape:current-layer="svg3182" />
  <defs
     id="defs3184">
    <linearGradient
       id="linearGradient3977">
      <stop
         id="stop3979"
         style="stop-color:#ffffff;stop-opacity:1"
         offset="0" />
      <stop
         id="stop3981"
         style="stop-color:#ffffff;stop-opacity:0.23529412"
         offset="0" />
      <stop
         id="stop3983"
         style="stop-color:#ffffff;stop-opacity:0.15686275"
         offset="0.99999994" />
      <stop
         id="stop3985"
         style="stop-color:#ffffff;stop-opacity:0.39215687"
         offset="1" />
    </linearGradient>
    <linearGradient
       id="linearGradient3600-4">
      <stop
         id="stop3602-7"
         style="stop-color:#f4f4f4;stop-opacity:1"
         offset="0" />
      <stop
         id="stop3604-6"
         style="stop-color:#dbdbdb;stop-opacity:1"
         offset="1" />
    </linearGradient>
    <linearGradient
       id="linearGradient5060">
      <stop
         id="stop5062"
         style="stop-color:#000000;stop-opacity:1"
         offset="0" />
      <stop
         id="stop5064"
         style="stop-color:#000000;stop-opacity:0"
         offset="1" />
    </linearGradient>
    <linearGradient
       id="linearGradient5048">
      <stop
         id="stop5050"
         style="stop-color:#000000;stop-opacity:0"
         offset="0" />
      <stop
         id="stop5056"
         style="stop-color:#000000;stop-opacity:1"
         offset="0.5" />
      <stop
         id="stop5052"
         style="stop-color:#000000;stop-opacity:0"
         offset="1" />
    </linearGradient>
    <linearGradient
       x1="23.99999"
       y1="6.1851754"
       x2="23.99999"
       y2="41.814808"
       id="linearGradient3013"
       xlink:href="#linearGradient3977"
       gradientUnits="userSpaceOnUse"
       gradientTransform="matrix(0.48243243,0,0,0.62027025,4.4216247,0.18851835)" />
    <linearGradient
       x1="25.132275"
       y1="0.98520643"
       x2="25.132275"
       y2="47.013336"
       id="linearGradient3016"
       xlink:href="#linearGradient3600-4"
       gradientUnits="userSpaceOnUse"
       gradientTransform="matrix(0.53428447,0,0,0.51713483,3.1771718,1.8704268)" />
    <radialGradient
       cx="605.71429"
       cy="486.64789"
       r="117.14286"
       fx="605.71429"
       fy="486.64789"
       id="radialGradient3021"
       xlink:href="#linearGradient5060"
       gradientUnits="userSpaceOnUse"
       gradientTransform="matrix(0.0133137,0,0,0.007,17.368868,24.408479)" />
    <radialGradient
       cx="605.71429"
       cy="486.64789"
       r="117.14286"
       fx="605.71429"
       fy="486.64789"
       id="radialGradient3024"
       xlink:href="#linearGradient5060"
       gradientUnits="userSpaceOnUse"
       gradientTransform="matrix(-0.0133137,0,0,0.007,14.631131,24.408479)" />
    <linearGradient
       x1="302.85715"
       y1="366.64789"
       x2="302.85715"
       y2="609.50507"
       id="linearGradient3027"
       xlink:href="#linearGradient5048"
       gradientUnits="userSpaceOnUse"
       gradientTransform="matrix(0.03890389,0,0,0.007,1.9390243,24.408464)" />
    <linearGradient
       id="linearGradient3104-6">
      <stop
         offset="0"
         style="stop-color:#000000;stop-opacity:0.31782946"
         id="stop3106-3" />
      <stop
         offset="1"
         style="stop-color:#000000;stop-opacity:0.24031007"
         id="stop3108-9" />
    </linearGradient>
    <linearGradient
       xlink:href="#linearGradient3104-6"
       id="linearGradient3148"
       gradientUnits="userSpaceOnUse"
       gradientTransform="matrix(0.4510452,0,0,0.50124542,35.779166,0.8018684)"
       x1="-51.786404"
       y1="50.786446"
       x2="-51.786404"
       y2="2.9062471" />
  </defs>
  <metadata
     id="metadata3187">
    <rdf:RDF>
      <cc:Work
         rdf:about="">
        <dc:format>image/svg+xml</dc:format>
        <dc:type
           rdf:resource="http://purl.org/dc/dcmitype/StillImage" />
        <dc:title />
      </cc:Work>
    </rdf:RDF>
  </metadata>
  <rect
     width="18.785019"
     height="1.7"
     x="6.607491"
     y="26.974998"
     id="rect2879"
     style="display:inline;overflow:visible;visibility:visible;opacity:0.15;fill:url(#linearGradient3027);fill-opacity:1;fill-rule:nonzero;stroke:none;stroke-width:1;marker:none;stroke-miterlimit:4;stroke-dasharray:none" />
  <path
     d="m 6.6074904,26.975072 c 0,0 0,1.699906 0,1.699906 -0.6856228,0.0032 -1.6575017,-0.380863 -1.6575017,-0.850063 0,-0.4692 0.7651028,-0.849843 1.6575017,-0.849843 z"
     id="path2881"
     style="display:inline;overflow:visible;visibility:visible;opacity:0.15;fill:url(#radialGradient3024);fill-opacity:1;fill-rule:nonzero;stroke:none;stroke-width:1;marker:none;stroke-miterlimit:4;stroke-dasharray:none"
     inkscape:connector-curvature="0" />
  <path
     d="m 25.392509,26.975072 c 0,0 0,1.699906 0,1.699906 0.685622,0.0032 1.657502,-0.380863 1.657502,-0.850063 0,-0.4692 -0.765104,-0.849843 -1.657502,-0.849843 z"
     id="path2883"
     style="display:inline;overflow:visible;visibility:visible;opacity:0.15;fill:url(#radialGradient3021);fill-opacity:1;fill-rule:nonzero;stroke:none;stroke-width:1;marker:none;stroke-miterlimit:4;stroke-dasharray:none"
     inkscape:connector-curvature="0" />
  <path
     d="m 6.65,3.1749987 c 4.285119,0 18.699977,0.00152 18.699977,0.00152 L 25.35,26.974999 c 0,0 -12.466666,0 -18.7,0 0,-7.933333 0,-15.866665 0,-23.7999968 z"
     id="path4160-3"
     style="display:inline;fill:url(#linearGradient3016);fill-opacity:1;stroke:none;stroke-width:1;stroke-miterlimit:4;stroke-dasharray:none"
     inkscape:connector-curvature="0" />
  <path
     d="M 24.925,26.549999 H 7.075 V 3.5999987 h 17.85 z"
     id="rect6741-1"
     style="fill:none;stroke:url(#linearGradient3013);stroke-width:1;stroke-linecap:round;stroke-linejoin:miter;stroke-miterlimit:4;stroke-dasharray:none;stroke-dashoffset:0;stroke-opacity:1"
     inkscape:connector-curvature="0" />
  <path
     style="display:inline;fill:none;stroke:url(#linearGradient3148);stroke-width:1;stroke-linecap:butt;stroke-linejoin:round;stroke-miterlimit:4;stroke-dasharray:none;stroke-dashoffset:0;stroke-opacity:1"
     id="path4160-6-1"
     d="m 6.2249668,2.7499511 c 4.4799082,0 19.5500462,0.0017 19.5500462,0.0017 l 2e-5,24.6483949 c 0,0 -13.033377,0 -19.5500662,0 0,-8.216713 0,-16.433344 0,-24.6499623 z"
     inkscape:connector-curvature="0" />
  <path
     style="fill:#00acd7;stroke-width:1;stroke-miterlimit:4;stroke-dasharray:none"
     d="m 15.669767,12.2132 c -0.17102,0.0037 -0.344454,0.02235 -0.519781,0.05406 -0.857996,0.156677 -1.559314,0.596924 -2.089034,1.290782 -0.492416,0.641632 -0.731164,1.372705 -0.634173,2.185936 0.08207,0.686396 0.395369,1.238585 0.947472,1.656391 0.596864,0.44765 1.275827,0.589377 2.006992,0.492386 0.887836,-0.119373 1.589154,-0.559562 2.126337,-1.268341 0.121975,-0.160786 0.226247,-0.329874 0.313588,-0.506375 0.125669,0.454565 0.378307,0.845332 0.74579,1.162986 0.522257,0.44765 1.141533,0.641544 1.820473,0.656466 0.193982,-0.02238 0.39542,-0.02988 0.596865,-0.06718 0.693855,-0.141756 1.298182,-0.455023 1.790598,-0.954899 0.693855,-0.701318 0.984828,-1.522039 0.857996,-2.529251 -0.09699,-0.716239 -0.462542,-1.260938 -1.051949,-1.663823 -0.649094,-0.440188 -1.365332,-0.514769 -2.126337,-0.380473 -0.887836,0.156678 -1.544388,0.529806 -2.089034,1.246046 -0.233347,0.305414 -0.407569,0.628318 -0.515406,0.969908 h -2.401749 c -0.111911,0 -0.164135,0.07458 -0.186518,0.119344 -0.104454,0.193982 -0.283628,0.581974 -0.380619,0.81326 -0.05225,0.126833 -0.0149,0.223825 0.141786,0.223825 h 1.439996 c -0.0746,0.104452 -0.134379,0.193923 -0.201529,0.275992 -0.335739,0.380502 -0.761005,0.559533 -1.268342,0.492386 -0.589407,-0.08207 -0.999753,-0.574426 -1.00721,-1.171292 -0.0075,-0.604327 0.253753,-1.089281 0.76109,-1.417558 0.425266,-0.276051 0.880351,-0.343199 1.350384,-0.111913 0.156677,0.07461 0.238685,0.156591 0.350596,0.283424 0.09699,0.111913 0.104482,0.104452 0.216393,0.07461 0.462576,-0.119373 0.783451,-0.208786 1.253478,-0.32816 0.08953,-0.02238 0.119375,-0.05977 0.07461,-0.126921 -0.186524,-0.432727 -0.470004,-0.790817 -0.86543,-1.051946 -0.453243,-0.307759 -0.944288,-0.430863 -1.457336,-0.419672 z m 5.212381,1.436793 c 0.606611,-0.01989 1.141069,0.380881 1.258578,1.027176 0.0149,0.0746 0.01496,0.149129 0.02244,0.24612 -0.03729,0.641631 -0.358207,1.119241 -0.947614,1.425135 -0.395425,0.201442 -0.805681,0.223795 -1.216027,0.04473 -0.537183,-0.238746 -0.820782,-0.828181 -0.686488,-1.410126 0.164141,-0.701318 0.61179,-1.141536 1.305645,-1.298214 0.0886,-0.02052 0.176806,-0.03198 0.263461,-0.03482 z M 9.7110117,13.66996 c -0.029863,0 -0.067122,0.01492 -0.082042,0.03731 l -0.156791,0.201385 c -0.014903,0.02238 -0.00742,0.03731 0.02244,0.03731 l 2.7007613,0.0074 c 0.02238,0 0.05969,-0.02236 0.07461,-0.04474 l 0.126923,-0.193952 c 0.0149,-0.02238 0.0074,-0.04474 -0.02244,-0.04474 z m -1.126556,0.686338 c -0.029863,0 -0.067263,0.01492 -0.082189,0.03731 l -0.1566493,0.20153 c -0.014903,0.02238 -0.00742,0.03731 0.02244,0.03731 l 3.5288876,-0.0076 c 0.02986,0 0.05971,-0.01489 0.06718,-0.04474 l 0.05975,-0.179089 c 0.0075,-0.02238 -0.0075,-0.04473 -0.03729,-0.04473 z m 1.7457183,0.686484 c -0.02986,0 -0.05969,0.02235 -0.07461,0.04474 l -0.104334,0.18652 c -0.0149,0.02238 -0.0075,0.04474 0.02227,0.04474 l 1.62652,0.0074 c 0.02238,0 0.05219,-0.02233 0.05219,-0.05217 l 0.01502,-0.179089 c 0,-0.02984 -0.01502,-0.05216 -0.04488,-0.05216 z"
     id="path47"
     inkscape:connector-curvature="0" />
</svg>
