<?xml version="1.0" encoding="UTF-8" standalone="no"?>
<svg
   xmlns:dc="http://purl.org/dc/elements/1.1/"
   xmlns:cc="http://creativecommons.org/ns#"
   xmlns:rdf="http://www.w3.org/1999/02/22-rdf-syntax-ns#"
   xmlns:svg="http://www.w3.org/2000/svg"
   xmlns="http://www.w3.org/2000/svg"
   xmlns:xlink="http://www.w3.org/1999/xlink"
   xmlns:sodipodi="http://sodipodi.sourceforge.net/DTD/sodipodi-0.dtd"
   xmlns:inkscape="http://www.inkscape.org/namespaces/inkscape"
   version="1.1"
   width="32"
   height="32"
   id="svg3182"
   sodipodi:docname="filetype-translation.svg"
   inkscape:version="0.92.4 (5da689c313, 2019-01-14)">
  <sodipodi:namedview
     pagecolor="#ffffff"
     bordercolor="#666666"
     borderopacity="1"
     objecttolerance="10"
     gridtolerance="10"
     guidetolerance="10"
     inkscape:pageopacity="0"
     inkscape:pageshadow="2"
     inkscape:window-width="2880"
     inkscape:window-height="1706"
     id="namedview47"
     showgrid="false"
     inkscape:zoom="7.375"
     inkscape:cx="-1.4237288"
     inkscape:cy="16"
     inkscape:window-x="-11"
     inkscape:window-y="-11"
     inkscape:window-maximized="1"
     inkscape:current-layer="svg3182" />
  <defs
     id="defs3184">
    <linearGradient
       id="linearGradient3977">
      <stop
         id="stop3979"
         style="stop-color:#ffffff;stop-opacity:1"
         offset="0" />
      <stop
         id="stop3981"
         style="stop-color:#ffffff;stop-opacity:0.23529412"
         offset="0" />
      <stop
         id="stop3983"
         style="stop-color:#ffffff;stop-opacity:0.15686275"
         offset="0.99999994" />
      <stop
         id="stop3985"
         style="stop-color:#ffffff;stop-opacity:0.39215687"
         offset="1" />
    </linearGradient>
    <linearGradient
       id="linearGradient3600-4">
      <stop
         id="stop3602-7"
         style="stop-color:#f4f4f4;stop-opacity:1"
         offset="0" />
      <stop
         id="stop3604-6"
         style="stop-color:#dbdbdb;stop-opacity:1"
         offset="1" />
    </linearGradient>
    <linearGradient
       id="linearGradient5060">
      <stop
         id="stop5062"
         style="stop-color:#000000;stop-opacity:1"
         offset="0" />
      <stop
         id="stop5064"
         style="stop-color:#000000;stop-opacity:0"
         offset="1" />
    </linearGradient>
    <linearGradient
       id="linearGradient5048">
      <stop
         id="stop5050"
         style="stop-color:#000000;stop-opacity:0"
         offset="0" />
      <stop
         id="stop5056"
         style="stop-color:#000000;stop-opacity:1"
         offset="0.5" />
      <stop
         id="stop5052"
         style="stop-color:#000000;stop-opacity:0"
         offset="1" />
    </linearGradient>
    <linearGradient
       x1="23.99999"
       y1="6.1851754"
       x2="23.99999"
       y2="41.814808"
       id="linearGradient3013"
       xlink:href="#linearGradient3977"
       gradientUnits="userSpaceOnUse"
       gradientTransform="matrix(0.48243243,0,0,0.62027025,4.4216247,0.18851835)" />
    <linearGradient
       x1="25.132275"
       y1="0.98520643"
       x2="25.132275"
       y2="47.013336"
       id="linearGradient3016"
       xlink:href="#linearGradient3600-4"
       gradientUnits="userSpaceOnUse"
       gradientTransform="matrix(0.53428447,0,0,0.51713483,3.1771718,1.8704268)" />
    <radialGradient
       cx="605.71429"
       cy="486.64789"
       r="117.14286"
       fx="605.71429"
       fy="486.64789"
       id="radialGradient3021"
       xlink:href="#linearGradient5060"
       gradientUnits="userSpaceOnUse"
       gradientTransform="matrix(0.0133137,0,0,0.007,17.368868,24.408479)" />
    <radialGradient
       cx="605.71429"
       cy="486.64789"
       r="117.14286"
       fx="605.71429"
       fy="486.64789"
       id="radialGradient3024"
       xlink:href="#linearGradient5060"
       gradientUnits="userSpaceOnUse"
       gradientTransform="matrix(-0.0133137,0,0,0.007,14.631131,24.408479)" />
    <linearGradient
       x1="302.85715"
       y1="366.64789"
       x2="302.85715"
       y2="609.50507"
       id="linearGradient3027"
       xlink:href="#linearGradient5048"
       gradientUnits="userSpaceOnUse"
       gradientTransform="matrix(0.03890389,0,0,0.007,1.9390243,24.408464)" />
    <linearGradient
       id="linearGradient3104-6">
      <stop
         offset="0"
         style="stop-color:#000000;stop-opacity:0.31782946"
         id="stop3106-3" />
      <stop
         offset="1"
         style="stop-color:#000000;stop-opacity:0.24031007"
         id="stop3108-9" />
    </linearGradient>
    <linearGradient
       xlink:href="#linearGradient3104-6"
       id="linearGradient3148"
       gradientUnits="userSpaceOnUse"
       gradientTransform="matrix(0.4510452,0,0,0.50124542,35.779166,0.8018684)"
       x1="-51.786404"
       y1="50.786446"
       x2="-51.786404"
       y2="2.9062471" />
    <linearGradient
       gradientTransform="matrix(0.425,0,0,0.425,2.4,2.3250093)"
       gradientUnits="userSpaceOnUse"
       y2="1.4174461"
       x2="21.073494"
       y1="46.197311"
       x1="21.073494"
       id="linearGradient1108"
       xlink:href="#linearGradient1106" />
    <linearGradient
       id="linearGradient1106">
      <stop
         id="stop1102"
         offset="0"
         style="stop-color:#abacae;stop-opacity:1;" />
      <stop
         id="stop1104"
         offset="1"
         style="stop-color:#d4d4d4;stop-opacity:1" />
    </linearGradient>
    <linearGradient
       gradientTransform="matrix(0.425,0,0,0.425,2.4,2.3250093)"
       y2="34.108799"
       x2="29.943974"
       y1="0.5753113"
       x1="29.943974"
       gradientUnits="userSpaceOnUse"
       id="linearGradient917"
       xlink:href="#linearGradient890" />
    <linearGradient
       id="linearGradient890">
      <stop
         id="stop886"
         offset="0"
         style="stop-color:#64baff;stop-opacity:1" />
      <stop
         id="stop888"
         offset="1"
         style="stop-color:#3689e6;stop-opacity:1" />
    </linearGradient>
  </defs>
  <metadata
     id="metadata3187">
    <rdf:RDF>
      <cc:Work
         rdf:about="">
        <dc:format>image/svg+xml</dc:format>
        <dc:type
           rdf:resource="http://purl.org/dc/dcmitype/StillImage" />
        <dc:title />
      </cc:Work>
    </rdf:RDF>
  </metadata>
  <rect
     width="18.785019"
     height="1.7"
     x="6.607491"
     y="26.974998"
     id="rect2879"
     style="display:inline;overflow:visible;visibility:visible;opacity:0.15;fill:url(#linearGradient3027);fill-opacity:1;fill-rule:nonzero;stroke:none;stroke-width:1;marker:none;stroke-miterlimit:4;stroke-dasharray:none" />
  <path
     d="m 6.6074904,26.975072 c 0,0 0,1.699906 0,1.699906 -0.6856228,0.0032 -1.6575017,-0.380863 -1.6575017,-0.850063 0,-0.4692 0.7651028,-0.849843 1.6575017,-0.849843 z"
     id="path2881"
     style="display:inline;overflow:visible;visibility:visible;opacity:0.15;fill:url(#radialGradient3024);fill-opacity:1;fill-rule:nonzero;stroke:none;stroke-width:1;marker:none;stroke-miterlimit:4;stroke-dasharray:none"
     inkscape:connector-curvature="0" />
  <path
     d="m 25.392509,26.975072 c 0,0 0,1.699906 0,1.699906 0.685622,0.0032 1.657502,-0.380863 1.657502,-0.850063 0,-0.4692 -0.765104,-0.849843 -1.657502,-0.849843 z"
     id="path2883"
     style="display:inline;overflow:visible;visibility:visible;opacity:0.15;fill:url(#radialGradient3021);fill-opacity:1;fill-rule:nonzero;stroke:none;stroke-width:1;marker:none;stroke-miterlimit:4;stroke-dasharray:none"
     inkscape:connector-curvature="0" />
  <path
     d="m 6.65,3.1749987 c 4.285119,0 18.699977,0.00152 18.699977,0.00152 L 25.35,26.974999 c 0,0 -12.466666,0 -18.7,0 0,-7.933333 0,-15.866665 0,-23.7999968 z"
     id="path4160-3"
     style="display:inline;fill:url(#linearGradient3016);fill-opacity:1;stroke:none;stroke-width:1;stroke-miterlimit:4;stroke-dasharray:none"
     inkscape:connector-curvature="0" />
  <path
     d="M 24.925,26.549999 H 7.075 V 3.5999987 h 17.85 z"
     id="rect6741-1"
     style="fill:none;stroke:url(#linearGradient3013);stroke-width:1;stroke-linecap:round;stroke-linejoin:miter;stroke-miterlimit:4;stroke-dasharray:none;stroke-dashoffset:0;stroke-opacity:1"
     inkscape:connector-curvature="0" />
  <path
     style="display:inline;fill:none;stroke:url(#linearGradient3148);stroke-width:1;stroke-linecap:butt;stroke-linejoin:round;stroke-miterlimit:4;stroke-dasharray:none;stroke-dashoffset:0;stroke-opacity:1"
     id="path4160-6-1"
     d="m 6.2249668,2.7499511 c 4.4799082,0 19.5500462,0.0017 19.5500462,0.0017 l 2e-5,24.6483949 c 0,0 -13.033377,0 -19.5500662,0 0,-8.216713 0,-16.433344 0,-24.6499623 z"
     inkscape:connector-curvature="0" />
  <path
     id="rect1016"
     d="m 10.05,13.37501 h 6.8 c 0.4709,0 0.85,0.3791 0.85,0.85 v 6.799999 c 0,0.4709 -0.3791,0.85 -0.85,0.85 h -6.8 c -0.4709,0 -0.85,-0.3791 -0.85,-0.85 V 14.22501 c 0,-0.4709 0.3791,-0.85 0.85,-0.85 z"
     style="opacity:1;vector-effect:none;fill:url(#linearGradient1108);fill-opacity:1;stroke:none;stroke-width:1;stroke-linecap:butt;stroke-linejoin:round;stroke-miterlimit:4;stroke-dasharray:none;stroke-dashoffset:0;stroke-opacity:1;marker:none"
     inkscape:connector-curvature="0" />
  <path
     style="font-style:normal;font-variant:normal;font-weight:bold;font-stretch:normal;font-size:16px;line-height:1.25;font-family:'Open Sans';-inkscape-font-specification:'Open Sans Bold';letter-spacing:0px;word-spacing:0px;opacity:1;vector-effect:none;fill:#555761;fill-opacity:1;stroke:none;stroke-width:1;stroke-linecap:butt;stroke-linejoin:round;stroke-miterlimit:4;stroke-dasharray:none;stroke-dashoffset:0;stroke-opacity:1;marker:none"
     d="m 12.501204,14.634792 a 0.13400542,0.1347282 0 0 0 -0.129173,0.123967 c -0.0019,0.02265 -0.009,0.08912 -0.02013,0.192273 -0.02005,0.163673 -0.0357,0.303524 -0.04697,0.419126 a 0.13400542,0.1347282 0 0 0 0,8.5e-4 l -0.02013,0.215887 a 0.13400542,0.1347282 0 0 0 0,8.5e-4 l -0.0033,0.03374 c -0.215842,0.01296 -0.43598,0.02193 -0.668512,0.02193 -0.180144,0 -0.362927,-0.0061 -0.547726,-0.0194 a 0.13400542,0.1347282 0 0 0 -0.142593,0.145892 l 0.04361,0.482372 a 0.13400542,0.1347282 0 0 0 0.124979,0.122276 c 0.07626,0.0048 0.174491,0.0076 0.29693,0.0076 0.266479,0 0.549536,-0.01505 0.837946,-0.03458 -0.02361,0.308799 -0.0418,0.59653 -0.04865,0.847525 -0.192026,0.107717 -0.362952,0.209465 -0.485656,0.299375 a 0.13400542,0.1347282 0 0 0 -0.0017,8.5e-4 c -0.712422,0.540096 -1.09042,1.17085 -1.09042,1.868772 0,0.258685 0.05494,0.473106 0.185372,0.626579 0.130431,0.153471 0.329789,0.226849 0.559469,0.226849 0.316514,0 0.643979,-0.129798 0.978023,-0.334793 0.016,0.09945 0.03751,0.231566 0.04445,0.270701 a 0.13400542,0.1347282 0 0 0 0.17866,0.102884 l 0.496561,-0.185528 a 0.13400542,0.1347282 0 0 0 0.0822,-0.161071 c -0.05133,-0.194516 -0.08253,-0.381223 -0.103171,-0.563331 0.542158,-0.527949 0.979467,-1.188109 1.321924,-1.965752 0.232865,0.03668 0.434474,0.100062 0.595538,0.19902 a 0.13400542,0.1347282 0 0 0 8.5e-4,8.5e-4 c 0.366233,0.221339 0.531789,0.512104 0.531789,0.926797 0,0.401722 -0.179906,0.706632 -0.581277,0.958842 -0.314044,0.198642 -0.746231,0.332047 -1.298439,0.391295 a 0.13400542,0.1347282 0 0 0 -0.09814,0.207453 l 0.295252,0.458761 a 0.13400542,0.1347282 0 0 0 0.13085,0.05987 c 0.661341,-0.09433 1.192354,-0.283903 1.587819,-0.578509 0.503807,-0.375731 0.769166,-0.886312 0.769166,-1.49097 0,-0.549885 -0.221949,-1.015535 -0.647542,-1.356883 a 0.13400542,0.1347282 0 0 0 -0.0017,-8.5e-4 C 15.35841,16.946445 15.00005,16.819852 14.58228,16.747307 c 0.02476,-0.07557 0.056,-0.164005 0.0671,-0.215044 A 0.13400542,0.1347282 0 0 0 14.54873,16.37206 l -0.506626,-0.118064 a 0.13400542,0.1347282 0 0 0 -0.160208,0.09867 c -0.03626,0.144005 -0.06844,0.255684 -0.09982,0.360936 -0.305532,0.03305 -0.579017,0.08939 -0.828719,0.163601 0.0087,-0.207351 0.02004,-0.407583 0.03775,-0.592002 0.703542,-0.07717 1.361578,-0.189358 1.966112,-0.342383 A 0.13400542,0.1347282 0 0 0 15.05785,15.796967 L 15.00416,15.32134 a 0.13400542,0.1347282 0 0 0 -0.168589,-0.11472 c -0.590701,0.162708 -1.181368,0.273343 -1.771514,0.344913 0.02403,-0.225109 0.04959,-0.457164 0.08388,-0.731148 a 0.13400542,0.1347282 0 0 0 -0.124139,-0.150953 l -0.509981,-0.03373 a 0.13400542,0.1347282 0 0 0 -0.01258,-8.5e-4 z m 0.978861,2.801472 c -0.156271,0.326345 -0.336425,0.621602 -0.538499,0.888847 -0.0082,-0.221025 -0.0166,-0.436306 -0.01762,-0.737896 0.177275,-0.06823 0.366534,-0.109801 0.556115,-0.150951 z m -1.301793,0.588629 c 0.009,0.398537 0.02179,0.771036 0.04613,1.053292 -0.29467,0.259573 -0.560017,0.38708 -0.789296,0.38708 -0.041,0 -0.04524,-0.0063 -0.04865,-0.01012 -0.0034,-0.0038 -0.0151,-0.02345 -0.0151,-0.07758 0,-0.02922 -0.0055,-0.05715 -0.01091,-0.08517 0.0034,-0.02172 0.01091,-0.04455 0.01091,-0.06662 l -8.5e-4,0.01012 c 0.02358,-0.30623 0.195293,-0.634761 0.539339,-0.984985 a 0.13400542,0.1347282 0 0 0 0.0017,-0.0017 c 0.09409,-0.09964 0.178549,-0.153639 0.266733,-0.22432 z"
     id="path1033"
     inkscape:connector-curvature="0" />
  <path
     id="path4"
     d="m 15.15,8.2749881 c -0.4709,0 -0.85,0.3791 -0.85,0.85 v 6.8000009 c 0,0.4709 0.3791,0.849999 0.85,0.849999 h 6.8 c 0.4709,0 0.85,-0.379099 0.85,-0.849999 V 9.1249881 c 0,-0.4709 -0.3791,-0.85 -0.85,-0.85 z"
     style="color:#000000;opacity:1;vector-effect:none;fill:url(#linearGradient917);fill-opacity:1;stroke:none;stroke-width:1;stroke-linecap:butt;stroke-linejoin:round;stroke-miterlimit:4;stroke-dasharray:none;stroke-dashoffset:0;stroke-opacity:1;marker:none"
     inkscape:connector-curvature="0" />
  <path
     id="path1020"
     d="M 18.098437,9.9750094 16.198388,15.07501 h 0.874903 l 0.527099,-1.529834 h 1.884278 l 0.53374,1.529834 h 0.884033 L 19.001562,9.9750094 Z M 18.55,10.816709 l 0.760351,2.217968 h -1.535645 z"
     style="color:#000000;opacity:1;vector-effect:none;fill:#ffffff;fill-opacity:1;stroke:none;stroke-width:1;stroke-linecap:butt;stroke-linejoin:round;stroke-miterlimit:4;stroke-dasharray:none;stroke-dashoffset:0;stroke-opacity:1;marker:none"
     inkscape:connector-curvature="0" />
</svg>
