<?xml version="1.0" encoding="UTF-8" standalone="no"?>
<svg
   xmlns:dc="http://purl.org/dc/elements/1.1/"
   xmlns:cc="http://creativecommons.org/ns#"
   xmlns:rdf="http://www.w3.org/1999/02/22-rdf-syntax-ns#"
   xmlns:svg="http://www.w3.org/2000/svg"
   xmlns="http://www.w3.org/2000/svg"
   xmlns:xlink="http://www.w3.org/1999/xlink"
   xmlns:sodipodi="http://sodipodi.sourceforge.net/DTD/sodipodi-0.dtd"
   xmlns:inkscape="http://www.inkscape.org/namespaces/inkscape"
   version="1.1"
   width="32"
   height="32"
   id="svg3182"
   inkscape:version="0.92.4 (5da689c313, 2019-01-14)"
   sodipodi:docname="filetype-deb.svg">
  <sodipodi:namedview
     pagecolor="#ffffff"
     bordercolor="#666666"
     borderopacity="1"
     objecttolerance="10"
     gridtolerance="10"
     guidetolerance="10"
     inkscape:pageopacity="0"
     inkscape:pageshadow="2"
     inkscape:window-width="2880"
     inkscape:window-height="1706"
     id="namedview2260"
     showgrid="false"
     inkscape:zoom="7.375"
     inkscape:cx="-1.4237288"
     inkscape:cy="16"
     inkscape:window-x="-11"
     inkscape:window-y="-11"
     inkscape:window-maximized="1"
     inkscape:current-layer="svg3182" />
  <defs
     id="defs3184">
    <linearGradient
       id="linearGradient3977">
      <stop
         id="stop3979"
         style="stop-color:#ffffff;stop-opacity:1"
         offset="0" />
      <stop
         id="stop3981"
         style="stop-color:#ffffff;stop-opacity:0.23529412"
         offset="0.03626217" />
      <stop
         id="stop3983"
         style="stop-color:#ffffff;stop-opacity:0.15686275"
         offset="0.95056331" />
      <stop
         id="stop3985"
         style="stop-color:#ffffff;stop-opacity:0.39215687"
         offset="1" />
    </linearGradient>
    <linearGradient
       id="linearGradient3600-4">
      <stop
         id="stop3602-7"
         style="stop-color:#f4f4f4;stop-opacity:1"
         offset="0" />
      <stop
         id="stop3604-6"
         style="stop-color:#dbdbdb;stop-opacity:1"
         offset="1" />
    </linearGradient>
    <linearGradient
       id="linearGradient5060">
      <stop
         id="stop5062"
         style="stop-color:#000000;stop-opacity:1"
         offset="0" />
      <stop
         id="stop5064"
         style="stop-color:#000000;stop-opacity:0"
         offset="1" />
    </linearGradient>
    <linearGradient
       id="linearGradient5048">
      <stop
         id="stop5050"
         style="stop-color:#000000;stop-opacity:0"
         offset="0" />
      <stop
         id="stop5056"
         style="stop-color:#000000;stop-opacity:1"
         offset="0.5" />
      <stop
         id="stop5052"
         style="stop-color:#000000;stop-opacity:0"
         offset="1" />
    </linearGradient>
    <linearGradient
       x1="23.99999"
       y1="5.5641499"
       x2="23.99999"
       y2="43"
       id="linearGradient3013"
       xlink:href="#linearGradient3977"
       gradientUnits="userSpaceOnUse"
       gradientTransform="matrix(0.48243243,0,0,0.62027025,4.4216247,0.18851835)" />
    <linearGradient
       x1="25.132275"
       y1="0.98520643"
       x2="25.132275"
       y2="47.013336"
       id="linearGradient3016"
       xlink:href="#linearGradient3600-4"
       gradientUnits="userSpaceOnUse"
       gradientTransform="matrix(0.53428447,0,0,0.51713483,3.1771718,1.8704268)" />
    <radialGradient
       cx="605.71429"
       cy="486.64789"
       r="117.14286"
       fx="605.71429"
       fy="486.64789"
       id="radialGradient3021"
       xlink:href="#linearGradient5060"
       gradientUnits="userSpaceOnUse"
       gradientTransform="matrix(0.0133137,0,0,0.007,17.368868,24.408479)" />
    <radialGradient
       cx="605.71429"
       cy="486.64789"
       r="117.14286"
       fx="605.71429"
       fy="486.64789"
       id="radialGradient3024"
       xlink:href="#linearGradient5060"
       gradientUnits="userSpaceOnUse"
       gradientTransform="matrix(-0.0133137,0,0,0.007,14.631131,24.408479)" />
    <linearGradient
       x1="302.85715"
       y1="366.64789"
       x2="302.85715"
       y2="609.50507"
       id="linearGradient3027"
       xlink:href="#linearGradient5048"
       gradientUnits="userSpaceOnUse"
       gradientTransform="matrix(0.03890389,0,0,0.007,1.9390243,24.408464)" />
    <linearGradient
       id="linearGradient3104-6">
      <stop
         offset="0"
         style="stop-color:#000000;stop-opacity:0.31782946"
         id="stop3106-3" />
      <stop
         offset="1"
         style="stop-color:#000000;stop-opacity:0.24031007"
         id="stop3108-9" />
    </linearGradient>
    <linearGradient
       xlink:href="#linearGradient3104-6"
       id="linearGradient3148"
       gradientUnits="userSpaceOnUse"
       gradientTransform="matrix(0.4510452,0,0,0.50124542,35.779166,0.8018684)"
       x1="-51.786404"
       y1="50.786446"
       x2="-51.786404"
       y2="2.9062471" />
  </defs>
  <metadata
     id="metadata3187">
    <rdf:RDF>
      <cc:Work
         rdf:about="">
        <dc:format>image/svg+xml</dc:format>
        <dc:type
           rdf:resource="http://purl.org/dc/dcmitype/StillImage" />
        <dc:title />
      </cc:Work>
    </rdf:RDF>
  </metadata>
  <rect
     width="18.785019"
     height="1.7"
     x="6.607491"
     y="26.974998"
     id="rect2879"
     style="display:inline;overflow:visible;visibility:visible;opacity:0.15;fill:url(#linearGradient3027);fill-opacity:1;fill-rule:nonzero;stroke:none;stroke-width:1;marker:none;stroke-miterlimit:4;stroke-dasharray:none" />
  <path
     d="m 6.6074904,26.975072 c 0,0 0,1.699906 0,1.699906 -0.6856228,0.0032 -1.6575017,-0.380863 -1.6575017,-0.850063 0,-0.4692 0.7651028,-0.849843 1.6575017,-0.849843 z"
     id="path2881"
     style="display:inline;overflow:visible;visibility:visible;opacity:0.15;fill:url(#radialGradient3024);fill-opacity:1;fill-rule:nonzero;stroke:none;stroke-width:1;marker:none;stroke-miterlimit:4;stroke-dasharray:none"
     inkscape:connector-curvature="0" />
  <path
     d="m 25.392509,26.975072 c 0,0 0,1.699906 0,1.699906 0.685622,0.0032 1.657502,-0.380863 1.657502,-0.850063 0,-0.4692 -0.765104,-0.849843 -1.657502,-0.849843 z"
     id="path2883"
     style="display:inline;overflow:visible;visibility:visible;opacity:0.15;fill:url(#radialGradient3021);fill-opacity:1;fill-rule:nonzero;stroke:none;stroke-width:1;marker:none;stroke-miterlimit:4;stroke-dasharray:none"
     inkscape:connector-curvature="0" />
  <path
     d="m 6.65,3.1749987 c 4.285119,0 18.699977,0.00152 18.699977,0.00152 L 25.35,26.974999 c 0,0 -12.466666,0 -18.7,0 0,-7.933333 0,-15.866665 0,-23.7999968 z"
     id="path4160-3"
     style="display:inline;fill:url(#linearGradient3016);fill-opacity:1;stroke:none;stroke-width:1;stroke-miterlimit:4;stroke-dasharray:none"
     inkscape:connector-curvature="0" />
  <path
     d="M 24.925,26.549999 H 7.075 V 3.5999987 h 17.85 z"
     id="rect6741-1"
     style="fill:none;stroke:url(#linearGradient3013);stroke-width:1;stroke-linecap:round;stroke-linejoin:round;stroke-miterlimit:4;stroke-dasharray:none;stroke-dashoffset:0;stroke-opacity:1"
     inkscape:connector-curvature="0" />
  <path
     style="display:inline;fill:none;stroke:url(#linearGradient3148);stroke-width:1;stroke-linecap:butt;stroke-linejoin:round;stroke-miterlimit:4;stroke-dasharray:none;stroke-dashoffset:0;stroke-opacity:1"
     id="path4160-6-1"
     d="m 6.2249668,2.7499511 c 4.4799082,0 19.5500462,0.0017 19.5500462,0.0017 l 2e-5,24.6483949 c 0,0 -13.033377,0 -19.5500662,0 0,-8.216713 0,-16.433344 0,-24.6499623 z"
     inkscape:connector-curvature="0" />
  <path
     style="fill:#d70751;stroke-width:1;stroke-miterlimit:4;stroke-dasharray:none"
     id="path3022"
     d="m 17.070454,15.872351 c -0.226107,0.0031 0.04253,0.116231 0.3378,0.161786 0.08187,-0.06387 0.15543,-0.128037 0.221416,-0.190693 -0.18358,0.04495 -0.370642,0.04601 -0.559216,0.02891"
     inkscape:connector-curvature="0" />
  <path
     style="fill:#d70751;stroke-width:1;stroke-miterlimit:4;stroke-dasharray:none"
     id="path3024"
     d="m 18.283778,15.569814 c 0.13515,-0.186002 0.233222,-0.389408 0.267879,-0.599776 -0.03042,0.149831 -0.111389,0.279229 -0.188271,0.416045 -0.422704,0.266214 -0.03996,-0.158004 -3.04e-4,-0.319487 -0.454334,0.572533 -0.06265,0.343247 -0.0793,0.503218"
     inkscape:connector-curvature="0" />
  <path
     style="fill:#d70751;stroke-width:1;stroke-miterlimit:4;stroke-dasharray:none"
     id="path3026"
     d="m 18.73221,14.403861 c 0.02755,-0.407267 -0.08006,-0.278322 -0.116231,-0.123194 0.04208,0.0221 0.07552,0.287251 0.116231,0.123194"
     inkscape:connector-curvature="0" />
  <path
     style="fill:#d70751;stroke-width:1;stroke-miterlimit:4;stroke-dasharray:none"
     id="path3028"
     d="m 16.212637,8.837582 c 0.120772,0.02149 0.260917,0.038137 0.240788,0.067046 0.132577,-0.029209 0.162392,-0.055543 -0.240788,-0.067046"
     inkscape:connector-curvature="0" />
  <path
     style="fill:#d70751;stroke-width:1;stroke-miterlimit:4;stroke-dasharray:none"
     id="path3030"
     d="m 16.453576,8.9046273 -0.08491,0.017706 0.07915,-0.00726 0.0058,-0.010443"
     inkscape:connector-curvature="0" />
  <path
     style="fill:#d70751;stroke-width:1;stroke-miterlimit:4;stroke-dasharray:none"
     id="path3032"
     d="m 20.217349,14.558231 c 0.01362,0.365647 -0.106698,0.543325 -0.215514,0.857515 l -0.195688,0.09731 c -0.15997,0.310861 0.0159,0.197353 -0.09868,0.444497 -0.250019,0.222022 -0.757627,0.694517 -0.92017,0.737802 -0.118805,-0.0025 0.08037,-0.140145 0.106395,-0.193872 -0.33432,0.229438 -0.268333,0.344459 -0.779725,0.484149 l -0.01483,-0.03345 c -1.260695,0.593268 -3.012047,-0.58222 -2.989043,-2.185861 -0.01332,0.101703 -0.03829,0.07628 -0.06614,0.11714 -0.06508,-0.824976 0.381083,-1.653583 1.133565,-1.992442 0.735987,-0.364133 1.598798,-0.214909 2.125626,0.276808 -0.28937,-0.379268 -0.865839,-0.781389 -1.548551,-0.744159 -0.669091,0.0109 -1.295201,0.436022 -1.504056,0.897773 -0.342642,0.215665 -0.382597,0.831786 -0.531823,0.944689 -0.201135,1.477116 0.377906,2.115031 1.357556,2.865848 0.153766,0.103822 0.04328,0.119713 0.06387,0.198715 -0.32539,-0.152252 -0.623235,-0.382295 -0.868412,-0.663946 0.130155,0.190239 0.270451,0.375181 0.451913,0.520472 -0.307076,-0.103671 -0.717067,-0.743553 -0.836478,-0.769584 0.528948,0.947111 2.145754,1.660999 2.992827,1.306703 -0.391981,0.01453 -0.889752,0.008 -1.329859,-0.154674 -0.185397,-0.0952 -0.436476,-0.292093 -0.391527,-0.32887 1.155662,0.431482 2.34916,0.326601 3.348938,-0.474766 0.254561,-0.19826 0.532428,-0.535303 0.612792,-0.539843 -0.120924,0.181915 0.02073,0.08748 -0.07219,0.248053 0.253048,-0.40878 -0.11033,-0.166479 0.261826,-0.705869 l 0.13742,0.18918 c -0.05146,-0.339616 0.421493,-0.751573 0.373365,-1.288239 0.108514,-0.164057 0.120924,0.176769 0.0059,0.554221 0.159668,-0.418769 0.04223,-0.486117 0.08309,-0.831786 0.04404,0.116232 0.10261,0.239577 0.132425,0.362317 -0.104125,-0.404844 0.106395,-0.681502 0.15876,-0.916841 -0.05176,-0.0227 -0.160576,0.178888 -0.185699,-0.299056 0.0037,-0.207644 0.05796,-0.108816 0.0787,-0.15997 -0.04056,-0.02346 -0.14756,-0.182672 -0.212487,-0.487933 0.04677,-0.07189 0.125919,0.186001 0.190088,0.196445 -0.04132,-0.242605 -0.112296,-0.427699 -0.115324,-0.614003 -0.187667,-0.391981 -0.06644,0.05237 -0.218389,-0.168294 -0.199775,-0.622629 0.16557,-0.144534 0.190391,-0.427244 0.302385,0.43814 0.474766,1.117674 0.554221,1.399023 -0.06054,-0.343097 -0.158154,-0.675599 -0.277565,-0.997205 0.09217,0.0389 -0.148165,-0.705717 0.119713,-0.212638 -0.285889,-1.051084 -1.222557,-2.033306 -2.08446,-2.493997 0.105184,0.096406 0.238216,0.2174815 0.190694,0.2365505 C 19.001871,9.553893 19.077241,9.533764 19.015795,9.4260073 18.666947,9.2838954 18.643639,9.4376608 18.412841,9.4263101 17.754494,9.0770082 17.627668,9.1140873 17.021839,8.8955468 l 0.02755,0.1289448 c -0.436022,-0.14529 -0.508061,0.054787 -0.979195,3.028e-4 -0.0286,-0.022249 0.151041,-0.081121 0.299056,-0.1024599 -0.421645,0.055695 -0.40197,-0.083239 -0.814533,0.015286 0.101551,-0.071284 0.209308,-0.1186538 0.31767,-0.1791915 -0.343702,0.020886 -0.820889,0.2000767 -0.673632,0.036926 -0.560728,0.2503229 -1.556724,0.601592 -2.115636,1.1256958 L 13.065565,9.8036081 C 12.809491,10.110988 11.948798,10.72166 11.88024,11.120149 l -0.06856,0.0159 c -0.133031,0.225654 -0.219449,0.481274 -0.325087,0.713284 -0.174197,0.297088 -0.255469,0.114417 -0.230649,0.16103 -0.342794,0.694972 -0.513358,1.278856 -0.660313,1.758011 0.10473,0.156641 0.0025,0.943176 0.04208,1.572615 -0.171927,3.109209 2.182077,6.127764 4.755227,6.824552 0.377149,0.13515 0.937878,0.130307 1.414914,0.143625 -0.562697,-0.16103 -0.635342,-0.08521 -1.183812,-0.276354 -0.395462,-0.186455 -0.48203,-0.399094 -0.762319,-0.642303 l 0.110934,0.19599 c -0.549348,-0.19448 -0.319456,-0.240639 -0.766526,-0.382146 l 0.118501,-0.154522 c -0.178131,-0.01362 -0.471738,-0.299964 -0.55195,-0.459026 l -0.194932,0.0077 c -0.233984,-0.288431 -0.358843,-0.496832 -0.34961,-0.658315 l -0.06296,0.112297 c -0.07128,-0.122438 -0.861299,-1.08332 -0.451459,-0.859634 -0.07613,-0.06932 -0.177376,-0.113055 -0.2871,-0.312677 l 0.08339,-0.0952 c -0.196898,-0.253804 -0.362923,-0.579042 -0.350209,-0.687404 0.105184,0.14196 0.178131,0.168597 0.250473,0.192963 -0.498073,-1.235572 -0.526071,-0.06796 -0.903069,-1.257667 l 0.0796,-0.0064 c -0.06099,-0.09247 -0.09837,-0.192208 -0.147409,-0.290429 l 0.03481,-0.345821 c -0.358382,-0.414078 -0.10019,-1.7624 -0.04828,-2.501716 0.03556,-0.300568 0.299206,-0.620661 0.499434,-1.122669 l -0.121982,-0.02088 c 0.233371,-0.406813 1.332128,-1.634363 1.841249,-1.571405 0.24654,-0.309649 -0.04904,-0.0013 -0.09731,-0.079 0.54166,-0.560426 0.711922,-0.395915 1.077418,-0.496862 0.393947,-0.233826 -0.338254,0.09141 -0.151496,-0.08914 0.681502,-0.173894 0.482787,-0.395613 1.371631,-0.483847 0.09383,0.05327 -0.217482,0.08233 -0.295575,0.151496 0.567539,-0.277868 1.796301,-0.2144546 2.594792,0.154068 0.92577,0.432995 1.966562,1.712305 2.007728,2.915943 l 0.04677,0.01256 c -0.02361,0.47855 0.07325,1.032015 -0.09489,1.540227 l 0.11366,-0.240788"
     inkscape:connector-curvature="0" />
  <path
     style="fill:#d70751;stroke-width:1;stroke-miterlimit:4;stroke-dasharray:none"
     id="path3034"
     d="m 14.601883,16.182606 -0.03193,0.158457 c 0.148771,0.202044 0.266819,0.420887 0.456453,0.578285 -0.136512,-0.266214 -0.237761,-0.376241 -0.424519,-0.736742"
     inkscape:connector-curvature="0" />
  <path
     style="fill:#d70751;stroke-width:1;stroke-miterlimit:4;stroke-dasharray:none"
     id="path3036"
     d="m 14.953153,16.168984 c -0.0787,-0.08717 -0.125011,-0.191903 -0.177375,-0.296028 0.04995,0.183278 0.152251,0.340827 0.247144,0.501251 l -0.06977,-0.205223"
     inkscape:connector-curvature="0" />
  <path
     style="fill:#d70751;stroke-width:1;stroke-miterlimit:4;stroke-dasharray:none"
     id="path3038"
     d="m 21.170966,14.817484 -0.03314,0.08354 c -0.06084,0.432541 -0.192661,0.860541 -0.394251,1.257517 0.222778,-0.418769 0.366404,-0.876887 0.427395,-1.341059"
     inkscape:connector-curvature="0" />
  <path
     style="fill:#d70751;stroke-width:1;stroke-miterlimit:4;stroke-dasharray:none"
     id="path3040"
     d="m 16.257586,8.7290682 c 0.152706,-0.055846 0.375636,-0.030722 0.538179,-0.067499 -0.211579,0.017706 -0.422098,0.028302 -0.629893,0.054786 l 0.09171,0.012713"
     inkscape:connector-curvature="0" />
  <path
     style="fill:#d70751;stroke-width:1;stroke-miterlimit:4;stroke-dasharray:none"
     id="path3042"
     d="m 10.889265,11.583717 c 0.03526,0.325996 -0.245176,0.45267 0.06205,0.23746 0.164966,-0.371399 -0.06417,-0.10246 -0.06205,-0.23746"
     inkscape:connector-curvature="0" />
  <path
     style="fill:#d70751;stroke-width:1;stroke-miterlimit:4;stroke-dasharray:none"
     id="path3044"
     d="m 10.527856,13.093222 c 0.07098,-0.217481 0.08369,-0.34794 0.110783,-0.474009 -0.195687,0.250323 -0.0902,0.303747 -0.110783,0.474009"
     inkscape:connector-curvature="0" />
</svg>
