<?xml version="1.0" encoding="UTF-8" standalone="no"?>
<svg
   xmlns:dc="http://purl.org/dc/elements/1.1/"
   xmlns:cc="http://creativecommons.org/ns#"
   xmlns:rdf="http://www.w3.org/1999/02/22-rdf-syntax-ns#"
   xmlns:svg="http://www.w3.org/2000/svg"
   xmlns="http://www.w3.org/2000/svg"
   xmlns:xlink="http://www.w3.org/1999/xlink"
   xmlns:sodipodi="http://sodipodi.sourceforge.net/DTD/sodipodi-0.dtd"
   xmlns:inkscape="http://www.inkscape.org/namespaces/inkscape"
   id="svg4715"
   height="32"
   width="32"
   version="1.1"
   sodipodi:docname="filetype-archive.svg"
   inkscape:version="0.92.4 (5da689c313, 2019-01-14)">
  <sodipodi:namedview
     pagecolor="#ffffff"
     bordercolor="#666666"
     borderopacity="1"
     objecttolerance="10"
     gridtolerance="10"
     guidetolerance="10"
     inkscape:pageopacity="0"
     inkscape:pageshadow="2"
     inkscape:window-width="2880"
     inkscape:window-height="1706"
     id="namedview42"
     showgrid="false"
     inkscape:zoom="7.375"
     inkscape:cx="-1.4237288"
     inkscape:cy="16"
     inkscape:window-x="-11"
     inkscape:window-y="-11"
     inkscape:window-maximized="1"
     inkscape:current-layer="svg4715" />
  <defs
     id="defs4717">
    <linearGradient
       id="linearGradient909">
      <stop
         id="stop905"
         style="stop-color:#fafafa;stop-opacity:1"
         offset="0" />
      <stop
         id="stop907"
         style="stop-color:#d4d4d4;stop-opacity:1"
         offset="1" />
    </linearGradient>
    <linearGradient
       id="linearGradient3924">
      <stop
         offset="0"
         style="stop-color:#ffffff;stop-opacity:1"
         id="stop3926" />
      <stop
         offset="0.04026115"
         style="stop-color:#ffffff;stop-opacity:0.23529412"
         id="stop3928" />
      <stop
         offset="0.95833331"
         style="stop-color:#ffffff;stop-opacity:0.15686275"
         id="stop3930" />
      <stop
         offset="1"
         style="stop-color:#ffffff;stop-opacity:0.39215687"
         id="stop3932" />
    </linearGradient>
    <radialGradient
       gradientTransform="matrix(2.003784,0,0,1.4,27.98813,-17.4)"
       gradientUnits="userSpaceOnUse"
       xlink:href="#linearGradient3688-166-749"
       id="radialGradient3163"
       fy="43.5"
       fx="4.9929786"
       r="2.5"
       cy="43.5"
       cx="4.9929786" />
    <linearGradient
       id="linearGradient3688-166-749">
      <stop
         offset="0"
         style="stop-color:#181818;stop-opacity:1"
         id="stop2883" />
      <stop
         offset="1"
         style="stop-color:#181818;stop-opacity:0"
         id="stop2885" />
    </linearGradient>
    <radialGradient
       gradientTransform="matrix(2.003784,0,0,1.4,-20.01187,-104.4)"
       gradientUnits="userSpaceOnUse"
       xlink:href="#linearGradient3688-464-309"
       id="radialGradient3165"
       fy="43.5"
       fx="4.9929786"
       r="2.5"
       cy="43.5"
       cx="4.9929786" />
    <linearGradient
       id="linearGradient3688-464-309">
      <stop
         offset="0"
         style="stop-color:#181818;stop-opacity:1"
         id="stop2889" />
      <stop
         offset="1"
         style="stop-color:#181818;stop-opacity:0"
         id="stop2891" />
    </linearGradient>
    <linearGradient
       gradientUnits="userSpaceOnUse"
       xlink:href="#linearGradient3702-501-757"
       id="linearGradient3167"
       y2="39.999443"
       x2="25.058096"
       y1="47.027729"
       x1="25.058096" />
    <linearGradient
       id="linearGradient3702-501-757">
      <stop
         offset="0"
         style="stop-color:#181818;stop-opacity:0"
         id="stop2895" />
      <stop
         offset="0.5"
         style="stop-color:#181818;stop-opacity:1"
         id="stop2897" />
      <stop
         offset="1"
         style="stop-color:#181818;stop-opacity:0"
         id="stop2899" />
    </linearGradient>
    <linearGradient
       gradientTransform="matrix(0.57432433,0,0,0.57432432,2.2162187,2.2912225)"
       gradientUnits="userSpaceOnUse"
       xlink:href="#linearGradient3924"
       id="linearGradient3027"
       y2="41.759991"
       x2="23.999996"
       y1="6.2399888"
       x1="23.999996" />
    <linearGradient
       xlink:href="#linearGradient909"
       id="linearGradient903"
       x1="14.329722"
       y1="32.022377"
       x2="14.329722"
       y2="-0.070297658"
       gradientUnits="userSpaceOnUse"
       gradientTransform="matrix(0.85,0,0,0.85,2.4,-29.675)" />
  </defs>
  <metadata
     id="metadata4720">
    <rdf:RDF>
      <cc:Work
         rdf:about="">
        <dc:format>image/svg+xml</dc:format>
        <dc:type
           rdf:resource="http://purl.org/dc/dcmitype/StillImage" />
        <dc:title />
      </cc:Work>
    </rdf:RDF>
  </metadata>
  <g
     style="display:inline;stroke-width:2.10922644;stroke-miterlimit:4;stroke-dasharray:none"
     id="g2036"
     transform="matrix(0.59499974,0,0,0.37777813,1.7199997,11.069438)">
    <g
       style="opacity:0.4;stroke-width:1.81306304;stroke-miterlimit:4;stroke-dasharray:none"
       id="g3712"
       transform="matrix(1.052632,0,0,1.285713,-1.263158,-13.42854)">
      <rect
         style="fill:url(#radialGradient3163);fill-opacity:1;stroke:none;stroke-width:1.81306304;stroke-miterlimit:4;stroke-dasharray:none"
         id="rect2801"
         y="40"
         x="38"
         height="7"
         width="5" />
      <rect
         style="fill:url(#radialGradient3165);fill-opacity:1;stroke:none;stroke-width:1.81306304;stroke-miterlimit:4;stroke-dasharray:none"
         id="rect3696"
         transform="scale(-1)"
         y="-47"
         x="-10"
         height="7"
         width="5" />
      <rect
         style="fill:url(#linearGradient3167);fill-opacity:1;stroke:none;stroke-width:1.81306304;stroke-miterlimit:4;stroke-dasharray:none"
         id="rect3700"
         y="40"
         x="10"
         height="7.0000005"
         width="28" />
    </g>
  </g>
  <rect
     style="color:#000000;display:inline;overflow:visible;visibility:visible;fill:url(#linearGradient903);fill-opacity:1;fill-rule:nonzero;stroke:none;stroke-width:1;marker:none;enable-background:accumulate;stroke-miterlimit:4;stroke-dasharray:none"
     id="rect5505"
     y="-27.125"
     x="4.9499998"
     ry="1.3730947"
     rx="1.3730947"
     height="22.1"
     width="22.1"
     transform="scale(1,-1)" />
  <rect
     style="color:#000000;display:inline;overflow:visible;visibility:visible;opacity:0.5;fill:none;stroke:#555761;stroke-width:1;stroke-linecap:round;stroke-linejoin:round;stroke-miterlimit:4;stroke-dasharray:none;stroke-dashoffset:0;stroke-opacity:1;marker:none;enable-background:accumulate"
     id="rect5505-6-6"
     y="4.5999999"
     x="4.5250001"
     ry="1.8360001"
     rx="1.8360001"
     height="22.950001"
     width="22.950001" />
  <rect
     style="fill:none;stroke:url(#linearGradient3027);stroke-width:1;stroke-linecap:round;stroke-linejoin:round;stroke-miterlimit:4;stroke-dasharray:none;stroke-dashoffset:0;stroke-opacity:1"
     id="rect6741-7"
     y="5.4499998"
     x="5.375"
     ry="1.0119046"
     rx="0.923913"
     height="21.25"
     width="21.25" />
  <path
     style="opacity:0.2;fill:#000000;fill-opacity:1;stroke:#000000;stroke-width:1;stroke-opacity:1;stroke-miterlimit:4;stroke-dasharray:none"
     d="m 16.007551,14.796224 c -1.17002,0 -2.125,0.95947 -2.125,2.125 v 3.4 c 0,1.16553 0.95498,2.125 2.125,2.125 1.170019,0 2.125,-0.95947 2.125,-2.125 v -3.4 c 0,-1.16553 -0.954981,-2.125 -2.125,-2.125 z m 0,1.275 c 0.4692,0 0.85,0.34 0.85,0.85 0,0.425 -0.3808,0.85 -0.85,0.85 -0.4692,0 -0.85,-0.425 -0.85,-0.85 0,-0.51 0.3808,-0.85 0.85,-0.85 z m 0,2.55 c 0.4692,0 0.85,0.34 0.85,0.85 v 0.85 c 0,0.425 -0.3808,0.85 -0.85,0.85 -0.4692,0 -0.85,-0.425 -0.85,-0.85 v -0.85 c 0,-0.51 0.3808,-0.85 0.85,-0.85 z"
     id="path8689"
     inkscape:connector-curvature="0" />
  <path
     d="m 14.307551,4.6 v 10.621224 c 0,0.935 0.76075,1.7 1.7,1.7 0.93925,0 1.7,-0.765 1.7,-1.7 V 4.6 Z"
     id="path14"
     style="opacity:0.5;fill:#000000;fill-opacity:1;stroke-width:1;stroke-miterlimit:4;stroke-dasharray:none"
     inkscape:connector-curvature="0" />
  <path
     id="path16"
     d="m 16,5.025 v 0.85 h 0.85 v -0.85 z m 0,0.85 h -0.85 v 0.85 H 16 Z m 0,0.85 v 0.85 h 0.85 v -0.85 z m 0,0.85 h -0.85 v 0.85 H 16 Z m 0,0.85 v 0.85 h 0.85 v -0.85 z m 0,0.85 h -0.85 v 0.85 H 16 Z m 0,0.85 v 0.85 h 0.85 v -0.85 z m 0,0.85 h -0.85 v 0.85 H 16 Z m 0,0.85 v 0.85 h 0.85 v -0.85 z m 0,0.85 h -0.85 v 0.85 H 16 Z m 0,0.85 v 0.85 h 0.85 v -0.85 z m 0,0.85 h -0.85 v 0.85 H 16 Z m 0,0.85 v 0.85 c 0.4692,0 0.85,-0.425 0.85,-0.85 z"
     style="fill:#999999;stroke-width:1;stroke-miterlimit:4;stroke-dasharray:none"
     inkscape:connector-curvature="0" />
  <path
     style="fill:#ecf0f1;fill-opacity:1;stroke-width:1;stroke-miterlimit:4;stroke-dasharray:none"
     id="path8682"
     d="m 15.157551,7.5712246 v -0.85 h 0.85 v 0.85 z m 0,-1.7 v -0.85 h 0.85 v 0.85 z"
     inkscape:connector-curvature="0" />
  <path
     d="m 15.157551,6.7212246 v 0.85 h 0.85 v -0.85 z m 0,1.7 v 0.85 h 0.85 v -0.85 z m 0,1.6999994 v 0.85 h 0.85 v -0.85 z m 0,1.7 v 0.85 h 0.85 v -0.85 z m 0,1.7 v 0.85 h 0.85 v -0.85 z m 0,1.7 c 0,0.425 0.3808,0.85 0.85,0.85 v -0.85 z"
     id="path18"
     style="fill:#ecf0f1;stroke-width:1;stroke-miterlimit:4;stroke-dasharray:none"
     inkscape:connector-curvature="0" />
  <path
     id="path22"
     d="m 16.007551,13.946224 c -1.17002,0 -2.125,0.95947 -2.125,2.125 v 3.4 c 0,1.16553 0.95498,2.125 2.125,2.125 1.170019,0 2.125,-0.95947 2.125,-2.125 v -3.4 c 0,-1.16553 -0.954981,-2.125 -2.125,-2.125 z m 0,1.275 c 0.4692,0 0.85,0.34 0.85,0.85 0,0.425 -0.3808,0.85 -0.85,0.85 -0.4692,0 -0.85,-0.425 -0.85,-0.85 0,-0.51 0.3808,-0.85 0.85,-0.85 z m 0,2.55 c 0.4692,0 0.85,0.34 0.85,0.85 v 0.85 c 0,0.425 -0.3808,0.85 -0.85,0.85 -0.4692,0 -0.85,-0.425 -0.85,-0.85 v -0.85 c 0,-0.51 0.3808,-0.85 0.85,-0.85 z"
     style="fill:#ecf0f1;stroke:#000000;stroke-width:1;stroke-opacity:0.46296297;stroke-miterlimit:4;stroke-dasharray:none"
     inkscape:connector-curvature="0" />
</svg>
