<?xml version="1.0" encoding="UTF-8" standalone="no"?>
<svg
   xmlns:dc="http://purl.org/dc/elements/1.1/"
   xmlns:cc="http://creativecommons.org/ns#"
   xmlns:rdf="http://www.w3.org/1999/02/22-rdf-syntax-ns#"
   xmlns:svg="http://www.w3.org/2000/svg"
   xmlns="http://www.w3.org/2000/svg"
   xmlns:xlink="http://www.w3.org/1999/xlink"
   xmlns:sodipodi="http://sodipodi.sourceforge.net/DTD/sodipodi-0.dtd"
   xmlns:inkscape="http://www.inkscape.org/namespaces/inkscape"
   id="svg3182"
   height="32"
   width="32"
   version="1.1"
   sodipodi:docname="filetype-msexcel.svg"
   inkscape:version="0.92.4 (5da689c313, 2019-01-14)">
  <sodipodi:namedview
     pagecolor="#ffffff"
     bordercolor="#666666"
     borderopacity="1"
     objecttolerance="10"
     gridtolerance="10"
     guidetolerance="10"
     inkscape:pageopacity="0"
     inkscape:pageshadow="2"
     inkscape:window-width="2880"
     inkscape:window-height="1706"
     id="namedview42"
     showgrid="false"
     inkscape:zoom="7.375"
     inkscape:cx="-1.4237288"
     inkscape:cy="16"
     inkscape:window-x="-11"
     inkscape:window-y="-11"
     inkscape:window-maximized="1"
     inkscape:current-layer="svg3182" />
  <defs
     id="defs3184">
    <linearGradient
       id="linearGradient3977">
      <stop
         offset="0"
         style="stop-color:#ffffff;stop-opacity:1"
         id="stop3979" />
      <stop
         offset="0"
         style="stop-color:#ffffff;stop-opacity:0.23529412"
         id="stop3981" />
      <stop
         offset="0.99999994"
         style="stop-color:#ffffff;stop-opacity:0.15686275"
         id="stop3983" />
      <stop
         offset="1"
         style="stop-color:#ffffff;stop-opacity:0.39215687"
         id="stop3985" />
    </linearGradient>
    <linearGradient
       id="linearGradient3600-4">
      <stop
         offset="0"
         style="stop-color:#f4f4f4;stop-opacity:1"
         id="stop3602-7" />
      <stop
         offset="1"
         style="stop-color:#dbdbdb;stop-opacity:1"
         id="stop3604-6" />
    </linearGradient>
    <linearGradient
       id="linearGradient5060">
      <stop
         offset="0"
         style="stop-color:#000000;stop-opacity:1"
         id="stop5062" />
      <stop
         offset="1"
         style="stop-color:#000000;stop-opacity:0"
         id="stop5064" />
    </linearGradient>
    <linearGradient
       id="linearGradient5048">
      <stop
         offset="0"
         style="stop-color:#000000;stop-opacity:0"
         id="stop5050" />
      <stop
         offset="0.5"
         style="stop-color:#000000;stop-opacity:1"
         id="stop5056" />
      <stop
         offset="1"
         style="stop-color:#000000;stop-opacity:0"
         id="stop5052" />
    </linearGradient>
    <linearGradient
       gradientTransform="matrix(0.48243243,0,0,0.62027025,4.4216247,0.18851835)"
       gradientUnits="userSpaceOnUse"
       xlink:href="#linearGradient3977"
       id="linearGradient3013"
       y2="41.814808"
       x2="23.99999"
       y1="6.1851754"
       x1="23.99999" />
    <linearGradient
       gradientTransform="matrix(0.53428447,0,0,0.51713483,3.1771718,1.8704268)"
       gradientUnits="userSpaceOnUse"
       xlink:href="#linearGradient3600-4"
       id="linearGradient3016"
       y2="47.013336"
       x2="25.132275"
       y1="0.98520643"
       x1="25.132275" />
    <radialGradient
       gradientTransform="matrix(0.0133137,0,0,0.007,17.368868,24.408479)"
       gradientUnits="userSpaceOnUse"
       xlink:href="#linearGradient5060"
       id="radialGradient3021"
       fy="486.64789"
       fx="605.71429"
       r="117.14286"
       cy="486.64789"
       cx="605.71429" />
    <radialGradient
       gradientTransform="matrix(-0.0133137,0,0,0.007,14.631131,24.408479)"
       gradientUnits="userSpaceOnUse"
       xlink:href="#linearGradient5060"
       id="radialGradient3024"
       fy="486.64789"
       fx="605.71429"
       r="117.14286"
       cy="486.64789"
       cx="605.71429" />
    <linearGradient
       gradientTransform="matrix(0.03890389,0,0,0.007,1.9390243,24.408464)"
       gradientUnits="userSpaceOnUse"
       xlink:href="#linearGradient5048"
       id="linearGradient3027"
       y2="609.50507"
       x2="302.85715"
       y1="366.64789"
       x1="302.85715" />
    <linearGradient
       id="linearGradient3104-6">
      <stop
         id="stop3106-3"
         style="stop-color:#000000;stop-opacity:0.31782946"
         offset="0" />
      <stop
         id="stop3108-9"
         style="stop-color:#000000;stop-opacity:0.24031007"
         offset="1" />
    </linearGradient>
    <linearGradient
       y2="2.9062471"
       x2="-51.786404"
       y1="50.786446"
       x1="-51.786404"
       gradientTransform="matrix(0.4510452,0,0,0.50124542,35.779166,0.8018684)"
       gradientUnits="userSpaceOnUse"
       id="linearGradient3148"
       xlink:href="#linearGradient3104-6" />
    <radialGradient
       r="12.671875"
       fy="9.9571075"
       fx="5.0852842"
       cy="9.9571075"
       cx="5.6155143"
       gradientTransform="matrix(-1.7013543e-8,4.6507195,-5.7095969,-2.04463e-8,72.844536,-39.147848)"
       gradientUnits="userSpaceOnUse"
       id="radialGradient4777"
       xlink:href="#linearGradient3242-7-3-8-0-4-58" />
    <linearGradient
       id="linearGradient3242-7-3-8-0-4-58">
      <stop
         id="stop3244-5-8-5-6-4-3"
         style="stop-color:#bdff69;stop-opacity:1;"
         offset="0" />
      <stop
         id="stop3246-9-5-1-5-3-0"
         style="stop-color:#8ed451;stop-opacity:1;"
         offset="0.26238" />
      <stop
         id="stop3248-7-2-0-7-5-35"
         style="stop-color:#58aa30;stop-opacity:1;"
         offset="0.66093999" />
      <stop
         id="stop3250-8-2-8-5-6-40"
         style="stop-color:#2a6c1f;stop-opacity:1;"
         offset="1" />
    </linearGradient>
  </defs>
  <metadata
     id="metadata3187">
    <rdf:RDF>
      <cc:Work
         rdf:about="">
        <dc:format>image/svg+xml</dc:format>
        <dc:type
           rdf:resource="http://purl.org/dc/dcmitype/StillImage" />
        <dc:title />
      </cc:Work>
    </rdf:RDF>
  </metadata>
  <rect
     style="display:inline;overflow:visible;visibility:visible;opacity:0.15;fill:url(#linearGradient3027);fill-opacity:1;fill-rule:nonzero;stroke:none;stroke-width:1;marker:none;stroke-miterlimit:4;stroke-dasharray:none"
     id="rect2879"
     y="26.974998"
     x="6.607491"
     height="1.7"
     width="18.785019" />
  <path
     style="display:inline;overflow:visible;visibility:visible;opacity:0.15;fill:url(#radialGradient3024);fill-opacity:1;fill-rule:nonzero;stroke:none;stroke-width:1;marker:none;stroke-miterlimit:4;stroke-dasharray:none"
     id="path2881"
     d="m 6.6074904,26.975072 c 0,0 0,1.699906 0,1.699906 -0.6856228,0.0032 -1.6575017,-0.380863 -1.6575017,-0.850063 0,-0.4692 0.7651028,-0.849843 1.6575017,-0.849843 z"
     inkscape:connector-curvature="0" />
  <path
     style="display:inline;overflow:visible;visibility:visible;opacity:0.15;fill:url(#radialGradient3021);fill-opacity:1;fill-rule:nonzero;stroke:none;stroke-width:1;marker:none;stroke-miterlimit:4;stroke-dasharray:none"
     id="path2883"
     d="m 25.392509,26.975072 c 0,0 0,1.699906 0,1.699906 0.685622,0.0032 1.657502,-0.380863 1.657502,-0.850063 0,-0.4692 -0.765104,-0.849843 -1.657502,-0.849843 z"
     inkscape:connector-curvature="0" />
  <path
     style="display:inline;fill:url(#linearGradient3016);fill-opacity:1;stroke:none;stroke-width:1;stroke-miterlimit:4;stroke-dasharray:none"
     id="path4160-3"
     d="m 6.65,3.1749987 c 4.285119,0 18.699977,0.00152 18.699977,0.00152 L 25.35,26.974999 c 0,0 -12.466666,0 -18.7,0 0,-7.933333 0,-15.866665 0,-23.7999968 z"
     inkscape:connector-curvature="0" />
  <path
     style="fill:none;stroke:url(#linearGradient3013);stroke-width:1;stroke-linecap:round;stroke-linejoin:miter;stroke-miterlimit:4;stroke-dasharray:none;stroke-dashoffset:0;stroke-opacity:1"
     id="rect6741-1"
     d="M 24.925,26.549999 H 7.075 V 3.5999987 h 17.85 z"
     inkscape:connector-curvature="0" />
  <path
     d="m 6.2249668,2.7499511 c 4.4799082,0 19.5500462,0.0017 19.5500462,0.0017 l 2e-5,24.6483949 c 0,0 -13.033377,0 -19.5500662,0 0,-8.216713 0,-16.433344 0,-24.6499623 z"
     id="path4160-6-1"
     style="display:inline;fill:none;stroke:url(#linearGradient3148);stroke-width:1;stroke-linecap:butt;stroke-linejoin:round;stroke-miterlimit:4;stroke-dasharray:none;stroke-dashoffset:0;stroke-opacity:1"
     inkscape:connector-curvature="0" />
  <path
     id="path4881"
     d="m 16.85,9.153332 -7.65,1.36 v 9.973334 l 7.65,1.36 z m 0.85,1.671667 v 0.85 h 1.7 v 0.85 h -1.7 v 0.85 h 1.7 v 0.85 h -1.7 v 0.85 h 1.7 v 0.85 h -1.7 v 0.85 h 1.7 v 0.85 h -1.7 v 0.85 h 1.7 v 0.85 h -1.7 v 0.85 h 5.1 v -9.35 z m 2.55,0.85 h 1.643333 v 0.85 H 20.25 Z m 0,1.7 h 1.643333 v 0.85 H 20.25 Z m -5.765833,-0.269167 c 0.08233,-0.0016 0.127541,-0.0034 0.1275,0 -6.4e-5,0.0069 -0.231853,0.533827 -0.524167,1.161667 l -0.538333,1.133333 0.538333,1.133334 c 0.292314,0.61942 0.524167,1.149907 0.524167,1.175833 0,0.05444 -0.390601,0.04536 -0.7225,-0.01417 -0.219694,-0.0394 -0.230675,-0.06406 -0.51,-0.765 -0.15918,-0.399452 -0.313194,-0.751226 -0.34,-0.779167 -0.02679,-0.02794 -0.18229,0.274753 -0.34,0.665834 -0.157711,0.391077 -0.304496,0.727327 -0.325834,0.750833 -0.02135,0.02353 -0.215261,0.02353 -0.439166,0 l -0.410834,-0.0425 0.495834,-1.04833 0.495833,-1.048333 -0.439167,-1.005834 c -0.240452,-0.554938 -0.439166,-1.051471 -0.439166,-1.090833 0,-0.04394 0.241876,0.112293 0.425,-0.07083 h 0.425 l 0.240833,0.68 c 0.135357,0.372217 0.27248,0.695067 0.2975,0.7225 0.02502,0.02743 0.193505,-0.303513 0.368333,-0.736667 l 0.311667,-0.779169 0.453333,-0.02833 c 0.124966,-0.006 0.243494,-0.01251 0.325834,-0.01417 z M 20.25,15.074999 h 1.643333 v 0.85 H 20.25 Z m 0,1.7 h 1.643333 v 0.85 H 20.25 Z m 0,1.7 h 1.643333 v 0.85 H 20.25 Z"
     style="color:#000000;clip-rule:nonzero;display:inline;overflow:visible;visibility:visible;opacity:1;isolation:auto;mix-blend-mode:normal;color-interpolation:sRGB;color-interpolation-filters:linearRGB;solid-color:#000000;solid-opacity:1;fill:url(#radialGradient4777);fill-opacity:1;fill-rule:nonzero;stroke:none;stroke-width:1;stroke-linecap:butt;stroke-linejoin:miter;stroke-miterlimit:4;stroke-dasharray:none;stroke-dashoffset:0;stroke-opacity:1;marker:none;color-rendering:auto;image-rendering:auto;shape-rendering:auto;text-rendering:auto;enable-background:accumulate"
     inkscape:connector-curvature="0" />
</svg>
