<?xml version="1.0" encoding="UTF-8" standalone="no"?>
<svg
   xmlns:dc="http://purl.org/dc/elements/1.1/"
   xmlns:cc="http://creativecommons.org/ns#"
   xmlns:rdf="http://www.w3.org/1999/02/22-rdf-syntax-ns#"
   xmlns:svg="http://www.w3.org/2000/svg"
   xmlns="http://www.w3.org/2000/svg"
   xmlns:xlink="http://www.w3.org/1999/xlink"
   xmlns:sodipodi="http://sodipodi.sourceforge.net/DTD/sodipodi-0.dtd"
   xmlns:inkscape="http://www.inkscape.org/namespaces/inkscape"
   id="svg3182"
   height="32"
   width="32"
   version="1.1"
   sodipodi:docname="filetype-iso.svg"
   inkscape:version="0.92.4 (5da689c313, 2019-01-14)">
  <sodipodi:namedview
     pagecolor="#ffffff"
     bordercolor="#666666"
     borderopacity="1"
     objecttolerance="10"
     gridtolerance="10"
     guidetolerance="10"
     inkscape:pageopacity="0"
     inkscape:pageshadow="2"
     inkscape:window-width="2880"
     inkscape:window-height="1706"
     id="namedview102"
     showgrid="false"
     inkscape:zoom="7.375"
     inkscape:cx="-1.4237288"
     inkscape:cy="16"
     inkscape:window-x="-11"
     inkscape:window-y="-11"
     inkscape:window-maximized="1"
     inkscape:current-layer="svg3182" />
  <defs
     id="defs3184">
    <linearGradient
       id="linearGradient3977">
      <stop
         offset="0"
         style="stop-color:#ffffff;stop-opacity:1"
         id="stop3979" />
      <stop
         offset="0"
         style="stop-color:#ffffff;stop-opacity:0.23529412"
         id="stop3981" />
      <stop
         offset="0.99999994"
         style="stop-color:#ffffff;stop-opacity:0.15686275"
         id="stop3983" />
      <stop
         offset="1"
         style="stop-color:#ffffff;stop-opacity:0.39215687"
         id="stop3985" />
    </linearGradient>
    <linearGradient
       id="linearGradient3600-4">
      <stop
         offset="0"
         style="stop-color:#f4f4f4;stop-opacity:1"
         id="stop3602-7" />
      <stop
         offset="1"
         style="stop-color:#dbdbdb;stop-opacity:1"
         id="stop3604-6" />
    </linearGradient>
    <linearGradient
       id="linearGradient5060">
      <stop
         offset="0"
         style="stop-color:#000000;stop-opacity:1"
         id="stop5062" />
      <stop
         offset="1"
         style="stop-color:#000000;stop-opacity:0"
         id="stop5064" />
    </linearGradient>
    <linearGradient
       id="linearGradient5048">
      <stop
         offset="0"
         style="stop-color:#000000;stop-opacity:0"
         id="stop5050" />
      <stop
         offset="0.5"
         style="stop-color:#000000;stop-opacity:1"
         id="stop5056" />
      <stop
         offset="1"
         style="stop-color:#000000;stop-opacity:0"
         id="stop5052" />
    </linearGradient>
    <linearGradient
       gradientTransform="matrix(0.48243243,0,0,0.62027025,4.4216247,0.18851835)"
       gradientUnits="userSpaceOnUse"
       xlink:href="#linearGradient3977"
       id="linearGradient3013"
       y2="41.814808"
       x2="23.99999"
       y1="6.1851754"
       x1="23.99999" />
    <linearGradient
       gradientTransform="matrix(0.53428447,0,0,0.51713483,3.1771718,1.8704268)"
       gradientUnits="userSpaceOnUse"
       xlink:href="#linearGradient3600-4"
       id="linearGradient3016"
       y2="47.013336"
       x2="25.132275"
       y1="0.98520643"
       x1="25.132275" />
    <radialGradient
       gradientTransform="matrix(0.0133137,0,0,0.007,17.368868,24.408479)"
       gradientUnits="userSpaceOnUse"
       xlink:href="#linearGradient5060"
       id="radialGradient3021"
       fy="486.64789"
       fx="605.71429"
       r="117.14286"
       cy="486.64789"
       cx="605.71429" />
    <radialGradient
       gradientTransform="matrix(-0.0133137,0,0,0.007,14.631131,24.408479)"
       gradientUnits="userSpaceOnUse"
       xlink:href="#linearGradient5060"
       id="radialGradient3024"
       fy="486.64789"
       fx="605.71429"
       r="117.14286"
       cy="486.64789"
       cx="605.71429" />
    <linearGradient
       gradientTransform="matrix(0.03890389,0,0,0.007,1.9390243,24.408464)"
       gradientUnits="userSpaceOnUse"
       xlink:href="#linearGradient5048"
       id="linearGradient3027"
       y2="609.50507"
       x2="302.85715"
       y1="366.64789"
       x1="302.85715" />
    <linearGradient
       id="linearGradient3104-6">
      <stop
         id="stop3106-3"
         style="stop-color:#000000;stop-opacity:0.31782946"
         offset="0" />
      <stop
         id="stop3108-9"
         style="stop-color:#000000;stop-opacity:0.24031007"
         offset="1" />
    </linearGradient>
    <linearGradient
       y2="2.9062471"
       x2="-51.786404"
       y1="50.786446"
       x1="-51.786404"
       gradientTransform="matrix(0.4510452,0,0,0.50124542,35.779166,0.8018684)"
       gradientUnits="userSpaceOnUse"
       id="linearGradient3148"
       xlink:href="#linearGradient3104-6" />
    <linearGradient
       gradientTransform="matrix(0.37187491,0,0,0.37187491,7.075,6.1499984)"
       gradientUnits="userSpaceOnUse"
       xlink:href="#linearGradient3428"
       id="linearGradient3159"
       y2="32.509201"
       x2="21.448364"
       y1="15.5"
       x1="21.448364" />
    <linearGradient
       id="linearGradient3428">
      <stop
         offset="0"
         style="stop-color:#aaaaaa;stop-opacity:1"
         id="stop3430" />
      <stop
         offset="1"
         style="stop-color:#d4d4d4;stop-opacity:1"
         id="stop3432" />
    </linearGradient>
    <linearGradient
       gradientTransform="matrix(0.19320491,0,0,-0.19320491,11.296038,19.905122)"
       gradientUnits="userSpaceOnUse"
       xlink:href="#linearGradient6036"
       id="linearGradient3162"
       y2="45.962208"
       x2="18.203465"
       y1="4.0378027"
       x1="18.775953" />
    <linearGradient
       id="linearGradient6036">
      <stop
         offset="0"
         style="stop-color:#ffffff;stop-opacity:1"
         id="stop6038" />
      <stop
         offset="1"
         style="stop-color:#ffffff;stop-opacity:0"
         id="stop6040" />
    </linearGradient>
    <linearGradient
       gradientTransform="matrix(0.39054052,0,0,0.39054052,-12.014937,5.1719692)"
       gradientUnits="userSpaceOnUse"
       xlink:href="#linearGradient4011"
       id="linearGradient3165"
       y2="44.340794"
       x2="71.204407"
       y1="6.2375584"
       x1="71.204407" />
    <linearGradient
       id="linearGradient4011">
      <stop
         offset="0"
         style="stop-color:#ffffff;stop-opacity:1"
         id="stop4013" />
      <stop
         offset="0.507761"
         style="stop-color:#ffffff;stop-opacity:0.23529412"
         id="stop4015" />
      <stop
         offset="0.83456558"
         style="stop-color:#ffffff;stop-opacity:0.15686275"
         id="stop4017" />
      <stop
         offset="1"
         style="stop-color:#ffffff;stop-opacity:0.39215687"
         id="stop4019" />
    </linearGradient>
    <linearGradient
       spreadMethod="reflect"
       gradientUnits="userSpaceOnUse"
       xlink:href="#linearGradient3487"
       id="linearGradient2492"
       y2="9.8622112"
       x2="24.27351"
       y1="10.774516"
       x1="20.580074" />
    <linearGradient
       id="linearGradient3487">
      <stop
         offset="0"
         style="stop-color:#e6cde2;stop-opacity:1"
         id="stop3489" />
      <stop
         offset="1"
         style="stop-color:#e6cde2;stop-opacity:0"
         id="stop3491" />
    </linearGradient>
    <linearGradient
       spreadMethod="reflect"
       gradientUnits="userSpaceOnUse"
       xlink:href="#linearGradient3495"
       id="linearGradient2494"
       y2="9.7956104"
       x2="21.047453"
       y1="11.200086"
       x1="17.494959" />
    <linearGradient
       id="linearGradient3495">
      <stop
         offset="0"
         style="stop-color:#c1cbe4;stop-opacity:1"
         id="stop3497" />
      <stop
         offset="1"
         style="stop-color:#c1cbe4;stop-opacity:0"
         id="stop3499" />
    </linearGradient>
    <linearGradient
       spreadMethod="reflect"
       gradientUnits="userSpaceOnUse"
       xlink:href="#linearGradient3503"
       id="linearGradient2496"
       y2="10.732353"
       x2="16.994024"
       y1="13.045606"
       x1="14.084608" />
    <linearGradient
       id="linearGradient3503">
      <stop
         offset="0"
         style="stop-color:#c4ebdd;stop-opacity:1"
         id="stop3505" />
      <stop
         offset="1"
         style="stop-color:#c4ebdd;stop-opacity:0"
         id="stop3507" />
    </linearGradient>
    <linearGradient
       spreadMethod="reflect"
       gradientUnits="userSpaceOnUse"
       xlink:href="#linearGradient3511"
       id="linearGradient2498"
       y2="13.461712"
       x2="14.609327"
       y1="16.188046"
       x1="12.371647" />
    <linearGradient
       id="linearGradient3511">
      <stop
         offset="0"
         style="stop-color:#ebeec7;stop-opacity:1"
         id="stop3513" />
      <stop
         offset="1"
         style="stop-color:#ebeec7;stop-opacity:0"
         id="stop3515" />
    </linearGradient>
    <linearGradient
       spreadMethod="reflect"
       gradientUnits="userSpaceOnUse"
       xlink:href="#linearGradient3519"
       id="linearGradient2500"
       y2="20.612656"
       x2="9.7297754"
       y1="17.886322"
       x1="10.609375" />
    <linearGradient
       id="linearGradient3519">
      <stop
         offset="0"
         style="stop-color:#fcd9cd;stop-opacity:1"
         id="stop3521" />
      <stop
         offset="1"
         style="stop-color:#fcd9cd;stop-opacity:0"
         id="stop3523" />
    </linearGradient>
    <linearGradient
       gradientTransform="matrix(0,0.46364046,-0.46364046,0,26.710096,3.947625)"
       gradientUnits="userSpaceOnUse"
       xlink:href="#linearGradient3263"
       id="linearGradient3181"
       y2="14.2033"
       x2="35.391201"
       y1="32.4165"
       x1="12.2744" />
    <linearGradient
       gradientUnits="userSpaceOnUse"
       id="linearGradient3263"
       y2="14.2033"
       x2="35.391201"
       y1="32.4165"
       x1="12.2744">
      <stop
         offset="0"
         style="stop-color:#dedbde;stop-opacity:1"
         id="stop3265" />
      <stop
         offset="0.5"
         style="stop-color:#e6e6e6;stop-opacity:1"
         id="stop3267" />
      <stop
         offset="1"
         style="stop-color:#d2d2d2;stop-opacity:1"
         id="stop3269" />
    </linearGradient>
    <linearGradient
       gradientTransform="matrix(0.39578711,0,0,0.39578711,26.395372,5.576107)"
       gradientUnits="userSpaceOnUse"
       xlink:href="#linearGradient3772"
       id="linearGradient3183"
       y2="45.032898"
       x2="-21.915663"
       y1="3"
       x1="-21.915663" />
    <linearGradient
       id="linearGradient3772">
      <stop
         offset="0"
         style="stop-color:#b4b4b4;stop-opacity:1"
         id="stop3774" />
      <stop
         offset="1"
         style="stop-color:#969696;stop-opacity:1"
         id="stop3776" />
    </linearGradient>
    <radialGradient
       gradientTransform="matrix(0.41321551,0,0,0.13146542,6.3578122,15.976299)"
       gradientUnits="userSpaceOnUse"
       xlink:href="#linearGradient5060"
       id="radialGradient3186"
       fy="41.63604"
       fx="23.334524"
       r="22.627417"
       cy="41.63604"
       cx="23.334524" />
    <linearGradient
       spreadMethod="reflect"
       y2="9.8622112"
       x2="24.27351"
       y1="10.774516"
       x1="20.580074"
       gradientUnits="userSpaceOnUse"
       id="linearGradient993"
       xlink:href="#linearGradient3487" />
    <linearGradient
       spreadMethod="reflect"
       y2="9.7956104"
       x2="21.047453"
       y1="11.200086"
       x1="17.494959"
       gradientUnits="userSpaceOnUse"
       id="linearGradient995"
       xlink:href="#linearGradient3495" />
    <linearGradient
       spreadMethod="reflect"
       y2="10.732353"
       x2="16.994024"
       y1="13.045606"
       x1="14.084608"
       gradientUnits="userSpaceOnUse"
       id="linearGradient997"
       xlink:href="#linearGradient3503" />
    <linearGradient
       spreadMethod="reflect"
       y2="13.461712"
       x2="14.609327"
       y1="16.188046"
       x1="12.371647"
       gradientUnits="userSpaceOnUse"
       id="linearGradient999"
       xlink:href="#linearGradient3511" />
    <linearGradient
       spreadMethod="reflect"
       y2="20.612656"
       x2="9.7297754"
       y1="17.886322"
       x1="10.609375"
       gradientUnits="userSpaceOnUse"
       id="linearGradient1001"
       xlink:href="#linearGradient3519" />
  </defs>
  <metadata
     id="metadata3187">
    <rdf:RDF>
      <cc:Work
         rdf:about="">
        <dc:format>image/svg+xml</dc:format>
        <dc:type
           rdf:resource="http://purl.org/dc/dcmitype/StillImage" />
        <dc:title />
      </cc:Work>
    </rdf:RDF>
  </metadata>
  <rect
     style="display:inline;overflow:visible;visibility:visible;opacity:0.15;fill:url(#linearGradient3027);fill-opacity:1;fill-rule:nonzero;stroke:none;stroke-width:1;marker:none;stroke-miterlimit:4;stroke-dasharray:none"
     id="rect2879"
     y="26.974998"
     x="6.607491"
     height="1.7"
     width="18.785019" />
  <path
     style="display:inline;overflow:visible;visibility:visible;opacity:0.15;fill:url(#radialGradient3024);fill-opacity:1;fill-rule:nonzero;stroke:none;stroke-width:1;marker:none;stroke-miterlimit:4;stroke-dasharray:none"
     id="path2881"
     d="m 6.6074904,26.975072 c 0,0 0,1.699906 0,1.699906 -0.6856228,0.0032 -1.6575017,-0.380863 -1.6575017,-0.850063 0,-0.4692 0.7651028,-0.849843 1.6575017,-0.849843 z"
     inkscape:connector-curvature="0" />
  <path
     style="display:inline;overflow:visible;visibility:visible;opacity:0.15;fill:url(#radialGradient3021);fill-opacity:1;fill-rule:nonzero;stroke:none;stroke-width:1;marker:none;stroke-miterlimit:4;stroke-dasharray:none"
     id="path2883"
     d="m 25.392509,26.975072 c 0,0 0,1.699906 0,1.699906 0.685622,0.0032 1.657502,-0.380863 1.657502,-0.850063 0,-0.4692 -0.765104,-0.849843 -1.657502,-0.849843 z"
     inkscape:connector-curvature="0" />
  <path
     style="display:inline;fill:url(#linearGradient3016);fill-opacity:1;stroke:none;stroke-width:1;stroke-miterlimit:4;stroke-dasharray:none"
     id="path4160-3"
     d="m 6.65,3.1749987 c 4.285119,0 18.699977,0.00152 18.699977,0.00152 L 25.35,26.974999 c 0,0 -12.466666,0 -18.7,0 0,-7.933333 0,-15.866665 0,-23.7999968 z"
     inkscape:connector-curvature="0" />
  <path
     style="fill:none;stroke:url(#linearGradient3013);stroke-width:1;stroke-linecap:round;stroke-linejoin:miter;stroke-miterlimit:4;stroke-dasharray:none;stroke-dashoffset:0;stroke-opacity:1"
     id="rect6741-1"
     d="M 24.925,26.549999 H 7.075 V 3.5999987 h 17.85 z"
     inkscape:connector-curvature="0" />
  <path
     d="m 6.2249668,2.7499511 c 4.4799082,0 19.5500462,0.0017 19.5500462,0.0017 l 2e-5,24.6483949 c 0,0 -13.033377,0 -19.5500662,0 0,-8.216713 0,-16.433344 0,-24.6499623 z"
     id="path4160-6-1"
     style="display:inline;fill:none;stroke:url(#linearGradient3148);stroke-width:1;stroke-linecap:butt;stroke-linejoin:round;stroke-miterlimit:4;stroke-dasharray:none;stroke-dashoffset:0;stroke-opacity:1"
     inkscape:connector-curvature="0" />
  <path
     d="m 25.35,21.449998 c 4.8e-4,1.643002 -4.185797,2.975001 -9.35,2.975001 -5.164203,0 -9.3504815,-1.331999 -9.35,-2.975001 -4.815e-4,-1.643002 4.185797,-2.974999 9.35,-2.974999 5.164203,0 9.35048,1.331997 9.35,2.974999 z"
     id="path23417"
     style="display:inline;overflow:visible;visibility:visible;opacity:0.3;fill:url(#radialGradient3186);fill-opacity:1;fill-rule:evenodd;stroke:none;stroke-width:1;marker:none;stroke-miterlimit:4;stroke-dasharray:none"
     inkscape:connector-curvature="0" />
  <path
     d="m 24.113636,15.074999 c 0,-4.497314 -3.616323,-8.1136369 -8.113636,-8.1136369 -4.497314,0 -8.1136363,3.6163229 -8.1136363,8.1136369 -1e-6,4.497313 3.6163223,8.113636 8.1136363,8.113636 4.497313,-1e-6 8.113636,-3.616323 8.113636,-8.113636 z m -5.138636,0 c 0,1.523093 -1.483621,2.975 -2.975,2.975 -1.523299,0 -2.975,-1.549335 -2.975,-2.975 0,-1.457585 1.401566,-2.975 2.975,-2.975 1.605347,0 2.975,1.420013 2.975,2.975 z"
     id="path2781"
     style="fill:url(#linearGradient3181);fill-rule:nonzero;stroke:url(#linearGradient3183);stroke-width:1;stroke-miterlimit:4;stroke-opacity:1;stroke-dasharray:none"
     inkscape:connector-curvature="0" />
  <path
     d="m 16,12.049849 c -1.669883,0 -3.02515,1.355267 -3.02515,3.02515 0,1.669883 1.355267,3.02515 3.02515,3.02515 1.669883,0 3.02515,-1.355267 3.02515,-3.02515 0,-1.669883 -1.355267,-3.02515 -3.02515,-3.02515 z m 0,1.512575 c 0.834941,0 1.512575,0.677633 1.512575,1.512575 0,0.834941 -0.677634,1.512575 -1.512575,1.512575 -0.834941,0 -1.512575,-0.677634 -1.512575,-1.512575 0,-0.834942 0.677634,-1.512575 1.512575,-1.512575 z"
     id="path2474"
     style="display:inline;overflow:visible;visibility:visible;opacity:0.5;fill:#ffffff;fill-opacity:1;fill-rule:nonzero;stroke:none;stroke-width:1;marker:none;enable-background:accumulate;stroke-miterlimit:4;stroke-dasharray:none"
     inkscape:connector-curvature="0" />
  <g
     transform="matrix(0.37814375,0,0,0.37814375,6.92455,5.9995487)"
     id="g3527"
     style="stroke-width:2.64449697;stroke-miterlimit:4;stroke-dasharray:none">
    <path
       d="M 15.856928,5.7307748 20.625,16.34375 C 21.660403,15.885186 22.795334,15.625 24,15.625 c 0.03206,0 0.06178,-3.6e-4 0.09375,0 L 24.10801,4.0047512 c -2.94215,-0.070687 -5.543041,0.6572865 -8.251082,1.7260236 z"
       transform="rotate(1.618417,24.093743,24.175959)"
       id="path3296"
       style="opacity:0.8;fill:url(#linearGradient993);fill-opacity:1;fill-rule:nonzero;stroke:none;stroke-width:2.64449697;stroke-miterlimit:4;stroke-dasharray:none"
       inkscape:connector-curvature="0" />
    <path
       d="m 12.121471,7.9060109 6.931026,9.3601041 c 0.913109,-0.669755 1.965938,-1.167064 3.142629,-1.425169 0.03132,-0.0069 0.06026,-0.01359 0.09157,-0.02009 L 19.857174,4.426276 c -2.888973,0.5613244 -5.31953,1.8556038 -7.735703,3.4797349 z"
       id="path3308"
       style="opacity:0.8;fill:url(#linearGradient995);fill-opacity:1;fill-rule:nonzero;stroke:none;stroke-width:2.64449697;stroke-miterlimit:4;stroke-dasharray:none"
       inkscape:connector-curvature="0" />
    <path
       d="m 8.2523933,11.646535 9.2137237,7.155818 c 0.70865,-0.883264 1.596891,-1.636119 2.666685,-2.18998 0.02847,-0.01474 0.05469,-0.02872 0.08325,-0.0431 L 14.86585,6.2506132 C 12.220599,7.5405321 10.165881,9.452393 8.2523933,11.646535 Z"
       id="path3310"
       style="opacity:0.8;fill:url(#linearGradient997);fill-opacity:1;fill-rule:nonzero;stroke:none;stroke-width:2.64449697;stroke-miterlimit:4;stroke-dasharray:none"
       inkscape:connector-curvature="0" />
    <path
       d="m 5.6328855,16.073974 c 7.1748065,2.242248 7.8502625,7.031463 12.7767855,1.754127 L 10.499985,9.1321388 C 8.2787249,11.062747 6.9132871,13.459349 5.6328855,16.073974 Z"
       id="path3312"
       style="opacity:0.8;fill:url(#linearGradient999);fill-opacity:1;fill-rule:nonzero;stroke:none;stroke-width:2.64449697;stroke-miterlimit:4;stroke-dasharray:none"
       inkscape:connector-curvature="0" />
    <path
       d="M 7.155289,13.193173 C 5.9722117,14.945185 5.2475768,16.829547 4.6301929,18.837116 L 15.96875,21.8125 C 16.184264,21.049497 16.486796,20.297733 16.9375,19.59375 16.95479,19.56675 16.98246,19.52673 17,19.5 Z"
       id="path3314"
       style="opacity:0.8;fill:url(#linearGradient1001);fill-opacity:1;fill-rule:nonzero;stroke:none;stroke-width:2.64449697;stroke-miterlimit:4;stroke-dasharray:none"
       inkscape:connector-curvature="0" />
  </g>
  <g
     transform="matrix(-0.37814375,0,0,-0.37814375,25.07545,24.146982)"
     id="g3297"
     style="stroke-width:2.64449697;stroke-miterlimit:4;stroke-dasharray:none">
    <path
       d="M 15.856928,5.7307748 20.625,16.34375 C 21.660403,15.885186 22.795334,15.625 24,15.625 c 0.03206,0 0.06178,-3.6e-4 0.09375,0 L 24.10801,4.0047512 c -2.94215,-0.070687 -5.543041,0.6572865 -8.251082,1.7260236 z"
       transform="rotate(1.618417,24.093743,24.175959)"
       id="path3299"
       style="opacity:0.8;fill:url(#linearGradient2492);fill-opacity:1;fill-rule:nonzero;stroke:none;stroke-width:2.64449697;stroke-miterlimit:4;stroke-dasharray:none"
       inkscape:connector-curvature="0" />
    <path
       d="m 12.121471,7.9060109 6.931026,9.3601041 c 0.913109,-0.669755 1.965938,-1.167064 3.142629,-1.425169 0.03132,-0.0069 0.06026,-0.01359 0.09157,-0.02009 L 19.857174,4.426276 c -2.888973,0.5613244 -5.31953,1.8556038 -7.735703,3.4797349 z"
       id="path3301"
       style="opacity:0.8;fill:url(#linearGradient2494);fill-opacity:1;fill-rule:nonzero;stroke:none;stroke-width:2.64449697;stroke-miterlimit:4;stroke-dasharray:none"
       inkscape:connector-curvature="0" />
    <path
       d="m 8.2523933,11.646535 9.2137237,7.155818 c 0.70865,-0.883264 1.596891,-1.636119 2.666685,-2.18998 0.02847,-0.01474 0.05469,-0.02872 0.08325,-0.0431 L 14.86585,6.2506132 C 12.220599,7.5405321 10.165881,9.452393 8.2523933,11.646535 Z"
       id="path3303"
       style="opacity:0.8;fill:url(#linearGradient2496);fill-opacity:1;fill-rule:nonzero;stroke:none;stroke-width:2.64449697;stroke-miterlimit:4;stroke-dasharray:none"
       inkscape:connector-curvature="0" />
    <path
       d="m 5.6328855,16.073974 c 7.1748065,2.242248 7.8502625,7.031463 12.7767855,1.754127 L 10.499985,9.1321388 C 8.2787249,11.062747 6.9132871,13.459349 5.6328855,16.073974 Z"
       id="path3305"
       style="opacity:0.8;fill:url(#linearGradient2498);fill-opacity:1;fill-rule:nonzero;stroke:none;stroke-width:2.64449697;stroke-miterlimit:4;stroke-dasharray:none"
       inkscape:connector-curvature="0" />
    <path
       d="M 7.155289,13.193173 C 5.9722117,14.945185 5.2475768,16.829547 4.6301929,18.837116 L 15.96875,21.8125 C 16.184264,21.049497 16.486796,20.297733 16.9375,19.59375 16.95479,19.56675 16.98246,19.52673 17,19.5 Z"
       id="path3307"
       style="opacity:0.8;fill:url(#linearGradient2500);fill-opacity:1;fill-rule:nonzero;stroke:none;stroke-width:2.64449697;stroke-miterlimit:4;stroke-dasharray:none"
       inkscape:connector-curvature="0" />
  </g>
  <path
     d="m 23.224909,15.074743 c 0,3.990386 -3.234981,7.225256 -7.224909,7.225256 -3.990293,0 -7.2250919,-3.234906 -7.2250919,-7.225256 0,-3.990201 3.2347989,-7.2247433 7.2250919,-7.2247433 3.989928,0 7.224909,3.2345423 7.224909,7.2247433 z"
     id="path8655"
     style="color:#000000;display:inline;overflow:visible;visibility:visible;opacity:0.55;fill:none;stroke:url(#linearGradient3165);stroke-width:1;stroke-linecap:round;stroke-linejoin:round;stroke-miterlimit:4;stroke-dasharray:none;stroke-dashoffset:0;stroke-opacity:1;marker:none;enable-background:accumulate"
     inkscape:connector-curvature="0" />
  <path
     d="m 16,18.899999 c -2.120143,0 -3.825,-1.704857 -3.825,-3.825001 0,-2.120142 1.704857,-3.825 3.825,-3.825 2.120144,0 3.825,1.704858 3.825,3.825 0,2.120144 -1.704856,3.825001 -3.825,3.825001 z"
     id="path3281"
     style="opacity:0.4;fill:none;stroke:url(#linearGradient3162);stroke-width:1;stroke-miterlimit:4;stroke-opacity:1;stroke-dasharray:none"
     inkscape:connector-curvature="0" />
  <path
     d="m 15.999999,12.099998 c -1.6422,0 -2.974999,1.3328 -2.974999,2.975001 0,1.6422 1.332799,2.974999 2.974999,2.974999 1.642201,0 2.975,-1.332799 2.975,-2.974999 0,-1.642201 -1.332799,-2.975001 -2.975,-2.975001 z m 0,1.487502 c 0.821101,0 1.4875,0.666399 1.4875,1.487499 0,0.8211 -0.666399,1.4875 -1.4875,1.4875 -0.821099,0 -1.487498,-0.6664 -1.487498,-1.4875 0,-0.821099 0.666399,-1.487499 1.487498,-1.487499 z"
     id="path3418"
     style="display:inline;overflow:visible;visibility:visible;fill:none;stroke:url(#linearGradient3159);stroke-width:1;stroke-linecap:butt;stroke-linejoin:round;stroke-miterlimit:4;stroke-dasharray:none;stroke-dashoffset:0;stroke-opacity:1;marker:none;enable-background:accumulate"
     inkscape:connector-curvature="0" />
</svg>
