<?xml version="1.0" encoding="UTF-8" standalone="no"?>
<svg
   xmlns:dc="http://purl.org/dc/elements/1.1/"
   xmlns:cc="http://creativecommons.org/ns#"
   xmlns:rdf="http://www.w3.org/1999/02/22-rdf-syntax-ns#"
   xmlns:svg="http://www.w3.org/2000/svg"
   xmlns="http://www.w3.org/2000/svg"
   xmlns:xlink="http://www.w3.org/1999/xlink"
   xmlns:sodipodi="http://sodipodi.sourceforge.net/DTD/sodipodi-0.dtd"
   xmlns:inkscape="http://www.inkscape.org/namespaces/inkscape"
   id="svg3182"
   height="32"
   width="32"
   version="1.1"
   sodipodi:docname="filetype-system.svg"
   inkscape:version="0.92.4 (5da689c313, 2019-01-14)">
  <sodipodi:namedview
     pagecolor="#ffffff"
     bordercolor="#666666"
     borderopacity="1"
     objecttolerance="10"
     gridtolerance="10"
     guidetolerance="10"
     inkscape:pageopacity="0"
     inkscape:pageshadow="2"
     inkscape:window-width="2880"
     inkscape:window-height="1706"
     id="namedview42"
     showgrid="false"
     inkscape:zoom="7.375"
     inkscape:cx="-1.4237288"
     inkscape:cy="16"
     inkscape:window-x="-11"
     inkscape:window-y="-11"
     inkscape:window-maximized="1"
     inkscape:current-layer="svg3182" />
  <defs
     id="defs3184">
    <linearGradient
       id="linearGradient3977">
      <stop
         offset="0"
         style="stop-color:#ffffff;stop-opacity:1"
         id="stop3979" />
      <stop
         offset="0"
         style="stop-color:#ffffff;stop-opacity:0.23529412"
         id="stop3981" />
      <stop
         offset="0.99999994"
         style="stop-color:#ffffff;stop-opacity:0.15686275"
         id="stop3983" />
      <stop
         offset="1"
         style="stop-color:#ffffff;stop-opacity:0.39215687"
         id="stop3985" />
    </linearGradient>
    <linearGradient
       id="linearGradient3600-4">
      <stop
         offset="0"
         style="stop-color:#f4f4f4;stop-opacity:1"
         id="stop3602-7" />
      <stop
         offset="1"
         style="stop-color:#dbdbdb;stop-opacity:1"
         id="stop3604-6" />
    </linearGradient>
    <linearGradient
       id="linearGradient5060">
      <stop
         offset="0"
         style="stop-color:#000000;stop-opacity:1"
         id="stop5062" />
      <stop
         offset="1"
         style="stop-color:#000000;stop-opacity:0"
         id="stop5064" />
    </linearGradient>
    <linearGradient
       id="linearGradient5048">
      <stop
         offset="0"
         style="stop-color:#000000;stop-opacity:0"
         id="stop5050" />
      <stop
         offset="0.5"
         style="stop-color:#000000;stop-opacity:1"
         id="stop5056" />
      <stop
         offset="1"
         style="stop-color:#000000;stop-opacity:0"
         id="stop5052" />
    </linearGradient>
    <linearGradient
       gradientTransform="matrix(0.48243243,0,0,0.62027025,4.4216247,0.18851835)"
       gradientUnits="userSpaceOnUse"
       xlink:href="#linearGradient3977"
       id="linearGradient3013"
       y2="41.814808"
       x2="23.99999"
       y1="6.1851754"
       x1="23.99999" />
    <linearGradient
       gradientTransform="matrix(0.53428447,0,0,0.51713483,3.1771718,1.8704268)"
       gradientUnits="userSpaceOnUse"
       xlink:href="#linearGradient3600-4"
       id="linearGradient3016"
       y2="47.013336"
       x2="25.132275"
       y1="0.98520643"
       x1="25.132275" />
    <radialGradient
       gradientTransform="matrix(0.0133137,0,0,0.007,17.368868,24.408479)"
       gradientUnits="userSpaceOnUse"
       xlink:href="#linearGradient5060"
       id="radialGradient3021"
       fy="486.64789"
       fx="605.71429"
       r="117.14286"
       cy="486.64789"
       cx="605.71429" />
    <radialGradient
       gradientTransform="matrix(-0.0133137,0,0,0.007,14.631131,24.408479)"
       gradientUnits="userSpaceOnUse"
       xlink:href="#linearGradient5060"
       id="radialGradient3024"
       fy="486.64789"
       fx="605.71429"
       r="117.14286"
       cy="486.64789"
       cx="605.71429" />
    <linearGradient
       gradientTransform="matrix(0.03890389,0,0,0.007,1.9390243,24.408464)"
       gradientUnits="userSpaceOnUse"
       xlink:href="#linearGradient5048"
       id="linearGradient3027"
       y2="609.50507"
       x2="302.85715"
       y1="366.64789"
       x1="302.85715" />
    <linearGradient
       id="linearGradient3104-6">
      <stop
         id="stop3106-3"
         style="stop-color:#000000;stop-opacity:0.31782946"
         offset="0" />
      <stop
         id="stop3108-9"
         style="stop-color:#000000;stop-opacity:0.24031007"
         offset="1" />
    </linearGradient>
    <linearGradient
       y2="2.9062471"
       x2="-51.786404"
       y1="50.786446"
       x1="-51.786404"
       gradientTransform="matrix(0.4510452,0,0,0.50124542,35.779166,0.8018684)"
       gradientUnits="userSpaceOnUse"
       id="linearGradient3148"
       xlink:href="#linearGradient3104-6" />
    <radialGradient
       r="12.671875"
       fy="9.9571075"
       fx="6.2001843"
       cy="9.9571075"
       cx="6.7304144"
       gradientTransform="matrix(0,6.5056493,-7.9868589,0,96.095279,-55.78766)"
       gradientUnits="userSpaceOnUse"
       id="radialGradient4147-1"
       xlink:href="#linearGradient2867-449-88-871-390-598-476-591-434-148-57-177-8-3-3-6-4-8-8-8-5" />
    <linearGradient
       id="linearGradient2867-449-88-871-390-598-476-591-434-148-57-177-8-3-3-6-4-8-8-8-5">
      <stop
         id="stop3750-1-0-7-6-6-1-3-9-3"
         style="stop-color:#919caf;stop-opacity:1;"
         offset="0" />
      <stop
         id="stop3752-3-7-4-0-32-8-923-0-7"
         style="stop-color:#68758e;stop-opacity:1;"
         offset="0.26238" />
      <stop
         id="stop3754-1-8-5-2-7-6-7-1-9"
         style="stop-color:#485a6c;stop-opacity:1;"
         offset="0.704952" />
      <stop
         id="stop3756-1-6-2-6-6-1-96-6-0"
         style="stop-color:#444c5c;stop-opacity:1;"
         offset="1" />
    </linearGradient>
  </defs>
  <metadata
     id="metadata3187">
    <rdf:RDF>
      <cc:Work
         rdf:about="">
        <dc:format>image/svg+xml</dc:format>
        <dc:type
           rdf:resource="http://purl.org/dc/dcmitype/StillImage" />
        <dc:title />
      </cc:Work>
    </rdf:RDF>
  </metadata>
  <rect
     style="display:inline;overflow:visible;visibility:visible;opacity:0.15;fill:url(#linearGradient3027);fill-opacity:1;fill-rule:nonzero;stroke:none;stroke-width:1;marker:none;stroke-miterlimit:4;stroke-dasharray:none"
     id="rect2879"
     y="26.974998"
     x="6.607491"
     height="1.7"
     width="18.785019" />
  <path
     style="display:inline;overflow:visible;visibility:visible;opacity:0.15;fill:url(#radialGradient3024);fill-opacity:1;fill-rule:nonzero;stroke:none;stroke-width:1;marker:none;stroke-miterlimit:4;stroke-dasharray:none"
     id="path2881"
     d="m 6.6074904,26.975072 c 0,0 0,1.699906 0,1.699906 -0.6856228,0.0032 -1.6575017,-0.380863 -1.6575017,-0.850063 0,-0.4692 0.7651028,-0.849843 1.6575017,-0.849843 z"
     inkscape:connector-curvature="0" />
  <path
     style="display:inline;overflow:visible;visibility:visible;opacity:0.15;fill:url(#radialGradient3021);fill-opacity:1;fill-rule:nonzero;stroke:none;stroke-width:1;marker:none;stroke-miterlimit:4;stroke-dasharray:none"
     id="path2883"
     d="m 25.392509,26.975072 c 0,0 0,1.699906 0,1.699906 0.685622,0.0032 1.657502,-0.380863 1.657502,-0.850063 0,-0.4692 -0.765104,-0.849843 -1.657502,-0.849843 z"
     inkscape:connector-curvature="0" />
  <path
     style="display:inline;fill:url(#linearGradient3016);fill-opacity:1;stroke:none;stroke-width:1;stroke-miterlimit:4;stroke-dasharray:none"
     id="path4160-3"
     d="m 6.65,3.1749987 c 4.285119,0 18.699977,0.00152 18.699977,0.00152 L 25.35,26.974999 c 0,0 -12.466666,0 -18.7,0 0,-7.933333 0,-15.866665 0,-23.7999968 z"
     inkscape:connector-curvature="0" />
  <path
     style="fill:none;stroke:url(#linearGradient3013);stroke-width:1;stroke-linecap:round;stroke-linejoin:miter;stroke-miterlimit:4;stroke-dasharray:none;stroke-dashoffset:0;stroke-opacity:1"
     id="rect6741-1"
     d="M 24.925,26.549999 H 7.075 V 3.5999987 h 17.85 z"
     inkscape:connector-curvature="0" />
  <path
     d="m 6.2249668,2.7499511 c 4.4799082,0 19.5500462,0.0017 19.5500462,0.0017 l 2e-5,24.6483949 c 0,0 -13.033377,0 -19.5500662,0 0,-8.216713 0,-16.433344 0,-24.6499623 z"
     id="path4160-6-1"
     style="display:inline;fill:none;stroke:url(#linearGradient3148);stroke-width:1;stroke-linecap:butt;stroke-linejoin:round;stroke-miterlimit:4;stroke-dasharray:none;stroke-dashoffset:0;stroke-opacity:1"
     inkscape:connector-curvature="0" />
  <path
     id="path4690"
     d="m 15.028572,8.2749987 c -0.174824,0 -0.320511,0.6752323 -0.406028,1.6402343 a 5.3428572,5.3428572 0 0 0 -1.291127,0.542634 C 12.58558,9.8327792 12.002973,9.4554525 11.879018,9.5794073 l -1.37461,1.3746097 c -0.123954,0.123954 0.253373,0.706561 0.878461,1.452399 a 5.3428572,5.3428572 0 0 0 -0.537891,1.291127 C 9.8772723,13.782977 9.2,13.928453 9.2,14.10357 v 1.942857 c 0,0.174824 0.6752323,0.320511 1.640234,0.406027 a 5.3428572,5.3428572 0 0 0 0.540737,1.293973 c -0.623667,0.744502 -1.000368,1.325749 -0.876563,1.449554 l 1.37461,1.374609 c 0.123689,0.123689 0.704204,-0.252112 1.447656,-0.874665 a 5.3428572,5.3428572 0 0 0 1.29587,0.534096 c 0.08544,0.967705 0.230911,1.644978 0.406028,1.644978 h 1.942856 c 0.174824,0 0.320511,-0.675233 0.406028,-1.640234 a 5.3428572,5.3428572 0 0 0 1.291127,-0.542635 c 0.745837,0.625088 1.328444,1.002415 1.452399,0.87846 l 1.37461,-1.374609 c 0.123954,-0.123955 -0.253373,-0.706562 -0.878461,-1.4524 a 5.3428572,5.3428572 0 0 0 0.537891,-1.291127 C 22.122728,16.36702 22.8,16.221544 22.8,16.046427 V 14.10357 c 0,-0.174823 -0.675232,-0.32051 -1.640234,-0.406027 A 5.3428572,5.3428572 0 0 0 20.619029,12.40357 c 0.623667,-0.744501 1.000368,-1.325748 0.876563,-1.449553 L 20.120982,9.5794073 C 19.997293,9.4557187 19.416778,9.8315197 18.673326,10.454072 A 5.3428572,5.3428572 0 0 0 17.377456,9.9199765 C 17.292021,8.952271 17.146545,8.2749987 16.971428,8.2749987 Z M 16,12.646427 A 2.4285715,2.4285715 0 0 1 18.428572,15.074999 2.4285715,2.4285715 0 0 1 16,17.50357 2.4285715,2.4285715 0 0 1 13.571428,15.074999 2.4285715,2.4285715 0 0 1 16,12.646427 Z"
     style="color:#000000;clip-rule:nonzero;display:inline;overflow:visible;visibility:visible;opacity:1;isolation:auto;mix-blend-mode:normal;color-interpolation:sRGB;color-interpolation-filters:linearRGB;solid-color:#000000;solid-opacity:1;fill:url(#radialGradient4147-1);fill-opacity:1;fill-rule:nonzero;stroke:none;stroke-width:1;stroke-linecap:butt;stroke-linejoin:miter;stroke-miterlimit:4;stroke-dasharray:none;stroke-dashoffset:0;stroke-opacity:1;marker:none;color-rendering:auto;image-rendering:auto;shape-rendering:auto;text-rendering:auto;enable-background:accumulate"
     inkscape:connector-curvature="0" />
</svg>
