<?xml version="1.0" encoding="UTF-8" standalone="no"?>
<svg
   xmlns:dc="http://purl.org/dc/elements/1.1/"
   xmlns:cc="http://creativecommons.org/ns#"
   xmlns:rdf="http://www.w3.org/1999/02/22-rdf-syntax-ns#"
   xmlns:svg="http://www.w3.org/2000/svg"
   xmlns="http://www.w3.org/2000/svg"
   xmlns:xlink="http://www.w3.org/1999/xlink"
   xmlns:sodipodi="http://sodipodi.sourceforge.net/DTD/sodipodi-0.dtd"
   xmlns:inkscape="http://www.inkscape.org/namespaces/inkscape"
   id="svg3182"
   height="32"
   width="32"
   version="1.1"
   inkscape:version="0.92.4 (5da689c313, 2019-01-14)"
   sodipodi:docname="filetype-msaccess.svg">
  <sodipodi:namedview
     pagecolor="#ffffff"
     bordercolor="#666666"
     borderopacity="1"
     objecttolerance="10"
     gridtolerance="10"
     guidetolerance="10"
     inkscape:pageopacity="0"
     inkscape:pageshadow="2"
     inkscape:window-width="2880"
     inkscape:window-height="1706"
     id="namedview42"
     showgrid="true"
     inkscape:zoom="7.375"
     inkscape:cx="-13.491526"
     inkscape:cy="16"
     inkscape:window-x="-11"
     inkscape:window-y="-11"
     inkscape:window-maximized="1"
     inkscape:current-layer="svg3182">
    <inkscape:grid
       type="xygrid"
       id="grid4258" />
  </sodipodi:namedview>
  <defs
     id="defs3184">
    <linearGradient
       id="linearGradient3977">
      <stop
         offset="0"
         style="stop-color:#ffffff;stop-opacity:1"
         id="stop3979" />
      <stop
         offset="0"
         style="stop-color:#ffffff;stop-opacity:0.23529412"
         id="stop3981" />
      <stop
         offset="0.99999994"
         style="stop-color:#ffffff;stop-opacity:0.15686275"
         id="stop3983" />
      <stop
         offset="1"
         style="stop-color:#ffffff;stop-opacity:0.39215687"
         id="stop3985" />
    </linearGradient>
    <linearGradient
       id="linearGradient3600-4">
      <stop
         offset="0"
         style="stop-color:#f4f4f4;stop-opacity:1"
         id="stop3602-7" />
      <stop
         offset="1"
         style="stop-color:#dbdbdb;stop-opacity:1"
         id="stop3604-6" />
    </linearGradient>
    <linearGradient
       id="linearGradient5060">
      <stop
         offset="0"
         style="stop-color:#000000;stop-opacity:1"
         id="stop5062" />
      <stop
         offset="1"
         style="stop-color:#000000;stop-opacity:0"
         id="stop5064" />
    </linearGradient>
    <linearGradient
       id="linearGradient5048">
      <stop
         offset="0"
         style="stop-color:#000000;stop-opacity:0"
         id="stop5050" />
      <stop
         offset="0.5"
         style="stop-color:#000000;stop-opacity:1"
         id="stop5056" />
      <stop
         offset="1"
         style="stop-color:#000000;stop-opacity:0"
         id="stop5052" />
    </linearGradient>
    <linearGradient
       gradientTransform="matrix(0.48243243,0,0,0.62027025,4.4216247,0.18851835)"
       gradientUnits="userSpaceOnUse"
       xlink:href="#linearGradient3977"
       id="linearGradient3013"
       y2="41.814808"
       x2="23.99999"
       y1="6.1851754"
       x1="23.99999" />
    <linearGradient
       gradientTransform="matrix(0.53428447,0,0,0.51713483,3.1771718,1.8704268)"
       gradientUnits="userSpaceOnUse"
       xlink:href="#linearGradient3600-4"
       id="linearGradient3016"
       y2="47.013336"
       x2="25.132275"
       y1="0.98520643"
       x1="25.132275" />
    <radialGradient
       gradientTransform="matrix(0.0133137,0,0,0.007,17.368868,24.408479)"
       gradientUnits="userSpaceOnUse"
       xlink:href="#linearGradient5060"
       id="radialGradient3021"
       fy="486.64789"
       fx="605.71429"
       r="117.14286"
       cy="486.64789"
       cx="605.71429" />
    <radialGradient
       gradientTransform="matrix(-0.0133137,0,0,0.007,14.631131,24.408479)"
       gradientUnits="userSpaceOnUse"
       xlink:href="#linearGradient5060"
       id="radialGradient3024"
       fy="486.64789"
       fx="605.71429"
       r="117.14286"
       cy="486.64789"
       cx="605.71429" />
    <linearGradient
       gradientTransform="matrix(0.03890389,0,0,0.007,1.9390243,24.408464)"
       gradientUnits="userSpaceOnUse"
       xlink:href="#linearGradient5048"
       id="linearGradient3027"
       y2="609.50507"
       x2="302.85715"
       y1="366.64789"
       x1="302.85715" />
    <linearGradient
       id="linearGradient3104-6">
      <stop
         id="stop3106-3"
         style="stop-color:#000000;stop-opacity:0.31782946"
         offset="0" />
      <stop
         id="stop3108-9"
         style="stop-color:#000000;stop-opacity:0.24031007"
         offset="1" />
    </linearGradient>
    <linearGradient
       y2="2.9062471"
       x2="-51.786404"
       y1="50.786446"
       x1="-51.786404"
       gradientTransform="matrix(0.4510452,0,0,0.50124542,35.779166,0.8018684)"
       gradientUnits="userSpaceOnUse"
       id="linearGradient3148"
       xlink:href="#linearGradient3104-6" />
    <linearGradient
       id="linearGradient2867-449-88-871-390-598-476-591-434-148-57-177-8-3">
      <stop
         offset="0"
         style="stop-color:#90dbec;stop-opacity:1"
         id="stop3750-1-0" />
      <stop
         offset="0.26238"
         style="stop-color:#55c1ec;stop-opacity:1"
         id="stop3752-3-7" />
      <stop
         offset="0.704952"
         style="stop-color:#3689e6;stop-opacity:1"
         id="stop3754-1-8" />
      <stop
         offset="1"
         style="stop-color:#2b63a0;stop-opacity:1"
         id="stop3756-1-6" />
    </linearGradient>
    <radialGradient
       r="12.671875"
       fy="9.9571075"
       fx="5.118885"
       cy="9.9571075"
       cx="5.6491151"
       gradientTransform="matrix(-1.1494524e-7,4.7418365,-5.7533456,-1.4233716e-7,116.67842,-44.844372)"
       gradientUnits="userSpaceOnUse"
       id="radialGradient4249"
       xlink:href="#linearGradient2867-449-88-871-390-598-476-591-434-148-57-177-8-3" />
    <radialGradient
       cx="8.276144"
       cy="9.9941158"
       r="12.671875"
       fx="8.276144"
       fy="9.9941158"
       id="radialGradient3988-4"
       xlink:href="#linearGradient3242-4"
       gradientUnits="userSpaceOnUse"
       gradientTransform="matrix(0,4.5932427,-5.6139726,0,72.156277,-42.714533)" />
    <linearGradient
       id="linearGradient3242-4">
      <stop
         id="stop3244-7"
         style="stop-color:#f89b7e;stop-opacity:1"
         offset="0" />
      <stop
         id="stop3246-1"
         style="stop-color:#e35d4f;stop-opacity:1"
         offset="0.26238" />
      <stop
         id="stop3248-5"
         style="stop-color:#c6262e;stop-opacity:1"
         offset="0.66093999" />
      <stop
         id="stop3250-7"
         style="stop-color:#690b2c;stop-opacity:1"
         offset="1" />
    </linearGradient>
  </defs>
  <metadata
     id="metadata3187">
    <rdf:RDF>
      <cc:Work
         rdf:about="">
        <dc:format>image/svg+xml</dc:format>
        <dc:type
           rdf:resource="http://purl.org/dc/dcmitype/StillImage" />
        <dc:title />
      </cc:Work>
    </rdf:RDF>
  </metadata>
  <rect
     style="display:inline;overflow:visible;visibility:visible;opacity:0.15;fill:url(#linearGradient3027);fill-opacity:1;fill-rule:nonzero;stroke:none;stroke-width:1;marker:none;stroke-miterlimit:4;stroke-dasharray:none"
     id="rect2879"
     y="26.974998"
     x="6.607491"
     height="1.7"
     width="18.785019" />
  <path
     style="display:inline;overflow:visible;visibility:visible;opacity:0.15;fill:url(#radialGradient3024);fill-opacity:1;fill-rule:nonzero;stroke:none;stroke-width:1;marker:none;stroke-miterlimit:4;stroke-dasharray:none"
     id="path2881"
     d="m 6.6074904,26.975072 c 0,0 0,1.699906 0,1.699906 -0.6856228,0.0032 -1.6575017,-0.380863 -1.6575017,-0.850063 0,-0.4692 0.7651028,-0.849843 1.6575017,-0.849843 z"
     inkscape:connector-curvature="0" />
  <path
     style="display:inline;overflow:visible;visibility:visible;opacity:0.15;fill:url(#radialGradient3021);fill-opacity:1;fill-rule:nonzero;stroke:none;stroke-width:1;marker:none;stroke-miterlimit:4;stroke-dasharray:none"
     id="path2883"
     d="m 25.392509,26.975072 c 0,0 0,1.699906 0,1.699906 0.685622,0.0032 1.657502,-0.380863 1.657502,-0.850063 0,-0.4692 -0.765104,-0.849843 -1.657502,-0.849843 z"
     inkscape:connector-curvature="0" />
  <path
     style="display:inline;fill:url(#linearGradient3016);fill-opacity:1;stroke:none;stroke-width:1;stroke-miterlimit:4;stroke-dasharray:none"
     id="path4160-3"
     d="m 6.65,3.1749987 c 4.285119,0 18.699977,0.00152 18.699977,0.00152 L 25.35,26.974999 c 0,0 -12.466666,0 -18.7,0 0,-7.933333 0,-15.866665 0,-23.7999968 z"
     inkscape:connector-curvature="0" />
  <path
     style="fill:none;stroke:url(#linearGradient3013);stroke-width:1;stroke-linecap:round;stroke-linejoin:miter;stroke-miterlimit:4;stroke-dasharray:none;stroke-dashoffset:0;stroke-opacity:1"
     id="rect6741-1"
     d="M 24.925,26.549999 H 7.075 V 3.5999987 h 17.85 z"
     inkscape:connector-curvature="0" />
  <path
     d="m 6.2249668,2.7499511 c 4.4799082,0 19.5500462,0.0017 19.5500462,0.0017 l 2e-5,24.6483949 c 0,0 -13.033377,0 -19.5500662,0 0,-8.216713 0,-16.433344 0,-24.6499623 z"
     id="path4160-6-1"
     style="display:inline;fill:none;stroke:url(#linearGradient3148);stroke-width:1;stroke-linecap:butt;stroke-linejoin:round;stroke-miterlimit:4;stroke-dasharray:none;stroke-dashoffset:0;stroke-opacity:1"
     inkscape:connector-curvature="0" />
  <path
     inkscape:connector-curvature="0"
     style="color:#000000;clip-rule:nonzero;display:inline;overflow:visible;visibility:visible;opacity:1;isolation:auto;mix-blend-mode:normal;color-interpolation:sRGB;color-interpolation-filters:linearRGB;solid-color:#000000;solid-opacity:1;fill:url(#radialGradient3988-4);fill-opacity:1;fill-rule:nonzero;stroke:none;stroke-width:1;stroke-linecap:butt;stroke-linejoin:miter;stroke-miterlimit:4;stroke-dasharray:none;stroke-dashoffset:0;stroke-opacity:1;marker:none;color-rendering:auto;image-rendering:auto;shape-rendering:auto;text-rendering:auto;enable-background:accumulate"
     id="path4255"
     d="M 16.85,9.5499988 9.2,10.91607 v 10.017857 l 7.65,1.366072 z m 1.544167,1.8214282 c -0.145016,0.0014 -0.292348,0.0086 -0.439167,0.01423 l -0.311667,0.01423 v 1.152623 1.152623 l -0.05667,0.02846 c 0.451882,0.05698 1.514958,0.03989 2.224166,-0.02846 1.907885,-0.183831 3.110462,-0.71037 2.90417,-1.266461 -0.231441,-0.623881 -2.145592,-1.085901 -4.320833,-1.067243 z M 22.8,13.27539 22.63,13.474609 c -0.223968,0.270458 -0.842264,0.483306 -1.600833,0.650782 -0.468704,0.103477 -0.975072,0.142647 -2.139167,0.170758 l -1.246667,0.02846 v 0.632756 0.882254 L 18.8475,15.79693 c 1.178369,-0.02802 1.637896,-0.0686 2.1675,-0.184989 0.764183,-0.167954 1.359539,-0.409221 1.586667,-0.654575 l 0.155833,-0.17076 0.02833,-0.924944 z m -10.302528,0.803965 h 0.453333 c 0.3776,0 0.467459,0.01771 0.495833,0.113839 0.01886,0.06391 0.282935,1.04495 0.595,2.177177 0.312066,1.132226 0.579193,2.088832 0.595,2.134487 0.02094,0.06047 -0.07878,0.0892 -0.354166,0.08538 -0.207935,-0.0029 -0.410475,-0.02513 -0.453334,-0.04269 -0.04284,-0.01755 -0.120387,-0.254757 -0.184166,-0.526507 l -0.1275,-0.483817 h -0.595 -0.609167 l -0.09917,0.441127 -0.085,0.455358 -0.425,0.01423 -0.410833,0.01423 0.02833,-0.11384 c 0.0199,-0.06574 0.253055,-0.900279 0.51,-1.849888 0.256944,-0.949609 0.512222,-1.871589 0.566667,-2.063337 z m 0.425,1.024554 c -0.01863,0.0052 -0.105631,0.293296 -0.198334,0.668805 -0.09888,0.400546 -0.193382,0.775649 -0.2125,0.839566 -0.0306,0.102284 0.02174,0.153487 0.396667,0.128068 h 0.425 l -0.198333,-0.782645 c -0.106565,-0.429149 -0.202245,-0.818483 -0.2125,-0.853794 z M 22.8,15.370239 c -0.201695,0 -0.198333,0.213449 -0.198333,0.213449 -0.517189,0.562571 -2.186306,0.916387 -4.235834,0.89607 l -0.68,-0.01423 -0.02833,0.526714 -0.01417,0.853795 0.113333,0.04269 c 0.247701,0.07511 2.327865,-0.02065 2.918333,-0.12807 0.824276,-0.149962 1.579576,-0.406191 1.855833,-0.640345 L 22.7575,16.921094 22.78583,15.98192 Z m 0,2.025563 -0.198333,0.241908 c -0.4829,0.558853 -1.967159,0.888443 -4.051667,0.896484 h -0.906666 v 0.564075 0.868024 l 0.07083,0.02846 c 0.717452,0.051 0.978583,0.03954 1.855833,-0.02846 1.484562,-0.115072 2.618115,-0.417958 2.989167,-0.811105 L 22.7575,18.94174 22.78583,18.016795 Z"
     sodipodi:nodetypes="ccccccccccccscccscccccscccccscsccccccccccccscccccsccccccccccscccccccccccscccc" />
</svg>
