<?xml version="1.0" encoding="UTF-8" standalone="no"?>
<svg
   xmlns:dc="http://purl.org/dc/elements/1.1/"
   xmlns:cc="http://creativecommons.org/ns#"
   xmlns:rdf="http://www.w3.org/1999/02/22-rdf-syntax-ns#"
   xmlns:svg="http://www.w3.org/2000/svg"
   xmlns="http://www.w3.org/2000/svg"
   xmlns:xlink="http://www.w3.org/1999/xlink"
   xmlns:sodipodi="http://sodipodi.sourceforge.net/DTD/sodipodi-0.dtd"
   xmlns:inkscape="http://www.inkscape.org/namespaces/inkscape"
   version="1.0"
   width="32"
   height="32"
   id="svg6826"
   inkscape:version="0.92.4 (5da689c313, 2019-01-14)"
   sodipodi:docname="filetype-audio.svg">
  <sodipodi:namedview
     pagecolor="#ffffff"
     bordercolor="#666666"
     borderopacity="1"
     objecttolerance="10"
     gridtolerance="10"
     guidetolerance="10"
     inkscape:pageopacity="0"
     inkscape:pageshadow="2"
     inkscape:window-width="2880"
     inkscape:window-height="1706"
     id="namedview1337"
     showgrid="false"
     inkscape:zoom="7.375"
     inkscape:cx="-1.4237288"
     inkscape:cy="16"
     inkscape:window-x="-11"
     inkscape:window-y="-11"
     inkscape:window-maximized="1"
     inkscape:current-layer="svg6826" />
  <metadata
     id="metadata90">
    <rdf:RDF>
      <cc:Work
         rdf:about="">
        <dc:format>image/svg+xml</dc:format>
        <dc:type
           rdf:resource="http://purl.org/dc/dcmitype/StillImage" />
      </cc:Work>
    </rdf:RDF>
  </metadata>
  <defs
     id="defs6828">
    <linearGradient
       id="linearGradient17123">
      <stop
         id="stop17125"
         style="stop-color:#000000;stop-opacity:1"
         offset="0" />
      <stop
         id="stop17127"
         style="stop-color:#000000;stop-opacity:0"
         offset="1" />
    </linearGradient>
    <radialGradient
       cx="11.402097"
       cy="36.863068"
       r="10.69499"
       fx="11.402097"
       fy="36.863068"
       id="radialGradient6706"
       xlink:href="#linearGradient17123"
       gradientUnits="userSpaceOnUse"
       gradientTransform="matrix(0.97558019,0,0,0.50791457,4.8115234,4.5951101)" />
    <linearGradient
       id="linearGradient3858">
      <stop
         id="stop3860"
         style="stop-color:#a0a0a0;stop-opacity:1"
         offset="0" />
      <stop
         id="stop3862"
         style="stop-color:#4a4a4a;stop-opacity:1"
         offset="1" />
    </linearGradient>
    <linearGradient
       x1="84.425995"
       y1="8.2933674"
       x2="102.42599"
       y2="8.2933674"
       id="linearGradient6814"
       xlink:href="#linearGradient3858"
       gradientUnits="userSpaceOnUse"
       gradientTransform="matrix(0.15814318,0.60507173,-0.59019852,0.16212841,0.72808915,-40.013098)" />
    <linearGradient
       id="linearGradient5262">
      <stop
         id="stop5264"
         style="stop-color:#babdb6;stop-opacity:1"
         offset="0" />
      <stop
         id="stop5266"
         style="stop-color:#eeeeec;stop-opacity:1"
         offset="0.43738842" />
      <stop
         id="stop5268"
         style="stop-color:#555753;stop-opacity:1"
         offset="1" />
    </linearGradient>
    <linearGradient
       x1="102.35701"
       y1="-41.092239"
       x2="82.681335"
       y2="-41.092239"
       id="linearGradient6812"
       xlink:href="#linearGradient5262"
       gradientUnits="userSpaceOnUse"
       gradientTransform="matrix(0.07240341,0.27702274,-0.25513456,0.07008584,-8.7035451,-7.2238403)"
       spreadMethod="reflect" />
    <linearGradient
       id="linearGradient6531">
      <stop
         id="stop6533"
         style="stop-color:#ffffff;stop-opacity:1"
         offset="0" />
      <stop
         id="stop6535"
         style="stop-color:#ffffff;stop-opacity:0"
         offset="1" />
    </linearGradient>
    <linearGradient
       x1="9.883214"
       y1="14.05074"
       x2="5.1012387"
       y2="30.00112"
       id="linearGradient6760"
       xlink:href="#linearGradient6531"
       gradientUnits="userSpaceOnUse"
       gradientTransform="matrix(0.50677986,-0.13948194,0.15193418,0.58243793,3.4830804,6.0883271)" />
    <linearGradient
       id="linearGradient6546-397-668-696-989">
      <stop
         id="stop4870"
         style="stop-color:#383937;stop-opacity:1"
         offset="0" />
      <stop
         id="stop4872"
         style="stop-color:#595b57;stop-opacity:1"
         offset="1" />
    </linearGradient>
    <linearGradient
       x1="80.693359"
       y1="31.561478"
       x2="77.125"
       y2="14"
       id="linearGradient6808"
       xlink:href="#linearGradient6546-397-668-696-989"
       gradientUnits="userSpaceOnUse"
       gradientTransform="matrix(0.59019852,-0.16212841,0.15814318,0.60507173,-38.869709,17.185218)" />
    <linearGradient
       id="linearGradient5292">
      <stop
         id="stop5294"
         style="stop-color:#4b4b4b;stop-opacity:1"
         offset="0" />
      <stop
         id="stop5296"
         style="stop-color:#babdb6;stop-opacity:1"
         offset="1" />
    </linearGradient>
    <linearGradient
       x1="7.75"
       y1="33.046577"
       x2="4.6431866"
       y2="12.063652"
       id="linearGradient6805"
       xlink:href="#linearGradient5292"
       gradientUnits="userSpaceOnUse"
       gradientTransform="matrix(0.53794137,-0.14777326,0.13897432,0.53172974,4.4597439,7.0119152)" />
    <linearGradient
       id="linearGradient6633">
      <stop
         id="stop6635"
         style="stop-color:#eeeeec;stop-opacity:1"
         offset="0" />
      <stop
         id="stop6637"
         style="stop-color:#61635f;stop-opacity:1"
         offset="1" />
    </linearGradient>
    <radialGradient
       cx="9.3203983"
       cy="18.817093"
       r="12.5"
       fx="9.3203983"
       fy="18.817093"
       id="radialGradient6803"
       xlink:href="#linearGradient6633"
       gradientUnits="userSpaceOnUse"
       gradientTransform="matrix(0.50353192,0.20029919,-0.36138005,0.86353846,14.356613,-3.0835856)" />
    <linearGradient
       id="linearGradient6651">
      <stop
         id="stop6653"
         style="stop-color:#ffffff;stop-opacity:1"
         offset="0" />
      <stop
         id="stop6655"
         style="stop-color:#ffffff;stop-opacity:0"
         offset="1" />
    </linearGradient>
    <radialGradient
       cx="23.986883"
       cy="27.053167"
       r="7.75"
       fx="23.986883"
       fy="27.053167"
       id="radialGradient6768"
       xlink:href="#linearGradient6651"
       gradientUnits="userSpaceOnUse"
       gradientTransform="matrix(-0.18991184,0.05216906,-0.20360071,-0.77899693,23.950774,36.783045)" />
    <linearGradient
       id="linearGradient6379">
      <stop
         id="stop6381"
         style="stop-color:#ffffff;stop-opacity:0"
         offset="0" />
      <stop
         id="stop21606"
         style="stop-color:#ffffff;stop-opacity:1"
         offset="0.5" />
      <stop
         id="stop6383"
         style="stop-color:#ffffff;stop-opacity:0"
         offset="1" />
    </linearGradient>
    <linearGradient
       x1="20.226221"
       y1="20.33363"
       x2="11.4375"
       y2="21.75"
       id="linearGradient6799"
       xlink:href="#linearGradient6379"
       gradientUnits="userSpaceOnUse"
       gradientTransform="matrix(0.39346568,-0.10808557,0.15814318,0.60507173,3.1501547,3.6967571)" />
    <linearGradient
       id="linearGradient6573">
      <stop
         id="stop6575"
         style="stop-color:#ffffff;stop-opacity:1"
         offset="0" />
      <stop
         id="stop6577"
         style="stop-color:#ffffff;stop-opacity:0"
         offset="1" />
    </linearGradient>
    <linearGradient
       x1="19.240318"
       y1="4.8111696"
       x2="11.323519"
       y2="35.457581"
       id="linearGradient6772"
       xlink:href="#linearGradient6573"
       gradientUnits="userSpaceOnUse"
       gradientTransform="matrix(0.53319072,-0.14646826,0.13773765,0.52699796,4.5748403,7.0918781)" />
    <linearGradient
       id="linearGradient6643">
      <stop
         id="stop6645"
         style="stop-color:#4c4c4c;stop-opacity:1"
         offset="0" />
      <stop
         id="stop6647"
         style="stop-color:#d3d7cf;stop-opacity:1"
         offset="1" />
    </linearGradient>
    <linearGradient
       x1="33.430557"
       y1="45.052155"
       x2="33.430557"
       y2="0.31037101"
       id="linearGradient6776"
       xlink:href="#linearGradient6643"
       gradientUnits="userSpaceOnUse"
       gradientTransform="matrix(0.72346883,-0.19873799,0.18619122,0.71238636,-4.5615975,0.69682138)" />
    <linearGradient
       id="linearGradient4718">
      <stop
         id="stop4720"
         style="stop-color:#767973;stop-opacity:1"
         offset="0" />
      <stop
         id="stop4722"
         style="stop-color:#202120;stop-opacity:1"
         offset="1" />
    </linearGradient>
    <radialGradient
       cx="23.164974"
       cy="30.23279"
       r="8.1890125"
       fx="23.164974"
       fy="30.23279"
       id="radialGradient6774"
       xlink:href="#linearGradient4718"
       gradientUnits="userSpaceOnUse"
       gradientTransform="matrix(1.2517405,-0.27694762,0.47482522,2.2531814,-25.609112,-42.903332)" />
    <linearGradient
       id="linearGradient6589-510-471-936">
      <stop
         id="stop5849"
         style="stop-color:#878a85;stop-opacity:1"
         offset="0" />
      <stop
         id="stop5851"
         style="stop-color:#3e3f3d;stop-opacity:1"
         offset="1" />
    </linearGradient>
    <radialGradient
       cx="20.8839"
       cy="20.434256"
       r="3.9999843"
       fx="20.8839"
       fy="20.434256"
       id="radialGradient6794"
       xlink:href="#linearGradient6589-510-471-936"
       gradientUnits="userSpaceOnUse"
       gradientTransform="matrix(0.77280232,-0.21228997,0.24678135,0.94421034,-4.3704097,0.06580798)" />
    <linearGradient
       id="linearGradient3844">
      <stop
         id="stop3846"
         style="stop-color:#e8e8e8;stop-opacity:1"
         offset="0" />
      <stop
         id="stop3848"
         style="stop-color:#a5a6a8;stop-opacity:1"
         offset="1" />
    </linearGradient>
    <radialGradient
       cx="30.685316"
       cy="42.261425"
       r="8.22791"
       fx="30.685316"
       fy="42.261425"
       id="radialGradient6791"
       xlink:href="#linearGradient3844"
       gradientUnits="userSpaceOnUse"
       gradientTransform="matrix(2.3714054,-0.57555395,-0.40010792,-1.5308532,-41.793057,89.806907)" />
    <linearGradient
       id="linearGradient6628">
      <stop
         id="stop6630"
         style="stop-color:#000000;stop-opacity:1"
         offset="0" />
      <stop
         id="stop6632"
         style="stop-color:#000000;stop-opacity:0"
         offset="1" />
    </linearGradient>
    <linearGradient
       x1="23.238182"
       y1="12.158657"
       x2="29.892563"
       y2="26.354361"
       id="linearGradient6782"
       xlink:href="#linearGradient6628"
       gradientUnits="userSpaceOnUse"
       gradientTransform="matrix(0.53308251,-0.1464386,0.1575464,0.60278847,1.3410164,2.3570902)" />
    <linearGradient
       id="linearGradient6700">
      <stop
         id="stop6702"
         style="stop-color:#ffffff;stop-opacity:1"
         offset="0" />
      <stop
         id="stop6704"
         style="stop-color:#ffffff;stop-opacity:0"
         offset="1" />
    </linearGradient>
    <linearGradient
       x1="16.790216"
       y1="21.270329"
       x2="29.694229"
       y2="46.259285"
       id="linearGradient6824"
       xlink:href="#linearGradient6700"
       gradientUnits="userSpaceOnUse"
       gradientTransform="matrix(0.64731486,-0.17781838,0.17664292,0.6758537,-2.3719552,1.189232)" />
  </defs>
  <path
     inkscape:connector-curvature="0"
     style="display:inline;opacity:0.3;fill:url(#radialGradient6706);fill-opacity:1;stroke:none;stroke-width:1;stroke-miterlimit:4;stroke-dasharray:none"
     id="path16236"
     d="m 26.369004,23.318371 a 10.433821,5.4321346 0 1 1 -20.8676414,0 10.433821,5.4321346 0 1 1 20.8676414,0 z" />
  <path
     inkscape:connector-curvature="0"
     style="fill:#2e3436;fill-opacity:1;stroke:#555753;stroke-width:1;stroke-linecap:round;stroke-linejoin:miter;stroke-miterlimit:4;stroke-dasharray:none;stroke-dashoffset:0;stroke-opacity:1"
     id="path5330"
     d="M 10.349829,17.931852 A 3.4397884,1.8359873 75.636766 1 1 6.8086378,18.904623 3.4397884,1.8359873 75.636766 1 1 10.349829,17.931852 Z" />
  <path
     inkscape:connector-curvature="0"
     style="display:inline;fill:#babdb6;fill-opacity:1;stroke:none;stroke-width:0.99999994;stroke-miterlimit:4;stroke-dasharray:none"
     id="path6659"
     d="M 7.2653053,17.097084 A 0.46981225,0.45826384 89.99994 1 1 6.3800075,17.340276 0.46981225,0.45826384 89.99994 1 1 7.2653053,17.097084 Z" />
  <path
     inkscape:connector-curvature="0"
     style="display:inline;overflow:visible;visibility:visible;fill:url(#linearGradient6812);fill-opacity:1;fill-rule:nonzero;stroke:url(#linearGradient6814);stroke-width:1;stroke-linecap:butt;stroke-linejoin:miter;stroke-miterlimit:4;stroke-dasharray:none;stroke-dashoffset:0;stroke-opacity:1;marker:none;enable-background:accumulate"
     id="path2766"
     d="m 8.1940883,13.011669 c -1.1809855,0.324419 -1.5372564,2.891842 -0.7952526,5.730826 0.7420042,2.838982 2.3027013,4.879814 3.4836863,4.555394 l 2.13947,-0.587715 c 1.180985,-0.324418 1.537257,-2.891843 0.795253,-5.730825 -0.742004,-2.838983 -2.302702,-4.879813 -3.483687,-4.555395 z" />
  <path
     inkscape:connector-curvature="0"
     style="display:inline;opacity:0.4;fill:none;stroke:url(#linearGradient6760);stroke-width:1;stroke-linecap:round;stroke-linejoin:miter;stroke-miterlimit:4;stroke-dasharray:none;stroke-dashoffset:0;stroke-opacity:1"
     id="path5556"
     d="m 8.4734152,13.766526 c -0.2665662,0.07337 -0.5586855,0.494546 -0.6764245,1.37616 -0.1177391,0.881614 -0.041397,2.118729 0.2955913,3.410571 0.3369885,1.291841 0.8730642,2.402422 1.4041723,3.105454 0.5311077,0.703031 0.9891077,0.917752 1.2556737,0.844384 l 2.027119,-0.557927 c 0.266566,-0.07337 0.558686,-0.494545 0.676425,-1.37616 0.117739,-0.881615 0.0414,-2.11873 -0.295591,-3.410571 -0.336989,-1.29184 -0.873064,-2.402422 -1.404173,-3.105453 -0.531108,-0.703032 -0.989107,-0.917753 -1.255673,-0.844385 z" />
  <path
     inkscape:connector-curvature="0"
     style="display:inline;fill:url(#linearGradient6808);fill-opacity:1;stroke:none;stroke-width:1;stroke-miterlimit:4;stroke-dasharray:none"
     id="path6556"
     d="m 10.381303,12.735086 c -1.204418,0.330856 -1.6162383,2.763731 -0.9192456,5.430497 0.6969926,2.666765 2.2401766,4.562599 3.4445946,4.231743 l 0.376192,-0.10334 c 1.204418,-0.330856 1.616238,-2.763732 0.919245,-5.430497 -0.696993,-2.666765 -2.240177,-4.562598 -3.444594,-4.231743 z" />
  <path
     inkscape:connector-curvature="0"
     style="fill:url(#radialGradient6803);fill-opacity:1;stroke:url(#linearGradient6805);stroke-width:1;stroke-linecap:round;stroke-linejoin:miter;stroke-miterlimit:4;stroke-dasharray:none;stroke-dashoffset:0;stroke-opacity:1"
     id="path1871"
     d="m 11.013799,17.74945 c 1.45923,5.583162 7.715215,7.28407 11.072281,6.361879 2.323906,-0.638381 3.104091,-5.065447 1.838313,-9.908438 C 22.658616,9.3598985 19.823834,5.9258689 17.499928,6.5642495 14.142862,7.4864402 9.5545693,12.166288 11.013799,17.74945 Z" />
  <path
     inkscape:connector-curvature="0"
     style="display:inline;fill:url(#radialGradient6768);fill-opacity:1;stroke:none;stroke-width:1;stroke-miterlimit:4;stroke-dasharray:none"
     id="path6649"
     d="M 24.51459,14.040762 A 10.632183,6.2728907 75.73346 1 1 12.41552,17.364394 10.632183,6.2728907 75.73346 1 1 24.51459,14.040762 Z" />
  <path
     inkscape:connector-curvature="0"
     style="display:inline;opacity:0.7335907;fill:url(#linearGradient6799);fill-opacity:1;fill-rule:evenodd;stroke:none;stroke-width:1;stroke-miterlimit:4;stroke-dasharray:none"
     id="path6639"
     d="m 13.530699,9.4691185 c -1.304121,1.2627115 -2.4024,4.0795315 -3.281132,6.8689825 1.415194,-1.119039 2.930917,-2.076521 4.444838,-2.355903 z" />
  <path
     inkscape:connector-curvature="0"
     style="display:inline;opacity:0.4;fill:none;stroke:url(#linearGradient6772);stroke-width:1;stroke-linecap:round;stroke-linejoin:miter;stroke-miterlimit:4;stroke-dasharray:none;stroke-dashoffset:0;stroke-opacity:1"
     id="path6567"
     d="m 17.676591,7.3407445 c -1.437686,0.3949345 -3.306749,1.6913158 -4.58101,3.5177485 -1.27426,1.826434 -1.989829,4.1392 -1.32496,6.683057 0.66487,2.543857 2.412529,4.179971 4.40684,5.108523 1.994311,0.928552 4.245226,1.093169 5.682911,0.698235 0.749434,-0.205871 1.406711,-1.127182 1.706502,-2.76342 C 23.866665,18.94865 23.772376,16.72483 23.167573,14.410791 22.562769,12.096752 21.559847,10.122535 20.502211,8.8591836 19.444575,7.5958324 18.426025,7.134874 17.676591,7.3407445 Z" />
  <path
     inkscape:connector-curvature="0"
     style="fill:url(#radialGradient6774);fill-opacity:1;stroke:url(#linearGradient6776);stroke-width:1;stroke-linecap:round;stroke-linejoin:miter;stroke-miterlimit:4;stroke-dasharray:none;stroke-dashoffset:0;stroke-opacity:1"
     id="path1873"
     d="M 24.514591,14.040762 A 12.195514,5.8140039 75.562413 1 1 13.300824,17.1212 12.195514,5.8140039 75.562413 1 1 24.514591,14.040762 Z" />
  <path
     inkscape:connector-curvature="0"
     style="fill:url(#radialGradient6794);fill-opacity:1;stroke:#3e3f3d;stroke-width:1;stroke-linecap:round;stroke-linejoin:miter;stroke-miterlimit:4;stroke-dasharray:none;stroke-dashoffset:0;stroke-opacity:1"
     id="path3672"
     d="m 18.681139,15.643226 c 0.392827,1.502996 -0.694761,3.109153 -1.688332,3.382088 -0.993571,0.272935 -2.118764,-0.725376 -2.511591,-2.228372 -0.392828,-1.502996 0.09473,-2.944332 1.088304,-3.217268 0.99357,-0.272935 2.718791,0.560555 3.111619,2.063552 z" />
  <path
     inkscape:connector-curvature="0"
     style="display:inline;fill:url(#radialGradient6791);fill-opacity:1;stroke:none;stroke-width:1;stroke-miterlimit:4;stroke-dasharray:none"
     id="path6605"
     d="m 15.902984,4.0846195 c -1.553666,0.4267945 -2.511406,2.1489307 -2.899964,4.4850471 -0.388557,2.3361164 -0.206238,5.3372604 0.611342,8.4654044 0.81758,3.128146 2.123374,5.820669 3.599221,7.644631 1.475847,1.82396 3.145175,2.824439 4.698842,2.397643 1.553668,-0.426794 2.511406,-2.148931 2.899963,-4.485047 0.242849,-1.460073 0.264379,-3.192767 0.04701,-5.038895 -0.0069,-0.05822 -0.0187,-0.116774 -0.02604,-0.175243 -0.04457,-0.355432 -0.09883,-0.70664 -0.161147,-1.070366 -0.05639,-0.338867 -0.115228,-0.677196 -0.18815,-1.022416 -0.0041,-0.01897 -0.01073,-0.03774 -0.01482,-0.05673 -0.07802,-0.364984 -0.171445,-0.731604 -0.26819,-1.101759 -0.101901,-0.389885 -0.202841,-0.774129 -0.319904,-1.148351 -0.103284,-0.332606 -0.221885,-0.661958 -0.3357,-0.981884 -0.123425,-0.346941 -0.247717,-0.678911 -0.38247,-1.009568 -0.02302,-0.0554 -0.03959,-0.11023 -0.06293,-0.16511 C 22.387928,9.111761 21.524231,7.6222396 20.601827,6.4822635 19.125979,4.6583013 17.456652,3.6578247 15.902984,4.0846195 Z m 0.611386,1.1290793 c 1.134523,-0.3116552 2.510393,0.4554397 3.827661,2.0897752 0.823291,1.0214593 1.61628,2.3675512 2.273897,3.93522 0.131524,0.313535 0.252048,0.641021 0.372587,0.971751 0.1111,0.310215 0.225068,0.62132 0.325816,0.944067 0.11694,0.370276 0.232377,0.73783 0.333405,1.124376 0.09421,0.360469 0.164553,0.713627 0.239863,1.069009 0.0054,0.02509 0.01446,0.05058 0.01977,0.07563 0.06861,0.329256 0.125473,0.661581 0.178266,0.984599 0.05691,0.348208 0.112252,0.693602 0.151262,1.032549 0.195054,1.694736 0.164808,3.266971 -0.05,4.573601 -0.343707,2.090607 -1.161126,3.460202 -2.295649,3.771857 -1.134523,0.311654 -2.510393,-0.45544 -3.827661,-2.089775 -1.317269,-1.634335 -2.552001,-4.091665 -3.305706,-6.975415 -0.753704,-2.88375 -0.882857,-5.644784 -0.53915,-7.7353915 0.343706,-2.0906076 1.161126,-3.4602024 2.295649,-3.7718574 z" />
  <path
     inkscape:connector-curvature="0"
     style="display:inline;opacity:0.3;fill:none;stroke:url(#linearGradient6782);stroke-width:1;stroke-linecap:round;stroke-linejoin:miter;stroke-miterlimit:4;stroke-dasharray:none;stroke-dashoffset:0;stroke-opacity:1"
     id="path6615"
     d="m 23.334192,14.365019 a 10.319213,4.2840333 75.501172 1 1 -8.262779,2.269799 10.319213,4.2840333 75.501172 1 1 8.262779,-2.269799 z" />
  <path
     inkscape:connector-curvature="0"
     style="display:inline;fill:#ffffff;fill-opacity:1;stroke:none;stroke-width:0.99999994;stroke-miterlimit:4;stroke-dasharray:none"
     id="path6661"
     d="m 8.3490611,15.117292 a 0.62641633,0.61101846 89.99994 1 1 -1.180397,0.324256 0.62641633,0.61101846 89.99994 1 1 1.180397,-0.324256 z" />
  <path
     inkscape:connector-curvature="0"
     style="display:inline;opacity:0.4;fill:none;stroke:url(#linearGradient6824);stroke-width:1;stroke-linecap:round;stroke-linejoin:miter;stroke-miterlimit:4;stroke-dasharray:none;stroke-dashoffset:0;stroke-opacity:1"
     id="path6822"
     d="m 16.026219,4.5561172 c -1.287462,0.3536677 -2.192182,1.8820344 -2.564869,4.1227311 -0.372687,2.2406967 -0.210179,5.1684817 0.591495,8.2357697 0.801675,3.067289 2.088847,5.686127 3.504412,7.435588 1.415566,1.749461 2.944475,2.609306 4.231937,2.255638 1.287462,-0.353668 2.192182,-1.882034 2.564869,-4.122731 0.372688,-2.240697 0.21018,-5.168482 -0.591495,-8.23577 C 22.960893,11.180054 21.673721,8.5612164 20.258156,6.8117553 18.84259,5.0622943 17.313681,4.2024494 16.026219,4.5561172 Z" />
  <path
     inkscape:connector-curvature="0"
     style="display:inline;opacity:0.6;fill:#ffffff;fill-opacity:1;stroke:none;stroke-width:0.99999994;stroke-miterlimit:4;stroke-dasharray:none"
     id="path5501"
     d="M 13.704591,8.9849257 A 0.62641633,0.61101846 89.99994 1 1 12.524194,9.3091826 0.62641633,0.61101846 89.99994 1 1 13.704591,8.9849257 Z" />
</svg>
