<?xml version="1.0" encoding="UTF-8" standalone="no"?>
<svg
   xmlns:dc="http://purl.org/dc/elements/1.1/"
   xmlns:cc="http://creativecommons.org/ns#"
   xmlns:rdf="http://www.w3.org/1999/02/22-rdf-syntax-ns#"
   xmlns:svg="http://www.w3.org/2000/svg"
   xmlns="http://www.w3.org/2000/svg"
   xmlns:xlink="http://www.w3.org/1999/xlink"
   xmlns:sodipodi="http://sodipodi.sourceforge.net/DTD/sodipodi-0.dtd"
   xmlns:inkscape="http://www.inkscape.org/namespaces/inkscape"
   id="svg12981"
   height="32"
   width="32"
   version="1.1"
   sodipodi:docname="film.svg"
   inkscape:version="0.92.4 (5da689c313, 2019-01-14)">
  <sodipodi:namedview
     pagecolor="#ffffff"
     bordercolor="#666666"
     borderopacity="1"
     objecttolerance="10"
     gridtolerance="10"
     guidetolerance="10"
     inkscape:pageopacity="0"
     inkscape:pageshadow="2"
     inkscape:window-width="1920"
     inkscape:window-height="1017"
     id="namedview34"
     showgrid="false"
     inkscape:zoom="9.8333333"
     inkscape:cx="-0.66101695"
     inkscape:cy="12"
     inkscape:window-x="-8"
     inkscape:window-y="-8"
     inkscape:window-maximized="1"
     inkscape:current-layer="svg12981" />
  <defs
     id="defs12983">
    <radialGradient
       gradientTransform="matrix(0.01566317,0,0,0.01070589,17.610447,23.774715)"
       gradientUnits="userSpaceOnUse"
       xlink:href="#linearGradient5060-2-47"
       id="radialGradient4965-9"
       fy="486.64789"
       fx="605.71429"
       r="117.14286"
       cy="486.64789"
       cx="605.71429" />
    <linearGradient
       id="linearGradient5060-2-47">
      <stop
         offset="0"
         style="stop-color:#000000;stop-opacity:1"
         id="stop5062-2-8" />
      <stop
         offset="1"
         style="stop-color:#000000;stop-opacity:0"
         id="stop5064-2-5" />
    </linearGradient>
    <radialGradient
       gradientTransform="matrix(-0.01566317,0,0,0.01070589,14.389594,23.774715)"
       gradientUnits="userSpaceOnUse"
       xlink:href="#linearGradient5060-2-47"
       id="radialGradient4968-3"
       fy="486.64789"
       fx="605.71429"
       r="117.14286"
       cy="486.64789"
       cx="605.71429" />
    <linearGradient
       id="linearGradient5048-2-2">
      <stop
         offset="0"
         style="stop-color:#000000;stop-opacity:0"
         id="stop5050-3-3" />
      <stop
         offset="0.5"
         style="stop-color:#000000;stop-opacity:1"
         id="stop5056-5-7" />
      <stop
         offset="1"
         style="stop-color:#000000;stop-opacity:0"
         id="stop5052-02-4" />
    </linearGradient>
    <linearGradient
       gradientTransform="matrix(0.04576923,0,0,0.01070589,-0.54228385,23.774702)"
       gradientUnits="userSpaceOnUse"
       xlink:href="#linearGradient5048-2-2"
       id="linearGradient12979"
       y2="609.50507"
       x2="302.85715"
       y1="366.64789"
       x1="302.85715" />
    <linearGradient
       id="linearGradient895">
      <stop
         id="stop891"
         style="stop-color:#8cd5ff;stop-opacity:1"
         offset="0" />
      <stop
         id="stop893"
         style="stop-color:#3689e6;stop-opacity:1"
         offset="1" />
    </linearGradient>
    <linearGradient
       id="linearGradient878">
      <stop
         id="stop870"
         style="stop-color:#ffffff;stop-opacity:1"
         offset="0" />
      <stop
         id="stop872"
         style="stop-color:#ffffff;stop-opacity:0.23529412"
         offset="0" />
      <stop
         id="stop874"
         style="stop-color:#ffffff;stop-opacity:0.15686275"
         offset="1" />
      <stop
         id="stop876"
         style="stop-color:#ffffff;stop-opacity:0.39215687"
         offset="1" />
    </linearGradient>
    <linearGradient
       gradientTransform="matrix(0.59729731,0,0,0.63243262,1.664843,0.17171947)"
       gradientUnits="userSpaceOnUse"
       xlink:href="#linearGradient878"
       id="linearGradient7191-5-3"
       y2="41.472054"
       x2="23.99999"
       y1="6.5276208"
       x1="23.99999" />
    <linearGradient
       gradientTransform="matrix(1.3,0,0,1.3,0.39999505,-10)"
       xlink:href="#linearGradient895"
       id="linearGradient889"
       x1="12"
       y1="5.369091"
       x2="12"
       y2="40.668579"
       gradientUnits="userSpaceOnUse" />
  </defs>
  <metadata
     id="metadata12986">
    <rdf:RDF>
      <cc:Work
         rdf:about="">
        <dc:format>image/svg+xml</dc:format>
        <dc:type
           rdf:resource="http://purl.org/dc/dcmitype/StillImage" />
        <dc:title></dc:title>
      </cc:Work>
    </rdf:RDF>
  </metadata>
  <rect
     width="22.099998"
     height="2.5999999"
     x="4.9500203"
     y="27.700001"
     id="rect2879-7"
     style="display:inline;overflow:visible;visibility:visible;opacity:0.15;fill:url(#linearGradient12979);fill-opacity:1;fill-rule:nonzero;stroke:none;stroke-width:1.29999995;marker:none" />
  <path
     d="m 4.9500212,27.700104 c 0,0 0,2.599857 0,2.599857 -0.806611,0.0052 -1.95,-0.582504 -1.95,-1.300104 0,-0.7176 0.90012,-1.299753 1.95,-1.299753 z"
     id="path2881-0"
     style="display:inline;overflow:visible;visibility:visible;opacity:0.15;fill:url(#radialGradient4968-3);fill-opacity:1;fill-rule:nonzero;stroke:none;stroke-width:1.29999995;marker:none"
     inkscape:connector-curvature="0" />
  <path
     d="m 27.050019,27.700104 c 0,0 0,2.599857 0,2.599857 0.806611,0.0052 1.95,-0.582504 1.95,-1.300104 0,-0.7176 -0.90012,-1.299753 -1.95,-1.299753 z"
     id="path2883-3"
     style="display:inline;overflow:visible;visibility:visible;opacity:0.15;fill:url(#radialGradient4965-9);fill-opacity:1;fill-rule:nonzero;stroke:none;stroke-width:1.29999995;marker:none"
     inkscape:connector-curvature="0" />
  <rect
     width="16.9"
     height="26"
     rx="0"
     ry="0"
     x="7.5500212"
     y="2.3499587"
     id="rect3457-8-2"
     style="display:inline;opacity:1;fill:url(#linearGradient889);fill-opacity:1;stroke:none;stroke-width:1.29999995;stroke-linecap:butt;stroke-linejoin:miter;stroke-miterlimit:4;stroke-dasharray:none;stroke-dashoffset:0;stroke-opacity:0.83137255" />
  <path
     id="rect5505-21-2-7"
     d="M 3.6499808,1.6999996 C 3.2910105,1.7000349 3.0000171,1.9910295 2.9999807,2.3499998 V 28.35 c 3.65e-5,0.35897 0.2910298,0.649964 0.6500001,0.65 h 3.2499999 18.1999993 3.25 c 0.358971,-3.6e-5 0.649964,-0.29103 0.65,-0.65 V 2.3499998 c -3.6e-5,-0.3589703 -0.291029,-0.6499649 -0.65,-0.6500002 h -3.25 -18.1999993 z m 0.6499999,1.3000002 h 2.6 v 1.3 h -2.6 z m 3.9000001,0 H 23.799981 V 27.7 H 8.1999808 Z m 16.8999992,0 h 2.6 v 1.3 h -2.6 z m -20.7999993,3.9 h 2.6 v 1.3 h -2.6 z m 20.7999993,0 h 2.6 v 1.3 h -2.6 z M 4.2999807,10.8 h 2.6 v 1.3 h -2.6 z m 20.7999993,0 h 2.6 v 1.3 h -2.6 z M 4.2999807,14.7 h 2.6 V 16 h -2.6 z m 20.7999993,0 h 2.6 V 16 h -2.6 z M 4.2999807,18.6 h 2.6 v 1.3 h -2.6 z m 20.7999993,0 h 2.6 v 1.3 h -2.6 z M 4.2999807,22.5 h 2.6 v 1.3 h -2.6 z m 20.7999993,0 h 2.6 v 1.3 h -2.6 z M 4.2999807,26.4 h 2.6 v 1.3 h -2.6 z m 20.7999993,0 h 2.6 v 1.3 h -2.6 z"
     style="color:#000000;font-style:normal;font-variant:normal;font-weight:normal;font-stretch:normal;font-size:medium;line-height:normal;font-family:sans-serif;text-indent:0;text-align:start;text-decoration:none;text-decoration-line:none;text-decoration-style:solid;text-decoration-color:#000000;letter-spacing:normal;word-spacing:normal;text-transform:none;writing-mode:lr-tb;direction:ltr;baseline-shift:baseline;text-anchor:start;white-space:normal;clip-rule:nonzero;display:inline;overflow:visible;visibility:visible;opacity:0.7;isolation:auto;mix-blend-mode:normal;color-interpolation:sRGB;color-interpolation-filters:linearRGB;solid-color:#000000;solid-opacity:1;fill:#000000;fill-opacity:1;fill-rule:nonzero;stroke:none;stroke-width:1;stroke-linecap:round;stroke-linejoin:round;stroke-miterlimit:4;stroke-dasharray:none;stroke-dashoffset:0;stroke-opacity:1;marker:none;color-rendering:auto;image-rendering:auto;shape-rendering:auto;text-rendering:auto;enable-background:accumulate"
     inkscape:connector-curvature="0" />
  <path
     d="m 8.8500224,15.34996 c 4.7664486,0 9.5329226,0 14.2993726,0"
     id="path4320-2-0"
     style="display:block;overflow:visible;visibility:visible;opacity:0.7;fill:none;stroke:#000000;stroke-width:1.29999995;stroke-linecap:square;stroke-linejoin:round;stroke-miterlimit:4;stroke-dasharray:none;stroke-dashoffset:0;stroke-opacity:1;marker:none"
     inkscape:connector-curvature="0" />
  <path
     d="m 8.8500224,16.65 c 4.7664616,0 9.5329226,0 14.2993726,0"
     id="path4820-2-9"
     style="display:block;overflow:visible;visibility:visible;opacity:0.3;fill:none;stroke:#ffffff;stroke-width:1;stroke-linecap:square;stroke-linejoin:round;stroke-miterlimit:4;stroke-dasharray:none;stroke-dashoffset:0;stroke-opacity:1;marker:none"
     inkscape:connector-curvature="0" />
  <rect
     width="22.1"
     height="23.400002"
     x="4.9500213"
     y="3.6500795"
     id="rect6741-0-3-5-3"
     style="opacity:0.3;fill:none;stroke:url(#linearGradient7191-5-3);stroke-width:1;stroke-linecap:round;stroke-linejoin:miter;stroke-miterlimit:4;stroke-dasharray:none;stroke-dashoffset:0;stroke-opacity:1" />
  <path
     d="m 25.09998,26.4 h 2.6 v 1.3 h -2.6 z m 0,-3.9 h 2.6 v 1.3 h -2.6 z m 0,-3.9 h 2.6 v 1.3 h -2.6 z M 4.2999807,26.4 h 2.6 v 1.3 h -2.6 z m 0,-3.9 h 2.6 v 1.3 h -2.6 z m 0,-3.9 h 2.6 v 1.3 h -2.6 z m 0,-3.9 h 2.6 V 16 h -2.6 z m 0,-3.9 h 2.6 v 1.3 h -2.6 z m 0,-3.9000002 h 2.6 v 1.3 h -2.6 z m 0,-3.9 h 2.6 v 1.3 h -2.6 z"
     id="rect3953-50-6-7-6"
     style="color:#000000;display:inline;overflow:visible;visibility:visible;opacity:0.3;fill:#e6e6e6;fill-opacity:1;fill-rule:nonzero;stroke:none;stroke-width:1.29999995;marker:none;enable-background:accumulate"
     inkscape:connector-curvature="0" />
</svg>
