<?xml version="1.0" encoding="UTF-8" standalone="no"?>
<svg
   xmlns:dc="http://purl.org/dc/elements/1.1/"
   xmlns:cc="http://creativecommons.org/ns#"
   xmlns:rdf="http://www.w3.org/1999/02/22-rdf-syntax-ns#"
   xmlns:svg="http://www.w3.org/2000/svg"
   xmlns="http://www.w3.org/2000/svg"
   xmlns:xlink="http://www.w3.org/1999/xlink"
   xmlns:sodipodi="http://sodipodi.sourceforge.net/DTD/sodipodi-0.dtd"
   xmlns:inkscape="http://www.inkscape.org/namespaces/inkscape"
   id="svg3658"
   height="32"
   width="32"
   version="1.1"
   sodipodi:docname="fingerprint.svg"
   inkscape:version="0.92.4 (5da689c313, 2019-01-14)">
  <sodipodi:namedview
     pagecolor="#ffffff"
     bordercolor="#666666"
     borderopacity="1"
     objecttolerance="10"
     gridtolerance="10"
     guidetolerance="10"
     inkscape:pageopacity="0"
     inkscape:pageshadow="2"
     inkscape:window-width="2880"
     inkscape:window-height="1706"
     id="namedview27"
     showgrid="false"
     inkscape:zoom="7.375"
     inkscape:cx="-1.4237288"
     inkscape:cy="16"
     inkscape:window-x="-11"
     inkscape:window-y="-11"
     inkscape:window-maximized="1"
     inkscape:current-layer="svg3658" />
  <defs
     id="defs3660">
    <linearGradient
       id="linearGradient4011">
      <stop
         offset="0"
         style="stop-color:#ffffff;stop-opacity:1"
         id="stop4013" />
      <stop
         offset="0.507761"
         style="stop-color:#ffffff;stop-opacity:0.23529412"
         id="stop4015" />
      <stop
         offset="0.83456558"
         style="stop-color:#ffffff;stop-opacity:0.15686275"
         id="stop4017" />
      <stop
         offset="1"
         style="stop-color:#ffffff;stop-opacity:0.39215687"
         id="stop4019" />
    </linearGradient>
    <linearGradient
       id="linearGradient3820-7-2-2">
      <stop
         offset="0"
         style="stop-color:#3d3d3d;stop-opacity:1"
         id="stop3822-2-6-36" />
      <stop
         offset="0.5"
         style="stop-color:#686868;stop-opacity:0.49803922"
         id="stop3864-8-7-6" />
      <stop
         offset="1"
         style="stop-color:#686868;stop-opacity:0"
         id="stop3824-1-2-4" />
    </linearGradient>
    <radialGradient
       r="62.769119"
       fy="186.17059"
       fx="99.157013"
       cy="186.17059"
       cx="99.157013"
       gradientTransform="matrix(0.1489586,0,0,0.04739593,1.2297114,17.876271)"
       gradientUnits="userSpaceOnUse"
       id="radialGradient4048"
       xlink:href="#linearGradient3820-7-2-2" />
    <linearGradient
       x1="71.204407"
       y1="6.2375584"
       x2="71.204407"
       y2="44.340794"
       id="linearGradient12398-3"
       xlink:href="#linearGradient4011"
       gradientUnits="userSpaceOnUse"
       gradientTransform="matrix(0.62027056,0,0,0.62027056,-28.494196,0.34682062)" />
    <linearGradient
       x1="2035.1652"
       y1="3208.0737"
       x2="2035.1652"
       y2="3241.9966"
       id="linearGradient11527-6-5"
       xlink:href="#linearGradient1360"
       gradientUnits="userSpaceOnUse"
       gradientTransform="matrix(0.94466952,0,0,0.70623123,-1910.0101,-2261.2097)" />
    <linearGradient
       id="linearGradient1360">
      <stop
         offset="0"
         style="stop-color:#ff8c82;stop-opacity:1"
         id="stop1356" />
      <stop
         offset="1"
         style="stop-color:#ed5353;stop-opacity:1"
         id="stop1358" />
    </linearGradient>
  </defs>
  <metadata
     id="metadata3663">
    <rdf:RDF>
      <cc:Work
         rdf:about="">
        <dc:format>image/svg+xml</dc:format>
        <dc:type
           rdf:resource="http://purl.org/dc/dcmitype/StillImage" />
        <dc:title />
      </cc:Work>
    </rdf:RDF>
  </metadata>
  <path
     style="fill:url(#radialGradient4048);fill-opacity:1;stroke:none;stroke-width:1;stroke-miterlimit:4;stroke-dasharray:none"
     id="path3818-0-2"
     d="m 25.350001,26.699997 a 9.35,2.9749999 0 1 1 -18.6999999,0 9.35,2.9749999 0 1 1 18.6999999,0 z"
     inkscape:connector-curvature="0" />
  <path
     d="m 15.999999,3.7501632 c -6.8005124,0 -12.3249999,5.5244878 -12.3249999,12.3250008 0,6.800512 5.5244875,12.325 12.3249999,12.325 6.800514,0 12.325013,-5.524488 12.325001,-12.325 0,-6.800513 -5.524487,-12.3250008 -12.325001,-12.3250008 z"
     id="path2555-7-8-5-0-9"
     style="color:#000000;display:inline;overflow:visible;visibility:visible;opacity:0.98999999;fill:url(#linearGradient11527-6-5);fill-opacity:1;fill-rule:nonzero;stroke:none;stroke-width:1;marker:none;enable-background:accumulate;stroke-miterlimit:4;stroke-dasharray:none"
     inkscape:connector-curvature="0" />
  <path
     d="m 27.475,16.074753 c 0,6.337682 -5.137916,11.475416 -11.474861,11.475416 -6.3375257,0 -11.4751387,-5.137795 -11.4751387,-11.475416 0,-6.3373797 5.137613,-11.4745947 11.4751387,-11.4745947 6.336945,0 11.474861,5.1372151 11.474861,11.4745947 z"
     id="path8655-6-0-9-5-0"
     style="color:#000000;display:inline;overflow:visible;visibility:visible;opacity:0.5;fill:none;stroke:url(#linearGradient12398-3);stroke-width:1;stroke-linecap:round;stroke-linejoin:round;stroke-miterlimit:4;stroke-dasharray:none;stroke-dashoffset:0;stroke-opacity:1;marker:none;enable-background:accumulate"
     inkscape:connector-curvature="0" />
  <path
     d="m 16.000001,3.7516919 c -6.7996662,0 -12.3234728,5.5238046 -12.3234728,12.3234711 0,6.799667 5.5238066,12.323475 12.3234728,12.323472 6.799664,0 12.323477,-5.523805 12.323471,-12.323472 0,-6.7996665 -5.523807,-12.3234711 -12.323471,-12.3234711 z"
     id="path2555-4"
     style="color:#000000;clip-rule:nonzero;display:inline;overflow:visible;visibility:visible;opacity:0.5;isolation:auto;mix-blend-mode:normal;color-interpolation:sRGB;color-interpolation-filters:linearRGB;solid-color:#000000;solid-opacity:1;vector-effect:none;fill:none;fill-opacity:1;fill-rule:nonzero;stroke:#c6262e;stroke-width:1;stroke-linecap:round;stroke-linejoin:round;stroke-miterlimit:4;stroke-dasharray:none;stroke-dashoffset:0;stroke-opacity:1;marker:none;color-rendering:auto;image-rendering:auto;shape-rendering:auto;text-rendering:auto;enable-background:accumulate"
     inkscape:connector-curvature="0" />
  <path
     d="m 16.192578,8.8601245 c -2.142317,-0.04763 -4.227933,0.6925499 -5.860351,2.0801755 -0.278939,0.237175 -0.4605613,0.611867 -0.4681645,0.961231 -0.00761,0.349363 0.1219401,0.653449 0.3187495,0.884863 0.160723,0.188981 0.408785,0.297353 0.670704,0.373535 -1.0425896,1.203467 -1.7402516,2.720726 -1.7481449,4.430957 a 0.84272816,0.84272816 0 0 0 0,0.0033 c 0,1.536232 0.3175037,2.76289 0.7022461,3.846582 a 0.84272816,0.84272816 0 0 0 0.00664,0.02158 c 0.1316491,0.341189 0.4249398,0.635957 0.7520518,0.758691 0.327111,0.122734 0.656175,0.09953 0.939648,-0.01 0.211097,-0.08153 0.369861,-0.273325 0.522949,-0.464844 0.665087,1.220547 1.577225,2.223314 2.561621,2.979981 a 0.84272816,0.84272816 0 0 0 0.01162,0.01 c 0.24758,0.183115 0.556441,0.273274 0.859961,0.254003 a 0.84272816,0.84272816 0 0 0 0.0066,-0.0017 c 0.02094,-0.0014 0.06384,-0.004 0.127832,-0.01494 0.540837,-0.09144 0.952148,-0.529628 1.059179,-1.001073 0.0212,-0.09336 -0.02027,-0.193596 -0.02158,-0.292188 0.907755,0.467124 1.897962,0.798694 2.998242,0.841699 a 0.84272816,0.84272816 0 0 0 0.0249,0.0017 c 0.366204,0.0037 0.74818,-0.161262 0.982813,-0.42002 0.234634,-0.258757 0.33543,-0.57287 0.338672,-0.876562 0.0032,-0.303692 -0.08938,-0.619457 -0.31875,-0.883203 -0.0269,-0.03093 -0.08378,-0.02319 -0.114551,-0.05147 0.03312,-0.02882 0.09224,-0.01959 0.121191,-0.05147 0.235163,-0.258918 0.335962,-0.574218 0.338673,-0.878223 0.0024,-0.265109 -0.109916,-0.53006 -0.280567,-0.770312 1.257098,-0.422811 2.186426,-1.578875 2.186426,-2.97168 0,-1.618259 -0.647122,-3.044624 -1.585449,-4.223438 0.277388,-0.06168 0.537895,-0.165614 0.712207,-0.353612 0.208164,-0.224511 0.351718,-0.524434 0.356934,-0.878223 0.0052,-0.35208 -0.16816,-0.73409 -0.441602,-0.981152 -1.570844,-1.4522448 -3.619904,-2.2805081 -5.75905,-2.3242003 z m 4.850977,8.6776365 0.0017,0.03154 c -3.1e-5,-0.003 -0.0016,-0.0054 -0.0017,-0.0083 -2.23e-4,-0.0076 3.58e-4,-0.01552 0,-0.02324 z m 0.0017,0.08301 -0.0017,0.03984 c 5.63e-4,-0.01214 -2.29e-4,-0.02453 0,-0.03653 4e-6,-0.0013 0.0017,-0.002 0.0017,-0.0033 z"
     id="path45-6-25-2-3-6"
     style="opacity:0.05;vector-effect:none;fill:#7a0000;fill-opacity:1;stroke:none;stroke-width:1;stroke-linecap:butt;stroke-linejoin:miter;stroke-miterlimit:4;stroke-dasharray:none;stroke-dashoffset:0;stroke-opacity:1;marker:none"
     inkscape:connector-curvature="0" />
  <path
     style="opacity:0.15;vector-effect:none;fill:#7a0000;fill-opacity:1;stroke:none;stroke-width:1;stroke-linecap:butt;stroke-linejoin:miter;stroke-miterlimit:4;stroke-dasharray:none;stroke-dashoffset:0;stroke-opacity:1;marker:none"
     d="m 16.175601,9.7021517 c -1.936464,-0.043422 -3.821481,0.6256033 -5.297288,1.8801033 -0.473584,0.402675 0.130436,1.112959 0.60402,0.710284 2.694896,-2.292121 6.678018,-2.207238 9.272818,0.197611 0.456019,0.438247 1.105024,-0.261344 0.633847,-0.683252 -1.420895,-1.316573 -3.275774,-2.0655553 -5.212464,-2.1047463 z m -0.167783,1.8605293 c -3.335312,-3.6e-5 -6.0434436,2.695596 -6.0588371,6.030874 0,1.423765 0.2841591,2.530471 0.6515571,3.565312 0.223712,0.579784 1.093388,0.244218 0.869677,-0.335566 -0.392902,-1.018723 -0.59298,-2.101614 -0.590038,-3.193474 0,-3.038616 2.742008,-5.062614 5.12671,-5.135096 2.831402,0 5.126708,2.295306 5.126708,5.126709 0,0.772201 -0.625993,1.398193 -1.398194,1.398193 -0.772201,0 -1.398193,-0.625992 -1.398193,-1.398193 0,-1.287001 -1.04332,-2.330322 -2.330321,-2.330322 -1.275797,4.19e-4 -2.31408,1.026654 -2.32939,2.302359 0,3.306814 2.573741,5.953357 5.987995,6.086804 0.621419,0.0062 0.630739,-0.925915 0.0093,-0.932129 -2.809552,-0.02 -5.073666,-2.308714 -5.063323,-5.11832 2.5e-5,-0.0028 2.5e-5,-0.0056 0,-0.0084 0,-0.772201 0.625992,-1.398194 1.398192,-1.398194 0.772201,0 1.398194,0.625993 1.398194,1.398194 0,1.287001 1.04332,2.330322 2.330322,2.330322 1.287001,0 2.330322,-1.043321 2.330322,-2.330322 0,-3.346203 -2.712634,-6.058837 -6.058838,-6.058837 z m 0,1.864258 c -2.305364,-5.4e-5 -4.178697,1.860373 -4.19458,4.165684 0,2.924573 1.509773,5.098193 3.289482,6.466188 0.08837,0.06536 0.196985,0.09738 0.306672,0.09042 0.01562,-0.0011 0.03117,-0.003 0.0466,-0.0056 0.411732,-0.06881 0.532321,-0.602592 0.190155,-0.841713 -1.826475,-1.311011 -2.906966,-3.423733 -2.900785,-5.672004 3.1e-5,-0.0031 3.1e-5,-0.0062 0,-0.0093 0,-1.801803 1.460649,-3.262452 3.262451,-3.262452 1.801802,0 3.262452,1.460649 3.262452,3.262452 0,0.257399 0.208664,0.466063 0.466064,0.466063 0.257399,0 0.466063,-0.208664 0.466063,-0.466063 6.63e-4,-0.01429 6.63e-4,-0.02859 0,-0.04288 -0.02401,-2.298748 -1.89384,-4.149873 -4.192716,-4.150769 z m -0.0093,3.710805 c -0.327037,0.01587 -0.452067,0.279598 -0.461404,0.533185 0.02973,2.280512 1.873924,4.120569 4.154498,4.145175 0.622008,0.0068 0.631328,-0.925312 0.0093,-0.932128 -1.792217,-0.0118 -3.2377,-1.470198 -3.233555,-3.262451 3.1e-5,-0.0031 3.1e-5,-0.0062 0,-0.0093 0.0043,-0.262145 -0.20856,-0.476177 -0.470725,-0.473521 z"
     id="path45-6-25-2-3"
     inkscape:connector-curvature="0" />
  <path
     style="opacity:1;vector-effect:none;fill:#fafafa;fill-opacity:1;stroke:none;stroke-width:1;stroke-linecap:butt;stroke-linejoin:miter;stroke-miterlimit:4;stroke-dasharray:none;stroke-dashoffset:0;stroke-opacity:1;marker:none"
     d="m 16.175601,8.8521522 c -1.936464,-0.043422 -3.821481,0.6256038 -5.297288,1.8801028 -0.473584,0.402675 0.130436,1.112959 0.60402,0.710284 2.694896,-2.2921207 6.678018,-2.207237 9.272818,0.197611 0.456019,0.438247 1.105024,-0.261344 0.633847,-0.683252 C 19.968103,9.6403255 18.113224,8.8913433 16.176534,8.8521522 Z m -0.167783,1.8605288 c -3.335312,-3.5e-5 -6.0434436,2.695596 -6.0588371,6.030874 0,1.423765 0.2841591,2.530471 0.6515571,3.565312 0.223712,0.579784 1.093388,0.244218 0.869677,-0.335566 -0.392902,-1.018723 -0.59298,-2.101614 -0.590038,-3.193474 0,-3.038616 2.742008,-5.062614 5.12671,-5.135096 2.831402,0 5.126708,2.295306 5.126708,5.126709 0,0.772201 -0.625993,1.398193 -1.398194,1.398193 -0.772201,0 -1.398193,-0.625992 -1.398193,-1.398193 0,-1.287001 -1.04332,-2.330322 -2.330321,-2.330322 -1.275797,4.19e-4 -2.31408,1.026654 -2.32939,2.302359 0,3.306814 2.573741,5.953357 5.987995,6.086804 0.621419,0.0062 0.630739,-0.925915 0.0093,-0.932129 -2.809552,-0.02 -5.073666,-2.308714 -5.063323,-5.11832 2.5e-5,-0.0028 2.5e-5,-0.0056 0,-0.0084 0,-0.772201 0.625992,-1.398194 1.398192,-1.398194 0.772201,0 1.398194,0.625993 1.398194,1.398194 0,1.287001 1.04332,2.330322 2.330322,2.330322 1.287001,0 2.330322,-1.043321 2.330322,-2.330322 0,-3.346203 -2.712634,-6.058837 -6.058838,-6.058837 z m 0,1.864258 c -2.305364,-5.4e-5 -4.178697,1.860373 -4.19458,4.165684 0,2.924573 1.509773,5.098193 3.289482,6.466188 0.08837,0.06536 0.196985,0.09738 0.306672,0.09042 0.01562,-0.0011 0.03117,-0.003 0.0466,-0.0056 0.411732,-0.06881 0.532321,-0.602592 0.190155,-0.841713 -1.826475,-1.311011 -2.906966,-3.423733 -2.900785,-5.672004 3.1e-5,-0.0031 3.1e-5,-0.0062 0,-0.0093 0,-1.801803 1.460649,-3.262452 3.262451,-3.262452 1.801802,0 3.262452,1.460649 3.262452,3.262452 0,0.257399 0.208664,0.466063 0.466064,0.466063 0.257399,0 0.466063,-0.208664 0.466063,-0.466063 6.63e-4,-0.01429 6.63e-4,-0.02859 0,-0.04288 -0.02401,-2.298748 -1.89384,-4.149873 -4.192716,-4.150769 z m -0.0093,3.710805 c -0.327037,0.01587 -0.452067,0.279598 -0.461404,0.533185 0.02973,2.280512 1.873924,4.120569 4.154498,4.145175 0.622008,0.0068 0.631328,-0.925312 0.0093,-0.932128 -1.792217,-0.0118 -3.2377,-1.470198 -3.233555,-3.262451 3.1e-5,-0.0031 3.1e-5,-0.0062 0,-0.0093 0.0043,-0.262145 -0.20856,-0.476177 -0.470725,-0.473521 z"
     id="path45-6-25-2"
     inkscape:connector-curvature="0" />
</svg>
