<?xml version="1.0" encoding="UTF-8" standalone="no"?>
<svg
   xmlns:dc="http://purl.org/dc/elements/1.1/"
   xmlns:cc="http://creativecommons.org/ns#"
   xmlns:rdf="http://www.w3.org/1999/02/22-rdf-syntax-ns#"
   xmlns:svg="http://www.w3.org/2000/svg"
   xmlns="http://www.w3.org/2000/svg"
   xmlns:xlink="http://www.w3.org/1999/xlink"
   xmlns:sodipodi="http://sodipodi.sourceforge.net/DTD/sodipodi-0.dtd"
   xmlns:inkscape="http://www.inkscape.org/namespaces/inkscape"
   id="svg4114"
   height="32"
   width="32"
   version="1.1"
   sodipodi:docname="flag.svg"
   inkscape:version="0.92.4 (5da689c313, 2019-01-14)">
  <sodipodi:namedview
     pagecolor="#ffffff"
     bordercolor="#666666"
     borderopacity="1"
     objecttolerance="10"
     gridtolerance="10"
     guidetolerance="10"
     inkscape:pageopacity="0"
     inkscape:pageshadow="2"
     inkscape:window-width="1920"
     inkscape:window-height="1017"
     id="namedview26"
     showgrid="false"
     inkscape:zoom="9.8333333"
     inkscape:cx="-0.66101695"
     inkscape:cy="12"
     inkscape:window-x="-8"
     inkscape:window-y="-8"
     inkscape:window-maximized="1"
     inkscape:current-layer="svg4114" />
  <defs
     id="defs4116">
    <linearGradient
       id="linearGradient904">
      <stop
         id="stop898"
         style="stop-color:#ffc27d;stop-opacity:1"
         offset="0" />
      <stop
         id="stop900"
         style="stop-color:#ffa154;stop-opacity:1"
         offset="0.26238" />
      <stop
         id="stop902"
         style="stop-color:#f37329;stop-opacity:1"
         offset="1" />
    </linearGradient>
    <linearGradient
       gradientTransform="matrix(0.47890029,0,0.12205547,0.45551719,2.9128481,-0.43462373)"
       gradientUnits="userSpaceOnUse"
       xlink:href="#linearGradient3875"
       id="linearGradient3167"
       y2="37.167572"
       x2="22.875973"
       y1="9.2952671"
       x1="24.001757" />
    <linearGradient
       id="linearGradient3875">
      <stop
         offset="0"
         style="stop-color:#ffffff;stop-opacity:1"
         id="stop3877" />
      <stop
         offset="0.13099068"
         style="stop-color:#ffffff;stop-opacity:0.23529412"
         id="stop3879" />
      <stop
         offset="0.90155029"
         style="stop-color:#ffffff;stop-opacity:0.15686275"
         id="stop3881" />
      <stop
         offset="1"
         style="stop-color:#ffffff;stop-opacity:0.39215687"
         id="stop3883" />
    </linearGradient>
    <linearGradient
       spreadMethod="reflect"
       gradientTransform="matrix(0.6513046,0,0.16793399,0.62673818,-1.2879558,-1.7987287)"
       gradientUnits="userSpaceOnUse"
       xlink:href="#linearGradient904"
       id="linearGradient3160"
       y2="19.599176"
       x2="28.05953"
       y1="19.599176"
       x1="0.36465192" />
    <linearGradient
       id="linearGradient4034">
      <stop
         offset="0"
         style="stop-color:#000000;stop-opacity:1"
         id="stop4036" />
      <stop
         offset="1"
         style="stop-color:#000000;stop-opacity:0"
         id="stop4038" />
    </linearGradient>
    <linearGradient
       gradientTransform="matrix(1.3,0,0,1.3,0.49352224,-0.98262463)"
       gradientUnits="userSpaceOnUse"
       xlink:href="#linearGradient4034"
       id="linearGradient4112"
       y2="14.232251"
       x2="10.824209"
       y1="31.999737"
       x1="10.824209" />
  </defs>
  <metadata
     id="metadata4119">
    <rdf:RDF>
      <cc:Work
         rdf:about="">
        <dc:format>image/svg+xml</dc:format>
        <dc:type
           rdf:resource="http://purl.org/dc/dcmitype/StillImage" />
        <dc:title></dc:title>
      </cc:Work>
    </rdf:RDF>
  </metadata>
  <path
     d="m 9.5122722,20.275888 c -2.3615618,0.02977 -4.338334,0.217444 -4.8749999,0.405572 L 4.3528973,20.331829 H 1.7528972 l 7.3125,9.398068 H 11.665397 L 8.6997722,26.575106 c 0.880256,0.112411 3.2113378,-0.339581 6.2156248,-0.321659 3.64363,0.02174 4.717773,0.485723 8.571875,0.489483 3.854096,0.0038 7.081507,-0.231082 6.784375,-0.573394 l -3.9,-5.669885 c -0.17987,-0.258976 -3.463949,0.315145 -7.06875,0.26572 -3.891818,-0.05337 -5.101872,-0.449151 -8.53125,-0.489483 -0.428688,-0.0049 -0.8475595,-0.0051 -1.2593748,0 z"
     id="rect3941-5-6"
     style="color:#000000;display:inline;overflow:visible;visibility:visible;opacity:0.25;fill:url(#linearGradient4112);fill-opacity:1;stroke:none;stroke-width:1.29999995;marker:none;enable-background:accumulate"
     inkscape:connector-curvature="0" />
  <rect
     width="1.3"
     height="26.917181"
     x="1.7551702"
     y="3.2030742"
     transform="matrix(1,0,0.25881905,0.96592583,0,0)"
     id="rect3941-5"
     style="color:#000000;display:inline;overflow:visible;visibility:visible;fill:#ffffff;stroke:none;stroke-width:1.29999995;marker:none;enable-background:accumulate" />
  <rect
     width="2.5999999"
     height="28.263039"
     x="1.1051701"
     y="2.5301459"
     transform="matrix(1,0,0.25881905,0.96592583,0,0)"
     id="rect3941"
     style="color:#000000;display:inline;overflow:visible;visibility:visible;opacity:0.36600001;fill:none;stroke:#000000;stroke-width:1.01748522;stroke-linejoin:round;stroke-miterlimit:4;stroke-dasharray:none;stroke-opacity:1;marker:none;enable-background:accumulate" />
  <path
     d="m 4.4943124,3.8077849 c -0.2195429,-0.7383584 2.8535559,-1.6472828 6.2830606,-1.53012 3.429379,0.1171573 4.639318,1.2469943 8.531136,1.4019946 3.604801,0.1435707 6.868602,-1.5017923 7.048473,-0.7495059 l 3.901906,14.5621094 c 0.297132,0.994363 -2.908636,1.685831 -6.762732,1.675009 -3.854102,-0.01092 -4.926859,-1.344825 -8.570489,-1.407963 -3.64156,-0.0631 -6.2899724,1.847953 -6.5701931,0.458527 z"
     id="path4319-6"
     style="fill:url(#linearGradient3160);fill-opacity:1;fill-rule:evenodd;stroke:none;stroke-width:1.29999995;stroke-linecap:butt;stroke-linejoin:round;stroke-miterlimit:4;stroke-dasharray:none;stroke-opacity:1"
     inkscape:connector-curvature="0" />
  <path
     d="M 11.415262,3.4869423 C 9.8740198,3.4236843 8.375268,3.6112873 7.3107342,3.8487713 6.7784673,3.9675133 6.3775982,4.0902736 6.1247914,4.2106003 6.0258146,4.2577123 5.9690455,4.3035633 5.9326021,4.3312143 L 9.4551834,17.477667 c 0.2186803,-0.02027 0.6069316,-0.126516 1.1139636,-0.271372 1.065965,-0.304537 2.567808,-0.729816 4.368452,-0.693506 1.772643,0.03575 2.993555,0.403789 4.11481,0.753811 1.121257,0.350021 2.160642,0.687578 3.874147,0.693505 1.750951,0.0061 3.354698,-0.171547 4.481317,-0.391981 0.563308,-0.110214 1.010408,-0.254092 1.282159,-0.361829 0.09246,-0.03666 0.12311,-0.06453 0.168197,-0.09045 L 25.376045,4.1201476 C 25.072262,4.1802076 24.652811,4.2721891 24.101718,4.3915187 22.918819,4.6476551 21.255392,4.93661 19.355988,4.8739578 17.490328,4.8124158 16.238763,4.4976676 15.096973,4.180452 13.955185,3.8632338 12.939665,3.5495165 11.415262,3.4869423 Z"
     id="path3112"
     style="opacity:0.5;fill:none;stroke:url(#linearGradient3167);stroke-width:1;stroke-linecap:butt;stroke-linejoin:miter;stroke-opacity:1;stroke-miterlimit:4;stroke-dasharray:none"
     inkscape:connector-curvature="0" />
  <path
     d="M 4.4943124,3.8077849 C 4.2747695,3.0694265 7.3478683,2.1605024 10.777373,2.2776651 c 3.429379,0.1171573 4.639318,1.2469941 8.531136,1.4019944 3.604801,0.1435707 6.868602,-1.501792 7.048473,-0.7495059 l 3.901906,14.5621094 c 0.297132,0.994363 -2.908636,1.685831 -6.762732,1.675009 -3.854102,-0.01092 -4.926859,-1.344825 -8.570489,-1.407963 -3.64156,-0.0631 -6.2899724,1.847953 -6.5701931,0.458527 z"
     id="path4319-6-2"
     style="opacity:0.5;fill:none;fill-opacity:1;fill-rule:evenodd;stroke:#a62100;stroke-width:1;stroke-linecap:butt;stroke-linejoin:round;stroke-miterlimit:4;stroke-dasharray:none;stroke-opacity:1"
     inkscape:connector-curvature="0" />
</svg>
