<?xml version="1.0" encoding="UTF-8" standalone="no"?>
<svg
   xmlns:dc="http://purl.org/dc/elements/1.1/"
   xmlns:cc="http://creativecommons.org/ns#"
   xmlns:rdf="http://www.w3.org/1999/02/22-rdf-syntax-ns#"
   xmlns:svg="http://www.w3.org/2000/svg"
   xmlns="http://www.w3.org/2000/svg"
   xmlns:xlink="http://www.w3.org/1999/xlink"
   xmlns:sodipodi="http://sodipodi.sourceforge.net/DTD/sodipodi-0.dtd"
   xmlns:inkscape="http://www.inkscape.org/namespaces/inkscape"
   id="svg4114"
   height="32"
   width="32"
   version="1.1"
   sodipodi:docname="flag.svg"
   inkscape:version="0.92.4 (5da689c313, 2019-01-14)">
  <sodipodi:namedview
     pagecolor="#ffffff"
     bordercolor="#666666"
     borderopacity="1"
     objecttolerance="10"
     gridtolerance="10"
     guidetolerance="10"
     inkscape:pageopacity="0"
     inkscape:pageshadow="2"
     inkscape:window-width="2880"
     inkscape:window-height="1706"
     id="namedview26"
     showgrid="false"
     inkscape:zoom="9.8333333"
     inkscape:cx="-22.983051"
     inkscape:cy="12"
     inkscape:window-x="-11"
     inkscape:window-y="-11"
     inkscape:window-maximized="1"
     inkscape:current-layer="svg4114" />
  <defs
     id="defs4116">
    <linearGradient
       id="linearGradient904">
      <stop
         id="stop898"
         style="stop-color:#ffc27d;stop-opacity:1"
         offset="0" />
      <stop
         id="stop900"
         style="stop-color:#ffa154;stop-opacity:1"
         offset="0.26238" />
      <stop
         id="stop902"
         style="stop-color:#f37329;stop-opacity:1"
         offset="1" />
    </linearGradient>
    <linearGradient
       gradientTransform="matrix(0.40706525,0,0.10374715,0.38718961,4.8765785,2.0307659)"
       gradientUnits="userSpaceOnUse"
       xlink:href="#linearGradient3875"
       id="linearGradient3167"
       y2="37.167572"
       x2="22.875973"
       y1="9.2952671"
       x1="24.001757" />
    <linearGradient
       id="linearGradient3875">
      <stop
         offset="0"
         style="stop-color:#ffffff;stop-opacity:1"
         id="stop3877" />
      <stop
         offset="0.13099068"
         style="stop-color:#ffffff;stop-opacity:0.23529412"
         id="stop3879" />
      <stop
         offset="0.90155029"
         style="stop-color:#ffffff;stop-opacity:0.15686275"
         id="stop3881" />
      <stop
         offset="1"
         style="stop-color:#ffffff;stop-opacity:0.39215687"
         id="stop3883" />
    </linearGradient>
    <linearGradient
       spreadMethod="reflect"
       gradientTransform="matrix(0.55360891,0,0.14274389,0.53272745,1.3058952,0.87127671)"
       gradientUnits="userSpaceOnUse"
       xlink:href="#linearGradient904"
       id="linearGradient3160"
       y2="19.599176"
       x2="28.05953"
       y1="19.599176"
       x1="0.36465192" />
    <linearGradient
       id="linearGradient4034">
      <stop
         offset="0"
         style="stop-color:#000000;stop-opacity:1"
         id="stop4036" />
      <stop
         offset="1"
         style="stop-color:#000000;stop-opacity:0"
         id="stop4038" />
    </linearGradient>
    <linearGradient
       gradientTransform="matrix(1.105,0,0,1.105,2.8201515,1.5649652)"
       gradientUnits="userSpaceOnUse"
       xlink:href="#linearGradient4034"
       id="linearGradient4112"
       y2="14.232251"
       x2="10.824209"
       y1="31.999737"
       x1="10.824209" />
  </defs>
  <metadata
     id="metadata4119">
    <rdf:RDF>
      <cc:Work
         rdf:about="">
        <dc:format>image/svg+xml</dc:format>
        <dc:type
           rdf:resource="http://purl.org/dc/dcmitype/StillImage" />
        <dc:title />
      </cc:Work>
    </rdf:RDF>
  </metadata>
  <path
     d="m 10.486089,19.634701 c -2.0073276,0.0253 -3.687584,0.184827 -4.14375,0.344736 L 6.1006203,19.682251 H 3.8906202 l 6.2156248,7.988358 h 2.21 L 9.7954639,24.989036 c 0.7482181,0.09555 2.7296371,-0.288644 5.2832811,-0.27341 3.097086,0.01848 4.010107,0.412865 7.286094,0.416061 3.275981,0.0032 6.019281,-0.19642 5.766719,-0.487385 l -3.315,-4.819403 c -0.15289,-0.220129 -2.944357,0.267874 -6.008438,0.225862 -3.308045,-0.04536 -4.336591,-0.381778 -7.251562,-0.41606 -0.364385,-0.0042 -0.720426,-0.0043 -1.070469,0 z"
     id="rect3941-5-6"
     style="color:#000000;display:inline;overflow:visible;visibility:visible;opacity:0.25;fill:url(#linearGradient4112);fill-opacity:1;stroke:none;stroke-width:1;marker:none;enable-background:accumulate;stroke-miterlimit:4;stroke-dasharray:none"
     inkscape:connector-curvature="0" />
  <rect
     width="1.105"
     height="22.879604"
     x="3.2494216"
     y="5.207479"
     transform="matrix(1,0,0.25881905,0.96592583,0,0)"
     id="rect3941-5"
     style="color:#000000;display:inline;overflow:visible;visibility:visible;fill:#ffffff;stroke:none;stroke-width:1.01748522;marker:none;enable-background:accumulate;stroke-miterlimit:4;stroke-dasharray:none" />
  <rect
     width="2.21"
     height="24.023582"
     x="2.6969216"
     y="4.6354899"
     transform="matrix(1,0,0.25881905,0.96592583,0,0)"
     id="rect3941"
     style="color:#000000;display:inline;overflow:visible;visibility:visible;opacity:0.36600001;fill:none;stroke:#000000;stroke-width:1.01748522;stroke-linejoin:round;stroke-miterlimit:4;stroke-dasharray:none;stroke-opacity:1;marker:none;enable-background:accumulate" />
  <path
     d="M 6.2208231,5.6368133 C 6.0342116,5.0092086 8.6463456,4.2366229 11.561425,4.3362113 c 2.914972,0.099584 3.94342,1.0599451 7.251465,1.1916954 3.064081,0.1220351 5.838312,-1.2765235 5.991202,-0.63708 l 3.31662,12.3777933 c 0.252563,0.845208 -2.47234,1.432956 -5.748322,1.423757 -3.275987,-0.0093 -4.18783,-1.143101 -7.284915,-1.196768 -3.095326,-0.05364 -5.346477,1.57076 -5.5846646,0.389748 z"
     id="path4319-6"
     style="fill:url(#linearGradient3160);fill-opacity:1;fill-rule:evenodd;stroke:none;stroke-width:1;stroke-linecap:butt;stroke-linejoin:round;stroke-miterlimit:4;stroke-dasharray:none;stroke-opacity:1"
     inkscape:connector-curvature="0" />
  <path
     d="M 12.10363,5.3640971 C 10.793574,5.3103278 9.5196354,5.4697903 8.6147816,5.6716517 8.1623548,5.7725824 7.821616,5.8769287 7.6067303,5.9792064 7.5226,6.0192516 7.4743462,6.0582249 7.4433694,6.0817283 L 10.437563,17.256213 c 0.185879,-0.01723 0.515892,-0.107539 0.94687,-0.230666 0.90607,-0.258857 2.182636,-0.620344 3.713184,-0.58948 1.506746,0.03039 2.544521,0.34322 3.497588,0.640739 0.953069,0.297518 1.836546,0.584441 3.293025,0.589479 1.488309,0.0052 2.851493,-0.145815 3.80912,-0.333183 0.478811,-0.09368 0.858846,-0.215979 1.089835,-0.307555 0.07859,-0.03116 0.104643,-0.05485 0.142967,-0.07688 L 23.970296,5.9023216 C 23.71208,5.9533726 23.355547,6.0315569 22.887118,6.132987 21.881654,6.350703 20.467741,6.5963146 18.853247,6.5430603 17.267436,6.4907496 16.203606,6.2232136 15.233085,5.9535803 14.262565,5.6839449 13.399373,5.4172851 12.10363,5.3640971 Z"
     id="path3112"
     style="opacity:0.5;fill:none;stroke:url(#linearGradient3167);stroke-width:1;stroke-linecap:butt;stroke-linejoin:miter;stroke-miterlimit:4;stroke-dasharray:none;stroke-opacity:1"
     inkscape:connector-curvature="0" />
  <path
     d="M 6.2208231,5.6368133 C 6.0342116,5.0092086 8.6463456,4.2366232 11.561425,4.3362115 c 2.914972,0.099584 3.94342,1.0599449 7.251465,1.1916952 3.064081,0.1220351 5.838312,-1.2765232 5.991202,-0.63708 l 3.31662,12.3777933 c 0.252563,0.845208 -2.47234,1.432956 -5.748322,1.423757 -3.275987,-0.0093 -4.18783,-1.143101 -7.284915,-1.196768 -3.095326,-0.05364 -5.346477,1.57076 -5.5846646,0.389748 z"
     id="path4319-6-2"
     style="opacity:0.5;fill:none;fill-opacity:1;fill-rule:evenodd;stroke:#a62100;stroke-width:1;stroke-linecap:butt;stroke-linejoin:round;stroke-miterlimit:4;stroke-dasharray:none;stroke-opacity:1"
     inkscape:connector-curvature="0" />
</svg>
