<?xml version="1.0" encoding="UTF-8" standalone="no"?>
<svg
   xmlns:dc="http://purl.org/dc/elements/1.1/"
   xmlns:cc="http://creativecommons.org/ns#"
   xmlns:rdf="http://www.w3.org/1999/02/22-rdf-syntax-ns#"
   xmlns:svg="http://www.w3.org/2000/svg"
   xmlns="http://www.w3.org/2000/svg"
   xmlns:xlink="http://www.w3.org/1999/xlink"
   xmlns:sodipodi="http://sodipodi.sourceforge.net/DTD/sodipodi-0.dtd"
   xmlns:inkscape="http://www.inkscape.org/namespaces/inkscape"
   id="svg14288"
   height="32"
   width="32"
   version="1.1"
   sodipodi:docname="folder-pictures.svg"
   inkscape:version="0.92.4 (5da689c313, 2019-01-14)">
  <sodipodi:namedview
     pagecolor="#ffffff"
     bordercolor="#666666"
     borderopacity="1"
     objecttolerance="10"
     gridtolerance="10"
     guidetolerance="10"
     inkscape:pageopacity="0"
     inkscape:pageshadow="2"
     inkscape:window-width="2880"
     inkscape:window-height="1706"
     id="namedview46"
     showgrid="false"
     inkscape:zoom="5.2149125"
     inkscape:cx="-139.97068"
     inkscape:cy="10.841266"
     inkscape:window-x="-11"
     inkscape:window-y="-11"
     inkscape:window-maximized="1"
     inkscape:current-layer="svg14288" />
  <defs
     id="defs14290">
    <linearGradient
       gradientTransform="matrix(0.75808218,0,0,0.89582477,5.0544333,7.3759584)"
       gradientUnits="userSpaceOnUse"
       xlink:href="#linearGradient3454-2-5-0-3-4"
       id="linearGradient5926"
       y2="21.386522"
       x2="27.557428"
       y1="7.162672"
       x1="27.557428" />
    <linearGradient
       id="linearGradient3454-2-5-0-3-4">
      <stop
         offset="0"
         style="stop-color:#ffffff;stop-opacity:1"
         id="stop3456-4-9-38-1-8" />
      <stop
         offset="0.0097359"
         style="stop-color:#ffffff;stop-opacity:0.23529412"
         id="stop3458-39-80-3-5-5" />
      <stop
         offset="0.99001008"
         style="stop-color:#ffffff;stop-opacity:0.15686275"
         id="stop3460-7-0-2-4-2" />
      <stop
         offset="1"
         style="stop-color:#ffffff;stop-opacity:0.39215687"
         id="stop3462-0-9-8-7-2" />
    </linearGradient>
    <linearGradient
       gradientTransform="matrix(0.0434714,0,0,0.01352839,0.28541708,20.879679)"
       gradientUnits="userSpaceOnUse"
       xlink:href="#linearGradient5048-585-0"
       id="linearGradient5905"
       y2="609.50507"
       x2="302.85715"
       y1="366.64789"
       x1="302.85715" />
    <linearGradient
       id="linearGradient5048-585-0">
      <stop
         offset="0"
         style="stop-color:#000000;stop-opacity:0"
         id="stop2667-18" />
      <stop
         offset="0.5"
         style="stop-color:#000000;stop-opacity:1"
         id="stop2669-9" />
      <stop
         offset="1"
         style="stop-color:#000000;stop-opacity:0"
         id="stop2671-33" />
    </linearGradient>
    <radialGradient
       gradientTransform="matrix(0.01686037,0,0,0.01352839,16.331383,20.879679)"
       gradientUnits="userSpaceOnUse"
       xlink:href="#linearGradient5060-179-67"
       id="radialGradient5907"
       fy="486.64789"
       fx="605.71429"
       r="117.14286"
       cy="486.64789"
       cx="605.71429" />
    <linearGradient
       id="linearGradient5060-179-67">
      <stop
         offset="0"
         style="stop-color:#000000;stop-opacity:1"
         id="stop2675-81" />
      <stop
         offset="1"
         style="stop-color:#000000;stop-opacity:0"
         id="stop2677-2" />
    </linearGradient>
    <radialGradient
       gradientTransform="matrix(-0.01686037,0,0,0.01352839,15.663062,20.879679)"
       gradientUnits="userSpaceOnUse"
       xlink:href="#linearGradient5060-820-4"
       id="radialGradient5909"
       fy="486.64789"
       fx="605.71429"
       r="117.14286"
       cy="486.64789"
       cx="605.71429" />
    <linearGradient
       id="linearGradient5060-820-4">
      <stop
         offset="0"
         style="stop-color:#000000;stop-opacity:1"
         id="stop2681-5" />
      <stop
         offset="1"
         style="stop-color:#000000;stop-opacity:0"
         id="stop2683-00" />
    </linearGradient>
    <linearGradient
       gradientTransform="matrix(0.46226023,0,0,0.52246445,5.1802758,7.1027683)"
       gradientUnits="userSpaceOnUse"
       xlink:href="#linearGradient4325"
       id="linearGradient5903"
       y2="34.016731"
       x2="21.571081"
       y1="7.9862504"
       x1="21.571081" />
    <linearGradient
       id="linearGradient4325">
      <stop
         offset="0"
         style="stop-color:#ffffff;stop-opacity:1"
         id="stop4327" />
      <stop
         offset="0"
         style="stop-color:#ffffff;stop-opacity:0.23529412"
         id="stop4329" />
      <stop
         offset="0.99001008"
         style="stop-color:#ffffff;stop-opacity:0.15686275"
         id="stop4331" />
      <stop
         offset="1"
         style="stop-color:#ffffff;stop-opacity:0.39215687"
         id="stop4333" />
    </linearGradient>
    <linearGradient
       gradientTransform="matrix(0.52619048,0,0,0.52619048,-23.431311,3.9895839)"
       gradientUnits="userSpaceOnUse"
       xlink:href="#linearGradient960"
       id="linearGradient5899"
       y2="16"
       x2="62.988873"
       y1="13"
       x1="62.988873" />
    <linearGradient
       id="linearGradient960">
      <stop
         id="stop956"
         style="stop-color:#fafafa;stop-opacity:1"
         offset="0" />
      <stop
         id="stop958"
         style="stop-color:#d4d4d4;stop-opacity:1"
         offset="1" />
    </linearGradient>
    <linearGradient
       id="linearGradient4632-0-6-4-4-4">
      <stop
         offset="0"
         style="stop-color:#b8dcec;stop-opacity:1"
         id="stop4634-4-4-7-4" />
      <stop
         offset="1"
         style="stop-color:#51b1d9;stop-opacity:1"
         id="stop4636-3-1-5-9" />
    </linearGradient>
    <linearGradient
       y2="103.2508"
       x2="23.587299"
       y1="64.737335"
       x1="23.587299"
       gradientTransform="matrix(0.42851241,0,0,0.41933382,5.894278,-15.021253)"
       gradientUnits="userSpaceOnUse"
       id="linearGradient1048"
       xlink:href="#linearGradient4632-0-6-4-4-4" />
  </defs>
  <metadata
     id="metadata14293">
    <rdf:RDF>
      <cc:Work
         rdf:about="">
        <dc:format>image/svg+xml</dc:format>
        <dc:type
           rdf:resource="http://purl.org/dc/dcmitype/StillImage" />
        <dc:title />
      </cc:Work>
    </rdf:RDF>
  </metadata>
  <path
     d="m 5.8018808,8.3003674 c -0.368407,0.00425 -0.425,0.1846455 -0.425,0.539665 v 1.1602666 c -1.058828,0 -0.85,-0.0017 -0.85,0.462307 0.01836,5.55316 0,5.866215 0,6.337693 0.7661475,0 22.9499992,-1.996607 22.9499992,-2.856042 v -3.481651 c 0,-0.35502 -0.295791,-0.4664461 -0.664198,-0.462307 H 14.72688 V 8.8400324 c 0,-0.3550195 -0.224604,-0.5438045 -0.593019,-0.539665 z"
     id="path3468-10"
     style="color:#000000;display:inline;overflow:visible;visibility:visible;opacity:0.5;vector-effect:none;fill:none;fill-opacity:1;stroke:#7e8087;stroke-width:1;stroke-linecap:square;stroke-linejoin:miter;stroke-miterlimit:4;stroke-dasharray:none;stroke-dashoffset:0;stroke-opacity:1;marker:none;enable-background:accumulate"
     inkscape:connector-curvature="0" />
  <path
     d="m 5.8018808,8.7252994 v 1.6999996 h -0.85 v 3.4 H 27.05188 v -3.4 h -12.75 V 8.7252994 Z"
     id="rect3409-5"
     style="color:#000000;display:inline;overflow:visible;visibility:visible;fill:url(#linearGradient5899);fill-opacity:1;fill-rule:nonzero;stroke:none;stroke-width:1;marker:none;enable-background:accumulate;stroke-miterlimit:4;stroke-dasharray:none"
     inkscape:connector-curvature="0" />
  <path
     d="m 6.2268808,9.1502994 v 1.6999996 h -0.85 v 3.4 H 26.62688 v -3.4 h -12.75 V 9.1502994 Z"
     id="rect3409"
     style="color:#000000;display:inline;overflow:visible;visibility:visible;fill:none;stroke:url(#linearGradient5903);stroke-width:1;stroke-linecap:round;stroke-linejoin:miter;stroke-miterlimit:4;stroke-dasharray:none;stroke-dashoffset:0;stroke-opacity:1;marker:none;enable-background:accumulate"
     inkscape:connector-curvature="0" />
  <rect
     style="display:inline;overflow:visible;visibility:visible;opacity:0.3;fill:url(#linearGradient5905);fill-opacity:1;fill-rule:nonzero;stroke:none;stroke-width:1;marker:none;stroke-miterlimit:4;stroke-dasharray:none"
     id="rect4173-1"
     y="25.839832"
     x="5.5019851"
     height="3.2854662"
     width="20.990477" />
  <path
     style="display:inline;overflow:visible;visibility:visible;opacity:0.3;fill:url(#radialGradient5907);fill-opacity:1;fill-rule:nonzero;stroke:none;stroke-width:1;marker:none;stroke-miterlimit:4;stroke-dasharray:none"
     id="path5058-4"
     d="m 26.492461,25.839947 c 0,0 0,3.285285 0,3.285285 0.868267,0.0062 2.099047,-0.736066 2.099047,-1.642853 0,-0.906789 -0.968921,-1.642432 -2.099047,-1.642432 z"
     inkscape:connector-curvature="0" />
  <path
     style="display:inline;overflow:visible;visibility:visible;opacity:0.3;fill:url(#radialGradient5909);fill-opacity:1;fill-rule:nonzero;stroke:none;stroke-width:1;marker:none;stroke-miterlimit:4;stroke-dasharray:none"
     id="path5018-84"
     d="m 5.5019852,25.839947 c 0,0 0,3.285285 0,3.285285 -0.8682676,0.0062 -2.0990477,-0.736066 -2.0990477,-1.642853 0,-0.906789 0.9689208,-1.642432 2.0990477,-1.642432 z"
     inkscape:connector-curvature="0" />
  <path
     d="m 4.0396948,12.550299 c -0.5873925,0.06766 -0.273666,0.767193 -0.3204925,1.160548 0.06817,0.254201 0.5080535,13.360291 0.5080535,13.810324 0,0.391153 0.1926695,0.324887 0.6808585,0.324887 7.2244897,0 15.2133677,0 22.4378577,0 0.525912,0.01215 0.414766,0.006 0.414766,-0.33105 0.03842,-0.172286 0.54394,-14.431708 0.563397,-14.656924 0,-0.23715 0.04939,-0.307785 -0.259191,-0.307785 -7.715025,0 -16.310216,0 -24.0252492,0 z"
     id="path3388"
     style="color:#000000;display:inline;overflow:visible;visibility:visible;opacity:1;vector-effect:none;fill:url(#linearGradient1048);fill-opacity:1;fill-rule:nonzero;stroke:#51b1d9;stroke-width:1;stroke-linecap:butt;stroke-linejoin:miter;stroke-miterlimit:4;stroke-dasharray:none;stroke-dashoffset:0;stroke-opacity:1;marker:none;enable-background:accumulate"
     inkscape:connector-curvature="0" />
  <path
     d="m 4.5268808,13.400299 0.531233,13.6 H 26.944908 l 0.531233,-13.6 z"
     id="path3309"
     style="color:#000000;display:inline;overflow:visible;visibility:visible;opacity:0.5;fill:none;stroke:url(#linearGradient5926);stroke-width:1;stroke-linecap:round;stroke-linejoin:miter;stroke-miterlimit:4;stroke-dasharray:none;stroke-dashoffset:0;stroke-opacity:1;marker:none;enable-background:accumulate"
     inkscape:connector-curvature="0" />
  <g
     id="g862"
     transform="matrix(0.85,0,0,0.85,-19.847181,10.959575)"
     style="stroke-width:1.17647059;stroke-miterlimit:4;stroke-dasharray:none">
    <path
       style="color:#000000;display:inline;overflow:visible;visibility:visible;opacity:0.3;vector-effect:none;fill:#ffffff;fill-opacity:1;fill-rule:nonzero;stroke:none;stroke-width:1.17647059;stroke-linecap:butt;stroke-linejoin:miter;stroke-miterlimit:4;stroke-dasharray:none;stroke-dashoffset:0;stroke-opacity:1;marker:none;enable-background:accumulate"
       d="m 43.553605,5.4456594 c -0.06446,0.0081 -0.129481,0.02983 -0.189454,0.06445 l -3.224609,1.861331 h 2 l 1.292969,-0.746094 0.43164,0.746094 h 1.152344 l -0.96875,-1.677734 c -0.103875,-0.179918 -0.30077,-0.2722761 -0.49414,-0.248047 z m -3.867188,2.925781 c -0.276999,0 -0.5,0.222999 -0.5,0.5 v 8.0000006 c 0,0.277 0.223001,0.5 0.5,0.5 h 8 c 0.277,0 0.5,-0.223 0.5,-0.5 V 8.8714404 c 0,-0.277001 -0.223,-0.5 -0.5,-0.5 z m -1.433594,0.089844 -1.816406,1.048828 c -0.239888,0.138499 -0.320141,0.443704 -0.18164,0.6835936 l 1.93164,3.345703 v -2 l -0.816406,-1.414063 0.816406,-0.4707026 v -0.783203 c 0,-0.142269 0.02743,-0.278664 0.06641,-0.410156 z m 1.933594,0.910156 h 7 v 6.0000006 h -7 z"
       id="path887-7-9"
       inkscape:connector-curvature="0" />
    <path
       style="color:#000000;display:inline;overflow:visible;visibility:visible;opacity:0.6;vector-effect:none;fill:#145f7e;fill-opacity:0.97111912;fill-rule:nonzero;stroke:none;stroke-width:1.17647059;stroke-linecap:butt;stroke-linejoin:miter;stroke-miterlimit:4;stroke-dasharray:none;stroke-dashoffset:0;stroke-opacity:0.49803922;marker:none;enable-background:accumulate"
       d="m 43.553605,4.4456593 c -0.06446,0.0081 -0.129481,0.02983 -0.189454,0.06445 l -3.224609,1.8613311 h 2 l 1.292969,-0.746094 0.43164,0.746094 h 1.152344 l -0.96875,-1.6777341 c -0.103875,-0.179918 -0.30077,-0.272276 -0.49414,-0.248047 z m -3.867188,2.9257811 c -0.276999,0 -0.5,0.222999 -0.5,0.5 v 8.0000006 c 0,0.277 0.223001,0.5 0.5,0.5 h 8 c 0.277,0 0.5,-0.223 0.5,-0.5 V 7.8714404 c 0,-0.277001 -0.223,-0.5 -0.5,-0.5 z m -1.433594,0.089844 -1.816406,1.048828 c -0.239888,0.138499 -0.320141,0.443704 -0.18164,0.683594 l 1.93164,3.3457026 v -2 l -0.816406,-1.4140626 0.816406,-0.470703 v -0.783203 c 0,-0.142269 0.02743,-0.278664 0.06641,-0.410156 z m 1.933594,0.910156 h 7 V 14.37144 h -7 z"
       id="path887-7"
       inkscape:connector-curvature="0" />
  </g>
</svg>
