<?xml version="1.0" encoding="UTF-8" standalone="no"?>
<svg
   xmlns:dc="http://purl.org/dc/elements/1.1/"
   xmlns:cc="http://creativecommons.org/ns#"
   xmlns:rdf="http://www.w3.org/1999/02/22-rdf-syntax-ns#"
   xmlns:svg="http://www.w3.org/2000/svg"
   xmlns="http://www.w3.org/2000/svg"
   xmlns:xlink="http://www.w3.org/1999/xlink"
   xmlns:sodipodi="http://sodipodi.sourceforge.net/DTD/sodipodi-0.dtd"
   xmlns:inkscape="http://www.inkscape.org/namespaces/inkscape"
   width="32"
   height="32"
   id="svg3495"
   version="1.1"
   sodipodi:docname="format-text-underline.svg"
   inkscape:version="0.92.4 (5da689c313, 2019-01-14)">
  <sodipodi:namedview
     pagecolor="#ffffff"
     bordercolor="#666666"
     borderopacity="1"
     objecttolerance="10"
     gridtolerance="10"
     guidetolerance="10"
     inkscape:pageopacity="0"
     inkscape:pageshadow="2"
     inkscape:window-width="1920"
     inkscape:window-height="1017"
     id="namedview54"
     showgrid="false"
     inkscape:zoom="9.8333333"
     inkscape:cx="41.764519"
     inkscape:cy="11.904656"
     inkscape:window-x="1912"
     inkscape:window-y="-8"
     inkscape:window-maximized="1"
     inkscape:current-layer="svg3495" />
  <defs
     id="defs3497">
    <clipPath
       clipPathUnits="userSpaceOnUse"
       id="clipPath3669">
      <path
         d="M 0,96 H 96 V 0 H 0 Z"
         id="path3671"
         inkscape:connector-curvature="0" />
    </clipPath>
    <linearGradient
       xlink:href="#linearGradient3821"
       id="linearGradient3793"
       x1="12"
       y1="22"
       x2="12"
       y2="-2"
       gradientUnits="userSpaceOnUse"
       gradientTransform="translate(0,26)" />
    <linearGradient
       id="linearGradient3821">
      <stop
         style="stop-color:#555555;stop-opacity:1;"
         offset="0"
         id="stop3823" />
      <stop
         style="stop-color:#666666;stop-opacity:1;"
         offset="1"
         id="stop3825" />
    </linearGradient>
    <linearGradient
       y2="-2"
       x2="12"
       y1="22"
       x1="12"
       gradientTransform="translate(31.883514,24.756453)"
       gradientUnits="userSpaceOnUse"
       id="linearGradient3011"
       xlink:href="#linearGradient3821" />
    <linearGradient
       xlink:href="#linearGradient3821"
       id="linearGradient3800"
       x1="12"
       y1="22"
       x2="12"
       y2="0"
       gradientUnits="userSpaceOnUse"
       gradientTransform="matrix(1.4,0,0,1.4,2.5,2.6)" />
    <linearGradient
       xlink:href="#linearGradient3821"
       id="linearGradient3810"
       gradientUnits="userSpaceOnUse"
       x1="12"
       y1="22"
       x2="12"
       y2="0" />
    <linearGradient
       xlink:href="#linearGradient3821"
       id="linearGradient3824"
       x1="12"
       y1="22"
       x2="12"
       y2="0"
       gradientUnits="userSpaceOnUse" />
    <linearGradient
       xlink:href="#linearGradient3821"
       id="linearGradient3843"
       gradientUnits="userSpaceOnUse"
       x1="12"
       y1="22"
       x2="12"
       y2="0" />
    <linearGradient
       xlink:href="#linearGradient3821"
       id="linearGradient3854"
       gradientUnits="userSpaceOnUse"
       x1="12"
       y1="22"
       x2="12"
       y2="0"
       gradientTransform="matrix(1.4,0,0,1.4,2.5,1.2)" />
    <radialGradient
       xlink:href="#linearGradient3952"
       id="radialGradient3960"
       gradientUnits="userSpaceOnUse"
       gradientTransform="matrix(1,0,0,0.75,-21,12.375)"
       cx="40"
       cy="43.5"
       fx="40"
       fy="43.5"
       r="2" />
    <linearGradient
       id="linearGradient3952">
      <stop
         style="stop-color:#000000;stop-opacity:1;"
         offset="0"
         id="stop3954" />
      <stop
         style="stop-color:#000000;stop-opacity:0;"
         offset="1"
         id="stop3956" />
    </linearGradient>
    <radialGradient
       xlink:href="#linearGradient3944"
       id="radialGradient3957"
       gradientUnits="userSpaceOnUse"
       gradientTransform="matrix(1,0,0,0.75,-4,12.375)"
       cx="9"
       cy="43.5"
       fx="9"
       fy="43.5"
       r="2" />
    <linearGradient
       id="linearGradient3944">
      <stop
         style="stop-color:#000000;stop-opacity:1;"
         offset="0"
         id="stop3946" />
      <stop
         style="stop-color:#000000;stop-opacity:0;"
         offset="1"
         id="stop3948" />
    </linearGradient>
    <linearGradient
       xlink:href="#linearGradient3960"
       id="linearGradient3954"
       gradientUnits="userSpaceOnUse"
       gradientTransform="translate(-8,1.5)"
       x1="25"
       y1="45"
       x2="25"
       y2="42" />
    <linearGradient
       id="linearGradient3960">
      <stop
         style="stop-color:#000000;stop-opacity:0;"
         offset="0"
         id="stop3962" />
      <stop
         id="stop3970"
         offset="0.5"
         style="stop-color:#000000;stop-opacity:1;" />
      <stop
         style="stop-color:#000000;stop-opacity:0;"
         offset="1"
         id="stop3964" />
    </linearGradient>
    <linearGradient
       y2="42"
       x2="25"
       y1="45"
       x1="25"
       gradientTransform="translate(-8,1.5)"
       gradientUnits="userSpaceOnUse"
       id="linearGradient3994"
       xlink:href="#linearGradient3960" />
    <linearGradient
       xlink:href="#linearGradient3960"
       id="linearGradient4038"
       gradientUnits="userSpaceOnUse"
       gradientTransform="translate(-9,-1)"
       x1="25"
       y1="45"
       x2="25"
       y2="42" />
    <radialGradient
       xlink:href="#linearGradient3944"
       id="radialGradient4041"
       gradientUnits="userSpaceOnUse"
       gradientTransform="matrix(1,0,0,0.75,-4,9.875)"
       cx="9"
       cy="43.5"
       fx="9"
       fy="43.5"
       r="2" />
    <radialGradient
       xlink:href="#linearGradient3952"
       id="radialGradient4044"
       gradientUnits="userSpaceOnUse"
       gradientTransform="matrix(1,0,0,0.75,-22,9.875)"
       cx="40"
       cy="43.5"
       fx="40"
       fy="43.5"
       r="2" />
    <radialGradient
       xlink:href="#linearGradient3952"
       id="radialGradient4051"
       gradientUnits="userSpaceOnUse"
       gradientTransform="matrix(1.4,0,0,1.05,-28.3,-19.275)"
       cx="40"
       cy="43.5"
       fx="40"
       fy="43.5"
       r="2" />
    <radialGradient
       xlink:href="#linearGradient3944"
       id="radialGradient4053"
       gradientUnits="userSpaceOnUse"
       gradientTransform="matrix(1.4,0,0,1.05,-3.1,-19.275)"
       cx="9"
       cy="43.5"
       fx="9"
       fy="43.5"
       r="2" />
    <linearGradient
       xlink:href="#linearGradient3960"
       id="linearGradient4055"
       gradientUnits="userSpaceOnUse"
       gradientTransform="matrix(1.4,0,0,1.4,-10.1,-34.5)"
       x1="25"
       y1="45"
       x2="25"
       y2="42" />
    <radialGradient
       xlink:href="#linearGradient3952"
       id="radialGradient4970"
       gradientUnits="userSpaceOnUse"
       gradientTransform="matrix(1.4,0,0,1.05,-26.9,-15.775)"
       cx="40"
       cy="43.5"
       fx="40"
       fy="43.5"
       r="2" />
    <radialGradient
       xlink:href="#linearGradient3944"
       id="radialGradient4972"
       gradientUnits="userSpaceOnUse"
       gradientTransform="matrix(1.4,0,0,1.05,-7.3,-15.775)"
       cx="9"
       cy="43.5"
       fx="9"
       fy="43.5"
       r="2" />
    <linearGradient
       xlink:href="#linearGradient3960"
       id="linearGradient4974"
       gradientUnits="userSpaceOnUse"
       gradientTransform="matrix(1.4,0,0,1.4,-14.3,-31)"
       x1="25"
       y1="45"
       x2="25"
       y2="42" />
  </defs>
  <metadata
     id="metadata3500">
    <rdf:RDF>
      <cc:Work
         rdf:about="">
        <dc:format>image/svg+xml</dc:format>
        <dc:type
           rdf:resource="http://purl.org/dc/dcmitype/StillImage" />
        <dc:title></dc:title>
      </cc:Work>
    </rdf:RDF>
  </metadata>
  <path
     style="opacity:0.2;fill:url(#radialGradient4970);fill-opacity:1;stroke:none;stroke-width:1.39999998"
     d="M 29.1,27.8 V 32 h 0.7 c 1.1634,0 2.1,-0.9366 2.1,-2.1 0,-1.1634 -0.9366,-2.1 -2.1,-2.1 z"
     id="path4964"
     inkscape:connector-curvature="0" />
  <path
     style="opacity:0.2;fill:url(#radialGradient4972);fill-opacity:1;stroke:none;stroke-width:1.39999998"
     d="M 4.46875,27.8 C 3.3780625,27.8 2.5,28.678062 2.5,29.76875 v 0.2625 C 2.5,31.121938 3.3780625,32 4.46875,32 H 5.3 v -4.2 z"
     id="path4966"
     inkscape:connector-curvature="0" />
  <path
     style="opacity:0.2;fill:url(#linearGradient4974);fill-opacity:1;stroke:none;stroke-width:1.39999998"
     d="M 5.3,27.8 H 29.1 V 32 H 5.3 Z"
     id="path4968"
     inkscape:connector-curvature="0" />
  <path
     id="path11643-3-2"
     d="M 8.8000001,3.3 V 4 8.2 8.9 h 0.7 H 21.4 c 0.114884,0 0.545619,0.186754 0.875,0.525 0.329381,0.338246 0.525,0.815644 0.525,0.875 v 1.4 H 13 c -2.125384,0 -4.0275499,0.885272 -5.2499999,2.275 l -0.04375,0.04375 C 6.5363601,15.372665 5.9853255,17.045109 6,18.7 6.013986,20.379608 6.6023741,22.079634 7.7937501,23.425 9.0052791,24.793125 10.892125,25.7 13,25.7 h 10.5 2.1 2.1 0.7 V 25 c -0.05095,-1.514533 0,-2.659765 0,-4.2 V 10.3 c 0,-3.808967 -3.092274,-7 -7,-7 H 9.5000001 Z M 13,17.3 h 9.8 v 2.8 H 13 c -0.706753,0 -0.760012,-0.07194 -1.00625,-0.35 C 11.786458,19.515923 11.603361,19.078676 11.6,18.7 11.5971,18.294745 11.786272,17.836124 11.95,17.65 12.170805,17.398991 12.241257,17.3 13,17.3 Z"
     style="color:#000000;font-style:normal;font-variant:normal;font-weight:normal;font-stretch:normal;line-height:normal;font-family:Sans;-inkscape-font-specification:Sans;text-indent:0;text-align:start;text-decoration:none;text-decoration-line:none;letter-spacing:normal;word-spacing:normal;text-transform:none;writing-mode:lr-tb;direction:ltr;baseline-shift:baseline;text-anchor:start;display:inline;overflow:visible;visibility:visible;fill:url(#linearGradient3800);fill-opacity:1;stroke:none;stroke-width:2.79999995;marker:none;enable-background:accumulate"
     inkscape:connector-curvature="0" />
  <path
     style="color:#000000;font-style:normal;font-variant:normal;font-weight:normal;font-stretch:normal;line-height:normal;font-family:Sans;-inkscape-font-specification:Sans;text-indent:0;text-align:start;text-decoration:none;text-decoration-line:none;letter-spacing:normal;word-spacing:normal;text-transform:none;writing-mode:lr-tb;direction:ltr;baseline-shift:baseline;text-anchor:start;display:inline;overflow:visible;visibility:visible;opacity:0.61000001;fill:none;stroke:#000000;stroke-width:1;stroke-miterlimit:4;stroke-dasharray:none;stroke-opacity:1;marker:none;enable-background:accumulate"
     d="M 8.8000001,3.3 V 4 8.2 8.9 h 0.7 H 21.4 c 0.114884,0 0.545619,0.186754 0.875,0.525 0.329381,0.338246 0.525,0.815644 0.525,0.875 v 1.4 H 13 c -2.125384,0 -4.0275499,0.885272 -5.2499999,2.275 l -0.04375,0.04375 C 6.5363601,15.372665 5.9853255,17.045109 6,18.7 6.013986,20.379608 6.6023741,22.079634 7.7937501,23.425 9.0052791,24.793125 10.892125,25.7 13,25.7 h 10.5 2.1 2.1 0.7 V 25 c -0.05095,-1.514533 0,-2.659765 0,-4.2 V 10.3 c 0,-3.808967 -3.092274,-7 -7,-7 H 9.5000001 Z M 13,17.3 h 9.8 v 2.8 H 13 c -0.706753,0 -0.760012,-0.07194 -1.00625,-0.35 C 11.786458,19.515923 11.603361,19.078676 11.6,18.7 11.5971,18.294745 11.786272,17.836124 11.95,17.65 12.170805,17.398991 12.241257,17.3 13,17.3 Z"
     id="path3791"
     inkscape:connector-curvature="0" />
  <path
     id="path3802"
     d="M 9.5000001,4 V 5.4 H 21.4 c 3.526648,0 6.3,2.869891 6.3,6.3 V 10.3 C 27.7,6.869891 24.926648,4 21.4,4 Z M 13,12.4 c -1.931007,0 -3.6430239,0.826217 -4.7249999,2.05625 h -0.04375 L 8.1875001,14.5 c -1.02683,1.21183 -1.50059,2.723844 -1.4875,4.2 0.0019,0.2336 0.01716,0.467851 0.04375,0.7 0.121139,-1.24272 0.580984,-2.481793 1.44375,-3.5 l 0.04375,-0.04375 h 0.04375 C 9.3569761,14.626217 11.068993,13.8 13,13.8 h 9.8 0.7 v -0.7 -0.7 h -0.7 z m -2.0125,7 c -0.05867,0.21737 -0.08936,0.440038 -0.0875,0.7 0.0053,0.599509 0.210252,1.126429 0.56875,1.53125 0.119859,0.135352 0.317083,0.319851 0.6125,0.4375 C 12.376667,22.186399 12.622871,22.2 13,22.2 h 9.8 0.7 V 21.5 20.8 H 22.8 13 c -0.377129,0 -0.623333,-0.0136 -0.91875,-0.13125 -0.295417,-0.117649 -0.492641,-0.302148 -0.6125,-0.4375 C 11.258923,19.994311 11.08288,19.710667 10.9875,19.4 Z"
     style="color:#000000;font-style:normal;font-variant:normal;font-weight:normal;font-stretch:normal;line-height:normal;font-family:Sans;-inkscape-font-specification:Sans;text-indent:0;text-align:start;text-decoration:none;text-decoration-line:none;letter-spacing:normal;word-spacing:normal;text-transform:none;writing-mode:lr-tb;direction:ltr;baseline-shift:baseline;text-anchor:start;display:inline;overflow:visible;visibility:visible;opacity:0.2;fill:#ffffff;fill-opacity:1;stroke:none;stroke-width:1;stroke-miterlimit:4;stroke-dasharray:none;marker:none;enable-background:accumulate"
     inkscape:connector-curvature="0" />
  <path
     style="fill:url(#linearGradient3854);fill-opacity:1;stroke:none;stroke-width:1.39999998"
     d="m 4.6,27.1 v 2.8 h 26.6 v -2.8 z"
     id="rect3816"
     inkscape:connector-curvature="0" />
  <path
     style="opacity:0.61000001;fill:none;stroke:#000000;stroke-width:1;stroke-miterlimit:4;stroke-dasharray:none;stroke-opacity:1"
     d="m 4.6,27.1 v 2.8 h 26.6 v -2.8 z"
     id="path3833"
     inkscape:connector-curvature="0" />
  <path
     id="path3835"
     d="m 5.3,27.8 v 1.4 h 25.2 v -1.4 z"
     style="opacity:0.2;fill:#ffffff;fill-opacity:1;stroke:none;stroke-width:1.39999998"
     inkscape:connector-curvature="0" />
  <path
     id="rect3940"
     d="m 27.7,24.3 v 4.2 h 0.7 c 1.1634,0 2.1,-0.9366 2.1,-2.1 0,-1.1634 -0.9366,-2.1 -2.1,-2.1 z"
     style="opacity:0.2;fill:url(#radialGradient4051);fill-opacity:1;stroke:none;stroke-width:1.39999998"
     inkscape:connector-curvature="0" />
  <path
     id="rect3942"
     d="m 8.6687501,24.3 c -1.090688,0 -1.96875,0.878062 -1.96875,1.96875 v 0.2625 c 0,1.090688 0.878062,1.96875 1.96875,1.96875 h 0.83125 v -4.2 z"
     style="opacity:0.2;fill:url(#radialGradient4053);fill-opacity:1;stroke:none;stroke-width:1.39999998"
     inkscape:connector-curvature="0" />
  <path
     id="rect3938"
     d="M 9.5000001,24.3 H 27.7 v 4.2 H 9.5000001 Z"
     style="opacity:0.2;fill:url(#linearGradient4055);fill-opacity:1;stroke:none;stroke-width:1.39999998"
     inkscape:connector-curvature="0" />
</svg>
