<?xml version="1.0" encoding="UTF-8" standalone="no"?>
<svg
   xmlns:dc="http://purl.org/dc/elements/1.1/"
   xmlns:cc="http://creativecommons.org/ns#"
   xmlns:rdf="http://www.w3.org/1999/02/22-rdf-syntax-ns#"
   xmlns:svg="http://www.w3.org/2000/svg"
   xmlns="http://www.w3.org/2000/svg"
   xmlns:xlink="http://www.w3.org/1999/xlink"
   xmlns:sodipodi="http://sodipodi.sourceforge.net/DTD/sodipodi-0.dtd"
   xmlns:inkscape="http://www.inkscape.org/namespaces/inkscape"
   width="32"
   height="32"
   id="svg3495"
   version="1.1"
   sodipodi:docname="format-text-underline.svg"
   inkscape:version="0.92.4 (5da689c313, 2019-01-14)">
  <sodipodi:namedview
     pagecolor="#ffffff"
     bordercolor="#666666"
     borderopacity="1"
     objecttolerance="10"
     gridtolerance="10"
     guidetolerance="10"
     inkscape:pageopacity="0"
     inkscape:pageshadow="2"
     inkscape:window-width="2880"
     inkscape:window-height="1706"
     id="namedview54"
     showgrid="false"
     inkscape:zoom="9.8333333"
     inkscape:cx="19.442485"
     inkscape:cy="11.904656"
     inkscape:window-x="-11"
     inkscape:window-y="-11"
     inkscape:window-maximized="1"
     inkscape:current-layer="svg3495" />
  <defs
     id="defs3497">
    <clipPath
       clipPathUnits="userSpaceOnUse"
       id="clipPath3669">
      <path
         d="M 0,96 H 96 V 0 H 0 Z"
         id="path3671"
         inkscape:connector-curvature="0" />
    </clipPath>
    <linearGradient
       xlink:href="#linearGradient3821"
       id="linearGradient3793"
       x1="12"
       y1="22"
       x2="12"
       y2="-2"
       gradientUnits="userSpaceOnUse"
       gradientTransform="translate(0,26)" />
    <linearGradient
       id="linearGradient3821">
      <stop
         style="stop-color:#555555;stop-opacity:1;"
         offset="0"
         id="stop3823" />
      <stop
         style="stop-color:#666666;stop-opacity:1;"
         offset="1"
         id="stop3825" />
    </linearGradient>
    <linearGradient
       y2="-2"
       x2="12"
       y1="22"
       x1="12"
       gradientTransform="translate(31.883514,24.756453)"
       gradientUnits="userSpaceOnUse"
       id="linearGradient3011"
       xlink:href="#linearGradient3821" />
    <linearGradient
       xlink:href="#linearGradient3821"
       id="linearGradient3800"
       x1="12"
       y1="22"
       x2="12"
       y2="0"
       gradientUnits="userSpaceOnUse"
       gradientTransform="matrix(1.19,0,0,1.19,4.705,4.82)" />
    <linearGradient
       xlink:href="#linearGradient3821"
       id="linearGradient3810"
       gradientUnits="userSpaceOnUse"
       x1="12"
       y1="22"
       x2="12"
       y2="0" />
    <linearGradient
       xlink:href="#linearGradient3821"
       id="linearGradient3824"
       x1="12"
       y1="22"
       x2="12"
       y2="0"
       gradientUnits="userSpaceOnUse" />
    <linearGradient
       xlink:href="#linearGradient3821"
       id="linearGradient3843"
       gradientUnits="userSpaceOnUse"
       x1="12"
       y1="22"
       x2="12"
       y2="0" />
    <linearGradient
       xlink:href="#linearGradient3821"
       id="linearGradient3854"
       gradientUnits="userSpaceOnUse"
       x1="12"
       y1="22"
       x2="12"
       y2="0"
       gradientTransform="matrix(1.19,0,0,1.19,4.705,3.63)" />
    <radialGradient
       xlink:href="#linearGradient3952"
       id="radialGradient3960"
       gradientUnits="userSpaceOnUse"
       gradientTransform="matrix(1,0,0,0.75,-21,12.375)"
       cx="40"
       cy="43.5"
       fx="40"
       fy="43.5"
       r="2" />
    <linearGradient
       id="linearGradient3952">
      <stop
         style="stop-color:#000000;stop-opacity:1;"
         offset="0"
         id="stop3954" />
      <stop
         style="stop-color:#000000;stop-opacity:0;"
         offset="1"
         id="stop3956" />
    </linearGradient>
    <radialGradient
       xlink:href="#linearGradient3944"
       id="radialGradient3957"
       gradientUnits="userSpaceOnUse"
       gradientTransform="matrix(1,0,0,0.75,-4,12.375)"
       cx="9"
       cy="43.5"
       fx="9"
       fy="43.5"
       r="2" />
    <linearGradient
       id="linearGradient3944">
      <stop
         style="stop-color:#000000;stop-opacity:1;"
         offset="0"
         id="stop3946" />
      <stop
         style="stop-color:#000000;stop-opacity:0;"
         offset="1"
         id="stop3948" />
    </linearGradient>
    <linearGradient
       xlink:href="#linearGradient3960"
       id="linearGradient3954"
       gradientUnits="userSpaceOnUse"
       gradientTransform="translate(-8,1.5)"
       x1="25"
       y1="45"
       x2="25"
       y2="42" />
    <linearGradient
       id="linearGradient3960">
      <stop
         style="stop-color:#000000;stop-opacity:0;"
         offset="0"
         id="stop3962" />
      <stop
         id="stop3970"
         offset="0.5"
         style="stop-color:#000000;stop-opacity:1;" />
      <stop
         style="stop-color:#000000;stop-opacity:0;"
         offset="1"
         id="stop3964" />
    </linearGradient>
    <linearGradient
       y2="42"
       x2="25"
       y1="45"
       x1="25"
       gradientTransform="translate(-8,1.5)"
       gradientUnits="userSpaceOnUse"
       id="linearGradient3994"
       xlink:href="#linearGradient3960" />
    <linearGradient
       xlink:href="#linearGradient3960"
       id="linearGradient4038"
       gradientUnits="userSpaceOnUse"
       gradientTransform="translate(-9,-1)"
       x1="25"
       y1="45"
       x2="25"
       y2="42" />
    <radialGradient
       xlink:href="#linearGradient3944"
       id="radialGradient4041"
       gradientUnits="userSpaceOnUse"
       gradientTransform="matrix(1,0,0,0.75,-4,9.875)"
       cx="9"
       cy="43.5"
       fx="9"
       fy="43.5"
       r="2" />
    <radialGradient
       xlink:href="#linearGradient3952"
       id="radialGradient4044"
       gradientUnits="userSpaceOnUse"
       gradientTransform="matrix(1,0,0,0.75,-22,9.875)"
       cx="40"
       cy="43.5"
       fx="40"
       fy="43.5"
       r="2" />
    <radialGradient
       xlink:href="#linearGradient3952"
       id="radialGradient4051"
       gradientUnits="userSpaceOnUse"
       gradientTransform="matrix(1.19,0,0,0.8925,-21.475,-13.77375)"
       cx="40"
       cy="43.5"
       fx="40"
       fy="43.5"
       r="2" />
    <radialGradient
       xlink:href="#linearGradient3944"
       id="radialGradient4053"
       gradientUnits="userSpaceOnUse"
       gradientTransform="matrix(1.19,0,0,0.8925,-0.055,-13.77375)"
       cx="9"
       cy="43.5"
       fx="9"
       fy="43.5"
       r="2" />
    <linearGradient
       xlink:href="#linearGradient3960"
       id="linearGradient4055"
       gradientUnits="userSpaceOnUse"
       gradientTransform="matrix(1.19,0,0,1.19,-6.005,-26.715)"
       x1="25"
       y1="45"
       x2="25"
       y2="42" />
    <radialGradient
       xlink:href="#linearGradient3952"
       id="radialGradient4970"
       gradientUnits="userSpaceOnUse"
       gradientTransform="matrix(1.19,0,0,0.8925,-20.285,-10.79875)"
       cx="40"
       cy="43.5"
       fx="40"
       fy="43.5"
       r="2" />
    <radialGradient
       xlink:href="#linearGradient3944"
       id="radialGradient4972"
       gradientUnits="userSpaceOnUse"
       gradientTransform="matrix(1.19,0,0,0.8925,-3.625,-10.79875)"
       cx="9"
       cy="43.5"
       fx="9"
       fy="43.5"
       r="2" />
    <linearGradient
       xlink:href="#linearGradient3960"
       id="linearGradient4974"
       gradientUnits="userSpaceOnUse"
       gradientTransform="matrix(1.19,0,0,1.19,-9.575,-23.74)"
       x1="25"
       y1="45"
       x2="25"
       y2="42" />
  </defs>
  <metadata
     id="metadata3500">
    <rdf:RDF>
      <cc:Work
         rdf:about="">
        <dc:format>image/svg+xml</dc:format>
        <dc:type
           rdf:resource="http://purl.org/dc/dcmitype/StillImage" />
        <dc:title />
      </cc:Work>
    </rdf:RDF>
  </metadata>
  <path
     style="opacity:0.2;fill:url(#radialGradient4970);fill-opacity:1;stroke:none;stroke-width:1;stroke-miterlimit:4;stroke-dasharray:none"
     d="m 27.315,26.24 v 3.57 h 0.595 c 0.98889,0 1.785,-0.79611 1.785,-1.785 0,-0.98889 -0.79611,-1.785 -1.785,-1.785 z"
     id="path4964"
     inkscape:connector-curvature="0" />
  <path
     style="opacity:0.2;fill:url(#radialGradient4972);fill-opacity:1;stroke:none;stroke-width:1;stroke-miterlimit:4;stroke-dasharray:none"
     d="M 6.3784375,26.24 C 5.4513531,26.24 4.705,26.986353 4.705,27.913437 v 0.223125 C 4.705,29.063647 5.4513531,29.81 6.3784375,29.81 H 7.085 v -3.57 z"
     id="path4966"
     inkscape:connector-curvature="0" />
  <path
     style="opacity:0.2;fill:url(#linearGradient4974);fill-opacity:1;stroke:none;stroke-width:1;stroke-miterlimit:4;stroke-dasharray:none"
     d="m 7.085,26.24 h 20.23 v 3.57 H 7.085 Z"
     id="path4968"
     inkscape:connector-curvature="0" />
  <path
     id="path11643-3-2"
     d="m 10.06,5.415 v 0.595 3.57 0.595 h 0.595 10.115 c 0.09765,0 0.463776,0.158741 0.74375,0.44625 0.279974,0.287509 0.44625,0.693297 0.44625,0.74375 v 1.19 h -8.33 c -1.806576,0 -3.423417,0.752481 -4.4624999,1.93375 l -0.037187,0.03719 C 8.1359061,15.676765 7.6675267,17.098343 7.68,18.505 7.6918881,19.932667 8.192018,21.377689 9.2046876,22.52125 10.234487,23.684156 11.838306,24.455 13.63,24.455 h 8.925 1.785 1.785 0.595 V 23.86 c -0.04331,-1.287353 0,-2.2608 0,-3.57 v -8.925 c 0,-3.2376219 -2.628433,-5.95 -5.95,-5.95 H 10.655 Z m 3.57,11.9 h 8.33 v 2.38 h -8.33 c -0.60074,0 -0.64601,-0.06115 -0.855312,-0.2975 C 12.598489,19.198535 12.442857,18.826875 12.44,18.505 12.4375,18.160533 12.598331,17.770705 12.7375,17.6125 12.925184,17.399142 12.985068,17.315 13.63,17.315 Z"
     style="color:#000000;font-style:normal;font-variant:normal;font-weight:normal;font-stretch:normal;line-height:normal;font-family:Sans;-inkscape-font-specification:Sans;text-indent:0;text-align:start;text-decoration:none;text-decoration-line:none;letter-spacing:normal;word-spacing:normal;text-transform:none;writing-mode:lr-tb;direction:ltr;baseline-shift:baseline;text-anchor:start;display:inline;overflow:visible;visibility:visible;fill:url(#linearGradient3800);fill-opacity:1;stroke:none;stroke-width:1;marker:none;enable-background:accumulate;stroke-miterlimit:4;stroke-dasharray:none"
     inkscape:connector-curvature="0" />
  <path
     style="color:#000000;font-style:normal;font-variant:normal;font-weight:normal;font-stretch:normal;line-height:normal;font-family:Sans;-inkscape-font-specification:Sans;text-indent:0;text-align:start;text-decoration:none;text-decoration-line:none;letter-spacing:normal;word-spacing:normal;text-transform:none;writing-mode:lr-tb;direction:ltr;baseline-shift:baseline;text-anchor:start;display:inline;overflow:visible;visibility:visible;opacity:0.61000001;fill:none;stroke:#000000;stroke-width:1;stroke-miterlimit:4;stroke-dasharray:none;stroke-opacity:1;marker:none;enable-background:accumulate"
     d="m 10.06,5.415 v 0.595 3.57 0.595 h 0.595 10.115 c 0.09765,0 0.463776,0.158741 0.74375,0.44625 0.279974,0.287509 0.44625,0.693297 0.44625,0.74375 v 1.19 h -8.33 c -1.806576,0 -3.423417,0.752481 -4.4624999,1.93375 l -0.037187,0.03719 C 8.1359061,15.676765 7.6675267,17.098343 7.68,18.505 7.6918881,19.932667 8.192018,21.377689 9.2046876,22.52125 10.234487,23.684156 11.838306,24.455 13.63,24.455 h 8.925 1.785 1.785 0.595 V 23.86 c -0.04331,-1.287353 0,-2.2608 0,-3.57 v -8.925 c 0,-3.2376219 -2.628433,-5.95 -5.95,-5.95 H 10.655 Z m 3.57,11.9 h 8.33 v 2.38 h -8.33 c -0.60074,0 -0.64601,-0.06115 -0.855312,-0.2975 C 12.598489,19.198535 12.442857,18.826875 12.44,18.505 12.4375,18.160533 12.598331,17.770705 12.7375,17.6125 12.925184,17.399142 12.985068,17.315 13.63,17.315 Z"
     id="path3791"
     inkscape:connector-curvature="0" />
  <path
     id="path3802"
     d="M 10.655,6.01 V 7.2 H 20.77 c 2.997651,0 5.355,2.4394074 5.355,5.355 v -1.19 C 26.125,8.4494074 23.767651,6.01 20.77,6.01 Z m 2.975,7.14 c -1.641356,0 -3.09657,0.702284 -4.0162499,1.747813 H 9.5765626 L 9.5393751,14.935 c -0.8728055,1.030056 -1.2755015,2.315267 -1.264375,3.57 0.00162,0.19856 0.014586,0.397673 0.037187,0.595 0.1029681,-1.056312 0.4938364,-2.109524 1.2271875,-2.975 l 0.037187,-0.03719 h 0.037187 C 10.53343,15.042284 11.988644,14.34 13.63,14.34 h 8.33 0.595 V 13.745 13.15 H 21.96 Z m -1.710625,5.95 c -0.04987,0.184764 -0.07596,0.374032 -0.07437,0.595 0.0045,0.509583 0.178714,0.957465 0.483438,1.301562 0.10188,0.11505 0.26952,0.271874 0.520625,0.371875 C 13.100167,21.468439 13.30944,21.48 13.63,21.48 h 8.33 0.595 V 20.885 20.29 H 21.96 13.63 c -0.32056,0 -0.529833,-0.01156 -0.780937,-0.111563 C 12.597958,20.078436 12.430318,19.921612 12.328438,19.806562 12.150085,19.605164 12.000448,19.364067 11.919375,19.1 Z"
     style="color:#000000;font-style:normal;font-variant:normal;font-weight:normal;font-stretch:normal;line-height:normal;font-family:Sans;-inkscape-font-specification:Sans;text-indent:0;text-align:start;text-decoration:none;text-decoration-line:none;letter-spacing:normal;word-spacing:normal;text-transform:none;writing-mode:lr-tb;direction:ltr;baseline-shift:baseline;text-anchor:start;display:inline;overflow:visible;visibility:visible;opacity:0.2;fill:#ffffff;fill-opacity:1;stroke:none;stroke-width:1;stroke-miterlimit:4;stroke-dasharray:none;marker:none;enable-background:accumulate"
     inkscape:connector-curvature="0" />
  <path
     style="fill:url(#linearGradient3854);fill-opacity:1;stroke:none;stroke-width:1;stroke-miterlimit:4;stroke-dasharray:none"
     d="m 6.49,25.645 v 2.38 H 29.1 v -2.38 z"
     id="rect3816"
     inkscape:connector-curvature="0" />
  <path
     style="opacity:0.61000001;fill:none;stroke:#000000;stroke-width:1;stroke-miterlimit:4;stroke-dasharray:none;stroke-opacity:1"
     d="m 6.49,25.645 v 2.38 H 29.1 v -2.38 z"
     id="path3833"
     inkscape:connector-curvature="0" />
  <path
     id="path3835"
     d="m 7.085,26.24 v 1.19 h 21.42 v -1.19 z"
     style="opacity:0.2;fill:#ffffff;fill-opacity:1;stroke:none;stroke-width:1;stroke-miterlimit:4;stroke-dasharray:none"
     inkscape:connector-curvature="0" />
  <path
     id="rect3940"
     d="m 26.125,23.265 v 3.57 h 0.595 c 0.98889,0 1.785,-0.79611 1.785,-1.785 0,-0.98889 -0.79611,-1.785 -1.785,-1.785 z"
     style="opacity:0.2;fill:url(#radialGradient4051);fill-opacity:1;stroke:none;stroke-width:1;stroke-miterlimit:4;stroke-dasharray:none"
     inkscape:connector-curvature="0" />
  <path
     id="rect3942"
     d="m 9.9484376,23.265 c -0.9270848,0 -1.6734375,0.746353 -1.6734375,1.673437 v 0.223125 c 0,0.927085 0.7463527,1.673438 1.6734375,1.673438 H 10.655 v -3.57 z"
     style="opacity:0.2;fill:url(#radialGradient4053);fill-opacity:1;stroke:none;stroke-width:1;stroke-miterlimit:4;stroke-dasharray:none"
     inkscape:connector-curvature="0" />
  <path
     id="rect3938"
     d="m 10.655,23.265 h 15.47 v 3.57 h -15.47 z"
     style="opacity:0.2;fill:url(#linearGradient4055);fill-opacity:1;stroke:none;stroke-width:1;stroke-miterlimit:4;stroke-dasharray:none"
     inkscape:connector-curvature="0" />
</svg>
