<?xml version="1.0" encoding="UTF-8" standalone="no"?>
<svg
   xmlns:dc="http://purl.org/dc/elements/1.1/"
   xmlns:cc="http://creativecommons.org/ns#"
   xmlns:rdf="http://www.w3.org/1999/02/22-rdf-syntax-ns#"
   xmlns:svg="http://www.w3.org/2000/svg"
   xmlns="http://www.w3.org/2000/svg"
   xmlns:xlink="http://www.w3.org/1999/xlink"
   xmlns:sodipodi="http://sodipodi.sourceforge.net/DTD/sodipodi-0.dtd"
   xmlns:inkscape="http://www.inkscape.org/namespaces/inkscape"
   width="32"
   height="32"
   id="svg3495"
   version="1.1"
   sodipodi:docname="format-text-none.svg"
   inkscape:version="0.92.4 (5da689c313, 2019-01-14)">
  <sodipodi:namedview
     pagecolor="#ffffff"
     bordercolor="#666666"
     borderopacity="1"
     objecttolerance="10"
     gridtolerance="10"
     guidetolerance="10"
     inkscape:pageopacity="0"
     inkscape:pageshadow="2"
     inkscape:window-width="2880"
     inkscape:window-height="1706"
     id="namedview66"
     showgrid="false"
     inkscape:zoom="13.906433"
     inkscape:cx="14.682748"
     inkscape:cy="15.330715"
     inkscape:window-x="-11"
     inkscape:window-y="-11"
     inkscape:window-maximized="1"
     inkscape:current-layer="svg3495" />
  <defs
     id="defs3497">
    <clipPath
       clipPathUnits="userSpaceOnUse"
       id="clipPath3669">
      <path
         d="M 0,96 H 96 V 0 H 0 Z"
         id="path3671"
         inkscape:connector-curvature="0" />
    </clipPath>
    <linearGradient
       xlink:href="#linearGradient3821"
       id="linearGradient3793"
       x1="12"
       y1="22"
       x2="12"
       y2="-2"
       gradientUnits="userSpaceOnUse"
       gradientTransform="translate(0,26)" />
    <linearGradient
       id="linearGradient3821">
      <stop
         style="stop-color:#555555;stop-opacity:1;"
         offset="0"
         id="stop3823" />
      <stop
         style="stop-color:#666666;stop-opacity:1;"
         offset="1"
         id="stop3825" />
    </linearGradient>
    <linearGradient
       y2="-2"
       x2="12"
       y1="22"
       x1="12"
       gradientTransform="translate(31.883514,24.756453)"
       gradientUnits="userSpaceOnUse"
       id="linearGradient3011"
       xlink:href="#linearGradient3821" />
    <linearGradient
       xlink:href="#linearGradient3821"
       id="linearGradient3800"
       x1="12"
       y1="22"
       x2="12"
       y2="0"
       gradientUnits="userSpaceOnUse"
       gradientTransform="matrix(1.19,0,0,1.19,2.3023965,5.7015688)" />
    <linearGradient
       xlink:href="#linearGradient3821"
       id="linearGradient3810"
       gradientUnits="userSpaceOnUse"
       x1="12"
       y1="22"
       x2="12"
       y2="0" />
    <linearGradient
       xlink:href="#linearGradient3821"
       id="linearGradient3824"
       x1="12"
       y1="22"
       x2="12"
       y2="0"
       gradientUnits="userSpaceOnUse" />
    <linearGradient
       xlink:href="#linearGradient3821"
       id="linearGradient3843"
       gradientUnits="userSpaceOnUse"
       x1="12"
       y1="22"
       x2="12"
       y2="0" />
    <radialGradient
       xlink:href="#linearGradient3952"
       id="radialGradient3960"
       gradientUnits="userSpaceOnUse"
       gradientTransform="matrix(1,0,0,0.75,-21,12.375)"
       cx="40"
       cy="43.5"
       fx="40"
       fy="43.5"
       r="2" />
    <linearGradient
       id="linearGradient3952">
      <stop
         style="stop-color:#000000;stop-opacity:1;"
         offset="0"
         id="stop3954" />
      <stop
         style="stop-color:#000000;stop-opacity:0;"
         offset="1"
         id="stop3956" />
    </linearGradient>
    <radialGradient
       xlink:href="#linearGradient3944"
       id="radialGradient3957"
       gradientUnits="userSpaceOnUse"
       gradientTransform="matrix(1,0,0,0.75,-4,12.375)"
       cx="9"
       cy="43.5"
       fx="9"
       fy="43.5"
       r="2" />
    <linearGradient
       id="linearGradient3944">
      <stop
         style="stop-color:#000000;stop-opacity:1;"
         offset="0"
         id="stop3946" />
      <stop
         style="stop-color:#000000;stop-opacity:0;"
         offset="1"
         id="stop3948" />
    </linearGradient>
    <linearGradient
       xlink:href="#linearGradient3960"
       id="linearGradient3954"
       gradientUnits="userSpaceOnUse"
       gradientTransform="translate(-8,1.5)"
       x1="25"
       y1="45"
       x2="25"
       y2="42" />
    <linearGradient
       id="linearGradient3960">
      <stop
         style="stop-color:#000000;stop-opacity:0;"
         offset="0"
         id="stop3962" />
      <stop
         id="stop3970"
         offset="0.5"
         style="stop-color:#000000;stop-opacity:1;" />
      <stop
         style="stop-color:#000000;stop-opacity:0;"
         offset="1"
         id="stop3964" />
    </linearGradient>
    <linearGradient
       y2="42"
       x2="25"
       y1="45"
       x1="25"
       gradientTransform="translate(-8,1.5)"
       gradientUnits="userSpaceOnUse"
       id="linearGradient3994"
       xlink:href="#linearGradient3960" />
    <linearGradient
       xlink:href="#linearGradient3960"
       id="linearGradient4038"
       gradientUnits="userSpaceOnUse"
       gradientTransform="translate(-9,-1)"
       x1="25"
       y1="45"
       x2="25"
       y2="42" />
    <radialGradient
       xlink:href="#linearGradient3944"
       id="radialGradient4041"
       gradientUnits="userSpaceOnUse"
       gradientTransform="matrix(1,0,0,0.75,-4,9.875)"
       cx="9"
       cy="43.5"
       fx="9"
       fy="43.5"
       r="2" />
    <radialGradient
       xlink:href="#linearGradient3952"
       id="radialGradient4044"
       gradientUnits="userSpaceOnUse"
       gradientTransform="matrix(1,0,0,0.75,-22,9.875)"
       cx="40"
       cy="43.5"
       fx="40"
       fy="43.5"
       r="2" />
    <radialGradient
       xlink:href="#linearGradient3952"
       id="radialGradient4051"
       gradientUnits="userSpaceOnUse"
       gradientTransform="matrix(1.4,0,0,1.05,-8.1981631,-23.739407)"
       cx="40"
       cy="43.5"
       fx="40"
       fy="43.5"
       r="2" />
    <radialGradient
       xlink:href="#linearGradient3944"
       id="radialGradient4053"
       gradientUnits="userSpaceOnUse"
       gradientTransform="matrix(1.19,0,0,0.8925,-2.4576036,-12.892181)"
       cx="9"
       cy="43.5"
       fx="9"
       fy="43.5"
       r="2" />
    <linearGradient
       xlink:href="#linearGradient3960"
       id="linearGradient4055"
       gradientUnits="userSpaceOnUse"
       gradientTransform="matrix(1.19,0,0,1.19,-8.4076033,-25.833431)"
       x1="25"
       y1="45"
       x2="25"
       y2="42" />
    <radialGradient
       cx="11.03125"
       cy="17.125"
       r="9.84375"
       fx="11.03125"
       fy="17.125"
       id="radialGradient5584"
       xlink:href="#linearGradient3952"
       gradientUnits="userSpaceOnUse"
       gradientTransform="matrix(0.63623879,0,0,0.14315373,8.98149,18.449012)" />
    <linearGradient
       x1="11.192374"
       y1="-0.74098766"
       x2="11.192374"
       y2="30.298229"
       id="linearGradient3217"
       xlink:href="#linearGradient3242"
       gradientUnits="userSpaceOnUse"
       gradientTransform="matrix(0.57894734,0,0,0.55555556,34.074641,10.496731)" />
    <linearGradient
       id="linearGradient3242">
      <stop
         id="stop3244"
         style="stop-color:#f8b17e;stop-opacity:1"
         offset="0" />
      <stop
         id="stop3246"
         style="stop-color:#e35d4f;stop-opacity:1"
         offset="0.31209752" />
      <stop
         id="stop3248"
         style="stop-color:#c6262e;stop-opacity:1"
         offset="0.57054454" />
      <stop
         id="stop3250"
         style="stop-color:#690b54;stop-opacity:1"
         offset="1" />
    </linearGradient>
    <linearGradient
       x1="41.225124"
       y1="23.238064"
       x2="41.225124"
       y2="7.3900404"
       id="linearGradient5567"
       xlink:href="#linearGradient2490"
       gradientUnits="userSpaceOnUse" />
    <linearGradient
       id="linearGradient2490">
      <stop
         id="stop2492"
         style="stop-color:#791235;stop-opacity:1"
         offset="0" />
      <stop
         id="stop2494"
         style="stop-color:#dd3b27;stop-opacity:1"
         offset="1" />
    </linearGradient>
    <linearGradient
       x1="36.010902"
       y1="13.022708"
       x2="16.331276"
       y2="32.702335"
       id="linearGradient3167"
       xlink:href="#linearGradient7916"
       gradientUnits="userSpaceOnUse"
       gradientTransform="matrix(0.3077295,-0.29497944,0.3077295,0.29497944,25.949249,16.78523)" />
    <linearGradient
       id="linearGradient7916">
      <stop
         id="stop7918"
         style="stop-color:#ffffff;stop-opacity:1"
         offset="0" />
      <stop
         id="stop7920"
         style="stop-color:#ffffff;stop-opacity:0"
         offset="1" />
    </linearGradient>
    <linearGradient
       x1="28.449389"
       y1="20.584223"
       x2="16.331276"
       y2="32.702335"
       id="linearGradient2419"
       xlink:href="#linearGradient7916"
       gradientUnits="userSpaceOnUse"
       gradientTransform="matrix(0.3077295,-0.29497944,0.3077295,0.29497944,25.634631,17.292858)" />
  </defs>
  <metadata
     id="metadata3500">
    <rdf:RDF>
      <cc:Work
         rdf:about="">
        <dc:format>image/svg+xml</dc:format>
        <dc:type
           rdf:resource="http://purl.org/dc/dcmitype/StillImage" />
        <dc:title />
      </cc:Work>
    </rdf:RDF>
  </metadata>
  <path
     id="path11643-3-2"
     d="m 7.6573964,6.2965688 v 0.595 3.5700002 0.595 h 0.595 10.1150006 c 0.09765,0 0.463776,0.158741 0.74375,0.44625 0.279974,0.287509 0.44625,0.693297 0.44625,0.74375 v 1.19 h -8.33 c -1.806577,0 -3.4234184,0.752481 -4.4625006,1.93375 l -0.037187,0.03719 c -0.9944067,1.150828 -1.4627858,2.572405 -1.4503125,3.979063 0.011888,1.427667 0.5120183,2.872689 1.5246875,4.01625 1.0297995,1.162906 2.6336191,1.93375 4.4253126,1.93375 h 8.925 1.785 1.785 0.595 v -0.595 c -0.04331,-1.287353 0,-2.2608 0,-3.57 v -8.925 c 0,-3.2376225 -2.628433,-5.9500002 -5.95,-5.9500002 H 8.2523964 Z M 11.227397,18.196569 h 8.33 v 2.38 h -8.33 c -0.600741,0 -0.646011,-0.06115 -0.855313,-0.2975 -0.176198,-0.198966 -0.33183,-0.570626 -0.334688,-0.8925 -0.0025,-0.344467 0.158331,-0.734295 0.2975,-0.8925 0.187685,-0.213358 0.247569,-0.2975 0.892501,-0.2975 z"
     style="color:#000000;font-style:normal;font-variant:normal;font-weight:normal;font-stretch:normal;line-height:normal;font-family:Sans;-inkscape-font-specification:Sans;text-indent:0;text-align:start;text-decoration:none;text-decoration-line:none;letter-spacing:normal;word-spacing:normal;text-transform:none;writing-mode:lr-tb;direction:ltr;baseline-shift:baseline;text-anchor:start;display:inline;overflow:visible;visibility:visible;fill:url(#linearGradient3800);fill-opacity:1;stroke:none;stroke-width:1;stroke-miterlimit:4;stroke-dasharray:none;marker:none;enable-background:accumulate"
     inkscape:connector-curvature="0" />
  <path
     style="color:#000000;font-style:normal;font-variant:normal;font-weight:normal;font-stretch:normal;line-height:normal;font-family:Sans;-inkscape-font-specification:Sans;text-indent:0;text-align:start;text-decoration:none;text-decoration-line:none;letter-spacing:normal;word-spacing:normal;text-transform:none;writing-mode:lr-tb;direction:ltr;baseline-shift:baseline;text-anchor:start;display:inline;overflow:visible;visibility:visible;opacity:0.61000001;fill:none;stroke:#000000;stroke-width:1;stroke-miterlimit:4;stroke-dasharray:none;stroke-opacity:1;marker:none;enable-background:accumulate"
     d="m 7.6573964,6.2965688 v 0.595 3.5700002 0.595 h 0.595 10.1150006 c 0.09765,0 0.463776,0.158741 0.74375,0.44625 0.279974,0.287509 0.44625,0.693297 0.44625,0.74375 v 1.19 h -8.33 c -1.806577,0 -3.4234184,0.752481 -4.4625006,1.93375 l -0.037187,0.03719 c -0.9944067,1.150828 -1.4627858,2.572405 -1.4503125,3.979063 0.011888,1.427667 0.5120183,2.872689 1.5246875,4.01625 1.0297995,1.162906 2.6336191,1.93375 4.4253126,1.93375 h 8.925 1.785 1.785 0.595 v -0.595 c -0.04331,-1.287353 0,-2.2608 0,-3.57 v -8.925 c 0,-3.2376225 -2.628433,-5.9500002 -5.95,-5.9500002 H 8.2523964 Z M 11.227397,18.196569 h 8.33 v 2.38 h -8.33 c -0.600741,0 -0.646011,-0.06115 -0.855313,-0.2975 -0.176198,-0.198966 -0.33183,-0.570626 -0.334688,-0.8925 -0.0025,-0.344467 0.158331,-0.734295 0.2975,-0.8925 0.187685,-0.213358 0.247569,-0.2975 0.892501,-0.2975 z"
     id="path3791"
     inkscape:connector-curvature="0" />
  <path
     id="path3802"
     d="m 8.2523964,6.8915688 v 1.19 H 18.367397 c 2.99765,0 5.355,2.4394072 5.355,5.3550002 v -1.19 c 0,-2.915593 -2.35735,-5.3550002 -5.355,-5.3550002 z m 2.9750006,7.1400002 c -1.641356,0 -3.0965705,0.702284 -4.0162506,1.747812 h -0.037187 l -0.037187,0.03719 c -0.8728056,1.030055 -1.2755015,2.315267 -1.264375,3.57 0.00166,0.19856 0.014584,0.397673 0.037187,0.595 0.1029683,-1.056312 0.4938366,-2.109524 1.2271875,-2.975 l 0.037187,-0.03719 h 0.037187 C 8.1308265,15.923853 9.586041,15.221569 11.227397,15.221569 h 8.33 0.595 v -0.595 -0.595 h -0.595 z m -1.7106256,5.95 c -0.049869,0.184764 -0.075957,0.374032 -0.074375,0.595 0.00452,0.509582 0.1787145,0.957464 0.4834375,1.301562 0.1018811,0.11505 0.2695211,0.271874 0.5206251,0.371875 0.251104,0.100002 0.460378,0.111563 0.780938,0.111563 h 8.33 0.595 v -0.595 -0.595 h -0.595 -8.33 c -0.32056,0 -0.529834,-0.01156 -0.780938,-0.111563 C 10.195355,20.960005 10.027715,20.803181 9.9258339,20.688131 9.7474814,20.486733 9.5978448,20.245636 9.5167714,19.981569 Z"
     style="color:#000000;font-style:normal;font-variant:normal;font-weight:normal;font-stretch:normal;line-height:normal;font-family:Sans;-inkscape-font-specification:Sans;text-indent:0;text-align:start;text-decoration:none;text-decoration-line:none;letter-spacing:normal;word-spacing:normal;text-transform:none;writing-mode:lr-tb;direction:ltr;baseline-shift:baseline;text-anchor:start;display:inline;overflow:visible;visibility:visible;opacity:0.2;fill:#ffffff;fill-opacity:1;stroke:none;stroke-width:1;stroke-miterlimit:4;stroke-dasharray:none;marker:none;enable-background:accumulate"
     inkscape:connector-curvature="0" />
  <path
     id="rect3942"
     d="m 7.5458339,24.146569 c -0.9270844,0 -1.6734375,0.746353 -1.6734375,1.673437 v 0.223125 c 0,0.927085 0.7463531,1.673438 1.6734375,1.673438 h 0.7065625 v -3.57 z"
     style="opacity:0.2;fill:url(#radialGradient4053);fill-opacity:1;stroke:none;stroke-width:1;stroke-miterlimit:4;stroke-dasharray:none"
     inkscape:connector-curvature="0" />
  <path
     id="rect3938"
     d="M 8.2523964,24.146569 H 23.722397 v 3.57 H 8.2523964 Z"
     style="opacity:0.2;fill:url(#linearGradient4055);fill-opacity:1;stroke:none;stroke-width:1;stroke-miterlimit:4;stroke-dasharray:none"
     inkscape:connector-curvature="0" />
  <g
     id="g917"
     transform="matrix(0.85,0,0,0.85,-17.338313,7.1340939)"
     style="stroke-width:1.17647059;stroke-miterlimit:4;stroke-dasharray:none">
    <path
       inkscape:connector-curvature="0"
       style="opacity:0.2;fill:url(#radialGradient4051);fill-opacity:1;stroke:none;stroke-width:1.17647059;stroke-miterlimit:4;stroke-dasharray:none"
       d="m 47.801837,19.835593 v 4.2 h 0.7 c 1.1634,0 2.1,-0.9366 2.1,-2.1 0,-1.1634 -0.9366,-2.1 -2.1,-2.1 z"
       id="rect3940" />
    <g
       id="g4239"
       transform="matrix(1.4,0,0,1.4,23.633672,-5.09797)"
       style="stroke-width:0.84033613;stroke-miterlimit:4;stroke-dasharray:none">
      <path
         inkscape:connector-curvature="0"
         style="color:#000000;display:inline;overflow:visible;visibility:visible;opacity:0.4;fill:url(#radialGradient5584);fill-opacity:1;fill-rule:nonzero;stroke:none;stroke-width:0.84033613;marker:none;enable-background:accumulate;stroke-miterlimit:4;stroke-dasharray:none"
         id="path3843-1"
         d="m 22.262975,20.900519 a 6.2629757,1.4091694 0 0 1 -12.5259514,0 6.2629757,1.4091694 0 1 1 12.5259514,0 z" />
      <g
         id="layer1-3"
         transform="translate(-25.02201,-0.941175)"
         style="stroke-width:0.84033613;stroke-miterlimit:4;stroke-dasharray:none">
        <path
           inkscape:connector-curvature="0"
           style="font-style:normal;font-variant:normal;font-weight:bold;font-stretch:normal;font-size:59.90107727px;line-height:125%;font-family:'Bitstream Vera Sans';text-align:start;writing-mode:lr-tb;text-anchor:start;fill:url(#linearGradient3217);fill-opacity:1;stroke:url(#linearGradient5567);stroke-width:0.84033613;stroke-linecap:butt;stroke-linejoin:round;stroke-miterlimit:4;stroke-dasharray:none;stroke-opacity:1"
           id="text1314"
           d="m 46.52201,20.385514 -3.184991,-2.946158 3.06471,-3.086417 -2.209232,-1.911764 -3.154011,2.941176 -3.217945,-2.941176 -2.298531,1.982082 3.217944,3.003528 -3.217944,2.955566 2.298531,2.058824 3.214211,-3.088236 3.22168,3.088236 z" />
        <path
           inkscape:connector-curvature="0"
           style="font-style:normal;font-variant:normal;font-weight:bold;font-stretch:normal;font-size:59.90107727px;line-height:125%;font-family:'Bitstream Vera Sans';text-align:start;writing-mode:lr-tb;text-anchor:start;opacity:0.5;fill:none;stroke:url(#linearGradient3167);stroke-width:0.84033613;stroke-linecap:square;stroke-linejoin:miter;stroke-miterlimit:4;stroke-dasharray:none;stroke-opacity:1"
           id="path7076"
           d="m 44.938257,14.059492 -0.7308,-0.646377 -3.142519,2.815002 -3.257834,-2.831456 -0.830951,0.712289"
           sodipodi:nodetypes="ccccc" />
        <path
           inkscape:connector-curvature="0"
           style="font-style:normal;font-variant:normal;font-weight:bold;font-stretch:normal;font-size:59.90107727px;line-height:125%;font-family:'Bitstream Vera Sans';text-align:start;writing-mode:lr-tb;text-anchor:start;opacity:0.4;fill:none;stroke:url(#linearGradient2419);stroke-width:0.84033613;stroke-linecap:butt;stroke-linejoin:miter;stroke-miterlimit:4;stroke-dasharray:none;stroke-opacity:1"
           id="path3165"
           d="m 45.722832,20.648622 -3.044814,-2.873946 m -3.346955,0.06861 -3.016233,2.752908"
           sodipodi:nodetypes="cccc" />
      </g>
    </g>
  </g>
</svg>
