<?xml version="1.0" encoding="UTF-8" standalone="no"?>
<svg
   xmlns:dc="http://purl.org/dc/elements/1.1/"
   xmlns:cc="http://creativecommons.org/ns#"
   xmlns:rdf="http://www.w3.org/1999/02/22-rdf-syntax-ns#"
   xmlns:svg="http://www.w3.org/2000/svg"
   xmlns="http://www.w3.org/2000/svg"
   xmlns:xlink="http://www.w3.org/1999/xlink"
   xmlns:sodipodi="http://sodipodi.sourceforge.net/DTD/sodipodi-0.dtd"
   xmlns:inkscape="http://www.inkscape.org/namespaces/inkscape"
   width="32"
   height="32"
   id="svg3495"
   version="1.1"
   sodipodi:docname="format-text-none.svg"
   inkscape:version="0.92.4 (5da689c313, 2019-01-14)">
  <sodipodi:namedview
     pagecolor="#ffffff"
     bordercolor="#666666"
     borderopacity="1"
     objecttolerance="10"
     gridtolerance="10"
     guidetolerance="10"
     inkscape:pageopacity="0"
     inkscape:pageshadow="2"
     inkscape:window-width="1920"
     inkscape:window-height="1017"
     id="namedview66"
     showgrid="false"
     inkscape:zoom="55.625733"
     inkscape:cx="18.628763"
     inkscape:cy="15.330715"
     inkscape:window-x="-8"
     inkscape:window-y="-8"
     inkscape:window-maximized="1"
     inkscape:current-layer="svg3495" />
  <defs
     id="defs3497">
    <clipPath
       clipPathUnits="userSpaceOnUse"
       id="clipPath3669">
      <path
         d="M 0,96 H 96 V 0 H 0 Z"
         id="path3671"
         inkscape:connector-curvature="0" />
    </clipPath>
    <linearGradient
       xlink:href="#linearGradient3821"
       id="linearGradient3793"
       x1="12"
       y1="22"
       x2="12"
       y2="-2"
       gradientUnits="userSpaceOnUse"
       gradientTransform="translate(0,26)" />
    <linearGradient
       id="linearGradient3821">
      <stop
         style="stop-color:#555555;stop-opacity:1;"
         offset="0"
         id="stop3823" />
      <stop
         style="stop-color:#666666;stop-opacity:1;"
         offset="1"
         id="stop3825" />
    </linearGradient>
    <linearGradient
       y2="-2"
       x2="12"
       y1="22"
       x1="12"
       gradientTransform="translate(31.883514,24.756453)"
       gradientUnits="userSpaceOnUse"
       id="linearGradient3011"
       xlink:href="#linearGradient3821" />
    <linearGradient
       xlink:href="#linearGradient3821"
       id="linearGradient3800"
       x1="12"
       y1="22"
       x2="12"
       y2="0"
       gradientUnits="userSpaceOnUse"
       gradientTransform="matrix(1.4,0,0,1.4,-0.29971626,3.6)" />
    <linearGradient
       xlink:href="#linearGradient3821"
       id="linearGradient3810"
       gradientUnits="userSpaceOnUse"
       x1="12"
       y1="22"
       x2="12"
       y2="0" />
    <linearGradient
       xlink:href="#linearGradient3821"
       id="linearGradient3824"
       x1="12"
       y1="22"
       x2="12"
       y2="0"
       gradientUnits="userSpaceOnUse" />
    <linearGradient
       xlink:href="#linearGradient3821"
       id="linearGradient3843"
       gradientUnits="userSpaceOnUse"
       x1="12"
       y1="22"
       x2="12"
       y2="0" />
    <radialGradient
       xlink:href="#linearGradient3952"
       id="radialGradient3960"
       gradientUnits="userSpaceOnUse"
       gradientTransform="matrix(1,0,0,0.75,-21,12.375)"
       cx="40"
       cy="43.5"
       fx="40"
       fy="43.5"
       r="2" />
    <linearGradient
       id="linearGradient3952">
      <stop
         style="stop-color:#000000;stop-opacity:1;"
         offset="0"
         id="stop3954" />
      <stop
         style="stop-color:#000000;stop-opacity:0;"
         offset="1"
         id="stop3956" />
    </linearGradient>
    <radialGradient
       xlink:href="#linearGradient3944"
       id="radialGradient3957"
       gradientUnits="userSpaceOnUse"
       gradientTransform="matrix(1,0,0,0.75,-4,12.375)"
       cx="9"
       cy="43.5"
       fx="9"
       fy="43.5"
       r="2" />
    <linearGradient
       id="linearGradient3944">
      <stop
         style="stop-color:#000000;stop-opacity:1;"
         offset="0"
         id="stop3946" />
      <stop
         style="stop-color:#000000;stop-opacity:0;"
         offset="1"
         id="stop3948" />
    </linearGradient>
    <linearGradient
       xlink:href="#linearGradient3960"
       id="linearGradient3954"
       gradientUnits="userSpaceOnUse"
       gradientTransform="translate(-8,1.5)"
       x1="25"
       y1="45"
       x2="25"
       y2="42" />
    <linearGradient
       id="linearGradient3960">
      <stop
         style="stop-color:#000000;stop-opacity:0;"
         offset="0"
         id="stop3962" />
      <stop
         id="stop3970"
         offset="0.5"
         style="stop-color:#000000;stop-opacity:1;" />
      <stop
         style="stop-color:#000000;stop-opacity:0;"
         offset="1"
         id="stop3964" />
    </linearGradient>
    <linearGradient
       y2="42"
       x2="25"
       y1="45"
       x1="25"
       gradientTransform="translate(-8,1.5)"
       gradientUnits="userSpaceOnUse"
       id="linearGradient3994"
       xlink:href="#linearGradient3960" />
    <linearGradient
       xlink:href="#linearGradient3960"
       id="linearGradient4038"
       gradientUnits="userSpaceOnUse"
       gradientTransform="translate(-9,-1)"
       x1="25"
       y1="45"
       x2="25"
       y2="42" />
    <radialGradient
       xlink:href="#linearGradient3944"
       id="radialGradient4041"
       gradientUnits="userSpaceOnUse"
       gradientTransform="matrix(1,0,0,0.75,-4,9.875)"
       cx="9"
       cy="43.5"
       fx="9"
       fy="43.5"
       r="2" />
    <radialGradient
       xlink:href="#linearGradient3952"
       id="radialGradient4044"
       gradientUnits="userSpaceOnUse"
       gradientTransform="matrix(1,0,0,0.75,-22,9.875)"
       cx="40"
       cy="43.5"
       fx="40"
       fy="43.5"
       r="2" />
    <radialGradient
       xlink:href="#linearGradient3952"
       id="radialGradient4051"
       gradientUnits="userSpaceOnUse"
       gradientTransform="matrix(1.4,0,0,1.05,-8.1981631,-23.739407)"
       cx="40"
       cy="43.5"
       fx="40"
       fy="43.5"
       r="2" />
    <radialGradient
       xlink:href="#linearGradient3944"
       id="radialGradient4053"
       gradientUnits="userSpaceOnUse"
       gradientTransform="matrix(1.4,0,0,1.05,-5.8997163,-18.275)"
       cx="9"
       cy="43.5"
       fx="9"
       fy="43.5"
       r="2" />
    <linearGradient
       xlink:href="#linearGradient3960"
       id="linearGradient4055"
       gradientUnits="userSpaceOnUse"
       gradientTransform="matrix(1.4,0,0,1.4,-12.899716,-33.5)"
       x1="25"
       y1="45"
       x2="25"
       y2="42" />
    <radialGradient
       cx="11.03125"
       cy="17.125"
       r="9.84375"
       fx="11.03125"
       fy="17.125"
       id="radialGradient5584"
       xlink:href="#linearGradient3952"
       gradientUnits="userSpaceOnUse"
       gradientTransform="matrix(0.63623879,0,0,0.14315373,8.98149,18.449012)" />
    <linearGradient
       x1="11.192374"
       y1="-0.74098766"
       x2="11.192374"
       y2="30.298229"
       id="linearGradient3217"
       xlink:href="#linearGradient3242"
       gradientUnits="userSpaceOnUse"
       gradientTransform="matrix(0.57894734,0,0,0.55555556,34.074641,10.496731)" />
    <linearGradient
       id="linearGradient3242">
      <stop
         id="stop3244"
         style="stop-color:#f8b17e;stop-opacity:1"
         offset="0" />
      <stop
         id="stop3246"
         style="stop-color:#e35d4f;stop-opacity:1"
         offset="0.31209752" />
      <stop
         id="stop3248"
         style="stop-color:#c6262e;stop-opacity:1"
         offset="0.57054454" />
      <stop
         id="stop3250"
         style="stop-color:#690b54;stop-opacity:1"
         offset="1" />
    </linearGradient>
    <linearGradient
       x1="41.225124"
       y1="23.238064"
       x2="41.225124"
       y2="7.3900404"
       id="linearGradient5567"
       xlink:href="#linearGradient2490"
       gradientUnits="userSpaceOnUse" />
    <linearGradient
       id="linearGradient2490">
      <stop
         id="stop2492"
         style="stop-color:#791235;stop-opacity:1"
         offset="0" />
      <stop
         id="stop2494"
         style="stop-color:#dd3b27;stop-opacity:1"
         offset="1" />
    </linearGradient>
    <linearGradient
       x1="36.010902"
       y1="13.022708"
       x2="16.331276"
       y2="32.702335"
       id="linearGradient3167"
       xlink:href="#linearGradient7916"
       gradientUnits="userSpaceOnUse"
       gradientTransform="matrix(0.3077295,-0.29497944,0.3077295,0.29497944,25.949249,16.78523)" />
    <linearGradient
       id="linearGradient7916">
      <stop
         id="stop7918"
         style="stop-color:#ffffff;stop-opacity:1"
         offset="0" />
      <stop
         id="stop7920"
         style="stop-color:#ffffff;stop-opacity:0"
         offset="1" />
    </linearGradient>
    <linearGradient
       x1="28.449389"
       y1="20.584223"
       x2="16.331276"
       y2="32.702335"
       id="linearGradient2419"
       xlink:href="#linearGradient7916"
       gradientUnits="userSpaceOnUse"
       gradientTransform="matrix(0.3077295,-0.29497944,0.3077295,0.29497944,25.634631,17.292858)" />
  </defs>
  <metadata
     id="metadata3500">
    <rdf:RDF>
      <cc:Work
         rdf:about="">
        <dc:format>image/svg+xml</dc:format>
        <dc:type
           rdf:resource="http://purl.org/dc/dcmitype/StillImage" />
        <dc:title></dc:title>
      </cc:Work>
    </rdf:RDF>
  </metadata>
  <path
     id="path11643-3-2"
     d="M 6.0002837,4.3 V 5 9.2 9.9 h 0.7 11.9000003 c 0.114884,0 0.545619,0.186754 0.875,0.525 0.329381,0.338246 0.525,0.815644 0.525,0.875 v 1.4 h -9.8 c -2.1253843,0 -4.0275507,0.885272 -5.2500003,2.275 l -0.04375,0.04375 c -1.1698903,1.353915 -1.7209245,3.026359 -1.70625,4.68125 0.013986,1.679608 0.6023745,3.379634 1.79375,4.725 1.2115288,1.368125 3.0983754,2.275 5.2062503,2.275 h 10.5 2.1 2.1 0.7 V 26 c -0.05095,-1.514533 0,-2.659765 0,-4.2 V 11.3 c 0,-3.8089674 -3.092274,-7 -7,-7 H 6.7002837 Z m 4.2000003,14 h 9.8 v 2.8 h -9.8 C 9.4935308,21.1 9.4402716,21.02806 9.1940337,20.75 8.986742,20.515923 8.8036451,20.078676 8.8002837,19.7 c -0.0029,-0.405255 0.1862718,-0.863876 0.35,-1.05 0.2208049,-0.251009 0.2912568,-0.35 1.0500003,-0.35 z"
     style="color:#000000;font-style:normal;font-variant:normal;font-weight:normal;font-stretch:normal;line-height:normal;font-family:Sans;-inkscape-font-specification:Sans;text-indent:0;text-align:start;text-decoration:none;text-decoration-line:none;letter-spacing:normal;word-spacing:normal;text-transform:none;writing-mode:lr-tb;direction:ltr;baseline-shift:baseline;text-anchor:start;display:inline;overflow:visible;visibility:visible;fill:url(#linearGradient3800);fill-opacity:1;stroke:none;stroke-width:2;marker:none;enable-background:accumulate;stroke-miterlimit:4;stroke-dasharray:none"
     inkscape:connector-curvature="0" />
  <path
     style="color:#000000;font-style:normal;font-variant:normal;font-weight:normal;font-stretch:normal;line-height:normal;font-family:Sans;-inkscape-font-specification:Sans;text-indent:0;text-align:start;text-decoration:none;text-decoration-line:none;letter-spacing:normal;word-spacing:normal;text-transform:none;writing-mode:lr-tb;direction:ltr;baseline-shift:baseline;text-anchor:start;display:inline;overflow:visible;visibility:visible;opacity:0.61000001;fill:none;stroke:#000000;stroke-width:1;stroke-miterlimit:4;stroke-dasharray:none;stroke-opacity:1;marker:none;enable-background:accumulate"
     d="M 6.0002837,4.3 V 5 9.2 9.9 h 0.7 11.9000003 c 0.114884,0 0.545619,0.186754 0.875,0.525 0.329381,0.338246 0.525,0.815644 0.525,0.875 v 1.4 h -9.8 c -2.1253843,0 -4.0275507,0.885272 -5.2500003,2.275 l -0.04375,0.04375 c -1.1698903,1.353915 -1.7209245,3.026359 -1.70625,4.68125 0.013986,1.679608 0.6023745,3.379634 1.79375,4.725 1.2115288,1.368125 3.0983754,2.275 5.2062503,2.275 h 10.5 2.1 2.1 0.7 V 26 c -0.05095,-1.514533 0,-2.659765 0,-4.2 V 11.3 c 0,-3.8089674 -3.092274,-7 -7,-7 H 6.7002837 Z m 4.2000003,14 h 9.8 v 2.8 h -9.8 C 9.4935308,21.1 9.4402716,21.02806 9.1940337,20.75 8.986742,20.515923 8.8036451,20.078676 8.8002837,19.7 c -0.0029,-0.405255 0.1862718,-0.863876 0.35,-1.05 0.2208049,-0.251009 0.2912568,-0.35 1.0500003,-0.35 z"
     id="path3791"
     inkscape:connector-curvature="0" />
  <path
     id="path3802"
     d="M 6.7002837,5 V 6.4 H 18.600284 c 3.526648,0 6.3,2.8698908 6.3,6.3 v -1.4 c 0,-3.4301092 -2.773352,-6.3 -6.3,-6.3 z m 3.5000003,8.4 c -1.9310067,0 -3.6430237,0.826217 -4.7250003,2.05625 h -0.04375 L 5.3877837,15.5 c -1.0268301,1.21183 -1.50059,2.723844 -1.4875,4.2 0.00195,0.2336 0.017158,0.467851 0.04375,0.7 0.1211392,-1.24272 0.5809842,-2.481793 1.44375,-3.5 l 0.04375,-0.04375 h 0.04375 C 6.5572603,15.626217 8.2692773,14.8 10.200284,14.8 h 9.8 0.7 v -0.7 -0.7 h -0.7 z m -2.0125003,7 c -0.05867,0.21737 -0.089361,0.440038 -0.0875,0.7 0.00532,0.599509 0.2102524,1.126429 0.56875,1.53125 0.1198596,0.135352 0.3170831,0.319851 0.6125,0.4375 C 9.5769506,23.186399 9.8231549,23.2 10.200284,23.2 h 9.8 0.7 v -0.7 -0.7 h -0.7 -9.8 C 9.8231549,21.8 9.5769506,21.7864 9.2815337,21.66875 8.9861168,21.551101 8.7888933,21.366602 8.6690337,21.23125 8.4592072,20.994311 8.2831642,20.710667 8.1877837,20.4 Z"
     style="color:#000000;font-style:normal;font-variant:normal;font-weight:normal;font-stretch:normal;line-height:normal;font-family:Sans;-inkscape-font-specification:Sans;text-indent:0;text-align:start;text-decoration:none;text-decoration-line:none;letter-spacing:normal;word-spacing:normal;text-transform:none;writing-mode:lr-tb;direction:ltr;baseline-shift:baseline;text-anchor:start;display:inline;overflow:visible;visibility:visible;opacity:0.2;fill:#ffffff;fill-opacity:1;stroke:none;stroke-width:2;marker:none;enable-background:accumulate;stroke-miterlimit:4;stroke-dasharray:none"
     inkscape:connector-curvature="0" />
  <path
     id="rect3942"
     d="m 5.8690337,25.3 c -1.0906875,0 -1.96875,0.878062 -1.96875,1.96875 v 0.2625 c 0,1.090688 0.8780625,1.96875 1.96875,1.96875 h 0.83125 v -4.2 z"
     style="opacity:0.2;fill:url(#radialGradient4053);fill-opacity:1;stroke:none;stroke-width:1.39999998"
     inkscape:connector-curvature="0" />
  <path
     id="rect3938"
     d="M 6.7002837,25.3 H 24.900284 v 4.2 H 6.7002837 Z"
     style="opacity:0.2;fill:url(#linearGradient4055);fill-opacity:1;stroke:none;stroke-width:1.39999998"
     inkscape:connector-curvature="0" />
  <g
     id="g917"
     transform="translate(-23.406433,5.2853236)">
    <path
       inkscape:connector-curvature="0"
       style="opacity:0.2;fill:url(#radialGradient4051);fill-opacity:1;stroke:none;stroke-width:1.39999998"
       d="m 47.801837,19.835593 v 4.2 h 0.7 c 1.1634,0 2.1,-0.9366 2.1,-2.1 0,-1.1634 -0.9366,-2.1 -2.1,-2.1 z"
       id="rect3940" />
    <g
       id="g4239"
       transform="matrix(1.4,0,0,1.4,23.633672,-5.09797)">
      <path
         inkscape:connector-curvature="0"
         style="color:#000000;display:inline;overflow:visible;visibility:visible;opacity:0.4;fill:url(#radialGradient5584);fill-opacity:1;fill-rule:nonzero;stroke:none;stroke-width:1;marker:none;enable-background:accumulate"
         id="path3843-1"
         d="m 22.262975,20.900519 a 6.2629757,1.4091694 0 0 1 -12.5259514,0 6.2629757,1.4091694 0 1 1 12.5259514,0 z" />
      <g
         id="layer1-3"
         transform="translate(-25.02201,-0.941175)">
        <path
           inkscape:connector-curvature="0"
           style="font-style:normal;font-variant:normal;font-weight:bold;font-stretch:normal;font-size:59.90107727px;line-height:125%;font-family:'Bitstream Vera Sans';text-align:start;writing-mode:lr-tb;text-anchor:start;fill:url(#linearGradient3217);fill-opacity:1;stroke:url(#linearGradient5567);stroke-width:0.71428571;stroke-linecap:butt;stroke-linejoin:round;stroke-miterlimit:4;stroke-dasharray:none;stroke-opacity:1"
           id="text1314"
           d="m 46.52201,20.385514 -3.184991,-2.946158 3.06471,-3.086417 -2.209232,-1.911764 -3.154011,2.941176 -3.217945,-2.941176 -2.298531,1.982082 3.217944,3.003528 -3.217944,2.955566 2.298531,2.058824 3.214211,-3.088236 3.22168,3.088236 z" />
        <path
           inkscape:connector-curvature="0"
           style="font-style:normal;font-variant:normal;font-weight:bold;font-stretch:normal;font-size:59.90107727px;line-height:125%;font-family:'Bitstream Vera Sans';text-align:start;writing-mode:lr-tb;text-anchor:start;opacity:0.5;fill:none;stroke:url(#linearGradient3167);stroke-width:0.71428573;stroke-linecap:square;stroke-linejoin:miter;stroke-miterlimit:4;stroke-dasharray:none;stroke-opacity:1"
           id="path7076"
           d="m 44.938257,14.059492 -0.7308,-0.646377 -3.142519,2.815002 -3.257834,-2.831456 -0.830951,0.712289"
           sodipodi:nodetypes="ccccc" />
        <path
           inkscape:connector-curvature="0"
           style="font-style:normal;font-variant:normal;font-weight:bold;font-stretch:normal;font-size:59.90107727px;line-height:125%;font-family:'Bitstream Vera Sans';text-align:start;writing-mode:lr-tb;text-anchor:start;opacity:0.4;fill:none;stroke:url(#linearGradient2419);stroke-width:0.71428573;stroke-linecap:butt;stroke-linejoin:miter;stroke-miterlimit:4;stroke-dasharray:none;stroke-opacity:1"
           id="path3165"
           d="m 45.722832,20.648622 -3.044814,-2.873946 m -3.346955,0.06861 -3.016233,2.752908"
           sodipodi:nodetypes="cccc" />
      </g>
    </g>
  </g>
</svg>
