<?xml version="1.0" encoding="UTF-8" standalone="no"?>
<svg
   xmlns:dc="http://purl.org/dc/elements/1.1/"
   xmlns:cc="http://creativecommons.org/ns#"
   xmlns:rdf="http://www.w3.org/1999/02/22-rdf-syntax-ns#"
   xmlns:svg="http://www.w3.org/2000/svg"
   xmlns="http://www.w3.org/2000/svg"
   xmlns:xlink="http://www.w3.org/1999/xlink"
   xmlns:sodipodi="http://sodipodi.sourceforge.net/DTD/sodipodi-0.dtd"
   xmlns:inkscape="http://www.inkscape.org/namespaces/inkscape"
   width="32"
   height="32"
   id="svg3495"
   version="1.1"
   sodipodi:docname="format-text-italic.svg"
   inkscape:version="0.92.4 (5da689c313, 2019-01-14)">
  <sodipodi:namedview
     pagecolor="#ffffff"
     bordercolor="#666666"
     borderopacity="1"
     objecttolerance="10"
     gridtolerance="10"
     guidetolerance="10"
     inkscape:pageopacity="0"
     inkscape:pageshadow="2"
     inkscape:window-width="1920"
     inkscape:window-height="1017"
     id="namedview41"
     showgrid="false"
     inkscape:zoom="11.313709"
     inkscape:cx="16.078536"
     inkscape:cy="27.566084"
     inkscape:window-x="-8"
     inkscape:window-y="-8"
     inkscape:window-maximized="1"
     inkscape:current-layer="svg3495" />
  <defs
     id="defs3497">
    <clipPath
       clipPathUnits="userSpaceOnUse"
       id="clipPath3669">
      <path
         d="M 0,96 H 96 V 0 H 0 Z"
         id="path3671"
         inkscape:connector-curvature="0" />
    </clipPath>
    <linearGradient
       xlink:href="#linearGradient3821"
       id="linearGradient3793"
       x1="12"
       y1="22"
       x2="12"
       y2="-2"
       gradientUnits="userSpaceOnUse"
       gradientTransform="translate(0,26)" />
    <linearGradient
       id="linearGradient3821">
      <stop
         style="stop-color:#555555;stop-opacity:1;"
         offset="0"
         id="stop3823" />
      <stop
         style="stop-color:#666666;stop-opacity:1;"
         offset="1"
         id="stop3825" />
    </linearGradient>
    <linearGradient
       y2="-2"
       x2="12"
       y1="22"
       x1="12"
       gradientTransform="translate(158.75,53.484375)"
       gradientUnits="userSpaceOnUse"
       id="linearGradient3011"
       xlink:href="#linearGradient3821" />
    <radialGradient
       xlink:href="#linearGradient3952"
       id="radialGradient4051"
       gradientUnits="userSpaceOnUse"
       gradientTransform="matrix(1,0,0,0.75,-22,9.875)"
       cx="40"
       cy="43.5"
       fx="40"
       fy="43.5"
       r="2" />
    <linearGradient
       id="linearGradient3952">
      <stop
         style="stop-color:#000000;stop-opacity:1;"
         offset="0"
         id="stop3954" />
      <stop
         style="stop-color:#000000;stop-opacity:0;"
         offset="1"
         id="stop3956" />
    </linearGradient>
    <radialGradient
       xlink:href="#linearGradient3944"
       id="radialGradient4053"
       gradientUnits="userSpaceOnUse"
       gradientTransform="matrix(1,0,0,0.75,-4,9.875)"
       cx="9"
       cy="43.5"
       fx="9"
       fy="43.5"
       r="2" />
    <linearGradient
       id="linearGradient3944">
      <stop
         style="stop-color:#000000;stop-opacity:1;"
         offset="0"
         id="stop3946" />
      <stop
         style="stop-color:#000000;stop-opacity:0;"
         offset="1"
         id="stop3948" />
    </linearGradient>
    <linearGradient
       xlink:href="#linearGradient3960"
       id="linearGradient4055"
       gradientUnits="userSpaceOnUse"
       gradientTransform="translate(-9,-1)"
       x1="25"
       y1="45"
       x2="25"
       y2="42" />
    <linearGradient
       id="linearGradient3960">
      <stop
         style="stop-color:#000000;stop-opacity:0;"
         offset="0"
         id="stop3962" />
      <stop
         id="stop3970"
         offset="0.5"
         style="stop-color:#000000;stop-opacity:1;" />
      <stop
         style="stop-color:#000000;stop-opacity:0;"
         offset="1"
         id="stop3964" />
    </linearGradient>
    <linearGradient
       y2="42"
       x2="25"
       y1="45"
       x1="25"
       gradientTransform="translate(-9,-1)"
       gradientUnits="userSpaceOnUse"
       id="linearGradient4125"
       xlink:href="#linearGradient3960" />
    <radialGradient
       cx="7.6164861"
       cy="-24.340269"
       r="19.99999"
       fx="7.6164861"
       fy="-24.340269"
       id="radialGradient3896-0"
       xlink:href="#linearGradient2867-449-88-871-390-598-476-591-434-148-57-177-641-289-620-227-114-444-680-744-4-1-5"
       gradientUnits="userSpaceOnUse"
       gradientTransform="matrix(0,1.042301,1.315286,0,65.779613,21.79566)" />
    <linearGradient
       id="linearGradient2867-449-88-871-390-598-476-591-434-148-57-177-641-289-620-227-114-444-680-744-4-1-5">
      <stop
         id="stop5430-5-0-9"
         style="stop-color:#737373;stop-opacity:1"
         offset="0" />
      <stop
         id="stop5432-2-0-0"
         style="stop-color:#636363;stop-opacity:1"
         offset="0.26238" />
      <stop
         id="stop5434-9-6-8"
         style="stop-color:#4b4b4b;stop-opacity:1"
         offset="0.704952" />
      <stop
         id="stop5436-2-7-0"
         style="stop-color:#3f3f3f;stop-opacity:1"
         offset="1" />
    </linearGradient>
    <radialGradient
       xlink:href="#linearGradient2867-449-88-871-390-598-476-591-434-148-57-177-641-289-620-227-114-444-680-744-4-1-5"
       id="radialGradient4187"
       cx="12"
       cy="17.373016"
       fx="12"
       fy="17.373016"
       r="9.4238148"
       gradientTransform="matrix(-4.2445656,-7.8965862e-8,7.8965859e-8,-4.2445655,62.934786,98.740905)"
       gradientUnits="userSpaceOnUse" />
  </defs>
  <metadata
     id="metadata3500">
    <rdf:RDF>
      <cc:Work
         rdf:about="">
        <dc:format>image/svg+xml</dc:format>
        <dc:type
           rdf:resource="http://purl.org/dc/dcmitype/StillImage" />
        <dc:title></dc:title>
      </cc:Work>
    </rdf:RDF>
  </metadata>
  <g
     id="layer1"
     transform="matrix(1.4,0,0,1.4,-1.7,-35.6)">
    <path
       style="color:#000000;font-style:normal;font-variant:normal;font-weight:normal;font-stretch:normal;line-height:normal;font-family:Sans;-inkscape-font-specification:Sans;text-indent:0;text-align:start;text-decoration:none;text-decoration-line:none;letter-spacing:normal;word-spacing:normal;text-transform:none;writing-mode:lr-tb;direction:ltr;baseline-shift:baseline;text-anchor:start;display:inline;overflow:visible;visibility:visible;fill:#555555;fill-opacity:1;stroke:none;stroke-width:2;marker:none;enable-background:accumulate"
       d="m 7.5,28.5 v 0.5 3 0.5 H 8 17 c 0.217058,0 0.240181,0.04724 0.25,0.0625 0.0098,0.01526 0.04061,0.115653 -0.03125,0.375 L 16.8125,34.5 h -7.5 C 6.3095009,34.5 4.2092906,36.705015 3.59375,39 3.285578,40.148982 3.2978309,41.471009 4,42.625 4.7270099,43.819816 6.1722884,44.500002 7.6875,44.5 h 9 c 1.41124,-2e-5 1.90625,-1.40625 1.90625,-1.40625 V 43.0625 l 2.5,-9 C 21.831932,31.398368 19.860035,28.5 17,28.5 H 8 Z m 1.8125,10 h 6.375 l -0.5625,2 H 7.6875 c -0.2158531,0 -0.265684,-0.02884 -0.28125,-0.03125 -0.00538,-0.01823 0.00219,0.01741 0,-0.03125 C 7.4018726,40.340179 7.389688,40.178224 7.4375,40 7.6287002,39.287162 8.30098,38.5 9.3125,38.5 Z"
       id="path11643-3-5"
       inkscape:connector-curvature="0" />
    <path
       id="path3791"
       d="m 7.5,28.5 v 0.5 3 0.5 H 8 17 c 0.217058,0 0.240181,0.04724 0.25,0.0625 0.0098,0.01526 0.04061,0.115653 -0.03125,0.375 L 16.8125,34.5 h -7.5 C 6.3095009,34.5 4.2092906,36.705015 3.59375,39 3.285578,40.148982 3.2978309,41.471009 4,42.625 4.7270099,43.819816 6.1722884,44.500002 7.6875,44.5 h 9 c 1.41124,-2e-5 1.90625,-1.40625 1.90625,-1.40625 V 43.0625 l 2.5,-9 C 21.831932,31.398368 19.860035,28.5 17,28.5 H 8 Z m 1.8125,10 h 6.375 l -0.5625,2 H 7.6875 C 7.5302407,40.5 7.421816,40.47116 7.40625,40.46875 7.3888086,40.426171 7.3434966,40.162841 7.4375,40 7.522673,39.602452 8.30098,38.5 9.3125,38.5 Z"
       style="color:#000000;font-style:normal;font-variant:normal;font-weight:normal;font-stretch:normal;line-height:normal;font-family:Sans;-inkscape-font-specification:Sans;text-indent:0;text-align:start;text-decoration:none;text-decoration-line:none;letter-spacing:normal;word-spacing:normal;text-transform:none;writing-mode:lr-tb;direction:ltr;baseline-shift:baseline;text-anchor:start;display:inline;overflow:visible;visibility:visible;opacity:0.61000001;fill:url(#radialGradient4187);fill-opacity:1;stroke:#000000;stroke-width:0.71428573;stroke-miterlimit:4;stroke-dasharray:none;stroke-opacity:1;marker:none;enable-background:accumulate"
       inkscape:connector-curvature="0"
       sodipodi:nodetypes="cccccscccscscccccsccsccsccs" />
    <path
       style="color:#000000;font-style:normal;font-variant:normal;font-weight:normal;font-stretch:normal;line-height:normal;font-family:Sans;-inkscape-font-specification:Sans;text-indent:0;text-align:start;text-decoration:none;text-decoration-line:none;letter-spacing:normal;word-spacing:normal;text-transform:none;writing-mode:lr-tb;direction:ltr;baseline-shift:baseline;text-anchor:start;display:inline;overflow:visible;visibility:visible;opacity:0.2;fill:#ffffff;fill-opacity:1;stroke:none;stroke-width:1.42857146;stroke-miterlimit:4;stroke-dasharray:none;marker:none;enable-background:accumulate"
       d="m 8,29 v 1 h 9 c 1.988264,0 3.487343,1.604776 3.71875,3.4375 C 21.012943,31.234832 19.342189,29 17,29 Z m 9.625,4.25 -0.34375,1.375 L 17.1875,35 h -0.375 -7.5 c -2.7582421,0 -4.6874201,2.027474 -5.25,4.125 -0.1469784,0.547991 -0.1888275,1.142229 -0.125,1.71875 C 3.96556,40.602062 4.000248,40.3571 4.0625,40.125 4.6250799,38.027474 6.5542579,36 9.3125,36 h 7.5 0.375 l 0.09375,-0.375 0.40625,-1.5625 c 0.04527,-0.163393 0.06239,-0.289727 0.0625,-0.40625 5.4e-5,-0.05826 0.01094,-0.10195 0,-0.15625 -0.01094,-0.0543 -0.02097,-0.105422 -0.09375,-0.21875 0.0049,0.0076 -0.02649,-0.02017 -0.03125,-0.03125 z M 16.0625,39 15.59375,40.625 15.5,41 H 15.125 7.6875 C 7.5830707,41 7.3858841,41.00099 7.3285412,41.04139 6.6791985,41.498872 7.0494169,41.753882 7.3147323,41.943638 7.4202829,42.019129 7.5717323,42 7.6875,42 H 15.125 15.5 l 0.09375,-0.375 0.5625,-2 0.1875,-0.625 z"
       id="path3802"
       inkscape:connector-curvature="0"
       sodipodi:nodetypes="ccscscccccsccsscccccsccccccsssscccccc" />
    <g
       id="g4046"
       transform="translate(0,2.5)">
      <path
         id="rect3940"
         d="m 18,41 v 3 h 0.5 C 19.331,44 20,43.331 20,42.5 20,41.669 19.331,41 18.5,41 Z"
         style="opacity:0.2;fill:url(#radialGradient4051);fill-opacity:1;stroke:none"
         inkscape:connector-curvature="0" />
      <path
         id="rect3942"
         d="M 4.40625,41 C 3.6271875,41 3,41.627187 3,42.40625 v 0.1875 C 3,43.372813 3.6271875,44 4.40625,44 H 5 v -3 z"
         style="opacity:0.2;fill:url(#radialGradient4053);fill-opacity:1;stroke:none"
         inkscape:connector-curvature="0" />
      <path
         id="rect3938"
         d="m 5,41 h 13 v 3 H 5 Z"
         style="opacity:0.2;fill:url(#linearGradient4125);fill-opacity:1;stroke:none"
         inkscape:connector-curvature="0" />
    </g>
  </g>
</svg>
