<?xml version="1.0" encoding="UTF-8" standalone="no"?>
<svg
   xmlns:dc="http://purl.org/dc/elements/1.1/"
   xmlns:cc="http://creativecommons.org/ns#"
   xmlns:rdf="http://www.w3.org/1999/02/22-rdf-syntax-ns#"
   xmlns:svg="http://www.w3.org/2000/svg"
   xmlns="http://www.w3.org/2000/svg"
   xmlns:xlink="http://www.w3.org/1999/xlink"
   xmlns:sodipodi="http://sodipodi.sourceforge.net/DTD/sodipodi-0.dtd"
   xmlns:inkscape="http://www.inkscape.org/namespaces/inkscape"
   width="32"
   height="32"
   id="svg3495"
   version="1.1"
   sodipodi:docname="format-text-italic.svg"
   inkscape:version="0.92.4 (5da689c313, 2019-01-14)">
  <sodipodi:namedview
     pagecolor="#ffffff"
     bordercolor="#666666"
     borderopacity="1"
     objecttolerance="10"
     gridtolerance="10"
     guidetolerance="10"
     inkscape:pageopacity="0"
     inkscape:pageshadow="2"
     inkscape:window-width="2880"
     inkscape:window-height="1706"
     id="namedview41"
     showgrid="false"
     inkscape:zoom="11.313709"
     inkscape:cx="-3.3227054"
     inkscape:cy="27.566084"
     inkscape:window-x="-11"
     inkscape:window-y="-11"
     inkscape:window-maximized="1"
     inkscape:current-layer="svg3495" />
  <defs
     id="defs3497">
    <clipPath
       clipPathUnits="userSpaceOnUse"
       id="clipPath3669">
      <path
         d="M 0,96 H 96 V 0 H 0 Z"
         id="path3671"
         inkscape:connector-curvature="0" />
    </clipPath>
    <linearGradient
       xlink:href="#linearGradient3821"
       id="linearGradient3793"
       x1="12"
       y1="22"
       x2="12"
       y2="-2"
       gradientUnits="userSpaceOnUse"
       gradientTransform="translate(0,26)" />
    <linearGradient
       id="linearGradient3821">
      <stop
         style="stop-color:#555555;stop-opacity:1;"
         offset="0"
         id="stop3823" />
      <stop
         style="stop-color:#666666;stop-opacity:1;"
         offset="1"
         id="stop3825" />
    </linearGradient>
    <linearGradient
       y2="-2"
       x2="12"
       y1="22"
       x1="12"
       gradientTransform="translate(158.75,53.484375)"
       gradientUnits="userSpaceOnUse"
       id="linearGradient3011"
       xlink:href="#linearGradient3821" />
    <radialGradient
       xlink:href="#linearGradient3952"
       id="radialGradient4051"
       gradientUnits="userSpaceOnUse"
       gradientTransform="matrix(1,0,0,0.75,-22,9.875)"
       cx="40"
       cy="43.5"
       fx="40"
       fy="43.5"
       r="2" />
    <linearGradient
       id="linearGradient3952">
      <stop
         style="stop-color:#000000;stop-opacity:1;"
         offset="0"
         id="stop3954" />
      <stop
         style="stop-color:#000000;stop-opacity:0;"
         offset="1"
         id="stop3956" />
    </linearGradient>
    <radialGradient
       xlink:href="#linearGradient3944"
       id="radialGradient4053"
       gradientUnits="userSpaceOnUse"
       gradientTransform="matrix(1,0,0,0.75,-4,9.875)"
       cx="9"
       cy="43.5"
       fx="9"
       fy="43.5"
       r="2" />
    <linearGradient
       id="linearGradient3944">
      <stop
         style="stop-color:#000000;stop-opacity:1;"
         offset="0"
         id="stop3946" />
      <stop
         style="stop-color:#000000;stop-opacity:0;"
         offset="1"
         id="stop3948" />
    </linearGradient>
    <linearGradient
       xlink:href="#linearGradient3960"
       id="linearGradient4055"
       gradientUnits="userSpaceOnUse"
       gradientTransform="translate(-9,-1)"
       x1="25"
       y1="45"
       x2="25"
       y2="42" />
    <linearGradient
       id="linearGradient3960">
      <stop
         style="stop-color:#000000;stop-opacity:0;"
         offset="0"
         id="stop3962" />
      <stop
         id="stop3970"
         offset="0.5"
         style="stop-color:#000000;stop-opacity:1;" />
      <stop
         style="stop-color:#000000;stop-opacity:0;"
         offset="1"
         id="stop3964" />
    </linearGradient>
    <linearGradient
       y2="42"
       x2="25"
       y1="45"
       x1="25"
       gradientTransform="translate(-9,-1)"
       gradientUnits="userSpaceOnUse"
       id="linearGradient4125"
       xlink:href="#linearGradient3960" />
    <radialGradient
       cx="7.6164861"
       cy="-24.340269"
       r="19.99999"
       fx="7.6164861"
       fy="-24.340269"
       id="radialGradient3896-0"
       xlink:href="#linearGradient2867-449-88-871-390-598-476-591-434-148-57-177-641-289-620-227-114-444-680-744-4-1-5"
       gradientUnits="userSpaceOnUse"
       gradientTransform="matrix(0,1.042301,1.315286,0,65.779613,21.79566)" />
    <linearGradient
       id="linearGradient2867-449-88-871-390-598-476-591-434-148-57-177-641-289-620-227-114-444-680-744-4-1-5">
      <stop
         id="stop5430-5-0-9"
         style="stop-color:#737373;stop-opacity:1"
         offset="0" />
      <stop
         id="stop5432-2-0-0"
         style="stop-color:#636363;stop-opacity:1"
         offset="0.26238" />
      <stop
         id="stop5434-9-6-8"
         style="stop-color:#4b4b4b;stop-opacity:1"
         offset="0.704952" />
      <stop
         id="stop5436-2-7-0"
         style="stop-color:#3f3f3f;stop-opacity:1"
         offset="1" />
    </linearGradient>
    <radialGradient
       xlink:href="#linearGradient2867-449-88-871-390-598-476-591-434-148-57-177-641-289-620-227-114-444-680-744-4-1-5"
       id="radialGradient4187"
       cx="12"
       cy="17.373016"
       fx="12"
       fy="17.373016"
       r="9.4238148"
       gradientTransform="matrix(-5.0510331,-9.3969376e-8,9.3969372e-8,-5.0510329,75.776092,89.739177)"
       gradientUnits="userSpaceOnUse" />
  </defs>
  <metadata
     id="metadata3500">
    <rdf:RDF>
      <cc:Work
         rdf:about="">
        <dc:format>image/svg+xml</dc:format>
        <dc:type
           rdf:resource="http://purl.org/dc/dcmitype/StillImage" />
        <dc:title />
      </cc:Work>
    </rdf:RDF>
  </metadata>
  <path
     inkscape:connector-curvature="0"
     id="path11643-3-5"
     d="m 9.8086971,6.1525 v 0.595 3.57 0.595 h 0.5949999 10.71 c 0.258299,0 0.285815,0.05622 0.2975,0.07437 0.01166,0.01816 0.04833,0.137627 -0.03719,0.44625 l -0.483435,1.85938 h -8.925 c -3.5735688,0 -6.0728191,2.623968 -6.8053124,5.355 -0.3667247,1.367289 -0.3521437,2.940501 0.4834375,4.31375 0.8651418,1.421831 2.5850232,2.231252 4.3881249,2.23125 h 10.71 c 1.679376,-2.4e-5 2.268438,-1.673438 2.268438,-1.673438 v -0.03719 l 2.975,-10.71 C 26.863696,9.6015579 24.517139,6.1525 21.113697,6.1525 h -10.71 z m 2.1568749,11.9 h 7.58625 l -0.669375,2.38 h -8.850625 c -0.2568651,0 -0.3161639,-0.03432 -0.3346874,-0.03719 -0.0064,-0.02169 0.00261,0.02072 0,-0.03719 -0.00521,-0.115812 -0.019709,-0.308538 0.037187,-0.520625 0.2275282,-0.848277 1.0275414,-1.785 2.2312504,-1.785 z"
     style="color:#000000;font-style:normal;font-variant:normal;font-weight:normal;font-stretch:normal;line-height:normal;font-family:Sans;-inkscape-font-specification:Sans;text-indent:0;text-align:start;text-decoration:none;text-decoration-line:none;letter-spacing:normal;word-spacing:normal;text-transform:none;writing-mode:lr-tb;direction:ltr;baseline-shift:baseline;text-anchor:start;display:inline;overflow:visible;visibility:visible;fill:#555555;fill-opacity:1;stroke:none;stroke-width:1;stroke-miterlimit:4;stroke-dasharray:none;marker:none;enable-background:accumulate" />
  <path
     sodipodi:nodetypes="cccccscccscscccccsccsccsccs"
     inkscape:connector-curvature="0"
     style="color:#000000;font-style:normal;font-variant:normal;font-weight:normal;font-stretch:normal;line-height:normal;font-family:Sans;-inkscape-font-specification:Sans;text-indent:0;text-align:start;text-decoration:none;text-decoration-line:none;letter-spacing:normal;word-spacing:normal;text-transform:none;writing-mode:lr-tb;direction:ltr;baseline-shift:baseline;text-anchor:start;display:inline;overflow:visible;visibility:visible;opacity:0.61000001;fill:url(#radialGradient4187);fill-opacity:1;stroke:#000000;stroke-width:1;stroke-miterlimit:4;stroke-dasharray:none;stroke-opacity:1;marker:none;enable-background:accumulate"
     d="m 9.8086971,6.1525 v 0.595 3.57 0.595 h 0.5949999 10.71 c 0.258299,0 0.285815,0.05622 0.2975,0.07437 0.01166,0.01816 0.04833,0.137627 -0.03719,0.44625 l -0.483435,1.85938 h -8.925 c -3.5735688,0 -6.0728191,2.623968 -6.8053124,5.355 -0.3667247,1.367289 -0.3521437,2.940501 0.4834375,4.31375 0.8651418,1.421831 2.5850232,2.231252 4.3881249,2.23125 h 10.71 c 1.679376,-2.4e-5 2.268438,-1.673438 2.268438,-1.673438 v -0.03719 l 2.975,-10.71 C 26.863696,9.6015579 24.517139,6.1525 21.113697,6.1525 h -10.71 z m 2.1568749,11.9 h 7.58625 l -0.669375,2.38 h -8.850625 c -0.1871385,0 -0.3161639,-0.03432 -0.3346874,-0.03719 -0.020755,-0.05067 -0.074677,-0.364031 0.037187,-0.557812 0.1013559,-0.473082 1.0275414,-1.785 2.2312504,-1.785 z"
     id="path3791" />
  <path
     sodipodi:nodetypes="ccscscccccsccsscccccsccccccsssscccccc"
     inkscape:connector-curvature="0"
     id="path3802"
     d="m 10.403697,6.7475 v 1.19 h 10.71 c 2.366034,0 4.149938,1.9096834 4.425313,4.090625 C 25.889099,9.4069501 23.900902,6.7475 21.113697,6.7475 Z m 11.45375,5.0575 -0.409062,1.63625 -0.111563,0.44625 h -0.44625 -8.925 c -3.282308,0 -5.5780298,2.412694 -6.2474999,4.90875 -0.1749043,0.652109 -0.2247047,1.359253 -0.14875,2.045312 0.033391,-0.287608 0.07467,-0.579113 0.14875,-0.855312 C 6.3875422,17.490194 8.683264,15.0775 11.965572,15.0775 h 8.925 0.44625 l 0.111563,-0.44625 0.483437,-1.859375 c 0.05387,-0.194438 0.07424,-0.344775 0.07437,-0.483438 6.4e-5,-0.06933 0.01302,-0.12132 0,-0.185937 -0.01302,-0.06462 -0.02495,-0.125452 -0.111562,-0.260313 0.0058,0.009 -0.03152,-0.024 -0.03719,-0.03719 z m -1.859375,6.8425 -0.557812,1.93375 -0.111563,0.44625 h -0.44625 -8.850625 c -0.1242708,0 -0.3589228,0.0012 -0.4271609,0.04925 -0.7727178,0.544404 -0.3321579,0.847866 -0.016433,1.073675 0.1256053,0.08984 0.30583,0.06707 0.4435939,0.06707 h 8.850625 0.44625 l 0.111563,-0.44625 0.669375,-2.38 0.223125,-0.74375 z"
     style="color:#000000;font-style:normal;font-variant:normal;font-weight:normal;font-stretch:normal;line-height:normal;font-family:Sans;-inkscape-font-specification:Sans;text-indent:0;text-align:start;text-decoration:none;text-decoration-line:none;letter-spacing:normal;word-spacing:normal;text-transform:none;writing-mode:lr-tb;direction:ltr;baseline-shift:baseline;text-anchor:start;display:inline;overflow:visible;visibility:visible;opacity:0.2;fill:#ffffff;fill-opacity:1;stroke:none;stroke-width:1;stroke-miterlimit:4;stroke-dasharray:none;marker:none;enable-background:accumulate" />
  <g
     style="stroke-width:0.84033614;stroke-miterlimit:4;stroke-dasharray:none"
     transform="matrix(1.19,0,0,1.19,0.8836971,-24.7875)"
     id="g4046">
    <path
       inkscape:connector-curvature="0"
       style="opacity:0.2;fill:url(#radialGradient4051);fill-opacity:1;stroke:none;stroke-width:0.84033614;stroke-miterlimit:4;stroke-dasharray:none"
       d="m 18,41 v 3 h 0.5 C 19.331,44 20,43.331 20,42.5 20,41.669 19.331,41 18.5,41 Z"
       id="rect3940" />
    <path
       inkscape:connector-curvature="0"
       style="opacity:0.2;fill:url(#radialGradient4053);fill-opacity:1;stroke:none;stroke-width:0.84033614;stroke-miterlimit:4;stroke-dasharray:none"
       d="M 4.40625,41 C 3.6271875,41 3,41.627187 3,42.40625 v 0.1875 C 3,43.372813 3.6271875,44 4.40625,44 H 5 v -3 z"
       id="rect3942" />
    <path
       inkscape:connector-curvature="0"
       style="opacity:0.2;fill:url(#linearGradient4125);fill-opacity:1;stroke:none;stroke-width:0.84033614;stroke-miterlimit:4;stroke-dasharray:none"
       d="m 5,41 h 13 v 3 H 5 Z"
       id="rect3938" />
  </g>
</svg>
