<?xml version="1.0" encoding="UTF-8" standalone="no"?>
<svg
   xmlns:dc="http://purl.org/dc/elements/1.1/"
   xmlns:cc="http://creativecommons.org/ns#"
   xmlns:rdf="http://www.w3.org/1999/02/22-rdf-syntax-ns#"
   xmlns:svg="http://www.w3.org/2000/svg"
   xmlns="http://www.w3.org/2000/svg"
   xmlns:xlink="http://www.w3.org/1999/xlink"
   xmlns:sodipodi="http://sodipodi.sourceforge.net/DTD/sodipodi-0.dtd"
   xmlns:inkscape="http://www.inkscape.org/namespaces/inkscape"
   version="1.1"
   width="32"
   height="32"
   id="svg4524"
   sodipodi:docname="go-bottom.svg"
   inkscape:version="0.92.4 (5da689c313, 2019-01-14)">
  <sodipodi:namedview
     pagecolor="#ffffff"
     bordercolor="#666666"
     borderopacity="1"
     objecttolerance="10"
     gridtolerance="10"
     guidetolerance="10"
     inkscape:pageopacity="0"
     inkscape:pageshadow="2"
     inkscape:window-width="1920"
     inkscape:window-height="1017"
     id="namedview33"
     showgrid="false"
     inkscape:zoom="27.812867"
     inkscape:cx="4.6839066"
     inkscape:cy="2.7980318"
     inkscape:window-x="-8"
     inkscape:window-y="-8"
     inkscape:window-maximized="1"
     inkscape:current-layer="svg4524" />
  <defs
     id="defs4526">
    <linearGradient
       id="linearGradient2867-449-88-871-390-598-476-591-434-148-57-177-641-289-620-227-114-444-680-744-4-1">
      <stop
         id="stop5430-5-0"
         style="stop-color:#737373;stop-opacity:1"
         offset="0" />
      <stop
         id="stop5432-2-0"
         style="stop-color:#636363;stop-opacity:1"
         offset="0.26238" />
      <stop
         id="stop5434-9-6"
         style="stop-color:#4b4b4b;stop-opacity:1"
         offset="0.704952" />
      <stop
         id="stop5436-2-7"
         style="stop-color:#3f3f3f;stop-opacity:1"
         offset="1" />
    </linearGradient>
    <radialGradient
       cx="16.202444"
       cy="-19.005346"
       r="19.99999"
       fx="16.202444"
       fy="-19.005346"
       id="radialGradient3769"
       xlink:href="#linearGradient2867-449-88-871-390-598-476-591-434-148-57-177-641-289-620-227-114-444-680-744-4-1"
       gradientUnits="userSpaceOnUse"
       gradientTransform="matrix(0,1.5000006,-1.5241254,0,-16.959842,-23.077676)" />
    <radialGradient
       cx="16.202444"
       cy="-19.005346"
       r="19.99999"
       fx="16.202444"
       fy="-19.005346"
       id="radialGradient3896"
       xlink:href="#linearGradient2867-449-88-871-390-598-476-591-434-148-57-177-641-289-620-227-114-444-680-744-4-1"
       gradientUnits="userSpaceOnUse"
       gradientTransform="matrix(0,1.5000006,-1.5241254,0,-17.131885,-23.077676)" />
    <radialGradient
       cx="22.818085"
       cy="-25.988077"
       r="19.99999"
       fx="22.818085"
       fy="-25.988077"
       id="radialGradient3896-0"
       xlink:href="#linearGradient2867-449-88-871-390-598-476-591-434-148-57-177-641-289-620-227-114-444-680-744-4-1-5"
       gradientUnits="userSpaceOnUse"
       gradientTransform="matrix(-2.6042273,0,0,-2.2861881,74.174881,-62.844333)" />
    <linearGradient
       id="linearGradient2867-449-88-871-390-598-476-591-434-148-57-177-641-289-620-227-114-444-680-744-4-1-5">
      <stop
         id="stop5430-5-0-9"
         style="stop-color:#737373;stop-opacity:1"
         offset="0" />
      <stop
         id="stop5432-2-0-0"
         style="stop-color:#636363;stop-opacity:1"
         offset="0.26238" />
      <stop
         id="stop5434-9-6-8"
         style="stop-color:#4b4b4b;stop-opacity:1"
         offset="0.704952" />
      <stop
         id="stop5436-2-7-0"
         style="stop-color:#3f3f3f;stop-opacity:1"
         offset="1" />
    </linearGradient>
    <radialGradient
       cx="23.385405"
       cy="-0.63141304"
       r="19.99999"
       fx="23.385405"
       fy="-0.63141304"
       id="radialGradient3031"
       xlink:href="#linearGradient2867-449-88-871-390-598-476-591-434-148-57-177-641-289-620-227-114-444-680-744-4-1-9"
       gradientUnits="userSpaceOnUse"
       gradientTransform="matrix(-2.2500009,0,0,-2.2861881,70.124801,-2.7286271)" />
    <linearGradient
       id="linearGradient2867-449-88-871-390-598-476-591-434-148-57-177-641-289-620-227-114-444-680-744-4-1-9">
      <stop
         id="stop5430-5-0-3"
         style="stop-color:#737373;stop-opacity:1"
         offset="0" />
      <stop
         id="stop5432-2-0-5"
         style="stop-color:#636363;stop-opacity:1"
         offset="0.26238" />
      <stop
         id="stop5434-9-6-0"
         style="stop-color:#4b4b4b;stop-opacity:1"
         offset="0.704952" />
      <stop
         id="stop5436-2-7-9"
         style="stop-color:#3f3f3f;stop-opacity:1"
         offset="1" />
    </linearGradient>
  </defs>
  <metadata
     id="metadata4529">
    <rdf:RDF>
      <cc:Work
         rdf:about="">
        <dc:format>image/svg+xml</dc:format>
        <dc:type
           rdf:resource="http://purl.org/dc/dcmitype/StillImage" />
        <dc:title></dc:title>
      </cc:Work>
    </rdf:RDF>
  </metadata>
  <path
     d="m 3.9803292,13.503294 c -0.0147,0.368685 0.1506718,0.713172 0.4218765,0.984376 L 14.855329,25.175173 c 0.220352,0.220352 0.475406,0.358011 0.75,0.421872 0.141045,0.03282 0.281039,0.05594 0.421875,0.04687 0.04543,0.0025 0.09486,0.0018 0.140625,0 0.08247,-0.01425 0.155993,-0.01764 0.23438,-0.04687 0.283155,-0.06097 0.57006,-0.19506 0.796878,-0.421873 L 27.652209,14.487667 c 0.542406,-0.542407 0.493855,-1.428018 -0.09375,-2.015625 L 25.449085,10.362666 C 24.861478,9.77506 23.92899,9.726511 23.386585,10.268916 L 19.02721,14.628288 V 4.7845406 c 0,-0.8309985 -0.669001,-1.4999985 -1.5,-1.5 l -3,3e-6 c -0.830997,-1.5e-6 -1.499999,0.6689985 -1.5,1.5 l -2e-6,9.8906204 -4.4062472,-4.406248 C 8.0785512,9.726514 7.1929388,9.775065 6.6053325,10.362666 l -2.1562547,2.109373 c -0.293802,0.293802 -0.4539996,0.662568 -0.4687501,1.03125 z"
     id="rect3811-1-7"
     style="color:#000000;display:inline;overflow:visible;visibility:visible;opacity:0.35;fill:#ffffff;fill-opacity:1;fill-rule:nonzero;stroke:none;stroke-width:1;marker:none;enable-background:accumulate;stroke-miterlimit:4;stroke-dasharray:none"
     inkscape:connector-curvature="0" />
  <path
     d="m 3.9803293,12.003853 c -0.0147,0.368684 0.1506729,0.713172 0.4218744,0.984375 L 14.855328,23.67573 c 0.220354,0.220353 0.475407,0.358012 0.75,0.421872 0.14103,0.0328 0.281043,0.05594 0.421875,0.04687 0.04544,0.0025 0.09486,0.0018 0.140625,0 0.08247,-0.01425 0.155992,-0.01764 0.234378,-0.04687 0.283156,-0.06097 0.57006,-0.19506 0.796879,-0.421875 L 27.652206,12.988224 c 0.542406,-0.542406 0.493857,-1.428018 -0.09375,-2.015624 L 25.449079,8.863225 C 24.861474,8.27562 23.928987,8.227072 23.386581,8.769475 l -4.359378,4.359371 3e-6,-9.8437459 c -2e-6,-0.831 -0.669002,-1.5 -1.500002,-1.5000015 l -2.999997,3e-6 c -0.831,1.5e-6 -1.5,0.6689985 -1.5,1.4999985 V 13.175722 L 8.6209571,8.769477 C 8.078552,8.227072 7.1929383,8.27562 6.6053334,8.863225 l -2.1562565,2.109377 c -0.2938038,0.2938 -0.4539993,0.662566 -0.4687498,1.03125 z"
     id="rect3811-1"
     style="color:#000000;display:inline;overflow:visible;visibility:visible;fill:url(#radialGradient3896-0);fill-opacity:1;fill-rule:nonzero;stroke:none;stroke-width:1.5;marker:none;enable-background:accumulate"
     inkscape:connector-curvature="0" />
  <path
     d="m 4.719294,12.051231 c -0.0051,0.127695 0.03231,0.266689 0.1874977,0.421873 l 10.4531243,10.6875 c 0.126735,0.126735 0.278281,0.200981 0.421878,0.234372 0.11034,0.02567 0.159384,0.0018 0.187503,0 a 0.74555623,0.74555623 0 0 1 0.04687,2e-6 c 0.06785,-0.0117 0.03289,0.002 0.04687,3e-6 0.0078,4.33e-4 0.01485,0.0013 0.04687,0 a 0.74555623,0.74555623 0 0 1 0.140625,-0.04687 c 0.164563,-0.03544 0.313432,-0.07905 0.421863,-0.187491 L 27.125538,12.473131 c 0.239785,-0.239785 0.243552,-0.647077 -0.09375,-0.984376 L 24.922429,9.379374 c -0.323278,-0.32328 -0.806649,-0.31835 -1.03125,-0.09375 l -4.359375,4.35937 a 0.74555623,0.74555623 0 0 1 -1.265626,-0.515631 l -3e-6,-9.8437469 c 0,-0.4308975 -0.319103,-0.7500015 -0.749999,-0.75 l -3.00001,-7.5e-6 c -0.430898,0 -0.749999,0.3191025 -0.749999,0.75 v 9.8906224 a 0.74555623,0.74555623 0 0 1 -1.265624,0.515623 L 8.0942937,9.285607 C 7.8545093,9.045826 7.4472162,9.042058 7.1099189,9.379357 l -2.1562522,2.109371 c -0.1690695,0.169069 -0.2274538,0.389416 -0.2343742,0.562503 z"
     id="path3996"
     style="color:#000000;display:inline;overflow:visible;visibility:visible;opacity:0.1;fill:none;stroke:#000000;stroke-width:1;stroke-linecap:round;stroke-linejoin:round;stroke-miterlimit:4;stroke-dasharray:none;stroke-dashoffset:0;stroke-opacity:1;marker:none;enable-background:accumulate"
     inkscape:connector-curvature="0" />
  <path
     d="m 6.5236932,12.077322 9.5156238,9.75 9.515623,-9.703127 -1.171876,-1.171876 -3.796875,3.796876 A 2.1928817,2.1928817 0 0 1 16.836192,13.20232 V 4.0616966 h -1.59375 v 9.1874984 a 2.1928817,2.1928817 0 0 1 -3.749997,1.546878 l -3.843751,-3.84375 -1.125,1.125 z"
     id="path3996-3"
     style="color:#000000;display:inline;overflow:visible;visibility:visible;opacity:0.02999998;fill:none;stroke:#000000;stroke-width:1;stroke-linecap:butt;stroke-linejoin:miter;stroke-miterlimit:4;stroke-dasharray:none;stroke-dashoffset:0;stroke-opacity:1;marker:none;enable-background:accumulate"
     inkscape:connector-curvature="0" />
  <path
     d="m 25.007622,26.835768 c 0,-0.606 -0.519,-1.125 -1.125,-1.125 H 8.1326214 c -0.6059985,0 -1.125,0.519 -1.125,1.125 v 2.25 c 0,0.605998 0.5190015,1.125 1.125,1.125 0.00255,0.0093 15.7500006,0 15.7500006,0 0.606,0 1.125,-0.519002 1.125,-1.125 z"
     id="path3999-9"
     style="color:#000000;display:inline;overflow:visible;visibility:visible;opacity:0.35;fill:#ffffff;fill-opacity:1;fill-rule:nonzero;stroke:none;stroke-width:1;marker:none;enable-background:accumulate;stroke-miterlimit:4;stroke-dasharray:none"
     inkscape:connector-curvature="0" />
  <path
     d="M 24.282445,27.229159 V 26.436976 H 9.2341299 v 0.798314 l 15.0483151,-0.0062 z"
     id="path2343"
     style="opacity:0.02999998;fill:none;stroke:#000000;stroke-width:1.45168638;stroke-linecap:square;stroke-linejoin:miter;stroke-miterlimit:4;stroke-dasharray:none;stroke-dashoffset:0.69999993;stroke-opacity:1"
     inkscape:connector-curvature="0" />
  <path
     d="m 25.007955,25.336134 c 0,-0.606 -0.519002,-1.125 -1.125,-1.125 H 8.1332874 c -0.6059985,0 -1.125,0.519 -1.125,1.125 v 2.25 c 0,0.605998 0.5190015,1.125 1.125,1.125 -0.105495,0 15.4541296,0 15.7496676,0 0.605998,0 1.125,-0.519002 1.125,-1.125 z"
     id="path3999"
     style="color:#000000;display:inline;overflow:visible;visibility:visible;fill:url(#radialGradient3031);fill-opacity:1;fill-rule:nonzero;stroke:none;stroke-width:1.5;marker:none;enable-background:accumulate"
     inkscape:connector-curvature="0" />
  <path
     d="m 24.257955,25.336134 c 0,-0.20775 -0.16725,-0.375 -0.375,-0.375 H 8.1332874 c -0.20775,0 -0.375,0.16725 -0.375,0.375 v 2.25 c 0,0.20775 0.16725,0.375 0.375,0.375 0.08178,0 15.7496676,0 15.7496676,0 0.20775,0 0.375,-0.16725 0.375,-0.375 z"
     id="rect3868"
     style="color:#000000;display:inline;overflow:visible;visibility:visible;opacity:0.1;fill:none;stroke:#000000;stroke-width:1;stroke-linecap:round;stroke-linejoin:round;stroke-miterlimit:4;stroke-dasharray:none;stroke-opacity:1;marker:none;enable-background:accumulate"
     inkscape:connector-curvature="0" />
  <path
     d="M 22.711455,26.508009 H 9.3051624 v 1.40625 H 22.711455 Z"
     id="path4060"
     style="color:#000000;display:inline;overflow:visible;visibility:visible;opacity:0.02999998;fill:none;stroke:#000000;stroke-width:1;stroke-linecap:butt;stroke-linejoin:miter;stroke-miterlimit:4;stroke-dasharray:none;stroke-opacity:1;marker:none;enable-background:accumulate"
     inkscape:connector-curvature="0" />
</svg>
