<?xml version="1.0" encoding="UTF-8" standalone="no"?>
<svg
   xmlns:dc="http://purl.org/dc/elements/1.1/"
   xmlns:cc="http://creativecommons.org/ns#"
   xmlns:rdf="http://www.w3.org/1999/02/22-rdf-syntax-ns#"
   xmlns:svg="http://www.w3.org/2000/svg"
   xmlns="http://www.w3.org/2000/svg"
   xmlns:xlink="http://www.w3.org/1999/xlink"
   xmlns:sodipodi="http://sodipodi.sourceforge.net/DTD/sodipodi-0.dtd"
   xmlns:inkscape="http://www.inkscape.org/namespaces/inkscape"
   version="1.1"
   width="32"
   height="32"
   id="svg4524"
   sodipodi:docname="go-down.svg"
   inkscape:version="0.92.4 (5da689c313, 2019-01-14)">
  <sodipodi:namedview
     pagecolor="#ffffff"
     bordercolor="#666666"
     borderopacity="1"
     objecttolerance="10"
     gridtolerance="10"
     guidetolerance="10"
     inkscape:pageopacity="0"
     inkscape:pageshadow="2"
     inkscape:window-width="1920"
     inkscape:window-height="1017"
     id="namedview22"
     showgrid="false"
     inkscape:zoom="9.8333333"
     inkscape:cx="-0.66101695"
     inkscape:cy="12"
     inkscape:window-x="-8"
     inkscape:window-y="-8"
     inkscape:window-maximized="1"
     inkscape:current-layer="svg4524" />
  <defs
     id="defs4526">
    <linearGradient
       id="linearGradient2867-449-88-871-390-598-476-591-434-148-57-177-641-289-620-227-114-444-680-744-4-1">
      <stop
         id="stop5430-5-0"
         style="stop-color:#737373;stop-opacity:1"
         offset="0" />
      <stop
         id="stop5432-2-0"
         style="stop-color:#636363;stop-opacity:1"
         offset="0.26238" />
      <stop
         id="stop5434-9-6"
         style="stop-color:#4b4b4b;stop-opacity:1"
         offset="0.704952" />
      <stop
         id="stop5436-2-7"
         style="stop-color:#3f3f3f;stop-opacity:1"
         offset="1" />
    </linearGradient>
    <radialGradient
       cx="16.202444"
       cy="-19.005346"
       r="19.99999"
       fx="16.202444"
       fy="-19.005346"
       id="radialGradient3769"
       xlink:href="#linearGradient2867-449-88-871-390-598-476-591-434-148-57-177-641-289-620-227-114-444-680-744-4-1"
       gradientUnits="userSpaceOnUse"
       gradientTransform="matrix(0,1.5000006,-1.5241254,0,-16.959842,-23.077676)" />
    <radialGradient
       cx="16.202444"
       cy="-19.005346"
       r="19.99999"
       fx="16.202444"
       fy="-19.005346"
       id="radialGradient3896"
       xlink:href="#linearGradient2867-449-88-871-390-598-476-591-434-148-57-177-641-289-620-227-114-444-680-744-4-1"
       gradientUnits="userSpaceOnUse"
       gradientTransform="matrix(0,1.5000006,-1.5241254,0,-17.131885,-23.077676)" />
    <radialGradient
       cx="22.818085"
       cy="-25.988077"
       r="19.99999"
       fx="22.818085"
       fy="-25.988077"
       id="radialGradient3896-0"
       xlink:href="#linearGradient2867-449-88-871-390-598-476-591-434-148-57-177-641-289-620-227-114-444-680-744-4-1-5"
       gradientUnits="userSpaceOnUse"
       gradientTransform="matrix(-2.6042273,0,0,-2.2861881,74.174881,-60.559832)" />
    <linearGradient
       id="linearGradient2867-449-88-871-390-598-476-591-434-148-57-177-641-289-620-227-114-444-680-744-4-1-5">
      <stop
         id="stop5430-5-0-9"
         style="stop-color:#737373;stop-opacity:1"
         offset="0" />
      <stop
         id="stop5432-2-0-0"
         style="stop-color:#636363;stop-opacity:1"
         offset="0.26238" />
      <stop
         id="stop5434-9-6-8"
         style="stop-color:#4b4b4b;stop-opacity:1"
         offset="0.704952" />
      <stop
         id="stop5436-2-7-0"
         style="stop-color:#3f3f3f;stop-opacity:1"
         offset="1" />
    </linearGradient>
  </defs>
  <metadata
     id="metadata4529">
    <rdf:RDF>
      <cc:Work
         rdf:about="">
        <dc:format>image/svg+xml</dc:format>
        <dc:type
           rdf:resource="http://purl.org/dc/dcmitype/StillImage" />
        <dc:title></dc:title>
      </cc:Work>
    </rdf:RDF>
  </metadata>
  <path
     d="m 3.9803292,15.787795 c -0.0147,0.368685 0.1506718,0.713172 0.4218765,0.984376 L 14.855329,27.459674 c 0.220352,0.220352 0.475406,0.358011 0.75,0.421872 0.141045,0.03282 0.281039,0.05594 0.421875,0.04687 0.04543,0.0025 0.09486,0.0018 0.140625,0 0.08247,-0.01425 0.155993,-0.01764 0.23438,-0.04687 0.283155,-0.06097 0.57006,-0.19506 0.796878,-0.421873 L 27.652209,16.772168 c 0.542406,-0.542407 0.493855,-1.428018 -0.09375,-2.015625 l -2.109374,-2.109376 c -0.587607,-0.587606 -1.520095,-0.636155 -2.0625,-0.09375 L 19.02721,16.912789 V 7.0690419 c 0,-0.831 -0.669001,-1.5 -1.5,-1.5 l -3,1e-6 c -0.830997,0 -1.499999,0.669 -1.5,1.500002 l -2e-6,9.8906201 -4.4062472,-4.406248 C 8.0785512,12.011015 7.1929388,12.059566 6.6053325,12.647167 L 4.4490778,14.75654 c -0.293802,0.293802 -0.4539996,0.662568 -0.4687501,1.03125 z"
     id="rect3811-1-7"
     style="color:#000000;display:inline;overflow:visible;visibility:visible;opacity:0.35;fill:#ffffff;fill-opacity:1;fill-rule:nonzero;stroke:none;stroke-width:1;marker:none;enable-background:accumulate;stroke-miterlimit:4;stroke-dasharray:none"
     inkscape:connector-curvature="0" />
  <path
     d="m 3.9803293,14.288354 c -0.0147,0.368684 0.1506729,0.713172 0.4218744,0.984375 L 14.855328,25.960231 c 0.220354,0.220353 0.475407,0.358012 0.75,0.421872 0.14103,0.0328 0.281043,0.05593 0.421875,0.04687 0.04544,0.0025 0.09486,0.0018 0.140625,0 0.08247,-0.01425 0.155992,-0.01764 0.234378,-0.04687 0.283156,-0.06098 0.57006,-0.19506 0.796879,-0.421875 L 27.652206,15.272725 c 0.542406,-0.542406 0.493857,-1.428018 -0.09375,-2.015624 l -2.109377,-2.109375 c -0.587605,-0.587605 -1.520092,-0.636153 -2.062498,-0.09375 l -4.359378,4.359371 3e-6,-9.8437461 c -2e-6,-0.831 -0.669002,-1.5000015 -1.500002,-1.5000015 l -2.999997,3e-6 c -0.831,0 -1.5,0.6689985 -1.5,1.4999975 V 15.460223 L 8.6209571,11.053976 C 8.078552,10.511572 7.1929383,10.560119 6.6053334,11.147726 l -2.1562565,2.109377 c -0.2938038,0.2938 -0.4539993,0.662566 -0.4687498,1.03125 z"
     id="rect3811-1"
     style="color:#000000;display:inline;overflow:visible;visibility:visible;fill:url(#radialGradient3896-0);fill-opacity:1;fill-rule:nonzero;stroke:none;stroke-width:1.5;marker:none;enable-background:accumulate"
     inkscape:connector-curvature="0" />
  <path
     d="m 4.719294,14.335732 c -0.0051,0.127695 0.03231,0.266689 0.1874977,0.421873 l 10.4531243,10.6875 c 0.126735,0.126735 0.278281,0.200981 0.421878,0.234372 0.11034,0.02567 0.159384,0.0018 0.187503,0 a 0.74555623,0.74555623 0 0 1 0.04687,2e-6 c 0.06785,-0.0117 0.03289,0.0019 0.04687,3e-6 0.0078,4.33e-4 0.01485,0.0013 0.04687,0 a 0.74555623,0.74555623 0 0 1 0.140625,-0.04687 c 0.164563,-0.03544 0.313432,-0.07905 0.421863,-0.187491 L 27.125538,14.757632 c 0.239785,-0.239785 0.243552,-0.647077 -0.09375,-0.984376 l -2.109359,-2.109381 c -0.323278,-0.32328 -0.806649,-0.31835 -1.03125,-0.09375 l -4.359375,4.35937 a 0.74555623,0.74555623 0 0 1 -1.265626,-0.515631 l -3e-6,-9.8437471 c 0,-0.430897 -0.319103,-0.7500015 -0.749999,-0.75 l -3.00001,-9e-6 c -0.430898,0 -0.749999,0.319103 -0.749999,0.75 v 9.8906241 a 0.74555623,0.74555623 0 0 1 -1.265624,0.515623 L 8.0942937,11.570108 C 7.8545093,11.330326 7.4472162,11.326559 7.1099189,11.663858 l -2.1562522,2.109371 c -0.1690695,0.169069 -0.2274538,0.389416 -0.2343742,0.562503 z"
     id="path3996"
     style="color:#000000;display:inline;overflow:visible;visibility:visible;opacity:0.1;fill:none;stroke:#000000;stroke-width:1;stroke-linecap:round;stroke-linejoin:round;stroke-miterlimit:4;stroke-dasharray:none;stroke-dashoffset:0;stroke-opacity:1;marker:none;enable-background:accumulate"
     inkscape:connector-curvature="0" />
  <path
     d="m 6.5236932,14.361823 9.5156238,9.75 9.515623,-9.703127 -1.171876,-1.171876 -3.796875,3.796876 A 2.1928817,2.1928817 0 0 1 16.836192,15.486821 V 6.3461959 h -1.59375 v 9.1875001 a 2.1928817,2.1928817 0 0 1 -3.749997,1.546878 l -3.843751,-3.84375 -1.125,1.125 z"
     id="path3996-3"
     style="color:#000000;display:inline;overflow:visible;visibility:visible;opacity:0.02999998;fill:none;stroke:#000000;stroke-width:1;stroke-linecap:butt;stroke-linejoin:miter;stroke-miterlimit:4;stroke-dasharray:none;stroke-dashoffset:0;stroke-opacity:1;marker:none;enable-background:accumulate"
     inkscape:connector-curvature="0" />
</svg>
