<?xml version="1.0" encoding="UTF-8" standalone="no"?>
<svg
   xmlns:dc="http://purl.org/dc/elements/1.1/"
   xmlns:cc="http://creativecommons.org/ns#"
   xmlns:rdf="http://www.w3.org/1999/02/22-rdf-syntax-ns#"
   xmlns:svg="http://www.w3.org/2000/svg"
   xmlns="http://www.w3.org/2000/svg"
   xmlns:xlink="http://www.w3.org/1999/xlink"
   xmlns:sodipodi="http://sodipodi.sourceforge.net/DTD/sodipodi-0.dtd"
   xmlns:inkscape="http://www.inkscape.org/namespaces/inkscape"
   version="1.1"
   width="32"
   height="32"
   id="svg4524"
   sodipodi:docname="go-down.svg"
   inkscape:version="0.92.4 (5da689c313, 2019-01-14)">
  <sodipodi:namedview
     pagecolor="#ffffff"
     bordercolor="#666666"
     borderopacity="1"
     objecttolerance="10"
     gridtolerance="10"
     guidetolerance="10"
     inkscape:pageopacity="0"
     inkscape:pageshadow="2"
     inkscape:window-width="2880"
     inkscape:window-height="1706"
     id="namedview22"
     showgrid="false"
     inkscape:zoom="9.8333333"
     inkscape:cx="-22.983051"
     inkscape:cy="12"
     inkscape:window-x="-11"
     inkscape:window-y="-11"
     inkscape:window-maximized="1"
     inkscape:current-layer="svg4524" />
  <defs
     id="defs4526">
    <linearGradient
       id="linearGradient2867-449-88-871-390-598-476-591-434-148-57-177-641-289-620-227-114-444-680-744-4-1">
      <stop
         id="stop5430-5-0"
         style="stop-color:#737373;stop-opacity:1"
         offset="0" />
      <stop
         id="stop5432-2-0"
         style="stop-color:#636363;stop-opacity:1"
         offset="0.26238" />
      <stop
         id="stop5434-9-6"
         style="stop-color:#4b4b4b;stop-opacity:1"
         offset="0.704952" />
      <stop
         id="stop5436-2-7"
         style="stop-color:#3f3f3f;stop-opacity:1"
         offset="1" />
    </linearGradient>
    <radialGradient
       cx="16.202444"
       cy="-19.005346"
       r="19.99999"
       fx="16.202444"
       fy="-19.005346"
       id="radialGradient3769"
       xlink:href="#linearGradient2867-449-88-871-390-598-476-591-434-148-57-177-641-289-620-227-114-444-680-744-4-1"
       gradientUnits="userSpaceOnUse"
       gradientTransform="matrix(0,1.5000006,-1.5241254,0,-16.959842,-23.077676)" />
    <radialGradient
       cx="16.202444"
       cy="-19.005346"
       r="19.99999"
       fx="16.202444"
       fy="-19.005346"
       id="radialGradient3896"
       xlink:href="#linearGradient2867-449-88-871-390-598-476-591-434-148-57-177-641-289-620-227-114-444-680-744-4-1"
       gradientUnits="userSpaceOnUse"
       gradientTransform="matrix(0,1.5000006,-1.5241254,0,-17.131885,-23.077676)" />
    <radialGradient
       cx="22.818085"
       cy="-25.988077"
       r="19.99999"
       fx="22.818085"
       fy="-25.988077"
       id="radialGradient3896-0"
       xlink:href="#linearGradient2867-449-88-871-390-598-476-591-434-148-57-177-641-289-620-227-114-444-680-744-4-1-5"
       gradientUnits="userSpaceOnUse"
       gradientTransform="matrix(-2.2135932,0,0,-1.9432599,65.449413,-49.075857)" />
    <linearGradient
       id="linearGradient2867-449-88-871-390-598-476-591-434-148-57-177-641-289-620-227-114-444-680-744-4-1-5">
      <stop
         id="stop5430-5-0-9"
         style="stop-color:#737373;stop-opacity:1"
         offset="0" />
      <stop
         id="stop5432-2-0-0"
         style="stop-color:#636363;stop-opacity:1"
         offset="0.26238" />
      <stop
         id="stop5434-9-6-8"
         style="stop-color:#4b4b4b;stop-opacity:1"
         offset="0.704952" />
      <stop
         id="stop5436-2-7-0"
         style="stop-color:#3f3f3f;stop-opacity:1"
         offset="1" />
    </linearGradient>
  </defs>
  <metadata
     id="metadata4529">
    <rdf:RDF>
      <cc:Work
         rdf:about="">
        <dc:format>image/svg+xml</dc:format>
        <dc:type
           rdf:resource="http://purl.org/dc/dcmitype/StillImage" />
        <dc:title />
      </cc:Work>
    </rdf:RDF>
  </metadata>
  <path
     d="m 5.7840441,15.819626 c -0.012495,0.313382 0.128071,0.606196 0.358595,0.836719 l 8.8851549,9.084378 c 0.187299,0.187299 0.404095,0.304309 0.6375,0.358591 0.119888,0.0279 0.238883,0.04755 0.358594,0.03984 0.03862,0.0021 0.08063,0.0015 0.119531,0 0.0701,-0.01211 0.132594,-0.01499 0.199223,-0.03984 0.240682,-0.05182 0.484551,-0.165801 0.677346,-0.358592 l 8.885154,-9.084379 c 0.461045,-0.461046 0.419777,-1.213815 -0.07969,-1.713281 l -1.792967,-1.79297 C 23.533019,12.650627 22.740404,12.60936 22.27936,13.070402 l -3.705469,3.705467 V 8.4086856 c 0,-0.70635 -0.568651,-1.275 -1.275,-1.275 l -2.55,9e-7 c -0.706348,0 -1.274999,0.56865 -1.275,1.2750017 l -2e-6,8.4070268 -3.74531,-3.745311 C 9.2675328,12.609363 8.5147623,12.650631 8.0152969,13.150092 l -1.8328165,1.792967 c -0.2497317,0.249732 -0.3858996,0.563183 -0.3984376,0.876563 z"
     id="rect3811-1-7"
     style="color:#000000;display:inline;overflow:visible;visibility:visible;opacity:0.35;fill:#ffffff;fill-opacity:1;fill-rule:nonzero;stroke:none;stroke-width:1;stroke-miterlimit:4;stroke-dasharray:none;marker:none;enable-background:accumulate"
     inkscape:connector-curvature="0" />
  <path
     d="m 5.7840442,14.545101 c -0.012495,0.313381 0.128072,0.606196 0.3585932,0.836719 l 8.8851556,9.084376 c 0.187301,0.1873 0.404096,0.304311 0.6375,0.358592 0.119876,0.02788 0.238887,0.04754 0.358594,0.03984 0.03862,0.0021 0.08063,0.0015 0.119531,0 0.0701,-0.01211 0.132593,-0.01499 0.199221,-0.03984 0.240683,-0.05183 0.484551,-0.165801 0.677348,-0.358594 l 8.885152,-9.084378 c 0.461045,-0.461045 0.419779,-1.213815 -0.07969,-1.71328 l -1.792971,-1.792969 c -0.499464,-0.499464 -1.292078,-0.54073 -1.753123,-0.07969 l -3.705471,3.705465 2e-6,-8.3671842 c -1e-6,-0.70635 -0.568651,-1.2750013 -1.275001,-1.2750013 l -2.549998,2.6e-6 c -0.70635,0 -1.275,0.5686487 -1.275,1.2749978 V 15.54119 L 9.7285778,11.79588 C 9.2675335,11.334836 8.5147618,11.376101 8.0152977,11.87557 l -1.832818,1.792971 C 5.9327464,13.918268 5.7965803,14.231719 5.7840423,14.5451 Z"
     id="rect3811-1"
     style="color:#000000;display:inline;overflow:visible;visibility:visible;fill:url(#radialGradient3896-0);fill-opacity:1;fill-rule:nonzero;stroke:none;stroke-width:1;marker:none;enable-background:accumulate;stroke-miterlimit:4;stroke-dasharray:none"
     inkscape:connector-curvature="0" />
  <path
     d="m 6.4121642,14.585372 c -0.00434,0.108541 0.027463,0.226686 0.159373,0.358592 l 8.8851558,9.084375 c 0.107725,0.107725 0.236539,0.170834 0.358596,0.199216 0.09379,0.02182 0.135477,0.0015 0.159378,0 a 0.6337228,0.6337228 0 0 1 0.03984,2e-6 c 0.05767,-0.0099 0.02796,0.0016 0.03984,3e-6 0.0066,3.68e-4 0.01262,0.0011 0.03984,0 a 0.6337228,0.6337228 0 0 1 0.119531,-0.03984 c 0.139879,-0.03012 0.266418,-0.06719 0.358584,-0.159367 l 8.885172,-9.084366 c 0.203817,-0.203817 0.207019,-0.550015 -0.07969,-0.836719 l -1.792955,-1.792974 c -0.274786,-0.274788 -0.685652,-0.270598 -0.876563,-0.07969 l -3.705468,3.705465 a 0.6337228,0.6337228 0 0 1 -1.075782,-0.438287 l -3e-6,-8.3671846 c 0,-0.3662625 -0.271238,-0.6375013 -0.637499,-0.6375 l -2.550009,-7.7e-6 c -0.366263,0 -0.637499,0.2712376 -0.637499,0.6375 V 15.54162 a 0.6337228,0.6337228 0 0 1 -1.07578,0.43828 L 9.2809139,12.234592 C 9.0770972,12.030777 8.7308981,12.027575 8.4441954,12.314279 L 6.611381,14.107245 c -0.1437091,0.143708 -0.1933357,0.331003 -0.1992181,0.478127 z"
     id="path3996"
     style="color:#000000;display:inline;overflow:visible;visibility:visible;opacity:0.1;fill:none;stroke:#000000;stroke-width:1;stroke-linecap:round;stroke-linejoin:round;stroke-miterlimit:4;stroke-dasharray:none;stroke-dashoffset:0;stroke-opacity:1;marker:none;enable-background:accumulate"
     inkscape:connector-curvature="0" />
  <path
     d="m 7.9459035,14.60755 8.0882805,8.2875 8.088279,-8.247658 -0.996094,-0.996095 -3.227344,3.227345 A 1.8639494,1.8639494 0 0 1 16.711527,15.563798 V 7.7942665 H 15.35684 v 7.8093755 a 1.8639494,1.8639494 0 0 1 -3.187497,1.314846 L 8.9021542,13.6513 Z"
     id="path3996-3"
     style="color:#000000;display:inline;overflow:visible;visibility:visible;opacity:0.02999998;fill:none;stroke:#000000;stroke-width:1;stroke-linecap:butt;stroke-linejoin:miter;stroke-miterlimit:4;stroke-dasharray:none;stroke-dashoffset:0;stroke-opacity:1;marker:none;enable-background:accumulate"
     inkscape:connector-curvature="0" />
</svg>
