<?xml version="1.0" encoding="UTF-8" standalone="no"?>
<svg
   xmlns:dc="http://purl.org/dc/elements/1.1/"
   xmlns:cc="http://creativecommons.org/ns#"
   xmlns:rdf="http://www.w3.org/1999/02/22-rdf-syntax-ns#"
   xmlns:svg="http://www.w3.org/2000/svg"
   xmlns="http://www.w3.org/2000/svg"
   xmlns:xlink="http://www.w3.org/1999/xlink"
   xmlns:sodipodi="http://sodipodi.sourceforge.net/DTD/sodipodi-0.dtd"
   xmlns:inkscape="http://www.inkscape.org/namespaces/inkscape"
   version="1.1"
   width="32"
   height="32"
   id="svg4524"
   sodipodi:docname="go-first.svg"
   inkscape:version="0.92.4 (5da689c313, 2019-01-14)">
  <sodipodi:namedview
     pagecolor="#ffffff"
     bordercolor="#666666"
     borderopacity="1"
     objecttolerance="10"
     gridtolerance="10"
     guidetolerance="10"
     inkscape:pageopacity="0"
     inkscape:pageshadow="2"
     inkscape:window-width="2880"
     inkscape:window-height="1706"
     id="namedview34"
     showgrid="false"
     inkscape:zoom="9.8333333"
     inkscape:cx="-22.983051"
     inkscape:cy="12"
     inkscape:window-x="-11"
     inkscape:window-y="-11"
     inkscape:window-maximized="1"
     inkscape:current-layer="svg4524" />
  <defs
     id="defs4526">
    <linearGradient
       id="linearGradient2867-449-88-871-390-598-476-591-434-148-57-177-641-289-620-227-114-444-680-744-4-1">
      <stop
         id="stop5430-5-0"
         style="stop-color:#737373;stop-opacity:1"
         offset="0" />
      <stop
         id="stop5432-2-0"
         style="stop-color:#636363;stop-opacity:1"
         offset="0.26238" />
      <stop
         id="stop5434-9-6"
         style="stop-color:#4b4b4b;stop-opacity:1"
         offset="0.704952" />
      <stop
         id="stop5436-2-7"
         style="stop-color:#3f3f3f;stop-opacity:1"
         offset="1" />
    </linearGradient>
    <radialGradient
       cx="16.202444"
       cy="-19.005346"
       r="19.99999"
       fx="16.202444"
       fy="-19.005346"
       id="radialGradient3769"
       xlink:href="#linearGradient2867-449-88-871-390-598-476-591-434-148-57-177-641-289-620-227-114-444-680-744-4-1"
       gradientUnits="userSpaceOnUse"
       gradientTransform="matrix(0,1.5000006,-1.5241254,0,-16.959842,-23.077676)" />
    <radialGradient
       cx="16.202444"
       cy="-19.005346"
       r="19.99999"
       fx="16.202444"
       fy="-19.005346"
       id="radialGradient3896"
       xlink:href="#linearGradient2867-449-88-871-390-598-476-591-434-148-57-177-641-289-620-227-114-444-680-744-4-1"
       gradientUnits="userSpaceOnUse"
       gradientTransform="matrix(0,1.5000006,-1.5241254,0,-17.131885,-23.077676)" />
    <radialGradient
       cx="16.202444"
       cy="-19.005346"
       r="19.99999"
       fx="16.202444"
       fy="-19.005346"
       id="radialGradient3896-0"
       xlink:href="#linearGradient2867-449-88-871-390-598-476-591-434-148-57-177-641-289-620-227-114-444-680-744-4-1-5"
       gradientUnits="userSpaceOnUse"
       gradientTransform="matrix(0,1.9125008,-1.9432599,0,-18.59307,-29.342505)" />
    <linearGradient
       id="linearGradient2867-449-88-871-390-598-476-591-434-148-57-177-641-289-620-227-114-444-680-744-4-1-5">
      <stop
         id="stop5430-5-0-9"
         style="stop-color:#737373;stop-opacity:1"
         offset="0" />
      <stop
         id="stop5432-2-0-0"
         style="stop-color:#636363;stop-opacity:1"
         offset="0.26238" />
      <stop
         id="stop5434-9-6-8"
         style="stop-color:#4b4b4b;stop-opacity:1"
         offset="0.704952" />
      <stop
         id="stop5436-2-7-0"
         style="stop-color:#3f3f3f;stop-opacity:1"
         offset="1" />
    </linearGradient>
    <radialGradient
       cx="16.202444"
       cy="-19.005346"
       r="19.99999"
       fx="16.202444"
       fy="-19.005346"
       id="radialGradient3046"
       xlink:href="#linearGradient2867-449-88-871-390-598-476-591-434-148-57-177-641-289-620-227-114-444-680-744-4-1-9"
       gradientUnits="userSpaceOnUse"
       gradientTransform="matrix(0,1.5000006,-1.5241254,0,0.040158,-24.077898)" />
    <linearGradient
       id="linearGradient2867-449-88-871-390-598-476-591-434-148-57-177-641-289-620-227-114-444-680-744-4-1-9">
      <stop
         id="stop5430-5-0-3"
         style="stop-color:#737373;stop-opacity:1"
         offset="0" />
      <stop
         id="stop5432-2-0-5"
         style="stop-color:#636363;stop-opacity:1"
         offset="0.26238" />
      <stop
         id="stop5434-9-6-0"
         style="stop-color:#4b4b4b;stop-opacity:1"
         offset="0.704952" />
      <stop
         id="stop5436-2-7-9"
         style="stop-color:#3f3f3f;stop-opacity:1"
         offset="1" />
    </linearGradient>
  </defs>
  <metadata
     id="metadata4529">
    <rdf:RDF>
      <cc:Work
         rdf:about="">
        <dc:format>image/svg+xml</dc:format>
        <dc:type
           rdf:resource="http://purl.org/dc/dcmitype/StillImage" />
        <dc:title />
      </cc:Work>
    </rdf:RDF>
  </metadata>
  <path
     d="M 18.789146,6.4162137 C 18.475766,6.4037187 18.18295,6.5442849 17.952427,6.7748075 L 8.8680516,15.659963 c -0.1872993,0.1873 -0.3043059,0.404099 -0.3585937,0.6375 -0.027885,0.119889 -0.047547,0.238884 -0.039844,0.358594 -0.00215,0.03862 -0.00156,0.08063 0,0.119531 0.012074,0.0701 0.014997,0.132602 0.039844,0.199219 0.051826,0.240679 0.1658003,0.48455 0.3585937,0.677344 l 9.0843754,8.885156 c 0.461045,0.461045 1.213816,0.419778 1.713281,-0.07969 l 1.792969,-1.792969 c 0.499464,-0.499464 0.540733,-1.29208 0.07969,-1.753125 l -3.705469,-3.705469 h 8.367187 c 0.70635,0 1.275,-0.56865 1.275,-1.275 v -2.55 c 0,-0.70635 -0.56865,-1.275 -1.275,-1.275 h -8.407031 l 3.745313,-3.745312 C 21.99941,9.8997012 21.958141,9.1469285 21.458677,8.6474634 L 19.665708,6.8146512 C 19.415975,6.5649195 19.102525,6.4287495 18.789146,6.4162137 Z"
     id="rect3811-1-7"
     style="color:#000000;display:inline;overflow:visible;visibility:visible;opacity:0.35;fill:#ffffff;fill-opacity:1;fill-rule:nonzero;stroke:none;stroke-width:1;stroke-miterlimit:4;stroke-dasharray:none;marker:none;enable-background:accumulate"
     inkscape:connector-curvature="0" />
  <path
     d="M 18.789146,5.141688 C 18.475766,5.129193 18.18295,5.2697592 17.952427,5.5002818 L 8.8680516,14.385438 c -0.1872993,0.187299 -0.3043059,0.404098 -0.3585937,0.6375 -0.027885,0.119888 -0.047547,0.238883 -0.039844,0.358594 -0.00215,0.03862 -0.00156,0.08063 0,0.119531 0.012074,0.0701 0.014997,0.132601 0.039844,0.199219 0.051826,0.240679 0.1658003,0.48455 0.3585937,0.677343 l 9.0843754,8.885157 c 0.461045,0.461045 1.213816,0.419777 1.713281,-0.07969 l 1.792969,-1.792969 c 0.499464,-0.499464 0.540733,-1.29208 0.07969,-1.753125 L 17.832898,17.93153 h 8.367187 c 0.70635,0 1.275,-0.56865 1.275,-1.275 v -2.55 c 0,-0.70635 -0.56865,-1.275 -1.275,-1.275 H 17.793052 L 21.538365,9.0862189 C 21.99941,8.6251738 21.958141,7.8724028 21.458677,7.3729377 L 19.665708,5.5401255 C 19.415975,5.2903925 19.102525,5.1542238 18.789146,5.141688 Z"
     id="rect3811-1"
     style="color:#000000;display:inline;overflow:visible;visibility:visible;fill:url(#radialGradient3896-0);fill-opacity:1;fill-rule:nonzero;stroke:none;stroke-width:1;marker:none;enable-background:accumulate;stroke-miterlimit:4;stroke-dasharray:none"
     inkscape:connector-curvature="0" />
  <path
     d="m 18.749302,5.779188 c -0.108541,-0.00434 -0.226687,0.027463 -0.358594,0.159375 l -9.0843751,8.885156 c -0.1077222,0.107725 -0.1708299,0.236541 -0.1992188,0.358594 -0.021815,0.09379 -0.00155,0.135473 0,0.159375 a 0.6337228,0.6337228 0 0 1 0,0.03984 c 0.00993,0.05766 -0.00165,0.02796 0,0.03984 -3.668e-4,0.0066 -0.00109,0.01262 0,0.03984 a 0.6337228,0.6337228 0 0 1 0.039844,0.119532 c 0.030123,0.139894 0.06721,0.266429 0.159375,0.358593 l 9.0843749,8.885157 c 0.203818,0.203818 0.550015,0.207016 0.836719,-0.07969 l 1.792969,-1.792969 c 0.274789,-0.274789 0.270596,-0.685652 0.07969,-0.876562 L 17.394615,18.3698 a 0.6337228,0.6337228 0 0 1 0.438281,-1.075781 h 8.367187 c 0.366264,0 0.6375,-0.271237 0.6375,-0.6375 v -2.55 c 0,-0.366263 -0.271236,-0.6375 -0.6375,-0.6375 H 17.793052 A 0.6337228,0.6337228 0 0 1 17.354771,12.393238 L 21.100083,8.6479249 C 21.3039,8.4441085 21.307101,8.0979103 21.020396,7.8112062 L 19.227427,5.9784068 C 19.083718,5.8346977 18.896423,5.7850734 18.749302,5.779188 Z"
     id="path3996"
     style="color:#000000;display:inline;overflow:visible;visibility:visible;opacity:0.1;fill:none;stroke:#000000;stroke-width:1;stroke-linecap:round;stroke-linejoin:round;stroke-miterlimit:4;stroke-dasharray:none;stroke-dashoffset:0;stroke-opacity:1;marker:none;enable-background:accumulate"
     inkscape:connector-curvature="0" />
  <path
     d="m 18.789146,7.2932502 -8.287501,8.0882818 8.247657,8.088281 0.996094,-0.996094 -3.227344,-3.227344 a 1.8639494,1.8639494 0 0 1 1.314844,-3.1875 h 7.769531 v -1.354687 h -7.809375 a 1.8639494,1.8639494 0 0 1 -1.314844,-3.1875 l 3.267188,-3.2671878 z"
     id="path3996-3"
     style="color:#000000;display:inline;overflow:visible;visibility:visible;opacity:0.02999998;fill:none;stroke:#000000;stroke-width:1;stroke-linecap:butt;stroke-linejoin:miter;stroke-miterlimit:4;stroke-dasharray:none;stroke-dashoffset:0;stroke-opacity:1;marker:none;enable-background:accumulate"
     inkscape:connector-curvature="0" />
  <g
     transform="matrix(1.275,0,0,1.275,-18.425083,0.08124871)"
     id="g3069"
     style="stroke-width:0.78431373;stroke-miterlimit:4;stroke-dasharray:none">
    <path
       d="m 18.75,6.0002215 c -0.404,0 -0.75,0.3460007 -0.75,0.75 V 18.250222 c 0,0.403999 0.346,0.75 0.75,0.75 h 1.5 c 0.403999,0 0.75,-0.346001 0.75,-0.75 0.0062,-0.0017 0,-11.5000005 0,-11.5000005 0,-0.4039993 -0.346001,-0.75 -0.75,-0.75 z"
       id="path3999-9"
       style="color:#000000;display:inline;overflow:visible;visibility:visible;opacity:0.35;fill:#ffffff;fill-opacity:1;fill-rule:nonzero;stroke:none;stroke-width:0.78431373;stroke-miterlimit:4;stroke-dasharray:none;marker:none;enable-background:accumulate"
       inkscape:connector-curvature="0" />
    <path
       d="M 20.012017,6.4836728 H 19.483895 V 16.515883 h 0.532209 l -0.0041,-10.0322102 z"
       id="path2343"
       style="opacity:0.02999998;fill:none;stroke:#000000;stroke-width:0.78431373;stroke-linecap:square;stroke-linejoin:miter;stroke-miterlimit:4;stroke-dasharray:none;stroke-dashoffset:0.69999993;stroke-opacity:1"
       inkscape:connector-curvature="0" />
    <path
       d="M 18.75,6 C 18.346,6 18,6.3460007 18,6.75 v 10.499778 c 0,0.403999 0.346,0.75 0.75,0.75 h 1.5 c 0.403999,0 0.75,-0.346001 0.75,-0.75 C 21,17.320108 21,6.947025 21,6.75 21,6.3460007 20.653999,6 20.25,6 Z"
       id="path3999"
       style="color:#000000;display:inline;overflow:visible;visibility:visible;fill:url(#radialGradient3046);fill-opacity:1;fill-rule:nonzero;stroke:none;stroke-width:0.78431373;marker:none;enable-background:accumulate;stroke-miterlimit:4;stroke-dasharray:none"
       inkscape:connector-curvature="0" />
    <path
       d="m 18.75,6.5 c -0.1385,0 -0.25,0.1115 -0.25,0.25 v 10.499778 c 0,0.1385 0.1115,0.25 0.25,0.25 h 1.5 c 0.1385,0 0.25,-0.1115 0.25,-0.25 C 20.5,17.195258 20.5,6.75 20.5,6.75 20.5,6.6115 20.3885,6.5 20.25,6.5 Z"
       id="rect3868"
       style="color:#000000;display:inline;overflow:visible;visibility:visible;opacity:0.1;fill:none;stroke:#000000;stroke-width:0.78431373;stroke-linecap:round;stroke-linejoin:round;stroke-miterlimit:4;stroke-dasharray:none;stroke-opacity:1;marker:none;enable-background:accumulate"
       inkscape:connector-curvature="0" />
    <path
       d="m 19.53125,7.531 v 8.937528 h 0.9375 V 7.531 Z"
       id="path4060"
       style="color:#000000;display:inline;overflow:visible;visibility:visible;opacity:0.02999998;fill:none;stroke:#000000;stroke-width:0.78431373;stroke-linecap:butt;stroke-linejoin:miter;stroke-miterlimit:4;stroke-dasharray:none;stroke-opacity:1;marker:none;enable-background:accumulate"
       inkscape:connector-curvature="0" />
  </g>
</svg>
