<?xml version="1.0" encoding="UTF-8" standalone="no"?>
<svg
   xmlns:dc="http://purl.org/dc/elements/1.1/"
   xmlns:cc="http://creativecommons.org/ns#"
   xmlns:rdf="http://www.w3.org/1999/02/22-rdf-syntax-ns#"
   xmlns:svg="http://www.w3.org/2000/svg"
   xmlns="http://www.w3.org/2000/svg"
   xmlns:xlink="http://www.w3.org/1999/xlink"
   xmlns:sodipodi="http://sodipodi.sourceforge.net/DTD/sodipodi-0.dtd"
   xmlns:inkscape="http://www.inkscape.org/namespaces/inkscape"
   version="1.1"
   width="32"
   height="32"
   id="svg4524"
   sodipodi:docname="go-first.svg"
   inkscape:version="0.92.4 (5da689c313, 2019-01-14)">
  <sodipodi:namedview
     pagecolor="#ffffff"
     bordercolor="#666666"
     borderopacity="1"
     objecttolerance="10"
     gridtolerance="10"
     guidetolerance="10"
     inkscape:pageopacity="0"
     inkscape:pageshadow="2"
     inkscape:window-width="1920"
     inkscape:window-height="1017"
     id="namedview34"
     showgrid="false"
     inkscape:zoom="9.8333333"
     inkscape:cx="-0.66101695"
     inkscape:cy="12"
     inkscape:window-x="-8"
     inkscape:window-y="-8"
     inkscape:window-maximized="1"
     inkscape:current-layer="svg4524" />
  <defs
     id="defs4526">
    <linearGradient
       id="linearGradient2867-449-88-871-390-598-476-591-434-148-57-177-641-289-620-227-114-444-680-744-4-1">
      <stop
         id="stop5430-5-0"
         style="stop-color:#737373;stop-opacity:1"
         offset="0" />
      <stop
         id="stop5432-2-0"
         style="stop-color:#636363;stop-opacity:1"
         offset="0.26238" />
      <stop
         id="stop5434-9-6"
         style="stop-color:#4b4b4b;stop-opacity:1"
         offset="0.704952" />
      <stop
         id="stop5436-2-7"
         style="stop-color:#3f3f3f;stop-opacity:1"
         offset="1" />
    </linearGradient>
    <radialGradient
       cx="16.202444"
       cy="-19.005346"
       r="19.99999"
       fx="16.202444"
       fy="-19.005346"
       id="radialGradient3769"
       xlink:href="#linearGradient2867-449-88-871-390-598-476-591-434-148-57-177-641-289-620-227-114-444-680-744-4-1"
       gradientUnits="userSpaceOnUse"
       gradientTransform="matrix(0,1.5000006,-1.5241254,0,-16.959842,-23.077676)" />
    <radialGradient
       cx="16.202444"
       cy="-19.005346"
       r="19.99999"
       fx="16.202444"
       fy="-19.005346"
       id="radialGradient3896"
       xlink:href="#linearGradient2867-449-88-871-390-598-476-591-434-148-57-177-641-289-620-227-114-444-680-744-4-1"
       gradientUnits="userSpaceOnUse"
       gradientTransform="matrix(0,1.5000006,-1.5241254,0,-17.131885,-23.077676)" />
    <radialGradient
       cx="16.202444"
       cy="-19.005346"
       r="19.99999"
       fx="16.202444"
       fy="-19.005346"
       id="radialGradient3896-0"
       xlink:href="#linearGradient2867-449-88-871-390-598-476-591-434-148-57-177-641-289-620-227-114-444-680-744-4-1-5"
       gradientUnits="userSpaceOnUse"
       gradientTransform="matrix(0,2.2500009,-2.2861881,0,-24.697729,-37.344124)" />
    <linearGradient
       id="linearGradient2867-449-88-871-390-598-476-591-434-148-57-177-641-289-620-227-114-444-680-744-4-1-5">
      <stop
         id="stop5430-5-0-9"
         style="stop-color:#737373;stop-opacity:1"
         offset="0" />
      <stop
         id="stop5432-2-0-0"
         style="stop-color:#636363;stop-opacity:1"
         offset="0.26238" />
      <stop
         id="stop5434-9-6-8"
         style="stop-color:#4b4b4b;stop-opacity:1"
         offset="0.704952" />
      <stop
         id="stop5436-2-7-0"
         style="stop-color:#3f3f3f;stop-opacity:1"
         offset="1" />
    </linearGradient>
    <radialGradient
       cx="16.202444"
       cy="-19.005346"
       r="19.99999"
       fx="16.202444"
       fy="-19.005346"
       id="radialGradient3046"
       xlink:href="#linearGradient2867-449-88-871-390-598-476-591-434-148-57-177-641-289-620-227-114-444-680-744-4-1-9"
       gradientUnits="userSpaceOnUse"
       gradientTransform="matrix(0,1.5000006,-1.5241254,0,0.040158,-24.077898)" />
    <linearGradient
       id="linearGradient2867-449-88-871-390-598-476-591-434-148-57-177-641-289-620-227-114-444-680-744-4-1-9">
      <stop
         id="stop5430-5-0-3"
         style="stop-color:#737373;stop-opacity:1"
         offset="0" />
      <stop
         id="stop5432-2-0-5"
         style="stop-color:#636363;stop-opacity:1"
         offset="0.26238" />
      <stop
         id="stop5434-9-6-0"
         style="stop-color:#4b4b4b;stop-opacity:1"
         offset="0.704952" />
      <stop
         id="stop5436-2-7-9"
         style="stop-color:#3f3f3f;stop-opacity:1"
         offset="1" />
    </linearGradient>
  </defs>
  <metadata
     id="metadata4529">
    <rdf:RDF>
      <cc:Work
         rdf:about="">
        <dc:format>image/svg+xml</dc:format>
        <dc:type
           rdf:resource="http://purl.org/dc/dcmitype/StillImage" />
        <dc:title></dc:title>
      </cc:Work>
    </rdf:RDF>
  </metadata>
  <path
     d="m 19.281348,4.7249573 c -0.368682,-0.0147 -0.713172,0.150672 -0.984375,0.421875 L 7.6094725,15.599957 c -0.2203521,0.220352 -0.358007,0.47541 -0.421875,0.75 -0.032806,0.141045 -0.055938,0.281039 -0.046875,0.421875 -0.00253,0.04544 -0.00183,0.09486 0,0.140625 0.014205,0.08247 0.017643,0.156002 0.046875,0.234375 0.060972,0.283152 0.1950592,0.570059 0.421875,0.796875 L 18.296973,28.396832 c 0.542406,0.542406 1.428019,0.493856 2.015625,-0.09375 l 2.109375,-2.109375 c 0.587605,-0.587605 0.636156,-1.520094 0.09375,-2.0625 l -4.359375,-4.359375 h 9.84375 c 0.831,0 1.5,-0.669 1.5,-1.5 v -3 c 0,-0.831 -0.669,-1.5 -1.5,-1.5 h -9.890625 l 4.40625,-4.4062501 c 0.542406,-0.542404 0.493855,-1.428019 -0.09375,-2.015625 L 20.312598,5.1937073 c -0.293804,-0.293802 -0.662568,-0.454002 -1.03125,-0.46875 z"
     id="rect3811-1-7"
     style="color:#000000;display:inline;overflow:visible;visibility:visible;opacity:0.35;fill:#ffffff;fill-opacity:1;fill-rule:nonzero;stroke:none;stroke-width:1;marker:none;enable-background:accumulate;stroke-miterlimit:4;stroke-dasharray:none"
     inkscape:connector-curvature="0" />
  <path
     d="m 19.281348,3.2255153 c -0.368682,-0.0147 -0.713172,0.150672 -0.984375,0.421875 L 7.6094725,14.100515 c -0.2203521,0.220352 -0.358007,0.47541 -0.421875,0.75 -0.032806,0.141045 -0.055938,0.281039 -0.046875,0.421875 -0.00253,0.04543 -0.00183,0.09486 0,0.140625 0.014205,0.08247 0.017643,0.156002 0.046875,0.234375 0.060972,0.283152 0.1950592,0.570059 0.421875,0.796875 L 18.296973,26.89739 c 0.542406,0.542406 1.428019,0.493856 2.015625,-0.09375 l 2.109375,-2.109375 c 0.587605,-0.587605 0.636156,-1.520094 0.09375,-2.0625 L 18.156348,18.27239 h 9.84375 c 0.831,0 1.5,-0.669 1.5,-1.5 v -3 c 0,-0.831 -0.669,-1.5 -1.5,-1.5 h -9.890625 l 4.40625,-4.4062501 c 0.542406,-0.542406 0.493855,-1.428019 -0.09375,-2.015625 L 20.312598,3.6942653 c -0.293804,-0.2938035 -0.662568,-0.454002 -1.03125,-0.46875 z"
     id="rect3811-1"
     style="color:#000000;display:inline;overflow:visible;visibility:visible;fill:url(#radialGradient3896-0);fill-opacity:1;fill-rule:nonzero;stroke:none;stroke-width:1.5;marker:none;enable-background:accumulate"
     inkscape:connector-curvature="0" />
  <path
     d="m 19.234473,3.9755153 c -0.127695,-0.0051 -0.266691,0.03231 -0.421875,0.1875 L 8.1250975,14.61614 c -0.126732,0.126735 -0.2009763,0.278283 -0.234375,0.421875 -0.025665,0.11034 -0.00182,0.15938 0,0.1875 a 0.74555623,0.74555623 0 0 1 0,0.04687 c 0.011685,0.06784 -0.00194,0.03289 0,0.04687 -4.316e-4,0.0078 -0.00128,0.01485 0,0.04687 a 0.74555623,0.74555623 0 0 1 0.046875,0.140625 c 0.035439,0.164582 0.079071,0.313446 0.1875,0.421875 L 18.812598,26.38175 c 0.239785,0.239786 0.647076,0.243549 0.984375,-0.09375 l 2.109375,-2.109375 c 0.323282,-0.323281 0.318349,-0.80665 0.09375,-1.03125 L 17.640723,18.788 a 0.74555623,0.74555623 0 0 1 0.515625,-1.265625 h 9.84375 c 0.430898,0 0.75,-0.319102 0.75,-0.75 v -3 c 0,-0.430897 -0.319102,-0.75 -0.75,-0.75 H 18.109473 A 0.74555623,0.74555623 0 0 1 17.593848,11.75675 l 4.40625,-4.4062501 c 0.239784,-0.239784 0.24355,-0.647076 -0.09375,-0.984375 L 19.796973,4.2098903 c -0.169069,-0.1690695 -0.389417,-0.227451 -0.5625,-0.234375 z"
     id="path3996"
     style="color:#000000;display:inline;overflow:visible;visibility:visible;opacity:0.1;fill:none;stroke:#000000;stroke-width:1;stroke-linecap:round;stroke-linejoin:round;stroke-miterlimit:4;stroke-dasharray:none;stroke-dashoffset:0;stroke-opacity:1;marker:none;enable-background:accumulate"
     inkscape:connector-curvature="0" />
  <path
     d="M 19.281348,5.7567649 9.5313475,15.27239 19.234473,24.788015 20.406348,23.61614 16.609473,19.819265 a 2.1928817,2.1928817 0 0 1 1.546875,-3.75 h 9.140625 v -1.59375 h -9.1875 a 2.1928817,2.1928817 0 0 1 -1.546875,-3.75 l 3.84375,-3.8437501 z"
     id="path3996-3"
     style="color:#000000;display:inline;overflow:visible;visibility:visible;opacity:0.02999998;fill:none;stroke:#000000;stroke-width:1;stroke-linecap:butt;stroke-linejoin:miter;stroke-miterlimit:4;stroke-dasharray:none;stroke-dashoffset:0;stroke-opacity:1;marker:none;enable-background:accumulate"
     inkscape:connector-curvature="0" />
  <g
     transform="matrix(1.5,0,0,1.5,-24.500098,-2.7279427)"
     id="g3069">
    <path
       d="m 18.75,6.0002215 c -0.404,0 -0.75,0.3460007 -0.75,0.75 V 18.250222 c 0,0.403999 0.346,0.75 0.75,0.75 h 1.5 c 0.403999,0 0.75,-0.346001 0.75,-0.75 0.0062,-0.0017 0,-11.5000005 0,-11.5000005 0,-0.4039993 -0.346001,-0.75 -0.75,-0.75 z"
       id="path3999-9"
       style="color:#000000;display:inline;overflow:visible;visibility:visible;opacity:0.35;fill:#ffffff;fill-opacity:1;fill-rule:nonzero;stroke:none;stroke-width:0.66666667;marker:none;enable-background:accumulate;stroke-miterlimit:4;stroke-dasharray:none"
       inkscape:connector-curvature="0" />
    <path
       d="M 20.012017,6.4836728 H 19.483895 V 16.515883 h 0.532209 l -0.0041,-10.0322102 z"
       id="path2343"
       style="opacity:0.02999998;fill:none;stroke:#000000;stroke-width:0.9677909;stroke-linecap:square;stroke-linejoin:miter;stroke-miterlimit:4;stroke-dasharray:none;stroke-dashoffset:0.69999993;stroke-opacity:1"
       inkscape:connector-curvature="0" />
    <path
       d="M 18.75,6 C 18.346,6 18,6.3460007 18,6.75 v 10.499778 c 0,0.403999 0.346,0.75 0.75,0.75 h 1.5 c 0.403999,0 0.75,-0.346001 0.75,-0.75 C 21,17.320108 21,6.947025 21,6.75 21,6.3460007 20.653999,6 20.25,6 Z"
       id="path3999"
       style="color:#000000;display:inline;overflow:visible;visibility:visible;fill:url(#radialGradient3046);fill-opacity:1;fill-rule:nonzero;stroke:none;stroke-width:1;marker:none;enable-background:accumulate"
       inkscape:connector-curvature="0" />
    <path
       d="m 18.75,6.5 c -0.1385,0 -0.25,0.1115 -0.25,0.25 v 10.499778 c 0,0.1385 0.1115,0.25 0.25,0.25 h 1.5 c 0.1385,0 0.25,-0.1115 0.25,-0.25 C 20.5,17.195258 20.5,6.75 20.5,6.75 20.5,6.6115 20.3885,6.5 20.25,6.5 Z"
       id="rect3868"
       style="color:#000000;display:inline;overflow:visible;visibility:visible;opacity:0.1;fill:none;stroke:#000000;stroke-width:0.66666667;stroke-linecap:round;stroke-linejoin:round;stroke-miterlimit:4;stroke-dasharray:none;stroke-opacity:1;marker:none;enable-background:accumulate"
       inkscape:connector-curvature="0" />
    <path
       d="m 19.53125,7.531 v 8.937528 h 0.9375 V 7.531 Z"
       id="path4060"
       style="color:#000000;display:inline;overflow:visible;visibility:visible;opacity:0.02999998;fill:none;stroke:#000000;stroke-width:0.66666667;stroke-linecap:butt;stroke-linejoin:miter;stroke-miterlimit:4;stroke-dasharray:none;stroke-opacity:1;marker:none;enable-background:accumulate"
       inkscape:connector-curvature="0" />
  </g>
</svg>
