<?xml version="1.0" encoding="UTF-8" standalone="no"?>
<svg
   xmlns:dc="http://purl.org/dc/elements/1.1/"
   xmlns:cc="http://creativecommons.org/ns#"
   xmlns:rdf="http://www.w3.org/1999/02/22-rdf-syntax-ns#"
   xmlns:svg="http://www.w3.org/2000/svg"
   xmlns="http://www.w3.org/2000/svg"
   xmlns:xlink="http://www.w3.org/1999/xlink"
   xmlns:sodipodi="http://sodipodi.sourceforge.net/DTD/sodipodi-0.dtd"
   xmlns:inkscape="http://www.inkscape.org/namespaces/inkscape"
   version="1.1"
   width="32"
   height="32"
   id="svg4524"
   sodipodi:docname="go-last.svg"
   inkscape:version="0.92.4 (5da689c313, 2019-01-14)">
  <sodipodi:namedview
     pagecolor="#ffffff"
     bordercolor="#666666"
     borderopacity="1"
     objecttolerance="10"
     gridtolerance="10"
     guidetolerance="10"
     inkscape:pageopacity="0"
     inkscape:pageshadow="2"
     inkscape:window-width="2880"
     inkscape:window-height="1706"
     id="namedview34"
     showgrid="false"
     inkscape:zoom="9.8333333"
     inkscape:cx="-22.983051"
     inkscape:cy="12"
     inkscape:window-x="-11"
     inkscape:window-y="-11"
     inkscape:window-maximized="1"
     inkscape:current-layer="svg4524" />
  <defs
     id="defs4526">
    <linearGradient
       id="linearGradient2867-449-88-871-390-598-476-591-434-148-57-177-641-289-620-227-114-444-680-744-4-1">
      <stop
         id="stop5430-5-0"
         style="stop-color:#737373;stop-opacity:1"
         offset="0" />
      <stop
         id="stop5432-2-0"
         style="stop-color:#636363;stop-opacity:1"
         offset="0.26238" />
      <stop
         id="stop5434-9-6"
         style="stop-color:#4b4b4b;stop-opacity:1"
         offset="0.704952" />
      <stop
         id="stop5436-2-7"
         style="stop-color:#3f3f3f;stop-opacity:1"
         offset="1" />
    </linearGradient>
    <radialGradient
       cx="16.202444"
       cy="-19.005346"
       r="19.99999"
       fx="16.202444"
       fy="-19.005346"
       id="radialGradient3896-0"
       xlink:href="#linearGradient2867-449-88-871-390-598-476-591-434-148-57-177-641-289-620-227-114-444-680-744-4-1-5"
       gradientUnits="userSpaceOnUse"
       gradientTransform="matrix(0,1.5000006,1.5241254,0,40.131885,-23.077676)" />
    <linearGradient
       id="linearGradient2867-449-88-871-390-598-476-591-434-148-57-177-641-289-620-227-114-444-680-744-4-1-5">
      <stop
         id="stop5430-5-0-9"
         style="stop-color:#737373;stop-opacity:1"
         offset="0" />
      <stop
         id="stop5432-2-0-0"
         style="stop-color:#636363;stop-opacity:1"
         offset="0.26238" />
      <stop
         id="stop5434-9-6-8"
         style="stop-color:#4b4b4b;stop-opacity:1"
         offset="0.704952" />
      <stop
         id="stop5436-2-7-0"
         style="stop-color:#3f3f3f;stop-opacity:1"
         offset="1" />
    </linearGradient>
    <linearGradient
       id="linearGradient2867-449-88-871-390-598-476-591-434-148-57-177-641-289-620-227-114-444-680-744-4-1-9">
      <stop
         id="stop5430-5-0-3"
         style="stop-color:#737373;stop-opacity:1"
         offset="0" />
      <stop
         id="stop5432-2-0-5"
         style="stop-color:#636363;stop-opacity:1"
         offset="0.26238" />
      <stop
         id="stop5434-9-6-0"
         style="stop-color:#4b4b4b;stop-opacity:1"
         offset="0.704952" />
      <stop
         id="stop5436-2-7-9"
         style="stop-color:#3f3f3f;stop-opacity:1"
         offset="1" />
    </linearGradient>
    <radialGradient
       cx="16.202444"
       cy="-19.005346"
       r="19.99999"
       fx="16.202444"
       fy="-19.005346"
       id="radialGradient3037"
       xlink:href="#linearGradient2867-449-88-871-390-598-476-591-434-148-57-177-641-289-620-227-114-444-680-744-4-1-5"
       gradientUnits="userSpaceOnUse"
       gradientTransform="matrix(0,1.9125008,1.9432599,0,50.591397,-29.342503)" />
    <radialGradient
       cx="16.202444"
       cy="-19.005346"
       r="19.99999"
       fx="16.202444"
       fy="-19.005346"
       id="radialGradient3046"
       xlink:href="#linearGradient2867-449-88-871-390-598-476-591-434-148-57-177-641-289-620-227-114-444-680-744-4-1-9"
       gradientUnits="userSpaceOnUse"
       gradientTransform="matrix(0,1.5000006,-1.5241254,0,0.040158,-24.077898)" />
  </defs>
  <metadata
     id="metadata4529">
    <rdf:RDF>
      <cc:Work
         rdf:about="">
        <dc:format>image/svg+xml</dc:format>
        <dc:type
           rdf:resource="http://purl.org/dc/dcmitype/StillImage" />
        <dc:title></dc:title>
      </cc:Work>
    </rdf:RDF>
  </metadata>
  <path
     inkscape:connector-curvature="0"
     style="color:#000000;display:inline;overflow:visible;visibility:visible;opacity:0.35;fill:#ffffff;fill-opacity:1;fill-rule:nonzero;stroke:none;stroke-width:1;stroke-miterlimit:4;stroke-dasharray:none;marker:none;enable-background:accumulate"
     id="rect3811-1-7"
     d="m 13.209181,6.4162161 c 0.31338,-0.012533 0.606196,0.1280714 0.836719,0.3585937 l 9.084375,8.8851562 c 0.1873,0.187299 0.304306,0.404098 0.358593,0.6375 0.02789,0.119888 0.04754,0.238883 0.03984,0.358594 0.0022,0.03862 0.0015,0.08063 0,0.119531 -0.01211,0.0701 -0.01499,0.132601 -0.03984,0.199219 -0.05183,0.240679 -0.165799,0.484549 -0.358593,0.677343 L 14.0459,26.53731 c -0.461046,0.461045 -1.213817,0.419777 -1.713282,-0.07969 L 10.53965,24.664653 C 10.040185,24.165189 9.9989174,23.372573 10.45996,22.911528 L 14.165431,19.20606 H 5.7982437 c -0.70635,0 -1.275,-0.56865 -1.275,-1.275 v -2.55 c 0,-0.70635 0.56865,-1.275 1.275,-1.275 H 14.205275 L 10.459962,10.360747 C 9.9989174,9.8997029 10.040185,9.146931 10.53965,8.6474661 l 1.792968,-1.8328125 c 0.249733,-0.2497325 0.563183,-0.3859024 0.876563,-0.3984375 z" />
  <path
     inkscape:connector-curvature="0"
     style="color:#000000;display:inline;overflow:visible;visibility:visible;fill:url(#radialGradient3037);fill-opacity:1;fill-rule:nonzero;stroke:none;stroke-width:1;stroke-miterlimit:4;stroke-dasharray:none;marker:none;enable-background:accumulate"
     id="rect3811-1"
     d="m 13.209181,5.1416901 c 0.31338,-0.012533 0.606196,0.1280715 0.836719,0.3585938 l 9.084375,8.8851561 c 0.1873,0.187299 0.304306,0.404099 0.358593,0.6375 0.02789,0.119888 0.04754,0.238883 0.03984,0.358594 0.0022,0.03862 0.0015,0.08063 0,0.119531 -0.01211,0.0701 -0.01499,0.132601 -0.03984,0.199219 -0.05183,0.240679 -0.165799,0.48455 -0.358593,0.677344 L 14.0459,25.262784 c -0.461046,0.461045 -1.213817,0.419777 -1.713282,-0.07969 L 10.53965,23.390128 c -0.499465,-0.499465 -0.5407326,-1.29208 -0.07969,-1.753125 l 3.705469,-3.705469 H 5.7982437 c -0.70635,0 -1.275,-0.56865 -1.275,-1.275 v -2.55 c 0,-0.70635 0.56865,-1.275 1.275,-1.275 H 14.205275 L 10.459962,9.0862214 C 9.9989174,8.6251769 10.040185,7.8724051 10.53965,7.3729401 l 1.792968,-1.8328125 c 0.249733,-0.2497324 0.563183,-0.3859023 0.876563,-0.3984375 z" />
  <path
     inkscape:connector-curvature="0"
     style="color:#000000;display:inline;overflow:visible;visibility:visible;opacity:0.1;fill:none;stroke:#000000;stroke-width:1;stroke-linecap:round;stroke-linejoin:round;stroke-miterlimit:4;stroke-dasharray:none;stroke-dashoffset:0;stroke-opacity:1;marker:none;enable-background:accumulate"
     id="path3996"
     d="m 13.249024,5.7791901 c 0.108541,-0.00435 0.226688,0.027469 0.358594,0.159375 l 9.084375,8.8851559 c 0.107722,0.107725 0.17083,0.236541 0.199219,0.358594 0.02182,0.09379 0.0015,0.135473 0,0.159375 a 0.6337228,0.6337228 0 0 0 0,0.03984 c -0.0099,0.05767 0.0016,0.02796 0,0.03984 3.67e-4,0.0066 0.0011,0.01262 0,0.03984 a 0.6337228,0.6337228 0 0 0 -0.03984,0.119532 c -0.03012,0.139894 -0.06721,0.266429 -0.159375,0.358593 l -9.084375,8.885157 C 13.4038,25.02832 13.057603,25.031519 12.770899,24.744815 L 10.97793,22.951846 c -0.274789,-0.274789 -0.270597,-0.685653 -0.07969,-0.876562 l 3.705469,-3.705469 A 0.6337228,0.6337228 0 0 0 14.16543,17.294034 H 5.798243 c -0.3662629,0 -0.6375,-0.271237 -0.6375,-0.6375 v -2.55 c 0,-0.366263 0.2712371,-0.6375 0.6375,-0.6375 h 8.407031 a 0.6337228,0.6337228 0 0 0 0.438282,-1.075781 L 10.898243,8.6479401 C 10.694427,8.444124 10.691226,8.0979253 10.97793,7.8112214 l 1.792969,-1.8328125 c 0.143709,-0.143709 0.331004,-0.1933339 0.478125,-0.1992188 z" />
  <path
     inkscape:connector-curvature="0"
     style="color:#000000;display:inline;overflow:visible;visibility:visible;opacity:0.02999998;fill:none;stroke:#000000;stroke-width:1;stroke-linecap:butt;stroke-linejoin:miter;stroke-miterlimit:4;stroke-dasharray:none;stroke-dashoffset:0;stroke-opacity:1;marker:none;enable-background:accumulate"
     id="path3996-3"
     d="m 13.209181,7.2932526 8.287499,8.0882814 -8.247656,8.088281 -0.996093,-0.996094 3.227343,-3.227343 a 1.8639494,1.8639494 0 0 0 -1.314844,-3.1875 H 6.3958992 V 14.70419 h 7.8093748 a 1.8639494,1.8639494 0 0 0 1.314844,-3.1875 L 12.252931,8.2495026 Z" />
  <g
     id="g3069"
     transform="matrix(1.275,0,0,1.275,0.69824333,0.08153388)"
     style="stroke-width:0.78431374;stroke-miterlimit:4;stroke-dasharray:none">
    <path
       d="m 18.75,6.0002215 c -0.404,0 -0.75,0.3460007 -0.75,0.75 V 18.250222 c 0,0.403999 0.346,0.75 0.75,0.75 h 1.5 c 0.403999,0 0.75,-0.346001 0.75,-0.75 0.0062,-0.0017 0,-11.5000005 0,-11.5000005 0,-0.4039993 -0.346001,-0.75 -0.75,-0.75 z"
       id="path3999-9"
       style="color:#000000;display:inline;overflow:visible;visibility:visible;opacity:0.35;fill:#ffffff;fill-opacity:1;fill-rule:nonzero;stroke:none;stroke-width:0.78431374;stroke-miterlimit:4;stroke-dasharray:none;marker:none;enable-background:accumulate"
       inkscape:connector-curvature="0" />
    <path
       d="M 20.012017,6.4836728 H 19.483895 V 16.515883 h 0.532209 l -0.0041,-10.0322102 z"
       id="path2343"
       style="opacity:0.02999998;fill:none;stroke:#000000;stroke-width:0.78431374;stroke-linecap:square;stroke-linejoin:miter;stroke-miterlimit:4;stroke-dasharray:none;stroke-dashoffset:0.69999993;stroke-opacity:1"
       inkscape:connector-curvature="0" />
    <path
       d="M 18.75,6 C 18.346,6 18,6.3460007 18,6.75 v 10.499778 c 0,0.403999 0.346,0.75 0.75,0.75 h 1.5 c 0.403999,0 0.75,-0.346001 0.75,-0.75 C 21,17.320108 21,6.947025 21,6.75 21,6.3460007 20.653999,6 20.25,6 Z"
       id="path3999"
       style="color:#000000;display:inline;overflow:visible;visibility:visible;fill:url(#radialGradient3046);fill-opacity:1;fill-rule:nonzero;stroke:none;stroke-width:0.78431374;stroke-miterlimit:4;stroke-dasharray:none;marker:none;enable-background:accumulate"
       inkscape:connector-curvature="0" />
    <path
       d="m 18.75,6.5 c -0.1385,0 -0.25,0.1115 -0.25,0.25 v 10.499778 c 0,0.1385 0.1115,0.25 0.25,0.25 h 1.5 c 0.1385,0 0.25,-0.1115 0.25,-0.25 C 20.5,17.195258 20.5,6.75 20.5,6.75 20.5,6.6115 20.3885,6.5 20.25,6.5 Z"
       id="rect3868"
       style="color:#000000;display:inline;overflow:visible;visibility:visible;opacity:0.1;fill:none;stroke:#000000;stroke-width:0.78431374;stroke-linecap:round;stroke-linejoin:round;stroke-miterlimit:4;stroke-dasharray:none;stroke-opacity:1;marker:none;enable-background:accumulate"
       inkscape:connector-curvature="0" />
    <path
       d="m 19.53125,7.531 v 8.937528 h 0.9375 V 7.531 Z"
       id="path4060"
       style="color:#000000;display:inline;overflow:visible;visibility:visible;opacity:0.02999998;fill:none;stroke:#000000;stroke-width:0.78431374;stroke-linecap:butt;stroke-linejoin:miter;stroke-miterlimit:4;stroke-dasharray:none;stroke-opacity:1;marker:none;enable-background:accumulate"
       inkscape:connector-curvature="0" />
  </g>
</svg>
