<?xml version="1.0" encoding="UTF-8" standalone="no"?>
<svg
   xmlns:dc="http://purl.org/dc/elements/1.1/"
   xmlns:cc="http://creativecommons.org/ns#"
   xmlns:rdf="http://www.w3.org/1999/02/22-rdf-syntax-ns#"
   xmlns:svg="http://www.w3.org/2000/svg"
   xmlns="http://www.w3.org/2000/svg"
   xmlns:xlink="http://www.w3.org/1999/xlink"
   xmlns:sodipodi="http://sodipodi.sourceforge.net/DTD/sodipodi-0.dtd"
   xmlns:inkscape="http://www.inkscape.org/namespaces/inkscape"
   id="svg4524"
   height="32"
   width="32"
   version="1.1"
   sodipodi:docname="go-next.svg"
   inkscape:version="0.92.4 (5da689c313, 2019-01-14)">
  <sodipodi:namedview
     pagecolor="#ffffff"
     bordercolor="#666666"
     borderopacity="1"
     objecttolerance="10"
     gridtolerance="10"
     guidetolerance="10"
     inkscape:pageopacity="0"
     inkscape:pageshadow="2"
     inkscape:window-width="1920"
     inkscape:window-height="1017"
     id="namedview15"
     showgrid="false"
     inkscape:zoom="9.8333333"
     inkscape:cx="-0.66101695"
     inkscape:cy="12"
     inkscape:window-x="-8"
     inkscape:window-y="-8"
     inkscape:window-maximized="1"
     inkscape:current-layer="svg4524" />
  <defs
     id="defs4526">
    <radialGradient
       gradientTransform="matrix(0,2.2500009,2.2861881,0,59.012541,-37.344124)"
       gradientUnits="userSpaceOnUse"
       xlink:href="#linearGradient2867-449-88-871-390-598-476-591-434-148-57-177-641-289-620-227-114-444-680-744-4-1-5"
       id="radialGradient3896-0"
       fy="-19.005346"
       fx="16.202444"
       r="19.99999"
       cy="-19.005346"
       cx="16.202444" />
    <linearGradient
       id="linearGradient2867-449-88-871-390-598-476-591-434-148-57-177-641-289-620-227-114-444-680-744-4-1-5">
      <stop
         offset="0"
         style="stop-color:#737373;stop-opacity:1"
         id="stop5430-5-0-9" />
      <stop
         offset="0.26238"
         style="stop-color:#636363;stop-opacity:1"
         id="stop5432-2-0-0" />
      <stop
         offset="0.704952"
         style="stop-color:#4b4b4b;stop-opacity:1"
         id="stop5434-9-6-8" />
      <stop
         offset="1"
         style="stop-color:#3f3f3f;stop-opacity:1"
         id="stop5436-2-7-0" />
    </linearGradient>
  </defs>
  <metadata
     id="metadata4529">
    <rdf:RDF>
      <cc:Work
         rdf:about="">
        <dc:format>image/svg+xml</dc:format>
        <dc:type
           rdf:resource="http://purl.org/dc/dcmitype/StillImage" />
        <dc:title></dc:title>
      </cc:Work>
    </rdf:RDF>
  </metadata>
  <path
     style="color:#000000;display:inline;overflow:visible;visibility:visible;opacity:0.35;fill:#ffffff;fill-opacity:1;fill-rule:nonzero;stroke:none;stroke-width:1;marker:none;enable-background:accumulate;stroke-miterlimit:4;stroke-dasharray:none"
     id="rect3811-1-7"
     d="m 15.033464,4.7249573 c 0.368682,-0.0147 0.713172,0.150672 0.984375,0.421875 l 10.6875,10.4531247 c 0.220353,0.220352 0.358008,0.47541 0.421875,0.75 0.0328,0.141045 0.05594,0.281039 0.04687,0.421875 0.0025,0.04544 0.0018,0.09486 0,0.140625 -0.01425,0.08247 -0.01764,0.156002 -0.04687,0.234375 -0.06097,0.283152 -0.195059,0.570059 -0.421875,0.796875 l -10.6875,10.453125 c -0.542406,0.542406 -1.42802,0.493856 -2.015625,-0.09375 l -2.109375,-2.109375 c -0.587606,-0.587605 -0.636156,-1.520094 -0.09375,-2.0625 l 4.359375,-4.359375 h -9.84375 c -0.831,0 -1.5,-0.669 -1.5,-1.5 v -3 c 0,-0.831 0.669,-1.5 1.5,-1.5 h 9.890625 l -4.40625,-4.4062501 c -0.542406,-0.542404 -0.493856,-1.428019 0.09375,-2.015625 l 2.109375,-2.1562496 c 0.293803,-0.293802 0.662568,-0.454002 1.03125,-0.46875 z"
     inkscape:connector-curvature="0" />
  <path
     style="color:#000000;display:inline;overflow:visible;visibility:visible;fill:url(#radialGradient3896-0);fill-opacity:1;fill-rule:nonzero;stroke:none;stroke-width:1;marker:none;enable-background:accumulate;stroke-miterlimit:4;stroke-dasharray:none"
     id="rect3811-1"
     d="m 15.033464,3.2255153 c 0.368682,-0.0147 0.713172,0.150672 0.984375,0.421875 l 10.6875,10.4531247 c 0.220353,0.220352 0.358008,0.47541 0.421875,0.75 0.0328,0.141045 0.05594,0.281039 0.04687,0.421875 0.0025,0.04543 0.0018,0.09486 0,0.140625 -0.01425,0.08247 -0.01764,0.156002 -0.04687,0.234375 -0.06097,0.283152 -0.195059,0.570059 -0.421875,0.796875 l -10.6875,10.453125 c -0.542406,0.542406 -1.42802,0.493856 -2.015625,-0.09375 l -2.109375,-2.109375 c -0.587606,-0.587605 -0.636156,-1.520094 -0.09375,-2.0625 l 4.359375,-4.359375 h -9.84375 c -0.831,0 -1.5,-0.669 -1.5,-1.5 v -3 c 0,-0.831 0.669,-1.5 1.5,-1.5 h 9.890625 l -4.40625,-4.4062501 c -0.542406,-0.542406 -0.493856,-1.428019 0.09375,-2.015625 l 2.109375,-2.1562496 c 0.293803,-0.2938035 0.662568,-0.454002 1.03125,-0.46875 z"
     inkscape:connector-curvature="0" />
  <path
     style="color:#000000;display:inline;overflow:visible;visibility:visible;opacity:0.1;fill:none;stroke:#000000;stroke-width:1;stroke-linecap:round;stroke-linejoin:round;stroke-miterlimit:4;stroke-dasharray:none;stroke-dashoffset:0;stroke-opacity:1;marker:none;enable-background:accumulate"
     id="path3996"
     d="m 15.080339,3.9755153 c 0.127695,-0.0051 0.266691,0.03231 0.421875,0.1875 l 10.6875,10.4531247 c 0.126735,0.126735 0.200976,0.278283 0.234375,0.421875 0.02567,0.11034 0.0018,0.15938 0,0.1875 a 0.74555624,0.74555623 0 0 0 0,0.04687 c -0.0117,0.06784 0.002,0.03289 0,0.04687 4.32e-4,0.0078 0.0013,0.01485 0,0.04687 a 0.74555624,0.74555623 0 0 0 -0.04687,0.140625 c -0.03544,0.164582 -0.07906,0.313446 -0.1875,0.421875 l -10.6875,10.453125 c -0.239786,0.239786 -0.647076,0.243549 -0.984375,-0.09375 l -2.109375,-2.109375 c -0.323282,-0.323281 -0.31835,-0.80665 -0.09375,-1.03125 l 4.35937,-4.35936 A 0.74555624,0.74555623 0 0 0 16.158464,17.52239 H 6.3147136 c -0.4308975,0 -0.75,-0.319102 -0.75,-0.75 v -3 c 0,-0.430897 0.3191025,-0.75 0.75,-0.75 h 9.8906254 a 0.74555624,0.74555623 0 0 0 0.515625,-1.265625 l -4.40625,-4.4062501 c -0.239784,-0.239784 -0.243549,-0.647076 0.09375,-0.984375 l 2.109375,-2.1562496 c 0.169069,-0.1690695 0.389416,-0.227451 0.5625,-0.234375 z"
     inkscape:connector-curvature="0" />
  <path
     style="color:#000000;display:inline;overflow:visible;visibility:visible;opacity:0.02999998;fill:none;stroke:#000000;stroke-width:1;stroke-linecap:butt;stroke-linejoin:miter;stroke-miterlimit:4;stroke-dasharray:none;stroke-dashoffset:0;stroke-opacity:1;marker:none;enable-background:accumulate"
     id="path3996-3"
     d="m 15.033464,5.7567649 9.75,9.5156251 -9.703125,9.515625 -1.171875,-1.171875 3.796875,-3.796875 a 2.1928817,2.1928817 0 0 0 -1.546875,-3.75 H 7.0178386 v -1.59375 h 9.1875004 a 2.1928817,2.1928817 0 0 0 1.546875,-3.75 l -3.84375,-3.8437501 z"
     inkscape:connector-curvature="0" />
</svg>
