<?xml version="1.0" encoding="UTF-8" standalone="no"?>
<svg
   xmlns:dc="http://purl.org/dc/elements/1.1/"
   xmlns:cc="http://creativecommons.org/ns#"
   xmlns:rdf="http://www.w3.org/1999/02/22-rdf-syntax-ns#"
   xmlns:svg="http://www.w3.org/2000/svg"
   xmlns="http://www.w3.org/2000/svg"
   xmlns:xlink="http://www.w3.org/1999/xlink"
   xmlns:sodipodi="http://sodipodi.sourceforge.net/DTD/sodipodi-0.dtd"
   xmlns:inkscape="http://www.inkscape.org/namespaces/inkscape"
   id="svg4524"
   height="32"
   width="32"
   version="1.1"
   sodipodi:docname="go-previous.svg"
   inkscape:version="0.92.4 (5da689c313, 2019-01-14)">
  <sodipodi:namedview
     pagecolor="#ffffff"
     bordercolor="#666666"
     borderopacity="1"
     objecttolerance="10"
     gridtolerance="10"
     guidetolerance="10"
     inkscape:pageopacity="0"
     inkscape:pageshadow="2"
     inkscape:window-width="2880"
     inkscape:window-height="1706"
     id="namedview15"
     showgrid="false"
     inkscape:zoom="9.8333333"
     inkscape:cx="-22.983051"
     inkscape:cy="12"
     inkscape:window-x="-11"
     inkscape:window-y="-11"
     inkscape:window-maximized="1"
     inkscape:current-layer="svg4524" />
  <defs
     id="defs4526">
    <radialGradient
       gradientTransform="matrix(0,1.9125008,-1.9432599,0,-20.559968,-29.342505)"
       gradientUnits="userSpaceOnUse"
       xlink:href="#linearGradient2867-449-88-871-390-598-476-591-434-148-57-177-641-289-620-227-114-444-680-744-4-1-5"
       id="radialGradient3896-0"
       fy="-19.005346"
       fx="16.202444"
       r="19.99999"
       cy="-19.005346"
       cx="16.202444" />
    <linearGradient
       id="linearGradient2867-449-88-871-390-598-476-591-434-148-57-177-641-289-620-227-114-444-680-744-4-1-5">
      <stop
         offset="0"
         style="stop-color:#737373;stop-opacity:1"
         id="stop5430-5-0-9" />
      <stop
         offset="0.26238"
         style="stop-color:#636363;stop-opacity:1"
         id="stop5432-2-0-0" />
      <stop
         offset="0.704952"
         style="stop-color:#4b4b4b;stop-opacity:1"
         id="stop5434-9-6-8" />
      <stop
         offset="1"
         style="stop-color:#3f3f3f;stop-opacity:1"
         id="stop5436-2-7-0" />
    </linearGradient>
  </defs>
  <metadata
     id="metadata4529">
    <rdf:RDF>
      <cc:Work
         rdf:about="">
        <dc:format>image/svg+xml</dc:format>
        <dc:type
           rdf:resource="http://purl.org/dc/dcmitype/StillImage" />
        <dc:title />
      </cc:Work>
    </rdf:RDF>
  </metadata>
  <path
     style="color:#000000;display:inline;overflow:visible;visibility:visible;opacity:0.35;fill:#ffffff;fill-opacity:1;fill-rule:nonzero;stroke:none;stroke-width:1;stroke-miterlimit:4;stroke-dasharray:none;marker:none;enable-background:accumulate"
     id="rect3811-1-7"
     d="m 16.822248,6.4162137 c -0.31338,-0.012495 -0.606196,0.1280712 -0.836719,0.3585938 L 6.9011539,15.659963 c -0.1872993,0.1873 -0.3043059,0.404099 -0.3585937,0.6375 -0.027885,0.119889 -0.047547,0.238884 -0.039844,0.358594 -0.00215,0.03862 -0.00156,0.08063 0,0.119531 0.012074,0.0701 0.014997,0.132602 0.039844,0.199219 0.051826,0.240679 0.1658003,0.48455 0.3585937,0.677344 l 9.0843751,8.885156 c 0.461045,0.461045 1.213817,0.419778 1.713281,-0.07969 l 1.792969,-1.792969 c 0.499465,-0.499464 0.540733,-1.29208 0.07969,-1.753125 L 15.866,19.206054 h 8.367187 c 0.70635,0 1.275,-0.56865 1.275,-1.275 v -2.55 c 0,-0.70635 -0.56865,-1.275 -1.275,-1.275 h -8.407031 l 3.745313,-3.745312 C 20.032512,9.8997012 19.991244,9.1469285 19.491779,8.6474634 L 17.69881,6.8146512 C 17.449078,6.5649195 17.135627,6.4287495 16.822248,6.4162137 Z"
     inkscape:connector-curvature="0" />
  <path
     style="color:#000000;display:inline;overflow:visible;visibility:visible;fill:url(#radialGradient3896-0);fill-opacity:1;fill-rule:nonzero;stroke:none;stroke-width:1;stroke-miterlimit:4;stroke-dasharray:none;marker:none;enable-background:accumulate"
     id="rect3811-1"
     d="M 16.822248,5.141688 C 16.508868,5.129193 16.216052,5.2697592 15.985529,5.5002818 L 6.9011539,14.385438 c -0.1872993,0.187299 -0.3043059,0.404098 -0.3585937,0.6375 -0.027885,0.119888 -0.047547,0.238883 -0.039844,0.358594 -0.00215,0.03862 -0.00156,0.08063 0,0.119531 0.012074,0.0701 0.014997,0.132601 0.039844,0.199219 0.051826,0.240679 0.1658003,0.48455 0.3585937,0.677343 l 9.0843751,8.885157 c 0.461045,0.461045 1.213817,0.419777 1.713281,-0.07969 l 1.792969,-1.792969 c 0.499465,-0.499464 0.540733,-1.29208 0.07969,-1.753125 L 15.866,17.93153 h 8.367187 c 0.70635,0 1.275,-0.56865 1.275,-1.275 v -2.55 c 0,-0.70635 -0.56865,-1.275 -1.275,-1.275 H 15.826154 L 19.571467,9.0862189 C 20.032512,8.6251738 19.991244,7.8724028 19.491779,7.3729377 L 17.69881,5.5401255 C 17.449078,5.2903925 17.135627,5.1542238 16.822248,5.141688 Z"
     inkscape:connector-curvature="0" />
  <path
     style="color:#000000;display:inline;overflow:visible;visibility:visible;opacity:0.1;fill:none;stroke:#000000;stroke-width:1;stroke-linecap:round;stroke-linejoin:round;stroke-miterlimit:4;stroke-dasharray:none;stroke-dashoffset:0;stroke-opacity:1;marker:none;enable-background:accumulate"
     id="path3996"
     d="M 16.782404,5.779188 C 16.673863,5.774848 16.555717,5.806651 16.42381,5.938563 l -9.0843748,8.885156 c -0.1077222,0.107725 -0.1708299,0.236541 -0.1992188,0.358594 -0.021815,0.09379 -0.00154,0.135473 0,0.159375 a 0.6337228,0.6337228 0 0 1 0,0.03984 c 0.00993,0.05766 -0.00165,0.02796 0,0.03984 -3.668e-4,0.0066 -0.00109,0.01262 0,0.03984 a 0.6337228,0.6337228 0 0 1 0.039844,0.119532 c 0.030123,0.139894 0.06721,0.266429 0.159375,0.358593 L 16.42381,24.8245 c 0.203818,0.203818 0.550015,0.207017 0.836719,-0.07969 l 1.792969,-1.792969 c 0.274789,-0.274789 0.270597,-0.685652 0.07969,-0.876562 L 15.42772,18.36981 a 0.6337228,0.6337228 0 0 1 0.438281,-1.075781 h 8.367187 c 0.366264,0 0.6375,-0.271237 0.6375,-0.6375 v -2.55 c 0,-0.366263 -0.271236,-0.6375 -0.6375,-0.6375 H 15.826154 A 0.6337228,0.6337228 0 0 1 15.387873,12.39325 L 19.133185,8.6479377 C 19.337002,8.4441213 19.340202,8.0979231 19.053498,7.8112189 L 17.260529,5.9784068 C 17.11682,5.8346977 16.929525,5.7850734 16.782404,5.779188 Z"
     inkscape:connector-curvature="0" />
  <path
     style="color:#000000;display:inline;overflow:visible;visibility:visible;opacity:0.02999998;fill:none;stroke:#000000;stroke-width:1;stroke-linecap:butt;stroke-linejoin:miter;stroke-miterlimit:4;stroke-dasharray:none;stroke-dashoffset:0;stroke-opacity:1;marker:none;enable-background:accumulate"
     id="path3996-3"
     d="m 16.822248,7.2932502 -8.2875003,8.0882818 8.2476563,8.088281 0.996094,-0.996094 -3.227344,-3.227344 a 1.8639494,1.8639494 0 0 1 1.314844,-3.1875 h 7.769531 v -1.354687 h -7.809375 a 1.8639494,1.8639494 0 0 1 -1.314844,-3.1875 l 3.267188,-3.2671878 z"
     inkscape:connector-curvature="0" />
</svg>
