<?xml version="1.0" encoding="UTF-8" standalone="no"?>
<svg
   xmlns:dc="http://purl.org/dc/elements/1.1/"
   xmlns:cc="http://creativecommons.org/ns#"
   xmlns:rdf="http://www.w3.org/1999/02/22-rdf-syntax-ns#"
   xmlns:svg="http://www.w3.org/2000/svg"
   xmlns="http://www.w3.org/2000/svg"
   xmlns:xlink="http://www.w3.org/1999/xlink"
   xmlns:sodipodi="http://sodipodi.sourceforge.net/DTD/sodipodi-0.dtd"
   xmlns:inkscape="http://www.inkscape.org/namespaces/inkscape"
   version="1.1"
   width="32"
   height="32"
   id="svg4524"
   sodipodi:docname="go-top.svg"
   inkscape:version="0.92.4 (5da689c313, 2019-01-14)">
  <sodipodi:namedview
     pagecolor="#ffffff"
     bordercolor="#666666"
     borderopacity="1"
     objecttolerance="10"
     gridtolerance="10"
     guidetolerance="10"
     inkscape:pageopacity="0"
     inkscape:pageshadow="2"
     inkscape:window-width="1920"
     inkscape:window-height="1017"
     id="namedview34"
     showgrid="false"
     inkscape:zoom="9.8333333"
     inkscape:cx="-0.66101695"
     inkscape:cy="12"
     inkscape:window-x="-8"
     inkscape:window-y="-8"
     inkscape:window-maximized="1"
     inkscape:current-layer="svg4524" />
  <defs
     id="defs4526">
    <linearGradient
       id="linearGradient2867-449-88-871-390-598-476-591-434-148-57-177-641-289-620-227-114-444-680-744-4-1">
      <stop
         id="stop5430-5-0"
         style="stop-color:#737373;stop-opacity:1"
         offset="0" />
      <stop
         id="stop5432-2-0"
         style="stop-color:#636363;stop-opacity:1"
         offset="0.26238" />
      <stop
         id="stop5434-9-6"
         style="stop-color:#4b4b4b;stop-opacity:1"
         offset="0.704952" />
      <stop
         id="stop5436-2-7"
         style="stop-color:#3f3f3f;stop-opacity:1"
         offset="1" />
    </linearGradient>
    <radialGradient
       cx="16.202444"
       cy="-19.005346"
       r="19.99999"
       fx="16.202444"
       fy="-19.005346"
       id="radialGradient3769"
       xlink:href="#linearGradient2867-449-88-871-390-598-476-591-434-148-57-177-641-289-620-227-114-444-680-744-4-1"
       gradientUnits="userSpaceOnUse"
       gradientTransform="matrix(0,1.5000006,-1.5241254,0,-16.959842,-23.077676)" />
    <radialGradient
       cx="16.202444"
       cy="-19.005346"
       r="19.99999"
       fx="16.202444"
       fy="-19.005346"
       id="radialGradient3896"
       xlink:href="#linearGradient2867-449-88-871-390-598-476-591-434-148-57-177-641-289-620-227-114-444-680-744-4-1"
       gradientUnits="userSpaceOnUse"
       gradientTransform="matrix(0,1.5000006,-1.5241254,0,-17.131885,-23.077676)" />
    <radialGradient
       cx="22.652411"
       cy="-40.142262"
       r="19.99999"
       fx="22.652411"
       fy="-40.142262"
       id="radialGradient3896-0"
       xlink:href="#linearGradient2867-449-88-871-390-598-476-591-434-148-57-177-641-289-620-227-114-444-680-744-4-1-5"
       gradientUnits="userSpaceOnUse"
       gradientTransform="matrix(-2.1875862,0,0,-2.2861881,66.368716,-90.200217)" />
    <linearGradient
       id="linearGradient2867-449-88-871-390-598-476-591-434-148-57-177-641-289-620-227-114-444-680-744-4-1-5">
      <stop
         id="stop5430-5-0-9"
         style="stop-color:#737373;stop-opacity:1"
         offset="0" />
      <stop
         id="stop5432-2-0-0"
         style="stop-color:#636363;stop-opacity:1"
         offset="0.26238" />
      <stop
         id="stop5434-9-6-8"
         style="stop-color:#4b4b4b;stop-opacity:1"
         offset="0.704952" />
      <stop
         id="stop5436-2-7-0"
         style="stop-color:#3f3f3f;stop-opacity:1"
         offset="1" />
    </linearGradient>
    <radialGradient
       cx="16.202444"
       cy="-19.005346"
       r="19.99999"
       fx="16.202444"
       fy="-19.005346"
       id="radialGradient3046"
       xlink:href="#linearGradient2867-449-88-871-390-598-476-591-434-148-57-177-641-289-620-227-114-444-680-744-4-1-9"
       gradientUnits="userSpaceOnUse"
       gradientTransform="matrix(0,1.5000006,-1.5241254,0,0.040158,-24.077898)" />
    <linearGradient
       id="linearGradient2867-449-88-871-390-598-476-591-434-148-57-177-641-289-620-227-114-444-680-744-4-1-9">
      <stop
         id="stop5430-5-0-3"
         style="stop-color:#737373;stop-opacity:1"
         offset="0" />
      <stop
         id="stop5432-2-0-5"
         style="stop-color:#636363;stop-opacity:1"
         offset="0.26238" />
      <stop
         id="stop5434-9-6-0"
         style="stop-color:#4b4b4b;stop-opacity:1"
         offset="0.704952" />
      <stop
         id="stop5436-2-7-9"
         style="stop-color:#3f3f3f;stop-opacity:1"
         offset="1" />
    </linearGradient>
    <radialGradient
       cx="23.385405"
       cy="-10.471315"
       r="19.99999"
       fx="23.385405"
       fy="-10.471315"
       id="radialGradient3031"
       xlink:href="#linearGradient2867-449-88-871-390-598-476-591-434-148-57-177-641-289-620-227-114-444-680-744-4-1-9"
       gradientUnits="userSpaceOnUse"
       gradientTransform="matrix(-2.2500009,0,0,-2.2861881,70.112314,-25.15508)" />
  </defs>
  <metadata
     id="metadata4529">
    <rdf:RDF>
      <cc:Work
         rdf:about="">
        <dc:format>image/svg+xml</dc:format>
        <dc:type
           rdf:resource="http://purl.org/dc/dcmitype/StillImage" />
        <dc:title></dc:title>
      </cc:Work>
    </rdf:RDF>
  </metadata>
  <path
     d="m 28.017144,19.996564 c 0.0147,-0.368685 -0.150672,-0.713172 -0.421877,-0.984377 L 17.142145,8.324684 C 16.921794,8.104333 16.66674,7.966673 16.392145,7.902812 16.2511,7.869992 16.111107,7.846882 15.97027,7.855942 c -0.04543,-0.0026 -0.09486,-0.0018 -0.140625,0 -0.08247,0.01425 -0.155992,0.01764 -0.234379,0.04687 -0.283155,0.06097 -0.57006,0.19506 -0.796878,0.421874 L 4.3452661,19.01219 c -0.542406,0.542408 -0.4938555,1.428018 0.09375,2.015625 l 2.1093735,2.109377 c 0.587607,0.587605 1.5200955,0.636154 2.0625,0.09375 L 12.970265,18.87157 v 9.843747 c 0,0.831 0.669001,1.499998 1.499999,1.5 l 3,-2e-6 c 0.830997,0 1.499999,-0.669 1.5,-1.500001 l 2e-6,-9.890621 4.406247,4.406249 c 0.542409,0.542401 1.428022,0.493851 2.015628,-0.09375 l 2.156254,-2.109374 c 0.293802,-0.293802 0.454001,-0.662568 0.46875,-1.03125 z"
     id="rect3811-1-7"
     style="color:#000000;display:inline;overflow:visible;visibility:visible;opacity:0.35;fill:#ffffff;fill-opacity:1;fill-rule:nonzero;stroke:none;stroke-width:1;marker:none;enable-background:accumulate;stroke-miterlimit:4;stroke-dasharray:none"
     inkscape:connector-curvature="0" />
  <path
     d="m 24.995134,4.409317 c 0,-0.606 -0.519,-1.125 -1.125,-1.125 H 8.1201344 c -0.6059985,0 -1.125,0.519 -1.125,1.125 v 2.25 c 0,0.605998 0.5190015,1.125 1.125,1.125 0.00255,0.0093 15.7499996,0 15.7499996,0 0.606,0 1.125,-0.519002 1.125,-1.125 z"
     id="path3999-9"
     style="color:#000000;display:inline;overflow:visible;visibility:visible;opacity:0.35;fill:#ffffff;fill-opacity:1;fill-rule:nonzero;stroke:none;stroke-width:1;marker:none;enable-background:accumulate;stroke-miterlimit:4;stroke-dasharray:none"
     inkscape:connector-curvature="0" />
  <path
     d="m 28.017142,18.497117 c 0.0147,-0.368683 -0.150673,-0.713172 -0.421875,-0.984375 L 17.142144,6.825241 c -0.220355,-0.220353 -0.475407,-0.358013 -0.75,-0.421872 -0.14103,-0.0328 -0.281043,-0.05593 -0.421875,-0.04687 -0.04544,-0.0025 -0.09486,-0.0018 -0.140625,0 -0.08247,0.01425 -0.155993,0.01764 -0.234378,0.04687 -0.283157,0.06098 -0.57006,0.19506 -0.79688,0.421875 L 4.3452667,17.512747 c -0.542406,0.542406 -0.493857,1.428018 0.09375,2.015623 l 2.1093765,2.109375 c 0.5876055,0.587606 1.5200925,0.636153 2.0624985,0.09375 l 4.3593783,-4.359372 -3e-6,9.843747 c 1e-6,0.831 0.669,1.5 1.5,1.5 l 2.999997,-10e-7 c 0.831,-2e-6 1.5,-0.668999 1.5,-1.499999 v -9.890623 l 4.40625,4.406247 c 0.542405,0.542404 1.428018,0.493857 2.015624,-0.09375 l 2.156256,-2.109377 c 0.293805,-0.2938 0.454,-0.662566 0.46875,-1.03125 z"
     id="rect3811-1"
     style="color:#000000;display:inline;overflow:visible;visibility:visible;fill:url(#radialGradient3896-0);fill-opacity:1;fill-rule:nonzero;stroke:none;stroke-width:1;marker:none;enable-background:accumulate;stroke-miterlimit:4;stroke-dasharray:none"
     inkscape:connector-curvature="0" />
  <path
     d="m 27.283231,18.460585 c 0.0051,-0.127695 -0.03231,-0.26669 -0.187497,-0.421874 L 16.642611,7.351211 c -0.126735,-0.126735 -0.278282,-0.20098 -0.421878,-0.234372 -0.11034,-0.02567 -0.159384,-0.0018 -0.187503,0 a 0.74555623,0.74555623 0 0 1 -0.04687,-10e-7 c -0.06785,0.0117 -0.03289,-0.0019 -0.04687,-3e-6 -0.0078,-4.33e-4 -0.01485,-0.0013 -0.04687,0 a 0.74555623,0.74555623 0 0 1 -0.140625,0.04687 c -0.164564,0.03545 -0.313433,0.07905 -0.421863,0.187491 L 4.8769889,18.038684 c -0.2397855,0.239786 -0.243552,0.647078 0.09375,0.984377 l 2.1093585,2.109381 c 0.3232785,0.323281 0.806649,0.318351 1.03125,0.09375 l 4.3593746,-4.35937 a 0.74555623,0.74555623 0 0 1 1.265627,0.51563 l 3e-6,9.843749 c 0,0.430897 0.319102,0.750001 0.749998,0.749999 l 3.000011,8e-6 c 0.430897,0 0.749998,-0.319102 0.749998,-0.75 v -9.890623 a 0.74555623,0.74555623 0 0 1 1.265624,-0.515624 l 4.406248,4.406247 c 0.239786,0.239783 0.647078,0.243551 0.984375,-0.09375 l 2.156253,-2.10937 c 0.16907,-0.169069 0.227454,-0.389417 0.234372,-0.562503 z"
     id="path3996"
     style="color:#000000;display:inline;overflow:visible;visibility:visible;opacity:0.1;fill:none;stroke:#000000;stroke-width:1;stroke-linecap:round;stroke-linejoin:round;stroke-miterlimit:4;stroke-dasharray:none;stroke-dashoffset:0;stroke-opacity:1;marker:none;enable-background:accumulate"
     inkscape:connector-curvature="0" />
  <path
     d="m 25.542223,18.38111 -9.515623,-9.75 -9.5156225,9.703127 1.1718765,1.171876 3.796875,-3.796876 a 2.1928817,2.1928817 0 0 1 3.749996,1.546875 v 9.140625 h 1.59375 v -9.1875 a 2.1928817,2.1928817 0 0 1 3.749997,-1.546878 l 3.843751,3.84375 z"
     id="path3996-3"
     style="color:#000000;display:inline;overflow:visible;visibility:visible;opacity:0.02999998;fill:none;stroke:#000000;stroke-width:1;stroke-linecap:butt;stroke-linejoin:miter;stroke-miterlimit:4;stroke-dasharray:none;stroke-dashoffset:0;stroke-opacity:1;marker:none;enable-background:accumulate"
     inkscape:connector-curvature="0" />
  <path
     d="M 24.269958,4.8027085 V 4.0105255 H 9.2216429 V 4.808839 L 24.269958,4.802689 Z"
     id="path2343"
     style="opacity:0.02999998;fill:none;stroke:#000000;stroke-width:1;stroke-linecap:square;stroke-linejoin:miter;stroke-miterlimit:4;stroke-dasharray:none;stroke-dashoffset:0.69999993;stroke-opacity:1"
     inkscape:connector-curvature="0" />
  <path
     d="m 24.995467,2.909683 c 0,-0.606 -0.519001,-1.125 -1.125,-1.125 H 8.1208004 c -0.6059985,0 -1.125,0.519 -1.125,1.125 v 2.25 c 0,0.605998 0.5190015,1.125 1.125,1.125 -0.105495,0 15.4541296,0 15.7496666,0 0.605999,0 1.125,-0.519002 1.125,-1.125 z"
     id="path3999"
     style="color:#000000;display:inline;overflow:visible;visibility:visible;fill:url(#radialGradient3031);fill-opacity:1;fill-rule:nonzero;stroke:none;stroke-width:1;marker:none;enable-background:accumulate;stroke-miterlimit:4;stroke-dasharray:none"
     inkscape:connector-curvature="0" />
  <path
     d="m 24.245467,2.909683 c 0,-0.20775 -0.16725,-0.375 -0.375,-0.375 H 8.1208004 c -0.20775,0 -0.375,0.16725 -0.375,0.375 v 2.25 c 0,0.20775 0.16725,0.375 0.375,0.375 0.08178,0 15.7496666,0 15.7496666,0 0.20775,0 0.375,-0.16725 0.375,-0.375 z"
     id="rect3868"
     style="color:#000000;display:inline;overflow:visible;visibility:visible;opacity:0.1;fill:none;stroke:#000000;stroke-width:1;stroke-linecap:round;stroke-linejoin:round;stroke-miterlimit:4;stroke-dasharray:none;stroke-opacity:1;marker:none;enable-background:accumulate"
     inkscape:connector-curvature="0" />
  <path
     d="M 22.698967,4.081558 H 9.2926754 v 1.40625 H 22.698967 Z"
     id="path4060"
     style="color:#000000;display:inline;overflow:visible;visibility:visible;opacity:0.02999998;fill:none;stroke:#000000;stroke-width:1;stroke-linecap:butt;stroke-linejoin:miter;stroke-miterlimit:4;stroke-dasharray:none;stroke-opacity:1;marker:none;enable-background:accumulate"
     inkscape:connector-curvature="0" />
</svg>
