<?xml version="1.0" encoding="UTF-8" standalone="no"?>
<svg
   xmlns:dc="http://purl.org/dc/elements/1.1/"
   xmlns:cc="http://creativecommons.org/ns#"
   xmlns:rdf="http://www.w3.org/1999/02/22-rdf-syntax-ns#"
   xmlns:svg="http://www.w3.org/2000/svg"
   xmlns="http://www.w3.org/2000/svg"
   xmlns:xlink="http://www.w3.org/1999/xlink"
   xmlns:sodipodi="http://sodipodi.sourceforge.net/DTD/sodipodi-0.dtd"
   xmlns:inkscape="http://www.inkscape.org/namespaces/inkscape"
   version="1.1"
   width="32"
   height="32"
   id="svg4524"
   sodipodi:docname="go-top.svg"
   inkscape:version="0.92.4 (5da689c313, 2019-01-14)">
  <sodipodi:namedview
     pagecolor="#ffffff"
     bordercolor="#666666"
     borderopacity="1"
     objecttolerance="10"
     gridtolerance="10"
     guidetolerance="10"
     inkscape:pageopacity="0"
     inkscape:pageshadow="2"
     inkscape:window-width="2880"
     inkscape:window-height="1706"
     id="namedview34"
     showgrid="false"
     inkscape:zoom="9.8333333"
     inkscape:cx="-22.983051"
     inkscape:cy="12"
     inkscape:window-x="-11"
     inkscape:window-y="-11"
     inkscape:window-maximized="1"
     inkscape:current-layer="svg4524" />
  <defs
     id="defs4526">
    <linearGradient
       id="linearGradient2867-449-88-871-390-598-476-591-434-148-57-177-641-289-620-227-114-444-680-744-4-1">
      <stop
         id="stop5430-5-0"
         style="stop-color:#737373;stop-opacity:1"
         offset="0" />
      <stop
         id="stop5432-2-0"
         style="stop-color:#636363;stop-opacity:1"
         offset="0.26238" />
      <stop
         id="stop5434-9-6"
         style="stop-color:#4b4b4b;stop-opacity:1"
         offset="0.704952" />
      <stop
         id="stop5436-2-7"
         style="stop-color:#3f3f3f;stop-opacity:1"
         offset="1" />
    </linearGradient>
    <radialGradient
       cx="16.202444"
       cy="-19.005346"
       r="19.99999"
       fx="16.202444"
       fy="-19.005346"
       id="radialGradient3769"
       xlink:href="#linearGradient2867-449-88-871-390-598-476-591-434-148-57-177-641-289-620-227-114-444-680-744-4-1"
       gradientUnits="userSpaceOnUse"
       gradientTransform="matrix(0,1.5000006,-1.5241254,0,-16.959842,-23.077676)" />
    <radialGradient
       cx="16.202444"
       cy="-19.005346"
       r="19.99999"
       fx="16.202444"
       fy="-19.005346"
       id="radialGradient3896"
       xlink:href="#linearGradient2867-449-88-871-390-598-476-591-434-148-57-177-641-289-620-227-114-444-680-744-4-1"
       gradientUnits="userSpaceOnUse"
       gradientTransform="matrix(0,1.5000006,-1.5241254,0,-17.131885,-23.077676)" />
    <radialGradient
       cx="22.652411"
       cy="-40.142262"
       r="19.99999"
       fx="22.652411"
       fy="-40.142262"
       id="radialGradient3896-0"
       xlink:href="#linearGradient2867-449-88-871-390-598-476-591-434-148-57-177-641-289-620-227-114-444-680-744-4-1-5"
       gradientUnits="userSpaceOnUse"
       gradientTransform="matrix(-1.8594483,0,0,-1.9432599,58.812265,-74.270184)" />
    <linearGradient
       id="linearGradient2867-449-88-871-390-598-476-591-434-148-57-177-641-289-620-227-114-444-680-744-4-1-5">
      <stop
         id="stop5430-5-0-9"
         style="stop-color:#737373;stop-opacity:1"
         offset="0" />
      <stop
         id="stop5432-2-0-0"
         style="stop-color:#636363;stop-opacity:1"
         offset="0.26238" />
      <stop
         id="stop5434-9-6-8"
         style="stop-color:#4b4b4b;stop-opacity:1"
         offset="0.704952" />
      <stop
         id="stop5436-2-7-0"
         style="stop-color:#3f3f3f;stop-opacity:1"
         offset="1" />
    </linearGradient>
    <radialGradient
       cx="16.202444"
       cy="-19.005346"
       r="19.99999"
       fx="16.202444"
       fy="-19.005346"
       id="radialGradient3046"
       xlink:href="#linearGradient2867-449-88-871-390-598-476-591-434-148-57-177-641-289-620-227-114-444-680-744-4-1-9"
       gradientUnits="userSpaceOnUse"
       gradientTransform="matrix(0,1.5000006,-1.5241254,0,0.040158,-24.077898)" />
    <linearGradient
       id="linearGradient2867-449-88-871-390-598-476-591-434-148-57-177-641-289-620-227-114-444-680-744-4-1-9">
      <stop
         id="stop5430-5-0-3"
         style="stop-color:#737373;stop-opacity:1"
         offset="0" />
      <stop
         id="stop5432-2-0-5"
         style="stop-color:#636363;stop-opacity:1"
         offset="0.26238" />
      <stop
         id="stop5434-9-6-0"
         style="stop-color:#4b4b4b;stop-opacity:1"
         offset="0.704952" />
      <stop
         id="stop5436-2-7-9"
         style="stop-color:#3f3f3f;stop-opacity:1"
         offset="1" />
    </linearGradient>
    <radialGradient
       cx="23.385405"
       cy="-10.471315"
       r="19.99999"
       fx="23.385405"
       fy="-10.471315"
       id="radialGradient3031"
       xlink:href="#linearGradient2867-449-88-871-390-598-476-591-434-148-57-177-641-289-620-227-114-444-680-744-4-1-9"
       gradientUnits="userSpaceOnUse"
       gradientTransform="matrix(-1.9125008,0,0,-1.9432599,61.994324,-18.981818)" />
  </defs>
  <metadata
     id="metadata4529">
    <rdf:RDF>
      <cc:Work
         rdf:about="">
        <dc:format>image/svg+xml</dc:format>
        <dc:type
           rdf:resource="http://purl.org/dc/dcmitype/StillImage" />
        <dc:title />
      </cc:Work>
    </rdf:RDF>
  </metadata>
  <path
     d="m 26.213429,19.397079 c 0.01249,-0.313382 -0.128071,-0.606196 -0.358595,-0.83672 L 16.96968,9.4759814 C 16.782382,9.2886831 16.565586,9.171672 16.33218,9.1173902 c -0.119888,-0.027897 -0.238882,-0.04754 -0.358594,-0.039839 -0.03861,-0.00221 -0.08063,-0.00153 -0.119531,0 -0.0701,0.012113 -0.132593,0.014994 -0.199222,0.039839 -0.240682,0.051825 -0.484551,0.165801 -0.677346,0.3585929 L 6.092333,18.560361 c -0.4610451,0.461047 -0.4197772,1.213816 0.079688,1.713282 l 1.7929675,1.79297 c 0.4994659,0.499464 1.2920812,0.540731 1.753125,0.07969 l 3.7054695,-3.705467 v 8.367185 c 0,0.70635 0.568651,1.274999 1.274999,1.275 l 2.549999,-10e-7 c 0.706348,0 1.275,-0.56865 1.275,-1.275001 l 2e-6,-8.407028 3.74531,3.745312 c 0.461048,0.461041 1.213819,0.419773 1.713284,-0.07969 l 1.832816,-1.792968 c 0.249731,-0.249731 0.3859,-0.563183 0.398437,-0.876562 z"
     id="rect3811-1-7"
     style="color:#000000;display:inline;overflow:visible;visibility:visible;opacity:0.35;fill:#ffffff;fill-opacity:1;fill-rule:nonzero;stroke:none;stroke-width:1;stroke-miterlimit:4;stroke-dasharray:none;marker:none;enable-background:accumulate"
     inkscape:connector-curvature="0" />
  <path
     d="m 23.644721,6.1479194 c 0,-0.5151 -0.44115,-0.95625 -0.95625,-0.95625 H 9.3009711 c -0.5150988,0 -0.95625,0.44115 -0.95625,0.95625 v 1.9125 c 0,0.5150983 0.4411512,0.95625 0.95625,0.95625 0.00217,0.00791 13.3874999,0 13.3874999,0 0.5151,0 0.95625,-0.4411517 0.95625,-0.95625 z"
     id="path3999-9"
     style="color:#000000;display:inline;overflow:visible;visibility:visible;opacity:0.35;fill:#ffffff;fill-opacity:1;fill-rule:nonzero;stroke:none;stroke-width:1;stroke-miterlimit:4;stroke-dasharray:none;marker:none;enable-background:accumulate"
     inkscape:connector-curvature="0" />
  <path
     d="m 26.213428,18.122549 c 0.0125,-0.31338 -0.128073,-0.606196 -0.358594,-0.836718 L 16.969679,8.2014548 c -0.187302,-0.1873 -0.404096,-0.304311 -0.6375,-0.3585912 -0.119875,-0.02788 -0.238886,-0.047541 -0.358594,-0.03984 -0.03862,-0.00213 -0.08063,-0.00153 -0.119531,0 -0.0701,0.012112 -0.132594,0.014994 -0.199221,0.03984 -0.240684,0.051833 -0.484551,0.165801 -0.677348,0.3585938 L 6.0923335,17.285835 C 5.6312884,17.74688 5.6725551,18.49965 6.172021,18.999114 l 1.79297,1.792969 c 0.4994647,0.499465 1.2920787,0.54073 1.7531238,0.07969 l 3.7054712,-3.705466 -2e-6,8.367185 c 10e-7,0.706349 0.56865,1.274999 1.275,1.274999 h 2.549997 c 0.70635,-2e-6 1.275,-0.56865 1.275,-1.274999 v -8.40703 l 3.745313,3.74531 c 0.461044,0.461043 1.213815,0.419778 1.71328,-0.07969 l 1.832818,-1.79297 c 0.249734,-0.24973 0.3859,-0.563181 0.398436,-0.876563 z"
     id="rect3811-1"
     style="color:#000000;display:inline;overflow:visible;visibility:visible;fill:url(#radialGradient3896-0);fill-opacity:1;fill-rule:nonzero;stroke:none;stroke-width:1;stroke-miterlimit:4;stroke-dasharray:none;marker:none;enable-background:accumulate"
     inkscape:connector-curvature="0" />
  <path
     d="m 25.589603,18.091497 c 0.0043,-0.108541 -0.02746,-0.226686 -0.159372,-0.358593 L 16.545076,8.6485293 c -0.107725,-0.1077247 -0.23654,-0.170833 -0.358596,-0.1992162 -0.09379,-0.021819 -0.135477,-0.00153 -0.159378,0 a 0.6337228,0.6337228 0 0 1 -0.03984,-8e-7 c -0.05767,0.00995 -0.02796,-0.00162 -0.03984,-2.6e-6 -0.0066,-3.68e-4 -0.01262,-0.00111 -0.03984,0 a 0.6337228,0.6337228 0 0 1 -0.119531,0.039839 c -0.13988,0.030133 -0.266418,0.067193 -0.358584,0.1593674 L 6.5442974,17.732881 c -0.2038177,0.203818 -0.2070192,0.550017 0.079688,0.836721 l 1.7929547,1.792974 c 0.2747867,0.274789 0.6856517,0.270598 0.8765625,0.07969 l 3.7054694,-3.705464 a 0.6337228,0.6337228 0 0 1 1.075782,0.438285 l 2e-6,8.367187 c 0,0.366262 0.271237,0.637501 0.637499,0.637499 l 2.550009,7e-6 c 0.366262,0 0.637499,-0.271237 0.637499,-0.6375 v -8.40703 a 0.6337228,0.6337228 0 0 1 1.07578,-0.43828 l 3.745311,3.74531 c 0.203818,0.203815 0.550016,0.207018 0.836719,-0.07969 l 1.832815,-1.792964 c 0.143709,-0.143709 0.193336,-0.331005 0.199216,-0.478128 z"
     id="path3996"
     style="color:#000000;display:inline;overflow:visible;visibility:visible;opacity:0.1;fill:none;stroke:#000000;stroke-width:1;stroke-linecap:round;stroke-linejoin:round;stroke-miterlimit:4;stroke-dasharray:none;stroke-dashoffset:0;stroke-opacity:1;marker:none;enable-background:accumulate"
     inkscape:connector-curvature="0" />
  <path
     d="m 24.109746,18.023943 -8.088279,-8.2874995 -8.0882793,8.2476575 0.996095,0.996095 3.2273433,-3.227345 a 1.8639494,1.8639494 0 0 1 3.187497,1.314844 v 7.769531 h 1.354688 v -7.809375 a 1.8639494,1.8639494 0 0 1 3.187497,-1.314846 l 3.267188,3.267188 z"
     id="path3996-3"
     style="color:#000000;display:inline;overflow:visible;visibility:visible;opacity:0.02999998;fill:none;stroke:#000000;stroke-width:1;stroke-linecap:butt;stroke-linejoin:miter;stroke-miterlimit:4;stroke-dasharray:none;stroke-dashoffset:0;stroke-opacity:1;marker:none;enable-background:accumulate"
     inkscape:connector-curvature="0" />
  <path
     d="M 23.028321,6.4823022 V 5.8089467 H 10.237253 v 0.6785664 l 12.791068,-0.00523 z"
     id="path2343"
     style="opacity:0.02999998;fill:none;stroke:#000000;stroke-width:1;stroke-linecap:square;stroke-linejoin:miter;stroke-miterlimit:4;stroke-dasharray:none;stroke-dashoffset:0.69999993;stroke-opacity:1"
     inkscape:connector-curvature="0" />
  <path
     d="m 23.645004,4.8732305 c 0,-0.5151 -0.441151,-0.95625 -0.95625,-0.95625 H 9.3015372 c -0.5150988,0 -0.95625,0.44115 -0.95625,0.95625 v 1.9125 c 0,0.5150983 0.4411512,0.95625 0.95625,0.95625 -0.089671,0 13.1360098,0 13.3872168,0 0.515099,0 0.95625,-0.4411517 0.95625,-0.95625 z"
     id="path3999"
     style="color:#000000;display:inline;overflow:visible;visibility:visible;fill:url(#radialGradient3031);fill-opacity:1;fill-rule:nonzero;stroke:none;stroke-width:1;stroke-miterlimit:4;stroke-dasharray:none;marker:none;enable-background:accumulate"
     inkscape:connector-curvature="0" />
  <path
     d="m 23.007504,4.8732305 c 0,-0.1765875 -0.142163,-0.31875 -0.31875,-0.31875 H 9.3015372 c -0.1765875,0 -0.31875,0.1421625 -0.31875,0.31875 v 1.9125 c 0,0.1765875 0.1421625,0.31875 0.31875,0.31875 0.069513,0 13.3872168,0 13.3872168,0 0.176587,0 0.31875,-0.1421625 0.31875,-0.31875 z"
     id="rect3868"
     style="color:#000000;display:inline;overflow:visible;visibility:visible;opacity:0.1;fill:none;stroke:#000000;stroke-width:1;stroke-linecap:round;stroke-linejoin:round;stroke-miterlimit:4;stroke-dasharray:none;stroke-opacity:1;marker:none;enable-background:accumulate"
     inkscape:connector-curvature="0" />
  <path
     d="M 21.692979,5.8693243 H 10.297631 v 1.1953125 h 11.395348 z"
     id="path4060"
     style="color:#000000;display:inline;overflow:visible;visibility:visible;opacity:0.02999998;fill:none;stroke:#000000;stroke-width:1;stroke-linecap:butt;stroke-linejoin:miter;stroke-miterlimit:4;stroke-dasharray:none;stroke-opacity:1;marker:none;enable-background:accumulate"
     inkscape:connector-curvature="0" />
</svg>
