<?xml version="1.0" encoding="UTF-8" standalone="no"?>
<svg
   xmlns:dc="http://purl.org/dc/elements/1.1/"
   xmlns:cc="http://creativecommons.org/ns#"
   xmlns:rdf="http://www.w3.org/1999/02/22-rdf-syntax-ns#"
   xmlns:svg="http://www.w3.org/2000/svg"
   xmlns="http://www.w3.org/2000/svg"
   xmlns:xlink="http://www.w3.org/1999/xlink"
   xmlns:sodipodi="http://sodipodi.sourceforge.net/DTD/sodipodi-0.dtd"
   xmlns:inkscape="http://www.inkscape.org/namespaces/inkscape"
   version="1.1"
   width="32"
   height="32"
   id="svg4524"
   sodipodi:docname="go-up.svg"
   inkscape:version="0.92.4 (5da689c313, 2019-01-14)">
  <sodipodi:namedview
     pagecolor="#ffffff"
     bordercolor="#666666"
     borderopacity="1"
     objecttolerance="10"
     gridtolerance="10"
     guidetolerance="10"
     inkscape:pageopacity="0"
     inkscape:pageshadow="2"
     inkscape:window-width="2880"
     inkscape:window-height="1706"
     id="namedview22"
     showgrid="false"
     inkscape:zoom="9.8333333"
     inkscape:cx="-22.983051"
     inkscape:cy="12"
     inkscape:window-x="-11"
     inkscape:window-y="-11"
     inkscape:window-maximized="1"
     inkscape:current-layer="svg4524" />
  <defs
     id="defs4526">
    <linearGradient
       id="linearGradient2867-449-88-871-390-598-476-591-434-148-57-177-641-289-620-227-114-444-680-744-4-1">
      <stop
         id="stop5430-5-0"
         style="stop-color:#737373;stop-opacity:1"
         offset="0" />
      <stop
         id="stop5432-2-0"
         style="stop-color:#636363;stop-opacity:1"
         offset="0.26238" />
      <stop
         id="stop5434-9-6"
         style="stop-color:#4b4b4b;stop-opacity:1"
         offset="0.704952" />
      <stop
         id="stop5436-2-7"
         style="stop-color:#3f3f3f;stop-opacity:1"
         offset="1" />
    </linearGradient>
    <radialGradient
       cx="16.202444"
       cy="-19.005346"
       r="19.99999"
       fx="16.202444"
       fy="-19.005346"
       id="radialGradient3769"
       xlink:href="#linearGradient2867-449-88-871-390-598-476-591-434-148-57-177-641-289-620-227-114-444-680-744-4-1"
       gradientUnits="userSpaceOnUse"
       gradientTransform="matrix(0,1.5000006,-1.5241254,0,-16.959842,-23.077676)" />
    <radialGradient
       cx="16.202444"
       cy="-19.005346"
       r="19.99999"
       fx="16.202444"
       fy="-19.005346"
       id="radialGradient3896"
       xlink:href="#linearGradient2867-449-88-871-390-598-476-591-434-148-57-177-641-289-620-227-114-444-680-744-4-1"
       gradientUnits="userSpaceOnUse"
       gradientTransform="matrix(0,1.5000006,-1.5241254,0,-17.131885,-23.077676)" />
    <radialGradient
       cx="22.652411"
       cy="-40.142262"
       r="19.99999"
       fx="22.652411"
       fy="-40.142262"
       id="radialGradient3896-0"
       xlink:href="#linearGradient2867-449-88-871-390-598-476-591-434-148-57-177-641-289-620-227-114-444-680-744-4-1-5"
       gradientUnits="userSpaceOnUse"
       gradientTransform="matrix(-1.8594483,0,0,-1.9432599,58.812266,-76.212362)" />
    <linearGradient
       id="linearGradient2867-449-88-871-390-598-476-591-434-148-57-177-641-289-620-227-114-444-680-744-4-1-5">
      <stop
         id="stop5430-5-0-9"
         style="stop-color:#737373;stop-opacity:1"
         offset="0" />
      <stop
         id="stop5432-2-0-0"
         style="stop-color:#636363;stop-opacity:1"
         offset="0.26238" />
      <stop
         id="stop5434-9-6-8"
         style="stop-color:#4b4b4b;stop-opacity:1"
         offset="0.704952" />
      <stop
         id="stop5436-2-7-0"
         style="stop-color:#3f3f3f;stop-opacity:1"
         offset="1" />
    </linearGradient>
  </defs>
  <metadata
     id="metadata4529">
    <rdf:RDF>
      <cc:Work
         rdf:about="">
        <dc:format>image/svg+xml</dc:format>
        <dc:type
           rdf:resource="http://purl.org/dc/dcmitype/StillImage" />
        <dc:title />
      </cc:Work>
    </rdf:RDF>
  </metadata>
  <path
     d="m 26.21343,17.454902 c 0.0125,-0.313383 -0.128071,-0.606197 -0.358595,-0.836721 L 16.969681,7.5338036 c -0.187298,-0.1872984 -0.404094,-0.3043094 -0.6375,-0.3585912 -0.119888,-0.027897 -0.238882,-0.047549 -0.358594,-0.03984 -0.03862,-0.00221 -0.08063,-0.00153 -0.119531,0 -0.0701,0.012112 -0.132593,0.014994 -0.199222,0.03984 -0.240682,0.051824 -0.484551,0.165801 -0.677346,0.3585929 L 6.0923327,16.618184 c -0.4610451,0.461047 -0.4197772,1.213815 0.079688,1.713281 l 1.7929675,1.79297 c 0.4994659,0.499465 1.2920812,0.540731 1.753125,0.07969 l 3.7054688,-3.705466 v 8.367185 c 0,0.70635 0.568652,1.274998 1.275001,1.275 l 2.549999,-2e-6 c 0.706348,0 1.275,-0.56865 1.275,-1.275001 l 2e-6,-8.407028 3.74531,3.745312 c 0.461047,0.461041 1.213818,0.419773 1.713284,-0.07969 l 1.832815,-1.792967 c 0.249733,-0.249732 0.385901,-0.563183 0.398438,-0.876563 z"
     id="rect3811-1-7"
     style="color:#000000;display:inline;overflow:visible;visibility:visible;opacity:0.35;fill:#ffffff;fill-opacity:1;fill-rule:nonzero;stroke:none;stroke-width:1;stroke-miterlimit:4;stroke-dasharray:none;marker:none;enable-background:accumulate"
     inkscape:connector-curvature="0" />
  <path
     d="m 26.213428,16.180372 c 0.0125,-0.313381 -0.128072,-0.606196 -0.358593,-0.836719 L 16.96968,6.2592767 c -0.187302,-0.1873001 -0.404096,-0.3043106 -0.6375,-0.3585912 -0.119875,-0.027884 -0.238886,-0.047545 -0.358594,-0.039844 -0.03861,-0.00217 -0.08063,-0.00153 -0.119531,0 -0.0701,0.012112 -0.132594,0.014994 -0.199221,0.039844 -0.240684,0.051829 -0.484551,0.165801 -0.677348,0.3585937 L 6.0923332,15.343657 c -0.4610451,0.461045 -0.4197784,1.213816 0.079688,1.71328 l 1.79297,1.792969 c 0.4994647,0.499465 1.2920787,0.54073 1.7531238,0.07969 l 3.705472,-3.705466 -3e-6,8.367185 c 2e-6,0.70635 0.568652,1.275 1.275002,1.275 l 2.549996,-1e-6 c 0.706351,-2e-6 1.275,-0.568649 1.275,-1.274999 v -8.40703 l 3.745313,3.74531 c 0.461044,0.461044 1.213815,0.419779 1.71328,-0.07969 l 1.832818,-1.792971 c 0.249734,-0.24973 0.3859,-0.563181 0.398437,-0.876562 z"
     id="rect3811-1"
     style="color:#000000;display:inline;overflow:visible;visibility:visible;fill:url(#radialGradient3896-0);fill-opacity:1;fill-rule:nonzero;stroke:none;stroke-width:1;stroke-miterlimit:4;stroke-dasharray:none;marker:none;enable-background:accumulate"
     inkscape:connector-curvature="0" />
  <path
     d="m 25.589604,16.14932 c 0.0043,-0.108541 -0.02746,-0.226687 -0.159372,-0.358593 L 16.545077,6.7063515 c -0.107725,-0.1077246 -0.23654,-0.1708333 -0.358596,-0.1992161 -0.09379,-0.021815 -0.135477,-0.00153 -0.159378,0 a 0.6337228,0.6337228 0 0 1 -0.03984,-1.3e-6 c -0.05767,0.00995 -0.02796,-0.00166 -0.03984,-2.5e-6 -0.0066,-3.685e-4 -0.01262,-0.00108 -0.03984,0 a 0.6337228,0.6337228 0 0 1 -0.119532,0.039844 c -0.139879,0.030128 -0.266418,0.067192 -0.358583,0.1593677 L 6.5442952,15.790704 c -0.2038177,0.203818 -0.2070192,0.550016 0.079688,0.83672 l 1.7929547,1.792974 c 0.2747867,0.274789 0.6856516,0.270598 0.8765625,0.07969 L 12.998971,14.79462 a 0.6337228,0.6337228 0 0 1 1.075783,0.438286 l 2e-6,8.367187 c 0,0.366263 0.271238,0.637501 0.637499,0.637498 l 2.55001,8e-6 c 0.366262,0 0.637498,-0.271237 0.637498,-0.6375 V 15.19307 a 0.6337228,0.6337228 0 0 1 1.07578,-0.438281 l 3.745311,3.74531 c 0.203818,0.203816 0.550016,0.207018 0.836719,-0.07969 l 1.832815,-1.792965 c 0.143709,-0.143709 0.193336,-0.331004 0.199216,-0.478127 z"
     id="path3996"
     style="color:#000000;display:inline;overflow:visible;visibility:visible;opacity:0.1;fill:none;stroke:#000000;stroke-width:1;stroke-linecap:round;stroke-linejoin:round;stroke-miterlimit:4;stroke-dasharray:none;stroke-dashoffset:0;stroke-opacity:1;marker:none;enable-background:accumulate"
     inkscape:connector-curvature="0" />
  <path
     d="m 24.109747,16.081766 -8.088279,-8.2875003 -8.0882806,8.2476583 0.996095,0.996094 3.2273446,-3.227344 a 1.8639494,1.8639494 0 0 1 3.187497,1.314843 v 7.769532 h 1.354687 v -7.809375 a 1.8639494,1.8639494 0 0 1 3.187498,-1.314847 l 3.267188,3.267188 z"
     id="path3996-3"
     style="color:#000000;display:inline;overflow:visible;visibility:visible;opacity:0.02999998;fill:none;stroke:#000000;stroke-width:1;stroke-linecap:butt;stroke-linejoin:miter;stroke-miterlimit:4;stroke-dasharray:none;stroke-dashoffset:0;stroke-opacity:1;marker:none;enable-background:accumulate"
     inkscape:connector-curvature="0" />
</svg>
