<?xml version="1.0" encoding="UTF-8" standalone="no"?>
<svg
   xmlns:dc="http://purl.org/dc/elements/1.1/"
   xmlns:cc="http://creativecommons.org/ns#"
   xmlns:rdf="http://www.w3.org/1999/02/22-rdf-syntax-ns#"
   xmlns:svg="http://www.w3.org/2000/svg"
   xmlns="http://www.w3.org/2000/svg"
   xmlns:xlink="http://www.w3.org/1999/xlink"
   xmlns:sodipodi="http://sodipodi.sourceforge.net/DTD/sodipodi-0.dtd"
   xmlns:inkscape="http://www.inkscape.org/namespaces/inkscape"
   version="1.1"
   width="32"
   height="32"
   id="svg6359"
   sodipodi:docname="heart-broken.svg"
   inkscape:version="0.92.4 (5da689c313, 2019-01-14)">
  <sodipodi:namedview
     pagecolor="#ffffff"
     bordercolor="#666666"
     borderopacity="1"
     objecttolerance="10"
     gridtolerance="10"
     guidetolerance="10"
     inkscape:pageopacity="0"
     inkscape:pageshadow="2"
     inkscape:window-width="2880"
     inkscape:window-height="1706"
     id="namedview23"
     showgrid="false"
     inkscape:zoom="83.4386"
     inkscape:cx="11.166908"
     inkscape:cy="5.9553841"
     inkscape:window-x="-11"
     inkscape:window-y="-11"
     inkscape:window-maximized="1"
     inkscape:current-layer="svg6359" />
  <defs
     id="defs6361">
    <linearGradient
       x1="200.23929"
       y1="1020.5864"
       x2="200.23929"
       y2="1031.7922"
       id="linearGradient8808-0"
       xlink:href="#linearGradient8687-5-3"
       gradientUnits="userSpaceOnUse"
       gradientTransform="matrix(1.4875,0,0,1.4875,-275.55,-1509.9621)" />
    <linearGradient
       id="linearGradient8687-5-3">
      <stop
         id="stop8689-7-1"
         style="stop-color:#ffffff;stop-opacity:1"
         offset="0" />
      <stop
         id="stop8691-3-8"
         style="stop-color:#ffffff;stop-opacity:0.23529412"
         offset="0.24566023" />
      <stop
         id="stop8693-6-4"
         style="stop-color:#ffffff;stop-opacity:0.15686275"
         offset="0.69259435" />
      <stop
         id="stop8695-6-2"
         style="stop-color:#ffffff;stop-opacity:0.39215687"
         offset="1" />
    </linearGradient>
    <radialGradient
       cx="196"
       cy="1026.3622"
       r="7.5"
       fx="196.37857"
       fy="1023.4138"
       id="radialGradient8842"
       xlink:href="#linearGradient8810-7"
       gradientUnits="userSpaceOnUse"
       gradientTransform="matrix(1,0,0,0.86666667,52,-31.15171)" />
    <linearGradient
       id="linearGradient8810-7">
      <stop
         id="stop8812-8"
         style="stop-color:#fda767;stop-opacity:1"
         offset="0" />
      <stop
         id="stop8814-3"
         style="stop-color:#d94500;stop-opacity:1"
         offset="1" />
    </linearGradient>
    <radialGradient
       cx="196"
       cy="1026.3622"
       r="7.5"
       fx="196.37857"
       fy="1023.4138"
       id="radialGradient6357"
       xlink:href="#linearGradient8810-7"
       gradientUnits="userSpaceOnUse"
       gradientTransform="matrix(1.4875,0,0,1.2891667,-275.55,-1306.4002)" />
  </defs>
  <metadata
     id="metadata6364">
    <rdf:RDF>
      <cc:Work
         rdf:about="">
        <dc:format>image/svg+xml</dc:format>
        <dc:type
           rdf:resource="http://purl.org/dc/dcmitype/StillImage" />
        <dc:title />
      </cc:Work>
    </rdf:RDF>
  </metadata>
  <path
     inkscape:connector-curvature="0"
     style="color:#000000;display:inline;overflow:visible;visibility:visible;fill:url(#radialGradient6357);fill-opacity:1;stroke:none;stroke-width:1;stroke-miterlimit:4;stroke-dasharray:none;marker:none;enable-background:accumulate"
     id="path7461-1-4-6"
     d="m 11.119141,7.0829181 c -3.465801,0 -6.275391,2.782815 -6.275391,6.2156679 0,1.78723 0.7826184,3.403548 2.0046443,4.532115 3.3304977,2.390263 7.3164927,5.82728 9.1516057,8.589716 1.835113,-2.762436 5.821108,-6.199453 9.151606,-8.589716 1.222024,-1.128567 2.004644,-2.744885 2.004644,-4.532115 0,-3.4328529 -2.80959,-6.2156679 -6.275391,-6.2156679 -2.342365,0 -3.105483,1.2672012 -4.183594,3.1509709 C 15.619156,8.3501193 13.461507,7.0829181 11.119141,7.0829181 Z" />
  <path
     inkscape:connector-curvature="0"
     style="color:#000000;display:inline;overflow:visible;visibility:visible;fill:none;stroke:#ff0b0a;stroke-width:1;stroke-miterlimit:4;stroke-dasharray:none;stroke-opacity:1;marker:none;enable-background:accumulate"
     id="path8633-64-7"
     d="m 11.119141,7.8457102 c -3.067389,0 -5.531641,2.4168898 -5.531641,5.4385968 0,1.569015 0.6946179,3.007725 1.7664063,3.997805 C 10.42302,19.492091 13.925592,22.499519 16,25.230866 c 2.074408,-2.731347 5.57698,-5.738775 8.646094,-7.948754 1.071818,-0.99008 1.766406,-2.428641 1.766406,-3.997805 0,-3.021707 -2.464252,-5.4385968 -5.531641,-5.4385968 -1.039241,0 -1.602379,0.2208937 -2.091797,0.6507812 -0.489417,0.4298875 -0.90489,1.1550438 -1.441016,2.0918716 a 0.75338007,0.75338008 0 0 1 -1.301562,0 C 15.113331,8.9577652 13.197639,7.8457102 11.119141,7.8457102 Z" />
  <path
     inkscape:connector-curvature="0"
     style="color:#000000;display:inline;overflow:visible;visibility:visible;opacity:0.3;fill:none;stroke:#000000;stroke-width:1;stroke-miterlimit:4;stroke-dasharray:none;stroke-opacity:1;marker:none;enable-background:accumulate"
     id="path7461-1-5-3-9"
     d="m 11.119141,7.0829181 c -3.465801,0 -6.275391,2.782815 -6.275391,6.2156679 0,1.78723 0.7826184,3.403548 2.0046443,4.532115 3.3304977,2.390263 7.3164927,5.82728 9.1516057,8.589716 1.835113,-2.762436 5.821108,-6.199453 9.151606,-8.589716 1.222024,-1.128567 2.004644,-2.744885 2.004644,-4.532115 0,-3.4328529 -2.80959,-6.2156679 -6.275391,-6.2156679 -2.342365,0 -3.105483,1.2672012 -4.183594,3.1509709 C 15.619156,8.3501193 13.461507,7.0829181 11.119141,7.0829181 Z" />
  <path
     inkscape:connector-curvature="0"
     style="color:#000000;display:inline;overflow:visible;visibility:visible;opacity:0.1;fill:none;stroke:#f50100;stroke-width:1;stroke-miterlimit:4;stroke-dasharray:none;stroke-opacity:1;marker:none;enable-background:accumulate"
     id="path8633-2-4-1"
     d="m 11.119141,9.2868002 c -2.2987234,0 -4.0906254,1.7687858 -4.0906254,3.9975068 0,1.125889 0.4985059,2.160892 1.2550782,2.88218 0.014875,0.01487 0.031535,0.03272 0.04641,0.04611 2.6904712,1.945352 5.4639302,4.438402 7.6699222,6.972656 2.205992,-2.534254 4.97945,-5.027304 7.669921,-6.972656 0.01666,-0.01487 0.02975,-0.03421 0.04641,-0.04611 0.756648,-0.721288 1.255079,-1.755993 1.255079,-2.88218 0,-2.228721 -1.791902,-3.9975068 -4.090625,-3.9975068 -0.784686,0 -0.874918,0.1145375 -1.115625,0.3253162 -0.240707,0.2113738 -0.631638,0.7929866 -1.16211,1.7199956 a 2.2069163,2.2069163 0 0 1 -3.811718,0 C 14.137799,10.190308 12.688379,9.2866514 11.118992,9.2868002 Z" />
  <path
     inkscape:connector-curvature="0"
     style="color:#000000;display:inline;overflow:visible;visibility:visible;opacity:0.05;fill:none;stroke:#e10100;stroke-width:1;stroke-miterlimit:4;stroke-dasharray:none;stroke-opacity:1;marker:none;enable-background:accumulate"
     id="path8633-24-2-4"
     d="m 20.78789,10.828592 c -0.721556,0.8925 -1.106268,2.085325 -2.175141,2.656228 -1.872226,1.207851 -4.422828,0.248413 -5.387338,-1.659603 -1.069125,-1.164266 -3.197962,-1.254111 -4.1811246,0.06694 -0.7459366,0.961967 -0.6005781,2.451995 0.308448,3.259857 0.5776855,0.526872 1.3055346,0.989335 1.9185626,1.519778 1.662177,1.348122 3.237365,2.80245 4.728703,4.337104 2.054283,-2.111209 4.263368,-4.077684 6.647265,-5.810472 0.485,-0.548442 0.890656,-1.295167 0.778008,-2.072237 -0.07244,-1.277465 -1.291493,-2.263975 -2.544414,-2.204326 z" />
  <path
     inkscape:connector-curvature="0"
     style="color:#000000;display:inline;overflow:visible;visibility:visible;opacity:0.5;fill:none;stroke:url(#linearGradient8808-0);stroke-width:1;stroke-miterlimit:4;stroke-dasharray:none;stroke-opacity:1;marker:none;enable-background:accumulate"
     id="path8633-6-6-0"
     d="m 11.119141,8.6824289 c -2.6328159,0 -4.6949222,2.0285041 -4.6949222,4.6018781 0,1.26021 0.5215918,2.421353 1.3480468,3.254055 0.033171,0.0238 0.059798,0.06843 0.092969,0.09222 0.015916,0.01487 0.030345,0.03124 0.04641,0.04611 2.8721544,2.073724 5.9056434,4.777552 8.0882814,7.4375 2.182639,-2.659948 5.216127,-5.363776 8.088281,-7.4375 0.01666,-0.01487 0.02989,-0.03421 0.04641,-0.04611 0.03169,-0.02975 0.06203,-0.06099 0.09297,-0.09222 0.826499,-0.832702 1.348046,-1.993696 1.348046,-3.254055 0,-2.573374 -2.062105,-4.6018781 -4.694921,-4.6018781 -0.895326,0 -1.18518,0.1584188 -1.533985,0.4648438 -0.348803,0.306425 -0.768635,0.9282003 -1.301562,1.8593753 a 1.575152,1.575152 0 0 1 -2.696094,0 C 14.574053,9.6524277 12.909659,8.6824289 11.118992,8.6824289 Z" />
  <path
     inkscape:connector-curvature="0"
     style="fill:none;stroke:#ffffff;stroke-width:1;stroke-linecap:round;stroke-linejoin:miter;stroke-opacity:0.90186917;stroke-miterlimit:4;stroke-dasharray:none"
     id="path8883"
     d="m 16,25.230866 -2.014123,-8.406762 3.437927,1.180981 -0.827226,-7.018491"
     sodipodi:nodetypes="cccc" />
</svg>
