<?xml version="1.0" encoding="UTF-8" standalone="no"?>
<svg
   xmlns:dc="http://purl.org/dc/elements/1.1/"
   xmlns:cc="http://creativecommons.org/ns#"
   xmlns:rdf="http://www.w3.org/1999/02/22-rdf-syntax-ns#"
   xmlns:svg="http://www.w3.org/2000/svg"
   xmlns="http://www.w3.org/2000/svg"
   xmlns:xlink="http://www.w3.org/1999/xlink"
   xmlns:sodipodi="http://sodipodi.sourceforge.net/DTD/sodipodi-0.dtd"
   xmlns:inkscape="http://www.inkscape.org/namespaces/inkscape"
   version="1.1"
   width="32"
   height="32"
   id="svg3658"
   sodipodi:docname="help.svg"
   inkscape:version="0.92.4 (5da689c313, 2019-01-14)">
  <sodipodi:namedview
     pagecolor="#ffffff"
     bordercolor="#666666"
     borderopacity="1"
     objecttolerance="10"
     gridtolerance="10"
     guidetolerance="10"
     inkscape:pageopacity="0"
     inkscape:pageshadow="2"
     inkscape:window-width="2880"
     inkscape:window-height="1706"
     id="namedview27"
     showgrid="false"
     inkscape:zoom="7.375"
     inkscape:cx="-1.4237288"
     inkscape:cy="16"
     inkscape:window-x="-11"
     inkscape:window-y="-11"
     inkscape:window-maximized="1"
     inkscape:current-layer="svg3658" />
  <defs
     id="defs3660">
    <linearGradient
       id="linearGradient4011">
      <stop
         id="stop4013"
         style="stop-color:#ffffff;stop-opacity:1"
         offset="0" />
      <stop
         id="stop4015"
         style="stop-color:#ffffff;stop-opacity:0.23529412"
         offset="0.507761" />
      <stop
         id="stop4017"
         style="stop-color:#ffffff;stop-opacity:0.15686275"
         offset="0.83456558" />
      <stop
         id="stop4019"
         style="stop-color:#ffffff;stop-opacity:0.39215687"
         offset="1" />
    </linearGradient>
    <linearGradient
       id="linearGradient3820-7-2-2">
      <stop
         id="stop3822-2-6-36"
         style="stop-color:#3d3d3d;stop-opacity:1"
         offset="0" />
      <stop
         id="stop3864-8-7-6"
         style="stop-color:#686868;stop-opacity:0.49803922"
         offset="0.5" />
      <stop
         id="stop3824-1-2-4"
         style="stop-color:#686868;stop-opacity:0"
         offset="1" />
    </linearGradient>
    <radialGradient
       xlink:href="#linearGradient3820-7-2-2"
       id="radialGradient4048"
       gradientUnits="userSpaceOnUse"
       gradientTransform="matrix(0.1489586,0,0,0.04739593,1.2297114,17.876271)"
       cx="99.157013"
       cy="186.17059"
       fx="99.157013"
       fy="186.17059"
       r="62.769119" />
    <linearGradient
       gradientTransform="matrix(0.62027056,0,0,0.62027056,-28.494196,0.34682062)"
       gradientUnits="userSpaceOnUse"
       xlink:href="#linearGradient4011"
       id="linearGradient12398-3"
       y2="44.340794"
       x2="71.204407"
       y1="6.2375584"
       x1="71.204407" />
    <linearGradient
       gradientTransform="matrix(0.94466952,0,0,0.70623123,-1910.0101,-2261.2097)"
       gradientUnits="userSpaceOnUse"
       xlink:href="#linearGradient947-5"
       id="linearGradient11527-6-5"
       y2="3241.9966"
       x2="2035.1652"
       y1="3208.0737"
       x1="2035.1652" />
    <linearGradient
       id="linearGradient947-5">
      <stop
         offset="0"
         style="stop-color:#64baff;stop-opacity:1"
         id="stop943-6" />
      <stop
         offset="1"
         style="stop-color:#3689e6;stop-opacity:1"
         id="stop945-2" />
    </linearGradient>
  </defs>
  <metadata
     id="metadata3663">
    <rdf:RDF>
      <cc:Work
         rdf:about="">
        <dc:format>image/svg+xml</dc:format>
        <dc:type
           rdf:resource="http://purl.org/dc/dcmitype/StillImage" />
        <dc:title />
      </cc:Work>
    </rdf:RDF>
  </metadata>
  <path
     d="m 25.350001,26.699997 a 9.35,2.9749999 0 1 1 -18.6999999,0 9.35,2.9749999 0 1 1 18.6999999,0 z"
     id="path3818-0-2"
     style="fill:url(#radialGradient4048);fill-opacity:1;stroke:none;stroke-width:1;stroke-miterlimit:4;stroke-dasharray:none"
     inkscape:connector-curvature="0" />
  <path
     style="color:#000000;display:inline;overflow:visible;visibility:visible;opacity:0.98999999;fill:url(#linearGradient11527-6-5);fill-opacity:1;fill-rule:nonzero;stroke:none;stroke-width:1;marker:none;enable-background:accumulate;stroke-miterlimit:4;stroke-dasharray:none"
     id="path2555-7-8-5-0-9"
     d="m 15.999999,3.7501632 c -6.8005124,0 -12.3249999,5.5244878 -12.3249999,12.3250008 0,6.800512 5.5244875,12.325 12.3249999,12.325 6.800514,0 12.325013,-5.524488 12.325001,-12.325 0,-6.800513 -5.524487,-12.3250008 -12.325001,-12.3250008 z"
     inkscape:connector-curvature="0" />
  <path
     style="color:#000000;display:inline;overflow:visible;visibility:visible;opacity:0.5;fill:none;stroke:url(#linearGradient12398-3);stroke-width:1;stroke-linecap:round;stroke-linejoin:round;stroke-miterlimit:4;stroke-dasharray:none;stroke-dashoffset:0;stroke-opacity:1;marker:none;enable-background:accumulate"
     id="path8655-6-0-9-5-0"
     d="m 27.475,16.074753 c 0,6.337682 -5.137916,11.475416 -11.474861,11.475416 -6.3375257,0 -11.4751387,-5.137795 -11.4751387,-11.475416 0,-6.3373797 5.137613,-11.4745947 11.4751387,-11.4745947 6.336945,0 11.474861,5.1372151 11.474861,11.4745947 z"
     inkscape:connector-curvature="0" />
  <path
     style="color:#000000;clip-rule:nonzero;display:inline;overflow:visible;visibility:visible;opacity:0.5;isolation:auto;mix-blend-mode:normal;color-interpolation:sRGB;color-interpolation-filters:linearRGB;solid-color:#000000;solid-opacity:1;vector-effect:none;fill:none;fill-opacity:1;fill-rule:nonzero;stroke:#002e99;stroke-width:1;stroke-linecap:round;stroke-linejoin:round;stroke-miterlimit:4;stroke-dasharray:none;stroke-dashoffset:0;stroke-opacity:1;marker:none;color-rendering:auto;image-rendering:auto;shape-rendering:auto;text-rendering:auto;enable-background:accumulate"
     id="path2555-4"
     d="m 16.000001,3.7516919 c -6.7996662,0 -12.3234728,5.5238046 -12.3234728,12.3234711 0,6.799667 5.5238066,12.323475 12.3234728,12.323472 6.799664,0 12.323477,-5.523805 12.323471,-12.323472 0,-6.7996665 -5.523807,-12.3234711 -12.323471,-12.3234711 z"
     inkscape:connector-curvature="0" />
  <path
     d="m 15.15,8.0001638 c -0.675924,0.064467 -1.364766,0.2034863 -1.992188,0.425 -1.242709,0.4387431 -2.360988,1.234332 -2.895312,2.4437502 -0.0052,0.01181 -0.02146,0.01467 -0.02656,0.02656 -0.310766,0.712409 -0.3022839,1.512122 0,2.257813 0.30569,0.754091 1.100478,1.460937 2.125,1.460937 0.588213,0 1.12918,-0.209989 1.4875,-0.557812 0.358321,-0.347824 0.531993,-0.785106 0.584375,-1.195313 0.08395,-0.657467 -0.15559,-1.10768 -0.2125,-1.301562 0.09194,0.313219 0.0035,0.198632 0.07969,0.07969 0.07619,-0.118945 0.233821,-0.258415 0.292187,-0.292187 0.103914,-0.06013 0.215164,-0.102675 0.31875,-0.132813 0.103587,-0.03014 0.08215,-0.009 0.265625,-0.05312 0.936597,-0.225088 1.984257,0.342504 2.310938,0.85 0.0887,0.137793 0.12578,0.362181 -0.02656,0.823438 -0.152342,0.461256 -0.510338,1.066241 -0.929687,1.673437 -0.899932,1.303054 -1.970326,2.892366 -1.965625,4.807813 0,0.553548 -0.06344,0.763356 0,1.16875 0.04065,0.259754 0.201313,0.490693 0.345312,0.610937 0.144,0.120244 0.266339,0.177496 0.371875,0.2125 0.211075,0.07001 0.371263,0.07445 0.53125,0.07969 0.319977,0.01047 0.632611,-0.02473 0.929688,-0.07969 a 0.88842476,0.88842476 0 0 0 0.717187,-0.903125 C 17.422815,19.043838 17.668,17.972965 18.815633,17.13767 a 0.88842476,0.88842476 0 0 0 0.02656,-0.02656 c 0.781122,-0.60873 1.562005,-1.288079 2.178125,-2.125 0.606192,-0.823433 1.037905,-1.836915 0.95625,-2.948437 -3.59e-4,-0.01793 6.72e-4,-0.03528 0,-0.05312 H 21.95 c -0.04615,-1.145401 -0.704857,-2.1087051 -1.59375,-2.7625002 -0.8915,-0.6557129 -2.007302,-1.0539393 -3.1875,-1.16875 -0.01737,-0.00241 -0.03573,0.0023 -0.05312,0 C 16.471378,7.9681839 15.808149,7.9373917 15.15,8.0001638 Z m 0.823437,13.5734372 c -0.969431,-0.0313 -1.794889,0.498599 -2.23125,1.221875 -0.431229,0.714771 -0.476167,1.705107 0.10625,2.470313 l -0.02656,0.02656 c 0.01203,0.01788 0.04072,0.0092 0.05312,0.02656 0.0034,0.0048 -0.0035,0.02181 0,0.02656 0.585041,0.806376 1.565982,1.071674 2.417187,0.95625 0.845138,-0.114601 1.702777,-0.656713 2.01875,-1.59375 h 0.02656 c 0.0068,-0.01791 -0.0063,-0.0352 0,-0.05312 0.0039,-0.01279 0.02287,-0.01362 0.02656,-0.02656 H 18.3375 c 0.51237,-1.511035 -0.708742,-3.042183 -2.310938,-3.054688 -0.01837,-1.44e-4 -0.03467,-2.61e-4 -0.05312,0 z"
     id="path4011"
     style="color:#000000;font-style:normal;font-weight:bold;font-size:72px;font-family:'Standard Symbols L';clip-rule:nonzero;display:inline;overflow:visible;visibility:visible;opacity:0.05;isolation:auto;mix-blend-mode:normal;color-interpolation:sRGB;color-interpolation-filters:linearRGB;solid-color:#000000;solid-opacity:1;fill:#002e99;fill-opacity:1;fill-rule:nonzero;stroke:none;stroke-width:1;stroke-linecap:butt;stroke-linejoin:miter;stroke-miterlimit:4;stroke-dasharray:none;stroke-dashoffset:0;stroke-opacity:1;marker:none;color-rendering:auto;image-rendering:auto;shape-rendering:auto;text-rendering:auto;enable-background:accumulate"
     inkscape:connector-curvature="0" />
  <path
     d="m 16.580405,20.429425 c -0.04213,-1.50371 0.294763,-2.963492 1.715428,-3.997512 1.500586,-1.16941 2.945769,-2.6325 2.793045,-4.357153 C 21.055532,10.411487 19.117574,9.1081324 17.029567,8.9207328 14.680899,8.5953617 11.839024,9.3999646 11.052,11.234183 c -0.399159,0.892102 -0.02901,2.492637 1.310569,2.492637 0.783522,0 1.143397,-0.506133 1.202519,-0.969127 0.04473,-0.350315 -0.09909,-0.663143 -0.184025,-0.952505 -0.09678,-0.329711 0.316363,-0.968724 0.766329,-1.229082 0.375998,-0.217563 0.76939,-0.290514 0.827377,-0.304451 1.350318,-0.3245159 2.69639,0.392296 3.257995,1.264745 0.561605,0.872448 -0.05655,2.195783 -0.94532,3.482675 -0.888769,1.286892 -1.842576,2.748539 -1.838766,4.301047 0,0.591041 -0.05266,0.791831 -0.01524,1.030951 0.02989,0.19105 0.662506,0.167963 1.14697,0.07835 z m -0.616244,2.023915 c -1.291116,-0.07009 -2.184749,1.393573 -1.409109,2.326126 0.692682,1.029631 2.634803,0.775459 2.967683,-0.390495 0.346074,-0.906679 -0.486758,-1.950766 -1.558573,-1.935632 z"
     id="path3298-5"
     style="color:#000000;font-style:normal;font-weight:bold;font-size:72px;font-family:'Standard Symbols L';clip-rule:nonzero;display:inline;overflow:visible;visibility:visible;opacity:0.15;isolation:auto;mix-blend-mode:normal;color-interpolation:sRGB;color-interpolation-filters:linearRGB;solid-color:#000000;solid-opacity:1;fill:#002e99;fill-opacity:1;fill-rule:nonzero;stroke:none;stroke-width:1;stroke-linecap:butt;stroke-linejoin:miter;stroke-miterlimit:4;stroke-dasharray:none;stroke-dashoffset:0;stroke-opacity:1;marker:none;color-rendering:auto;image-rendering:auto;shape-rendering:auto;text-rendering:auto;enable-background:accumulate"
     inkscape:connector-curvature="0" />
  <path
     d="m 16.580405,19.579425 c -0.04213,-1.50371 0.294763,-2.963492 1.715428,-3.997512 1.500586,-1.16941 2.945769,-2.6325 2.793045,-4.357153 C 21.055532,9.5614874 19.117574,8.2581326 17.029567,8.0707331 14.680899,7.745362 11.839024,8.5499648 11.052,10.384184 c -0.399159,0.892101 -0.02901,2.492636 1.310569,2.492636 0.783522,0 1.143397,-0.506133 1.202519,-0.969127 0.04473,-0.350315 -0.09909,-0.663143 -0.184025,-0.952505 -0.09678,-0.329711 0.316363,-0.9687238 0.766329,-1.2290822 0.375998,-0.2175621 0.76939,-0.2905138 0.827377,-0.3044502 1.350318,-0.3245163 2.69639,0.3922957 3.257995,1.2647444 0.561605,0.872448 -0.05655,2.195783 -0.94532,3.482675 -0.888769,1.286892 -1.842576,2.748539 -1.838766,4.301047 0,0.591041 -0.05266,0.791831 -0.01524,1.030951 0.02989,0.19105 0.662506,0.167963 1.14697,0.07835 z m -0.616244,2.023915 c -1.291116,-0.07009 -2.184749,1.393573 -1.409109,2.326126 0.692682,1.029631 2.634803,0.775459 2.967683,-0.390495 0.346074,-0.906679 -0.486758,-1.950766 -1.558573,-1.935632 z"
     id="path3298"
     style="font-style:normal;font-weight:bold;font-size:72px;font-family:'Standard Symbols L';fill:#ffffff;fill-opacity:1;stroke:none;stroke-width:1;stroke-miterlimit:4;stroke-dasharray:none"
     inkscape:connector-curvature="0" />
</svg>
