<?xml version="1.0" encoding="UTF-8" standalone="no"?>
<svg
   xmlns:dc="http://purl.org/dc/elements/1.1/"
   xmlns:cc="http://creativecommons.org/ns#"
   xmlns:rdf="http://www.w3.org/1999/02/22-rdf-syntax-ns#"
   xmlns:svg="http://www.w3.org/2000/svg"
   xmlns="http://www.w3.org/2000/svg"
   xmlns:sodipodi="http://sodipodi.sourceforge.net/DTD/sodipodi-0.dtd"
   xmlns:inkscape="http://www.inkscape.org/namespaces/inkscape"
   version="1.1"
   width="32"
   height="32"
   id="svg3804"
   sodipodi:docname="image-loading.svg"
   inkscape:version="0.92.4 (5da689c313, 2019-01-14)">
  <sodipodi:namedview
     pagecolor="#ffffff"
     bordercolor="#666666"
     borderopacity="1"
     objecttolerance="10"
     gridtolerance="10"
     guidetolerance="10"
     inkscape:pageopacity="0"
     inkscape:pageshadow="2"
     inkscape:window-width="2880"
     inkscape:window-height="1706"
     id="namedview14"
     showgrid="false"
     inkscape:zoom="7.375"
     inkscape:cx="-1.4237288"
     inkscape:cy="16"
     inkscape:window-x="-11"
     inkscape:window-y="-11"
     inkscape:window-maximized="1"
     inkscape:current-layer="svg3804" />
  <defs
     id="defs3806" />
  <metadata
     id="metadata3809">
    <rdf:RDF>
      <cc:Work
         rdf:about="">
        <dc:format>image/svg+xml</dc:format>
        <dc:type
           rdf:resource="http://purl.org/dc/dcmitype/StillImage" />
        <dc:title />
      </cc:Work>
    </rdf:RDF>
  </metadata>
  <g
     id="layer1"
     transform="matrix(0.85,0,0,0.85,2.4000159,2.4749853)">
    <path
       d="M 16.437608,12.666618 H 15.770937 L 15.104267,17.333315 18.437622,20 l 10e-7,-0.66667 -2.000014,-2.666686 z"
       id="path3609-6"
       style="opacity:0.3;fill:#ffffff;fill-opacity:1;fill-rule:evenodd;stroke:none"
       inkscape:connector-curvature="0" />
    <path
       d="M 16,8.9999996 C 11.584001,8.9999996 8,12.584 8,17 c 0,4.415999 3.584001,8 8,8 4.416,0 8,-3.584001 8,-8 0,-4.416 -3.584,-8.0000004 -8,-8.0000004 z M 16,11 c 3.312022,0 6,2.687978 6,6 0,3.312022 -2.687978,6 -6,6 -3.312022,0 -6,-2.687978 -6,-6 0,-3.312022 2.687978,-6 6,-6 z"
       id="path3607-6"
       style="opacity:0.3;fill:#ffffff;fill-opacity:1;fill-rule:evenodd;stroke:none"
       inkscape:connector-curvature="0" />
    <path
       d="m 9,1.9999996 v 2 h 5 v -2 z m 9,0 v 2 h 5 v -2 z M 1,10 v 5 h 2 v -5 z m 28,0 v 5 h 2 V 10 Z M 1,19 v 5 h 2 v -5 z m 28,0 v 5 h 2 V 19 Z M 9,30 v 2 h 5 v -2 z m 9,0 v 2 h 5 v -2 z"
       id="path3318-9"
       style="opacity:0.3;fill:#ffffff;fill-opacity:1;fill-rule:evenodd;stroke:none"
       inkscape:connector-curvature="0" />
    <path
       d="m 27.333515,31 c 2.666684,0 2.666684,0 2.666684,-2.666685 m 0,-22.666818 c 0,-2.666684 0,-2.666684 -2.666684,-2.666684 M 2.0000132,28.333315 C 2.0000132,31 2.0000132,31 4.6666978,31 m 0,-28.000187 c -2.6666847,0 -2.6666846,0 -2.6666846,2.666684"
       id="path2387"
       style="opacity:0.3;fill:none;stroke:#ffffff;stroke-width:2.00000024;stroke-linecap:butt;stroke-linejoin:miter;stroke-miterlimit:4;stroke-dasharray:none;stroke-opacity:1"
       inkscape:connector-curvature="0" />
    <path
       d="m 16.437608,11.666533 h -0.666671 l -0.66667,4.666697 3.333355,2.666685 10e-7,-0.66667 -2.000014,-2.666686 z"
       id="path3609"
       style="opacity:0.5;fill:#000000;fill-opacity:1;fill-rule:evenodd;stroke:none"
       inkscape:connector-curvature="0" />
    <path
       d="m 16,7.99979 c -4.415999,0 -8,3.584 -8,8 0,4.415999 3.584001,8 8,8 4.416,0 8,-3.584001 8,-8 0,-4.416 -3.584,-8 -8,-8 z m 0,2 c 3.312022,0 6,2.687978 6,6 0,3.312022 -2.687978,6 -6,6 -3.312022,0 -6,-2.687978 -6,-6 0,-3.312022 2.687978,-6 6,-6 z"
       id="path3607"
       style="opacity:0.5;fill:#000000;fill-opacity:1;fill-rule:evenodd;stroke:none"
       inkscape:connector-curvature="0" />
    <path
       d="m 9,0.99979 v 2 h 5 v -2 z m 9,0 v 2 h 5 v -2 z m -17,8 v 5 h 2 v -5 z m 28,0 v 5 h 2 v -5 z m -28,9 v 5 h 2 v -5 z m 28,0 v 5 h 2 v -5 z m -20,11 v 2 h 5 v -2 z m 9,0 v 2 h 5 v -2 z"
       id="path3318"
       style="opacity:0.5;fill:#000000;fill-opacity:1;fill-rule:evenodd;stroke:none"
       inkscape:connector-curvature="0" />
    <path
       d="m 27.333515,29.99999 c 2.666684,0 2.666684,0 2.666684,-2.666685 m 0,-22.6668167 c 0,-2.666684 0,-2.666684 -2.666684,-2.666684 M 2.0000132,27.333305 c 0,2.666685 0,2.666685 2.6666846,2.666685 m 0,-28.0001857 c -2.6666847,0 -2.6666846,0 -2.6666846,2.666684"
       id="path6300"
       style="opacity:0.5;fill:none;stroke:#000000;stroke-width:2.00000024;stroke-linecap:butt;stroke-linejoin:miter;stroke-miterlimit:4;stroke-dasharray:none;stroke-opacity:1"
       inkscape:connector-curvature="0" />
  </g>
</svg>
