<?xml version="1.0" encoding="UTF-8" standalone="no"?>
<svg
   xmlns:dc="http://purl.org/dc/elements/1.1/"
   xmlns:cc="http://creativecommons.org/ns#"
   xmlns:rdf="http://www.w3.org/1999/02/22-rdf-syntax-ns#"
   xmlns:svg="http://www.w3.org/2000/svg"
   xmlns="http://www.w3.org/2000/svg"
   xmlns:xlink="http://www.w3.org/1999/xlink"
   xmlns:sodipodi="http://sodipodi.sourceforge.net/DTD/sodipodi-0.dtd"
   xmlns:inkscape="http://www.inkscape.org/namespaces/inkscape"
   version="1.1"
   width="32"
   height="32"
   id="svg3041"
   sodipodi:docname="image-red-eye.svg"
   inkscape:version="0.92.4 (5da689c313, 2019-01-14)">
  <sodipodi:namedview
     pagecolor="#ffffff"
     bordercolor="#666666"
     borderopacity="1"
     objecttolerance="10"
     gridtolerance="10"
     guidetolerance="10"
     inkscape:pageopacity="0"
     inkscape:pageshadow="2"
     inkscape:window-width="2880"
     inkscape:window-height="1706"
     id="namedview63"
     showgrid="false"
     inkscape:zoom="16"
     inkscape:cx="-14.786547"
     inkscape:cy="12"
     inkscape:window-x="-11"
     inkscape:window-y="-11"
     inkscape:window-maximized="1"
     inkscape:current-layer="svg3041" />
  <defs
     id="defs3043">
    <linearGradient
       x1="71.204002"
       y1="6.2375998"
       x2="71.204002"
       y2="44.341"
       id="linearGradient3082"
       gradientUnits="userSpaceOnUse"
       gradientTransform="matrix(0.32851347,0,0,-0.32851347,-7.565428,23.78905)">
      <stop
         id="stop4013-2"
         style="stop-color:#ffffff;stop-opacity:1"
         offset="0" />
      <stop
         id="stop4015-4"
         style="stop-color:#ffffff;stop-opacity:0.23529412"
         offset="0.50775999" />
      <stop
         id="stop4017-9"
         style="stop-color:#ffffff;stop-opacity:0.15686275"
         offset="0.83456999" />
      <stop
         id="stop4019-0"
         style="stop-color:#ffffff;stop-opacity:0.39215687"
         offset="1" />
    </linearGradient>
    <radialGradient
       cx="23.896"
       cy="3.99"
       r="20.396999"
       id="radialGradient3085"
       gradientUnits="userSpaceOnUse"
       gradientTransform="matrix(0,0.52770723,-0.69656421,0,19.050159,-3.6335486)">
      <stop
         id="stop3244-4"
         style="stop-color:#f8b17e;stop-opacity:1"
         offset="0" />
      <stop
         id="stop3246-5"
         style="stop-color:#e35d4f;stop-opacity:1"
         offset="0.26238" />
      <stop
         id="stop3248-0"
         style="stop-color:#c6262e;stop-opacity:1"
         offset="0.66093999" />
      <stop
         id="stop3250-3"
         style="stop-color:#690b54;stop-opacity:1"
         offset="1" />
    </radialGradient>
    <linearGradient
       x1="7.0776"
       y1="3.0816"
       x2="7.0776"
       y2="45.368999"
       id="linearGradient3087"
       gradientUnits="userSpaceOnUse"
       gradientTransform="matrix(0.22110724,0,0,0.22110728,10.964292,8.5074362)">
      <stop
         id="stop2492-0"
         style="stop-color:#791235;stop-opacity:1"
         offset="0" />
      <stop
         id="stop2494-6"
         style="stop-color:#c7321f;stop-opacity:1"
         offset="1" />
    </linearGradient>
    <linearGradient
       x1="71.204002"
       y1="6.2375998"
       x2="71.204002"
       y2="44.341"
       id="linearGradient3101"
       gradientUnits="userSpaceOnUse"
       gradientTransform="matrix(0.56743242,0,0,0.56743242,-24.703926,1.0701486)">
      <stop
         id="stop4013"
         style="stop-color:#ffffff;stop-opacity:1"
         offset="0" />
      <stop
         id="stop4015"
         style="stop-color:#ffffff;stop-opacity:0.23529412"
         offset="0.50775999" />
      <stop
         id="stop4017"
         style="stop-color:#ffffff;stop-opacity:0.15686275"
         offset="0.83456999" />
      <stop
         id="stop4019"
         style="stop-color:#ffffff;stop-opacity:0.39215687"
         offset="1" />
    </linearGradient>
    <radialGradient
       cx="62.625"
       cy="4.625"
       r="10.625"
       id="radialGradient3109"
       gradientUnits="userSpaceOnUse"
       gradientTransform="matrix(1.248,0,0,0.31199951,-62.156002,23.960668)">
      <stop
         id="stop8840"
         style="stop-color:#000000;stop-opacity:1"
         offset="0" />
      <stop
         id="stop8842"
         style="stop-color:#000000;stop-opacity:0"
         offset="1" />
    </radialGradient>
    <linearGradient
       x1="71.204002"
       y1="6.2375998"
       x2="71.204002"
       y2="44.341"
       id="linearGradient3101-3"
       gradientUnits="userSpaceOnUse"
       gradientTransform="matrix(0.5135135,0,0,0.5135135,-24.836132,-1.021284)">
      <stop
         id="stop4013-6"
         style="stop-color:#ffffff;stop-opacity:1"
         offset="0" />
      <stop
         id="stop4015-1"
         style="stop-color:#ffffff;stop-opacity:0.23529412"
         offset="0.50775999" />
      <stop
         id="stop4017-2"
         style="stop-color:#ffffff;stop-opacity:0.15686275"
         offset="0.83456999" />
      <stop
         id="stop4019-9"
         style="stop-color:#ffffff;stop-opacity:0.39215687"
         offset="1" />
    </linearGradient>
    <linearGradient
       x1="71.204002"
       y1="6.2375998"
       x2="71.204002"
       y2="44.341"
       id="linearGradient3032"
       xlink:href="#linearGradient3101-3"
       gradientUnits="userSpaceOnUse"
       gradientTransform="matrix(0.20904839,0,0,0.20904839,1.0042226,10.157882)" />
    <linearGradient
       id="linearGradient3990">
      <stop
         id="stop3992"
         style="stop-color:#ffffff;stop-opacity:1"
         offset="0" />
      <stop
         id="stop3994"
         style="stop-color:#ffffff;stop-opacity:0"
         offset="1" />
    </linearGradient>
    <linearGradient
       x1="68.313301"
       y1="52.925316"
       x2="68.313301"
       y2="65.922028"
       id="linearGradient3259"
       xlink:href="#linearGradient3990"
       gradientUnits="userSpaceOnUse"
       gradientTransform="matrix(0.17506378,0,0,0.17506378,3.2715407,1.511072)" />
    <linearGradient
       x1="11"
       y1="0"
       x2="11"
       y2="22"
       id="linearGradient3191-2"
       xlink:href="#outerBackgroundGradient-0-5"
       gradientUnits="userSpaceOnUse"
       gradientTransform="matrix(1.1052632,0,0,-1.1052632,27.401427,23.881729)" />
    <linearGradient
       id="outerBackgroundGradient-0-5">
      <stop
         id="stop3864-8-6-3-9"
         style="stop-color:#414141;stop-opacity:1"
         offset="0" />
      <stop
         id="stop3866-9-1-7-7"
         style="stop-color:#9d9d9d;stop-opacity:1"
         offset="1" />
    </linearGradient>
    <radialGradient
       cx="12"
       cy="12"
       r="3"
       fx="12"
       fy="12"
       id="radialGradient3193-2"
       xlink:href="#linearGradient3779-5"
       gradientUnits="userSpaceOnUse"
       gradientTransform="matrix(1.8319737,0,0,1.8319737,-5.9836834,-6.5248518)" />
    <linearGradient
       id="linearGradient3779-5">
      <stop
         id="stop3781-8"
         style="stop-color:#f6b8b9;stop-opacity:1"
         offset="0" />
      <stop
         id="stop3791-5"
         style="stop-color:#e25e60;stop-opacity:1"
         offset="0.62218052" />
      <stop
         id="stop3878-6"
         style="stop-color:#a01c1f;stop-opacity:1"
         offset="0.84109592" />
      <stop
         id="stop3783-2"
         style="stop-color:#800002;stop-opacity:1"
         offset="1" />
    </linearGradient>
    <radialGradient
       cx="8.5"
       cy="8.5"
       r="2.5"
       fx="8.5"
       fy="8.5"
       id="radialGradient3195-6"
       xlink:href="#linearGradient3884-3"
       gradientUnits="userSpaceOnUse" />
    <linearGradient
       id="linearGradient3884-3">
      <stop
         id="stop3886-4"
         style="stop-color:#ffffff;stop-opacity:1"
         offset="0" />
      <stop
         id="stop3888-5"
         style="stop-color:#ffffff;stop-opacity:0"
         offset="1" />
    </linearGradient>
    <radialGradient
       cx="8.5"
       cy="8.5"
       r="2.5"
       fx="8.5"
       fy="8.5"
       id="radialGradient3197-9"
       xlink:href="#linearGradient3884-3"
       gradientUnits="userSpaceOnUse" />
    <linearGradient
       x1="11"
       y1="0"
       x2="11"
       y2="22"
       id="linearGradient4073"
       xlink:href="#outerBackgroundGradient-0-5"
       gradientUnits="userSpaceOnUse"
       gradientTransform="matrix(1.2213159,0,0,-1.2213159,2.565526,28.893306)" />
  </defs>
  <metadata
     id="metadata3046">
    <rdf:RDF>
      <cc:Work
         rdf:about="">
        <dc:format>image/svg+xml</dc:format>
        <dc:type
           rdf:resource="http://purl.org/dc/dcmitype/StillImage" />
        <dc:title />
      </cc:Work>
    </rdf:RDF>
  </metadata>
  <path
     d="m 29.26,25.403668 c 0,1.830874 -5.936723,3.315 -13.26,3.315 -7.323277,0 -13.26,-1.484015 -13.26,-3.315 0,-1.830985 5.936723,-3.315 13.26,-3.315 7.323277,0 13.26,1.484125 13.26,3.315 z"
     id="path8836"
     style="opacity:0.3;fill:url(#radialGradient3109);fill-rule:evenodd;stroke-width:1;stroke-miterlimit:4;stroke-dasharray:none"
     inkscape:connector-curvature="0" />
  <path
     d="m 16,27.061332 c -6.4006506,0 -11.6025,-5.201848 -11.6025,-11.6025 C 4.3975,9.0581822 9.5993494,3.8563323 16,3.8563323 c 6.40065,0 11.6025,5.2018499 11.6025,11.6024997 0,6.400652 -5.20185,11.6025 -11.6025,11.6025 z"
     id="path4791"
     style="fill:url(#linearGradient4073);fill-opacity:1;fill-rule:evenodd;stroke:none;stroke-width:1;stroke-miterlimit:4;stroke-dasharray:none"
     inkscape:connector-curvature="0" />
  <path
     d="m 21.495923,15.458833 a 5.4959216,5.4959216 0 1 1 -10.991843,0 5.4959216,5.4959216 0 1 1 10.991843,0 z"
     id="path3777"
     style="opacity:0.8;fill:url(#radialGradient3193-2);fill-opacity:1;stroke:none;stroke-width:1;stroke-miterlimit:4;stroke-dasharray:none"
     inkscape:connector-curvature="0" />
  <path
     d="m 21.495923,15.458833 a 5.4959216,5.4959216 0 1 1 -10.991843,0 5.4959216,5.4959216 0 1 1 10.991843,0 z"
     id="path3795"
     style="opacity:0.4;fill:none;stroke:#860200;stroke-width:1;stroke-miterlimit:4;stroke-dasharray:none;stroke-opacity:1"
     inkscape:connector-curvature="0" />
  <path
     d="m 15.42751,6.9859552 -0.152665,3.2822858 0.801488,-0.114498 z m 3.473116,0.8778206 -1.412146,2.2899672 0.839655,0.267162 z m -7.098898,1.1449832 0.954153,2.289967 0.954153,-0.572492 z m 11.640667,0.6488245 -3.892945,1.9464715 1.068652,1.335814 z m -14.8084548,2.5571295 1.5266448,0.763322 0.190831,-0.610657 z m 12.9764808,2.06097 0.152665,1.030485 3.167787,-0.915986 z M 10.351416,15.87866 7.7561194,16.489318 h 2.6334626 z m 11.220839,1.641144 -0.190831,0.915986 2.289968,0.419828 z M 11.420067,18.359458 9.0156014,20.763924 12.37422,19.351778 Z m 8.243882,1.297648 -0.610658,0.49616 1.984639,2.3663 z m -6.411908,0.839655 -0.572492,2.595296 1.641143,-2.137302 z m 3.969276,0.07633 -1.679309,0.114498 1.106817,4.160107 z"
     id="path3793"
     style="opacity:0.3;fill:#000000;fill-opacity:1;stroke:none;stroke-width:1;stroke-miterlimit:4;stroke-dasharray:none"
     inkscape:connector-curvature="0" />
  <path
     d="m 12.975967,4.9032246 1.01624,6.0660144 1.400404,-0.570797 z m 4.626467,0.6554021 -1.657776,4.6834553 1.596441,0.16791 0.06134,-4.8513653 z m -8.0640994,3.5479605 2.3987984,3.3919958 1.332238,-1.258645 z m 13.5315294,-2.0568217 -4.871217,3.8837795 1.890044,1.549197 z m -16.5379499,6.6367515 3.5223759,0.968121 0.132922,-1.39391 z m 14.2731179,-0.770756 0.655739,1.616462 4.938483,-2.649476 z m -10.060917,3.699264 -5.143358,2.419894 5.487819,-1.16647 -0.344461,-1.25342 z m 10.84506,-0.744437 -0.03211,1.684633 4.273171,-0.0889 -4.241061,-1.595736 z m -9.56117,2.929721 -2.8808974,4.436193 4.6542564,-3.252383 z m 8.445525,-0.468514 -0.929516,1.134028 4.488493,3.49408 z m -6.42527,2.263167 -0.03663,4.416904 1.912606,-4.035282 z m 4.474249,-0.79501 -2.349577,0.694513 2.851104,5.519927 -0.501531,-6.214439 z"
     id="path3880"
     style="opacity:0.2;fill:#000000;fill-opacity:1;stroke:none;stroke-width:1;stroke-miterlimit:4;stroke-dasharray:none"
     inkscape:connector-curvature="0" />
  <path
     d="m 22.0775,15.458668 c 0,-3.356438 -2.721615,-6.0775002 -6.0775,-6.0775002 -3.356438,0 -6.0775,2.7211732 -6.0775,6.0775002 0,3.35699 2.721062,6.0775 6.0775,6.0775 3.355885,0 6.0775,-2.72051 6.0775,-6.0775 z"
     id="path8655-6-1"
     style="color:#000000;opacity:0.25;fill:none;stroke:url(#linearGradient3082);stroke-width:1;stroke-linecap:round;stroke-linejoin:round;stroke-miterlimit:4;stroke-dasharray:none;stroke-dashoffset:0;enable-background:accumulate"
     inkscape:connector-curvature="0" />
  <path
     d="m 26.4975,15.458668 c 0,5.797935 -4.70067,10.4975 -10.4975,10.4975 -5.797493,0 -10.4975,-4.70067 -10.4975,-10.4975 0,-5.7974932 4.700007,-10.4971691 10.49761,-10.4971691 5.797162,0 10.49739,4.6995654 10.49739,10.4971691 z"
     id="path8655-6"
     style="color:#000000;opacity:0.5;fill:none;stroke:url(#linearGradient3101);stroke-width:1;stroke-linecap:round;stroke-linejoin:round;stroke-miterlimit:4;stroke-dasharray:none;stroke-dashoffset:0;enable-background:accumulate"
     inkscape:connector-curvature="0" />
  <path
     d="m 19.867395,15.458772 c 0,2.136024 -1.731779,3.867396 -3.867395,3.867396 -2.135861,0 -3.867395,-1.73178 -3.867395,-3.867396 0,-2.135861 1.731534,-3.867273 3.867436,-3.867273 2.135739,0 3.867354,1.731371 3.867354,3.867273 z"
     id="path8655-6-3"
     style="color:#000000;opacity:0.5;fill:none;stroke:url(#linearGradient3032);stroke-width:1;stroke-linecap:round;stroke-linejoin:round;stroke-miterlimit:4;stroke-dasharray:none;stroke-dashoffset:0;enable-background:accumulate"
     inkscape:connector-curvature="0" />
  <g
     transform="matrix(1.2213159,0,0,1.2213159,31.797261,2.9403466)"
     id="layer2"
     style="stroke-width:0.81878898;stroke-miterlimit:4;stroke-dasharray:none" />
  <path
     d="m 4.3974994,15.458833 c 0,6.400651 5.2018494,11.6025 11.6025036,11.6025 6.400649,0 11.602497,-5.201849 11.602497,-11.6025 0,-6.4006516 -5.201848,-11.6025008 -11.602497,-11.6025008 -6.4006541,0 -11.6025036,5.2018492 -11.6025036,11.6025008 z"
     id="path3804"
     style="opacity:0.41000001;fill:none;stroke:#000000;stroke-width:1;stroke-miterlimit:4;stroke-dasharray:none;stroke-opacity:1"
     inkscape:connector-curvature="0" />
</svg>
