<?xml version="1.0" encoding="UTF-8" standalone="no"?>
<svg
   xmlns:dc="http://purl.org/dc/elements/1.1/"
   xmlns:cc="http://creativecommons.org/ns#"
   xmlns:rdf="http://www.w3.org/1999/02/22-rdf-syntax-ns#"
   xmlns:svg="http://www.w3.org/2000/svg"
   xmlns="http://www.w3.org/2000/svg"
   xmlns:xlink="http://www.w3.org/1999/xlink"
   xmlns:sodipodi="http://sodipodi.sourceforge.net/DTD/sodipodi-0.dtd"
   xmlns:inkscape="http://www.inkscape.org/namespaces/inkscape"
   version="1.1"
   width="32"
   height="32"
   id="svg3658"
   sodipodi:docname="info.svg"
   inkscape:version="0.92.4 (5da689c313, 2019-01-14)">
  <sodipodi:namedview
     pagecolor="#ffffff"
     bordercolor="#666666"
     borderopacity="1"
     objecttolerance="10"
     gridtolerance="10"
     guidetolerance="10"
     inkscape:pageopacity="0"
     inkscape:pageshadow="2"
     inkscape:window-width="2880"
     inkscape:window-height="1706"
     id="namedview27"
     showgrid="false"
     inkscape:zoom="7.375"
     inkscape:cx="-1.4237288"
     inkscape:cy="16"
     inkscape:window-x="-11"
     inkscape:window-y="-11"
     inkscape:window-maximized="1"
     inkscape:current-layer="svg3658" />
  <defs
     id="defs3660">
    <linearGradient
       id="linearGradient4011">
      <stop
         id="stop4013"
         style="stop-color:#ffffff;stop-opacity:1"
         offset="0" />
      <stop
         id="stop4015"
         style="stop-color:#ffffff;stop-opacity:0.23529412"
         offset="0.507761" />
      <stop
         id="stop4017"
         style="stop-color:#ffffff;stop-opacity:0.15686275"
         offset="0.83456558" />
      <stop
         id="stop4019"
         style="stop-color:#ffffff;stop-opacity:0.39215687"
         offset="1" />
    </linearGradient>
    <linearGradient
       id="linearGradient3820-7-2-2">
      <stop
         id="stop3822-2-6-36"
         style="stop-color:#3d3d3d;stop-opacity:1"
         offset="0" />
      <stop
         id="stop3864-8-7-6"
         style="stop-color:#686868;stop-opacity:0.49803922"
         offset="0.5" />
      <stop
         id="stop3824-1-2-4"
         style="stop-color:#686868;stop-opacity:0"
         offset="1" />
    </linearGradient>
    <radialGradient
       xlink:href="#linearGradient3820-7-2-2"
       id="radialGradient4048"
       gradientUnits="userSpaceOnUse"
       gradientTransform="matrix(0.1489586,0,0,0.04739593,1.2297114,17.876271)"
       cx="99.157013"
       cy="186.17059"
       fx="99.157013"
       fy="186.17059"
       r="62.769119" />
    <linearGradient
       gradientTransform="matrix(0.62027056,0,0,0.62027056,-28.494196,0.34682062)"
       gradientUnits="userSpaceOnUse"
       xlink:href="#linearGradient4011"
       id="linearGradient12398-3"
       y2="44.340794"
       x2="71.204407"
       y1="6.2375584"
       x1="71.204407" />
    <linearGradient
       gradientTransform="matrix(0.94466952,0,0,0.70623123,-1910.0101,-2261.2097)"
       gradientUnits="userSpaceOnUse"
       xlink:href="#linearGradient947-5"
       id="linearGradient11527-6-5"
       y2="3241.9966"
       x2="2035.1652"
       y1="3208.0737"
       x1="2035.1652" />
    <linearGradient
       id="linearGradient947-5">
      <stop
         offset="0"
         style="stop-color:#64baff;stop-opacity:1"
         id="stop943-6" />
      <stop
         offset="1"
         style="stop-color:#3689e6;stop-opacity:1"
         id="stop945-2" />
    </linearGradient>
  </defs>
  <metadata
     id="metadata3663">
    <rdf:RDF>
      <cc:Work
         rdf:about="">
        <dc:format>image/svg+xml</dc:format>
        <dc:type
           rdf:resource="http://purl.org/dc/dcmitype/StillImage" />
        <dc:title />
      </cc:Work>
    </rdf:RDF>
  </metadata>
  <path
     d="m 25.350001,26.699997 a 9.35,2.9749999 0 1 1 -18.6999999,0 9.35,2.9749999 0 1 1 18.6999999,0 z"
     id="path3818-0-2"
     style="fill:url(#radialGradient4048);fill-opacity:1;stroke:none;stroke-width:1;stroke-miterlimit:4;stroke-dasharray:none"
     inkscape:connector-curvature="0" />
  <path
     style="color:#000000;display:inline;overflow:visible;visibility:visible;opacity:0.98999999;fill:url(#linearGradient11527-6-5);fill-opacity:1;fill-rule:nonzero;stroke:none;stroke-width:1;marker:none;enable-background:accumulate;stroke-miterlimit:4;stroke-dasharray:none"
     id="path2555-7-8-5-0-9"
     d="m 15.999999,3.7501632 c -6.8005124,0 -12.3249999,5.5244878 -12.3249999,12.3250008 0,6.800512 5.5244875,12.325 12.3249999,12.325 6.800514,0 12.325013,-5.524488 12.325001,-12.325 0,-6.800513 -5.524487,-12.3250008 -12.325001,-12.3250008 z"
     inkscape:connector-curvature="0" />
  <path
     style="color:#000000;display:inline;overflow:visible;visibility:visible;opacity:0.5;fill:none;stroke:url(#linearGradient12398-3);stroke-width:1;stroke-linecap:round;stroke-linejoin:round;stroke-miterlimit:4;stroke-dasharray:none;stroke-dashoffset:0;stroke-opacity:1;marker:none;enable-background:accumulate"
     id="path8655-6-0-9-5-0"
     d="m 27.475,16.074753 c 0,6.337682 -5.137916,11.475416 -11.474861,11.475416 -6.3375257,0 -11.4751387,-5.137795 -11.4751387,-11.475416 0,-6.3373797 5.137613,-11.4745947 11.4751387,-11.4745947 6.336945,0 11.474861,5.1372151 11.474861,11.4745947 z"
     inkscape:connector-curvature="0" />
  <path
     style="color:#000000;clip-rule:nonzero;display:inline;overflow:visible;visibility:visible;opacity:0.5;isolation:auto;mix-blend-mode:normal;color-interpolation:sRGB;color-interpolation-filters:linearRGB;solid-color:#000000;solid-opacity:1;vector-effect:none;fill:none;fill-opacity:1;fill-rule:nonzero;stroke:#002e99;stroke-width:1;stroke-linecap:round;stroke-linejoin:round;stroke-miterlimit:4;stroke-dasharray:none;stroke-dashoffset:0;stroke-opacity:1;marker:none;color-rendering:auto;image-rendering:auto;shape-rendering:auto;text-rendering:auto;enable-background:accumulate"
     id="path2555-4"
     d="m 16.000001,3.7516919 c -6.7996662,0 -12.3234728,5.5238046 -12.3234728,12.3234711 0,6.799667 5.5238066,12.323475 12.3234728,12.323472 6.799664,0 12.323477,-5.523805 12.323471,-12.323472 0,-6.7996665 -5.523807,-12.3234711 -12.323471,-12.3234711 z"
     inkscape:connector-curvature="0" />
  <path
     d="m 17.992187,7.6017263 c -0.02168,-0.00115 -0.03166,0.027082 -0.05313,0.026562 -0.009,1.343e-4 -0.01758,-2.51e-4 -0.02656,0 -1.152354,-0.013654 -1.997633,0.8450822 -2.284375,1.7796875 -0.147163,0.4796639 -0.19104,1.0296872 -0.02656,1.5406252 0.164478,0.510938 0.558144,0.989656 1.115625,1.248438 a 0.81377103,0.81377103 0 0 0 0.02656,0 c 1.771776,0.726621 3.632253,-0.948529 3.267187,-2.7625007 -0.0055,-0.027523 0.0065,-0.052113 0,-0.079688 h -0.02656 C 19.80879,8.398759 19.008924,7.6394055 17.992187,7.6282888 Z m -0.6375,5.3656247 c -0.456214,-0.03749 -0.836408,0.211626 -1.195312,0.451563 l -0.02656,-0.05312 c -0.0604,0.02631 -0.09992,0.07892 -0.159375,0.10625 -1.539684,0.7077 -2.79319,1.713695 -4.010937,2.603125 a 0.81377103,0.81377103 0 0 0 -0.292188,0.95625 c 0.08689,0.236192 0.08545,0.503632 0.53125,0.85 0.222902,0.173184 0.68271,0.273115 0.982813,0.159375 0.191038,-0.0724 0.289631,-0.183457 0.398437,-0.292188 0.156975,-0.0934 0.324018,-0.175259 0.504688,-0.292187 -0.466438,1.962355 -0.983047,3.932947 -1.407813,5.95 h 0.02656 c -0.292063,0.865993 -0.09871,1.779797 0.504687,2.3375 0.597086,0.551869 1.57114,0.601584 2.390625,0.132812 l 0.02656,0.02656 c 0.05111,-0.02107 0.08242,-0.05777 0.132812,-0.07969 1.343043,-0.584338 2.456506,-1.442582 3.50625,-2.178125 a 0.81377103,0.81377103 0 0 0 0.265625,-0.982812 C 19.487091,22.550533 19.48449,22.325458 19.1875,21.945476 19.039003,21.755485 18.620026,21.5054 18.23125,21.573601 c -0.229905,0.04033 -0.30027,0.161048 -0.425,0.265625 l -0.02656,-0.02656 c -0.266053,0.120758 -0.389989,0.236549 -0.584375,0.371875 0.461677,-1.999694 1.081527,-3.998889 1.567188,-6.109375 0.0129,-0.05608 0.04051,-0.103141 0.05313,-0.159375 H 18.7625 c 0.217182,-0.584633 0.256892,-1.220068 0.05313,-1.753125 -0.222276,-0.581477 -0.727853,-1.135081 -1.460938,-1.195313 z"
     id="path3504"
     style="color:#000000;font-style:normal;font-variant:normal;font-weight:bold;font-stretch:normal;font-size:40px;line-height:100%;font-family:'URW Palladio L';-inkscape-font-specification:'URW Palladio L Bold';text-align:start;writing-mode:lr-tb;text-anchor:start;clip-rule:nonzero;display:inline;overflow:visible;visibility:visible;opacity:0.05;isolation:auto;mix-blend-mode:normal;color-interpolation:sRGB;color-interpolation-filters:linearRGB;solid-color:#000000;solid-opacity:1;fill:#002e99;fill-opacity:1;fill-rule:nonzero;stroke:none;stroke-width:1;stroke-linecap:butt;stroke-linejoin:miter;stroke-miterlimit:4;stroke-dasharray:none;stroke-dashoffset:0;stroke-opacity:1;marker:none;color-rendering:auto;image-rendering:auto;shape-rendering:auto;text-rendering:auto;enable-background:accumulate"
     inkscape:connector-curvature="0" />
  <path
     d="m 12.43,16.744612 c 0.16254,0.441858 0.345489,0.800016 0.735191,0.310284 0.483145,-0.287459 2.101981,-1.547477 1.939997,-0.313261 -0.51835,2.283844 -1.149299,4.54367 -1.631729,6.834549 -0.50445,1.254359 0.641057,2.38898 1.837051,1.573264 1.271263,-0.524066 2.365182,-1.377681 3.482744,-2.160743 -0.152484,-0.373958 -0.254117,-0.911145 -0.675445,-0.422094 -0.553226,0.251102 -1.761532,1.434956 -1.986012,0.458542 0.464704,-2.47299 1.325696,-4.854435 1.876058,-7.307707 0.506475,-1.128009 -0.320699,-2.553289 -1.558882,-1.620185 -1.483376,0.646058 -2.723868,1.70142 -4.018973,2.647351 z m 5.505286,-8.3175096 c -1.513482,-0.080317 -2.304783,2.3594556 -0.866531,3.0270876 1.166844,0.478533 2.437328,-0.718213 2.152272,-1.9140389 -0.08846,-0.6226769 -0.647508,-1.1339952 -1.28574,-1.1130487 z"
     id="path3536-1-5"
     style="color:#000000;font-style:normal;font-variant:normal;font-weight:bold;font-stretch:normal;font-size:40px;line-height:100%;font-family:'URW Palladio L';-inkscape-font-specification:'URW Palladio L Bold';text-align:start;writing-mode:lr-tb;text-anchor:start;clip-rule:nonzero;display:inline;overflow:visible;visibility:visible;opacity:0.15;isolation:auto;mix-blend-mode:normal;color-interpolation:sRGB;color-interpolation-filters:linearRGB;solid-color:#000000;solid-opacity:1;fill:#002e99;fill-opacity:1;fill-rule:nonzero;stroke:none;stroke-width:1;stroke-linecap:butt;stroke-linejoin:miter;stroke-miterlimit:4;stroke-dasharray:none;stroke-dashoffset:0;stroke-opacity:1;marker:none;color-rendering:auto;image-rendering:auto;shape-rendering:auto;text-rendering:auto;enable-background:accumulate"
     inkscape:connector-curvature="0" />
  <path
     d="m 12.43,15.894612 c 0.16254,0.441858 0.345489,0.800016 0.735191,0.310284 0.483145,-0.287459 2.101981,-1.547477 1.939997,-0.313261 -0.51835,2.283844 -1.149299,4.54367 -1.631729,6.834549 -0.50445,1.254359 0.641057,2.38898 1.837051,1.573264 1.271263,-0.524066 2.365182,-1.377681 3.482744,-2.160743 -0.152484,-0.373958 -0.254117,-0.911145 -0.675445,-0.422094 -0.553226,0.251102 -1.761532,1.434956 -1.986012,0.458542 0.464704,-2.47299 1.325696,-4.854435 1.876058,-7.307707 0.506475,-1.128009 -0.320699,-2.553289 -1.558882,-1.620185 -1.483376,0.646058 -2.723868,1.70142 -4.018973,2.647351 z m 5.505286,-8.3175102 c -1.513482,-0.080317 -2.304783,2.3594555 -0.866531,3.0270882 1.166844,0.478533 2.437328,-0.7182136 2.152272,-1.9140395 -0.08846,-0.6226769 -0.647508,-1.1339952 -1.28574,-1.1130487 z"
     id="path3536-1"
     style="font-style:normal;font-variant:normal;font-weight:bold;font-stretch:normal;font-size:40px;line-height:100%;font-family:'URW Palladio L';-inkscape-font-specification:'URW Palladio L Bold';text-align:start;writing-mode:lr-tb;text-anchor:start;fill:#ffffff;fill-opacity:1;stroke:none;stroke-width:1;stroke-miterlimit:4;stroke-dasharray:none"
     inkscape:connector-curvature="0" />
</svg>
