<?xml version="1.0" encoding="UTF-8" standalone="no"?>
<svg
   xmlns:dc="http://purl.org/dc/elements/1.1/"
   xmlns:cc="http://creativecommons.org/ns#"
   xmlns:rdf="http://www.w3.org/1999/02/22-rdf-syntax-ns#"
   xmlns:svg="http://www.w3.org/2000/svg"
   xmlns="http://www.w3.org/2000/svg"
   xmlns:xlink="http://www.w3.org/1999/xlink"
   xmlns:sodipodi="http://sodipodi.sourceforge.net/DTD/sodipodi-0.dtd"
   xmlns:inkscape="http://www.inkscape.org/namespaces/inkscape"
   version="1.1"
   width="32"
   height="32"
   id="svg4715"
   sodipodi:docname="media.svg"
   inkscape:version="0.92.4 (5da689c313, 2019-01-14)">
  <sodipodi:namedview
     pagecolor="#ffffff"
     bordercolor="#666666"
     borderopacity="1"
     objecttolerance="10"
     gridtolerance="10"
     guidetolerance="10"
     inkscape:pageopacity="0"
     inkscape:pageshadow="2"
     inkscape:window-width="2880"
     inkscape:window-height="1706"
     id="namedview56"
     showgrid="false"
     inkscape:zoom="7.375"
     inkscape:cx="-1.4237288"
     inkscape:cy="16"
     inkscape:window-x="-11"
     inkscape:window-y="-11"
     inkscape:window-maximized="1"
     inkscape:current-layer="svg4715" />
  <defs
     id="defs4717">
    <linearGradient
       id="linearGradient895">
      <stop
         id="stop891"
         style="stop-color:#8cd5ff;stop-opacity:1"
         offset="0" />
      <stop
         id="stop893"
         style="stop-color:#3689e6;stop-opacity:1"
         offset="1" />
    </linearGradient>
    <linearGradient
       id="linearGradient878">
      <stop
         id="stop870"
         style="stop-color:#ffffff;stop-opacity:1"
         offset="0" />
      <stop
         id="stop872"
         style="stop-color:#ffffff;stop-opacity:0.23529412"
         offset="0" />
      <stop
         id="stop874"
         style="stop-color:#ffffff;stop-opacity:0.15686275"
         offset="1" />
      <stop
         id="stop876"
         style="stop-color:#ffffff;stop-opacity:0.39215687"
         offset="1" />
    </linearGradient>
    <linearGradient
       id="linearGradient864">
      <stop
         style="stop-color:#ffa154;stop-opacity:1"
         offset="0"
         id="stop860" />
      <stop
         style="stop-color:#f37329;stop-opacity:1"
         offset="1"
         id="stop862" />
    </linearGradient>
    <linearGradient
       id="linearGradient4549-5">
      <stop
         id="stop4551-9"
         style="stop-color:#000000;stop-opacity:0.27205881"
         offset="0" />
      <stop
         id="stop4553-0"
         style="stop-color:#000000;stop-opacity:0.36764705"
         offset="1" />
    </linearGradient>
    <linearGradient
       gradientTransform="matrix(0.39054055,0,0,0.39054055,10.103086,3.3009641)"
       gradientUnits="userSpaceOnUse"
       xlink:href="#linearGradient878"
       id="linearGradient5397"
       y2="41.414486"
       x2="30.526697"
       y1="6.5909567"
       x1="30.526697" />
    <linearGradient
       id="linearGradient3924-64-9">
      <stop
         offset="0"
         style="stop-color:#ffffff;stop-opacity:1"
         id="stop3926-3-6-7" />
      <stop
         offset="0"
         style="stop-color:#ffffff;stop-opacity:0.23529412"
         id="stop3928-0-0" />
      <stop
         offset="1"
         style="stop-color:#ffffff;stop-opacity:0.15686275"
         id="stop3930-3-59-6" />
      <stop
         offset="1"
         style="stop-color:#ffffff;stop-opacity:0.39215687"
         id="stop3932-0-30" />
    </linearGradient>
    <linearGradient
       gradientTransform="matrix(0.85,0,0,0.85,-172.625,-46.825015)"
       gradientUnits="userSpaceOnUse"
       xlink:href="#linearGradient5803-0"
       id="linearGradient5874-6"
       y2="76.996925"
       x2="227.20357"
       y1="63.106243"
       x1="227.20357" />
    <linearGradient
       id="linearGradient5803-0">
      <stop
         offset="0"
         style="stop-color:#fff5ef;stop-opacity:1"
         id="stop5805-3" />
      <stop
         offset="1"
         style="stop-color:#fef8dd;stop-opacity:1"
         id="stop5807-4" />
    </linearGradient>
    <linearGradient
       gradientTransform="matrix(0.39054055,0,0,0.41351364,3.3020156,9.1257396)"
       gradientUnits="userSpaceOnUse"
       xlink:href="#linearGradient3924-64-9"
       id="linearGradient7191-5"
       y2="41.472054"
       x2="23.99999"
       y1="6.5276208"
       x1="23.99999" />
    <radialGradient
       gradientTransform="matrix(0.0102413,0,0,0.007,13.727987,24.558467)"
       gradientUnits="userSpaceOnUse"
       xlink:href="#linearGradient4549-5"
       id="radialGradient4965-9"
       fy="486.64789"
       fx="605.71429"
       r="117.14286"
       cy="486.64789"
       cx="605.71429" />
    <radialGradient
       gradientTransform="matrix(-0.0102413,0,0,0.007,11.622045,24.558467)"
       gradientUnits="userSpaceOnUse"
       xlink:href="#linearGradient4549-5"
       id="radialGradient4968-3"
       fy="486.64789"
       fx="605.71429"
       r="117.14286"
       cy="486.64789"
       cx="605.71429" />
    <linearGradient
       id="linearGradient5048-2-2">
      <stop
         offset="0"
         style="stop-color:#000000;stop-opacity:0"
         id="stop5050-3-3" />
      <stop
         offset="0.5"
         style="stop-color:#000000;stop-opacity:1"
         id="stop5056-5-7" />
      <stop
         offset="1"
         style="stop-color:#000000;stop-opacity:0"
         id="stop5052-02-4" />
    </linearGradient>
    <linearGradient
       gradientTransform="matrix(0.02992604,0,0,0.007,1.8588941,24.558459)"
       gradientUnits="userSpaceOnUse"
       xlink:href="#linearGradient5048-2-2"
       id="linearGradient12979"
       y2="609.50507"
       x2="302.85715"
       y1="366.64789"
       x1="302.85715" />
    <linearGradient
       xlink:href="#linearGradient864"
       id="linearGradient866"
       x1="23.932209"
       y1="2.4120836"
       x2="23.932209"
       y2="21.493765"
       gradientUnits="userSpaceOnUse"
       gradientTransform="matrix(0.85,0,0,0.85,2.4749992,2.4749999)" />
    <linearGradient
       xlink:href="#linearGradient895"
       id="linearGradient889"
       x1="12"
       y1="5.369091"
       x2="12"
       y2="40.668579"
       gradientUnits="userSpaceOnUse"
       gradientTransform="matrix(0.85,0,0,0.85,2.4749992,2.4749999)" />
  </defs>
  <metadata
     id="metadata4720">
    <rdf:RDF>
      <cc:Work
         rdf:about="">
        <dc:format>image/svg+xml</dc:format>
        <dc:type
           rdf:resource="http://purl.org/dc/dcmitype/StillImage" />
        <dc:title />
      </cc:Work>
    </rdf:RDF>
  </metadata>
  <rect
     style="display:inline;opacity:1;fill:url(#linearGradient889);fill-opacity:1;stroke:none;stroke-width:1;stroke-linecap:butt;stroke-linejoin:miter;stroke-miterlimit:4;stroke-dasharray:none;stroke-dashoffset:0;stroke-opacity:0.83137255"
     id="rect3457-8"
     y="10.549973"
     x="7.1500163"
     ry="0"
     rx="0"
     height="17"
     width="11.05" />
  <rect
     style="display:inline;overflow:visible;visibility:visible;opacity:0.15;fill:url(#linearGradient12979);fill-opacity:1;fill-rule:nonzero;stroke:none;stroke-width:1;marker:none;stroke-miterlimit:4;stroke-dasharray:none"
     id="rect2879-7"
     y="27.125"
     x="5.450016"
     height="1.7"
     width="14.449999" />
  <path
     style="display:inline;overflow:visible;visibility:visible;opacity:0.15;fill:url(#radialGradient4968-3);fill-opacity:1;fill-rule:nonzero;stroke:none;stroke-width:1;marker:none;stroke-miterlimit:4;stroke-dasharray:none"
     id="path2881-0"
     d="m 5.4500166,27.125068 c 0,0 0,1.699906 0,1.699906 -0.5273995,0.0034 -1.275,-0.380868 -1.275,-0.850068 0,-0.4692 0.58854,-0.849838 1.275,-0.849838 z"
     inkscape:connector-curvature="0" />
  <path
     style="display:inline;overflow:visible;visibility:visible;opacity:0.15;fill:url(#radialGradient4965-9);fill-opacity:1;fill-rule:nonzero;stroke:none;stroke-width:1;marker:none;stroke-miterlimit:4;stroke-dasharray:none"
     id="path2883-3"
     d="m 19.900015,27.125068 c 0,0 0,1.699906 0,1.699906 0.5274,0.0034 1.275,-0.380868 1.275,-0.850068 0,-0.4692 -0.58854,-0.849838 -1.275,-0.849838 z"
     inkscape:connector-curvature="0" />
  <path
     style="color:#000000;font-style:normal;font-variant:normal;font-weight:normal;font-stretch:normal;font-size:medium;line-height:normal;font-family:sans-serif;text-indent:0;text-align:start;text-decoration:none;text-decoration-line:none;text-decoration-style:solid;text-decoration-color:#000000;letter-spacing:normal;word-spacing:normal;text-transform:none;writing-mode:lr-tb;direction:ltr;baseline-shift:baseline;text-anchor:start;white-space:normal;clip-rule:nonzero;display:inline;overflow:visible;visibility:visible;opacity:0.7;isolation:auto;mix-blend-mode:normal;color-interpolation:sRGB;color-interpolation-filters:linearRGB;solid-color:#000000;solid-opacity:1;fill:#000000;fill-opacity:1;fill-rule:nonzero;stroke:none;stroke-width:1;stroke-linecap:round;stroke-linejoin:round;stroke-miterlimit:4;stroke-dasharray:none;stroke-dashoffset:0;stroke-opacity:1;marker:none;color-rendering:auto;image-rendering:auto;shape-rendering:auto;text-rendering:auto;enable-background:accumulate"
     d="m 4.5999902,10.125 c -0.2347113,2.3e-5 -0.4249765,0.190288 -0.425,0.425 v 17 c 2.35e-5,0.234711 0.1902887,0.424976 0.425,0.425 h 2.125 11.8999998 2.125 c 0.234711,-2.4e-5 0.424976,-0.190289 0.425,-0.425 v -17 c -2.4e-5,-0.234712 -0.190289,-0.424977 -0.425,-0.425 h -2.125 -11.8999998 z m 0.425,0.85 h 1.7 v 0.85 h -1.7 z m 2.55,0 H 17.77499 v 16.15 H 7.5749902 Z m 11.0499998,0 h 1.7 v 0.85 h -1.7 z m -13.5999998,2.55 h 1.7 v 0.85 h -1.7 z m 13.5999998,0 h 1.7 v 0.85 h -1.7 z m -13.5999998,2.55 h 1.7 v 0.85 h -1.7 z m 13.5999998,0 h 1.7 v 0.85 h -1.7 z m -13.5999998,2.55 h 1.7 v 0.85 h -1.7 z m 13.5999998,0 h 1.7 v 0.85 h -1.7 z m -13.5999998,2.55 h 1.7 v 0.85 h -1.7 z m 13.5999998,0 h 1.7 v 0.85 h -1.7 z m -13.5999998,2.55 h 1.7 v 0.85 h -1.7 z m 13.5999998,0 h 1.7 v 0.85 h -1.7 z m -13.5999998,2.55 h 1.7 v 0.85 h -1.7 z m 13.5999998,0 h 1.7 v 0.85 h -1.7 z"
     id="rect5505-21-2"
     inkscape:connector-curvature="0" />
  <path
     style="display:block;overflow:visible;visibility:visible;opacity:0.7;fill:none;stroke:#000000;stroke-width:1;stroke-linecap:square;stroke-linejoin:round;stroke-miterlimit:4;stroke-dasharray:none;stroke-dashoffset:0;stroke-opacity:1;marker:none"
     id="path4320-2"
     d="m 8.0000166,19.049974 c 3.1165244,0 6.2330654,0 9.3495904,0"
     inkscape:connector-curvature="0" />
  <path
     style="display:block;overflow:visible;visibility:visible;opacity:0.3;fill:none;stroke:#ffffff;stroke-width:1;stroke-linecap:square;stroke-linejoin:round;stroke-miterlimit:4;stroke-dasharray:none;stroke-dashoffset:0;stroke-opacity:1;marker:none"
     id="path4820-2"
     d="m 8.0000166,19.9 c 3.1165334,0 6.2330654,0 9.3495904,0"
     inkscape:connector-curvature="0" />
  <rect
     style="opacity:0.3;fill:none;stroke:url(#linearGradient7191-5);stroke-width:1;stroke-linecap:round;stroke-linejoin:miter;stroke-miterlimit:4;stroke-dasharray:none;stroke-dashoffset:0;stroke-opacity:1"
     id="rect6741-0-3-5"
     y="11.400052"
     x="5.450016"
     height="15.300001"
     width="14.45" />
  <path
     style="color:#000000;display:inline;overflow:visible;visibility:visible;opacity:0.3;fill:#e6e6e6;fill-opacity:1;fill-rule:nonzero;stroke:none;stroke-width:1;marker:none;enable-background:accumulate;stroke-miterlimit:4;stroke-dasharray:none"
     id="rect3953-50-6-7"
     d="m 18.62499,26.275 h 1.7 v 0.85 h -1.7 z m 0,-2.55 h 1.7 v 0.85 h -1.7 z m 0,-2.55 h 1.7 v 0.85 h -1.7 z m -13.5999998,5.1 h 1.7 v 0.85 h -1.7 z m 0,-2.55 h 1.7 v 0.85 h -1.7 z m 0,-2.55 h 1.7 v 0.85 h -1.7 z m 0,-2.55 h 1.7 v 0.85 h -1.7 z m 0,-2.55 h 1.7 v 0.85 h -1.7 z m 0,-2.55 h 1.7 v 0.85 h -1.7 z m 0,-2.55 h 1.7 v 0.85 h -1.7 z"
     inkscape:connector-curvature="0" />
  <path
     style="color:#000000;display:inline;overflow:visible;visibility:visible;opacity:0.05;fill:#000000;fill-opacity:1;fill-rule:nonzero;stroke:none;stroke-width:1;marker:none;enable-background:accumulate;stroke-miterlimit:4;stroke-dasharray:none"
     id="path4457"
     d="m 11.878124,4.1749999 c -0.954797,0 -1.753125,0.7983276 -1.753125,1.753125 V 21.121875 c 0,0.954797 0.798328,1.753125 1.753125,1.753125 h 15.19375 c 0.954798,0 1.753125,-0.798328 1.753125,-1.753125 V 5.9281249 c 0,-0.9547974 -0.798327,-1.753125 -1.753125,-1.753125 z"
     inkscape:connector-curvature="0" />
  <rect
     width="17"
     height="17"
     rx="0.89473677"
     ry="0.89473677"
     x="10.974999"
     y="5.0250001"
     id="rect5505-21-8-5-7"
     style="color:#000000;display:inline;overflow:visible;visibility:visible;opacity:0.15;fill:#000000;fill-opacity:1;fill-rule:nonzero;stroke:none;stroke-width:1;marker:none;enable-background:accumulate;stroke-miterlimit:4;stroke-dasharray:none" />
  <rect
     width="16.150002"
     height="16.150002"
     rx="0.85000002"
     ry="0.85000002"
     x="11.399999"
     y="4.5999985"
     id="rect5505-21-8"
     style="color:#000000;display:inline;overflow:visible;visibility:visible;opacity:1;fill:url(#linearGradient866);fill-opacity:1;fill-rule:nonzero;stroke:none;stroke-width:1;marker:none;enable-background:accumulate;stroke-miterlimit:4;stroke-dasharray:none" />
  <path
     d="m 19.831685,7.5787665 c -0.384812,-0.04488 -0.438099,0.2799985 -0.398013,0.538475 -0.0034,2.5720825 0.0076,5.1465205 -0.0051,7.7171245 -0.09398,0.08848 -0.274346,-0.05703 -0.394094,-0.01929 -1.304503,-0.07165 -2.729792,0.780623 -2.860207,2.010564 -0.153697,0.977883 0.99308,1.782467 2.015707,1.630377 1.288591,-0.123225 2.295314,-1.294907 2.127312,-2.451596 0.0034,-2.036574 -0.0076,-4.07552 0.0051,-6.110624 0.08783,-0.09064 0.218841,0.10234 0.311372,0.1118 1.036235,0.552432 1.952875,1.463411 2.014755,2.597872 0.068,0.886465 -0.229866,1.753882 -0.565046,2.575679 1.123113,-1.245624 1.482646,-3.062746 0.70221,-4.534019 C 22.386538,10.791078 21.486133,10.264758 20.982423,9.471487 20.610438,8.941376 20.327337,8.349572 20.238758,7.723734 20.165828,7.5932335 19.973737,7.5773385 19.831685,7.578741 Z"
     id="path7249-8-0-2"
     style="color:#000000;display:inline;overflow:visible;visibility:visible;opacity:0.3;fill:#ae2109;fill-opacity:1;fill-rule:nonzero;stroke:none;stroke-width:1;marker:none;enable-background:accumulate;stroke-miterlimit:4;stroke-dasharray:none"
     inkscape:connector-curvature="0" />
  <path
     d="m 19.820312,6.8046721 v 0.026562 c -0.389802,-0.00765 -0.863005,0.2065661 -1.035938,0.53125 -0.162486,0.3050599 -0.133135,0.5329381 -0.10625,0.74375 h -0.02652 c -0.0034,2.3280969 0.0068,4.6644339 0,6.9859369 -0.685627,0.04139 -1.353701,0.232323 -1.9125,0.610939 -0.664674,0.450346 -1.197352,1.152422 -1.301562,2.018749 -8.5e-4,0.0085 8.5e-4,0.01799 0,0.02656 -0.112906,0.797333 0.296684,1.49081 0.85,1.912501 0.552865,0.421347 1.258195,0.632414 1.992187,0.53125 v 0.02656 c 1.66691,-0.159404 2.956445,-1.601256 2.789063,-3.214063 h 0.02652 c 0.0025,-1.571037 -0.0017,-3.138063 0,-4.701562 0.422798,0.402346 0.744158,0.875209 0.770312,1.354687 0.05236,0.683153 -0.18224,1.440682 -0.504687,2.23125 a 0.76352636,0.76352636 0 0 0 1.275,0.796875 c 1.307376,-1.449985 1.778625,-3.580255 0.85,-5.365625 -0.0025,-0.0054 -0.02406,0.0053 -0.02652,0 -0.0034,-0.0073 0.0034,-0.01929 0,-0.02656 -0.537982,-1.118679 -1.471962,-1.6629596 -1.832813,-2.2312509 a 0.76352636,0.76352636 0 0 0 0,-0.053125 c -0.328669,-0.4683806 -0.57154,-0.9152086 -0.6375,-1.38125 a 0.76352636,0.76352636 0 0 0 -0.07973,-0.265625 c -0.176443,-0.3157283 -0.450559,-0.4222953 -0.6375,-0.478125 -0.153059,-0.045713 -0.259964,-0.05049 -0.371875,-0.053125 -0.0092,-2.159e-4 -0.0176,-0.026478 -0.02652,-0.026562 -0.01522,-1.428e-4 -0.03842,-1.454e-4 -0.05313,0 z m -0.451563,8.2874999 c 0.09614,0.0038 0.09982,0.03275 0.07964,0.02656 -0.0077,-0.0025 -0.113007,0.01066 -0.132812,0 0.0142,-9.35e-4 0.04208,-0.027 0.05313,-0.02656 z"
     id="path6021"
     style="color:#000000;display:inline;overflow:visible;visibility:visible;opacity:0.15;fill:#ae2109;fill-opacity:1;fill-rule:nonzero;stroke:none;stroke-width:1;marker:none;enable-background:accumulate;stroke-miterlimit:4;stroke-dasharray:none"
     inkscape:connector-curvature="0" />
  <path
     d="m 19.831685,6.7291753 c -0.384812,-0.04488 -0.438099,0.2799985 -0.398013,0.538475 -0.0034,2.572083 0.0076,5.1465207 -0.0051,7.7171247 -0.09398,0.08848 -0.274346,-0.05704 -0.394094,-0.0193 -1.304503,-0.07165 -2.729792,0.780623 -2.860207,2.010564 -0.153697,0.977883 0.99308,1.782467 2.015707,1.630377 1.288591,-0.123225 2.295314,-1.294907 2.127312,-2.451596 0.0034,-2.036574 -0.0076,-4.07552 0.0051,-6.110624 0.08783,-0.090636 0.218841,0.10234 0.311372,0.1118 1.036235,0.552432 1.952875,1.463411 2.014755,2.597872 0.068,0.886465 -0.229866,1.753882 -0.565046,2.575679 1.123113,-1.245624 1.482646,-3.062746 0.70221,-4.534019 C 22.386538,9.9414868 21.486133,9.4151668 20.982423,8.6218958 20.610438,8.0917848 20.327337,7.4999808 20.238758,6.8741428 20.165828,6.7436423 19.973737,6.7277473 19.831685,6.7291498 Z"
     id="path7249-8-0-2-7"
     style="opacity:1;fill:url(#linearGradient5874-6);fill-opacity:1;stroke:none;stroke-width:1;stroke-miterlimit:4;stroke-dasharray:none"
     inkscape:connector-curvature="0" />
  <rect
     width="14.45"
     height="14.45"
     x="12.251062"
     y="5.4489341"
     id="rect6741-9-0"
     style="opacity:0.5;fill:none;stroke:url(#linearGradient5397);stroke-width:1;stroke-linecap:round;stroke-linejoin:round;stroke-miterlimit:4;stroke-dasharray:none;stroke-dashoffset:0;stroke-opacity:1" />
  <rect
     width="16.150002"
     height="16.150002"
     rx="0.85000002"
     ry="0.85000002"
     x="11.399999"
     y="4.5999985"
     id="rect5505-21-8-1-7"
     style="color:#000000;display:inline;overflow:visible;visibility:visible;opacity:0.5;fill:none;stroke:#a62100;stroke-width:1;stroke-linecap:round;stroke-linejoin:round;stroke-miterlimit:4;stroke-dasharray:none;stroke-dashoffset:0;stroke-opacity:1;marker:none;enable-background:accumulate" />
</svg>
