<?xml version="1.0" encoding="UTF-8" standalone="no"?>
<svg
   xmlns:dc="http://purl.org/dc/elements/1.1/"
   xmlns:cc="http://creativecommons.org/ns#"
   xmlns:rdf="http://www.w3.org/1999/02/22-rdf-syntax-ns#"
   xmlns:svg="http://www.w3.org/2000/svg"
   xmlns="http://www.w3.org/2000/svg"
   xmlns:xlink="http://www.w3.org/1999/xlink"
   xmlns:sodipodi="http://sodipodi.sourceforge.net/DTD/sodipodi-0.dtd"
   xmlns:inkscape="http://www.inkscape.org/namespaces/inkscape"
   id="svg3670"
   height="32"
   width="32"
   version="1.1"
   sodipodi:docname="microphone.svg"
   inkscape:version="0.92.4 (5da689c313, 2019-01-14)">
  <sodipodi:namedview
     pagecolor="#ffffff"
     bordercolor="#666666"
     borderopacity="1"
     objecttolerance="10"
     gridtolerance="10"
     guidetolerance="10"
     inkscape:pageopacity="0"
     inkscape:pageshadow="2"
     inkscape:window-width="2880"
     inkscape:window-height="1706"
     id="namedview55"
     showgrid="false"
     inkscape:zoom="7.375"
     inkscape:cx="-1.4237288"
     inkscape:cy="16"
     inkscape:window-x="-11"
     inkscape:window-y="-11"
     inkscape:window-maximized="1"
     inkscape:current-layer="svg3670" />
  <defs
     id="defs3672">
    <linearGradient
       id="linearGradient3208">
      <stop
         offset="0"
         style="stop-color:#ffffff;stop-opacity:1"
         id="stop3210" />
      <stop
         offset="1"
         style="stop-color:#ffffff;stop-opacity:0"
         id="stop3212" />
    </linearGradient>
    <linearGradient
       id="linearGradient3711-6">
      <stop
         style="stop-color:#ffffff;stop-opacity:1"
         offset="0"
         id="stop3713-6" />
      <stop
         style="stop-color:#d2d2d2;stop-opacity:1"
         offset="1"
         id="stop3715-7" />
    </linearGradient>
    <linearGradient
       id="linearGradient2904">
      <stop
         style="stop-color:#b9b9b9;stop-opacity:1"
         offset="0"
         id="stop2906" />
      <stop
         style="stop-color:white;stop-opacity:1;"
         offset="0.21551724"
         id="stop2910" />
      <stop
         style="stop-color:#c3c3c3;stop-opacity:1"
         offset="0.70243758"
         id="stop2912" />
      <stop
         style="stop-color:#878787;stop-opacity:1"
         offset="1"
         id="stop2908" />
    </linearGradient>
    <linearGradient
       id="linearGradient4170">
      <stop
         id="stop4172"
         style="stop-color:#ffffff;stop-opacity:1"
         offset="0" />
      <stop
         id="stop4174"
         style="stop-color:#ffffff;stop-opacity:0.23529412"
         offset="0.02783963" />
      <stop
         id="stop4176"
         style="stop-color:#ffffff;stop-opacity:0.15686275"
         offset="0.98396504" />
      <stop
         id="stop4178"
         style="stop-color:#ffffff;stop-opacity:0.39215687"
         offset="1" />
    </linearGradient>
    <linearGradient
       y2="13.982918"
       x2="28.028574"
       y1="14.011304"
       x1="16.977392"
       gradientTransform="matrix(0.84587643,0,0,0.67693905,-2.53371,2.7094158)"
       gradientUnits="userSpaceOnUse"
       id="linearGradient9423"
       xlink:href="#linearGradient11193" />
    <linearGradient
       id="linearGradient11193">
      <stop
         id="stop11195"
         offset="0"
         style="stop-color:#ffffff;stop-opacity:1" />
      <stop
         style="stop-color:#e5e5e5;stop-opacity:1;"
         offset="0.23791341"
         id="stop9375" />
      <stop
         style="stop-color:#e1e1e1;stop-opacity:1"
         offset="0.5490092"
         id="stop11205" />
      <stop
         style="stop-color:#ababab;stop-opacity:1"
         offset="0.69210809"
         id="stop11201" />
      <stop
         id="stop11203"
         offset="0.80617243"
         style="stop-color:#959595;stop-opacity:1" />
      <stop
         id="stop11197"
         offset="1"
         style="stop-color:#d3d3d3;stop-opacity:1" />
    </linearGradient>
    <linearGradient
       y2="33.250046"
       x2="23.71969"
       y1="14.750049"
       x1="23.71969"
       gradientTransform="matrix(0.30324325,0,0,0.02297298,11.432164,12.048646)"
       gradientUnits="userSpaceOnUse"
       id="linearGradient9425"
       xlink:href="#linearGradient4413" />
    <linearGradient
       id="linearGradient4413">
      <stop
         offset="0"
         style="stop-color:#ffffff;stop-opacity:1"
         id="stop4415" />
      <stop
         offset="0.125"
         style="stop-color:#ffffff;stop-opacity:0.23529412"
         id="stop4417" />
      <stop
         offset="1"
         style="stop-color:#ffffff;stop-opacity:0.15686275"
         id="stop4419" />
      <stop
         offset="1"
         style="stop-color:#ffffff;stop-opacity:0.39215687"
         id="stop4421" />
    </linearGradient>
    <radialGradient
       r="13.08399"
       fy="40.578671"
       fx="18.753521"
       cy="40.578671"
       cx="18.753521"
       gradientTransform="matrix(0.59740451,0,0,0.23210486,2.6088342,17.926209)"
       gradientUnits="userSpaceOnUse"
       id="radialGradient9452"
       xlink:href="#linearGradient3711-6" />
    <linearGradient
       y2="13.351768"
       x2="30.230837"
       y1="13.351768"
       x1="18.737373"
       gradientTransform="matrix(0.60714264,0,0,0.70833314,1.6250085,1.7624903)"
       gradientUnits="userSpaceOnUse"
       id="linearGradient9408-0"
       xlink:href="#linearGradient2904" />
    <radialGradient
       r="6.46875"
       fy="9.9127865"
       fx="23.897814"
       cy="9.9127865"
       cx="23.897814"
       gradientTransform="matrix(0.93471788,0,0,0.56856692,-5.5420674,-0.0393482)"
       gradientUnits="userSpaceOnUse"
       id="radialGradient9430"
       xlink:href="#linearGradient3208" />
    <linearGradient
       y2="20.136354"
       x2="24.458324"
       y1="2.8636429"
       x1="24.458324"
       gradientTransform="matrix(0.61818204,0,0,0.7650005,1.6636325,2.5274818)"
       gradientUnits="userSpaceOnUse"
       id="linearGradient9412-9"
       xlink:href="#linearGradient4170" />
    <linearGradient
       y2="10.75"
       x2="24.508121"
       y1="6.3608937"
       x1="21.961548"
       gradientTransform="matrix(0.50841121,0,0,0.54991434,3.1447745,1.9071688)"
       gradientUnits="userSpaceOnUse"
       id="linearGradient9434-7"
       xlink:href="#linearGradient3208" />
    <linearGradient
       y2="32.429119"
       x2="26.24283"
       y1="41.836731"
       x1="23.8125"
       gradientUnits="userSpaceOnUse"
       id="linearGradient9503-8"
       xlink:href="#linearGradient3208"
       gradientTransform="matrix(0.50146559,0,0,0.33303496,4.5338241,14.31773)" />
  </defs>
  <metadata
     id="metadata3675">
    <rdf:RDF>
      <cc:Work
         rdf:about="">
        <dc:format>image/svg+xml</dc:format>
        <dc:type
           rdf:resource="http://purl.org/dc/dcmitype/StillImage" />
        <dc:title />
      </cc:Work>
    </rdf:RDF>
  </metadata>
  <ellipse
     style="display:inline;fill:url(#radialGradient9452);fill-opacity:1;stroke:#000000;stroke-width:1;stroke-linecap:round;stroke-linejoin:round;stroke-miterlimit:4;stroke-dasharray:none;stroke-dashoffset:0;stroke-opacity:0.4"
     id="ellipse9450"
     cx="16.500019"
     cy="26.624998"
     rx="6.8000002"
     ry="2.55" />
  <path
     inkscape:connector-curvature="0"
     id="path9460"
     d="m 8,12.174999 v 1.7 h 0.85 v 1.781345 c -3.4e-6,2.706102 1.463407,5.208698 3.82832,6.557622 0.928069,0.529355 1.940944,0.842367 2.97168,0.95625 v 2.604783 h 1.7 v -2.604783 c 1.030736,-0.113883 2.043611,-0.426895 2.97168,-0.95625 C 22.686589,20.865042 24.15,18.362446 24.15,15.656344 V 13.874999 H 25 v -1.7 z m 2.55,1.7 h 11.9 v 1.781345 c 0,2.094102 -1.128758,4.028898 -2.97168,5.080084 -1.842918,1.051178 -4.113722,1.051178 -5.95664,0 C 11.67876,19.685242 10.549997,17.750446 10.55,15.656344 Z"
     style="color:#000000;font-style:normal;font-variant:normal;font-weight:normal;font-stretch:normal;font-size:medium;line-height:normal;font-family:sans-serif;font-variant-ligatures:normal;font-variant-position:normal;font-variant-caps:normal;font-variant-numeric:normal;font-variant-alternates:normal;font-feature-settings:normal;text-indent:0;text-align:start;text-decoration:none;text-decoration-line:none;text-decoration-style:solid;text-decoration-color:#000000;letter-spacing:normal;word-spacing:normal;text-transform:none;writing-mode:lr-tb;direction:ltr;text-orientation:mixed;dominant-baseline:auto;baseline-shift:baseline;text-anchor:start;white-space:normal;shape-padding:0;clip-rule:nonzero;display:inline;overflow:visible;visibility:visible;opacity:1;isolation:auto;mix-blend-mode:normal;color-interpolation:sRGB;color-interpolation-filters:linearRGB;solid-color:#000000;solid-opacity:1;vector-effect:none;fill:#e1e1e1;fill-opacity:1;fill-rule:nonzero;stroke:#000000;stroke-width:1;stroke-linecap:butt;stroke-linejoin:round;stroke-miterlimit:4;stroke-dasharray:none;stroke-dashoffset:0;stroke-opacity:0.4;color-rendering:auto;image-rendering:auto;shape-rendering:auto;text-rendering:auto;enable-background:accumulate" />
  <rect
     y="2.824986"
     x="12.25"
     width="8.5"
     style="fill:url(#linearGradient9408-0);fill-opacity:1;stroke:#000000;stroke-width:1;stroke-linecap:square;stroke-linejoin:round;stroke-miterlimit:4;stroke-dasharray:none;stroke-dashoffset:0;stroke-opacity:0.4"
     ry="4.2499995"
     rx="4.25"
     id="rect9406"
     height="17" />
  <path
     inkscape:connector-curvature="0"
     style="display:inline;opacity:0.9;fill:url(#radialGradient9430);fill-opacity:1;stroke:none;stroke-width:1;stroke-miterlimit:4;stroke-dasharray:none"
     id="path9428"
     d="m 16.5,3.2499988 c -2.120549,0 -3.825,1.7009605 -3.825,3.825 V 10.03152 h 7.65 V 7.0749988 c 0,-2.1240395 -1.704451,-3.825 -3.825,-3.825 z" />
  <rect
     y="3.6749988"
     x="13.1"
     width="6.7999997"
     style="display:inline;fill:none;stroke:url(#linearGradient9412-9);stroke-width:1;stroke-linecap:square;stroke-linejoin:round;stroke-miterlimit:4;stroke-dasharray:none;stroke-dashoffset:0;stroke-opacity:1"
     ry="3.3999996"
     rx="3.3999999"
     id="rect9410"
     height="15.3" />
  <ellipse
     ry="1.6841125"
     rx="1.7"
     cy="6.1346369"
     cx="15.171875"
     id="ellipse9432"
     style="fill:url(#linearGradient9434-7);fill-opacity:1;stroke:none;stroke-width:1;stroke-miterlimit:4;stroke-dasharray:none" />
  <path
     inkscape:connector-curvature="0"
     id="path9414"
     d="m 14.8,3.2499988 c -0.2346,0 -0.425,0.1904 -0.425,0.425 0,0.2346 0.1904,0.425 0.425,0.425 0.2346,0 0.425,-0.1904 0.425,-0.425 0,-0.2346 -0.1904,-0.425 -0.425,-0.425 z m 1.7,0 c -0.2346,0 -0.425,0.1904 -0.425,0.425 0,0.2346 0.1904,0.425 0.425,0.425 0.2346,0 0.425,-0.1904 0.425,-0.425 0,-0.2346 -0.1904,-0.425 -0.425,-0.425 z m 1.7,0 c -0.2346,0 -0.425,0.1904 -0.425,0.425 0,0.2346 0.1904,0.425 0.425,0.425 0.2346,0 0.425,-0.1904 0.425,-0.425 0,-0.2346 -0.1904,-0.425 -0.425,-0.425 z m -4.25,0.85 c -0.2346,0 -0.425,0.1904 -0.425,0.425 0,0.2346 0.1904,0.425 0.425,0.425 0.2346,0 0.425,-0.1904 0.425,-0.425 0,-0.2346 -0.1904,-0.425 -0.425,-0.425 z m 1.7,0 c -0.2346,0 -0.425,0.1904 -0.425,0.425 0,0.2346 0.1904,0.425 0.425,0.425 0.2346,0 0.425,-0.1904 0.425,-0.425 0,-0.2346 -0.1904,-0.425 -0.425,-0.425 z m 1.7,0 c -0.2346,0 -0.425,0.1904 -0.425,0.425 0,0.2346 0.1904,0.425 0.425,0.425 0.2346,0 0.425,-0.1904 0.425,-0.425 0,-0.2346 -0.1904,-0.425 -0.425,-0.425 z m 1.7,0 c -0.2346,0 -0.425,0.1904 -0.425,0.425 0,0.2346 0.1904,0.425 0.425,0.425 0.2346,0 0.425,-0.1904 0.425,-0.425 0,-0.2346 -0.1904,-0.425 -0.425,-0.425 z m -5.95,0.85 c -0.2346,0 -0.425,0.1904 -0.425,0.425 0,0.2346 0.1904,0.425 0.425,0.425 0.2346,0 0.425,-0.1904 0.425,-0.425 0,-0.2346 -0.1904,-0.425 -0.425,-0.425 z m 1.7,0 c -0.2346,0 -0.425,0.1904 -0.425,0.425 0,0.2346 0.1904,0.425 0.425,0.425 0.2346,0 0.425,-0.1904 0.425,-0.425 0,-0.2346 -0.1904,-0.425 -0.425,-0.425 z m 1.7,0 c -0.2346,0 -0.425,0.1904 -0.425,0.425 0,0.2346 0.1904,0.425 0.425,0.425 0.2346,0 0.425,-0.1904 0.425,-0.425 0,-0.2346 -0.1904,-0.425 -0.425,-0.425 z m 1.7,0 c -0.2346,0 -0.425,0.1904 -0.425,0.425 0,0.2346 0.1904,0.425 0.425,0.425 0.2346,0 0.425,-0.1904 0.425,-0.425 0,-0.2346 -0.1904,-0.425 -0.425,-0.425 z m 1.7,0 c -0.2346,0 -0.425,0.1904 -0.425,0.425 0,0.2346 0.1904,0.425 0.425,0.425 0.2346,0 0.425,-0.1904 0.425,-0.425 0,-0.2346 -0.1904,-0.425 -0.425,-0.425 z m -5.95,0.85 c -0.2346,0 -0.425,0.1904 -0.425,0.425 0,0.2346 0.1904,0.425 0.425,0.425 0.2346,0 0.425,-0.1904 0.425,-0.425 0,-0.2346 -0.1904,-0.425 -0.425,-0.425 z m 1.7,0 c -0.2346,0 -0.425,0.1904 -0.425,0.425 0,0.2346 0.1904,0.425 0.425,0.425 0.2346,0 0.425,-0.1904 0.425,-0.425 0,-0.2346 -0.1904,-0.425 -0.425,-0.425 z m 1.7,0 c -0.2346,0 -0.425,0.1904 -0.425,0.425 0,0.2346 0.1904,0.425 0.425,0.425 0.2346,0 0.425,-0.1904 0.425,-0.425 0,-0.2346 -0.1904,-0.425 -0.425,-0.425 z m 1.7,0 c -0.2346,0 -0.425,0.1904 -0.425,0.425 0,0.2346 0.1904,0.425 0.425,0.425 0.2346,0 0.425,-0.1904 0.425,-0.425 0,-0.2346 -0.1904,-0.425 -0.425,-0.425 z m -5.95,0.85 c -0.2346,0 -0.425,0.1904 -0.425,0.425 0,0.2346 0.1904,0.425 0.425,0.425 0.2346,0 0.425,-0.1904 0.425,-0.425 0,-0.2346 -0.1904,-0.425 -0.425,-0.425 z m 1.7,0 c -0.2346,0 -0.425,0.1904 -0.425,0.425 0,0.2346 0.1904,0.425 0.425,0.425 0.2346,0 0.425,-0.1904 0.425,-0.425 0,-0.2346 -0.1904,-0.425 -0.425,-0.425 z m 1.7,0 c -0.2346,0 -0.425,0.1904 -0.425,0.425 0,0.2346 0.1904,0.425 0.425,0.425 0.2346,0 0.425,-0.1904 0.425,-0.425 0,-0.2346 -0.1904,-0.425 -0.425,-0.425 z m 1.7,0 c -0.2346,0 -0.425,0.1904 -0.425,0.425 0,0.2346 0.1904,0.425 0.425,0.425 0.2346,0 0.425,-0.1904 0.425,-0.425 0,-0.2346 -0.1904,-0.425 -0.425,-0.425 z m 1.7,0 c -0.2346,0 -0.425,0.1904 -0.425,0.425 0,0.2346 0.1904,0.425 0.425,0.425 0.2346,0 0.425,-0.1904 0.425,-0.425 0,-0.2346 -0.1904,-0.425 -0.425,-0.425 z m -5.95,0.85 c -0.2346,0 -0.425,0.1904 -0.425,0.425 0,0.2346 0.1904,0.425 0.425,0.425 0.2346,0 0.425,-0.1904 0.425,-0.425 0,-0.2346 -0.1904,-0.425 -0.425,-0.425 z m 1.7,0 c -0.2346,0 -0.425,0.1904 -0.425,0.425 0,0.2346 0.1904,0.425 0.425,0.425 0.2346,0 0.425,-0.1904 0.425,-0.425 0,-0.2346 -0.1904,-0.425 -0.425,-0.425 z m 1.7,0 c -0.2346,0 -0.425,0.1904 -0.425,0.425 0,0.2346 0.1904,0.425 0.425,0.425 0.2346,0 0.425,-0.1904 0.425,-0.425 0,-0.2346 -0.1904,-0.425 -0.425,-0.425 z m 1.7,0 c -0.2346,0 -0.425,0.1904 -0.425,0.425 0,0.2346 0.1904,0.425 0.425,0.425 0.2346,0 0.425,-0.1904 0.425,-0.425 0,-0.2346 -0.1904,-0.425 -0.425,-0.425 z m -5.95,0.85 c -0.2346,0 -0.425,0.1904 -0.425,0.425 0,0.2346 0.1904,0.425 0.425,0.425 0.2346,0 0.425,-0.1904 0.425,-0.425 0,-0.2346 -0.1904,-0.425 -0.425,-0.425 z m 1.7,0 c -0.2346,0 -0.425,0.1904 -0.425,0.425 0,0.2346 0.1904,0.425 0.425,0.425 0.2346,0 0.425,-0.1904 0.425,-0.425 0,-0.2346 -0.1904,-0.425 -0.425,-0.425 z m 1.7,0 c -0.2346,0 -0.425,0.1904 -0.425,0.425 0,0.2346 0.1904,0.425 0.425,0.425 0.2346,0 0.425,-0.1904 0.425,-0.425 0,-0.2346 -0.1904,-0.425 -0.425,-0.425 z m 1.7,0 c -0.2346,0 -0.425,0.1904 -0.425,0.425 0,0.2346 0.1904,0.425 0.425,0.425 0.2346,0 0.425,-0.1904 0.425,-0.425 0,-0.2346 -0.1904,-0.425 -0.425,-0.425 z m 1.7,0 c -0.2346,0 -0.425,0.1904 -0.425,0.425 0,0.2346 0.1904,0.425 0.425,0.425 0.2346,0 0.425,-0.1904 0.425,-0.425 0,-0.2346 -0.1904,-0.425 -0.425,-0.425 z m -5.95,0.85 c -0.2346,0 -0.425,0.1904 -0.425,0.425 0,0.2346 0.1904,0.4250002 0.425,0.4250002 0.2346,0 0.425,-0.1904002 0.425,-0.4250002 0,-0.2346 -0.1904,-0.425 -0.425,-0.425 z m 1.7,0 c -0.2346,0 -0.425,0.1904 -0.425,0.425 0,0.2346 0.1904,0.4250002 0.425,0.4250002 0.2346,0 0.425,-0.1904002 0.425,-0.4250002 0,-0.2346 -0.1904,-0.425 -0.425,-0.425 z m 1.7,0 c -0.2346,0 -0.425,0.1904 -0.425,0.425 0,0.2346 0.1904,0.4250002 0.425,0.4250002 0.2346,0 0.425,-0.1904002 0.425,-0.4250002 0,-0.2346 -0.1904,-0.425 -0.425,-0.425 z m 1.7,0 c -0.2346,0 -0.425,0.1904 -0.425,0.425 0,0.2346 0.1904,0.4250002 0.425,0.4250002 0.2346,0 0.425,-0.1904002 0.425,-0.4250002 0,-0.2346 -0.1904,-0.425 -0.425,-0.425 z M 13.1,10.049999 c -0.2346,0 -0.425,0.1904 -0.425,0.425 0,0.2346 0.1904,0.425 0.425,0.425 0.2346,0 0.425,-0.1904 0.425,-0.425 0,-0.2346 -0.1904,-0.425 -0.425,-0.425 z m 1.7,0 c -0.2346,0 -0.425,0.1904 -0.425,0.425 0,0.2346 0.1904,0.425 0.425,0.425 0.2346,0 0.425,-0.1904 0.425,-0.425 0,-0.2346 -0.1904,-0.425 -0.425,-0.425 z m 1.7,0 c -0.2346,0 -0.425,0.1904 -0.425,0.425 0,0.2346 0.1904,0.425 0.425,0.425 0.2346,0 0.425,-0.1904 0.425,-0.425 0,-0.2346 -0.1904,-0.425 -0.425,-0.425 z m 1.7,0 c -0.2346,0 -0.425,0.1904 -0.425,0.425 0,0.2346 0.1904,0.425 0.425,0.425 0.2346,0 0.425,-0.1904 0.425,-0.425 0,-0.2346 -0.1904,-0.425 -0.425,-0.425 z m 1.7,0 c -0.2346,0 -0.425,0.1904 -0.425,0.425 0,0.2346 0.1904,0.425 0.425,0.425 0.2346,0 0.425,-0.1904 0.425,-0.425 0,-0.2346 -0.1904,-0.425 -0.425,-0.425 z m -5.95,0.85 c -0.2346,0 -0.425,0.1904 -0.425,0.425 0,0.2346 0.1904,0.425 0.425,0.425 0.2346,0 0.425,-0.1904 0.425,-0.425 0,-0.2346 -0.1904,-0.425 -0.425,-0.425 z m 1.7,0 c -0.2346,0 -0.425,0.1904 -0.425,0.425 0,0.2346 0.1904,0.425 0.425,0.425 0.2346,0 0.425,-0.1904 0.425,-0.425 0,-0.2346 -0.1904,-0.425 -0.425,-0.425 z m 1.7,0 c -0.2346,0 -0.425,0.1904 -0.425,0.425 0,0.2346 0.1904,0.425 0.425,0.425 0.2346,0 0.425,-0.1904 0.425,-0.425 0,-0.2346 -0.1904,-0.425 -0.425,-0.425 z m 1.7,0 c -0.2346,0 -0.425,0.1904 -0.425,0.425 0,0.2346 0.1904,0.425 0.425,0.425 0.2346,0 0.425,-0.1904 0.425,-0.425 0,-0.2346 -0.1904,-0.425 -0.425,-0.425 z"
     style="display:inline;opacity:0.3;fill:#000000;fill-opacity:1;stroke:none;stroke-width:1;stroke-miterlimit:4;stroke-dasharray:none" />
  <path
     inkscape:connector-curvature="0"
     id="rect9419"
     d="m 12.25,11.344217 h 8.5 v 2.55 h -8.5 z"
     style="color:#000000;display:inline;overflow:visible;visibility:visible;fill:url(#linearGradient9423);fill-opacity:1;fill-rule:nonzero;stroke:#000000;stroke-width:1;stroke-miterlimit:4;stroke-dasharray:none;stroke-opacity:0.25098039;marker:none;enable-background:accumulate" />
  <path
     inkscape:connector-curvature="0"
     style="display:inline;opacity:0.4;fill:none;stroke:url(#linearGradient9425);stroke-width:1;stroke-linecap:round;stroke-linejoin:miter;stroke-miterlimit:4;stroke-dasharray:none;stroke-dashoffset:0;stroke-opacity:1;enable-background:new"
     d="m 13.1,12.174999 h 6.8 v 0.85 h -6.8 z"
     id="path9421" />
  <rect
     y="12.599998"
     x="9.2749996"
     height="1.7"
     width="0.85000002"
     id="rect9388"
     style="display:inline;opacity:0.4;fill:#000000;fill-opacity:1;stroke:none;stroke-width:1;stroke-linecap:round;stroke-linejoin:round;stroke-miterlimit:4;stroke-dasharray:none;stroke-dashoffset:0;stroke-opacity:1;enable-background:new" />
  <rect
     style="display:inline;opacity:0.4;fill:#000000;fill-opacity:1;stroke:none;stroke-width:1;stroke-linecap:round;stroke-linejoin:round;stroke-miterlimit:4;stroke-dasharray:none;stroke-dashoffset:0;stroke-opacity:1;enable-background:new"
     id="rect9390"
     width="0.85000002"
     height="1.7"
     x="22.875"
     y="12.599998" />
  <path
     inkscape:connector-curvature="0"
     style="opacity:1;fill:none;fill-opacity:1;stroke:#ffffff;stroke-width:1;stroke-linecap:round;stroke-linejoin:round;stroke-miterlimit:4;stroke-dasharray:none;stroke-dashoffset:0;stroke-opacity:0.49803922"
     d="m 23.299957,15.657075 c 0,2.400077 -1.296063,4.617846 -3.399983,5.817884 -2.103913,1.200039 -4.69604,1.200039 -6.799953,0 -2.103916,-1.200038 -3.3999802,-3.417807 -3.3999785,-5.817884"
     id="path9499" />
  <path
     inkscape:connector-curvature="0"
     style="display:inline;opacity:0.6;fill:none;stroke:url(#linearGradient9503-8);stroke-width:1;stroke-linecap:round;stroke-linejoin:round;stroke-miterlimit:4;stroke-dasharray:none;stroke-dashoffset:0;stroke-opacity:1"
     id="path9501"
     d="m 16.474973,24.80638 c -1.674642,0 -3.187278,0.234052 -4.23895,0.589316 -1.051674,0.355262 -1.577854,0.80018 -1.577854,1.213105 0,0.412925 0.52618,0.857843 1.577854,1.213106 1.051672,0.355263 2.564308,0.589316 4.23895,0.589316 1.674642,0 3.187279,-0.234053 4.238952,-0.589316 1.051673,-0.355263 1.577853,-0.800181 1.577853,-1.213106 0,-0.412925 -0.52618,-0.857843 -1.577853,-1.213105 -1.051673,-0.355264 -2.56431,-0.589316 -4.238952,-0.589316 z" />
</svg>
