<?xml version="1.0" encoding="UTF-8" standalone="no"?>
<svg
   xmlns:dc="http://purl.org/dc/elements/1.1/"
   xmlns:cc="http://creativecommons.org/ns#"
   xmlns:rdf="http://www.w3.org/1999/02/22-rdf-syntax-ns#"
   xmlns:svg="http://www.w3.org/2000/svg"
   xmlns="http://www.w3.org/2000/svg"
   xmlns:xlink="http://www.w3.org/1999/xlink"
   xmlns:sodipodi="http://sodipodi.sourceforge.net/DTD/sodipodi-0.dtd"
   xmlns:inkscape="http://www.inkscape.org/namespaces/inkscape"
   width="32"
   height="32"
   id="svg3850"
   version="1.1"
   sodipodi:docname="object-merge.svg"
   inkscape:version="0.92.4 (5da689c313, 2019-01-14)">
  <sodipodi:namedview
     pagecolor="#ffffff"
     bordercolor="#666666"
     borderopacity="1"
     objecttolerance="10"
     gridtolerance="10"
     guidetolerance="10"
     inkscape:pageopacity="0"
     inkscape:pageshadow="2"
     inkscape:window-width="2880"
     inkscape:window-height="1706"
     id="namedview13"
     showgrid="false"
     inkscape:zoom="27.812867"
     inkscape:cx="0.088721708"
     inkscape:cy="17.765372"
     inkscape:window-x="-11"
     inkscape:window-y="-11"
     inkscape:window-maximized="1"
     inkscape:current-layer="svg3850" />
  <defs
     id="defs3852">
    <linearGradient
       id="linearGradient4715">
      <stop
         style="stop-color:#555555;stop-opacity:1;"
         offset="0"
         id="stop4717" />
      <stop
         style="stop-color:#666666;stop-opacity:1;"
         offset="1"
         id="stop4719" />
    </linearGradient>
    <linearGradient
       xlink:href="#linearGradient4715"
       id="linearGradient4728"
       gradientUnits="userSpaceOnUse"
       x1="8"
       y1="19.5"
       x2="8"
       y2="-2.5"
       gradientTransform="matrix(1.19,0,0,1.19,6.48,7.5776259)" />
  </defs>
  <metadata
     id="metadata3855">
    <rdf:RDF>
      <cc:Work
         rdf:about="">
        <dc:format>image/svg+xml</dc:format>
        <dc:type
           rdf:resource="http://purl.org/dc/dcmitype/StillImage" />
        <dc:title />
      </cc:Work>
    </rdf:RDF>
  </metadata>
  <path
     inkscape:connector-curvature="0"
     id="path2843-39-5-5"
     d="m 16,6.4991884 -0.483437,0.74375 -4.76,7.1399996 -0.632188,0.929688 H 11.24 14.215 v 2.975 c 0,0 -0.01285,1.050296 -0.632188,2.0825 -0.317593,0.529323 -0.74567,1.068061 -1.450312,1.450312 -0.711275,0.385851 -1.724086,0.632188 -3.2725,0.632188 H 6.48 5.885 v 0.595 2.38 0.595 H 6.48 8.86 c 3.599583,0 5.80422,-1.553289 7.102812,-3.235313 H 16 16.03719 c 1.298592,1.682024 3.503229,3.235313 7.102812,3.235313 h 2.38 0.595 v -0.595 -2.38 -0.595 H 25.52 23.14 c -1.548415,0 -2.561225,-0.246337 -3.2725,-0.632188 H 19.83031 C 19.141763,21.438997 18.730708,20.892662 18.417187,20.370126 17.797865,19.337917 17.785,18.287626 17.785,18.287626 v -2.975 h 2.975 1.115625 L 21.243438,14.382938 16.483437,7.2429384 Z"
     style="color:#bebebe;display:inline;overflow:visible;visibility:visible;fill:url(#linearGradient4728);fill-opacity:1;fill-rule:nonzero;stroke:none;stroke-width:1;stroke-miterlimit:4;stroke-dasharray:none;marker:none;enable-background:accumulate" />
  <path
     inkscape:connector-curvature="0"
     style="color:#bebebe;display:inline;overflow:visible;visibility:visible;opacity:0.61000001;fill:none;stroke:#000000;stroke-width:1;stroke-miterlimit:4;stroke-dasharray:none;stroke-opacity:1;marker:none;enable-background:accumulate"
     d="m 16,6.4991884 -0.483437,0.74375 -4.76,7.1399996 -0.632188,0.929688 H 11.24 14.215 v 2.975 c 0,0 -0.01285,1.050296 -0.632188,2.0825 -0.317593,0.529323 -0.74567,1.068061 -1.450312,1.450312 -0.711275,0.385851 -1.724086,0.632188 -3.2725,0.632188 H 6.48 5.885 v 0.595 2.38 0.595 H 6.48 8.86 c 3.599583,0 5.80422,-1.553289 7.102812,-3.235313 H 16 16.03719 c 1.298592,1.682024 3.503229,3.235313 7.102812,3.235313 h 2.38 0.595 v -0.595 -2.38 -0.595 H 25.52 23.14 c -1.548415,0 -2.561225,-0.246337 -3.2725,-0.632188 H 19.83031 C 19.141763,21.438997 18.730708,20.892662 18.417187,20.370126 17.797865,19.337917 17.785,18.287626 17.785,18.287626 v -2.975 h 2.975 1.115625 L 21.243438,14.382938 16.483437,7.2429384 Z"
     id="path4737" />
  <path
     inkscape:connector-curvature="0"
     id="path4739"
     d="m 16,7.5776259 -4.76,7.1400001 h 0.780938 L 16,8.7676259 19.979063,14.717626 H 20.76 Z M 14.81,18.287626 c 0,0 0.0025,1.198219 -0.706563,2.38 -0.347313,0.578858 -0.851612,1.227616 -1.673437,1.673437 -0.826068,0.448124 -1.95848,0.706563 -3.57,0.706563 H 6.48 v 1.19 h 2.38 c 1.61152,0 2.743932,-0.258439 3.57,-0.706563 0.821825,-0.445821 1.326124,-1.094579 1.673438,-1.673437 0.709061,-1.181781 0.706562,-2.38 0.706562,-2.38 z m 2.38,0 v 1.19 c 0,0 -0.0025,1.198218 0.706563,2.38 0.337429,0.562385 0.824842,1.223935 1.63625,1.673437 H 19.57 l 0.111563,0.07437 h 0.14875 0.03719 c 0.802946,0.380387 1.796605,0.632188 3.2725,0.632188 h 2.38 v -1.19 h -2.38 c -1.475895,0 -2.469554,-0.251801 -3.2725,-0.632188 h -0.03719 -0.14875 L 19.57,22.341063 h -0.03719 c -0.811408,-0.449502 -1.298821,-1.111052 -1.63625,-1.673437 -0.709062,-1.181782 -0.706563,-2.38 -0.706563,-2.38 z"
     style="color:#bebebe;display:inline;overflow:visible;visibility:visible;opacity:0.3;fill:#ffffff;fill-opacity:1;fill-rule:nonzero;stroke:none;stroke-width:1;stroke-miterlimit:4;stroke-dasharray:none;marker:none;enable-background:accumulate" />
</svg>
