<?xml version="1.0" encoding="UTF-8" standalone="no"?>
<svg
   xmlns:dc="http://purl.org/dc/elements/1.1/"
   xmlns:cc="http://creativecommons.org/ns#"
   xmlns:rdf="http://www.w3.org/1999/02/22-rdf-syntax-ns#"
   xmlns:svg="http://www.w3.org/2000/svg"
   xmlns="http://www.w3.org/2000/svg"
   xmlns:xlink="http://www.w3.org/1999/xlink"
   xmlns:sodipodi="http://sodipodi.sourceforge.net/DTD/sodipodi-0.dtd"
   xmlns:inkscape="http://www.inkscape.org/namespaces/inkscape"
   version="1.0"
   width="32"
   height="32"
   id="svg2526"
   inkscape:version="0.92.4 (5da689c313, 2019-01-14)"
   sodipodi:docname="onscreen-keyboard.svg">
  <sodipodi:namedview
     pagecolor="#ffffff"
     bordercolor="#666666"
     borderopacity="1"
     objecttolerance="10"
     gridtolerance="10"
     guidetolerance="10"
     inkscape:pageopacity="0"
     inkscape:pageshadow="2"
     inkscape:window-width="2880"
     inkscape:window-height="1706"
     id="namedview43"
     showgrid="true"
     inkscape:zoom="11.313708"
     inkscape:cx="-0.23072781"
     inkscape:cy="26.35223"
     inkscape:window-x="-11"
     inkscape:window-y="-11"
     inkscape:window-maximized="1"
     inkscape:current-layer="svg2526" />
  <metadata
     id="metadata58">
    <rdf:RDF>
      <cc:Work
         rdf:about="">
        <dc:format>image/svg+xml</dc:format>
        <dc:type
           rdf:resource="http://purl.org/dc/dcmitype/StillImage" />
        <dc:title />
      </cc:Work>
    </rdf:RDF>
  </metadata>
  <defs
     id="defs2528">
    <linearGradient
       id="linearGradient5060">
      <stop
         id="stop5062"
         style="stop-color:#000000;stop-opacity:1"
         offset="0" />
      <stop
         id="stop5064"
         style="stop-color:#000000;stop-opacity:0"
         offset="1" />
    </linearGradient>
    <linearGradient
       id="linearGradient5048">
      <stop
         id="stop5050"
         style="stop-color:#000000;stop-opacity:0"
         offset="0" />
      <stop
         id="stop5056"
         style="stop-color:#000000;stop-opacity:1"
         offset="0.5" />
      <stop
         id="stop5052"
         style="stop-color:#000000;stop-opacity:0"
         offset="1" />
    </linearGradient>
    <linearGradient
       x1="302.85715"
       y1="366.64789"
       x2="302.85715"
       y2="609.50507"
       id="linearGradient3188"
       xlink:href="#linearGradient5048"
       gradientUnits="userSpaceOnUse"
       gradientTransform="matrix(0.08139144,0,0,0.01235294,-6.1669741,38.470822)" />
    <radialGradient
       cx="605.71429"
       cy="486.64789"
       r="117.14286"
       fx="605.71429"
       fy="486.64789"
       id="radialGradient3190"
       xlink:href="#linearGradient5060"
       gradientUnits="userSpaceOnUse"
       gradientTransform="matrix(-0.0289166,0,0,0.01235294,21.026894,38.470848)" />
    <radialGradient
       cx="605.71429"
       cy="486.64789"
       r="117.14286"
       fx="605.71429"
       fy="486.64789"
       id="radialGradient3192"
       xlink:href="#linearGradient5060"
       gradientUnits="userSpaceOnUse"
       gradientTransform="matrix(0.02891661,0,0,0.01235294,25.473313,38.470848)" />
    <linearGradient
       id="linearGradient3462">
      <stop
         id="stop3464"
         style="stop-color:#ffffff;stop-opacity:1"
         offset="0" />
      <stop
         id="stop3466"
         style="stop-color:#ffffff;stop-opacity:0.23529412"
         offset="0.03457849" />
      <stop
         id="stop3468"
         style="stop-color:#ffffff;stop-opacity:0.15686275"
         offset="0.96375686" />
      <stop
         id="stop3470"
         style="stop-color:#ffffff;stop-opacity:0.39215687"
         offset="1" />
    </linearGradient>
    <linearGradient
       x1="40.290417"
       y1="5.4143372"
       x2="40.290417"
       y2="42.437775"
       id="linearGradient3217"
       xlink:href="#linearGradient3462"
       gradientUnits="userSpaceOnUse"
       gradientTransform="matrix(0.64324325,0,0,0.52837838,1.0621585,4.3939199)" />
    <radialGradient
       cx="7.1183534"
       cy="9.9571075"
       r="12.671875"
       fx="7.1183534"
       fy="9.9571075"
       id="radialGradient3220"
       xlink:href="#linearGradient2867-449-88-871-390-598-476-591-434-148-57-177-8-3-3-6-4-8-8-8-5"
       gradientUnits="userSpaceOnUse"
       gradientTransform="matrix(0,4.9802616,-7.3370048,0,90.098737,-38.985516)" />
    <linearGradient
       id="linearGradient3680-6-6-6-3-7-4">
      <stop
         id="stop3682-4-6-1-3-7-0"
         style="stop-color:#dcdcdc;stop-opacity:1"
         offset="0" />
      <stop
         id="stop3684-8-5-8-0-2-5"
         style="stop-color:#ffffff;stop-opacity:1"
         offset="1" />
    </linearGradient>
    <linearGradient
       id="linearGradient2867-449-88-871-390-598-476-591-434-148-57-177-8-3-3-6-4-8-8-8-5">
      <stop
         id="stop3750-1-0-7-6-6-1-3-9-3"
         style="stop-color:#919caf;stop-opacity:1;"
         offset="0" />
      <stop
         id="stop3752-3-7-4-0-32-8-923-0-7"
         style="stop-color:#68758e;stop-opacity:1;"
         offset="0.26238" />
      <stop
         id="stop3754-1-8-5-2-7-6-7-1-9"
         style="stop-color:#485a6c;stop-opacity:1;"
         offset="0.704952" />
      <stop
         id="stop3756-1-6-2-6-6-1-96-6-0"
         style="stop-color:#444c5c;stop-opacity:1;"
         offset="1" />
    </linearGradient>
    <linearGradient
       xlink:href="#linearGradient3680-6-6-6-3-7-4"
       id="linearGradient4565"
       gradientUnits="userSpaceOnUse"
       gradientTransform="matrix(0.6374999,0,0,0.42500014,-19.613084,6.4499948)"
       x1="59.485085"
       y1="35"
       x2="59.485085"
       y2="-0.99998766" />
    <linearGradient
       xlink:href="#linearGradient3680-6-6-6-3-7-4"
       id="linearGradient4176"
       gradientUnits="userSpaceOnUse"
       gradientTransform="matrix(0.6374999,0,0,0.42500014,-19.613084,7.2999948)"
       x1="59.485085"
       y1="35"
       x2="59.485085"
       y2="-0.99998766" />
  </defs>
  <g
     transform="matrix(0.56666032,0,0,1.1333333,3.3251519,-23.158332)"
     id="g3257"
     style="opacity:0.4;stroke-width:1.2478425;stroke-miterlimit:4;stroke-dasharray:none">
    <rect
       width="39.300442"
       height="2.9999998"
       x="3.5999999"
       y="43"
       id="rect2879"
       style="display:inline;overflow:visible;visibility:visible;fill:url(#linearGradient3188);fill-opacity:1;fill-rule:nonzero;stroke:none;stroke-width:1.2478425;marker:none;stroke-miterlimit:4;stroke-dasharray:none" />
    <path
       d="m 3.6,43.00013 c 0,0 0,2.999835 0,2.999835 C 2.1108662,46.005612 0,45.327854 0,44.499854 0,43.671856 1.6617608,43.000131 3.6,43.00013 Z"
       id="path2881"
       style="display:inline;overflow:visible;visibility:visible;fill:url(#radialGradient3190);fill-opacity:1;fill-rule:nonzero;stroke:none;stroke-width:1.2478425;marker:none;stroke-miterlimit:4;stroke-dasharray:none"
       inkscape:connector-curvature="0" />
    <path
       d="m 42.900212,43.00013 c 0,0 0,2.999835 0,2.999835 1.489133,0.0056 3.6,-0.672111 3.6,-1.500111 0,-0.827998 -1.661761,-1.499723 -3.6,-1.499724 z"
       id="path2883"
       style="display:inline;overflow:visible;visibility:visible;fill:url(#radialGradient3192);fill-opacity:1;fill-rule:nonzero;stroke:none;stroke-width:1.2478425;marker:none;stroke-miterlimit:4;stroke-dasharray:none"
       inkscape:connector-curvature="0" />
  </g>
  <rect
     width="25.5"
     height="21.25"
     rx="0.8644067"
     ry="0.90425533"
     x="3.7499969"
     y="6.4499989"
     id="rect5505-21-3-8-5-2"
     style="color:#000000;display:inline;overflow:visible;visibility:visible;opacity:1;fill:url(#radialGradient3220);fill-opacity:1;fill-rule:nonzero;stroke:none;stroke-width:1;marker:none;enable-background:accumulate;stroke-miterlimit:4;stroke-dasharray:none" />
  <path
     style="color:#000000;display:inline;overflow:visible;visibility:visible;opacity:0.01050002;fill:#000000;fill-opacity:1;fill-rule:nonzero;stroke:#000000;stroke-width:1;stroke-linejoin:round;stroke-miterlimit:4;stroke-dasharray:none;stroke-opacity:1;marker:none;enable-background:accumulate"
     d="m 8.4249995,13.675 v 1.7 H 10.975 v -1.7 z m 3.4000005,0 v 1.7 h 2.55 v -1.7 z m 3.4,0 v 1.7 h 2.55 v -1.7 z m 3.4,0 v 1.7 h 2.55 v -1.7 z m 3.4,0 v 1.7 h 2.55 v -1.7 z m -13.6000005,2.55 v 1.7 H 10.975 v -1.7 z m 3.4000005,0 v 1.7 h 2.55 v -1.7 z m 3.4,0 v 1.7 h 2.55 v -1.7 z m 3.4,0 v 1.7 h 2.55 v -1.7 z m 3.4,0 v 1.7 h 2.55 v -1.7 z m -13.6000005,2.55 v 1.7 H 10.975 v -1.7 z m 3.4000005,0 v 1.7 h 2.55 v -1.7 z m 3.4,0 v 1.7 h 2.55 v -1.7 z m 3.4,0 v 1.7 h 2.55 v -1.7 z m 3.4,0 v 1.7 h 2.55 v -1.7 z m -10.2,2.55 v 1.7 h 9.35 v -1.7 z"
     id="path3372"
     inkscape:connector-curvature="0" />
  <path
     style="color:#000000;display:inline;overflow:visible;visibility:visible;opacity:0.07000002;fill:url(#linearGradient4176);fill-opacity:1;fill-rule:nonzero;stroke:#000000;stroke-width:1;stroke-linejoin:round;stroke-miterlimit:4;stroke-dasharray:none;stroke-opacity:1;marker:none;enable-background:accumulate"
     d="m 8.4249995,12.825 v 1.7 H 10.975 v -1.7 z m 3.4000005,0 v 1.7 h 2.55 v -1.7 z m 3.4,0 v 1.7 h 2.55 v -1.7 z m 3.4,0 v 1.7 h 2.55 v -1.7 z m 3.4,0 v 1.7 h 2.55 v -1.7 z m -13.6000005,2.55 v 1.7 H 10.975 v -1.7 z m 3.4000005,0 v 1.7 h 2.55 v -1.7 z m 3.4,0 v 1.7 h 2.55 v -1.7 z m 3.4,0 v 1.7 h 2.55 v -1.7 z m 3.4,0 v 1.7 h 2.55 v -1.7 z m -13.6000005,2.55 v 1.7 H 10.975 v -1.7 z m 3.4000005,0 v 1.7 h 2.55 v -1.7 z m 3.4,0 v 1.7 h 2.55 v -1.7 z m 3.4,0 v 1.7 h 2.55 v -1.7 z m 3.4,0 v 1.7 h 2.55 v -1.7 z m -10.2,2.55 v 1.7 h 9.35 v -1.7 z"
     id="path3374"
     inkscape:connector-curvature="0" />
  <rect
     width="23.799999"
     height="19.549999"
     x="4.5999994"
     y="7.2999997"
     id="rect6741-5-0-2-3"
     style="opacity:0.3;fill:none;stroke:url(#linearGradient3217);stroke-width:1;stroke-linecap:round;stroke-linejoin:round;stroke-miterlimit:4;stroke-dasharray:none;stroke-dashoffset:0;stroke-opacity:1" />
  <rect
     width="25.5"
     height="21.249998"
     rx="0.8644067"
     ry="0.90425521"
     x="3.7499969"
     y="6.4499993"
     id="rect5505-21-3-8-9-1-1"
     style="color:#000000;display:inline;overflow:visible;visibility:visible;opacity:0.5;fill:none;stroke:#1c2c38;stroke-width:1;stroke-linecap:round;stroke-linejoin:round;stroke-miterlimit:4;stroke-dasharray:none;stroke-dashoffset:0;stroke-opacity:1;marker:none;enable-background:accumulate" />
  <path
     id="path4239-5"
     d="m 8.4249995,12.825 v 1.7 H 10.975 v -1.7 z m 3.4000005,0 v 1.7 h 2.55 v -1.7 z m 3.4,0 v 1.7 h 2.55 v -1.7 z m 3.4,0 v 1.7 h 2.55 v -1.7 z m 3.4,0 v 1.7 h 2.55 v -1.7 z m -13.6000005,2.55 v 1.7 H 10.975 v -1.7 z m 3.4000005,0 v 1.7 h 2.55 v -1.7 z m 3.4,0 v 1.7 h 2.55 v -1.7 z m 3.4,0 v 1.7 h 2.55 v -1.7 z m 3.4,0 v 1.7 h 2.55 v -1.7 z m -13.6000005,2.55 v 1.7 H 10.975 v -1.7 z m 3.4000005,0 v 1.7 h 2.55 v -1.7 z m 3.4,0 v 1.7 h 2.55 v -1.7 z m 3.4,0 v 1.7 h 2.55 v -1.7 z m 3.4,0 v 1.7 h 2.55 v -1.7 z m -10.2,2.55 v 1.7 h 9.35 v -1.7 z"
     style="color:#000000;display:inline;overflow:visible;visibility:visible;opacity:0.15;fill:#000000;fill-opacity:1;fill-rule:nonzero;stroke:none;stroke-width:1;marker:none;enable-background:accumulate;stroke-miterlimit:4;stroke-dasharray:none"
     inkscape:connector-curvature="0" />
  <path
     id="path4239"
     d="m 8.4249995,11.975 v 1.7 H 10.975 v -1.7 z m 3.4000005,0 v 1.7 h 2.55 v -1.7 z m 3.4,0 v 1.7 h 2.55 v -1.7 z m 3.4,0 v 1.7 h 2.55 v -1.7 z m 3.4,0 v 1.7 h 2.55 v -1.7 z m -13.6000005,2.55 v 1.7 H 10.975 v -1.7 z m 3.4000005,0 v 1.7 h 2.55 v -1.7 z m 3.4,0 v 1.7 h 2.55 v -1.7 z m 3.4,0 v 1.7 h 2.55 v -1.7 z m 3.4,0 v 1.7 h 2.55 v -1.7 z m -13.6000005,2.55 v 1.7 H 10.975 v -1.7 z m 3.4000005,0 v 1.7 h 2.55 v -1.7 z m 3.4,0 v 1.7 h 2.55 v -1.7 z m 3.4,0 v 1.7 h 2.55 v -1.7 z m 3.4,0 v 1.7 h 2.55 v -1.7 z m -10.2,2.55 v 1.7 h 9.35 v -1.7 z"
     style="color:#000000;display:inline;overflow:visible;visibility:visible;fill:url(#linearGradient4565);fill-opacity:1;fill-rule:nonzero;stroke:none;stroke-width:1;marker:none;enable-background:accumulate;stroke-miterlimit:4;stroke-dasharray:none"
     inkscape:connector-curvature="0" />
</svg>
