<?xml version="1.0" encoding="UTF-8" standalone="no"?>
<svg
   xmlns:dc="http://purl.org/dc/elements/1.1/"
   xmlns:cc="http://creativecommons.org/ns#"
   xmlns:rdf="http://www.w3.org/1999/02/22-rdf-syntax-ns#"
   xmlns:svg="http://www.w3.org/2000/svg"
   xmlns="http://www.w3.org/2000/svg"
   xmlns:xlink="http://www.w3.org/1999/xlink"
   xmlns:sodipodi="http://sodipodi.sourceforge.net/DTD/sodipodi-0.dtd"
   xmlns:inkscape="http://www.inkscape.org/namespaces/inkscape"
   version="1.1"
   width="32"
   height="32"
   id="svg7435"
   sodipodi:docname="path-exclusion.svg"
   inkscape:version="0.92.4 (5da689c313, 2019-01-14)">
  <sodipodi:namedview
     pagecolor="#ffffff"
     bordercolor="#666666"
     borderopacity="1"
     objecttolerance="10"
     gridtolerance="10"
     guidetolerance="10"
     inkscape:pageopacity="0"
     inkscape:pageshadow="2"
     inkscape:window-width="2880"
     inkscape:window-height="1706"
     id="namedview40"
     showgrid="false"
     inkscape:zoom="9.8333333"
     inkscape:cx="-23.389831"
     inkscape:cy="12"
     inkscape:window-x="-11"
     inkscape:window-y="-11"
     inkscape:window-maximized="1"
     inkscape:current-layer="svg7435" />
  <defs
     id="defs7437">
    <linearGradient
       id="linearGradient939">
      <stop
         id="stop931"
         style="stop-color:#ffffff;stop-opacity:1"
         offset="0" />
      <stop
         id="stop933"
         style="stop-color:#ffffff;stop-opacity:0.23529412"
         offset="0" />
      <stop
         id="stop935"
         style="stop-color:#ffffff;stop-opacity:0.15686275"
         offset="1" />
      <stop
         id="stop937"
         style="stop-color:#ffffff;stop-opacity:0.39215687"
         offset="1" />
    </linearGradient>
    <linearGradient
       id="linearGradient1847">
      <stop
         id="stop1839"
         style="stop-color:#ffffff;stop-opacity:1"
         offset="0" />
      <stop
         id="stop1841"
         style="stop-color:#ffffff;stop-opacity:0.23529412"
         offset="0.49999997" />
      <stop
         id="stop1843"
         style="stop-color:#ffffff;stop-opacity:0.15686275"
         offset="0.74999994" />
      <stop
         id="stop1845"
         style="stop-color:#ffffff;stop-opacity:0.39215687"
         offset="1" />
    </linearGradient>
    <linearGradient
       xlink:href="#linearGradient1847"
       id="linearGradient1697-2"
       gradientUnits="userSpaceOnUse"
       gradientTransform="matrix(0.34510516,0,0,0.34510479,2.2538699,39.772521)"
       x1="51.798126"
       y1="-99.267654"
       x2="51.798126"
       y2="-60.844543" />
    <linearGradient
       xlink:href="#linearGradient939"
       id="linearGradient1693-4"
       gradientUnits="userSpaceOnUse"
       gradientTransform="matrix(0.35837839,0,0,0.35837839,3.5314184,10.726201)"
       x1="23.99999"
       y1="7.0416536"
       x2="23.99999"
       y2="40.958321" />
    <linearGradient
       gradientTransform="matrix(0.0274616,0,0,0.00910001,2.2071134,23.173282)"
       gradientUnits="userSpaceOnUse"
       xlink:href="#linearGradient5048"
       id="linearGradient3027"
       y2="609.50507"
       x2="302.85715"
       y1="366.64789"
       x1="302.85715" />
    <linearGradient
       id="linearGradient5048">
      <stop
         offset="0"
         style="stop-color:#000000;stop-opacity:0"
         id="stop5050" />
      <stop
         offset="0.5"
         style="stop-color:#000000;stop-opacity:1"
         id="stop5056" />
      <stop
         offset="1"
         style="stop-color:#000000;stop-opacity:0"
         id="stop5052" />
    </linearGradient>
    <radialGradient
       gradientTransform="matrix(-0.01331369,0,0,0.00910001,13.526133,23.173301)"
       gradientUnits="userSpaceOnUse"
       xlink:href="#linearGradient5060"
       id="radialGradient3024"
       fy="486.64789"
       fx="605.71429"
       r="117.14286"
       cy="486.64789"
       cx="605.71429" />
    <linearGradient
       id="linearGradient5060">
      <stop
         offset="0"
         style="stop-color:#000000;stop-opacity:1"
         id="stop5062" />
      <stop
         offset="1"
         style="stop-color:#000000;stop-opacity:0"
         id="stop5064" />
    </linearGradient>
    <radialGradient
       gradientTransform="matrix(0.01331369,0,0,0.00910001,10.738866,23.173301)"
       gradientUnits="userSpaceOnUse"
       xlink:href="#linearGradient5060"
       id="radialGradient3021"
       fy="486.64789"
       fx="605.71429"
       r="117.14286"
       cy="486.64789"
       cx="605.71429" />
    <linearGradient
       id="linearGradient870">
      <stop
         style="stop-color:#43d6b5;stop-opacity:1"
         offset="0"
         id="stop866" />
      <stop
         style="stop-color:#22cc93;stop-opacity:1"
         offset="1"
         id="stop868" />
    </linearGradient>
    <linearGradient
       y2="21.282824"
       x2="14.600296"
       y1="-6.9363832"
       x1="14.600296"
       gradientTransform="matrix(0.81421044,0,0,0.81421044,2.3619757,9.5567298)"
       gradientUnits="userSpaceOnUse"
       id="linearGradient1021"
       xlink:href="#linearGradient870" />
  </defs>
  <metadata
     id="metadata7440">
    <rdf:RDF>
      <cc:Work
         rdf:about="">
        <dc:format>image/svg+xml</dc:format>
        <dc:type
           rdf:resource="http://purl.org/dc/dcmitype/StillImage" />
        <dc:title />
      </cc:Work>
    </rdf:RDF>
  </metadata>
  <path
     id="path8335-9-5-5-3"
     d="M 19.571827,4.4140932 A 8.84,8.8390115 0 0 0 10.636865,11.592277 H 18.21 c 0.918255,0 1.6575,0.739245 1.6575,1.6575 v 8.820576 A 8.84,8.8390115 0 0 0 28.155,13.249777 8.84,8.8390115 0 0 0 19.571827,4.4140932 Z"
     style="opacity:0.05;vector-effect:none;fill:#000000;fill-opacity:1;stroke:none;stroke-width:1;stroke-linecap:butt;stroke-linejoin:miter;stroke-miterlimit:4;stroke-dasharray:none;stroke-dashoffset:0;stroke-opacity:1;marker:none"
     inkscape:connector-curvature="0" />
  <path
     id="path8335-9-5-5"
     d="M 19.554561,4.9665932 A 8.2875003,8.2855865 0 0 0 11.19584,11.592277 H 18.21 c 0.918255,0 1.6575,0.739245 1.6575,1.6575 v 8.268076 a 8.2875003,8.2855865 0 0 0 7.735,-8.268076 8.2875003,8.2855865 0 0 0 -8.047939,-8.2831838 z"
     style="opacity:0.07000002;vector-effect:none;fill:#000000;fill-opacity:1;stroke:none;stroke-width:1;stroke-linecap:butt;stroke-linejoin:miter;stroke-miterlimit:4;stroke-dasharray:none;stroke-dashoffset:0;stroke-opacity:1;marker:none"
     inkscape:connector-curvature="0" />
  <path
     id="path8335-9-5"
     d="M 19.554561,3.8615934 A 8.2875003,8.2855865 0 0 0 11.055557,11.592277 H 18.21 c 0.918255,0 1.6575,0.739245 1.6575,1.6575 v 7.160918 a 8.2875003,8.2855865 0 0 0 7.735,-8.265918 8.2875003,8.2855865 0 0 0 -8.047939,-8.2831836 z M 11.055557,11.592277 H 6.0549997 c -0.918255,0 -1.6574999,0.739245 -1.6574999,1.6575 v 12.155 c 0,0.918255 0.7392449,1.6575 1.6574999,1.6575 H 18.21 c 0.918255,0 1.6575,-0.739245 1.6575,-1.6575 v -4.991924 a 8.2875003,8.2855865 0 0 1 -8.84,-8.268076 8.2875003,8.2855865 0 0 1 0.02806,-0.5525 z"
     style="opacity:1;vector-effect:none;fill:url(#linearGradient1021);fill-opacity:1;stroke:none;stroke-width:1;stroke-linecap:butt;stroke-linejoin:miter;stroke-miterlimit:4;stroke-dasharray:none;stroke-dashoffset:0;stroke-opacity:1;marker:none"
     inkscape:connector-curvature="0" />
  <path
     d="m 26.497499,12.142565 a 7.1824997,7.1824929 0 1 1 -14.364999,0 7.1824997,7.1824929 0 1 1 14.364999,0 z"
     id="path8339-9"
     style="opacity:0.5;vector-effect:none;fill:none;fill-opacity:1;stroke:url(#linearGradient1697-2);stroke-width:1;stroke-linecap:round;stroke-linejoin:round;stroke-miterlimit:4;stroke-dasharray:none;stroke-dashoffset:0;stroke-opacity:1"
     inkscape:connector-curvature="0" />
  <rect
     style="display:inline;overflow:visible;visibility:visible;opacity:0.15;fill:url(#linearGradient3027);fill-opacity:1;fill-rule:nonzero;stroke:none;stroke-width:1;stroke-miterlimit:4;stroke-dasharray:none;marker:none"
     id="rect2879"
     y="26.509775"
     x="5.5024986"
     height="2.21"
     width="13.26" />
  <path
     style="display:inline;overflow:visible;visibility:visible;opacity:0.15;fill:url(#radialGradient3024);fill-opacity:1;fill-rule:nonzero;stroke:none;stroke-width:1;stroke-miterlimit:4;stroke-dasharray:none;marker:none"
     id="path2881"
     d="m 5.5024997,26.509871 c 0,0 0,2.209879 0,2.209879 -0.6856225,0.0042 -1.6574999,-0.495122 -1.6574999,-1.105082 0,-0.609959 0.765102,-1.104797 1.6574999,-1.104797 z"
     inkscape:connector-curvature="0" />
  <path
     style="display:inline;overflow:visible;visibility:visible;opacity:0.15;fill:url(#radialGradient3021);fill-opacity:1;fill-rule:nonzero;stroke:none;stroke-width:1;stroke-miterlimit:4;stroke-dasharray:none;marker:none"
     id="path2883"
     d="m 18.7625,26.509871 c 0,0 0,2.209879 0,2.209879 0.685622,0.0042 1.6575,-0.495122 1.6575,-1.105082 0,-0.609959 -0.765105,-1.104797 -1.6575,-1.104797 z"
     inkscape:connector-curvature="0" />
  <rect
     ry="0.82875001"
     rx="0.82875001"
     style="opacity:0.5;fill:none;stroke:url(#linearGradient1693-4);stroke-width:1;stroke-linecap:round;stroke-linejoin:round;stroke-miterlimit:4;stroke-dasharray:none;stroke-dashoffset:0;stroke-opacity:1"
     id="rect6741-9-5-1"
     y="12.697277"
     x="5.5025001"
     height="13.26"
     width="13.26" />
  <path
     d="M 6.0549997,11.592277 H 18.21 c 0.918255,0 1.6575,0.739245 1.6575,1.6575 v 12.155 c 0,0.918255 -0.739245,1.6575 -1.6575,1.6575 H 6.0549997 c -0.918255,0 -1.6574999,-0.739245 -1.6574999,-1.6575 v -12.155 c 0,-0.918255 0.7392449,-1.6575 1.6574999,-1.6575 z M 27.6025,12.144779 a 8.2875003,8.2875023 0 1 1 -16.575,0 8.2875003,8.2875023 0 1 1 16.575,0 z"
     style="color:#000000;display:inline;overflow:visible;visibility:visible;opacity:0.5;vector-effect:none;fill:none;fill-opacity:1;stroke:#105845;stroke-width:1;stroke-linecap:round;stroke-linejoin:round;stroke-miterlimit:4;stroke-dasharray:none;stroke-dashoffset:0;stroke-opacity:1;marker:none;enable-background:accumulate"
     id="rect5505-21-8-1-25-1"
     inkscape:connector-curvature="0" />
</svg>
