<?xml version="1.0" encoding="UTF-8" standalone="no"?>
<svg
   xmlns:dc="http://purl.org/dc/elements/1.1/"
   xmlns:cc="http://creativecommons.org/ns#"
   xmlns:rdf="http://www.w3.org/1999/02/22-rdf-syntax-ns#"
   xmlns:svg="http://www.w3.org/2000/svg"
   xmlns="http://www.w3.org/2000/svg"
   xmlns:xlink="http://www.w3.org/1999/xlink"
   xmlns:sodipodi="http://sodipodi.sourceforge.net/DTD/sodipodi-0.dtd"
   xmlns:inkscape="http://www.inkscape.org/namespaces/inkscape"
   version="1.1"
   width="32"
   height="32"
   id="svg7435"
   sodipodi:docname="path-exclusion.svg"
   inkscape:version="0.92.4 (5da689c313, 2019-01-14)">
  <sodipodi:namedview
     pagecolor="#ffffff"
     bordercolor="#666666"
     borderopacity="1"
     objecttolerance="10"
     gridtolerance="10"
     guidetolerance="10"
     inkscape:pageopacity="0"
     inkscape:pageshadow="2"
     inkscape:window-width="2880"
     inkscape:window-height="1706"
     id="namedview40"
     showgrid="false"
     inkscape:zoom="9.8333333"
     inkscape:cx="-1.0677966"
     inkscape:cy="12"
     inkscape:window-x="-11"
     inkscape:window-y="-11"
     inkscape:window-maximized="1"
     inkscape:current-layer="svg7435" />
  <defs
     id="defs7437">
    <linearGradient
       id="linearGradient939">
      <stop
         id="stop931"
         style="stop-color:#ffffff;stop-opacity:1"
         offset="0" />
      <stop
         id="stop933"
         style="stop-color:#ffffff;stop-opacity:0.23529412"
         offset="0" />
      <stop
         id="stop935"
         style="stop-color:#ffffff;stop-opacity:0.15686275"
         offset="1" />
      <stop
         id="stop937"
         style="stop-color:#ffffff;stop-opacity:0.39215687"
         offset="1" />
    </linearGradient>
    <linearGradient
       id="linearGradient1847">
      <stop
         id="stop1839"
         style="stop-color:#ffffff;stop-opacity:1"
         offset="0" />
      <stop
         id="stop1841"
         style="stop-color:#ffffff;stop-opacity:0.23529412"
         offset="0.49999997" />
      <stop
         id="stop1843"
         style="stop-color:#ffffff;stop-opacity:0.15686275"
         offset="0.74999994" />
      <stop
         id="stop1845"
         style="stop-color:#ffffff;stop-opacity:0.39215687"
         offset="1" />
    </linearGradient>
    <linearGradient
       xlink:href="#linearGradient1847"
       id="linearGradient1697-2"
       gradientUnits="userSpaceOnUse"
       gradientTransform="matrix(0.40600607,0,0,0.40600564,-0.17191773,43.954436)"
       x1="51.798126"
       y1="-99.267654"
       x2="51.798126"
       y2="-60.844543" />
    <linearGradient
       xlink:href="#linearGradient939"
       id="linearGradient1693-4"
       gradientUnits="userSpaceOnUse"
       gradientTransform="matrix(0.42162163,0,0,0.42162163,1.3310805,9.7822948)"
       x1="23.99999"
       y1="7.0416536"
       x2="23.99999"
       y2="40.958321" />
    <linearGradient
       gradientTransform="matrix(0.03230776,0,0,0.01070589,-0.22692543,24.42592)"
       gradientUnits="userSpaceOnUse"
       xlink:href="#linearGradient5048"
       id="linearGradient3027"
       y2="609.50507"
       x2="302.85715"
       y1="366.64789"
       x1="302.85715" />
    <linearGradient
       id="linearGradient5048">
      <stop
         offset="0"
         style="stop-color:#000000;stop-opacity:0"
         id="stop5050" />
      <stop
         offset="0.5"
         style="stop-color:#000000;stop-opacity:1"
         id="stop5056" />
      <stop
         offset="1"
         style="stop-color:#000000;stop-opacity:0"
         id="stop5052" />
    </linearGradient>
    <radialGradient
       gradientTransform="matrix(-0.01566317,0,0,0.01070589,13.089568,24.425942)"
       gradientUnits="userSpaceOnUse"
       xlink:href="#linearGradient5060"
       id="radialGradient3024"
       fy="486.64789"
       fx="605.71429"
       r="117.14286"
       cy="486.64789"
       cx="605.71429" />
    <linearGradient
       id="linearGradient5060">
      <stop
         offset="0"
         style="stop-color:#000000;stop-opacity:1"
         id="stop5062" />
      <stop
         offset="1"
         style="stop-color:#000000;stop-opacity:0"
         id="stop5064" />
    </linearGradient>
    <radialGradient
       gradientTransform="matrix(0.01566317,0,0,0.01070589,9.8104307,24.425942)"
       gradientUnits="userSpaceOnUse"
       xlink:href="#linearGradient5060"
       id="radialGradient3021"
       fy="486.64789"
       fx="605.71429"
       r="117.14286"
       cy="486.64789"
       cx="605.71429" />
    <linearGradient
       id="linearGradient870">
      <stop
         style="stop-color:#43d6b5;stop-opacity:1"
         offset="0"
         id="stop866" />
      <stop
         style="stop-color:#22cc93;stop-opacity:1"
         offset="1"
         id="stop868" />
    </linearGradient>
    <linearGradient
       y2="21.282824"
       x2="14.600296"
       y1="-6.9363832"
       x1="14.600296"
       gradientTransform="matrix(0.95789463,0,0,0.95789463,-0.04473443,8.4064468)"
       gradientUnits="userSpaceOnUse"
       id="linearGradient1021"
       xlink:href="#linearGradient870" />
  </defs>
  <metadata
     id="metadata7440">
    <rdf:RDF>
      <cc:Work
         rdf:about="">
        <dc:format>image/svg+xml</dc:format>
        <dc:type
           rdf:resource="http://purl.org/dc/dcmitype/StillImage" />
        <dc:title></dc:title>
      </cc:Work>
    </rdf:RDF>
  </metadata>
  <path
     id="path8335-9-5-5-3"
     d="M 20.202149,2.3562861 A 10.4,10.398837 0 0 0 9.6904295,10.801208 H 18.6 c 1.0803,0 1.95,0.8697 1.95,1.95 V 23.128357 A 10.4,10.398837 0 0 0 30.3,12.751208 10.4,10.398837 0 0 0 20.202149,2.3562861 Z"
     style="opacity:0.05;vector-effect:none;fill:#000000;fill-opacity:1;stroke:none;stroke-width:1;stroke-linecap:butt;stroke-linejoin:miter;stroke-miterlimit:4;stroke-dasharray:none;stroke-dashoffset:0;stroke-opacity:1;marker:none"
     inkscape:connector-curvature="0" />
  <path
     id="path8335-9-5-5"
     d="M 20.181836,3.0062861 A 9.7500003,9.7477488 0 0 0 10.348047,10.801208 H 18.6 c 1.0803,0 1.95,0.8697 1.95,1.95 v 9.727149 a 9.7500003,9.7477488 0 0 0 9.1,-9.727149 9.7500003,9.7477488 0 0 0 -9.468164,-9.7449219 z"
     style="opacity:0.07000002;vector-effect:none;fill:#000000;fill-opacity:1;stroke:none;stroke-width:1;stroke-linecap:butt;stroke-linejoin:miter;stroke-miterlimit:4;stroke-dasharray:none;stroke-dashoffset:0;stroke-opacity:1;marker:none"
     inkscape:connector-curvature="0" />
  <path
     id="path8335-9-5"
     d="M 20.181836,1.7062863 A 9.7500003,9.7477488 0 0 0 10.183008,10.801208 H 18.6 c 1.0803,0 1.95,0.8697 1.95,1.95 v 8.42461 a 9.7500003,9.7477488 0 0 0 9.1,-9.72461 9.7500003,9.7477488 0 0 0 -9.468164,-9.7449217 z M 10.183008,10.801208 H 4.2999997 c -1.0803,0 -1.9499999,0.8697 -1.9499999,1.95 v 14.3 c 0,1.0803 0.8696999,1.95 1.9499999,1.95 H 18.6 c 1.0803,0 1.95,-0.8697 1.95,-1.95 v -5.872851 a 9.7500003,9.7477488 0 0 1 -10.4,-9.727149 9.7500003,9.7477488 0 0 1 0.03301,-0.65 z"
     style="opacity:1;vector-effect:none;fill:url(#linearGradient1021);fill-opacity:1;stroke:none;stroke-width:1;stroke-linecap:butt;stroke-linejoin:miter;stroke-miterlimit:4;stroke-dasharray:none;stroke-dashoffset:0;stroke-opacity:1;marker:none"
     inkscape:connector-curvature="0" />
  <path
     d="m 28.349999,11.448606 a 8.4499997,8.4499916 0 1 1 -16.899999,0 8.4499997,8.4499916 0 1 1 16.899999,0 z"
     id="path8339-9"
     style="opacity:0.5;vector-effect:none;fill:none;fill-opacity:1;stroke:url(#linearGradient1697-2);stroke-width:1;stroke-linecap:round;stroke-linejoin:round;stroke-miterlimit:4;stroke-dasharray:none;stroke-dashoffset:0;stroke-opacity:1"
     inkscape:connector-curvature="0" />
  <rect
     style="display:inline;overflow:visible;visibility:visible;opacity:0.15;fill:url(#linearGradient3027);fill-opacity:1;fill-rule:nonzero;stroke:none;stroke-width:1;marker:none;stroke-miterlimit:4;stroke-dasharray:none"
     id="rect2879"
     y="28.351206"
     x="3.6499987"
     height="2.5999999"
     width="15.6" />
  <path
     style="display:inline;overflow:visible;visibility:visible;opacity:0.15;fill:url(#radialGradient3024);fill-opacity:1;fill-rule:nonzero;stroke:none;stroke-width:1;marker:none;stroke-miterlimit:4;stroke-dasharray:none"
     id="path2881"
     d="m 3.6499997,28.351319 c 0,0 0,2.599858 0,2.599858 -0.8066148,0.0049 -1.9499999,-0.582497 -1.9499999,-1.300097 0,-0.717599 0.90012,-1.299761 1.9499999,-1.299761 z"
     inkscape:connector-curvature="0" />
  <path
     style="display:inline;overflow:visible;visibility:visible;opacity:0.15;fill:url(#radialGradient3021);fill-opacity:1;fill-rule:nonzero;stroke:none;stroke-width:1;marker:none;stroke-miterlimit:4;stroke-dasharray:none"
     id="path2883"
     d="m 19.25,28.351319 c 0,0 0,2.599858 0,2.599858 0.806614,0.0049 1.95,-0.582497 1.95,-1.300097 0,-0.717599 -0.900123,-1.299761 -1.95,-1.299761 z"
     inkscape:connector-curvature="0" />
  <rect
     ry="0.97500002"
     rx="0.97500002"
     style="opacity:0.5;fill:none;stroke:url(#linearGradient1693-4);stroke-width:1;stroke-linecap:round;stroke-linejoin:round;stroke-miterlimit:4;stroke-dasharray:none;stroke-dashoffset:0;stroke-opacity:1"
     id="rect6741-9-5-1"
     y="12.101209"
     x="3.6499999"
     height="15.6"
     width="15.6" />
  <path
     d="M 4.2999997,10.801208 H 18.6 c 1.0803,0 1.95,0.8697 1.95,1.95 v 14.3 c 0,1.0803 -0.8697,1.95 -1.95,1.95 H 4.2999997 c -1.0803,0 -1.9499999,-0.8697 -1.9499999,-1.95 v -14.3 c 0,-1.0803 0.8696999,-1.95 1.9499999,-1.95 z M 29.65,11.45121 a 9.7500003,9.7500027 0 1 1 -19.5,0 9.7500003,9.7500027 0 1 1 19.5,0 z"
     style="color:#000000;display:inline;overflow:visible;visibility:visible;opacity:0.5;vector-effect:none;fill:none;fill-opacity:1;stroke:#105845;stroke-width:1;stroke-linecap:round;stroke-linejoin:round;stroke-miterlimit:4;stroke-dasharray:none;stroke-dashoffset:0;stroke-opacity:1;marker:none;enable-background:accumulate"
     id="rect5505-21-8-1-25-1"
     inkscape:connector-curvature="0" />
</svg>
