<?xml version="1.0" encoding="UTF-8" standalone="no"?>
<svg
   xmlns:dc="http://purl.org/dc/elements/1.1/"
   xmlns:cc="http://creativecommons.org/ns#"
   xmlns:rdf="http://www.w3.org/1999/02/22-rdf-syntax-ns#"
   xmlns:svg="http://www.w3.org/2000/svg"
   xmlns="http://www.w3.org/2000/svg"
   xmlns:xlink="http://www.w3.org/1999/xlink"
   xmlns:sodipodi="http://sodipodi.sourceforge.net/DTD/sodipodi-0.dtd"
   xmlns:inkscape="http://www.inkscape.org/namespaces/inkscape"
   id="svg2526"
   height="32"
   width="32"
   version="1.0"
   sodipodi:docname="payment-card-discover.svg"
   inkscape:version="0.92.4 (5da689c313, 2019-01-14)">
  <sodipodi:namedview
     pagecolor="#ffffff"
     bordercolor="#666666"
     borderopacity="1"
     objecttolerance="10"
     gridtolerance="10"
     guidetolerance="10"
     inkscape:pageopacity="0"
     inkscape:pageshadow="2"
     inkscape:window-width="2880"
     inkscape:window-height="1706"
     id="namedview39"
     showgrid="false"
     inkscape:zoom="7.375"
     inkscape:cx="-1.4237288"
     inkscape:cy="16"
     inkscape:window-x="-11"
     inkscape:window-y="-11"
     inkscape:window-maximized="1"
     inkscape:current-layer="svg2526" />
  <metadata
     id="metadata58">
    <rdf:RDF>
      <cc:Work
         rdf:about="">
        <dc:format>image/svg+xml</dc:format>
        <dc:type
           rdf:resource="http://purl.org/dc/dcmitype/StillImage" />
        <dc:title />
      </cc:Work>
    </rdf:RDF>
  </metadata>
  <defs
     id="defs2528">
    <linearGradient
       id="linearGradient5060">
      <stop
         offset="0"
         style="stop-color:#000000;stop-opacity:1"
         id="stop5062" />
      <stop
         offset="1"
         style="stop-color:#000000;stop-opacity:0"
         id="stop5064" />
    </linearGradient>
    <linearGradient
       id="linearGradient5048">
      <stop
         offset="0"
         style="stop-color:#000000;stop-opacity:0"
         id="stop5050" />
      <stop
         offset="0.5"
         style="stop-color:#000000;stop-opacity:1"
         id="stop5056" />
      <stop
         offset="1"
         style="stop-color:#000000;stop-opacity:0"
         id="stop5052" />
    </linearGradient>
    <linearGradient
       gradientTransform="matrix(0.08449704,0,0,0.01235294,-6.5396456,38.470822)"
       gradientUnits="userSpaceOnUse"
       xlink:href="#linearGradient5048"
       id="linearGradient3188"
       y2="609.50507"
       x2="302.85715"
       y1="366.64789"
       x1="302.85715" />
    <radialGradient
       gradientTransform="matrix(-0.0289166,0,0,0.01235294,21.026894,38.470848)"
       gradientUnits="userSpaceOnUse"
       xlink:href="#linearGradient5060"
       id="radialGradient3190"
       fy="486.64789"
       fx="605.71429"
       r="117.14286"
       cy="486.64789"
       cx="605.71429" />
    <radialGradient
       gradientTransform="matrix(0.02891661,0,0,0.01235294,26.973101,38.470848)"
       gradientUnits="userSpaceOnUse"
       xlink:href="#linearGradient5060"
       id="radialGradient3192"
       fy="486.64789"
       fx="605.71429"
       r="117.14286"
       cy="486.64789"
       cx="605.71429" />
    <linearGradient
       id="linearGradient3462">
      <stop
         offset="0"
         style="stop-color:#ffffff;stop-opacity:1"
         id="stop3464" />
      <stop
         offset="0.03457849"
         style="stop-color:#ffffff;stop-opacity:0.23529412"
         id="stop3466" />
      <stop
         offset="0.96375686"
         style="stop-color:#ffffff;stop-opacity:0.15686275"
         id="stop3468" />
      <stop
         offset="1"
         style="stop-color:#ffffff;stop-opacity:0.39215687"
         id="stop3470" />
    </linearGradient>
    <linearGradient
       gradientTransform="matrix(0.66621622,0,0,0.5283784,0.01080462,4.3939174)"
       gradientUnits="userSpaceOnUse"
       xlink:href="#linearGradient3462"
       id="linearGradient3217"
       y2="41.695652"
       x2="40.290417"
       y1="6.3043499"
       x1="40.290417" />
    <linearGradient
       xlink:href="#linearGradient3880"
       id="linearGradient3887"
       x1="10"
       y1="-3"
       x2="20"
       y2="12"
       gradientUnits="userSpaceOnUse"
       gradientTransform="matrix(0.65166677,0,0,0.68276496,2.3149979,12.044506)" />
    <linearGradient
       id="linearGradient3880">
      <stop
         style="stop-color:#ffffff;stop-opacity:1;"
         offset="0"
         id="stop3883" />
      <stop
         style="stop-color:#ffffff;stop-opacity:0;"
         offset="1"
         id="stop3885" />
    </linearGradient>
    <linearGradient
       xlink:href="#linearGradient863"
       id="linearGradient937"
       x1="23.25"
       y1="-28.809029"
       x2="23.25"
       y2="70.294914"
       gradientUnits="userSpaceOnUse"
       gradientTransform="matrix(0.6047431,0,0,0.58480648,1.1905119,-1.6738359)" />
    <linearGradient
       id="linearGradient863">
      <stop
         style="stop-color:#fafafa;stop-opacity:1"
         offset="0"
         id="stop859" />
      <stop
         style="stop-color:#d4d4d4;stop-opacity:1"
         offset="1"
         id="stop861" />
    </linearGradient>
  </defs>
  <g
     style="opacity:0.3;stroke-width:1.2478425;stroke-miterlimit:4;stroke-dasharray:none"
     id="g3257"
     transform="matrix(0.56666032,0,0,1.1333333,2.4001519,-23.158332)">
    <rect
       style="display:inline;overflow:visible;visibility:visible;fill:url(#linearGradient3188);fill-opacity:1;fill-rule:nonzero;stroke:none;stroke-width:1.2478425;marker:none;stroke-miterlimit:4;stroke-dasharray:none"
       id="rect2879"
       y="43"
       x="3.5999999"
       height="2.9999998"
       width="40.799999" />
    <path
       style="display:inline;overflow:visible;visibility:visible;fill:url(#radialGradient3190);fill-opacity:1;fill-rule:nonzero;stroke:none;stroke-width:1.2478425;marker:none;stroke-miterlimit:4;stroke-dasharray:none"
       id="path2881"
       d="m 3.6,43.00013 c 0,0 0,2.999835 0,2.999835 C 2.1108662,46.005612 0,45.327854 0,44.499854 0,43.671856 1.6617608,43.000131 3.6,43.00013 Z"
       inkscape:connector-curvature="0" />
    <path
       style="display:inline;overflow:visible;visibility:visible;fill:url(#radialGradient3192);fill-opacity:1;fill-rule:nonzero;stroke:none;stroke-width:1.2478425;marker:none;stroke-miterlimit:4;stroke-dasharray:none"
       id="path2883"
       d="m 44.4,43.00013 c 0,0 0,2.999835 0,2.999835 1.489133,0.0056 3.6,-0.672111 3.6,-1.500111 0,-0.827998 -1.661761,-1.499723 -3.6,-1.499724 z"
       inkscape:connector-curvature="0" />
  </g>
  <rect
     style="color:#000000;display:inline;overflow:visible;visibility:visible;opacity:1;vector-effect:none;fill:url(#linearGradient937);fill-opacity:1;fill-rule:nonzero;stroke:none;stroke-width:1;stroke-linecap:butt;stroke-linejoin:miter;stroke-miterlimit:4;stroke-dasharray:none;stroke-dashoffset:0;stroke-opacity:1;marker:none;enable-background:accumulate"
     id="rect5505-21-3-8-5-2"
     y="6.4499984"
     x="2.8249969"
     ry="1.7"
     rx="1.7"
     height="21.25"
     width="26.35" />
  <path
     id="path1283"
     d="M 16.582714,15.212305 A 1.8633306,1.8633306 0 0 0 14.716698,17.075 1.8633306,1.8633306 0 0 0 16.582714,18.937695 1.8633306,1.8633306 0 0 0 18.44541,17.075 1.8633306,1.8633306 0 0 0 16.582714,15.212305 Z M 29.175,17.59961 c 0,0 -2.348902,6.370857 -21.425977,10.10039 h 19.669531 c 0.973163,0 1.756446,-0.783284 1.756446,-1.756445 z"
     style="fill:#f56601;fill-opacity:1;stroke:none;stroke-width:1;stroke-linecap:butt;stroke-linejoin:miter;stroke-opacity:1;stroke-miterlimit:4;stroke-dasharray:none"
     inkscape:connector-curvature="0" />
  <rect
     rx="0.85000002"
     ry="0.85000002"
     style="opacity:1;fill:none;stroke:url(#linearGradient3217);stroke-width:1;stroke-linecap:round;stroke-linejoin:round;stroke-miterlimit:4;stroke-dasharray:none;stroke-dashoffset:0;stroke-opacity:1"
     id="rect6741-5-0-2-3"
     y="7.2999973"
     x="3.6749969"
     height="19.549999"
     width="24.65" />
  <rect
     style="color:#000000;display:inline;overflow:visible;visibility:visible;opacity:0.5;vector-effect:none;fill:none;fill-opacity:1;stroke:#555761;stroke-width:1;stroke-linecap:round;stroke-linejoin:round;stroke-miterlimit:4;stroke-dasharray:none;stroke-dashoffset:0;stroke-opacity:1;marker:none;enable-background:accumulate"
     id="rect5505-21-3-8-9-1-1"
     y="6.4499974"
     x="2.8249969"
     ry="1.7"
     rx="1.7"
     height="21.25"
     width="26.35" />
  <path
     id="path22"
     d="m 13.785542,15.297932 c -1.004837,0 -1.810395,0.790618 -1.810395,1.779294 0,0.999468 0.784868,1.774666 1.794844,1.774666 0.285504,0 0.529877,-0.05614 0.831419,-0.198179 v -0.780798 c -0.265144,0.265387 -0.499912,0.372534 -0.80065,0.372534 -0.667955,0 -1.142084,-0.484293 -1.142084,-1.172853 0,-0.652843 0.489161,-1.167891 1.111315,-1.167891 0.316338,0 0.555669,0.112749 0.831419,0.38246 v -0.780138 c -0.291119,-0.147711 -0.530498,-0.209095 -0.815868,-0.209095 z m -3.13577,0.02083 c -0.601599,0 -1.0603649,0.417509 -1.0603649,0.974015 0,0.468459 0.2134598,0.708467 0.8363809,0.932657 0.259628,0.09158 0.391859,0.152489 0.458554,0.193545 0.132533,0.08654 0.19884,0.209227 0.19884,0.352022 0,0.275519 -0.218869,0.479397 -0.514798,0.479397 -0.316338,0 -0.5711971,-0.157959 -0.7238936,-0.453259 l -0.4284459,0.412564 c 0.3055846,0.448563 0.6724995,0.647137 1.1771525,0.647137 0.68928,0 1.172853,-0.458015 1.172853,-1.116278 0,-0.540237 -0.223825,-0.785082 -0.978314,-1.061025 -0.398001,-0.147271 -0.514798,-0.244405 -0.514798,-0.428118 0,-0.214143 0.208403,-0.376835 0.494286,-0.376835 0.198737,0 0.361834,0.08184 0.534649,0.275597 l 0.347058,-0.454585 c -0.285176,-0.249444 -0.626354,-0.376833 -0.999159,-0.376833 z m -5.251204,0.05624 v 3.400115 h 0.9687202 c 0.514984,0 0.8867947,-0.121353 1.2132164,-0.392384 0.3878692,-0.321002 0.61703,-0.805096 0.61703,-1.305523 0,-1.003462 -0.7496518,-1.702209 -1.8252831,-1.702209 z m 3.1043378,0 v 3.400115 H 9.1662549 V 15.375 Z m 9.7262412,0 1.442825,3.48746 h 0.356984 L 21.497916,15.375 h -0.71893 L 19.860224,17.658838 18.953703,15.375 Z m 3.568518,0 v 3.400115 h 1.881195 v -0.575661 h -1.218177 v -0.91777 h 1.173183 V 16.705683 H 22.460683 V 15.95102 h 1.218177 v -0.576005 z m 2.32023,0 v 3.400115 h 0.662687 V 17.40905 h 0.08635 l 0.9181,1.366066 h 0.815537 L 25.530278,17.34255 c 0.499527,-0.101569 0.774512,-0.443117 0.774512,-0.963757 0,-0.636575 -0.438415,-1.003792 -1.203291,-1.003792 z m 0.662687,0.535311 h 0.204133 c 0.413065,0 0.637541,0.173284 0.637541,0.504211 0,0.341839 -0.22459,0.525716 -0.648129,0.525716 h -0.193545 z m -18.7189968,0.04069 h 0.1779954 c 0.4285526,0 0.6884635,0.07661 0.9075131,0.274933 0.2293778,0.204255 0.3672407,0.520885 0.3672407,0.846638 0,0.32641 -0.1378696,0.652393 -0.3672407,0.856563 C 6.9386989,18.117319 6.6681332,18.19944 6.2395806,18.19944 H 6.0615852 Z"
     style="opacity:1;fill:#201d1c;fill-opacity:1;fill-rule:nonzero;stroke:none;stroke-width:1;stroke-miterlimit:4;stroke-dasharray:none"
     inkscape:connector-curvature="0" />
  <path
     id="rect3872"
     d="m 4.95,6.8749998 c -0.9418001,0 -1.7000005,0.7830339 -1.7000005,1.7556814 V 18.775 L 28.75,10.008023 V 8.6306812 c 0,-0.9726475 -0.7582,-1.7556814 -1.7,-1.7556814 z"
     style="display:inline;opacity:0.3;fill:url(#linearGradient3887);fill-opacity:1;stroke:none;stroke-width:1;stroke-miterlimit:4;stroke-dasharray:none"
     inkscape:connector-curvature="0" />
</svg>
