<?xml version="1.0" encoding="UTF-8" standalone="no"?>
<svg
   xmlns:dc="http://purl.org/dc/elements/1.1/"
   xmlns:cc="http://creativecommons.org/ns#"
   xmlns:rdf="http://www.w3.org/1999/02/22-rdf-syntax-ns#"
   xmlns:svg="http://www.w3.org/2000/svg"
   xmlns="http://www.w3.org/2000/svg"
   xmlns:xlink="http://www.w3.org/1999/xlink"
   xmlns:sodipodi="http://sodipodi.sourceforge.net/DTD/sodipodi-0.dtd"
   xmlns:inkscape="http://www.inkscape.org/namespaces/inkscape"
   id="svg2526"
   height="32"
   width="32"
   version="1.0"
   sodipodi:docname="payment-card-visa.svg"
   inkscape:version="0.92.4 (5da689c313, 2019-01-14)">
  <sodipodi:namedview
     pagecolor="#ffffff"
     bordercolor="#666666"
     borderopacity="1"
     objecttolerance="10"
     gridtolerance="10"
     guidetolerance="10"
     inkscape:pageopacity="0"
     inkscape:pageshadow="2"
     inkscape:window-width="2880"
     inkscape:window-height="1706"
     id="namedview43"
     showgrid="false"
     inkscape:zoom="7.375"
     inkscape:cx="-1.4237288"
     inkscape:cy="16"
     inkscape:window-x="-11"
     inkscape:window-y="-11"
     inkscape:window-maximized="1"
     inkscape:current-layer="svg2526" />
  <metadata
     id="metadata58">
    <rdf:RDF>
      <cc:Work
         rdf:about="">
        <dc:format>image/svg+xml</dc:format>
        <dc:type
           rdf:resource="http://purl.org/dc/dcmitype/StillImage" />
        <dc:title />
      </cc:Work>
    </rdf:RDF>
  </metadata>
  <defs
     id="defs2528">
    <linearGradient
       id="linearGradient5060">
      <stop
         offset="0"
         style="stop-color:#000000;stop-opacity:1"
         id="stop5062" />
      <stop
         offset="1"
         style="stop-color:#000000;stop-opacity:0"
         id="stop5064" />
    </linearGradient>
    <linearGradient
       id="linearGradient5048">
      <stop
         offset="0"
         style="stop-color:#000000;stop-opacity:0"
         id="stop5050" />
      <stop
         offset="0.5"
         style="stop-color:#000000;stop-opacity:1"
         id="stop5056" />
      <stop
         offset="1"
         style="stop-color:#000000;stop-opacity:0"
         id="stop5052" />
    </linearGradient>
    <linearGradient
       id="linearGradient3462">
      <stop
         offset="0"
         style="stop-color:#ffffff;stop-opacity:1"
         id="stop3464" />
      <stop
         offset="0.03457849"
         style="stop-color:#ffffff;stop-opacity:0.23529412"
         id="stop3466" />
      <stop
         offset="0.96375686"
         style="stop-color:#ffffff;stop-opacity:0.15686275"
         id="stop3468" />
      <stop
         offset="1"
         style="stop-color:#ffffff;stop-opacity:0.39215687"
         id="stop3470" />
    </linearGradient>
    <linearGradient
       gradientTransform="matrix(0.66621622,0,0,0.5283784,0.01080512,4.3939176)"
       gradientUnits="userSpaceOnUse"
       xlink:href="#linearGradient3462"
       id="linearGradient3217"
       y2="41.695652"
       x2="40.290417"
       y1="6.3043499"
       x1="40.290417" />
    <linearGradient
       xlink:href="#linearGradient3880"
       id="linearGradient3887"
       x1="10"
       y1="-3"
       x2="20"
       y2="12"
       gradientUnits="userSpaceOnUse"
       gradientTransform="matrix(0.65166677,0,0,0.68276496,2.3149984,12.044506)" />
    <linearGradient
       id="linearGradient3880">
      <stop
         style="stop-color:#ffffff;stop-opacity:1;"
         offset="0"
         id="stop3883" />
      <stop
         style="stop-color:#ffffff;stop-opacity:0;"
         offset="1"
         id="stop3885" />
    </linearGradient>
    <linearGradient
       xlink:href="#linearGradient863"
       id="linearGradient937"
       x1="23.25"
       y1="-28.809029"
       x2="23.25"
       y2="70.294914"
       gradientUnits="userSpaceOnUse"
       gradientTransform="matrix(0.6047431,0,0,0.58480648,1.1905124,-1.6738357)" />
    <linearGradient
       id="linearGradient863">
      <stop
         style="stop-color:#fafafa;stop-opacity:1"
         offset="0"
         id="stop859" />
      <stop
         style="stop-color:#d4d4d4;stop-opacity:1"
         offset="1"
         id="stop861" />
    </linearGradient>
    <linearGradient
       gradientTransform="matrix(0.08449704,0,0,0.01235294,-6.5396456,38.470822)"
       gradientUnits="userSpaceOnUse"
       xlink:href="#linearGradient5048"
       id="linearGradient3188-7"
       y2="609.50507"
       x2="302.85715"
       y1="366.64789"
       x1="302.85715" />
    <radialGradient
       gradientTransform="matrix(-0.0289166,0,0,0.01235294,21.026894,38.470848)"
       gradientUnits="userSpaceOnUse"
       xlink:href="#linearGradient5060"
       id="radialGradient3190-2"
       fy="486.64789"
       fx="605.71429"
       r="117.14286"
       cy="486.64789"
       cx="605.71429" />
    <radialGradient
       gradientTransform="matrix(0.02891661,0,0,0.01235294,26.973101,38.470848)"
       gradientUnits="userSpaceOnUse"
       xlink:href="#linearGradient5060"
       id="radialGradient3192-5"
       fy="486.64789"
       fx="605.71429"
       r="117.14286"
       cy="486.64789"
       cx="605.71429" />
  </defs>
  <g
     style="opacity:0.3;stroke-width:1.2478425;stroke-miterlimit:4;stroke-dasharray:none"
     id="g3257"
     transform="matrix(0.56666032,0,0,1.1333333,2.4001523,-23.158332)">
    <rect
       style="display:inline;overflow:visible;visibility:visible;fill:url(#linearGradient3188-7);fill-opacity:1;fill-rule:nonzero;stroke:none;stroke-width:1.2478425;marker:none;stroke-miterlimit:4;stroke-dasharray:none"
       id="rect2879"
       y="43"
       x="3.5999999"
       height="2.9999998"
       width="40.799999" />
    <path
       style="display:inline;overflow:visible;visibility:visible;fill:url(#radialGradient3190-2);fill-opacity:1;fill-rule:nonzero;stroke:none;stroke-width:1.2478425;marker:none;stroke-miterlimit:4;stroke-dasharray:none"
       id="path2881"
       d="m 3.6,43.00013 c 0,0 0,2.999835 0,2.999835 C 2.1108662,46.005612 0,45.327854 0,44.499854 0,43.671856 1.6617608,43.000131 3.6,43.00013 Z"
       inkscape:connector-curvature="0" />
    <path
       style="display:inline;overflow:visible;visibility:visible;fill:url(#radialGradient3192-5);fill-opacity:1;fill-rule:nonzero;stroke:none;stroke-width:1.2478425;marker:none;stroke-miterlimit:4;stroke-dasharray:none"
       id="path2883"
       d="m 44.4,43.00013 c 0,0 0,2.999835 0,2.999835 1.489133,0.0056 3.6,-0.672111 3.6,-1.500111 0,-0.827998 -1.661761,-1.499723 -3.6,-1.499724 z"
       inkscape:connector-curvature="0" />
  </g>
  <rect
     style="color:#000000;display:inline;overflow:visible;visibility:visible;opacity:1;vector-effect:none;fill:url(#linearGradient937);fill-opacity:1;fill-rule:nonzero;stroke:none;stroke-width:1;stroke-linecap:butt;stroke-linejoin:miter;stroke-miterlimit:4;stroke-dasharray:none;stroke-dashoffset:0;stroke-opacity:1;marker:none;enable-background:accumulate"
     id="rect5505-21-3-8-5-2"
     y="6.4499989"
     x="2.8249974"
     ry="1.7"
     rx="1.7"
     height="21.25"
     width="26.35" />
  <path
     id="path996"
     d="m 4.525,6.45 c -0.9418,0 -1.7,0.7582 -1.7,1.7 v 2.975 h 26.35 V 8.15 c 0,-0.9418 -0.7582,-1.7 -1.7,-1.7 z"
     style="color:#000000;display:inline;overflow:visible;visibility:visible;opacity:1;vector-effect:none;fill:#1a1f71;fill-opacity:1;fill-rule:nonzero;stroke:none;stroke-width:1;stroke-linecap:butt;stroke-linejoin:miter;stroke-miterlimit:4;stroke-dasharray:none;stroke-dashoffset:0;stroke-opacity:1;marker:none;enable-background:accumulate"
     inkscape:connector-curvature="0" />
  <path
     id="rect5505-21-3-8-5-2-1"
     d="M 2.825,23.025 V 26 c 0,0.9418 0.7582,1.7 1.7,1.7 h 22.95 c 0.9418,0 1.7,-0.7582 1.7,-1.7 v -2.975 z"
     style="color:#000000;display:inline;overflow:visible;visibility:visible;opacity:1;vector-effect:none;fill:#f7b600;fill-opacity:1;fill-rule:nonzero;stroke:none;stroke-width:1;stroke-linecap:butt;stroke-linejoin:miter;stroke-miterlimit:4;stroke-dasharray:none;stroke-dashoffset:0;stroke-opacity:1;marker:none;enable-background:accumulate"
     inkscape:connector-curvature="0" />
  <path
     id="rect5505-21-3-8-9-1-1"
     d="m 29.175,23.025 v -11.9 m -26.35,0 v 11.9"
     style="color:#000000;display:inline;overflow:visible;visibility:visible;opacity:0.5;vector-effect:none;fill:none;fill-opacity:1;stroke:#555761;stroke-width:1;stroke-linecap:butt;stroke-linejoin:round;stroke-miterlimit:4;stroke-dasharray:none;stroke-dashoffset:0;stroke-opacity:1;marker:none;enable-background:accumulate"
     inkscape:connector-curvature="0" />
  <rect
     rx="0.85000002"
     ry="0.85000002"
     style="opacity:0.3;fill:none;stroke:url(#linearGradient3217);stroke-width:1;stroke-linecap:round;stroke-linejoin:round;stroke-miterlimit:4;stroke-dasharray:none;stroke-dashoffset:0;stroke-opacity:1"
     id="rect6741-5-0-2-3"
     y="7.2999973"
     x="3.6749973"
     height="19.549999"
     width="24.65" />
  <path
     id="rect3872"
     d="M 4.6477628,6.875 C 3.7059627,6.875 3.25,7.3970105 3.25,8.3696579 V 18.775 l 25.5,-8.766977 V 8.4383483 C 28.75,7.4657009 28.225347,6.875 27.283547,6.875 Z"
     style="display:inline;opacity:0.3;fill:url(#linearGradient3887);fill-opacity:1;stroke:none;stroke-width:1;stroke-miterlimit:4;stroke-dasharray:none"
     inkscape:connector-curvature="0" />
  <path
     id="path1062"
     d="M 29.175,11.125 V 8.15 c 0,-0.9418 -0.7582,-1.7 -1.7,-1.7 H 4.525 c -0.9418,0 -1.7,0.7582 -1.7,1.7 v 2.975"
     style="color:#000000;display:inline;overflow:visible;visibility:visible;opacity:0.5;vector-effect:none;fill:none;fill-opacity:1;stroke:#000948;stroke-width:1;stroke-linecap:butt;stroke-linejoin:miter;stroke-miterlimit:4;stroke-dasharray:none;stroke-dashoffset:0;stroke-opacity:1;marker:none;enable-background:accumulate"
     inkscape:connector-curvature="0" />
  <path
     id="rect5505-21-3-8-9-1-1-8"
     d="M 2.825,23.025 V 26 c 0,0.9418 0.7582,1.7 1.7,1.7 h 22.95 c 0.9418,0 1.7,-0.7582 1.7,-1.7 v -2.975"
     style="color:#000000;display:inline;overflow:visible;visibility:visible;opacity:0.5;vector-effect:none;fill:none;fill-opacity:1;stroke:#ad5f00;stroke-width:1;stroke-linecap:butt;stroke-linejoin:miter;stroke-miterlimit:4;stroke-dasharray:none;stroke-dashoffset:0;stroke-opacity:1;marker:none;enable-background:accumulate"
     inkscape:connector-curvature="0" />
  <path
     id="polygon9"
     d="m 18.255949,13.548135 c -1.72696,0 -2.942859,0.931596 -2.950317,2.263547 -0.01436,0.982711 0.872619,1.528577 1.534562,1.856242 0.676573,0.334827 0.904236,0.556223 0.904236,0.854674 -0.007,0.458365 -0.545957,0.667713 -1.049443,0.667713 -0.698186,0 -1.071652,-0.108885 -1.640167,-0.363903 l -0.231009,-0.110167 -0.244209,1.535739 c 0.410151,0.189035 1.165841,0.359891 1.950379,0.367243 1.834926,0 3.02857,-0.91759 3.042722,-2.336997 0.007,-0.778874 -0.457714,-1.37524 -1.465258,-1.862919 -0.611643,-0.31306 -0.986741,-0.524343 -0.986741,-0.844657 0.0071,-0.291196 0.316102,-0.590927 1.00654,-0.590927 0.568514,-0.01453 0.987118,0.122064 1.303554,0.260408 l 0.158406,0.07345 0.237608,-1.475647 C 19.481879,13.703497 18.932429,13.548142 18.255949,13.548142 Z M 10.276228,13.675002 8.5634585,18.338978 8.3753511,17.394164 C 8.0587243,16.302328 7.0677998,15.116176 5.9596542,14.526336 l 1.567563,5.982712 h 1.8513747 l 2.7457101,-6.834046 z m 2.554304,0 -1.092346,6.84072 h 1.749073 L 14.579602,13.675 Z m 10.124807,0 c -0.417133,0 -0.734164,0.123517 -0.914137,0.567556 l -2.597204,6.273164 h 1.834874 c 0,0 0.301381,-0.843063 0.366315,-1.024939 h 2.247389 c 0.0502,0.240211 0.207909,1.024939 0.207909,1.024939 h 1.620367 L 24.308394,13.675 Z m 0.122113,1.846227 0.122096,0.590926 c 0,0 0.330703,1.637689 0.402617,1.97977 h -1.452061 c 0.144011,-0.393064 0.69633,-1.912998 0.69633,-1.912998 -0.0073,0.01453 0.144652,-0.402975 0.231009,-0.657698 z"
     style="opacity:1;fill:#1a1f71;fill-opacity:1;stroke-width:1;stroke-miterlimit:4;stroke-dasharray:none"
     inkscape:connector-curvature="0" />
  <path
     d="M 6.9737543,13.673706 H 4.160164 l -0.028795,0.138252 c 2.1947777,0.567781 3.6483353,1.936397 4.2455378,3.581407 L 7.7652632,14.248846 C 7.6645592,13.81186 7.3551117,13.688127 6.9737437,13.673713 Z"
     id="path17"
     style="opacity:1;vector-effect:none;fill:#f7b600;fill-opacity:1;stroke:none;stroke-width:1;stroke-linecap:butt;stroke-linejoin:miter;stroke-miterlimit:4;stroke-dasharray:none;stroke-dashoffset:0;stroke-opacity:1;marker:none"
     inkscape:connector-curvature="0" />
</svg>
