<?xml version="1.0" encoding="UTF-8" standalone="no"?>
<svg
   xmlns:dc="http://purl.org/dc/elements/1.1/"
   xmlns:cc="http://creativecommons.org/ns#"
   xmlns:rdf="http://www.w3.org/1999/02/22-rdf-syntax-ns#"
   xmlns:svg="http://www.w3.org/2000/svg"
   xmlns="http://www.w3.org/2000/svg"
   xmlns:xlink="http://www.w3.org/1999/xlink"
   xmlns:sodipodi="http://sodipodi.sourceforge.net/DTD/sodipodi-0.dtd"
   xmlns:inkscape="http://www.inkscape.org/namespaces/inkscape"
   id="svg4715"
   height="32"
   width="32"
   version="1.1"
   sodipodi:docname="preferences.svg"
   inkscape:version="0.92.4 (5da689c313, 2019-01-14)">
  <sodipodi:namedview
     pagecolor="#ffffff"
     bordercolor="#666666"
     borderopacity="1"
     objecttolerance="10"
     gridtolerance="10"
     guidetolerance="10"
     inkscape:pageopacity="0"
     inkscape:pageshadow="2"
     inkscape:window-width="2880"
     inkscape:window-height="1706"
     id="namedview66"
     showgrid="false"
     inkscape:zoom="7.375"
     inkscape:cx="-1.4237288"
     inkscape:cy="16"
     inkscape:window-x="-11"
     inkscape:window-y="-11"
     inkscape:window-maximized="1"
     inkscape:current-layer="svg4715" />
  <defs
     id="defs4717">
    <linearGradient
       id="linearGradient909">
      <stop
         id="stop905"
         style="stop-color:#fafafa;stop-opacity:1"
         offset="0" />
      <stop
         id="stop907"
         style="stop-color:#d4d4d4;stop-opacity:1"
         offset="1" />
    </linearGradient>
    <linearGradient
       id="linearGradient3924">
      <stop
         offset="0"
         style="stop-color:#ffffff;stop-opacity:1"
         id="stop3926" />
      <stop
         offset="0.04026115"
         style="stop-color:#ffffff;stop-opacity:0.23529412"
         id="stop3928" />
      <stop
         offset="0.95833331"
         style="stop-color:#ffffff;stop-opacity:0.15686275"
         id="stop3930" />
      <stop
         offset="1"
         style="stop-color:#ffffff;stop-opacity:0.39215687"
         id="stop3932" />
    </linearGradient>
    <radialGradient
       gradientTransform="matrix(2.003784,0,0,1.4,27.98813,-17.4)"
       gradientUnits="userSpaceOnUse"
       xlink:href="#linearGradient3688-166-749"
       id="radialGradient3163"
       fy="43.5"
       fx="4.9929786"
       r="2.5"
       cy="43.5"
       cx="4.9929786" />
    <linearGradient
       id="linearGradient3688-166-749">
      <stop
         offset="0"
         style="stop-color:#181818;stop-opacity:1"
         id="stop2883" />
      <stop
         offset="1"
         style="stop-color:#181818;stop-opacity:0"
         id="stop2885" />
    </linearGradient>
    <radialGradient
       gradientTransform="matrix(2.003784,0,0,1.4,-20.01187,-104.4)"
       gradientUnits="userSpaceOnUse"
       xlink:href="#linearGradient3688-464-309"
       id="radialGradient3165"
       fy="43.5"
       fx="4.9929786"
       r="2.5"
       cy="43.5"
       cx="4.9929786" />
    <linearGradient
       id="linearGradient3688-464-309">
      <stop
         offset="0"
         style="stop-color:#181818;stop-opacity:1"
         id="stop2889" />
      <stop
         offset="1"
         style="stop-color:#181818;stop-opacity:0"
         id="stop2891" />
    </linearGradient>
    <linearGradient
       gradientUnits="userSpaceOnUse"
       xlink:href="#linearGradient3702-501-757"
       id="linearGradient3167"
       y2="39.999443"
       x2="25.058096"
       y1="47.027729"
       x1="25.058096" />
    <linearGradient
       id="linearGradient3702-501-757">
      <stop
         offset="0"
         style="stop-color:#181818;stop-opacity:0"
         id="stop2895" />
      <stop
         offset="0.5"
         style="stop-color:#181818;stop-opacity:1"
         id="stop2897" />
      <stop
         offset="1"
         style="stop-color:#181818;stop-opacity:0"
         id="stop2899" />
    </linearGradient>
    <linearGradient
       gradientTransform="matrix(0.57432433,0,0,0.57432432,2.2162187,2.2912225)"
       gradientUnits="userSpaceOnUse"
       xlink:href="#linearGradient3924"
       id="linearGradient3027"
       y2="41.759991"
       x2="23.999996"
       y1="6.2399888"
       x1="23.999996" />
    <linearGradient
       xlink:href="#linearGradient909"
       id="linearGradient903"
       x1="14.329722"
       y1="32.022377"
       x2="14.329722"
       y2="-0.070297658"
       gradientUnits="userSpaceOnUse"
       gradientTransform="matrix(0.85,0,0,0.85,2.4,-29.675)" />
    <linearGradient
       id="linearGradient4011-2-96">
      <stop
         offset="0"
         style="stop-color:#ffffff;stop-opacity:1"
         id="stop4013-5-8" />
      <stop
         offset="0.507761"
         style="stop-color:#ffffff;stop-opacity:0.23529412"
         id="stop4015-3-48" />
      <stop
         offset="0.83456558"
         style="stop-color:#ffffff;stop-opacity:0.15686275"
         id="stop4017-7-1" />
      <stop
         offset="1"
         style="stop-color:#ffffff;stop-opacity:0.39215687"
         id="stop4019-6-4" />
    </linearGradient>
    <linearGradient
       y2="44.340794"
       x2="71.204407"
       y1="6.2375584"
       x1="71.204407"
       gradientTransform="matrix(-0.13783781,0,0,0.13783781,29.712592,13.004814)"
       gradientUnits="userSpaceOnUse"
       id="linearGradient3866"
       xlink:href="#linearGradient4011-2-96" />
    <linearGradient
       y2="8.0928917"
       x2="38.976662"
       y1="59.967686"
       x1="38.976662"
       gradientTransform="matrix(-0.13333334,0,0,0.13333334,24.091666,11.966667)"
       gradientUnits="userSpaceOnUse"
       id="linearGradient3869"
       xlink:href="#linearGradient4215-8-4-07-7" />
    <linearGradient
       id="linearGradient4215-8-4-07-7">
      <stop
         id="stop4217-1-2-1-2"
         offset="0"
         style="stop-color:#e9e9e9;stop-opacity:1;" />
      <stop
         id="stop4219-3-4-0-96"
         offset="1"
         style="stop-color:#ffffff;stop-opacity:1;" />
    </linearGradient>
    <linearGradient
       y2="55.052982"
       x2="30.271185"
       y1="10.028973"
       x1="30.271185"
       gradientTransform="matrix(0.42499998,0,0,0.47812502,2.4000003,1.199998)"
       gradientUnits="userSpaceOnUse"
       id="linearGradient3884"
       xlink:href="#linearGradient27416-1-2" />
    <linearGradient
       id="linearGradient27416-1-2">
      <stop
         id="stop27420-2-0"
         style="stop-color:#64baff;stop-opacity:1"
         offset="0" />
      <stop
         id="stop27422-3-5"
         style="stop-color:#3689e6;stop-opacity:1"
         offset="1" />
    </linearGradient>
  </defs>
  <metadata
     id="metadata4720">
    <rdf:RDF>
      <cc:Work
         rdf:about="">
        <dc:format>image/svg+xml</dc:format>
        <dc:type
           rdf:resource="http://purl.org/dc/dcmitype/StillImage" />
        <dc:title />
      </cc:Work>
    </rdf:RDF>
  </metadata>
  <g
     style="display:inline;stroke-width:2.10922644;stroke-miterlimit:4;stroke-dasharray:none"
     id="g2036"
     transform="matrix(0.59499974,0,0,0.37777813,1.7199997,11.069438)">
    <g
       style="opacity:0.4;stroke-width:1.81306304;stroke-miterlimit:4;stroke-dasharray:none"
       id="g3712"
       transform="matrix(1.052632,0,0,1.285713,-1.263158,-13.42854)">
      <rect
         style="fill:url(#radialGradient3163);fill-opacity:1;stroke:none;stroke-width:1.81306304;stroke-miterlimit:4;stroke-dasharray:none"
         id="rect2801"
         y="40"
         x="38"
         height="7"
         width="5" />
      <rect
         style="fill:url(#radialGradient3165);fill-opacity:1;stroke:none;stroke-width:1.81306304;stroke-miterlimit:4;stroke-dasharray:none"
         id="rect3696"
         transform="scale(-1)"
         y="-47"
         x="-10"
         height="7"
         width="5" />
      <rect
         style="fill:url(#linearGradient3167);fill-opacity:1;stroke:none;stroke-width:1.81306304;stroke-miterlimit:4;stroke-dasharray:none"
         id="rect3700"
         y="40"
         x="10"
         height="7.0000005"
         width="28" />
    </g>
  </g>
  <rect
     style="color:#000000;display:inline;overflow:visible;visibility:visible;fill:url(#linearGradient903);fill-opacity:1;fill-rule:nonzero;stroke:none;stroke-width:1;marker:none;enable-background:accumulate;stroke-miterlimit:4;stroke-dasharray:none"
     id="rect5505"
     y="-27.125"
     x="4.9499998"
     ry="1.3730947"
     rx="1.3730947"
     height="22.1"
     width="22.1"
     transform="scale(1,-1)" />
  <rect
     style="color:#000000;display:inline;overflow:visible;visibility:visible;opacity:0.5;fill:none;stroke:#555761;stroke-width:1;stroke-linecap:round;stroke-linejoin:round;stroke-miterlimit:4;stroke-dasharray:none;stroke-dashoffset:0;stroke-opacity:1;marker:none;enable-background:accumulate"
     id="rect5505-6-6"
     y="4.5999999"
     x="4.5250001"
     ry="1.8360001"
     rx="1.8360001"
     height="22.950001"
     width="22.950001" />
  <rect
     style="fill:none;stroke:url(#linearGradient3027);stroke-width:1;stroke-linecap:round;stroke-linejoin:round;stroke-miterlimit:4;stroke-dasharray:none;stroke-dashoffset:0;stroke-opacity:1"
     id="rect6741-7"
     y="5.4499998"
     x="5.375"
     ry="1.0119046"
     rx="0.923913"
     height="21.25"
     width="21.25" />
  <path
     d="m 12.222215,12.674994 c -2.092893,0 -3.7777851,1.684892 -3.7777851,3.777785 0,2.092893 1.6848921,3.777786 3.7777851,3.777786 h 7.555572 c 2.092894,0 3.777785,-1.684893 3.777785,-3.777786 0,-2.092893 -1.684891,-3.777785 -3.777785,-3.777785 z"
     id="rect13708-6"
     style="color:#000000;display:inline;overflow:visible;visibility:visible;opacity:0.2;fill:#ffffff;fill-opacity:1;stroke:none;stroke-width:1;marker:none;enable-background:accumulate;stroke-miterlimit:4;stroke-dasharray:none"
     inkscape:connector-curvature="0" />
  <path
     d="m 12.174999,12.674999 c -2.119049,0 -3.824999,1.70595 -3.824999,3.825 0,2.119049 1.70595,3.825001 3.824999,3.825001 h 7.650002 c 2.11905,0 3.824999,-1.705951 3.824999,-3.825001 0,-2.11905 -1.705949,-3.825 -3.824999,-3.825 z"
     id="rect13708"
     style="color:#000000;display:inline;overflow:visible;visibility:visible;fill:url(#linearGradient3884);fill-opacity:1;stroke:none;stroke-width:1;marker:none;enable-background:accumulate;stroke-miterlimit:4;stroke-dasharray:none"
     inkscape:connector-curvature="0" />
  <path
     d="m 12.175002,12.674999 c -2.119051,0 -3.8250009,1.70595 -3.8250009,3.825002 0,0.06422 0.00886,0.127824 0.011954,0.191249 0.099118,-2.029398 1.7582189,-3.633751 3.8130479,-3.633751 h 7.650004 c 2.05483,0 3.71393,1.604353 3.81305,3.633751 0.0031,-0.06343 0.01194,-0.12703 0.01194,-0.191249 0,-2.119052 -1.705949,-3.825002 -3.825001,-3.825002 h -7.650003 z"
     id="rect13708-7"
     style="color:#000000;display:inline;overflow:visible;visibility:visible;opacity:0.3;fill:#0e4774;fill-opacity:1;fill-rule:nonzero;stroke:none;stroke-width:1;marker:none;enable-background:accumulate;stroke-miterlimit:4;stroke-dasharray:none"
     inkscape:connector-curvature="0" />
  <path
     d="m 12.192958,12.674999 c -2.069806,0 -3.7430014,1.690909 -3.842958,3.829793 0.099273,2.138886 1.760969,3.829795 3.819013,3.829795 h 0.407042 c -2.134493,0 -3.8549278,-1.618189 -3.8549278,-3.628226 0,-2.010037 1.7204348,-3.628226 3.8549278,-3.628226 h 6.847889 c 2.134492,0 3.854928,1.618189 3.854928,3.628226 0,2.010037 -1.720436,3.628226 -3.854928,3.628226 h 0.407041 c 2.058044,0 3.719741,-1.690909 3.819015,-3.829795 -0.09996,-2.138884 -1.773154,-3.829793 -3.842959,-3.829793 z"
     id="rect3136"
     style="color:#000000;display:inline;overflow:visible;visibility:visible;opacity:0.15;fill:#002e99;fill-opacity:1;fill-rule:nonzero;stroke:none;stroke-width:1;marker:none;enable-background:accumulate;stroke-miterlimit:4;stroke-dasharray:none"
     inkscape:connector-curvature="0" />
  <path
     d="m 6.8386075,6.9136702 a 0.37777884,0.37777884 0 0 1 -0.7555573,0 0.37777884,0.37777884 0 1 1 0.7555573,0 z"
     id="path4356-7-9"
     style="color:#000000;display:inline;overflow:visible;visibility:visible;fill:#ffffff;fill-opacity:1;fill-rule:evenodd;stroke:none;stroke-width:1;marker:none;enable-background:accumulate;stroke-miterlimit:4;stroke-dasharray:none"
     inkscape:connector-curvature="0" />
  <path
     d="m 6.8386075,6.535892 a 0.37777884,0.37777884 0 0 1 -0.7555573,0 0.37777884,0.37777884 0 1 1 0.7555573,0 z"
     id="path4356-9"
     style="color:#000000;display:inline;overflow:visible;visibility:visible;opacity:0.3;fill:#000000;fill-opacity:1;fill-rule:evenodd;stroke:none;stroke-width:1;marker:none;enable-background:accumulate;stroke-miterlimit:4;stroke-dasharray:none"
     inkscape:connector-curvature="0" />
  <path
     d="m 25.916857,6.9136702 a 0.37777877,0.37777877 0 0 1 -0.755556,0 0.37777877,0.37777877 0 1 1 0.755556,0 z"
     id="path4356-7-6-7"
     style="color:#000000;display:inline;overflow:visible;visibility:visible;fill:#ffffff;fill-opacity:1;fill-rule:evenodd;stroke:none;stroke-width:1;marker:none;enable-background:accumulate;stroke-miterlimit:4;stroke-dasharray:none"
     inkscape:connector-curvature="0" />
  <path
     d="m 25.916857,6.535892 a 0.37777877,0.37777877 0 0 1 -0.755556,0 0.37777877,0.37777877 0 1 1 0.755556,0 z"
     id="path4356-8-9"
     style="color:#000000;display:inline;overflow:visible;visibility:visible;opacity:0.3;fill:#000000;fill-opacity:1;fill-rule:evenodd;stroke:none;stroke-width:1;marker:none;enable-background:accumulate;stroke-miterlimit:4;stroke-dasharray:none"
     inkscape:connector-curvature="0" />
  <path
     d="m 6.8386075,25.991686 a 0.37777884,0.37777884 0 0 1 -0.7555573,0 0.37777884,0.37777884 0 1 1 0.7555573,0 z"
     id="path4356-7-9-3"
     style="color:#000000;display:inline;overflow:visible;visibility:visible;fill:#ffffff;fill-opacity:1;fill-rule:evenodd;stroke:none;stroke-width:1;marker:none;enable-background:accumulate;stroke-miterlimit:4;stroke-dasharray:none"
     inkscape:connector-curvature="0" />
  <path
     d="m 6.8386075,25.613907 a 0.37777884,0.37777884 0 0 1 -0.7555573,0 0.37777884,0.37777884 0 1 1 0.7555573,0 z"
     id="path4356-9-1"
     style="color:#000000;display:inline;overflow:visible;visibility:visible;opacity:0.3;fill:#000000;fill-opacity:1;fill-rule:evenodd;stroke:none;stroke-width:1;marker:none;enable-background:accumulate;stroke-miterlimit:4;stroke-dasharray:none"
     inkscape:connector-curvature="0" />
  <path
     d="m 25.916857,25.991686 a 0.37777877,0.37777877 0 0 1 -0.755556,0 0.37777877,0.37777877 0 1 1 0.755556,0 z"
     id="path4356-7-6-7-1"
     style="color:#000000;display:inline;overflow:visible;visibility:visible;fill:#ffffff;fill-opacity:1;fill-rule:evenodd;stroke:none;stroke-width:1;marker:none;enable-background:accumulate;stroke-miterlimit:4;stroke-dasharray:none"
     inkscape:connector-curvature="0" />
  <path
     d="m 25.916857,25.613907 a 0.37777877,0.37777877 0 0 1 -0.755556,0 0.37777877,0.37777877 0 1 1 0.755556,0 z"
     id="path4356-8-9-8"
     style="color:#000000;display:inline;overflow:visible;visibility:visible;opacity:0.3;fill:#000000;fill-opacity:1;fill-rule:evenodd;stroke:none;stroke-width:1;marker:none;enable-background:accumulate;stroke-miterlimit:4;stroke-dasharray:none"
     inkscape:connector-curvature="0" />
  <path
     style="color:#000000;display:inline;overflow:visible;visibility:visible;opacity:0.15;fill:#000000;fill-opacity:1;fill-rule:nonzero;stroke:none;stroke-width:1;marker:none;enable-background:accumulate;stroke-miterlimit:4;stroke-dasharray:none"
     id="path2555-7-1-9-4-9"
     d="m 19.825,13.525 c 2.110502,0 3.825,1.714496 3.825,3.825002 0,2.110502 -1.714498,3.824998 -3.825,3.824998 -2.110506,0 -3.825003,-1.714496 -3.825,-3.824998 C 16,15.239496 17.714494,13.525 19.825,13.525 Z"
     inkscape:connector-curvature="0" />
  <path
     style="color:#000000;display:inline;overflow:visible;visibility:visible;fill:url(#linearGradient3869);fill-opacity:1;fill-rule:nonzero;stroke:none;stroke-width:1;marker:none;enable-background:accumulate;stroke-miterlimit:4;stroke-dasharray:none"
     id="path2555-7-1-9-4"
     d="m 19.825,13.1 c 1.876002,0 3.4,1.523997 3.4,3.4 0,1.876004 -1.523998,3.400001 -3.4,3.400001 -1.876004,0 -3.400003,-1.523997 -3.4,-3.400001 0,-1.876003 1.523996,-3.4 3.4,-3.4 z"
     inkscape:connector-curvature="0" />
  <path
     style="color:#000000;display:inline;overflow:visible;visibility:visible;fill:none;stroke:url(#linearGradient3866);stroke-width:1;stroke-linecap:round;stroke-linejoin:round;stroke-miterlimit:4;stroke-dasharray:none;stroke-dashoffset:0;stroke-opacity:1;marker:none;enable-background:accumulate"
     id="path8655-6-0-5-2"
     d="m 17.275,16.499909 c 0,1.408374 1.141759,2.550091 2.549969,2.550091 1.408337,0 2.550031,-1.141731 2.550031,-2.550091 0,-1.408305 -1.141694,-2.549908 -2.550031,-2.549908 -1.40821,0 -2.549969,1.141603 -2.549969,2.549908 z"
     inkscape:connector-curvature="0" />
  <path
     style="color:#000000;display:inline;overflow:visible;visibility:visible;opacity:0.5;fill:none;stroke:#656565;stroke-width:1;stroke-linecap:round;stroke-linejoin:round;stroke-miterlimit:4;stroke-dasharray:none;stroke-dashoffset:0;stroke-opacity:1;marker:none;enable-background:accumulate"
     id="path2555-7-1-9-9-41"
     d="m 19.825001,13.100001 c 1.876003,0 3.399999,1.523996 3.399999,3.4 0,1.876003 -1.523996,3.399999 -3.399999,3.399999 -1.876005,0 -3.400004,-1.523996 -3.400001,-3.399999 0,-1.876004 1.523996,-3.4 3.400001,-3.4 z"
     inkscape:connector-curvature="0" />
</svg>
