<?xml version="1.0" encoding="UTF-8" standalone="no"?>
<svg
   xmlns:osb="http://www.openswatchbook.org/uri/2009/osb"
   xmlns:dc="http://purl.org/dc/elements/1.1/"
   xmlns:cc="http://creativecommons.org/ns#"
   xmlns:rdf="http://www.w3.org/1999/02/22-rdf-syntax-ns#"
   xmlns:svg="http://www.w3.org/2000/svg"
   xmlns="http://www.w3.org/2000/svg"
   xmlns:xlink="http://www.w3.org/1999/xlink"
   xmlns:sodipodi="http://sodipodi.sourceforge.net/DTD/sodipodi-0.dtd"
   xmlns:inkscape="http://www.inkscape.org/namespaces/inkscape"
   id="svg6860"
   height="32"
   width="32"
   version="1.1"
   sodipodi:docname="sharing.svg"
   inkscape:version="0.92.4 (5da689c313, 2019-01-14)">
  <sodipodi:namedview
     pagecolor="#ffffff"
     bordercolor="#666666"
     borderopacity="1"
     objecttolerance="10"
     gridtolerance="10"
     guidetolerance="10"
     inkscape:pageopacity="0"
     inkscape:pageshadow="2"
     inkscape:window-width="2880"
     inkscape:window-height="1706"
     id="namedview38"
     showgrid="false"
     inkscape:zoom="7.375"
     inkscape:cx="-1.4237288"
     inkscape:cy="16"
     inkscape:window-x="-11"
     inkscape:window-y="-11"
     inkscape:window-maximized="1"
     inkscape:current-layer="svg6860" />
  <defs
     id="defs6862">
    <linearGradient
       id="linearGradient851">
      <stop
         id="stop847"
         offset="0"
         style="stop-color:#cd9ef7;stop-opacity:1" />
      <stop
         id="stop849"
         offset="1"
         style="stop-color:#a56de2;stop-opacity:1" />
    </linearGradient>
    <linearGradient
       id="linearGradient3924-0">
      <stop
         offset="0"
         style="stop-color:#ffffff;stop-opacity:1"
         id="stop3926-6" />
      <stop
         offset="0.04026113"
         style="stop-color:#ffffff;stop-opacity:0.23529412"
         id="stop3928-3" />
      <stop
         offset="0.95833337"
         style="stop-color:#ffffff;stop-opacity:0.15686275"
         id="stop3930-2" />
      <stop
         offset="1"
         style="stop-color:#ffffff;stop-opacity:0.39215687"
         id="stop3932-62" />
    </linearGradient>
    <linearGradient
       id="linearGradient3688-166-749-6">
      <stop
         offset="0"
         style="stop-color:#181818;stop-opacity:1"
         id="stop2883-8" />
      <stop
         offset="1"
         style="stop-color:#181818;stop-opacity:0"
         id="stop2885-3" />
    </linearGradient>
    <linearGradient
       id="linearGradient3702-501-757-3">
      <stop
         offset="0"
         style="stop-color:#181818;stop-opacity:0"
         id="stop2895-3" />
      <stop
         offset="0.5"
         style="stop-color:#181818;stop-opacity:1"
         id="stop2897-28" />
      <stop
         offset="1"
         style="stop-color:#181818;stop-opacity:0"
         id="stop2899-8" />
    </linearGradient>
    <linearGradient
       osb:paint="solid"
       id="linearGradient4526">
      <stop
         id="stop4528"
         offset="0"
         style="stop-color:#ffffff;stop-opacity:1;" />
    </linearGradient>
    <linearGradient
       gradientTransform="matrix(0.57432433,0,0,0.57432433,2.2162155,2.2912251)"
       gradientUnits="userSpaceOnUse"
       xlink:href="#linearGradient3924-0"
       id="linearGradient4161-0"
       y2="41.759983"
       x2="23.99999"
       y1="6.2399845"
       x1="23.99999" />
    <radialGradient
       gradientTransform="matrix(2.003784,0,0,1.4,27.98813,-17.4)"
       gradientUnits="userSpaceOnUse"
       xlink:href="#linearGradient3688-166-749-6"
       id="radialGradient2976-2"
       fy="43.5"
       fx="4.9929786"
       r="2.5"
       cy="43.5"
       cx="4.9929786" />
    <radialGradient
       gradientTransform="matrix(2.003784,0,0,1.4,-20.01187,-104.4)"
       gradientUnits="userSpaceOnUse"
       xlink:href="#linearGradient3688-166-749-6"
       id="radialGradient2978-5"
       fy="43.5"
       fx="4.9929786"
       r="2.5"
       cy="43.5"
       cx="4.9929786" />
    <linearGradient
       xlink:href="#linearGradient3702-501-757-3"
       id="linearGradient5014"
       gradientUnits="userSpaceOnUse"
       x1="25.058096"
       y1="47.027729"
       x2="25.058096"
       y2="39.999443" />
    <linearGradient
       gradientUnits="userSpaceOnUse"
       y2="29.317852"
       x2="18.145243"
       y1="2.6821489"
       x1="18.145243"
       id="linearGradient853"
       xlink:href="#linearGradient851"
       gradientTransform="matrix(0.85,0,0,0.85,2.3999999,2.475)" />
  </defs>
  <metadata
     id="metadata6865">
    <rdf:RDF>
      <cc:Work
         rdf:about="">
        <dc:format>image/svg+xml</dc:format>
        <dc:type
           rdf:resource="http://purl.org/dc/dcmitype/StillImage" />
        <dc:title />
      </cc:Work>
    </rdf:RDF>
  </metadata>
  <g
     transform="matrix(0.59499974,0,0,0.28333356,1.7199997,15.50833)"
     id="g2036-2-5"
     style="display:inline;stroke-width:2.43552506;stroke-miterlimit:4;stroke-dasharray:none">
    <g
       transform="matrix(1.052632,0,0,1.285713,-1.263158,-13.42854)"
       id="g3712-3-1"
       style="opacity:0.4;stroke-width:2.093545;stroke-miterlimit:4;stroke-dasharray:none">
      <rect
         width="5"
         height="7"
         x="38"
         y="40"
         id="rect2801-0-5"
         style="fill:url(#radialGradient2976-2);fill-opacity:1;stroke:none;stroke-width:2.093545;stroke-miterlimit:4;stroke-dasharray:none" />
      <rect
         width="5"
         height="7"
         x="-10"
         y="-47"
         transform="scale(-1)"
         id="rect3696-2-7"
         style="fill:url(#radialGradient2978-5);fill-opacity:1;stroke:none;stroke-width:2.093545;stroke-miterlimit:4;stroke-dasharray:none" />
      <rect
         width="28"
         height="7.0000005"
         x="10"
         y="40"
         id="rect3700-1-6"
         style="fill:url(#linearGradient5014);fill-opacity:1;stroke:none;stroke-width:2.093545;stroke-miterlimit:4;stroke-dasharray:none" />
    </g>
  </g>
  <rect
     width="22.950001"
     height="22.950001"
     rx="1.8360001"
     ry="1.8360001"
     x="4.5250001"
     y="4.6000004"
     id="rect5505-9"
     style="color:#000000;display:inline;overflow:visible;visibility:visible;fill:url(#linearGradient853);fill-opacity:1;fill-rule:nonzero;stroke:none;stroke-width:1;marker:none;enable-background:accumulate;stroke-miterlimit:4;stroke-dasharray:none" />
  <rect
     width="21.25"
     height="21.25"
     rx="0.923913"
     ry="0.923913"
     x="5.375"
     y="5.4500003"
     id="rect6741-7-4-90"
     style="opacity:0.5;fill:none;stroke:url(#linearGradient4161-0);stroke-width:1;stroke-linecap:round;stroke-linejoin:round;stroke-miterlimit:4;stroke-dasharray:none;stroke-dashoffset:0;stroke-opacity:1" />
  <rect
     width="22.950001"
     height="22.950001"
     rx="1.8360001"
     ry="1.8360001"
     x="4.5249991"
     y="4.6000004"
     id="rect5505-6-5"
     style="color:#000000;clip-rule:nonzero;display:inline;overflow:visible;visibility:visible;opacity:0.5;isolation:auto;mix-blend-mode:normal;color-interpolation:sRGB;color-interpolation-filters:linearRGB;solid-color:#000000;solid-opacity:1;fill:none;fill-opacity:1;fill-rule:nonzero;stroke:#7239b3;stroke-width:1;stroke-linecap:butt;stroke-linejoin:miter;stroke-miterlimit:4;stroke-dasharray:none;stroke-dashoffset:0;stroke-opacity:1;marker:none;color-rendering:auto;image-rendering:auto;shape-rendering:auto;text-rendering:auto;enable-background:accumulate" />
  <path
     style="color:#000000;clip-rule:nonzero;display:inline;overflow:visible;visibility:visible;opacity:0.15;isolation:auto;mix-blend-mode:normal;color-interpolation:sRGB;color-interpolation-filters:linearRGB;solid-color:#000000;solid-opacity:1;fill:#452981;fill-opacity:1;fill-rule:evenodd;stroke:none;stroke-width:1;stroke-linecap:butt;stroke-linejoin:round;stroke-miterlimit:4;stroke-dasharray:none;stroke-dashoffset:0;stroke-opacity:1;color-rendering:auto;image-rendering:auto;shape-rendering:auto;text-rendering:auto;enable-background:accumulate"
     d="M 18.975,10.975 A 2.125,2.125 0 0 0 16.85,13.1 2.125,2.125 0 0 0 16.92471,13.656152 L 13.57285,15.75127 A 2.125,2.125 0 0 0 12.175,15.225 2.125,2.125 0 0 0 10.05,17.35 a 2.125,2.125 0 0 0 2.125,2.125 2.125,2.125 0 0 0 1.361328,-0.494726 l 3.378418,2.111718 A 2.125,2.125 0 0 0 16.85,21.6 2.125,2.125 0 0 0 18.975,23.725 2.125,2.125 0 0 0 21.1,21.6 2.125,2.125 0 0 0 18.975,19.475 2.125,2.125 0 0 0 17.577149,20.00293 L 14.223632,17.906152 A 2.125,2.125 0 0 0 14.3,17.35 2.125,2.125 0 0 0 14.235255,16.840332 l 3.376758,-2.110058 A 2.125,2.125 0 0 0 18.975,15.225 2.125,2.125 0 0 0 21.1,13.1 2.125,2.125 0 0 0 18.975,10.975 Z"
     id="path8357-1"
     inkscape:connector-curvature="0" />
  <path
     id="path8359-2"
     d="M 18.975,10.975 A 2.125,2.125 0 0 0 16.85,13.1 2.125,2.125 0 0 0 16.92471,13.656152 L 13.57285,15.75127 A 2.125,2.125 0 0 0 12.175,15.225 2.125,2.125 0 0 0 10.05,17.35 a 2.125,2.125 0 0 0 2.125,2.125 2.125,2.125 0 0 0 1.361328,-0.494726 l 3.378418,2.111718 A 2.125,2.125 0 0 0 16.85,21.6 2.125,2.125 0 0 0 18.975,23.725 2.125,2.125 0 0 0 21.1,21.6 2.125,2.125 0 0 0 18.975,19.475 2.125,2.125 0 0 0 17.577149,20.00293 L 14.223632,17.906152 A 2.125,2.125 0 0 0 14.3,17.35 2.125,2.125 0 0 0 14.235255,16.840332 l 3.376758,-2.110058 A 2.125,2.125 0 0 0 18.975,15.225 2.125,2.125 0 0 0 21.1,13.1 2.125,2.125 0 0 0 18.975,10.975 Z"
     style="color:#000000;clip-rule:nonzero;display:inline;overflow:visible;visibility:visible;opacity:0.05;isolation:auto;mix-blend-mode:normal;color-interpolation:sRGB;color-interpolation-filters:linearRGB;solid-color:#000000;solid-opacity:1;fill:#452981;fill-opacity:1;fill-rule:evenodd;stroke:#000000;stroke-width:1;stroke-linecap:butt;stroke-linejoin:round;stroke-miterlimit:4;stroke-dasharray:none;stroke-dashoffset:0;stroke-opacity:1;color-rendering:auto;image-rendering:auto;shape-rendering:auto;text-rendering:auto;enable-background:accumulate"
     inkscape:connector-curvature="0" />
  <path
     id="path8343-1"
     d="m 18.975,10.125 a 2.125,2.125 0 0 0 -2.125,2.125 2.125,2.125 0 0 0 0.07471,0.556152 L 13.57285,14.90127 A 2.125,2.125 0 0 0 12.175,14.375 2.125,2.125 0 0 0 10.05,16.5 a 2.125,2.125 0 0 0 2.125,2.125 2.125,2.125 0 0 0 1.361328,-0.494726 l 3.378418,2.111718 A 2.125,2.125 0 0 0 16.85,20.75 2.125,2.125 0 0 0 18.975,22.875 2.125,2.125 0 0 0 21.1,20.75 2.125,2.125 0 0 0 18.975,18.625 2.125,2.125 0 0 0 17.577149,19.15293 L 14.223632,17.056152 A 2.125,2.125 0 0 0 14.3,16.5 2.125,2.125 0 0 0 14.235255,15.990332 l 3.376758,-2.110058 A 2.125,2.125 0 0 0 18.975,14.375 2.125,2.125 0 0 0 21.1,12.25 2.125,2.125 0 0 0 18.975,10.125 Z"
     style="color:#000000;clip-rule:nonzero;display:inline;overflow:visible;visibility:visible;opacity:1;isolation:auto;mix-blend-mode:normal;color-interpolation:sRGB;color-interpolation-filters:linearRGB;solid-color:#000000;solid-opacity:1;fill:#ffffff;fill-opacity:1;fill-rule:evenodd;stroke:none;stroke-width:1;stroke-linecap:butt;stroke-linejoin:round;stroke-miterlimit:4;stroke-dasharray:none;stroke-dashoffset:0;stroke-opacity:1;color-rendering:auto;image-rendering:auto;shape-rendering:auto;text-rendering:auto;enable-background:accumulate"
     inkscape:connector-curvature="0" />
</svg>
