<?xml version="1.0" encoding="UTF-8" standalone="no"?>
<svg
   xmlns:dc="http://purl.org/dc/elements/1.1/"
   xmlns:cc="http://creativecommons.org/ns#"
   xmlns:rdf="http://www.w3.org/1999/02/22-rdf-syntax-ns#"
   xmlns:svg="http://www.w3.org/2000/svg"
   xmlns="http://www.w3.org/2000/svg"
   xmlns:xlink="http://www.w3.org/1999/xlink"
   xmlns:sodipodi="http://sodipodi.sourceforge.net/DTD/sodipodi-0.dtd"
   xmlns:inkscape="http://www.inkscape.org/namespaces/inkscape"
   version="1.1"
   width="32"
   height="32"
   id="svg4248"
   sodipodi:docname="shutdown.svg"
   inkscape:version="0.92.4 (5da689c313, 2019-01-14)">
  <sodipodi:namedview
     pagecolor="#ffffff"
     bordercolor="#666666"
     borderopacity="1"
     objecttolerance="10"
     gridtolerance="10"
     guidetolerance="10"
     inkscape:pageopacity="0"
     inkscape:pageshadow="2"
     inkscape:window-width="2880"
     inkscape:window-height="1706"
     id="namedview29"
     showgrid="false"
     inkscape:zoom="7.375"
     inkscape:cx="-1.4237288"
     inkscape:cy="16"
     inkscape:window-x="-11"
     inkscape:window-y="-11"
     inkscape:window-maximized="1"
     inkscape:current-layer="svg4248" />
  <defs
     id="defs4250">
    <linearGradient
       id="linearGradient4011-4">
      <stop
         id="stop4013-8"
         style="stop-color:#ffffff;stop-opacity:1"
         offset="0" />
      <stop
         id="stop4015-5"
         style="stop-color:#ffffff;stop-opacity:0.23529412"
         offset="0.507761" />
      <stop
         id="stop4017-6"
         style="stop-color:#ffffff;stop-opacity:0.15686275"
         offset="0.83456558" />
      <stop
         id="stop4019-1"
         style="stop-color:#ffffff;stop-opacity:0.39215687"
         offset="1" />
    </linearGradient>
    <linearGradient
       x1="71.204407"
       y1="6.2375584"
       x2="71.204407"
       y2="44.340794"
       id="linearGradient3089"
       xlink:href="#linearGradient4011-4"
       gradientUnits="userSpaceOnUse"
       gradientTransform="matrix(0.62027024,0,0,0.62027024,-28.494164,0.34665821)" />
    <radialGradient
       cx="0.96534902"
       cy="8.4497671"
       r="19.99999"
       fx="0.96534902"
       fy="8.4497671"
       id="radialGradient3092"
       xlink:href="#linearGradient2867-449-88-871-390-598-476-591-434-148-57-177-8-3-3-6-4-8-8-8-5"
       gradientUnits="userSpaceOnUse"
       gradientTransform="matrix(0,4.037502,-4.2711955,-1.13499e-7,52.090678,-12.472598)" />
    <linearGradient
       id="linearGradient3820-7-2-2">
      <stop
         id="stop3822-2-6-36"
         style="stop-color:#3d3d3d;stop-opacity:1"
         offset="0" />
      <stop
         id="stop3864-8-7-6"
         style="stop-color:#686868;stop-opacity:0.49803922"
         offset="0.5" />
      <stop
         id="stop3824-1-2-4"
         style="stop-color:#686868;stop-opacity:0"
         offset="1" />
    </linearGradient>
    <radialGradient
       cx="99.157013"
       cy="186.17059"
       r="62.769119"
       fx="99.157013"
       fy="186.17059"
       id="radialGradient3315"
       xlink:href="#linearGradient3820-7-2-2"
       gradientUnits="userSpaceOnUse"
       gradientTransform="matrix(0.1489586,0,0,0.04739593,1.2297114,17.875783)" />
    <linearGradient
       id="linearGradient2867-449-88-871-390-598-476-591-434-148-57-177-8-3-3-6-4-8-8-8-5">
      <stop
         id="stop3750-1-0-7-6-6-1-3-9-3"
         style="stop-color:#919caf;stop-opacity:1"
         offset="0" />
      <stop
         id="stop3752-3-7-4-0-32-8-923-0-7"
         style="stop-color:#68758e;stop-opacity:1"
         offset="0.26238" />
      <stop
         id="stop3754-1-8-5-2-7-6-7-1-9"
         style="stop-color:#485a6c;stop-opacity:1"
         offset="0.704952" />
      <stop
         id="stop3756-1-6-2-6-6-1-96-6-0"
         style="stop-color:#444c5c;stop-opacity:1"
         offset="1" />
    </linearGradient>
  </defs>
  <metadata
     id="metadata4253">
    <rdf:RDF>
      <cc:Work
         rdf:about="">
        <dc:format>image/svg+xml</dc:format>
        <dc:type
           rdf:resource="http://purl.org/dc/dcmitype/StillImage" />
        <dc:title />
      </cc:Work>
    </rdf:RDF>
  </metadata>
  <path
     d="m 25.350001,26.699509 a 9.35,2.9749999 0 1 1 -18.6999999,0 9.35,2.9749999 0 1 1 18.6999999,0 z"
     id="path3818-0-2"
     style="fill:url(#radialGradient3315);fill-opacity:1;stroke:none;stroke-width:1;stroke-miterlimit:4;stroke-dasharray:none"
     inkscape:connector-curvature="0" />
  <path
     d="M 16.000002,3.749999 C 9.199492,3.749999 3.675,9.274488 3.675,16.074998 3.675,22.87551 9.199492,28.400002 16.000002,28.4 22.800509,28.4 28.325006,22.87551 28.325,16.074998 28.325,9.274488 22.800509,3.749999 16.000002,3.749999 Z"
     id="path2555"
     style="color:#000000;display:inline;overflow:visible;visibility:visible;fill:url(#radialGradient3092);fill-opacity:1;fill-rule:nonzero;stroke:none;stroke-width:1;marker:none;enable-background:accumulate;stroke-miterlimit:4;stroke-dasharray:none"
     inkscape:connector-curvature="0" />
  <path
     d="m 16.000002,3.749999 c -6.8005103,0 -12.325002,5.5244893 -12.325002,12.325 0,6.80051 5.5244917,12.325003 12.325002,12.325001 6.800506,0 12.325005,-5.524491 12.324998,-12.325001 0,-6.8005107 -5.524492,-12.325 -12.324998,-12.325 z"
     id="path2555-6"
     style="color:#000000;clip-rule:nonzero;display:inline;overflow:visible;visibility:visible;opacity:0.5;isolation:auto;mix-blend-mode:normal;color-interpolation:sRGB;color-interpolation-filters:linearRGB;solid-color:#000000;solid-opacity:1;fill:none;fill-opacity:1;fill-rule:nonzero;stroke:#1c2c38;stroke-width:1;stroke-linecap:round;stroke-linejoin:round;stroke-miterlimit:4;stroke-dasharray:none;stroke-dashoffset:0;stroke-opacity:1;marker:none;color-rendering:auto;image-rendering:auto;shape-rendering:auto;text-rendering:auto;enable-background:accumulate"
     inkscape:connector-curvature="0" />
  <path
     d="m 27.475,16.074593 c 0,6.337672 -5.137911,11.475406 -11.474855,11.475406 C 9.662621,27.549999 4.525,22.412206 4.525,16.074593 4.525,9.7372136 9.662621,4.6000001 16.000145,4.6000001 c 6.336944,0 11.474855,5.1372135 11.474855,11.4745929 z"
     id="path8655"
     style="color:#000000;display:inline;overflow:visible;visibility:visible;opacity:0.3;fill:none;stroke:url(#linearGradient3089);stroke-width:1;stroke-linecap:round;stroke-linejoin:round;stroke-miterlimit:4;stroke-dasharray:none;stroke-dashoffset:0;stroke-opacity:1;marker:none;enable-background:accumulate"
     inkscape:connector-curvature="0" />
  <path
     style="color:#000000;clip-rule:nonzero;display:inline;overflow:visible;visibility:visible;opacity:0.15;isolation:auto;mix-blend-mode:normal;color-interpolation:sRGB;color-interpolation-filters:linearRGB;solid-color:#000000;solid-opacity:1;fill:#1c2c38;fill-opacity:1;fill-rule:nonzero;stroke:none;stroke-width:1;stroke-linecap:butt;stroke-linejoin:miter;stroke-miterlimit:4;stroke-dasharray:none;stroke-dashoffset:0;stroke-opacity:1;marker:none;color-rendering:auto;image-rendering:auto;shape-rendering:auto;text-rendering:auto;enable-background:accumulate"
     id="path4670"
     d="m 16,7.2346679 c -1.077221,0 -1.968945,0.8949665 -1.968945,1.9706055 V 10.800684 C 13.664986,10.296877 13.157702,9.9158202 12.49541,9.9158202 c -0.396818,0 -0.678491,0.1365038 -0.85332,0.2191408 a 0.87022753,0.87022753 0 0 0 -0.07803,0.0415 l -0.343652,0.207519 a 0.87022753,0.87022753 0 0 0 -0.02989,0.01826 c -1.7506947,1.154739 -2.9580835,2.947726 -3.4431587,5.015332 -0.012869,0.01267 -0.03984,0.03818 -0.039844,0.03818 -2.13e-5,2.9e-5 -0.1560488,0.358562 -0.1560546,0.358593 a 0.87022753,0.87022753 0 0 0 -0.00332,0.01494 c -0.056352,0.3344 -0.033817,0.402155 -0.00332,0.192578 l 0.00166,-0.005 c -0.05051,0.336929 -0.1128907,0.720374 -0.1128907,1.160449 0,4.586775 3.862112,8.29082 8.566406,8.29082 4.704294,0 8.566405,-3.704045 8.566406,-8.29082 0,-0.366451 -0.03131,-0.713697 -0.07471,-1.042579 a 0.87022753,0.87022753 0 0 0 -0.0017,-0.0017 c -0.03438,-0.256808 -0.08108,-0.356031 -0.07305,-0.310448 -0.397678,-2.257489 -1.73407,-4.184708 -3.60752,-5.420411 a 0.87022753,0.87022753 0 0 0 -0.02989,-0.01826 L 20.435934,10.17647 a 0.87022753,0.87022753 0 0 0 -0.07803,-0.0415 c -0.174841,-0.08266 -0.456505,-0.21915 -0.853314,-0.2191498 -0.662292,0 -1.169576,0.3810568 -1.535645,0.8848638 V 9.2052734 C 17.968945,8.1296328 17.07722,7.2346679 16,7.2346679 Z m -1.968945,5.8902341 v 2.677833 c 0,1.075638 0.893306,1.968945 1.968945,1.968945 1.075638,0 1.968945,-0.893305 1.968945,-1.968945 v -2.677833 c 0.09918,0.124159 0.179638,0.26754 0.300489,0.365234 0.128366,0.103784 0.280718,0.209207 0.484765,0.295509 l -0.142773,-0.07803 c 0.894595,0.595283 1.553517,1.484362 1.844434,2.505175 0.08985,0.315307 0.108908,0.34872 0.02989,0.05811 0.09435,0.346617 0.142773,0.696195 0.142773,1.077441 0,2.440225 -2.043816,4.422657 -4.628516,4.422657 -2.584699,0 -4.628516,-1.982432 -4.628515,-4.422657 0,-0.381244 0.04842,-0.730821 0.142773,-1.077441 a 0.87022753,0.87022753 0 0 0 0,-0.0017 c -0.0767,0.28284 -0.06261,0.267948 0.02989,-0.05645 0.290917,-1.020813 0.949838,-1.909893 1.844434,-2.505176 l -0.142773,0.07803 c 0.20407,-0.08631 0.356414,-0.191741 0.484765,-0.295508 0.120851,-0.09769 0.201304,-0.241075 0.300489,-0.365234 z"
     inkscape:connector-curvature="0" />
  <path
     d="m 12.495052,10.785181 c -0.173114,0 -0.334303,0.06808 -0.481073,0.137449 l -0.343621,0.206173 c -1.6866047,1.112462 -2.8753553,2.831591 -3.2300505,4.845076 -3.78e-4,0.0022 -0.033986,-0.002 -0.034365,0 -0.00934,0.05545 0.00813,0.11591 0,0.171811 -0.050908,0.33959 -0.1030869,0.675777 -0.1030869,1.030867 0,4.099192 3.4461284,7.422243 7.6971414,7.422243 4.251014,0 7.697141,-3.323051 7.697141,-7.422243 0,-0.315318 -0.02845,-0.62257 -0.06872,-0.927781 -0.01271,-0.09492 -0.05222,-0.181288 -0.06872,-0.274897 C 23.205,13.960394 22.016249,12.241265 20.329644,11.128803 L 19.986022,10.92263 c -0.146769,-0.06938 -0.307957,-0.137449 -0.481072,-0.137449 -0.626157,0 -1.133953,0.507795 -1.133953,1.133953 0,0.356358 0.189604,0.685575 0.446709,0.893418 0.08171,0.06606 0.176756,0.130302 0.274897,0.171811 1.062504,0.707013 1.849889,1.763854 2.199184,2.989516 0.0066,0.02338 0.02799,0.04528 0.03437,0.06872 0.114282,0.419833 0.171811,0.850191 0.171811,1.305765 0,2.927995 -2.461519,5.291785 -5.497958,5.291785 -3.036439,0 -5.497958,-2.36379 -5.497958,-5.291785 0,-0.455574 0.05753,-0.885932 0.171811,-1.305765 0.0066,-0.02445 0.02744,-0.04442 0.03436,-0.06872 0.349295,-1.225662 1.13668,-2.282503 2.199184,-2.989516 0.09814,-0.04151 0.193182,-0.105747 0.274897,-0.171811 0.257106,-0.207843 0.44671,-0.53706 0.44671,-0.893418 0,-0.626158 -0.507796,-1.133953 -1.133953,-1.133953 z M 16,8.1049265 c 0.609173,0 1.099591,0.4904178 1.099591,1.0995914 v 6.5975491 c 0,0.609174 -0.490418,1.099592 -1.099591,1.099592 -0.609175,0 -1.099592,-0.490418 -1.099592,-1.099592 V 9.2045179 c 0,-0.6091736 0.490417,-1.0995914 1.099592,-1.0995914 z"
     id="path3782-3"
     style="color:#000000;clip-rule:nonzero;display:inline;overflow:visible;visibility:visible;opacity:0.3;isolation:auto;mix-blend-mode:normal;color-interpolation:sRGB;color-interpolation-filters:linearRGB;solid-color:#000000;solid-opacity:1;fill:#1c2c38;fill-opacity:1;fill-rule:nonzero;stroke:none;stroke-width:1;stroke-linecap:butt;stroke-linejoin:miter;stroke-miterlimit:4;stroke-dasharray:none;stroke-dashoffset:0;stroke-opacity:1;marker:none;color-rendering:auto;image-rendering:auto;shape-rendering:auto;text-rendering:auto;enable-background:accumulate"
     inkscape:connector-curvature="0" />
  <path
     d="m 12.495052,9.9350074 c -0.173114,0 -0.334303,0.068075 -0.481073,0.1374486 l -0.343621,0.206174 c -1.6866047,1.112462 -2.8753553,2.83159 -3.2300505,4.845075 -3.78e-4,0.0022 -0.033986,-0.002 -0.034365,0 -0.00934,0.05545 0.00813,0.115911 0,0.171812 -0.050908,0.339589 -0.1030869,0.675776 -0.1030869,1.030866 0,4.099192 3.4461284,7.422244 7.6971414,7.422244 4.251014,0 7.697141,-3.323052 7.697141,-7.422244 0,-0.315318 -0.02845,-0.62257 -0.06872,-0.92778 -0.01271,-0.09492 -0.05222,-0.181288 -0.06872,-0.274898 C 23.205,13.11022 22.016249,11.391092 20.329644,10.27863 l -0.343622,-0.206174 c -0.146769,-0.06938 -0.307957,-0.1374486 -0.481072,-0.1374486 -0.626157,0 -1.133953,0.5077956 -1.133953,1.1339536 0,0.356358 0.189604,0.685575 0.446709,0.893418 0.08171,0.06606 0.176756,0.130302 0.274897,0.171811 1.062504,0.707013 1.849889,1.763854 2.199184,2.989515 0.0066,0.02338 0.02799,0.04528 0.03437,0.06872 0.114282,0.419833 0.171811,0.85019 0.171811,1.305765 0,2.927995 -2.461519,5.291784 -5.497958,5.291784 -3.036439,0 -5.497958,-2.363789 -5.497958,-5.291784 0,-0.455575 0.05753,-0.885932 0.171811,-1.305765 0.0066,-0.02445 0.02744,-0.04442 0.03436,-0.06872 0.349295,-1.225661 1.13668,-2.282502 2.199184,-2.989515 0.09814,-0.04151 0.193182,-0.105748 0.274897,-0.171811 0.257106,-0.207843 0.44671,-0.53706 0.44671,-0.893418 0,-0.626158 -0.507796,-1.1339536 -1.133953,-1.1339536 z M 16,7.2547531 c 0.609173,0 1.099591,0.4904178 1.099591,1.0995914 v 6.5975495 c 0,0.609174 -0.490418,1.099592 -1.099591,1.099592 -0.609175,0 -1.099592,-0.490418 -1.099592,-1.099592 V 8.3543445 c 0,-0.6091736 0.490417,-1.0995914 1.099592,-1.0995914 z"
     id="path3782"
     style="color:#000000;display:inline;overflow:visible;visibility:visible;opacity:1;fill:#ffffff;fill-opacity:1;fill-rule:nonzero;stroke:none;stroke-width:1;marker:none;enable-background:accumulate;stroke-miterlimit:4;stroke-dasharray:none"
     inkscape:connector-curvature="0" />
</svg>
