<?xml version="1.0" encoding="UTF-8" standalone="no"?>
<svg
   xmlns:dc="http://purl.org/dc/elements/1.1/"
   xmlns:cc="http://creativecommons.org/ns#"
   xmlns:rdf="http://www.w3.org/1999/02/22-rdf-syntax-ns#"
   xmlns:svg="http://www.w3.org/2000/svg"
   xmlns="http://www.w3.org/2000/svg"
   xmlns:xlink="http://www.w3.org/1999/xlink"
   xmlns:sodipodi="http://sodipodi.sourceforge.net/DTD/sodipodi-0.dtd"
   xmlns:inkscape="http://www.inkscape.org/namespaces/inkscape"
   id="svg4505"
   height="32"
   width="32"
   version="1.1"
   sodipodi:docname="speakers.svg"
   inkscape:version="0.92.4 (5da689c313, 2019-01-14)">
  <sodipodi:namedview
     pagecolor="#ffffff"
     bordercolor="#666666"
     borderopacity="1"
     objecttolerance="10"
     gridtolerance="10"
     guidetolerance="10"
     inkscape:pageopacity="0"
     inkscape:pageshadow="2"
     inkscape:window-width="2880"
     inkscape:window-height="1706"
     id="namedview77"
     showgrid="false"
     inkscape:zoom="7.375"
     inkscape:cx="-0.47687819"
     inkscape:cy="16"
     inkscape:window-x="-11"
     inkscape:window-y="-11"
     inkscape:window-maximized="1"
     inkscape:current-layer="svg4505" />
  <defs
     id="defs4507">
    <linearGradient
       id="linearGradient5032">
      <stop
         style="stop-color:#ffffff;stop-opacity:1;"
         offset="0"
         id="stop5028" />
      <stop
         style="stop-color:#ffffff;stop-opacity:0;"
         offset="1"
         id="stop5030" />
    </linearGradient>
    <linearGradient
       id="linearGradient4718">
      <stop
         id="stop4720"
         style="stop-color:#fdecc4;stop-opacity:1"
         offset="0" />
      <stop
         offset="0.603131"
         style="stop-color:#e89843;stop-opacity:1"
         id="stop1140-6" />
      <stop
         id="stop4722"
         style="stop-color:#b45c15;stop-opacity:1"
         offset="1" />
    </linearGradient>
    <linearGradient
       id="linearGradient3688-464-309-604">
      <stop
         offset="0"
         style="stop-color:#181818;stop-opacity:1"
         id="stop3094" />
      <stop
         offset="1"
         style="stop-color:#181818;stop-opacity:0"
         id="stop3096" />
    </linearGradient>
    <linearGradient
       id="linearGradient5428-2">
      <stop
         id="stop5426-0"
         offset="0"
         style="stop-color:#2f2f2f;stop-opacity:1" />
      <stop
         id="stop5424-2"
         offset="1"
         style="stop-color:#3f3f3f;stop-opacity:1" />
    </linearGradient>
    <radialGradient
       cx="99.157013"
       cy="186.17059"
       r="62.769119"
       fx="99.157013"
       fy="186.17059"
       id="radialGradient3043"
       xlink:href="#linearGradient3820-7-2-1"
       gradientUnits="userSpaceOnUse"
       gradientTransform="matrix(0.1489586,0,0,0.04739593,1.2297115,17.026277)" />
    <linearGradient
       id="linearGradient3820-7-2-1">
      <stop
         id="stop3822-2-6-3"
         style="stop-color:#3d3d3d;stop-opacity:1"
         offset="0" />
      <stop
         id="stop3864-8-7-7"
         style="stop-color:#686868;stop-opacity:0.49803922"
         offset="0.5" />
      <stop
         id="stop3824-1-2-5"
         style="stop-color:#686868;stop-opacity:0"
         offset="1" />
    </linearGradient>
    <linearGradient
       gradientUnits="userSpaceOnUse"
       y2="204"
       x2="107"
       y1="184.90691"
       x1="86.943321"
       id="linearGradient5035"
       xlink:href="#linearGradient4365-7"
       gradientTransform="matrix(0.85,0,0,0.85,-65.6,-148.825)" />
    <linearGradient
       id="linearGradient4365-7">
      <stop
         id="stop4367-5"
         offset="0"
         style="stop-color:#ffffff;stop-opacity:1" />
      <stop
         style="stop-color:#e4e4e4;stop-opacity:1;"
         offset="0.12939064"
         id="stop904" />
      <stop
         style="stop-color:#e7e7e7;stop-opacity:1"
         offset="0.53201526"
         id="stop4373-3" />
      <stop
         id="stop4369-5"
         offset="1"
         style="stop-color:#acacac;stop-opacity:1" />
    </linearGradient>
    <linearGradient
       xlink:href="#linearGradient5428-2"
       id="linearGradient5430-9"
       x1="7"
       y1="16"
       x2="25"
       y2="16"
       gradientUnits="userSpaceOnUse"
       gradientTransform="matrix(0,-0.80000016,-0.80000016,0,28.800005,28.875006)" />
    <linearGradient
       y2="24.999998"
       x2="40.000004"
       y1="24.999998"
       x1="8.0000057"
       gradientTransform="matrix(0,-0.63064529,-0.63064509,0,31.766123,31.210483)"
       gradientUnits="userSpaceOnUse"
       id="linearGradient4608"
       xlink:href="#linearGradient5032" />
    <linearGradient
       y2="24.999998"
       x2="40.000004"
       y1="24.999998"
       x1="8.0000057"
       gradientTransform="matrix(0,0.4661292,-0.46612905,0,27.653228,4.887895)"
       gradientUnits="userSpaceOnUse"
       id="linearGradient4604"
       xlink:href="#linearGradient3688-464-309-604" />
    <linearGradient
       y2="24.999998"
       x2="40.000004"
       y1="24.999998"
       x1="8.0000057"
       gradientTransform="matrix(0,0.57580659,-0.5758064,0,30.395158,2.2556405)"
       gradientUnits="userSpaceOnUse"
       id="linearGradient4582"
       xlink:href="#linearGradient3688-464-309-604" />
    <radialGradient
       xlink:href="#linearGradient4718"
       id="radialGradient4652-37"
       cx="15.999896"
       cy="20.381687"
       fx="15.999896"
       fy="20.381687"
       r="12.000061"
       gradientTransform="matrix(0.8027698,-4.5358095e-8,4.5357861e-8,0.8027738,3.1557698,2.2860875)"
       gradientUnits="userSpaceOnUse" />
    <radialGradient
       r="8"
       fy="33"
       fx="32"
       cy="33"
       cx="32"
       gradientTransform="matrix(0.42499999,0,0,0.43317309,2.3999975,0.7123465)"
       gradientUnits="userSpaceOnUse"
       id="radialGradient5059"
       xlink:href="#linearGradient4417" />
    <linearGradient
       id="linearGradient4417">
      <stop
         id="stop4419"
         offset="0"
         style="stop-color:#6e3003;stop-opacity:1;" />
      <stop
         style="stop-color:#a54805;stop-opacity:1"
         offset="0.60724258"
         id="stop4425" />
      <stop
         id="stop4421"
         offset="1"
         style="stop-color:#6e3003;stop-opacity:0;" />
    </linearGradient>
    <radialGradient
       r="3"
       fy="10.317273"
       fx="48.010342"
       cy="10.317273"
       cx="48.010342"
       gradientTransform="matrix(0,1.9703676,-1.4402176,0,30.891439,-81.218003)"
       gradientUnits="userSpaceOnUse"
       id="radialGradient5043"
       xlink:href="#linearGradient4283-3" />
    <linearGradient
       id="linearGradient4283-3">
      <stop
         id="stop4285-6"
         style="stop-color:#6d6d6d;stop-opacity:1"
         offset="0" />
      <stop
         offset="0.85202879"
         style="stop-color:#272727;stop-opacity:1;"
         id="stop5511" />
      <stop
         id="stop4287-0"
         style="stop-color:#000000;stop-opacity:1"
         offset="1" />
    </linearGradient>
    <radialGradient
       r="3"
       fy="31"
       fx="32"
       cy="31"
       cx="32"
       gradientTransform="matrix(0.56666665,0,0,0.57756412,-2.1333381,-2.7121845)"
       gradientUnits="userSpaceOnUse"
       id="radialGradient5047"
       xlink:href="#linearGradient5032" />
    <linearGradient
       y2="28.508892"
       x2="71.204407"
       y1="22.128977"
       x1="71.204407"
       gradientTransform="matrix(0.60205032,0,0,0.60205029,-27.187181,0.80866)"
       gradientUnits="userSpaceOnUse"
       id="linearGradient5045"
       xlink:href="#linearGradient4011" />
    <linearGradient
       id="linearGradient4011">
      <stop
         id="stop4013"
         style="stop-color:#ffffff;stop-opacity:1"
         offset="0" />
      <stop
         id="stop4015"
         style="stop-color:#ffffff;stop-opacity:0.23529412"
         offset="0.507761" />
      <stop
         id="stop4017"
         style="stop-color:#ffffff;stop-opacity:0.15686275"
         offset="0.83456558" />
      <stop
         id="stop4019"
         style="stop-color:#ffffff;stop-opacity:0.39215687"
         offset="1" />
    </linearGradient>
    <linearGradient
       gradientUnits="userSpaceOnUse"
       y2="207"
       x2="98"
       y1="181"
       x1="98"
       id="linearGradient5078"
       xlink:href="#linearGradient4011"
       gradientTransform="matrix(0.85,0,0,0.85,-65.6,-148.825)" />
  </defs>
  <metadata
     id="metadata4510">
    <rdf:RDF>
      <cc:Work
         rdf:about="">
        <dc:format>image/svg+xml</dc:format>
        <dc:type
           rdf:resource="http://purl.org/dc/dcmitype/StillImage" />
        <dc:title />
      </cc:Work>
    </rdf:RDF>
  </metadata>
  <path
     inkscape:connector-curvature="0"
     d="m 25.35,25.85 a 9.35,2.9749999 0 1 1 -18.7,0 9.35,2.9749999 0 1 1 18.7,0 z"
     id="path3818-0-2"
     style="fill:url(#radialGradient3043);fill-opacity:1;stroke:none;stroke-width:0.85000002" />
  <path
     inkscape:connector-curvature="0"
     id="path4984"
     d="M 16,4.6 A 11.475,11.475 0 0 0 9.1833987,6.85947 1.7,1.7 0 0 0 7.925,6.3 1.7,1.7 0 0 0 6.225,8 1.7,1.7 0 0 0 6.7844726,9.2583995 11.475,11.475 0 0 0 4.525,16.075 11.475,11.475 0 0 0 6.7844726,22.891601 1.7,1.7 0 0 0 6.225,24.15 1.7,1.7 0 0 0 7.925,25.85 1.7,1.7 0 0 0 9.1833987,25.29053 11.475,11.475 0 0 0 16,27.55 11.475,11.475 0 0 0 22.816601,25.29053 1.7,1.7 0 0 0 24.075,25.85 1.7,1.7 0 0 0 25.775,24.15 1.7,1.7 0 0 0 25.21553,22.891601 11.475,11.475 0 0 0 27.475,16.075 11.475,11.475 0 0 0 25.21553,9.2583995 1.7,1.7 0 0 0 25.775,8 1.7,1.7 0 0 0 24.075,6.3 1.7,1.7 0 0 0 22.816601,6.85947 11.475,11.475 0 0 0 16,4.6 Z"
     style="opacity:1;fill:url(#linearGradient5035);fill-opacity:1;stroke:#000000;stroke-width:1;stroke-linecap:round;stroke-linejoin:round;stroke-miterlimit:4;stroke-dasharray:none;stroke-dashoffset:0;stroke-opacity:0.49803922" />
  <path
     inkscape:connector-curvature="0"
     style="color:#000000;display:inline;overflow:visible;visibility:visible;opacity:1;fill:none;stroke:url(#linearGradient5430-9);stroke-width:5.0999999;stroke-miterlimit:4;stroke-dasharray:none;stroke-opacity:1;marker:none;enable-background:accumulate"
     id="path2555-36-4-2-1-26"
     d="m 22.8,16.075 c 0,3.752181 -3.048125,6.8 -6.799991,6.8 -3.752167,0 -6.8000056,-3.048151 -6.8000056,-6.8 0,-3.752172 3.0481336,-6.8 6.8000056,-6.8 3.752172,0 6.799991,3.048134 6.799991,6.8 z" />
  <path
     inkscape:connector-curvature="0"
     style="color:#000000;display:inline;overflow:visible;visibility:visible;opacity:0.2;fill:none;stroke:url(#linearGradient4608);stroke-width:0.84999996;stroke-miterlimit:4;stroke-dasharray:none;stroke-opacity:1;marker:none;enable-background:accumulate"
     id="path4606"
     d="m 16.000004,6.3 c -5.393761,0 -9.7750006,4.381682 -9.7750006,9.774992 0,5.393734 4.3817086,9.775008 9.7750006,9.775008 5.393748,0 9.774996,-4.381699 9.774996,-9.775008 C 25.775,10.681232 21.393301,6.3 16.000004,6.3 Z" />
  <path
     inkscape:connector-curvature="0"
     style="color:#000000;display:inline;overflow:visible;visibility:visible;opacity:0.2;fill:none;stroke:url(#linearGradient4604);stroke-width:1;stroke-miterlimit:4;stroke-dasharray:none;stroke-opacity:1;marker:none;enable-background:accumulate"
     id="path4602"
     d="M 16.000005,23.3 C 12.013311,23.3 8.7750034,20.061356 8.7750034,16.075008 8.7750034,12.08833 12.013657,8.85 16.000005,8.85 19.986687,8.85 23.225,12.088636 23.225,16.075008 23.225,20.061696 19.986356,23.3 16.000005,23.3 Z" />
  <g
     style="stroke-width:1.54595435"
     transform="matrix(0.54948284,0,0,0.55016175,-104.17367,-79.500432)"
     id="g5009">
    <ellipse
       ry="0.99077737"
       rx="1"
       style="opacity:1;fill:#000000;fill-opacity:0.11666667;stroke:none;stroke-width:3.09190869;stroke-linecap:butt;stroke-linejoin:round;stroke-miterlimit:4;stroke-dasharray:none;stroke-dashoffset:0;stroke-opacity:1"
       id="ellipse5005"
       cx="204"
       cy="159.00922" />
    <path
       inkscape:connector-curvature="0"
       style="opacity:0.2;fill:none;fill-rule:evenodd;stroke:#000000;stroke-width:0.77297717;stroke-linecap:butt;stroke-linejoin:miter;stroke-miterlimit:4;stroke-dasharray:none;stroke-opacity:1"
       d="m 203.23413,158.27242 1.45923,1.40117"
       id="path5007" />
  </g>
  <g
     id="g5015"
     transform="matrix(-0.54948284,0,0,0.55016175,136.1469,-79.500432)"
     style="stroke-width:1.54595435">
    <ellipse
       cy="159.00922"
       cx="204"
       id="ellipse5011"
       style="opacity:1;fill:#000000;fill-opacity:0.11666667;stroke:none;stroke-width:3.09190869;stroke-linecap:butt;stroke-linejoin:round;stroke-miterlimit:4;stroke-dasharray:none;stroke-dashoffset:0;stroke-opacity:1"
       rx="1"
       ry="0.99077737" />
    <path
       inkscape:connector-curvature="0"
       id="path5013"
       d="m 203.23413,158.27242 1.45923,1.40117"
       style="opacity:0.2;fill:none;fill-rule:evenodd;stroke:#000000;stroke-width:0.77297717;stroke-linecap:butt;stroke-linejoin:miter;stroke-miterlimit:4;stroke-dasharray:none;stroke-opacity:1" />
  </g>
  <g
     style="stroke-width:1.54595435"
     transform="matrix(-0.54948284,0,0,-0.55016175,136.1469,111.59751)"
     id="g5021">
    <ellipse
       ry="0.99077737"
       rx="1"
       style="opacity:1;fill:#000000;fill-opacity:0.11666667;stroke:none;stroke-width:3.09190869;stroke-linecap:butt;stroke-linejoin:round;stroke-miterlimit:4;stroke-dasharray:none;stroke-dashoffset:0;stroke-opacity:1"
       id="ellipse5017"
       cx="204"
       cy="159.00922" />
    <path
       inkscape:connector-curvature="0"
       style="opacity:0.2;fill:none;fill-rule:evenodd;stroke:#000000;stroke-width:0.77297717;stroke-linecap:butt;stroke-linejoin:miter;stroke-miterlimit:4;stroke-dasharray:none;stroke-opacity:1"
       d="m 203.23413,158.27242 1.45923,1.40117"
       id="path5019" />
  </g>
  <g
     id="g5027"
     transform="matrix(0.54948284,0,0,-0.55016175,-104.17366,111.59751)"
     style="stroke-width:1.54595435">
    <ellipse
       cy="159.00922"
       cx="204"
       id="ellipse5023"
       style="opacity:1;fill:#000000;fill-opacity:0.11666667;stroke:none;stroke-width:3.09190869;stroke-linecap:butt;stroke-linejoin:round;stroke-miterlimit:4;stroke-dasharray:none;stroke-dashoffset:0;stroke-opacity:1"
       rx="1"
       ry="0.99077737" />
    <path
       inkscape:connector-curvature="0"
       id="path5025"
       d="m 203.23413,158.27242 1.45923,1.40117"
       style="opacity:0.2;fill:none;fill-rule:evenodd;stroke:#000000;stroke-width:0.77297717;stroke-linecap:butt;stroke-linejoin:miter;stroke-miterlimit:4;stroke-dasharray:none;stroke-opacity:1" />
  </g>
  <path
     inkscape:connector-curvature="0"
     d="M 16.000005,25 C 11.075267,25 7.0750034,20.999322 7.0750034,16.075008 7.0750034,11.150287 11.075694,7.15 16.000005,7.15 20.92473,7.15 24.925,11.15067 24.925,16.075008 24.925,20.999739 20.924322,25 16.000005,25 Z"
     id="path4580"
     style="color:#000000;display:inline;overflow:visible;visibility:visible;opacity:0.2;fill:none;stroke:url(#linearGradient4582);stroke-width:1;stroke-miterlimit:4;stroke-dasharray:none;stroke-opacity:1;marker:none;enable-background:accumulate" />
  <path
     inkscape:connector-curvature="0"
     style="color:#000000;display:inline;overflow:visible;visibility:visible;fill:url(#radialGradient4652-37);fill-opacity:1;fill-rule:nonzero;stroke:none;stroke-width:0.84999985;marker:none;enable-background:accumulate"
     id="path2555-36-4-4-1"
     d="m 16.000011,9.275 c -3.752188,0 -6.8000076,3.048151 -6.8000076,6.8 0,3.752172 3.0481536,6.8 6.8000076,6.8 3.752161,0 6.799989,-3.048151 6.799989,-6.8 0,-3.75218 -3.048151,-6.8 -6.799989,-6.8 z" />
  <ellipse
     ry="3.465385"
     rx="3.4000001"
     cy="15.007052"
     cx="16"
     id="circle5057"
     style="opacity:0.5;fill:url(#radialGradient5059);fill-opacity:1;stroke:none;stroke-width:0.95624989;stroke-linecap:round;stroke-linejoin:round;stroke-miterlimit:4;stroke-dasharray:none;stroke-dashoffset:0;stroke-opacity:1" />
  <circle
     r="2.9749999"
     cy="16.075012"
     cx="16"
     id="circle5037"
     style="opacity:1;fill:url(#radialGradient5043);fill-opacity:1;stroke:#000000;stroke-width:1;stroke-linecap:round;stroke-linejoin:round;stroke-miterlimit:4;stroke-dasharray:none;stroke-dashoffset:0;stroke-opacity:0.49803922" />
  <ellipse
     ry="1.7326925"
     rx="1.7"
     cy="15.192303"
     cx="16"
     id="circle5041"
     style="opacity:0.4;fill:url(#radialGradient5047);fill-opacity:1;stroke:none;stroke-width:1.69999993;stroke-linecap:round;stroke-linejoin:round;stroke-miterlimit:4;stroke-dasharray:none;stroke-dashoffset:0;stroke-opacity:0.49803922" />
  <circle
     r="2.125"
     cy="16.075001"
     cx="16"
     id="circle5039"
     style="color:#000000;clip-rule:nonzero;display:inline;overflow:visible;visibility:visible;opacity:0.1;isolation:auto;mix-blend-mode:normal;color-interpolation:sRGB;color-interpolation-filters:linearRGB;solid-color:#000000;solid-opacity:1;fill:none;fill-opacity:1;fill-rule:nonzero;stroke:url(#linearGradient5045);stroke-width:0.85000008;stroke-linecap:round;stroke-linejoin:round;stroke-miterlimit:4;stroke-dasharray:none;stroke-dashoffset:0;stroke-opacity:1;marker:none;color-rendering:auto;image-rendering:auto;shape-rendering:auto;text-rendering:auto;enable-background:accumulate" />
  <path
     inkscape:connector-curvature="0"
     id="path5061"
     d="M 16,5.45 A 10.625,10.625 0 0 0 8.6853514,8.3751985 0.85,0.85 0 0 0 8.775,8 0.85,0.85 0 0 0 7.925,7.15 0.85,0.85 0 0 0 7.075,8 0.85,0.85 0 0 0 7.925,8.85 0.85,0.85 0 0 0 8.3184574,8.7520545 10.625,10.625 0 0 0 5.375,16.075 10.625,10.625 0 0 0 8.3001951,23.389649 0.85,0.85 0 0 0 7.925,23.3 0.85,0.85 0 0 0 7.075,24.15 0.85,0.85 0 0 0 7.925,25 0.85,0.85 0 0 0 8.775,24.15 0.85,0.85 0 0 0 8.6770511,23.756544 10.625,10.625 0 0 0 16,26.7 10.625,10.625 0 0 0 23.31465,23.774802 0.85,0.85 0 0 0 23.225,24.15 0.85,0.85 0 0 0 24.075,25 0.85,0.85 0 0 0 24.925,24.15 0.85,0.85 0 0 0 24.075,23.3 0.85,0.85 0 0 0 23.681544,23.397945 10.625,10.625 0 0 0 26.625,16.075 10.625,10.625 0 0 0 23.699801,8.7603505 0.85,0.85 0 0 0 24.075,8.85 0.85,0.85 0 0 0 24.925,8 0.85,0.85 0 0 0 24.075,7.15 0.85,0.85 0 0 0 23.225,8 0.85,0.85 0 0 0 23.322946,8.3934565 10.625,10.625 0 0 0 16,5.45 Z"
     style="opacity:1;fill:none;fill-opacity:1;stroke:url(#linearGradient5078);stroke-width:1;stroke-linecap:butt;stroke-linejoin:round;stroke-miterlimit:4;stroke-dasharray:none;stroke-dashoffset:0;stroke-opacity:1" />
</svg>
