<?xml version="1.0" encoding="UTF-8" standalone="no"?>
<svg
   xmlns:dc="http://purl.org/dc/elements/1.1/"
   xmlns:cc="http://creativecommons.org/ns#"
   xmlns:rdf="http://www.w3.org/1999/02/22-rdf-syntax-ns#"
   xmlns:svg="http://www.w3.org/2000/svg"
   xmlns="http://www.w3.org/2000/svg"
   xmlns:xlink="http://www.w3.org/1999/xlink"
   xmlns:sodipodi="http://sodipodi.sourceforge.net/DTD/sodipodi-0.dtd"
   xmlns:inkscape="http://www.inkscape.org/namespaces/inkscape"
   id="svg3883"
   height="32"
   width="32"
   version="1.1"
   sodipodi:docname="star.svg"
   inkscape:version="0.92.4 (5da689c313, 2019-01-14)">
  <sodipodi:namedview
     pagecolor="#ffffff"
     bordercolor="#666666"
     borderopacity="1"
     objecttolerance="10"
     gridtolerance="10"
     guidetolerance="10"
     inkscape:pageopacity="0"
     inkscape:pageshadow="2"
     inkscape:window-width="2880"
     inkscape:window-height="1706"
     id="namedview27"
     showgrid="false"
     inkscape:zoom="7.375"
     inkscape:cx="-1.4237288"
     inkscape:cy="16"
     inkscape:window-x="-11"
     inkscape:window-y="-11"
     inkscape:window-maximized="1"
     inkscape:current-layer="svg3883" />
  <defs
     id="defs3885">
    <linearGradient
       id="linearGradient849">
      <stop
         id="stop845"
         offset="0"
         style="stop-color:#ffe16b;stop-opacity:1" />
      <stop
         id="stop847"
         offset="1"
         style="stop-color:#f9c440;stop-opacity:1" />
    </linearGradient>
    <linearGradient
       gradientTransform="matrix(0.54777923,0,0,0.54777923,4.4856708,1.2183867)"
       gradientUnits="userSpaceOnUse"
       xlink:href="#linearGradient8265-821-176-38-919-66-249"
       id="linearGradient3855"
       y2="33.95525"
       x2="15.214532"
       y1="22.292103"
       x1="11.566265" />
    <linearGradient
       id="linearGradient8265-821-176-38-919-66-249">
      <stop
         offset="0"
         style="stop-color:#ffffff;stop-opacity:0.27450982"
         id="stop2687" />
      <stop
         offset="1"
         style="stop-color:#ffffff;stop-opacity:0"
         id="stop2689" />
    </linearGradient>
    <linearGradient
       gradientTransform="matrix(0.54777923,0,0,0.54777923,2.8533367,2.9283649)"
       gradientUnits="userSpaceOnUse"
       xlink:href="#linearGradient3881"
       id="linearGradient3841"
       y2="43.443626"
       x2="29.646643"
       y1="2"
       x1="29.646643" />
    <linearGradient
       id="linearGradient3881">
      <stop
         offset="0"
         style="stop-color:#ffffff;stop-opacity:1"
         id="stop3883" />
      <stop
         offset="0.33380178"
         style="stop-color:#ffffff;stop-opacity:0.23529412"
         id="stop3885" />
      <stop
         offset="0.67927718"
         style="stop-color:#ffffff;stop-opacity:0.15686275"
         id="stop3887" />
      <stop
         offset="1"
         style="stop-color:#ffffff;stop-opacity:0.39215687"
         id="stop3889" />
    </linearGradient>
    <linearGradient
       id="linearGradient8838">
      <stop
         offset="0"
         style="stop-color:#000000;stop-opacity:1"
         id="stop8840" />
      <stop
         offset="1"
         style="stop-color:#000000;stop-opacity:0"
         id="stop8842" />
    </linearGradient>
    <radialGradient
       gradientTransform="matrix(1.2000001,0,0,0.47999936,-59.149966,22.355097)"
       gradientUnits="userSpaceOnUse"
       xlink:href="#linearGradient8838"
       id="radialGradient3881"
       fy="4.625"
       fx="62.625"
       r="10.625"
       cy="4.625"
       cx="62.625" />
    <linearGradient
       gradientUnits="userSpaceOnUse"
       y2="29.618414"
       x2="16.000036"
       y1="1.4974327"
       x1="16.000036"
       id="linearGradient851"
       xlink:href="#linearGradient849"
       gradientTransform="matrix(0.85,0,0,0.85,2.4000056,2.4750973)" />
  </defs>
  <metadata
     id="metadata3888">
    <rdf:RDF>
      <cc:Work
         rdf:about="">
        <dc:format>image/svg+xml</dc:format>
        <dc:type
           rdf:resource="http://purl.org/dc/dcmitype/StillImage" />
        <dc:title />
      </cc:Work>
    </rdf:RDF>
  </metadata>
  <path
     d="m 28.750038,24.575096 c 0,2.816653 -5.70837,5.100001 -12.75,5.100001 -7.0416295,0 -12.7499999,-2.283348 -12.7499999,-5.100001 0,-2.816651 5.7083704,-5.099999 12.7499999,-5.099999 7.04163,0 12.75,2.283348 12.75,5.099999 z"
     id="path8836"
     style="display:inline;overflow:visible;visibility:visible;opacity:0.3;fill:url(#radialGradient3881);fill-opacity:1;fill-rule:evenodd;stroke:none;stroke-width:1;marker:none;stroke-miterlimit:4;stroke-dasharray:none"
     inkscape:connector-curvature="0" />
  <path
     d="m 16.000037,3.7479151 c 0.831966,0 3.514206,6.7242489 4.187282,7.2150299 0.673073,0.49078 7.874104,0.97303 8.131196,1.767128 0.257092,0.794099 -5.286224,5.432163 -5.543316,6.226261 -0.257091,0.794098 1.511151,7.816392 0.838076,8.307173 -0.673075,0.490779 -6.781272,-3.366989 -7.613239,-3.366989 -0.831965,0 -6.9401625,3.857768 -7.6132374,3.366989 -0.6730741,-0.490781 1.0951673,-7.513076 0.8380758,-8.307173 -0.2570913,-0.794098 -5.8004068,-5.432163 -5.5433152,-6.226263 0.2570917,-0.794096 7.4581218,-1.276346 8.1311978,-1.767126 0.673074,-0.490781 3.355314,-7.2150299 4.18728,-7.2150299 z"
     id="path1307"
     style="display:inline;overflow:visible;visibility:visible;fill:url(#linearGradient851);fill-opacity:1;fill-rule:nonzero;stroke:#ad5f00;stroke-width:1;stroke-linecap:butt;stroke-linejoin:round;stroke-miterlimit:4;stroke-dasharray:none;stroke-dashoffset:0;stroke-opacity:0.49803922;marker:none"
     inkscape:connector-curvature="0" />
  <path
     d="m 16.007313,4.9646657 c -1.200573,2.2730258 -2.291856,4.6174533 -3.543139,6.8553993 -2.5280205,0.48588 -5.09585,0.860812 -7.6396737,1.299288 1.7584596,1.808264 3.498152,3.643748 5.2435857,5.459094 -0.0237,0.952063 -0.280281,1.916807 -0.3497827,2.875917 -0.1828394,1.498853 -0.3480523,3.297351 -0.5641155,4.791945 2.2697822,-1.119674 4.5213492,-2.340517 6.8024102,-3.428238 2.455766,0.988527 4.780801,2.369942 6.976367,3.477782 -0.343759,-2.417133 -0.783334,-5.189353 -1.102752,-7.605204 0.575895,-0.796153 1.405364,-1.420779 2.053498,-2.170303 1.100716,-1.135041 2.195121,-2.276261 3.306415,-3.400993 C 24.672055,12.527465 22.070337,12.31923 19.545184,11.820126 18.944407,10.947579 18.556267,9.9137881 18.038792,8.9811095 17.364069,7.6410683 16.695431,6.2979136 16.007313,4.9646657 Z"
     id="path3849"
     style="display:inline;overflow:visible;visibility:visible;opacity:0.8;fill:none;stroke:url(#linearGradient3841);stroke-width:1;stroke-linecap:butt;stroke-linejoin:round;stroke-miterlimit:4;stroke-dasharray:none;stroke-dashoffset:0;stroke-opacity:1;marker:none"
     inkscape:connector-curvature="0" />
  <path
     d="m 16.007313,4.3802907 c -0.216279,0.317979 -1.994804,2.9518681 -3.71875,7.0125003 a 0.17516939,0.17516939 0 0 1 -0.02656,0.02656 0.17516939,0.17516939 0 0 1 -0.07969,0.05313 0.17516939,0.17516939 0 0 1 -0.02656,0.02656 c -2.5545062,0.416541 -5.9525387,0.882931 -7.9156257,1.434375 1.3415784,1.700442 3.0263892,3.176456 4.5421875,4.728125 L 25.994813,14.606853 c 0.495369,-0.496525 1.455897,-1.456111 1.7,-1.7 -2.441187,-0.660352 -5.303561,-0.963987 -7.8625,-1.38125 a 0.17516939,0.17516939 0 0 1 -0.02656,-0.02656 0.17516939,0.17516939 0 0 1 -0.07969,-0.05312 0.17516939,0.17516939 0 0 1 -0.02656,-0.02656 C 18.403113,8.4096145 16.251651,4.7885185 16.007313,4.3802907 Z"
     id="path3853"
     style="display:inline;overflow:visible;visibility:visible;opacity:0.8;fill:url(#linearGradient3855);fill-opacity:1;fill-rule:nonzero;stroke:none;stroke-width:1;marker:none;enable-background:accumulate;stroke-miterlimit:4;stroke-dasharray:none"
     inkscape:connector-curvature="0" />
</svg>
