<?xml version="1.0" encoding="UTF-8" standalone="no"?>
<svg
   xmlns:dc="http://purl.org/dc/elements/1.1/"
   xmlns:cc="http://creativecommons.org/ns#"
   xmlns:rdf="http://www.w3.org/1999/02/22-rdf-syntax-ns#"
   xmlns:svg="http://www.w3.org/2000/svg"
   xmlns="http://www.w3.org/2000/svg"
   xmlns:xlink="http://www.w3.org/1999/xlink"
   xmlns:sodipodi="http://sodipodi.sourceforge.net/DTD/sodipodi-0.dtd"
   xmlns:inkscape="http://www.inkscape.org/namespaces/inkscape"
   version="1.1"
   width="32"
   height="32"
   id="svg3658"
   sodipodi:docname="stop.svg"
   inkscape:version="0.92.4 (5da689c313, 2019-01-14)">
  <sodipodi:namedview
     pagecolor="#ffffff"
     bordercolor="#666666"
     borderopacity="1"
     objecttolerance="10"
     gridtolerance="10"
     guidetolerance="10"
     inkscape:pageopacity="0"
     inkscape:pageshadow="2"
     inkscape:window-width="2880"
     inkscape:window-height="1706"
     id="namedview27"
     showgrid="false"
     inkscape:zoom="7.375"
     inkscape:cx="-1.4237288"
     inkscape:cy="16"
     inkscape:window-x="-11"
     inkscape:window-y="-11"
     inkscape:window-maximized="1"
     inkscape:current-layer="svg3658" />
  <defs
     id="defs3660">
    <linearGradient
       id="linearGradient4011">
      <stop
         id="stop4013"
         style="stop-color:#ffffff;stop-opacity:1"
         offset="0" />
      <stop
         id="stop4015"
         style="stop-color:#ffffff;stop-opacity:0.23529412"
         offset="0.507761" />
      <stop
         id="stop4017"
         style="stop-color:#ffffff;stop-opacity:0.15686275"
         offset="0.83456558" />
      <stop
         id="stop4019"
         style="stop-color:#ffffff;stop-opacity:0.39215687"
         offset="1" />
    </linearGradient>
    <linearGradient
       id="linearGradient3820-7-2-2">
      <stop
         id="stop3822-2-6-36"
         style="stop-color:#3d3d3d;stop-opacity:1"
         offset="0" />
      <stop
         id="stop3864-8-7-6"
         style="stop-color:#686868;stop-opacity:0.49803922"
         offset="0.5" />
      <stop
         id="stop3824-1-2-4"
         style="stop-color:#686868;stop-opacity:0"
         offset="1" />
    </linearGradient>
    <radialGradient
       xlink:href="#linearGradient3820-7-2-2"
       id="radialGradient4048"
       gradientUnits="userSpaceOnUse"
       gradientTransform="matrix(0.1489586,0,0,0.04739593,1.2297114,17.876271)"
       cx="99.157013"
       cy="186.17059"
       fx="99.157013"
       fy="186.17059"
       r="62.769119" />
    <linearGradient
       gradientTransform="matrix(0.62027056,0,0,0.62027056,-28.494196,0.34682062)"
       gradientUnits="userSpaceOnUse"
       xlink:href="#linearGradient4011"
       id="linearGradient12398-3"
       y2="44.340794"
       x2="71.204407"
       y1="6.2375584"
       x1="71.204407" />
    <linearGradient
       gradientTransform="matrix(0.94466952,0,0,0.70623123,-1910.0101,-2261.2097)"
       gradientUnits="userSpaceOnUse"
       xlink:href="#linearGradient947"
       id="linearGradient11527-6-5"
       y2="3241.9966"
       x2="2035.1652"
       y1="3208.0737"
       x1="2035.1652" />
    <linearGradient
       id="linearGradient947">
      <stop
         id="stop943"
         style="stop-color:#ed5353;stop-opacity:1"
         offset="0" />
      <stop
         id="stop945"
         style="stop-color:#c6262e;stop-opacity:1"
         offset="1" />
    </linearGradient>
  </defs>
  <metadata
     id="metadata3663">
    <rdf:RDF>
      <cc:Work
         rdf:about="">
        <dc:format>image/svg+xml</dc:format>
        <dc:type
           rdf:resource="http://purl.org/dc/dcmitype/StillImage" />
        <dc:title />
      </cc:Work>
    </rdf:RDF>
  </metadata>
  <path
     d="m 25.350001,26.699997 a 9.35,2.9749999 0 1 1 -18.6999999,0 9.35,2.9749999 0 1 1 18.6999999,0 z"
     id="path3818-0-2"
     style="fill:url(#radialGradient4048);fill-opacity:1;stroke:none;stroke-width:1;stroke-miterlimit:4;stroke-dasharray:none"
     inkscape:connector-curvature="0" />
  <path
     style="color:#000000;display:inline;overflow:visible;visibility:visible;opacity:0.98999999;fill:url(#linearGradient11527-6-5);fill-opacity:1;fill-rule:nonzero;stroke:none;stroke-width:1;marker:none;enable-background:accumulate;stroke-miterlimit:4;stroke-dasharray:none"
     id="path2555-7-8-5-0-9"
     d="m 15.999999,3.7501632 c -6.8005124,0 -12.3249999,5.5244878 -12.3249999,12.3250008 0,6.800512 5.5244875,12.325 12.3249999,12.325 6.800514,0 12.325013,-5.524488 12.325001,-12.325 0,-6.800513 -5.524487,-12.3250008 -12.325001,-12.3250008 z"
     inkscape:connector-curvature="0" />
  <path
     style="color:#000000;display:inline;overflow:visible;visibility:visible;opacity:0.4;fill:none;stroke:url(#linearGradient12398-3);stroke-width:1;stroke-linecap:round;stroke-linejoin:round;stroke-miterlimit:4;stroke-dasharray:none;stroke-dashoffset:0;stroke-opacity:1;marker:none;enable-background:accumulate"
     id="path8655-6-0-9-5-0"
     d="m 27.475,16.074753 c 0,6.337682 -5.137916,11.475416 -11.474861,11.475416 -6.3375257,0 -11.4751387,-5.137795 -11.4751387,-11.475416 0,-6.3373797 5.137613,-11.4745947 11.4751387,-11.4745947 6.336945,0 11.474861,5.1372151 11.474861,11.4745947 z"
     inkscape:connector-curvature="0" />
  <path
     style="color:#000000;display:inline;overflow:visible;visibility:visible;opacity:0.5;vector-effect:none;fill:none;fill-opacity:1;stroke:#7a0000;stroke-width:1;stroke-linecap:round;stroke-linejoin:round;stroke-miterlimit:4;stroke-dasharray:none;stroke-dashoffset:0;stroke-opacity:1;marker:none;enable-background:accumulate"
     id="path2555-4"
     d="m 16.000001,3.7516919 c -6.7996662,0 -12.3234728,5.5238046 -12.3234728,12.3234711 0,6.799667 5.5238066,12.323475 12.3234728,12.323472 6.799664,0 12.323477,-5.523805 12.323471,-12.323472 0,-6.7996665 -5.523807,-12.3234711 -12.323471,-12.3234711 z"
     inkscape:connector-curvature="0" />
  <path
     style="opacity:0.05;vector-effect:none;fill:#7a0000;fill-opacity:1;stroke:none;stroke-width:1;stroke-linecap:butt;stroke-linejoin:miter;stroke-miterlimit:4;stroke-dasharray:none;stroke-dashoffset:0;stroke-opacity:1;marker:none"
     id="rect968-61-3"
     d="m 11.863216,10.762664 c -0.521574,0 -1.044619,0.205275 -1.43643,0.596837 -0.7849829,0.784499 -0.784982,2.085294 0,2.869793 l 2.700356,2.699031 -2.700356,2.699032 c -0.7857158,0.785232 -0.7857139,2.086217 0,2.87145 0.785626,0.785142 2.087234,0.785142 2.872859,0 l 2.700356,-2.699031 2.700355,2.699031 c 0.785624,0.785141 2.087233,0.78514 2.872859,0 0.785712,-0.785234 0.785714,-2.086218 0,-2.87145 l -2.700355,-2.699032 2.700355,-2.699031 c 0.78498,-0.784499 0.784981,-2.085294 0,-2.869793 -0.785625,-0.785141 -2.087235,-0.785142 -2.872859,0 l -2.700355,2.699031 -2.700356,-2.699031 C 12.90783,10.967929 12.38478,10.762664 11.863216,10.762664 Z"
     inkscape:connector-curvature="0" />
  <path
     style="opacity:0.15;vector-effect:none;fill:#7a0000;fill-opacity:1;stroke:none;stroke-width:1;stroke-linecap:butt;stroke-linejoin:miter;stroke-miterlimit:4;stroke-dasharray:none;stroke-dashoffset:0;stroke-opacity:1;marker:none"
     d="m 11.859666,11.612664 c -0.299378,0 -0.598668,0.116002 -0.828066,0.345367 -0.4588,0.458741 -0.4588,1.197189 0,1.65593 l 3.312266,3.311858 -3.312266,3.311859 c -0.4588,0.458742 -0.4588,1.197187 0,1.65593 0.458798,0.458741 1.197336,0.458741 1.656134,0 l 3.312265,-3.311859 3.312268,3.311859 c 0.458799,0.458741 1.197336,0.458741 1.656135,0 0.458798,-0.458743 0.458798,-1.197188 0,-1.65593 l -3.312268,-3.311859 3.312268,-3.311858 c 0.458798,-0.458741 0.458798,-1.197189 0,-1.65593 -0.458799,-0.458741 -1.197336,-0.458741 -1.656135,0 l -3.312268,3.311859 -3.312265,-3.311859 c -0.2294,-0.22937 -0.528689,-0.345367 -0.828068,-0.345367 z"
     id="rect968-61"
     inkscape:connector-curvature="0" />
  <path
     style="opacity:1;vector-effect:none;fill:#ffffff;fill-opacity:1;stroke:none;stroke-width:1;stroke-linecap:butt;stroke-linejoin:miter;stroke-miterlimit:4;stroke-dasharray:none;stroke-dashoffset:0;stroke-opacity:1;marker:none"
     d="m 11.859665,10.762664 c -0.299378,0 -0.598668,0.115989 -0.828066,0.345367 -0.458799,0.458741 -0.458799,1.197187 0,1.655929 l 3.312266,3.311859 -3.312266,3.311859 c -0.458799,0.458742 -0.458799,1.197187 0,1.655929 0.458798,0.458742 1.197334,0.458742 1.656133,0 l 3.312266,-3.311859 3.312268,3.311859 c 0.458799,0.458742 1.197336,0.458742 1.656135,0 0.458798,-0.458742 0.458798,-1.197187 0,-1.655929 l -3.312268,-3.311859 3.312268,-3.311859 c 0.458798,-0.458742 0.458798,-1.197188 0,-1.655929 -0.458799,-0.458742 -1.197336,-0.458742 -1.656135,0 l -3.312268,3.311859 -3.312266,-3.311859 c -0.229399,-0.229372 -0.528688,-0.345367 -0.828067,-0.345367 z"
     id="rect968"
     inkscape:connector-curvature="0" />
</svg>
