<?xml version="1.0" encoding="UTF-8" standalone="no"?>
<svg
   xmlns:dc="http://purl.org/dc/elements/1.1/"
   xmlns:cc="http://creativecommons.org/ns#"
   xmlns:rdf="http://www.w3.org/1999/02/22-rdf-syntax-ns#"
   xmlns:svg="http://www.w3.org/2000/svg"
   xmlns="http://www.w3.org/2000/svg"
   xmlns:xlink="http://www.w3.org/1999/xlink"
   xmlns:sodipodi="http://sodipodi.sourceforge.net/DTD/sodipodi-0.dtd"
   xmlns:inkscape="http://www.inkscape.org/namespaces/inkscape"
   id="svg4248"
   height="32"
   width="32"
   version="1.1"
   sodipodi:docname="suspend.svg"
   inkscape:version="0.92.4 (5da689c313, 2019-01-14)">
  <sodipodi:namedview
     pagecolor="#ffffff"
     bordercolor="#666666"
     borderopacity="1"
     objecttolerance="10"
     gridtolerance="10"
     guidetolerance="10"
     inkscape:pageopacity="0"
     inkscape:pageshadow="2"
     inkscape:window-width="2880"
     inkscape:window-height="1706"
     id="namedview29"
     showgrid="false"
     inkscape:zoom="7.375"
     inkscape:cx="-1.4237288"
     inkscape:cy="16"
     inkscape:window-x="-11"
     inkscape:window-y="-11"
     inkscape:window-maximized="1"
     inkscape:current-layer="svg4248" />
  <defs
     id="defs4250">
    <linearGradient
       id="linearGradient4011-4">
      <stop
         offset="0"
         style="stop-color:#ffffff;stop-opacity:1"
         id="stop4013-8" />
      <stop
         offset="0.507761"
         style="stop-color:#ffffff;stop-opacity:0.23529412"
         id="stop4015-5" />
      <stop
         offset="0.83456558"
         style="stop-color:#ffffff;stop-opacity:0.15686275"
         id="stop4017-6" />
      <stop
         offset="1"
         style="stop-color:#ffffff;stop-opacity:0.39215687"
         id="stop4019-1" />
    </linearGradient>
    <linearGradient
       gradientTransform="matrix(0.62027024,0,0,0.62027024,-28.494164,0.34665821)"
       gradientUnits="userSpaceOnUse"
       xlink:href="#linearGradient4011-4"
       id="linearGradient3089"
       y2="44.340794"
       x2="71.204407"
       y1="6.2375584"
       x1="71.204407" />
    <radialGradient
       gradientTransform="matrix(0,4.037502,-4.2711955,-1.13499e-7,52.090678,-12.472598)"
       gradientUnits="userSpaceOnUse"
       xlink:href="#linearGradient2867-449-88-871-390-598-476-591-434-148-57-177-8-3-3-6-4-8-8-8-5"
       id="radialGradient3092"
       fy="8.4497671"
       fx="0.96534902"
       r="19.99999"
       cy="8.4497671"
       cx="0.96534902" />
    <linearGradient
       id="linearGradient3820-7-2-2">
      <stop
         offset="0"
         style="stop-color:#3d3d3d;stop-opacity:1"
         id="stop3822-2-6-36" />
      <stop
         offset="0.5"
         style="stop-color:#686868;stop-opacity:0.49803922"
         id="stop3864-8-7-6" />
      <stop
         offset="1"
         style="stop-color:#686868;stop-opacity:0"
         id="stop3824-1-2-4" />
    </linearGradient>
    <radialGradient
       gradientTransform="matrix(0.1489586,0,0,0.04739593,1.2297114,17.875783)"
       gradientUnits="userSpaceOnUse"
       xlink:href="#linearGradient3820-7-2-2"
       id="radialGradient3315"
       fy="186.17059"
       fx="99.157013"
       r="62.769119"
       cy="186.17059"
       cx="99.157013" />
    <linearGradient
       id="linearGradient2867-449-88-871-390-598-476-591-434-148-57-177-8-3-3-6-4-8-8-8-5">
      <stop
         offset="0"
         style="stop-color:#919caf;stop-opacity:1"
         id="stop3750-1-0-7-6-6-1-3-9-3" />
      <stop
         offset="0.26238"
         style="stop-color:#68758e;stop-opacity:1"
         id="stop3752-3-7-4-0-32-8-923-0-7" />
      <stop
         offset="0.704952"
         style="stop-color:#485a6c;stop-opacity:1"
         id="stop3754-1-8-5-2-7-6-7-1-9" />
      <stop
         offset="1"
         style="stop-color:#444c5c;stop-opacity:1"
         id="stop3756-1-6-2-6-6-1-96-6-0" />
    </linearGradient>
  </defs>
  <metadata
     id="metadata4253">
    <rdf:RDF>
      <cc:Work
         rdf:about="">
        <dc:format>image/svg+xml</dc:format>
        <dc:type
           rdf:resource="http://purl.org/dc/dcmitype/StillImage" />
        <dc:title />
      </cc:Work>
    </rdf:RDF>
  </metadata>
  <path
     style="fill:url(#radialGradient3315);fill-opacity:1;stroke:none;stroke-width:1;stroke-miterlimit:4;stroke-dasharray:none"
     id="path3818-0-2"
     d="m 25.350001,26.699509 a 9.35,2.9749999 0 1 1 -18.6999999,0 9.35,2.9749999 0 1 1 18.6999999,0 z"
     inkscape:connector-curvature="0" />
  <path
     style="color:#000000;display:inline;overflow:visible;visibility:visible;fill:url(#radialGradient3092);fill-opacity:1;fill-rule:nonzero;stroke:none;stroke-width:1;marker:none;enable-background:accumulate;stroke-miterlimit:4;stroke-dasharray:none"
     id="path2555"
     d="M 16.000002,3.749999 C 9.199492,3.749999 3.675,9.274488 3.675,16.074998 3.675,22.87551 9.199492,28.400002 16.000002,28.4 22.800509,28.4 28.325006,22.87551 28.325,16.074998 28.325,9.274488 22.800509,3.749999 16.000002,3.749999 Z"
     inkscape:connector-curvature="0" />
  <path
     style="color:#000000;clip-rule:nonzero;display:inline;overflow:visible;visibility:visible;opacity:0.5;isolation:auto;mix-blend-mode:normal;color-interpolation:sRGB;color-interpolation-filters:linearRGB;solid-color:#000000;solid-opacity:1;fill:none;fill-opacity:1;fill-rule:nonzero;stroke:#1c2c38;stroke-width:1;stroke-linecap:round;stroke-linejoin:round;stroke-miterlimit:4;stroke-dasharray:none;stroke-dashoffset:0;stroke-opacity:1;marker:none;color-rendering:auto;image-rendering:auto;shape-rendering:auto;text-rendering:auto;enable-background:accumulate"
     id="path2555-6"
     d="m 16.000002,3.749999 c -6.8005103,0 -12.325002,5.5244893 -12.325002,12.325 0,6.80051 5.5244917,12.325003 12.325002,12.325001 6.800506,0 12.325005,-5.524491 12.324998,-12.325001 0,-6.8005107 -5.524492,-12.325 -12.324998,-12.325 z"
     inkscape:connector-curvature="0" />
  <path
     style="color:#000000;display:inline;overflow:visible;visibility:visible;opacity:0.3;fill:none;stroke:url(#linearGradient3089);stroke-width:1;stroke-linecap:round;stroke-linejoin:round;stroke-miterlimit:4;stroke-dasharray:none;stroke-dashoffset:0;stroke-opacity:1;marker:none;enable-background:accumulate"
     id="path8655"
     d="m 27.475,16.074593 c 0,6.337672 -5.137911,11.475406 -11.474855,11.475406 C 9.662621,27.549999 4.525,22.412206 4.525,16.074593 4.525,9.7372136 9.662621,4.6000001 16.000145,4.6000001 c 6.336944,0 11.474855,5.1372135 11.474855,11.4745929 z"
     inkscape:connector-curvature="0" />
  <path
     d="m 16,7.9750975 c -4.93257,0 -8.9499024,4.0173325 -8.9499024,8.9499025 0,4.93257 4.0173324,8.949902 8.9499024,8.949902 4.93257,0 8.949902,-4.017332 8.949902,-8.949902 0,-4.93257 -4.017332,-8.9499025 -8.949902,-8.9499025 z m 0,3.4498045 c 2.431988,0 4.403128,1.600759 5.134864,3.775195 H 10.865137 C 11.596872,13.025661 13.568012,11.424902 16,11.424902 Z m -5.134863,7.225 H 21.134864 C 20.403128,20.824339 18.431988,22.425097 16,22.425097 c -2.431988,0 -4.403128,-1.600758 -5.134863,-3.775195 z"
     id="path4789"
     style="color:#000000;clip-rule:nonzero;display:inline;overflow:visible;visibility:visible;opacity:0.15;isolation:auto;mix-blend-mode:normal;color-interpolation:sRGB;color-interpolation-filters:linearRGB;solid-color:#000000;solid-opacity:1;fill:#1c2c38;fill-opacity:1;fill-rule:nonzero;stroke:none;stroke-width:1;stroke-linecap:butt;stroke-linejoin:miter;stroke-miterlimit:4;stroke-dasharray:none;stroke-dashoffset:0;stroke-opacity:1;marker:none;color-rendering:auto;image-rendering:auto;shape-rendering:auto;text-rendering:auto;enable-background:accumulate"
     inkscape:connector-curvature="0" />
  <path
     id="path3168-9"
     d="m 16,8.8499999 c -4.459699,0 -8.075,3.6153011 -8.075,8.0750001 0,4.459699 3.615301,8.075 8.075,8.075 4.459699,0 8.075,-3.615301 8.075,-8.075 0,-4.459699 -3.615301,-8.0750001 -8.075,-8.0750001 z M 16,10.55 c 3.234144,0 5.908254,2.403896 6.321875,5.525 H 9.678125 C 10.091746,12.953896 12.765856,10.55 16,10.55 Z m -6.321875,7.225 h 12.64375 C 21.908254,20.896104 19.234144,23.3 16,23.3 c -3.234144,0 -5.908254,-2.403896 -6.321875,-5.525 z"
     style="color:#000000;clip-rule:nonzero;display:inline;overflow:visible;visibility:visible;opacity:0.3;isolation:auto;mix-blend-mode:normal;color-interpolation:sRGB;color-interpolation-filters:linearRGB;solid-color:#000000;solid-opacity:1;fill:#1c2c38;fill-opacity:1;fill-rule:nonzero;stroke:none;stroke-width:1;stroke-linecap:butt;stroke-linejoin:miter;stroke-miterlimit:4;stroke-dasharray:none;stroke-dashoffset:0;stroke-opacity:1;marker:none;color-rendering:auto;image-rendering:auto;shape-rendering:auto;text-rendering:auto;enable-background:accumulate"
     inkscape:connector-curvature="0" />
  <path
     id="path3168"
     d="m 16,7.9999999 c -4.459699,0 -8.075,3.6153011 -8.075,8.0750001 0,4.459699 3.615301,8.075 8.075,8.075 4.459699,0 8.075,-3.615301 8.075,-8.075 0,-4.459699 -3.615301,-8.0750001 -8.075,-8.0750001 z m 0,1.7 c 3.234144,0 5.908254,2.4038961 6.321875,5.5250001 H 9.678125 C 10.091746,12.103896 12.765856,9.6999999 16,9.6999999 Z M 9.678125,16.925 h 12.64375 C 21.908254,20.046104 19.234144,22.45 16,22.45 c -3.234144,0 -5.908254,-2.403896 -6.321875,-5.525 z"
     style="color:#000000;display:inline;overflow:visible;visibility:visible;opacity:1;fill:#ffffff;fill-opacity:1;fill-rule:nonzero;stroke:none;stroke-width:1;marker:none;enable-background:accumulate;stroke-miterlimit:4;stroke-dasharray:none"
     inkscape:connector-curvature="0" />
</svg>
