<?xml version="1.0" encoding="UTF-8" standalone="no"?>
<svg
   xmlns:dc="http://purl.org/dc/elements/1.1/"
   xmlns:cc="http://creativecommons.org/ns#"
   xmlns:rdf="http://www.w3.org/1999/02/22-rdf-syntax-ns#"
   xmlns:svg="http://www.w3.org/2000/svg"
   xmlns="http://www.w3.org/2000/svg"
   xmlns:xlink="http://www.w3.org/1999/xlink"
   xmlns:sodipodi="http://sodipodi.sourceforge.net/DTD/sodipodi-0.dtd"
   xmlns:inkscape="http://www.inkscape.org/namespaces/inkscape"
   id="svg2"
   height="32"
   width="32"
   version="1.2"
   sodipodi:docname="sync.svg"
   inkscape:version="0.92.4 (5da689c313, 2019-01-14)">
  <sodipodi:namedview
     pagecolor="#ffffff"
     bordercolor="#666666"
     borderopacity="1"
     objecttolerance="10"
     gridtolerance="10"
     guidetolerance="10"
     inkscape:pageopacity="0"
     inkscape:pageshadow="2"
     inkscape:window-width="2880"
     inkscape:window-height="1706"
     id="namedview20"
     showgrid="false"
     inkscape:zoom="2.8284271"
     inkscape:cx="-78.672767"
     inkscape:cy="12"
     inkscape:window-x="-11"
     inkscape:window-y="-11"
     inkscape:window-maximized="1"
     inkscape:current-layer="svg2" />
  <defs
     id="defs4">
    <linearGradient
       id="linearGradient4011">
      <stop
         offset="0"
         style="stop-color:#ffffff;stop-opacity:1"
         id="stop4013" />
      <stop
         offset="0.507761"
         style="stop-color:#ffffff;stop-opacity:0.23529412"
         id="stop4015-3" />
      <stop
         offset="0.83456558"
         style="stop-color:#ffffff;stop-opacity:0.15686275"
         id="stop4017-2" />
      <stop
         offset="1"
         style="stop-color:#ffffff;stop-opacity:0.39215687"
         id="stop4019" />
    </linearGradient>
    <linearGradient
       id="linearGradient27416-1-5">
      <stop
         offset="0"
         style="stop-color:#9bdb4d;stop-opacity:1"
         id="stop27420-2-2" />
      <stop
         offset="1"
         style="stop-color:#68b723;stop-opacity:1"
         id="stop27422-3-2" />
    </linearGradient>
    <linearGradient
       gradientTransform="matrix(0.61108107,0,0,0.61108107,-27.835007,0.50467671)"
       gradientUnits="userSpaceOnUse"
       xlink:href="#linearGradient4011"
       id="linearGradient12398-3"
       y2="44.340794"
       x2="71.204407"
       y1="6.2375584"
       x1="71.204407" />
    <linearGradient
       gradientTransform="matrix(0.95769942,0,0,0.71597234,-1936.5757,-2292.6957)"
       gradientUnits="userSpaceOnUse"
       xlink:href="#linearGradient27416-1-5"
       id="linearGradient11527-6-5"
       y2="3241.9966"
       x2="2035.1652"
       y1="3208.0737"
       x1="2035.1652" />
  </defs>
  <metadata
     id="metadata7">
    <rdf:RDF>
      <cc:Work
         rdf:about="">
        <dc:format>image/svg+xml</dc:format>
        <dc:type
           rdf:resource="http://purl.org/dc/dcmitype/StillImage" />
        <dc:title />
      </cc:Work>
    </rdf:RDF>
  </metadata>
  <path
     style="color:#000000;display:inline;overflow:visible;visibility:visible;opacity:0.98999999;fill:url(#linearGradient11527-6-5);fill-opacity:1;fill-rule:nonzero;stroke:none;stroke-width:1;marker:none;enable-background:accumulate;stroke-miterlimit:4;stroke-dasharray:none"
     id="path2555-7-8-5-0-9"
     d="M 16,3.5049999 C 9.1056873,3.5049999 3.5049999,9.1056874 3.5049999,16 3.5049999,22.894313 9.1056873,28.495 16,28.495 22.894313,28.495 28.495012,22.894313 28.495,16 28.495,9.1056874 22.894313,3.5049999 16,3.5049999 Z"
     inkscape:connector-curvature="0" />
  <path
     style="color:#000000;display:inline;overflow:visible;visibility:visible;opacity:0.5;fill:none;stroke:#206b00;stroke-width:1;stroke-linecap:round;stroke-linejoin:round;stroke-miterlimit:4;stroke-dasharray:none;stroke-dashoffset:0;stroke-opacity:1;marker:none;enable-background:accumulate"
     id="path2555-7-8-5-1"
     d="M 16,3.5049999 C 9.1056873,3.5049999 3.5049999,9.1056874 3.5049999,16 3.5049999,22.894313 9.1056873,28.495 16,28.495 22.894313,28.495 28.495012,22.894313 28.495,16 28.495,9.1056874 22.894313,3.5049999 16,3.5049999 Z"
     inkscape:connector-curvature="0" />
  <path
     style="color:#000000;display:inline;overflow:visible;visibility:visible;opacity:0.5;fill:none;stroke:url(#linearGradient12398-3);stroke-width:1;stroke-linecap:round;stroke-linejoin:round;stroke-miterlimit:4;stroke-dasharray:none;stroke-dashoffset:0;stroke-opacity:1;marker:none;enable-background:accumulate"
     id="path8655-6-0-9-5-0"
     d="M 27.304988,15.999595 C 27.304988,22.243383 22.243192,27.305 16.000131,27.305 9.7564983,27.305 4.6949999,22.243323 4.6949999,15.999595 4.6949999,9.7561057 9.7564983,4.695 16.000131,4.695 c 6.243061,0 11.304857,5.0611057 11.304857,11.304595 z"
     inkscape:connector-curvature="0" />
  <path
     d="m 16,9.455 c -3.32326,0 -6.1021058,2.280672 -6.8982813,5.355 H 10.868125 C 11.605636,12.686664 13.626344,11.165625 16,11.165625 c 1.650852,0 3.131352,0.734167 4.127812,1.896562 L 17.785,15.405 H 23.14 V 10.05 l -1.803594,1.803594 C 20.032685,10.378735 18.123858,9.455 16,9.455 Z m -7.14,8.33 v 5.355 l 2.101094,-2.101094 C 12.249369,22.335696 14.026813,23.14 16,23.14 c 3.323262,0 6.102106,-2.280672 6.898281,-5.355 H 21.131875 C 20.394366,19.908336 18.373655,21.429375 16,21.429375 c -1.498032,0 -2.847271,-0.618356 -3.830313,-1.599063 L 14.215,17.785 Z"
     id="path4285-6"
     style="color:#000000;display:inline;overflow:visible;visibility:visible;opacity:0.5;vector-effect:none;fill:#ffffff;fill-opacity:1;fill-rule:nonzero;stroke:none;stroke-width:1;stroke-linecap:butt;stroke-linejoin:miter;stroke-miterlimit:4;stroke-dasharray:none;stroke-dashoffset:0;stroke-opacity:1;marker:none;enable-background:accumulate"
     inkscape:connector-curvature="0" />
  <path
     d="m 16,8.86 c -3.32326,0 -6.1021058,2.280672 -6.8982813,5.355 H 10.868125 C 11.605636,12.091664 13.626344,10.570625 16,10.570625 c 1.650852,0 3.131352,0.734167 4.127812,1.896562 L 17.785,14.81 H 23.14 V 9.455 l -1.803594,1.803594 C 20.032685,9.7837349 18.123858,8.86 16,8.86 Z m -7.14,8.33 v 5.355 l 2.101094,-2.101094 C 12.249369,21.740696 14.026813,22.545 16,22.545 c 3.323262,0 6.102106,-2.280672 6.898281,-5.355 H 21.131875 C 20.394366,19.313336 18.373655,20.834375 16,20.834375 c -1.498032,0 -2.847271,-0.618357 -3.830313,-1.599063 L 14.215,17.19 Z"
     id="path4285"
     style="color:#000000;display:inline;overflow:visible;visibility:visible;opacity:1;vector-effect:none;fill:#206b00;fill-opacity:1;fill-rule:nonzero;stroke:none;stroke-width:1;stroke-linecap:butt;stroke-linejoin:miter;stroke-miterlimit:4;stroke-dasharray:none;stroke-dashoffset:0;stroke-opacity:1;marker:none;enable-background:accumulate"
     inkscape:connector-curvature="0" />
</svg>
