<?xml version="1.0" encoding="UTF-8" standalone="no"?>
<svg
   xmlns:dc="http://purl.org/dc/elements/1.1/"
   xmlns:cc="http://creativecommons.org/ns#"
   xmlns:rdf="http://www.w3.org/1999/02/22-rdf-syntax-ns#"
   xmlns:svg="http://www.w3.org/2000/svg"
   xmlns="http://www.w3.org/2000/svg"
   xmlns:xlink="http://www.w3.org/1999/xlink"
   xmlns:sodipodi="http://sodipodi.sourceforge.net/DTD/sodipodi-0.dtd"
   xmlns:inkscape="http://www.inkscape.org/namespaces/inkscape"
   id="svg2"
   height="32"
   width="32"
   version="1.2"
   sodipodi:docname="sync.svg"
   inkscape:version="0.92.4 (5da689c313, 2019-01-14)">
  <sodipodi:namedview
     pagecolor="#ffffff"
     bordercolor="#666666"
     borderopacity="1"
     objecttolerance="10"
     gridtolerance="10"
     guidetolerance="10"
     inkscape:pageopacity="0"
     inkscape:pageshadow="2"
     inkscape:window-width="2880"
     inkscape:window-height="1706"
     id="namedview20"
     showgrid="false"
     inkscape:zoom="2.8284271"
     inkscape:cx="-1.0677966"
     inkscape:cy="12"
     inkscape:window-x="-11"
     inkscape:window-y="-11"
     inkscape:window-maximized="1"
     inkscape:current-layer="svg2" />
  <defs
     id="defs4">
    <linearGradient
       id="linearGradient4011">
      <stop
         offset="0"
         style="stop-color:#ffffff;stop-opacity:1"
         id="stop4013" />
      <stop
         offset="0.507761"
         style="stop-color:#ffffff;stop-opacity:0.23529412"
         id="stop4015-3" />
      <stop
         offset="0.83456558"
         style="stop-color:#ffffff;stop-opacity:0.15686275"
         id="stop4017-2" />
      <stop
         offset="1"
         style="stop-color:#ffffff;stop-opacity:0.39215687"
         id="stop4019" />
    </linearGradient>
    <linearGradient
       id="linearGradient27416-1-5">
      <stop
         offset="0"
         style="stop-color:#9bdb4d;stop-opacity:1"
         id="stop27420-2-2" />
      <stop
         offset="1"
         style="stop-color:#68b723;stop-opacity:1"
         id="stop27422-3-2" />
    </linearGradient>
    <linearGradient
       gradientTransform="matrix(0.7189189,0,0,0.7189189,-35.570596,-2.2297921)"
       gradientUnits="userSpaceOnUse"
       xlink:href="#linearGradient4011"
       id="linearGradient12398-3"
       y2="44.340794"
       x2="71.204407"
       y1="6.2375584"
       x1="71.204407" />
    <linearGradient
       gradientTransform="matrix(1.1267052,0,0,0.8423204,-2281.1479,-2700.1126)"
       gradientUnits="userSpaceOnUse"
       xlink:href="#linearGradient27416-1-5"
       id="linearGradient11527-6-5"
       y2="3241.9966"
       x2="2035.1652"
       y1="3208.0737"
       x1="2035.1652" />
  </defs>
  <metadata
     id="metadata7">
    <rdf:RDF>
      <cc:Work
         rdf:about="">
        <dc:format>image/svg+xml</dc:format>
        <dc:type
           rdf:resource="http://purl.org/dc/dcmitype/StillImage" />
        <dc:title></dc:title>
      </cc:Work>
    </rdf:RDF>
  </metadata>
  <path
     style="color:#000000;display:inline;overflow:visible;visibility:visible;opacity:0.98999999;fill:url(#linearGradient11527-6-5);fill-opacity:1;fill-rule:nonzero;stroke:none;stroke-width:1.39999974;marker:none;enable-background:accumulate"
     id="path2555-7-8-5-0-9"
     d="M 16,1.2999999 C 7.8890439,1.2999999 1.2999999,7.889044 1.2999999,16 1.2999999,24.110956 7.8890439,30.7 16,30.7 24.110956,30.7 30.700014,24.110956 30.7,16 30.7,7.889044 24.110956,1.2999999 16,1.2999999 Z"
     inkscape:connector-curvature="0" />
  <path
     style="color:#000000;display:inline;overflow:visible;visibility:visible;opacity:0.5;fill:none;stroke:#206b00;stroke-width:1;stroke-linecap:round;stroke-linejoin:round;stroke-miterlimit:4;stroke-dasharray:none;stroke-dashoffset:0;stroke-opacity:1;marker:none;enable-background:accumulate"
     id="path2555-7-8-5-1"
     d="M 16,1.2999999 C 7.8890439,1.2999999 1.2999999,7.889044 1.2999999,16 1.2999999,24.110956 7.8890439,30.7 16,30.7 24.110956,30.7 30.700014,24.110956 30.7,16 30.7,7.889044 24.110956,1.2999999 16,1.2999999 Z"
     inkscape:connector-curvature="0" />
  <path
     style="color:#000000;display:inline;overflow:visible;visibility:visible;opacity:0.5;fill:none;stroke:url(#linearGradient12398-3);stroke-width:1;stroke-linecap:round;stroke-linejoin:round;stroke-miterlimit:4;stroke-dasharray:none;stroke-dashoffset:0;stroke-opacity:1;marker:none;enable-background:accumulate"
     id="path8655-6-0-9-5-0"
     d="M 29.299986,15.999524 C 29.299986,23.345156 23.344932,29.3 16.000154,29.3 8.6547039,29.3 2.6999999,23.345086 2.6999999,15.999524 2.6999999,8.654242 8.6547039,2.7 16.000154,2.7 c 7.344778,0 13.299832,5.954242 13.299832,13.299524 z"
     inkscape:connector-curvature="0" />
  <path
     d="m 16,8.3 c -3.909718,0 -7.178948,2.683143 -8.115625,6.3 H 9.9625 c 0.86766,-2.498042 3.244963,-4.2875 6.0375,-4.2875 1.942179,0 3.683943,0.863726 4.85625,2.23125 L 18.1,15.3 h 6.3 V 9 l -2.121875,2.121875 C 20.744335,9.386747 18.498656,8.3 16,8.3 Z m -8.4,9.8 v 6.3 l 2.471875,-2.471875 C 11.587493,23.45376 13.678604,24.4 16,24.4 c 3.90972,0 7.178948,-2.683143 8.115625,-6.3 H 22.0375 c -0.867658,2.498042 -3.244965,4.2875 -6.0375,4.2875 -1.76239,0 -3.349731,-0.727478 -4.50625,-1.88125 L 13.9,18.1 Z"
     id="path4285-6"
     style="color:#000000;display:inline;overflow:visible;visibility:visible;opacity:0.5;vector-effect:none;fill:#ffffff;fill-opacity:1;fill-rule:nonzero;stroke:none;stroke-width:1;stroke-linecap:butt;stroke-linejoin:miter;stroke-miterlimit:4;stroke-dasharray:none;stroke-dashoffset:0;stroke-opacity:1;marker:none;enable-background:accumulate"
     inkscape:connector-curvature="0" />
  <path
     d="m 16,7.6 c -3.909718,0 -7.178948,2.683143 -8.115625,6.3 H 9.9625 C 10.83016,11.401958 13.207463,9.6125 16,9.6125 c 1.942179,0 3.683943,0.863726 4.85625,2.23125 L 18.1,14.6 h 6.3 V 8.3 l -2.121875,2.121875 C 20.744335,8.686747 18.498656,7.6 16,7.6 Z m -8.4,9.8 v 6.3 l 2.471875,-2.471875 C 11.587493,22.75376 13.678604,23.7 16,23.7 c 3.90972,0 7.178948,-2.683143 8.115625,-6.3 H 22.0375 c -0.867658,2.498042 -3.244965,4.2875 -6.0375,4.2875 -1.76239,0 -3.349731,-0.727479 -4.50625,-1.88125 L 13.9,17.4 Z"
     id="path4285"
     style="color:#000000;display:inline;overflow:visible;visibility:visible;opacity:1;vector-effect:none;fill:#206b00;fill-opacity:1;fill-rule:nonzero;stroke:none;stroke-width:1;stroke-linecap:butt;stroke-linejoin:miter;stroke-miterlimit:4;stroke-dasharray:none;stroke-dashoffset:0;stroke-opacity:1;marker:none;enable-background:accumulate"
     inkscape:connector-curvature="0" />
</svg>
