<?xml version="1.0" encoding="UTF-8" standalone="no"?>
<svg
   xmlns:dc="http://purl.org/dc/elements/1.1/"
   xmlns:cc="http://creativecommons.org/ns#"
   xmlns:rdf="http://www.w3.org/1999/02/22-rdf-syntax-ns#"
   xmlns:svg="http://www.w3.org/2000/svg"
   xmlns="http://www.w3.org/2000/svg"
   xmlns:xlink="http://www.w3.org/1999/xlink"
   xmlns:sodipodi="http://sodipodi.sourceforge.net/DTD/sodipodi-0.dtd"
   xmlns:inkscape="http://www.inkscape.org/namespaces/inkscape"
   id="svg2973"
   height="32"
   width="32"
   version="1.1"
   inkscape:version="0.92.4 (5da689c313, 2019-01-14)"
   sodipodi:docname="text-edit.svg">
  <sodipodi:namedview
     pagecolor="#ffffff"
     bordercolor="#666666"
     borderopacity="1"
     objecttolerance="10"
     gridtolerance="10"
     guidetolerance="10"
     inkscape:pageopacity="0"
     inkscape:pageshadow="2"
     inkscape:window-width="2880"
     inkscape:window-height="1706"
     id="namedview342"
     showgrid="false"
     inkscape:zoom="3.6875"
     inkscape:cx="19.669626"
     inkscape:cy="16"
     inkscape:window-x="-11"
     inkscape:window-y="-11"
     inkscape:window-maximized="1"
     inkscape:current-layer="svg2973" />
  <metadata
     id="metadata59">
    <rdf:RDF>
      <cc:Work
         rdf:about="">
        <dc:format>image/svg+xml</dc:format>
        <dc:type
           rdf:resource="http://purl.org/dc/dcmitype/StillImage" />
        <dc:title />
      </cc:Work>
    </rdf:RDF>
  </metadata>
  <defs
     id="defs2975">
    <linearGradient
       id="linearGradient4481">
      <stop
         id="stop4483"
         offset="0"
         style="stop-color:#000000;stop-opacity:0.22" />
      <stop
         id="stop4485"
         offset="1"
         style="stop-color:#000000;stop-opacity:0.37" />
    </linearGradient>
    <linearGradient
       gradientTransform="matrix(0.35804638,-0.36048118,0.48241642,0.48092292,0.42232944,12.097501)"
       gradientUnits="userSpaceOnUse"
       xlink:href="#linearGradient3290-678-5"
       id="linearGradient5778"
       y2="26.02973"
       x2="9"
       y1="29.056757"
       x1="9" />
    <linearGradient
       id="linearGradient3290-678-5">
      <stop
         offset="0"
         style="stop-color:#ece5a5;stop-opacity:1"
         id="stop2607-6" />
      <stop
         offset="1"
         style="stop-color:#fcfbf2;stop-opacity:1"
         id="stop2609-6" />
    </linearGradient>
    <linearGradient
       gradientTransform="matrix(0.31447285,0.01359878,0.01355644,0.3146783,13.446436,10.058487)"
       gradientUnits="userSpaceOnUse"
       xlink:href="#linearGradient3191-577-0"
       id="linearGradient5780"
       y2="41.391716"
       x2="9.5220556"
       y1="37.371799"
       x1="5.5178981" />
    <linearGradient
       id="linearGradient3191-577-0">
      <stop
         offset="0"
         style="stop-color:#dbce48;stop-opacity:1"
         id="stop2613-0" />
      <stop
         offset="1"
         style="stop-color:#c5b625;stop-opacity:1"
         id="stop2615-4" />
    </linearGradient>
    <linearGradient
       spreadMethod="pad"
       gradientTransform="matrix(0.39116216,-0.3910174,0.43760467,0.43314297,1.0567164,13.332182)"
       gradientUnits="userSpaceOnUse"
       xlink:href="#linearGradient3155-40-5"
       id="linearGradient5803"
       y2="31.210939"
       x2="23.575972"
       y1="25.356892"
       x1="23.575972" />
    <linearGradient
       id="linearGradient3155-40-5">
      <stop
         offset="0"
         style="stop-color:#181818;stop-opacity:1"
         id="stop2541-0" />
      <stop
         offset="0.13482948"
         style="stop-color:#dbdbdb;stop-opacity:1"
         id="stop2543-6" />
      <stop
         offset="0.20224422"
         style="stop-color:#a4a4a4;stop-opacity:1"
         id="stop2545-4" />
      <stop
         offset="0.26965895"
         style="stop-color:#ffffff;stop-opacity:1"
         id="stop2547-6" />
      <stop
         offset="0.44650277"
         style="stop-color:#8d8d8d;stop-opacity:1"
         id="stop2549-2" />
      <stop
         offset="0.57114136"
         style="stop-color:#959595;stop-opacity:1"
         id="stop2551-5" />
      <stop
         offset="0.72038066"
         style="stop-color:#cecece;stop-opacity:1"
         id="stop2553-8" />
      <stop
         offset="1"
         style="stop-color:#181818;stop-opacity:1"
         id="stop2555-6" />
    </linearGradient>
    <linearGradient
       gradientTransform="matrix(0.58335184,0,0,1.2246593,3.5278431,-19.508605)"
       gradientUnits="userSpaceOnUse"
       xlink:href="#linearGradient4338-2"
       id="linearGradient5807"
       y2="19.561583"
       x2="21.862232"
       y1="38.581444"
       x1="21.862232" />
    <linearGradient
       id="linearGradient4338-2">
      <stop
         offset="0"
         style="stop-color:#8e8e8e;stop-opacity:1"
         id="stop4340-6" />
      <stop
         offset="1"
         style="stop-color:#b5b5b5;stop-opacity:1"
         id="stop4342-7" />
    </linearGradient>
    <linearGradient
       gradientTransform="matrix(0.25156852,1.5209454e-4,-1.5316647e-4,0.24980797,28.890245,-1.2712352)"
       gradientUnits="userSpaceOnUse"
       xlink:href="#linearGradient3600-6"
       id="linearGradient5811"
       y2="114.5354"
       x2="-60.908253"
       y1="13.668072"
       x1="-60.969666" />
    <linearGradient
       id="linearGradient3600-6">
      <stop
         offset="0"
         style="stop-color:#f4f4f4;stop-opacity:1"
         id="stop3602-9" />
      <stop
         offset="1"
         style="stop-color:#dbdbdb;stop-opacity:1"
         id="stop3604-4" />
    </linearGradient>
    <radialGradient
       gradientTransform="matrix(0.01331369,0,0,0.0105,17.518846,22.425394)"
       gradientUnits="userSpaceOnUse"
       xlink:href="#linearGradient5060-8"
       id="radialGradient5826"
       fy="486.64789"
       fx="605.71429"
       r="117.14286"
       cy="486.64789"
       cx="605.71429" />
    <linearGradient
       id="linearGradient5060-8">
      <stop
         offset="0"
         style="stop-color:#000000;stop-opacity:1"
         id="stop5062-8" />
      <stop
         offset="1"
         style="stop-color:#000000;stop-opacity:0"
         id="stop5064-8" />
    </linearGradient>
    <radialGradient
       gradientTransform="matrix(-0.01331369,0,0,0.0105,14.781113,22.425394)"
       gradientUnits="userSpaceOnUse"
       xlink:href="#linearGradient5060-8"
       id="radialGradient5829"
       fy="486.64789"
       fx="605.71429"
       r="117.14286"
       cy="486.64789"
       cx="605.71429" />
    <linearGradient
       id="linearGradient5048-2">
      <stop
         offset="0"
         style="stop-color:#000000;stop-opacity:0"
         id="stop5050-8" />
      <stop
         offset="0.5"
         style="stop-color:#000000;stop-opacity:1"
         id="stop5056-8" />
      <stop
         offset="1"
         style="stop-color:#000000;stop-opacity:0"
         id="stop5052-9" />
    </linearGradient>
    <linearGradient
       gradientTransform="matrix(0.03890385,0,0,0.0105,2.0890186,22.425372)"
       gradientUnits="userSpaceOnUse"
       xlink:href="#linearGradient5048-2"
       id="linearGradient2971"
       y2="609.50507"
       x2="302.85715"
       y1="366.64789"
       x1="302.85715" />
    <linearGradient
       x1="68.437271"
       y1="4.9071846"
       x2="68.437271"
       y2="40.376637"
       id="linearGradient3388"
       xlink:href="#linearGradient3454"
       gradientUnits="userSpaceOnUse"
       gradientTransform="matrix(0.48187099,0,0,0.57648259,-19.941185,2.9985881)" />
    <linearGradient
       id="linearGradient3454">
      <stop
         id="stop3456"
         style="stop-color:#ffffff;stop-opacity:1"
         offset="0" />
      <stop
         id="stop3458"
         style="stop-color:#ffffff;stop-opacity:0.23529412"
         offset="0.0097359" />
      <stop
         id="stop3460"
         style="stop-color:#ffffff;stop-opacity:0.15686275"
         offset="0.99001008" />
      <stop
         id="stop3462"
         style="stop-color:#ffffff;stop-opacity:0.39215687"
         offset="1" />
    </linearGradient>
    <linearGradient
       gradientTransform="matrix(0.85,0,0,0.85,24.482315,2.4750168)"
       gradientUnits="userSpaceOnUse"
       y2="29.61026"
       x2="1.4480815"
       y1="2.6024418"
       x1="1.4480815"
       id="linearGradient4487"
       xlink:href="#linearGradient4481" />
  </defs>
  <rect
     width="18.785"
     height="2.549999"
     x="6.7574806"
     y="26.275171"
     id="rect3706"
     style="display:inline;overflow:visible;visibility:visible;opacity:0.2;fill:url(#linearGradient2971);fill-opacity:1;fill-rule:nonzero;stroke:none;stroke-width:1;marker:none;stroke-miterlimit:4;stroke-dasharray:none" />
  <path
     d="m 6.7574804,26.275284 c 0,0 0,2.549858 0,2.549858 -0.685622,0.0048 -1.6575,-0.571294 -1.6575,-1.275094 0,-0.703799 0.7651024,-1.274764 1.6575,-1.274764 z"
     id="path3708"
     style="display:inline;overflow:visible;visibility:visible;opacity:0.2;fill:url(#radialGradient5829);fill-opacity:1;fill-rule:nonzero;stroke:none;stroke-width:1;marker:none;stroke-miterlimit:4;stroke-dasharray:none"
     inkscape:connector-curvature="0" />
  <path
     d="m 25.542481,26.275284 c 0,0 0,2.549858 0,2.549858 0.685621,0.0048 1.6575,-0.571294 1.6575,-1.275094 0,-0.703799 -0.765103,-1.274764 -1.6575,-1.274764 z"
     id="path3710"
     style="display:inline;overflow:visible;visibility:visible;opacity:0.2;fill:url(#radialGradient5826);fill-opacity:1;fill-rule:nonzero;stroke:none;stroke-width:1;marker:none;stroke-miterlimit:4;stroke-dasharray:none"
     inkscape:connector-curvature="0" />
  <path
     d="M 7.2249805,5.0250168 H 25.074981 l 0.425,22.1000002 c 0,0 -12.183333,0.0039 -18.7000005,0 0.051283,-1.761538 0.425,-22.1000002 0.425,-22.1000002 z"
     id="path2855"
     style="display:inline;fill:url(#linearGradient5811);fill-opacity:1;stroke:none;stroke-width:1;stroke-linecap:round;stroke-linejoin:round;stroke-miterlimit:4;stroke-dasharray:none;stroke-opacity:1"
     inkscape:connector-curvature="0" />
  <path
     d="M 9.2904644,5.8675657 8.8601979,26.435791"
     id="path5685"
     style="display:inline;opacity:0.59069764;fill:#80b3ff;fill-rule:evenodd;stroke:#f6abab;stroke-width:1;stroke-linecap:round;stroke-linejoin:round;stroke-miterlimit:4;stroke-dasharray:none;stroke-opacity:1"
     inkscape:connector-curvature="0" />
  <path
     d="m 12.632037,23.725017 h 1.032197 v 0.85 h -1.032197 z m 1.237596,0 h 1.430348 v 0.85 h -1.430348 z m -3.669653,0 h 2.226658 v 0.85 H 10.19998 Z m 6.297238,-3.4 h 1.243851 v 0.85 h -1.243851 z m 4.537309,0 h 2.765454 v 0.85 h -2.765454 z m -6.049743,0 h 1.335505 v 0.85 h -1.335505 z m -2.942379,0 h 2.765448 v 0.85 h -2.765448 z m -1.842425,0 h 1.665496 v 0.85 H 10.19998 Z m 11.59816,1.7 h 0.301841 v 0.85 H 21.79814 Z m -1.44739,0 h 1.29216 v 0.85 h -1.29216 z m -2.190125,0 h 1.920625 v 0.85 h -1.920625 z m -1.637836,0 h 1.463556 v 0.85 h -1.463556 z m -1.199813,0 h 0.911265 v 0.85 h -0.911265 z m -1.066493,0 h 0.911264 v 0.85 h -0.911264 z m -0.590384,0 h 0.473239 v 0.85 h -0.473239 z m -1.218854,0 h 1.006487 v 0.85 h -1.006487 z m -2.247265,0 h 2.092031 v 0.85 H 10.19998 Z m 1.09228,-8.5 h 3.157721 v 0.85 H 11.29226 Z m -1.09228,0 h 0.86772 v 0.85 h -0.86772 z m 6.529081,-1.7 h 1.289645 v 0.85 h -1.289645 z m 2.756091,0 h 1.764829 v 0.85 h -1.764829 z m -1.283011,0 h 1.099567 v 0.85 h -1.099567 z m -3.041198,0 h 1.384675 v 0.85 h -1.384675 z m -3.050706,0 H 14.9775 v 0.85 h -2.867263 z m -1.910257,0 h 1.726814 v 0.85 H 10.19998 Z m 7.540479,-1.7 h 1.809522 v 0.85 h -1.809522 z m -1.558781,0 h 1.378889 v 0.85 h -1.378889 z m -1.038443,0 h 0.858546 v 0.85 h -0.858546 z m -1.038439,0 h 0.858546 v 0.85 h -0.858546 z m -0.625756,0 h 0.44586 v 0.85 h -0.44586 z m -1.128157,0 h 0.94826 v 0.85 h -0.94826 z m -2.150903,0 h 1.971004 v 0.85 H 10.19998 Z M 21.458376,8.4250169 h 0.641605 v 0.85 h -0.641605 z m -2.273775,0 h 2.096087 v 0.85 h -2.096087 z m -2.93657,0 h 2.758888 v 0.85 h -2.758888 z m -1.242749,0 h 1.065062 v 0.85 h -1.065062 z m -0.653598,0 h 0.475911 v 0.85 h -0.475911 z m -1.261159,0 h 1.083478 v 0.85 h -1.083478 z m -1.408452,0 h 1.230771 v 0.85 h -1.230771 z m -1.482093,0 h 1.304411 v 0.85 H 10.19998 Z m 6.698502,8.5000001 h 2.469025 v 0.85 h -2.469025 z m -1.240158,0 h 1.048136 v 0.85 h -1.048136 z m -2.816759,0 h 2.624738 v 0.85 h -2.624738 z m -2.641585,0 h 2.449565 v 0.85 H 10.19998 Z m 5.982862,1.7 h 1.384867 v 0.85 h -1.384867 z m -1.135306,0 h 0.862272 v 0.85 h -0.862272 z m -1.009152,0 h 0.86227 v 0.85 h -0.86227 z m -0.558641,0 h 0.447794 v 0.85 h -0.447794 z m -1.153323,0 h 0.952374 v 0.85 H 12.32642 Z m -2.12644,0 h 1.979552 v 0.85 H 10.19998 Z m 8.959722,-3.4 h 2.090279 v 0.85 h -2.090279 z m -2.928432,0 h 2.751242 v 0.85 H 16.23127 Z m -1.239305,0 h 1.06211 v 0.85 h -1.06211 z m -0.651787,0 h 0.474592 v 0.85 h -0.474592 z m -1.257665,0 h 1.080476 v 0.85 h -1.080476 z m -1.404547,0 h 1.22736 v 0.85 h -1.22736 z m -1.477986,0 h 1.300795 v 0.85 H 10.19998 Z"
     id="path3406"
     style="display:inline;opacity:0.7;fill:url(#linearGradient5807);fill-opacity:1;stroke:none;stroke-width:1;stroke-miterlimit:4;stroke-dasharray:none"
     inkscape:connector-curvature="0" />
  <path
     style="color:#000000;display:inline;overflow:visible;visibility:visible;fill:none;stroke:url(#linearGradient3388);stroke-width:1;stroke-linecap:round;stroke-linejoin:miter;stroke-miterlimit:4;stroke-dasharray:none;stroke-dashoffset:0;stroke-opacity:1;marker:none;enable-background:accumulate"
     id="path2855-3"
     d="M 7.6499805,5.4500168 H 24.649981 l 0.425,21.2500002 H 7.2249805 Z"
     inkscape:connector-curvature="0" />
  <path
     d="m 6.7999813,4.6008893 c 4.7603337,0.0029 13.9396657,-0.0029 18.6999987,0 0.04191,0.8988161 0.383074,21.3809627 0.425001,22.9491277 -6.516667,-0.0039 -13.033332,-0.0079 -19.5499997,-0.01182 0.05128,-1.761539 0.3737161,-22.1468691 0.425,-22.9373037 z"
     id="path2855-7-3"
     style="display:inline;fill:none;fill-opacity:1;stroke:url(#linearGradient4487);stroke-width:1;stroke-linecap:round;stroke-linejoin:round;stroke-miterlimit:4;stroke-dasharray:none;stroke-opacity:1"
     inkscape:connector-curvature="0" />
  <path
     d="m 24.314846,16.114178 c -0.100536,-0.05795 -0.178328,-0.04288 -0.229721,-0.01063 l -6.845014,4.267867 -1.259811,0.787704 -0.03878,0.01594 -1.491542,3.290948 3.696446,0.109017 0.03069,-0.0201 1.267912,-0.783528 6.843307,-4.304675 C 26.493914,19.337737 26.16879,18.48295 25.559014,17.545896 25.10168,16.843109 24.616474,16.288027 24.314861,16.114182 Z"
     id="path2422"
     style="opacity:0.15;fill:#0c0c0c;fill-opacity:1;fill-rule:evenodd;stroke:none;stroke-width:1;stroke-miterlimit:4;stroke-dasharray:none"
     inkscape:connector-curvature="0" />
  <path
     d="m 16.515104,19.949181 c 0.265666,-0.198307 1.011078,0.173685 1.696081,0.851703 0.683365,0.676396 1.043438,1.400175 0.848598,1.667032 -7.39e-4,0.001 0.01676,0.01484 0.016,0.01584 L 28.61403,12.949042 C 28.856203,12.706959 28.479938,11.94196 27.773188,11.242416 27.066441,10.542874 26.29552,10.172382 26.053351,10.414462 Z"
     id="rect2383"
     style="fill:url(#linearGradient5803);fill-opacity:1;stroke:#0c0c0c;stroke-width:0.5;stroke-linecap:butt;stroke-linejoin:round;stroke-miterlimit:4;stroke-dasharray:none;stroke-dashoffset:0;stroke-opacity:1"
     inkscape:connector-curvature="0" />
  <path
     d="m 24.889282,11.578101 c 0.265665,-0.198307 1.011078,0.173685 1.696081,0.851703 0.683364,0.676396 1.043437,1.400175 0.848597,1.667032 -7.15e-4,10e-4 0.01677,0.01484 0.01601,0.01584 l 1.16407,-1.163639 0.02377,-0.02375 c 7.75e-4,-0.001 -0.01675,-0.01482 -0.016,-0.01584 0.194833,-0.26686 -0.165242,-0.990639 -0.848605,-1.667036 -0.685005,-0.678013 -1.430419,-1.050005 -1.696084,-0.851698 l -0.02377,0.02375 -1.164069,1.16364 z"
     id="rect3175"
     style="opacity:0.8;fill:#ffb6ed;fill-opacity:1;stroke:#e28ccd;stroke-width:0.5;stroke-linecap:butt;stroke-linejoin:round;stroke-miterlimit:4;stroke-dasharray:none;stroke-dashoffset:0;stroke-opacity:1"
     inkscape:connector-curvature="0" />
  <path
     d="m 16.384529,19.966621 c 0.250249,-0.188138 0.952403,0.164779 1.597654,0.808031 0.643708,0.641715 0.982885,1.32838 0.799352,1.581556 -6.96e-4,9.35e-4 0.01578,0.01408 0.01507,0.01502 l 6.187488,-6.229566 0.02239,-0.02253 c 7.3e-4,-9.35e-4 -0.01577,-0.01406 -0.01506,-0.01502 0.183529,-0.253175 -0.155648,-0.939842 -0.799356,-1.581556 -0.645249,-0.643253 -1.347407,-0.996169 -1.597655,-0.80803 l -0.02239,0.02252 -6.187485,6.229566 z"
     id="path3208"
     style="opacity:0.6;fill:#0c0c0c;fill-opacity:1;stroke:none;stroke-width:0.5;stroke-miterlimit:4;stroke-dasharray:none"
     inkscape:connector-curvature="0" />
  <path
     d="m 14.748093,24.23079 4.087582,-1.670362 0.03483,-0.03488 c 0.183534,-0.253176 -0.160069,-0.939896 -0.803775,-1.581612 -0.645252,-0.643253 -1.346576,-0.994219 -1.596826,-0.806081 l -1.721806,4.092944 z"
     id="path3270"
     style="fill:url(#linearGradient5778);fill-opacity:1;fill-rule:evenodd;stroke:url(#linearGradient5780);stroke-width:0.5;stroke-linecap:butt;stroke-linejoin:miter;stroke-miterlimit:4;stroke-dasharray:none;stroke-opacity:1"
     inkscape:connector-curvature="0" />
  <path
     d="m 15.128808,23.207421 -0.466643,1.10416 1.11489,-0.457919 c -0.08936,-0.107235 -0.171848,-0.216154 -0.279132,-0.323107 -0.123515,-0.123131 -0.245001,-0.223039 -0.369115,-0.323134 z"
     id="path3281"
     style="fill:#0c0c0c;fill-opacity:1;fill-rule:evenodd;stroke:#0c0c0c;stroke-width:0.5;stroke-linecap:butt;stroke-linejoin:miter;stroke-miterlimit:4;stroke-dasharray:none;stroke-opacity:1"
     inkscape:connector-curvature="0" />
</svg>
