<?xml version="1.0" encoding="UTF-8" standalone="no"?>
<svg
   xmlns:dc="http://purl.org/dc/elements/1.1/"
   xmlns:cc="http://creativecommons.org/ns#"
   xmlns:rdf="http://www.w3.org/1999/02/22-rdf-syntax-ns#"
   xmlns:svg="http://www.w3.org/2000/svg"
   xmlns="http://www.w3.org/2000/svg"
   xmlns:xlink="http://www.w3.org/1999/xlink"
   xmlns:sodipodi="http://sodipodi.sourceforge.net/DTD/sodipodi-0.dtd"
   xmlns:inkscape="http://www.inkscape.org/namespaces/inkscape"
   version="1.0"
   width="32"
   height="32"
   id="svg3695"
   sodipodi:docname="trash-full.svg"
   inkscape:version="0.92.4 (5da689c313, 2019-01-14)">
  <sodipodi:namedview
     pagecolor="#ffffff"
     bordercolor="#666666"
     borderopacity="1"
     objecttolerance="10"
     gridtolerance="10"
     guidetolerance="10"
     inkscape:pageopacity="0"
     inkscape:pageshadow="2"
     inkscape:window-width="2880"
     inkscape:window-height="1706"
     id="namedview102"
     showgrid="false"
     inkscape:zoom="7.375"
     inkscape:cx="-1.4237288"
     inkscape:cy="16"
     inkscape:window-x="-11"
     inkscape:window-y="-11"
     inkscape:window-maximized="1"
     inkscape:current-layer="svg3695" />
  <metadata
     id="metadata182300">
    <rdf:RDF>
      <cc:Work
         rdf:about="">
        <dc:format>image/svg+xml</dc:format>
        <dc:type
           rdf:resource="http://purl.org/dc/dcmitype/StillImage" />
        <dc:title />
      </cc:Work>
    </rdf:RDF>
  </metadata>
  <defs
     id="defs3697">
    <linearGradient
       id="linearGradient5060">
      <stop
         id="stop5062"
         style="stop-color:#000000;stop-opacity:1"
         offset="0" />
      <stop
         id="stop5064"
         style="stop-color:#000000;stop-opacity:0"
         offset="1" />
    </linearGradient>
    <linearGradient
       id="linearGradient3384">
      <stop
         id="stop3386"
         style="stop-color:#6e6e6e;stop-opacity:1"
         offset="0" />
      <stop
         id="stop3388"
         style="stop-color:#9f9fa1;stop-opacity:1"
         offset="1" />
    </linearGradient>
    <linearGradient
       id="linearGradient2793-2-0-403">
      <stop
         id="stop4645"
         style="stop-color:#8d909a;stop-opacity:1"
         offset="0" />
      <stop
         id="stop4647"
         style="stop-color:#d9d9d9;stop-opacity:1"
         offset="1" />
    </linearGradient>
    <linearGradient
       id="linearGradient3355-273">
      <stop
         id="stop4657"
         style="stop-color:#f0f0f0;stop-opacity:1"
         offset="0" />
      <stop
         id="stop3619"
         style="stop-color:#777779;stop-opacity:1"
         offset="0.44955608" />
      <stop
         id="stop4659"
         style="stop-color:#6c6c70;stop-opacity:1"
         offset="1" />
    </linearGradient>
    <linearGradient
       id="linearGradient3320">
      <stop
         id="stop3323"
         style="stop-color:#4e4e4e;stop-opacity:1"
         offset="0" />
      <stop
         id="stop3325"
         style="stop-color:#b9bac2;stop-opacity:1"
         offset="1" />
    </linearGradient>
    <linearGradient
       id="linearGradient3627">
      <stop
         id="stop3629"
         style="stop-color:#000000;stop-opacity:0"
         offset="0" />
      <stop
         id="stop3190"
         style="stop-color:#000000;stop-opacity:0"
         offset="0.5" />
      <stop
         id="stop3631"
         style="stop-color:#000000;stop-opacity:1"
         offset="1" />
    </linearGradient>
    <linearGradient
       id="linearGradient3254-8-457">
      <stop
         id="stop4669"
         style="stop-color:#ffffff;stop-opacity:1"
         offset="0" />
      <stop
         id="stop4671"
         style="stop-color:#ffffff;stop-opacity:0"
         offset="1" />
    </linearGradient>
    <linearGradient
       id="linearGradient3254-3-182">
      <stop
         id="stop4663"
         style="stop-color:#ffffff;stop-opacity:1"
         offset="0" />
      <stop
         id="stop4665"
         style="stop-color:#ffffff;stop-opacity:0"
         offset="1" />
    </linearGradient>
    <linearGradient
       id="linearGradient3205">
      <stop
         id="stop3207"
         style="stop-color:#000000;stop-opacity:1"
         offset="0" />
      <stop
         id="stop3209"
         style="stop-color:#000000;stop-opacity:0"
         offset="1" />
    </linearGradient>
    <linearGradient
       x1="24"
       y1="13.506023"
       x2="24"
       y2="43"
       id="linearGradient3276"
       xlink:href="#linearGradient3205"
       gradientUnits="userSpaceOnUse"
       gradientTransform="matrix(0.56666669,0.17928136,0,0.48664173,2.6999997,2.9651627)" />
    <linearGradient
       x1="12.25"
       y1="20.230709"
       x2="17.125"
       y2="34.173542"
       id="linearGradient3279"
       xlink:href="#linearGradient3254-3-182"
       gradientUnits="userSpaceOnUse"
       gradientTransform="matrix(0.51,0,0,0.6814086,5.4200001,0.59026656)" />
    <linearGradient
       x1="23.5"
       y1="10.996204"
       x2="23.5"
       y2="39.850574"
       id="linearGradient3282"
       xlink:href="#linearGradient3254-8-457"
       gradientUnits="userSpaceOnUse"
       gradientTransform="matrix(0.65442282,0,0,0.98453179,0.92105047,-11.254449)" />
    <radialGradient
       cx="24"
       cy="7.7919979"
       r="14.507708"
       fx="24"
       fy="7.7919979"
       id="radialGradient3285"
       xlink:href="#linearGradient3627"
       gradientUnits="userSpaceOnUse"
       gradientTransform="matrix(-2.0598917e-8,0.4135733,-2.0298101,0,31.816276,-5.9257584)"
       spreadMethod="pad" />
    <linearGradient
       x1="9.0003471"
       y1="8"
       x2="24"
       y2="8"
       id="linearGradient3288"
       xlink:href="#linearGradient3320"
       gradientUnits="userSpaceOnUse"
       gradientTransform="matrix(0.6553796,0,0,0.6368954,0.2708905,1.9048367)"
       spreadMethod="reflect" />
    <linearGradient
       x1="23.999979"
       y1="9.3726854"
       x2="23.999979"
       y2="2.0968478"
       id="linearGradient3290"
       xlink:href="#linearGradient3355-273"
       gradientUnits="userSpaceOnUse"
       gradientTransform="matrix(0.7601524,0,0,0.8752512,-2.2436398,1.3108671)" />
    <radialGradient
       cx="19.308081"
       cy="21.029308"
       r="14.500172"
       fx="19.308081"
       fy="21.029308"
       id="radialGradient3293"
       xlink:href="#linearGradient3254-8-457"
       gradientUnits="userSpaceOnUse"
       gradientTransform="matrix(0,0.94086823,-0.91635321,0,30.123847,-7.9314115)"
       spreadMethod="pad" />
    <linearGradient
       x1="11.93083"
       y1="26.410894"
       x2="21.514704"
       y2="26.410894"
       id="linearGradient3296"
       xlink:href="#linearGradient2793-2-0-403"
       gradientUnits="userSpaceOnUse"
       gradientTransform="matrix(0.67292001,0,0,0.77178263,1.8322196,-2.7726156)"
       spreadMethod="reflect" />
    <linearGradient
       x1="31.048019"
       y1="45"
       x2="31.048019"
       y2="5.5"
       id="linearGradient3298"
       xlink:href="#linearGradient3384"
       gradientUnits="userSpaceOnUse"
       gradientTransform="matrix(0.55689263,0,0,0.50779217,2.9345764,5.8878285)" />
    <radialGradient
       cx="62.71241"
       cy="108.02493"
       r="47.38271"
       fx="62.71241"
       fy="108.02493"
       id="radialGradient3301"
       xlink:href="#linearGradient5060"
       gradientUnits="userSpaceOnUse"
       gradientTransform="matrix(0.19732934,0,0,0.08969511,3.9250005,15.820711)" />
    <linearGradient
       x1="24"
       y1="15.502284"
       x2="24"
       y2="45"
       id="linearGradient3311"
       xlink:href="#linearGradient3205"
       gradientUnits="userSpaceOnUse"
       gradientTransform="matrix(0.56666653,0.02388613,0,0.51869251,2.558337,4.227879)" />
    <linearGradient
       x1="24"
       y1="15.502284"
       x2="24"
       y2="45"
       id="linearGradient3313"
       xlink:href="#linearGradient3205"
       gradientUnits="userSpaceOnUse"
       gradientTransform="matrix(0.56666653,0.02388613,0,0.51869251,2.8416712,4.227879)" />
    <linearGradient
       xlink:href="#linearGradient4404-5-5-1"
       id="linearGradient3092"
       gradientUnits="userSpaceOnUse"
       gradientTransform="matrix(0.72972969,0,0,0.72972969,3.516668,-7.0913942)"
       x1="32.180862"
       y1="13.828948"
       x2="32.180862"
       y2="28.903023" />
    <linearGradient
       id="linearGradient4404-5-5-1">
      <stop
         id="stop4406-9-1-0"
         style="stop-color:#ffffff;stop-opacity:1"
         offset="0" />
      <stop
         id="stop4408-7-4-4"
         style="stop-color:#ffffff;stop-opacity:0.23529412"
         offset="0.09090912" />
      <stop
         id="stop4410-6-4-0"
         style="stop-color:#ffffff;stop-opacity:0.15686275"
         offset="0.81818187" />
      <stop
         id="stop4412-1-5-5"
         style="stop-color:#ffffff;stop-opacity:0.39215687"
         offset="1" />
    </linearGradient>
    <linearGradient
       xlink:href="#linearGradient4238-0"
       id="linearGradient5420"
       gradientUnits="userSpaceOnUse"
       gradientTransform="matrix(0.45754817,0,0,0.47298439,-1.837284,-3.6558699)"
       spreadMethod="reflect"
       x1="34.613369"
       y1="26.410894"
       x2="19.314434"
       y2="26.410894" />
    <linearGradient
       id="linearGradient4238-0">
      <stop
         offset="0"
         style="stop-color:#8d909a;stop-opacity:1"
         id="stop4240-2" />
      <stop
         offset="1"
         style="stop-color:#e5e5e5;stop-opacity:1"
         id="stop4242-27" />
    </linearGradient>
    <linearGradient
       y2="26.410894"
       x2="19.314434"
       y1="26.410894"
       x1="34.613369"
       spreadMethod="reflect"
       gradientTransform="matrix(0.45754817,0,0,0.47298439,-1.837284,-3.6558699)"
       gradientUnits="userSpaceOnUse"
       id="linearGradient3107"
       xlink:href="#linearGradient4238-0" />
    <linearGradient
       xlink:href="#linearGradient3205"
       id="linearGradient3072"
       gradientUnits="userSpaceOnUse"
       gradientTransform="matrix(0.56666669,0.17928136,0,0.48664174,2.6999997,2.9451175)"
       x1="24"
       y1="13.506023"
       x2="24"
       y2="43" />
    <linearGradient
       xlink:href="#linearGradient4238-0"
       id="linearGradient3058"
       gradientUnits="userSpaceOnUse"
       gradientTransform="matrix(0.45754817,0,0,0.47298439,-1.837284,-3.6558699)"
       spreadMethod="reflect"
       x1="34.613369"
       y1="26.410894"
       x2="19.314434"
       y2="26.410894" />
    <linearGradient
       xlink:href="#linearGradient4404-5-5-1"
       id="linearGradient3060"
       gradientUnits="userSpaceOnUse"
       gradientTransform="matrix(0.72972969,0,0,0.72972969,3.516668,-7.0913942)"
       x1="32.180862"
       y1="13.828948"
       x2="32.180862"
       y2="28.903023" />
    <radialGradient
       cx="24"
       cy="7.7919979"
       r="14.507708"
       fx="24"
       fy="7.7919979"
       id="radialGradient3285-2"
       xlink:href="#linearGradient3627-0"
       gradientUnits="userSpaceOnUse"
       gradientTransform="matrix(-1.7509079e-8,0.29294776,-1.7253386,0,29.743835,-0.22118985)"
       spreadMethod="pad" />
    <linearGradient
       id="linearGradient3627-0">
      <stop
         id="stop3629-8"
         style="stop-color:#000000;stop-opacity:0"
         offset="0" />
      <stop
         id="stop3190-2"
         style="stop-color:#000000;stop-opacity:0"
         offset="0.5" />
      <stop
         id="stop3631-1"
         style="stop-color:#000000;stop-opacity:1"
         offset="1" />
    </linearGradient>
    <linearGradient
       x1="9.0003471"
       y1="8"
       x2="24"
       y2="8"
       id="linearGradient3288-9"
       xlink:href="#linearGradient3320-9"
       gradientUnits="userSpaceOnUse"
       gradientTransform="matrix(0.6553796,0,0,0.6368954,0.2708905,-6.0951632)"
       spreadMethod="reflect" />
    <linearGradient
       id="linearGradient3320-9">
      <stop
         id="stop3323-5"
         style="stop-color:#4e4e4e;stop-opacity:1"
         offset="0" />
      <stop
         id="stop3325-2"
         style="stop-color:#b9bac2;stop-opacity:1"
         offset="1" />
    </linearGradient>
    <linearGradient
       x1="23.999979"
       y1="9.3726854"
       x2="23.999979"
       y2="2.0968478"
       id="linearGradient3290-7"
       xlink:href="#linearGradient3355-273-8"
       gradientUnits="userSpaceOnUse"
       gradientTransform="matrix(0.7601524,0,0,0.8752512,-2.2436398,-6.6891328)" />
    <linearGradient
       id="linearGradient3355-273-8">
      <stop
         id="stop4657-4"
         style="stop-color:#f0f0f0;stop-opacity:1"
         offset="0" />
      <stop
         id="stop3619-1"
         style="stop-color:#777779;stop-opacity:1"
         offset="0.44955608" />
      <stop
         id="stop4659-1"
         style="stop-color:#6c6c70;stop-opacity:1"
         offset="1" />
    </linearGradient>
    <linearGradient
       y2="8"
       x2="24"
       y1="8"
       x1="9.0003471"
       spreadMethod="reflect"
       gradientTransform="matrix(0.55707266,0,0,0.46420138,2.9302564,5.2209442)"
       gradientUnits="userSpaceOnUse"
       id="linearGradient3312"
       xlink:href="#linearGradient3320-9" />
    <linearGradient
       y2="2.0968478"
       x2="23.999979"
       y1="9.3726854"
       x1="23.999979"
       gradientTransform="matrix(0.64612954,0,0,0.63792707,0.79290592,4.7880294)"
       gradientUnits="userSpaceOnUse"
       id="linearGradient3314"
       xlink:href="#linearGradient3355-273-8" />
    <linearGradient
       xlink:href="#linearGradient4017-8"
       id="linearGradient3038"
       gradientUnits="userSpaceOnUse"
       gradientTransform="matrix(0.43865386,0,0,0.33897088,8.6233366,2.6230707)"
       x1="20.153708"
       y1="3.0216999"
       x2="20.153708"
       y2="26.666777" />
    <linearGradient
       id="linearGradient4017-8">
      <stop
         id="stop4019-8"
         style="stop-color:#ffffff;stop-opacity:1"
         offset="0" />
      <stop
         id="stop4021-9"
         style="stop-color:#ffffff;stop-opacity:0.23529412"
         offset="0.49550432" />
      <stop
         id="stop4023-0"
         style="stop-color:#ffffff;stop-opacity:0.15686275"
         offset="0.88038814" />
      <stop
         id="stop4025-2"
         style="stop-color:#ffffff;stop-opacity:0.39215687"
         offset="1" />
    </linearGradient>
  </defs>
  <path
     d="m 25.65,25.510024 c -5.7e-4,2.347028 -4.186541,4.249533 -9.35,4.249533 -5.16346,0 -9.3494304,-1.902505 -9.35,-4.249533 -5.696e-4,-2.347394 4.185735,-4.250469 9.35,-4.250469 5.164264,0 9.35057,1.903075 9.35,4.250469 z"
     id="path12941"
     style="display:inline;overflow:visible;visibility:visible;fill:url(#radialGradient3301);fill-opacity:1;fill-rule:evenodd;stroke:none;stroke-width:1;marker:none;stroke-miterlimit:4;stroke-dasharray:none"
     inkscape:connector-curvature="0" />
  <path
     d="M 8.2249607,8.9345817 V 25.183932 c 0,1.491085 2.4546553,3.30065 8.0750393,3.30065 5.620385,0 8.07504,-1.809565 8.07504,-3.30065 V 8.9345817 c 0,0 -16.1500793,0 -16.1500793,0 z"
     id="path2230"
     style="display:inline;overflow:visible;visibility:visible;fill:url(#linearGradient3296);fill-opacity:1;fill-rule:nonzero;stroke:url(#linearGradient3298);stroke-width:1;stroke-opacity:1;marker:none;stroke-miterlimit:4;stroke-dasharray:none"
     inkscape:connector-curvature="0" />
  <path
     d="M 8.5035029,7.4740912 V 24.842763 c 0,1.58111 3.4928311,3.361679 7.7964971,3.361677 4.303667,0 7.796498,-1.780567 7.796498,-3.361677 V 7.4740912 c 0,0 -15.5929951,0 -15.5929951,0 z"
     id="path3212"
     style="display:inline;overflow:visible;visibility:visible;opacity:0.4;fill:url(#radialGradient3293);fill-opacity:1;fill-rule:nonzero;stroke:none;stroke-width:1;stroke-opacity:1;marker:none;stroke-miterlimit:4;stroke-dasharray:none"
     inkscape:connector-curvature="0" />
  <path
     d="m 9.075,9.7845554 c 0,0 0,14.2615976 0,15.3886706 0,1.358654 3.251328,2.461329 7.224986,2.461329 3.97366,0 7.225014,-1.102675 7.225014,-2.461329 0,-1.04283 0,-15.3886706 0,-15.3886706 z"
     id="path2206"
     style="display:inline;overflow:visible;visibility:visible;opacity:0.15;fill:none;stroke:url(#linearGradient3282);stroke-width:1;stroke-linecap:round;stroke-linejoin:round;stroke-miterlimit:4;stroke-dasharray:none;stroke-dashoffset:0;stroke-opacity:1;marker:none"
     inkscape:connector-curvature="0" />
  <path
     d="m 12.05,11.90968 2.55,0.43325 v 15.716625 l -2.55,-0.553644 z"
     id="rect3244"
     style="display:inline;overflow:visible;visibility:visible;opacity:0.2;fill:url(#linearGradient3279);fill-opacity:1;fill-rule:nonzero;stroke:none;stroke-width:1;marker:none;stroke-miterlimit:4;stroke-dasharray:none"
     inkscape:connector-curvature="0" />
  <path
     d="m 10.35,11.958056 c 0.4709,0.148982 0.85,0.594485 0.85,0.998884 v 12.893074 c 0,0.4044 -0.3791,0.610025 -0.85,0.461042 C 9.8791,26.162072 9.5,25.71657 9.5,25.312171 V 12.419096 c 0,-0.404399 0.3791,-0.610023 0.85,-0.46104 z"
     id="path3305"
     style="display:inline;overflow:visible;visibility:visible;opacity:0.15;fill:url(#linearGradient3276);fill-opacity:1;fill-rule:nonzero;stroke:none;stroke-width:1;marker:none;enable-background:accumulate;stroke-miterlimit:4;stroke-dasharray:none"
     inkscape:connector-curvature="0" />
  <path
     d="M 22.250001,11.817816 C 21.7791,11.966799 21.4,12.412301 21.4,12.816701 v 12.893075 c 0,0.4044 0.3791,0.610024 0.850001,0.461039 C 22.7209,26.021834 23.1,25.576331 23.1,25.171932 V 12.278857 c 0,-0.4044 -0.3791,-0.610024 -0.849999,-0.461041 z"
     id="path3287"
     style="display:inline;overflow:visible;visibility:visible;opacity:0.15;fill:url(#linearGradient3072);fill-opacity:1;fill-rule:nonzero;stroke:none;stroke-width:1;marker:none;enable-background:accumulate;stroke-miterlimit:4;stroke-dasharray:none"
     inkscape:connector-curvature="0" />
  <path
     d="m 14.175,12.760403 c 0.4709,0.01985 0.85,0.382835 0.85,0.813868 v 13.742227 c 0,0.431034 -0.3791,0.76206 -0.85,0.742208 -0.470899,-0.01985 -0.85,-0.382833 -0.85,-0.813866 V 13.502612 c 0,-0.431033 0.379101,-0.762059 0.85,-0.742209 z"
     id="path3309"
     style="display:inline;overflow:visible;visibility:visible;opacity:0.3;fill:url(#linearGradient3311);fill-opacity:1;fill-rule:nonzero;stroke:none;stroke-width:1;marker:none;enable-background:accumulate;stroke-miterlimit:4;stroke-dasharray:none"
     inkscape:connector-curvature="0" />
  <path
     d="m 18.425,12.760403 c -0.470899,0.01985 -0.85,0.382835 -0.85,0.813868 v 13.742227 c 0,0.431034 0.379101,0.76206 0.85,0.742208 0.470899,-0.01985 0.85,-0.382833 0.85,-0.813866 V 13.502612 c 0,-0.431033 -0.379101,-0.762059 -0.85,-0.742209 z"
     id="path3293"
     style="display:inline;overflow:visible;visibility:visible;opacity:0.3;fill:url(#linearGradient3313);fill-opacity:1;fill-rule:nonzero;stroke:none;stroke-width:1;marker:none;enable-background:accumulate;stroke-miterlimit:4;stroke-dasharray:none"
     inkscape:connector-curvature="0" />
  <path
     d="m 24.381848,8.9345554 c 0,1.4121076 -3.618367,2.5568466 -8.081848,2.5568466 -4.46348,0 -8.0818468,-1.144739 -8.0818468,-2.5568466 0,-1.4121076 3.6183668,-2.556847 8.0818468,-2.556847 4.463481,0 8.081848,1.1447394 8.081848,2.556847 z"
     id="path3164"
     style="display:inline;overflow:visible;visibility:visible;fill:url(#linearGradient3312);fill-opacity:1;fill-rule:nonzero;stroke:url(#linearGradient3314);stroke-width:1;stroke-linecap:round;stroke-linejoin:round;stroke-miterlimit:4;stroke-dasharray:none;stroke-dashoffset:0;stroke-opacity:1;marker:none"
     inkscape:connector-curvature="0" />
  <g
     id="g3051"
     transform="matrix(0,0.85,-0.85,0,31.6,4.2595588)"
     style="stroke-width:1.17647059;stroke-miterlimit:4;stroke-dasharray:none">
    <path
       transform="matrix(1.6580311,0,0,1.382716,2.735751,1.9691358)"
       d="m 8,1.46875 c -1.7572026,0 -3.3544793,0.2196475 -4.46875,0.5625 -0.5571353,0.1714263 -0.9846671,0.3694792 -1.25,0.5625 C 2.0159171,2.7867708 1.96875,2.9230812 1.96875,3 v 2 c 0,0.076919 0.047167,0.2132292 0.3125,0.40625 0.2653329,0.1930208 0.6928647,0.3910737 1.25,0.5625 1.1142707,0.3428525 2.7115474,0.5625 4.46875,0.5625 1.7572027,0 3.354479,-0.2196475 4.46875,-0.5625 0.557135,-0.1714263 0.984667,-0.3694792 1.25,-0.5625 C 13.984083,5.2132292 14.03125,5.0769189 14.03125,5 V 3 c 0,-0.076919 -0.04717,-0.2132292 -0.3125,-0.40625 -0.265333,-0.1930208 -0.692865,-0.3910737 -1.25,-0.5625 C 11.354479,1.6883975 9.7572027,1.46875 8,1.46875 Z"
       id="path5418"
       style="color:#000000;display:inline;overflow:visible;visibility:visible;fill:url(#linearGradient3058);fill-opacity:1;fill-rule:nonzero;stroke:none;stroke-width:0.77699504;marker:none;enable-background:accumulate;stroke-miterlimit:4;stroke-dasharray:none"
       inkscape:connector-curvature="0" />
    <path
       id="path5019-9"
       d="m 15.999997,3.4999998 c -5.798989,0 -10.5,1.1939066 -10.5,2.6666667 v 2.6666666 c 0,1.4727599 4.701011,2.6666669 10.5,2.6666669 5.798989,0 10.5,-1.193907 10.5,-2.6666669 V 6.1666665 c 0,-1.4727601 -4.701011,-2.6666667 -10.5,-2.6666667 z"
       style="color:#000000;display:inline;overflow:visible;visibility:visible;opacity:0.5;fill:none;stroke:#161b28;stroke-width:1.17647059;stroke-linecap:butt;stroke-linejoin:miter;stroke-miterlimit:4;stroke-dasharray:none;stroke-dashoffset:0;stroke-opacity:1;marker:none;enable-background:accumulate"
       inkscape:connector-curvature="0" />
    <path
       transform="matrix(1.3571429,0,0,-0.57142859,-19.285713,8.5000001)"
       d="M 33,3.5 C 33,5.4329966 29.865993,7 26,7 22.134007,7 19,5.4329966 19,3.5 19,1.5670034 22.134007,0 26,0 c 3.865993,0 7,1.5670034 7,3.5 z"
       id="path4564-1-6"
       style="color:#000000;display:inline;overflow:visible;visibility:visible;opacity:0.7;fill:none;stroke:url(#linearGradient3060);stroke-width:1.33594107;stroke-linecap:round;stroke-linejoin:round;stroke-miterlimit:4;stroke-dasharray:none;stroke-dashoffset:0;stroke-opacity:1;marker:none;enable-background:accumulate"
       inkscape:connector-curvature="0" />
    <path
       id="rect4167-4"
       d="M 13,3.5 C 12.723,3.5 12.5,3.7973333 12.5,4.1666667 12.5,5.7222223 12.5,7.5 12.5,7.5 h 2 V 6.1666667 h 3 V 7.5 h 2 V 4.1666667 C 19.5,3.7973333 19.277,3.5 19,3.5 Z"
       style="color:#000000;display:inline;overflow:visible;visibility:visible;fill:#dcdcdd;fill-opacity:1;fill-rule:nonzero;stroke:none;stroke-width:1.17647059;marker:none;enable-background:accumulate;stroke-miterlimit:4;stroke-dasharray:none"
       inkscape:connector-curvature="0" />
    <path
       id="rect4167"
       d="m 13,3.5000002 c -0.277,0 -0.5,0.2973333 -0.5,0.6666667 0,1.5555557 0,3.3333335 0,3.3333335 h 2 V 6 h 3 v 1.5000004 h 2 V 4.1666669 C 19.5,3.7973335 19.277,3.5000002 19,3.5000002 Z"
       style="color:#000000;display:inline;overflow:visible;visibility:visible;opacity:0.3;fill:none;stroke:#161b28;stroke-width:1.17647059;stroke-linecap:butt;stroke-linejoin:miter;stroke-miterlimit:4;stroke-dasharray:none;stroke-dashoffset:0;stroke-opacity:1;marker:none;enable-background:accumulate"
       inkscape:connector-curvature="0" />
  </g>
  <path
     d="m 23.95,8.9345554 c 0,1.1736046 -3.425023,2.1249996 -7.65,2.1249996 -4.224979,0 -7.6500001,-0.951395 -7.6500001,-2.1249996 0,-1.1736052 3.4250211,-2.1250001 7.6500001,-2.1250001 4.224977,0 7.65,0.9513949 7.65,2.1250001 z"
     id="path3197"
     style="display:inline;overflow:visible;visibility:visible;opacity:0.3;fill:url(#radialGradient3285-2);fill-opacity:1;fill-rule:nonzero;stroke:none;stroke-width:1;marker:none;stroke-miterlimit:4;stroke-dasharray:none"
     inkscape:connector-curvature="0" />
  <path
     style="color:#000000;display:inline;overflow:visible;visibility:visible;fill:#e7f0f4;fill-opacity:1;fill-rule:nonzero;stroke:none;stroke-width:1;marker:none;enable-background:accumulate;stroke-miterlimit:4;stroke-dasharray:none"
     id="rect4519"
     d="m 17.197199,4.8058913 c -1.25507,0 -2.342008,0.4128549 -2.880774,1.0120766 -0.349194,-0.1274477 -0.762565,-0.2024124 -1.206931,-0.2024124 -1.245556,0 -2.255282,0.5799844 -2.255282,1.2954534 0,0.1137619 0.03131,0.2237987 0.07928,0.3289165 -0.899585,0.3485206 -1.4888444,0.9414357 -1.4888444,1.6142547 0,1.0765219 1.5087854,1.9431899 3.3829254,1.9431899 h 6.483953 c 1.874142,0 3.382924,-0.866668 3.382924,-1.9431899 0,-0.8596458 -0.966148,-1.5844103 -2.308148,-1.8419732 0.03641,-0.1117254 0.05286,-0.2262981 0.05286,-0.3440936 0,-1.0284849 -1.451473,-1.862222 -3.241967,-1.862222 z"
     inkscape:connector-curvature="0" />
  <path
     style="color:#000000;display:inline;overflow:visible;visibility:visible;opacity:0.8;fill:none;stroke:url(#linearGradient3038);stroke-width:1;stroke-linecap:round;stroke-linejoin:round;stroke-miterlimit:4;stroke-dasharray:none;stroke-dashoffset:0;stroke-opacity:1;marker:none;enable-background:accumulate"
     id="path5952"
     d="m 16.813835,5.5745152 c -0.843037,0 -1.485839,0.4694175 -1.603668,0.650025 a 1.2735769,1.7551704 0 0 1 -1.084833,0.5200197 1.2735769,1.7551704 0 0 1 -0.943335,0.064995 C 12.98785,6.7118929 12.791333,6.6795477 12.616,6.6795477 c -0.254534,0 -0.432723,0.058142 -0.566001,0.1300071 a 1.2735769,1.7551704 0 0 1 -0.283001,1.0400375 1.2735769,1.7551704 0 0 1 -0.04716,0.1300073 1.2735769,1.7551704 0 0 1 -0.04716,0.064995 1.2735769,1.7551704 0 0 1 0,0.064995 1.2735769,1.7551704 0 0 1 -0.613167,0.7150269 c -0.511498,0.2731109 -0.518848,0.5409791 -0.518848,0.3900332 0,-0.15754 -0.0779,-0.04934 0.235834,0.1950072 0.313725,0.2443444 0.909738,0.4550179 1.5565,0.4550179 h 6.650504 c 0.64676,0 1.211371,-0.2179244 1.509335,-0.4550179 0.297963,-0.2370936 0.235833,-0.3242647 0.235833,-0.1950072 0,0.122761 0.06511,0.1057297 -0.09433,-0.064995 C 20.474891,8.9789304 20.131337,8.8111091 19.691004,8.6946394 l 0.235835,-1.7550663 0.04717,-0.260009 h -0.04717 l -0.09434,0.1950071 0.04716,-0.1950071 h -0.09433 l -0.09434,0.064995 0.04716,-0.1300072 h 0.04716 v -0.064995 h -0.1415 l -1.084835,-0.455018 -0.141501,-0.064995 c -0.02912,0.1232265 0,0.049484 0,0.064995 0,0.1753226 0.08652,0.1516004 -0.188666,-0.064995 C 17.953621,5.8129412 17.416634,5.5745275 16.813803,5.5745275 Z"
     inkscape:connector-curvature="0" />
  <path
     style="color:#000000;display:inline;overflow:visible;visibility:visible;opacity:0.4;fill:none;stroke:#25323f;stroke-width:1;stroke-linecap:round;stroke-linejoin:round;stroke-miterlimit:4;stroke-dasharray:none;stroke-dashoffset:0;stroke-opacity:1;marker:none;enable-background:accumulate"
     id="path5956"
     d="M 15.291039,5.62168 C 16.169318,6.0528406 14.34407,7.9085146 14.34407,7.9085146 m 2.816888,-3.1156669 c -1.255067,0 -2.342006,0.4053521 -2.880774,0.9936884 -0.349193,-0.125133 -0.762561,-0.1987342 -1.206928,-0.1987342 -0.326206,0 -0.875442,0.180644 -0.875442,0.180644 C 12.940748,6.2113415 12.05,8.0307602 12.05,8.0307602 c 0,0 0.488485,-2.2851346 0,-2.2088612 0,0 -1.232032,0.6729654 -1.232032,1.037821 0,0.1116875 0.03131,0.2197334 0.07928,0.3229425 -0.275146,0.1046609 -0.521261,0.23177 -0.730364,0.3767063 C 10.022981,7.6591128 9.8966079,7.7672997 9.7903648,7.8824236 9.7666191,7.9081541 11.047832,8.922383 11.026126,8.9487898 10.988722,8.9942962 9.6504368,8.05263 9.6193261,8.1000085 9.4828944,8.3077798 9.4084109,8.5327259 9.4084109,8.7675889 c 0,1.0569658 2.3519551,1.5556131 3.6545831,1.6939541 0.671457,0.07131 2.126429,0.183369 2.126429,0.183369 0.579329,-0.346281 2.048351,-1.8347788 1.777209,-2.3532279 l -1.746647,2.3430399 4.136801,-0.254678 c 1.870599,-0.115162 3.301428,-0.5554913 3.301428,-1.6124571 0,-0.7256888 -0.714217,-1.3534778 -1.76746,-1.6759861 -0.04263,-0.013053 -1.73514,1.5866657 -1.73514,1.5866657 0,0 1.545343,-1.6405986 1.514839,-1.6483753 -0.104084,-0.026535 -0.210985,-0.050198 -0.320383,-0.070813 0.03641,-0.1097017 0.05286,-0.222186 0.05286,-0.3378413 0,-1.0097991 -1.451477,-1.8283911 -3.241973,-1.8283907 z"
     inkscape:connector-curvature="0" />
</svg>
