<?xml version="1.0" encoding="UTF-8" standalone="no"?>
<svg
   xmlns:dc="http://purl.org/dc/elements/1.1/"
   xmlns:cc="http://creativecommons.org/ns#"
   xmlns:rdf="http://www.w3.org/1999/02/22-rdf-syntax-ns#"
   xmlns:svg="http://www.w3.org/2000/svg"
   xmlns="http://www.w3.org/2000/svg"
   xmlns:xlink="http://www.w3.org/1999/xlink"
   xmlns:sodipodi="http://sodipodi.sourceforge.net/DTD/sodipodi-0.dtd"
   xmlns:inkscape="http://www.inkscape.org/namespaces/inkscape"
   id="svg6860"
   height="32"
   width="32"
   version="1.1"
   sodipodi:docname="update.svg"
   inkscape:version="0.92.4 (5da689c313, 2019-01-14)">
  <sodipodi:namedview
     pagecolor="#ffffff"
     bordercolor="#666666"
     borderopacity="1"
     objecttolerance="10"
     gridtolerance="10"
     guidetolerance="10"
     inkscape:pageopacity="0"
     inkscape:pageshadow="2"
     inkscape:window-width="2880"
     inkscape:window-height="1706"
     id="namedview27"
     showgrid="false"
     inkscape:zoom="7.375"
     inkscape:cx="-1.4237288"
     inkscape:cy="16"
     inkscape:window-x="-11"
     inkscape:window-y="-11"
     inkscape:window-maximized="1"
     inkscape:current-layer="svg6860" />
  <defs
     id="defs6862">
    <linearGradient
       id="linearGradient857">
      <stop
         id="stop853"
         offset="0"
         style="stop-color:#ffa154;stop-opacity:1" />
      <stop
         id="stop855"
         offset="1"
         style="stop-color:#f37329;stop-opacity:1" />
    </linearGradient>
    <linearGradient
       id="linearGradient3820-7-2-2">
      <stop
         offset="0"
         style="stop-color:#3d3d3d;stop-opacity:1"
         id="stop3822-2-6-36" />
      <stop
         offset="0.5"
         style="stop-color:#686868;stop-opacity:0.49803922"
         id="stop3864-8-7-6" />
      <stop
         offset="1"
         style="stop-color:#686868;stop-opacity:0"
         id="stop3824-1-2-4" />
    </linearGradient>
    <linearGradient
       xlink:href="#linearGradient4806-6-2"
       id="linearGradient3293-3-6"
       gradientUnits="userSpaceOnUse"
       gradientTransform="matrix(4.0875341,0,0,4.0650918,-236.86239,-55.425451)"
       x1="61.237995"
       y1="15.479465"
       x2="61.237995"
       y2="19.661413" />
    <linearGradient
       id="linearGradient4806-6-2">
      <stop
         id="stop4808-7-9"
         style="stop-color:#ffffff;stop-opacity:1"
         offset="0" />
      <stop
         id="stop4810-5-1"
         style="stop-color:#ffffff;stop-opacity:0.23529412"
         offset="0.10363879" />
      <stop
         id="stop4812-3-2"
         style="stop-color:#ffffff;stop-opacity:0.15686275"
         offset="0.89999992" />
      <stop
         id="stop4814-5-7"
         style="stop-color:#ffffff;stop-opacity:0.39215687"
         offset="1" />
    </linearGradient>
    <linearGradient
       gradientTransform="matrix(1.4403959,0,0,1.0709222,-2957.6814,-3445.9881)"
       gradientUnits="userSpaceOnUse"
       xlink:href="#linearGradient857"
       id="linearGradient11527-6-5-3-6"
       y2="3244.8506"
       x2="2065.6956"
       y1="3220.5276"
       x1="2065.6956" />
    <radialGradient
       cx="99.157013"
       cy="186.17059"
       r="62.769119"
       fx="99.157013"
       fy="186.17059"
       id="radialGradient3108"
       xlink:href="#linearGradient3820-7-2-2"
       gradientUnits="userSpaceOnUse"
       gradientTransform="matrix(0.18251831,0,0,0.05775517,-2.0979715,15.222447)" />
  </defs>
  <metadata
     id="metadata6865">
    <rdf:RDF>
      <cc:Work
         rdf:about="">
        <dc:format>image/svg+xml</dc:format>
        <dc:type
           rdf:resource="http://purl.org/dc/dcmitype/StillImage" />
        <dc:title />
      </cc:Work>
    </rdf:RDF>
  </metadata>
  <path
     d="m 27.456512,25.974756 a 11.456513,3.6252405 0 0 1 -22.9130264,0 11.456513,3.6252405 0 1 1 22.9130264,0 z"
     id="path3818-0-2-5"
     style="opacity:0.5;fill:url(#radialGradient3108);fill-opacity:1;stroke:none;stroke-width:1;stroke-miterlimit:4;stroke-dasharray:none"
     inkscape:connector-curvature="0" />
  <path
     style="opacity:0.98999999;vector-effect:none;fill:url(#linearGradient11527-6-5-3-6);fill-opacity:1;stroke:none;stroke-width:1;stroke-linecap:butt;stroke-linejoin:miter;stroke-miterlimit:4;stroke-dasharray:none;stroke-dashoffset:0;stroke-opacity:1;marker:none;paint-order:normal"
     d="M 16,2.8249334 12.471434,7.4537415 6.684843,6.6636137 7.4793329,12.418433 2.8249718,15.927626 7.4793329,19.436818 6.684843,25.191638 12.471434,24.401511 16,29.030319 l 3.528567,-4.628808 5.786589,0.790127 -0.794491,-5.75482 4.654362,-3.509192 -4.654362,-3.509193 0.794491,-5.7548193 -5.786589,0.7901278 z"
     id="path888"
     inkscape:connector-curvature="0" />
  <path
     style="opacity:0.5;vector-effect:none;fill:none;fill-opacity:1;stroke:#a62100;stroke-width:1;stroke-linecap:round;stroke-linejoin:round;stroke-miterlimit:4;stroke-dasharray:none;stroke-dashoffset:0;stroke-opacity:1;marker:none;paint-order:normal"
     d="M 16,2.8249334 12.471434,7.4537415 6.684843,6.6636137 7.4793329,12.418433 2.8249718,15.927626 7.4793329,19.436818 6.684843,25.191638 12.471434,24.401511 16,29.030319 l 3.528567,-4.628808 5.786589,0.790127 -0.794491,-5.75482 4.654362,-3.509192 -4.654362,-3.509193 0.794491,-5.7548193 -5.786589,0.7901278 z"
     id="path841-6"
     inkscape:connector-curvature="0" />
  <path
     style="opacity:0.3;vector-effect:none;fill:none;fill-opacity:1;stroke:url(#linearGradient3293-3-6);stroke-width:1;stroke-linecap:round;stroke-linejoin:miter;stroke-miterlimit:4;stroke-dasharray:none;stroke-dashoffset:0;stroke-opacity:1;marker:none;paint-order:normal"
     id="path841-5-0"
     d="M 15.999999,4.2205578 13.148853,7.9636803 A 0.8489007,0.8442399 0 0 1 12.356296,8.2912462 L 7.6764366,7.6497632 8.321461,12.303928 a 0.8489007,0.8442399 0 0 1 -0.3293742,0.788206 l -3.7637873,2.835492 3.7637873,2.835492 a 0.8489007,0.8442399 0 0 1 0.3293742,0.788206 l -0.6450244,4.654164 4.6798594,-0.641482 a 0.8489007,0.8442399 0 0 1 0.792557,0.327566 l 2.851146,3.743122 2.851146,-3.743122 a 0.8489007,0.8442399 0 0 1 0.792557,-0.327566 l 4.679859,0.641482 -0.645024,-4.654164 a 0.8489007,0.8442399 0 0 1 0.329374,-0.788206 l 3.763787,-2.835492 -3.763787,-2.835492 a 0.8489007,0.8442399 0 0 1 -0.329374,-0.788206 l 0.645024,-4.6541648 -4.679859,0.641483 A 0.8489007,0.8442399 0 0 1 18.851145,7.9636803 Z"
     inkscape:connector-curvature="0" />
  <path
     style="opacity:0.05;vector-effect:none;fill:#a62100;fill-opacity:1;stroke:none;stroke-width:1;stroke-linecap:butt;stroke-linejoin:miter;stroke-miterlimit:4;stroke-dasharray:none;stroke-dashoffset:0;stroke-opacity:1;marker:none;paint-order:normal"
     id="path818-7-62-9"
     d="m 16,23.649997 c -0.470297,0 -0.939176,-0.189381 -1.284961,-0.544531 a 0.84959645,0.84959645 0 0 1 -0.03653,-0.03984 L 11.07763,18.86377 a 0.84959645,0.84959645 0 0 1 -0.0166,-0.01992 c -0.450632,-0.560685 -0.422263,-1.275954 -0.175976,-1.80625 0.246285,-0.530297 0.771422,-1.009683 1.48916,-1.030958 a 0.84959645,0.84959645 0 0 1 0.02491,-0.0017 H 13.45 v -4.203515 a 0.84959645,0.84959645 0 0 1 0,-0.0083 c 0.0048,-0.489498 0.212596,-0.878229 0.496386,-1.182031 0.283791,-0.303731 0.681164,-0.556081 1.203614,-0.556081 h 1.7 a 0.84959645,0.84959645 0 0 1 0.03154,0.0017 c 0.926307,0.03482 1.633954,0.846693 1.666798,1.713281 a 0.84959645,0.84959645 0 0 1 0.0017,0.0315 v 4.203515 h 1.050879 a 0.84959645,0.84959645 0 0 1 0.02491,0.0017 c 0.717732,0.02128 1.242874,0.50066 1.48916,1.030957 0.246286,0.530297 0.274653,1.245567 -0.175977,1.80625 a 0.84959645,0.84959645 0 0 1 -0.0166,0.01992 l -3.600882,4.201814 a 0.84959645,0.84959645 0 0 1 -0.03652,0.03984 C 16.939188,23.460585 16.470296,23.649997 16,23.649997 Z"
     inkscape:connector-curvature="0" />
  <path
     style="opacity:0.15;vector-effect:none;fill:#a62100;fill-opacity:1;stroke:none;stroke-width:1;stroke-linecap:butt;stroke-linejoin:miter;stroke-miterlimit:4;stroke-dasharray:none;stroke-dashoffset:0;stroke-opacity:1;marker:none;paint-order:normal"
     d="m 16.000002,22.799997 c 0.24539,0 0.490776,-0.09717 0.675539,-0.28693 l 3.600625,-4.201969 c 0.416132,-0.517758 -0.0108,-1.435922 -0.675537,-1.455632 H 17.7 V 11.801239 C 17.68155,11.31434 17.339588,10.923867 16.85,10.905466 h -1.7 c -0.424136,0 -0.845838,0.464182 -0.85,0.895773 v 5.054227 h -1.900629 c -0.664731,0.0197 -1.091671,0.937874 -0.675539,1.455632 l 3.600632,4.201969 c 0.184754,0.189757 0.43015,0.28693 0.675538,0.28693 z"
     id="path818-7-62"
     inkscape:connector-curvature="0" />
  <path
     style="opacity:0.98999999;vector-effect:none;fill:#fafafa;fill-opacity:1;stroke:none;stroke-width:1;stroke-linecap:butt;stroke-linejoin:miter;stroke-miterlimit:4;stroke-dasharray:none;stroke-dashoffset:0;stroke-opacity:1;marker:none;paint-order:normal"
     d="m 16.000002,21.949997 c 0.24539,0 0.490776,-0.09717 0.675539,-0.28693 l 3.600625,-4.201969 c 0.416132,-0.517758 -0.0108,-1.435922 -0.675537,-1.455632 H 17.7 V 10.951239 C 17.68155,10.46434 17.339588,10.073867 16.85,10.055466 h -1.7 c -0.424136,0 -0.845838,0.464182 -0.85,0.895773 v 5.054227 h -1.900629 c -0.664731,0.0197 -1.091671,0.937874 -0.675539,1.455632 l 3.600632,4.201969 c 0.184754,0.189757 0.43015,0.28693 0.675538,0.28693 z"
     id="path818-7"
     inkscape:connector-curvature="0" />
</svg>
