<?xml version="1.0" encoding="UTF-8" standalone="no"?>
<svg
   xmlns:dc="http://purl.org/dc/elements/1.1/"
   xmlns:cc="http://creativecommons.org/ns#"
   xmlns:rdf="http://www.w3.org/1999/02/22-rdf-syntax-ns#"
   xmlns:svg="http://www.w3.org/2000/svg"
   xmlns="http://www.w3.org/2000/svg"
   xmlns:xlink="http://www.w3.org/1999/xlink"
   xmlns:sodipodi="http://sodipodi.sourceforge.net/DTD/sodipodi-0.dtd"
   xmlns:inkscape="http://www.inkscape.org/namespaces/inkscape"
   id="svg4082"
   height="32"
   width="32"
   version="1.1"
   sodipodi:docname="upload.svg"
   inkscape:version="0.92.4 (5da689c313, 2019-01-14)">
  <sodipodi:namedview
     pagecolor="#ffffff"
     bordercolor="#666666"
     borderopacity="1"
     objecttolerance="10"
     gridtolerance="10"
     guidetolerance="10"
     inkscape:pageopacity="0"
     inkscape:pageshadow="2"
     inkscape:window-width="2880"
     inkscape:window-height="1706"
     id="namedview57"
     showgrid="false"
     inkscape:zoom="7.375"
     inkscape:cx="-1.4237288"
     inkscape:cy="16"
     inkscape:window-x="-11"
     inkscape:window-y="-11"
     inkscape:window-maximized="1"
     inkscape:current-layer="svg4082" />
  <defs
     id="defs4084">
    <linearGradient
       id="linearGradient855">
      <stop
         id="stop851"
         offset="0"
         style="stop-color:#fafafa;stop-opacity:1" />
      <stop
         id="stop853"
         offset="1"
         style="stop-color:#d4d4d4;stop-opacity:1" />
    </linearGradient>
    <linearGradient
       gradientTransform="matrix(0.85,0,0,0.85,2.3999999,4.4000001)"
       gradientUnits="userSpaceOnUse"
       xlink:href="#linearGradient4017"
       id="linearGradient4015"
       y2="26.666777"
       x2="20.153708"
       y1="3.0216999"
       x1="20.153708" />
    <linearGradient
       id="linearGradient4017">
      <stop
         offset="0"
         style="stop-color:#ffffff;stop-opacity:1"
         id="stop4019" />
      <stop
         offset="0.49550432"
         style="stop-color:#ffffff;stop-opacity:0.23529412"
         id="stop4021" />
      <stop
         offset="0.88038814"
         style="stop-color:#ffffff;stop-opacity:0.15686275"
         id="stop4023" />
      <stop
         offset="1"
         style="stop-color:#ffffff;stop-opacity:0.39215687"
         id="stop4025" />
    </linearGradient>
    <radialGradient
       gradientTransform="matrix(0.37976552,0,0,0.37644767,-248.32405,-123.64911)"
       gradientUnits="userSpaceOnUse"
       xlink:href="#linearGradient9165-5-1"
       id="radialGradient3182"
       fy="354.21619"
       fx="681.32629"
       r="12.052631"
       cy="365.6579"
       cx="680.5658" />
    <linearGradient
       id="linearGradient9165-5-1">
      <stop
         offset="0"
         style="stop-color:#acb9bf;stop-opacity:1"
         id="stop9167-7-12" />
      <stop
         offset="1"
         style="stop-color:#acb9bf;stop-opacity:0"
         id="stop9169-0-4" />
    </linearGradient>
    <radialGradient
       gradientTransform="matrix(0.50938095,0,0,0.50493069,-328.38156,-172.07437)"
       gradientUnits="userSpaceOnUse"
       xlink:href="#linearGradient9165-59"
       id="radialGradient3164"
       fy="355.25784"
       fx="680.60205"
       r="12.052631"
       cy="365.6579"
       cx="680.5658" />
    <linearGradient
       id="linearGradient9165-59">
      <stop
         offset="0"
         style="stop-color:#b6c5cc;stop-opacity:1"
         id="stop9167-6" />
      <stop
         offset="1"
         style="stop-color:#e5f0f6;stop-opacity:0"
         id="stop9169-9" />
    </linearGradient>
    <radialGradient
       gradientTransform="matrix(2.003784,0,0,1.4,27.98813,-17.4)"
       gradientUnits="userSpaceOnUse"
       xlink:href="#linearGradient3688-5"
       id="radialGradient3176"
       fy="43.5"
       fx="4.9929786"
       r="2.5"
       cy="43.5"
       cx="4.9929786" />
    <linearGradient
       id="linearGradient3688-5">
      <stop
         offset="0"
         style="stop-color:#000000;stop-opacity:1"
         id="stop3690-8" />
      <stop
         offset="1"
         style="stop-color:#000000;stop-opacity:0"
         id="stop3692-6" />
    </linearGradient>
    <radialGradient
       gradientTransform="matrix(2.003784,0,0,1.4,-20.01187,-104.4)"
       gradientUnits="userSpaceOnUse"
       xlink:href="#linearGradient3688-5"
       id="radialGradient3178"
       fy="43.5"
       fx="4.9929786"
       r="2.5"
       cy="43.5"
       cx="4.9929786" />
    <linearGradient
       gradientUnits="userSpaceOnUse"
       xlink:href="#linearGradient3702-4-7"
       id="linearGradient3180"
       y2="39.999443"
       x2="25.058096"
       y1="47.027729"
       x1="25.058096" />
    <linearGradient
       id="linearGradient3702-4-7">
      <stop
         offset="0"
         style="stop-color:#000000;stop-opacity:0"
         id="stop3704-7-8" />
      <stop
         offset="0.5"
         style="stop-color:#000000;stop-opacity:1"
         id="stop3710-0-0" />
      <stop
         offset="1"
         style="stop-color:#000000;stop-opacity:0"
         id="stop3706-7-2" />
    </linearGradient>
    <linearGradient
       gradientUnits="userSpaceOnUse"
       y2="32.321995"
       x2="19.830294"
       y1="6.2034917"
       x1="19.830294"
       id="linearGradient857"
       xlink:href="#linearGradient855"
       gradientTransform="matrix(0.85,0,0,0.85,2.3999999,2.7000001)" />
    <linearGradient
       x1="34.874741"
       y1="67.730797"
       x2="34.874741"
       y2="47.816345"
       id="linearGradient3149-7"
       xlink:href="#linearGradient4297"
       gradientUnits="userSpaceOnUse"
       gradientTransform="matrix(0.49823741,0,0,-0.5351309,0.8439769,53.788004)" />
    <linearGradient
       id="linearGradient4297">
      <stop
         id="stop4299"
         style="stop-color:#ffffff;stop-opacity:1"
         offset="0" />
      <stop
         id="stop4301"
         style="stop-color:#ffffff;stop-opacity:0.23529412"
         offset="0.52457154" />
      <stop
         id="stop4303"
         style="stop-color:#ffffff;stop-opacity:0.15686275"
         offset="1" />
      <stop
         id="stop4305"
         style="stop-color:#ffffff;stop-opacity:0.39215687"
         offset="1" />
    </linearGradient>
    <linearGradient
       gradientUnits="userSpaceOnUse"
       y2="21.482735"
       x2="46.511391"
       y1="21.482735"
       x1="23.999962"
       id="linearGradient901"
       xlink:href="#linearGradient899"
       gradientTransform="matrix(0,0.55496932,-0.55496932,0,29.587167,3.6689482)" />
    <linearGradient
       id="linearGradient899">
      <stop
         id="stop895"
         offset="0"
         style="stop-color:#cd9ef7;stop-opacity:1" />
      <stop
         id="stop897"
         offset="1"
         style="stop-color:#a56de2;stop-opacity:1" />
    </linearGradient>
    <radialGradient
       cx="24.837126"
       cy="36.421127"
       r="15.644737"
       fx="24.837126"
       fy="36.421127"
       id="radialGradient3129"
       xlink:href="#linearGradient3688-5"
       gradientUnits="userSpaceOnUse"
       gradientTransform="matrix(-0.3138109,0,0,-0.33699553,23.782535,36.038185)" />
  </defs>
  <metadata
     id="metadata4087">
    <rdf:RDF>
      <cc:Work
         rdf:about="">
        <dc:format>image/svg+xml</dc:format>
        <dc:type
           rdf:resource="http://purl.org/dc/dcmitype/StillImage" />
        <dc:title />
      </cc:Work>
    </rdf:RDF>
  </metadata>
  <g
     style="opacity:0.23999999;stroke-width:1.82761798;stroke-miterlimit:4.75;stroke-dasharray:none"
     id="g3712-3-7"
     transform="matrix(0.60394169,0,0,0.49571738,1.5052812,5.7512828)">
    <rect
       style="fill:url(#radialGradient3176);fill-opacity:1;stroke:none;stroke-width:1.82761798;stroke-miterlimit:4.75;stroke-dasharray:none"
       id="rect2801-5"
       y="40"
       x="38"
       height="7"
       width="5" />
    <rect
       style="fill:url(#radialGradient3178);fill-opacity:1;stroke:none;stroke-width:1.82761798;stroke-miterlimit:4.75;stroke-dasharray:none"
       id="rect3696-8"
       transform="scale(-1)"
       y="-47"
       x="-10"
       height="7"
       width="5" />
    <rect
       style="fill:url(#linearGradient3180);fill-opacity:1;stroke:none;stroke-width:1.82761798;stroke-miterlimit:4.75;stroke-dasharray:none"
       id="rect3700-8"
       y="40"
       x="10"
       height="7.0000005"
       width="28" />
  </g>
  <path
     d="m 18.242572,6.5250013 c -2.495971,0 -4.657573,1.464276 -5.729023,3.5895357 -0.694447,-0.4520404 -1.516518,-0.7178935 -2.400234,-0.7178935 -2.4770475,0 -4.4851008,2.0570285 -4.4851008,4.5945895 0,0.403436 0.062285,0.793745 0.1576764,1.16657 -1.789013,1.236096 -2.9608782,3.338988 -2.9608782,5.72528 0,3.818105 3.0005367,6.891917 6.727655,6.891917 H 22.447361 c 3.727123,0 6.727651,-3.073812 6.727651,-6.891917 0,-3.048911 -1.921388,-5.619431 -4.590233,-6.532933 0.07241,-0.396255 0.105119,-0.802608 0.105119,-1.220397 0,-3.6477308 -2.886558,-6.6047517 -6.447326,-6.6047517 z"
     id="rect4519"
     style="color:#000000;display:inline;overflow:visible;visibility:visible;fill:url(#linearGradient857);fill-opacity:1;fill-rule:nonzero;stroke:none;stroke-width:1;marker:none;enable-background:accumulate;stroke-miterlimit:4.75;stroke-dasharray:none"
     inkscape:connector-curvature="0" />
  <path
     d="m 18.242553,6.5250009 c -2.495965,0 -4.657567,1.4642706 -5.729021,3.5895371 -0.694447,-0.4520461 -1.516513,-0.7178959 -2.40023,-0.7178959 -2.4770525,0 -4.4851101,2.0570299 -4.4851101,4.5945909 0,0.403435 0.062302,0.79375 0.1576807,1.166575 -1.7890084,1.236086 -2.9608727,3.338983 -2.9608727,5.725283 0,3.818107 3.0005321,6.89191 6.7276584,6.89191 H 22.447348 c 3.727118,0 6.727651,-3.073803 6.727651,-6.89191 0,-3.048916 -1.921393,-5.619435 -4.590228,-6.532937 0.07241,-0.39626 0.105114,-0.802613 0.105114,-1.220396 0,-3.6477308 -2.886561,-6.6047571 -6.447332,-6.6047571 z"
     id="rect4519-6"
     style="color:#000000;display:inline;overflow:visible;visibility:visible;opacity:0.5;fill:none;stroke:#555761;stroke-width:1;stroke-linecap:round;stroke-linejoin:round;stroke-miterlimit:4.75;stroke-dasharray:none;stroke-dashoffset:0;stroke-opacity:1;marker:none;enable-background:accumulate"
     inkscape:connector-curvature="0" />
  <path
     d="m 18.279031,6.9754239 c -2.360042,0 -4.368648,1.4430471 -5.205606,3.4845691 1.154843,0.887546 1.899748,2.279797 1.899748,3.840438 0,0.830447 -0.197477,1.614899 -0.568428,2.298332 1.010098,0.953686 2.369195,1.542109 3.874286,1.542109 3.109364,0 5.639407,-2.507939 5.639407,-5.590138 0,-3.0821971 -2.530043,-5.5753101 -5.639407,-5.5753101 z"
     id="path9151"
     style="color:#000000;display:inline;overflow:visible;visibility:visible;opacity:0.15;fill:url(#radialGradient3164);fill-opacity:1;fill-rule:nonzero;stroke:none;stroke-width:1;marker:none;enable-background:accumulate;stroke-miterlimit:4.75;stroke-dasharray:none"
     inkscape:connector-curvature="0" />
  <path
     d="m 14.328786,14.001955 a 4.1974097,4.1607387 0 1 1 -8.3948192,0 4.1974097,4.1607387 0 1 1 8.3948192,0 z"
     id="path9151-6"
     style="color:#000000;display:inline;overflow:visible;visibility:visible;opacity:0.15;fill:url(#radialGradient3182);fill-opacity:1;fill-rule:nonzero;stroke:none;stroke-width:1;marker:none;enable-background:accumulate;stroke-miterlimit:4.75;stroke-dasharray:none"
     inkscape:connector-curvature="0" />
  <path
     d="m 18.23125,7.3750001 c -2.162604,0 -4.004549,1.2510724 -4.940625,3.1078129 a 0.85454827,0.85454827 0 0 1 -1.248438,0.345312 c -0.558755,-0.363718 -1.226255,-0.584375 -1.939062,-0.584375 -2.0038366,0 -3.6125001,1.653453 -3.6125001,3.745313 0,0.350579 0.033255,0.670916 0.10625,0.95625 a 0.85454827,0.85454827 0 0 1 -0.3453125,0.903125 c -1.5560108,1.075099 -2.5765625,2.937345 -2.5765625,5.046875 0,3.371538 2.6111083,6.029687 5.8703125,6.029687 H 22.454687 c 3.259195,0 5.870313,-2.658151 5.870313,-6.029687 0,-2.688985 -1.68782,-4.942331 -4.010938,-5.7375 a 0.85454827,0.85454827 0 0 1 -0.584375,-0.95625 c 0.06224,-0.340582 0.10625,-0.690855 0.10625,-1.0625 0,-3.1958071 -2.518462,-5.7640629 -5.604687,-5.7640629 z"
     id="path4007"
     style="color:#000000;display:inline;overflow:visible;visibility:visible;opacity:0.8;fill:none;stroke:url(#linearGradient4015);stroke-width:1;stroke-linecap:round;stroke-linejoin:round;stroke-miterlimit:4.75;stroke-dasharray:none;stroke-dashoffset:0;stroke-opacity:1;marker:none;enable-background:accumulate"
     inkscape:connector-curvature="0" />
  <path
     d="m 11.078886,23.764421 a 4.909489,5.272209 0 1 1 9.818977,0 4.909489,5.272209 0 0 1 -9.818977,0 z"
     id="path3501"
     style="display:inline;overflow:visible;visibility:visible;opacity:0.14117647;fill:url(#radialGradient3129);fill-opacity:1;fill-rule:evenodd;stroke:none;stroke-width:1;marker:none;stroke-miterlimit:4.75;stroke-dasharray:none"
     inkscape:connector-curvature="0" />
  <path
     d="M 10.727792,23.525 16,17.15 21.272208,23.525 H 18.125 v 5.95 h -4.25 v -5.95 z"
     id="path3288-2-2"
     style="color:#000000;display:block;overflow:visible;visibility:visible;fill:url(#linearGradient901);fill-opacity:1;fill-rule:nonzero;stroke:none;stroke-width:1;marker:none;enable-background:accumulate;stroke-miterlimit:4.75;stroke-dasharray:none"
     inkscape:connector-curvature="0" />
  <path
     d="m 10.727792,23.525 5.267747,-6.375 5.276669,6.375 H 18.125 v 5.95 h -4.25 v -5.95 z"
     id="path3288-2-2-7"
     style="color:#000000;clip-rule:nonzero;display:inline;overflow:visible;visibility:visible;opacity:0.5;isolation:auto;mix-blend-mode:normal;color-interpolation:sRGB;color-interpolation-filters:linearRGB;solid-color:#000000;solid-opacity:1;fill:none;fill-opacity:1;fill-rule:nonzero;stroke:#7239b3;stroke-width:1;stroke-linecap:butt;stroke-linejoin:round;stroke-miterlimit:4.75;stroke-dasharray:none;stroke-dashoffset:0;stroke-opacity:1;marker:none;color-rendering:auto;image-rendering:auto;shape-rendering:auto;text-rendering:auto;enable-background:accumulate"
     inkscape:connector-curvature="0" />
  <path
     d="M 12.502857,22.675 16,18.425 l 3.477057,4.25 H 17.275 v 5.95 h -2.55 v -5.95 z"
     id="path3288-2-2-8"
     style="color:#000000;display:block;overflow:visible;visibility:visible;opacity:0.40100002;fill:none;stroke:url(#linearGradient3149-7);stroke-width:1;stroke-linecap:butt;stroke-linejoin:miter;stroke-miterlimit:4.75;stroke-dasharray:none;stroke-dashoffset:0;stroke-opacity:1;marker:none;enable-background:accumulate"
     inkscape:connector-curvature="0" />
</svg>
