<?xml version="1.0" encoding="UTF-8" standalone="no"?>
<svg
   xmlns:dc="http://purl.org/dc/elements/1.1/"
   xmlns:cc="http://creativecommons.org/ns#"
   xmlns:rdf="http://www.w3.org/1999/02/22-rdf-syntax-ns#"
   xmlns:svg="http://www.w3.org/2000/svg"
   xmlns="http://www.w3.org/2000/svg"
   xmlns:xlink="http://www.w3.org/1999/xlink"
   xmlns:sodipodi="http://sodipodi.sourceforge.net/DTD/sodipodi-0.dtd"
   xmlns:inkscape="http://www.inkscape.org/namespaces/inkscape"
   version="1.1"
   width="32"
   height="32"
   id="svg3182"
   sodipodi:docname="user.svg"
   inkscape:version="0.92.4 (5da689c313, 2019-01-14)">
  <sodipodi:namedview
     pagecolor="#ffffff"
     bordercolor="#666666"
     borderopacity="1"
     objecttolerance="10"
     gridtolerance="10"
     guidetolerance="10"
     inkscape:pageopacity="0"
     inkscape:pageshadow="2"
     inkscape:window-width="2880"
     inkscape:window-height="1706"
     id="namedview59"
     showgrid="false"
     inkscape:zoom="7.375"
     inkscape:cx="-30.644068"
     inkscape:cy="16"
     inkscape:window-x="-11"
     inkscape:window-y="-11"
     inkscape:window-maximized="1"
     inkscape:current-layer="svg3182" />
  <defs
     id="defs3184">
    <linearGradient
       id="linearGradient5060">
      <stop
         id="stop5062"
         style="stop-color:#000000;stop-opacity:1"
         offset="0" />
      <stop
         id="stop5064"
         style="stop-color:#000000;stop-opacity:0"
         offset="1" />
    </linearGradient>
    <linearGradient
       id="linearGradient5048">
      <stop
         id="stop5050"
         style="stop-color:#000000;stop-opacity:0"
         offset="0" />
      <stop
         id="stop5056"
         style="stop-color:#000000;stop-opacity:1"
         offset="0.5" />
      <stop
         id="stop5052"
         style="stop-color:#000000;stop-opacity:0"
         offset="1" />
    </linearGradient>
    <radialGradient
       cx="605.71429"
       cy="486.64789"
       r="117.14286"
       fx="605.71429"
       fy="486.64789"
       id="radialGradient3021"
       xlink:href="#linearGradient5060"
       gradientUnits="userSpaceOnUse"
       gradientTransform="matrix(0.0133137,0,0,0.007,17.247609,24.557126)" />
    <radialGradient
       cx="605.71429"
       cy="486.64789"
       r="117.14286"
       fx="605.71429"
       fy="486.64789"
       id="radialGradient3024"
       xlink:href="#linearGradient5060"
       gradientUnits="userSpaceOnUse"
       gradientTransform="matrix(-0.0133137,0,0,0.007,13.702392,24.557126)" />
    <linearGradient
       x1="302.85715"
       y1="366.64789"
       x2="302.85715"
       y2="609.50507"
       id="linearGradient3027"
       xlink:href="#linearGradient5048"
       gradientUnits="userSpaceOnUse"
       gradientTransform="matrix(0.04048818,0,0,0.007,0.86266984,24.557111)" />
    <radialGradient
       cx="65.325226"
       cy="48.709068"
       r="31.000002"
       fx="65.325226"
       fy="48.709068"
       id="radialGradient3343"
       xlink:href="#linearGradient3242-7-3-8-0-4-58-06"
       gradientUnits="userSpaceOnUse"
       gradientTransform="matrix(0,0.68597915,-0.7462606,0,60.288383,-27.737493)" />
    <linearGradient
       id="linearGradient3242-7-3-8-0-4-58-06">
      <stop
         offset="0"
         style="stop-color:#cdf87e;stop-opacity:1"
         id="stop3244-5-8-5-6-4-3-8" />
      <stop
         offset="0.26238"
         style="stop-color:#a2e34f;stop-opacity:1"
         id="stop3246-9-5-1-5-3-0-7" />
      <stop
         offset="0.66093999"
         style="stop-color:#68b723;stop-opacity:1"
         id="stop3248-7-2-0-7-5-35-9" />
      <stop
         offset="1"
         style="stop-color:#1d7e0d;stop-opacity:1"
         id="stop3250-8-2-8-5-6-40-4" />
    </linearGradient>
    <linearGradient
       x1="24.138529"
       y1="10.170639"
       x2="24.138529"
       y2="36.135799"
       id="linearGradient3030"
       xlink:href="#linearGradient4154"
       gradientUnits="userSpaceOnUse"
       gradientTransform="matrix(0.42269325,0,0,0.38513145,14.544843,15.082967)" />
    <linearGradient
       id="linearGradient4154">
      <stop
         id="stop4156"
         style="stop-color:#ffffff;stop-opacity:1"
         offset="0" />
      <stop
         id="stop4158"
         style="stop-color:#ffffff;stop-opacity:0.23529412"
         offset="0" />
      <stop
         id="stop4160"
         style="stop-color:#ffffff;stop-opacity:0.15686275"
         offset="1" />
      <stop
         id="stop4162"
         style="stop-color:#ffffff;stop-opacity:0.39215687"
         offset="1" />
    </linearGradient>
    <linearGradient
       x1="24.138529"
       y1="20.748587"
       x2="24.138529"
       y2="25.52846"
       id="linearGradient3030-1"
       xlink:href="#linearGradient4333"
       gradientUnits="userSpaceOnUse"
       gradientTransform="matrix(0.38833389,0,0,0.41842122,15.301011,14.318351)" />
    <linearGradient
       id="linearGradient4333">
      <stop
         offset="0"
         style="stop-color:#ffffff;stop-opacity:1"
         id="stop4335" />
      <stop
         offset="0.00000003"
         style="stop-color:#ffffff;stop-opacity:0.23529412"
         id="stop4337" />
      <stop
         offset="1"
         style="stop-color:#ffffff;stop-opacity:0.15686275"
         id="stop4339" />
      <stop
         offset="1"
         style="stop-color:#ffffff;stop-opacity:0.39215687"
         id="stop4341" />
    </linearGradient>
    <linearGradient
       id="linearGradient2867-449-88-871-390-598-476-591-434-148-57-177-641-289-620-227-114-444-680-744-8-7">
      <stop
         id="stop5430-8-6"
         style="stop-color:#5f5f5f;stop-opacity:1"
         offset="0" />
      <stop
         id="stop5432-3-5"
         style="stop-color:#4f4f4f;stop-opacity:1"
         offset="0.26238" />
      <stop
         id="stop5434-1-6"
         style="stop-color:#3b3b3b;stop-opacity:1"
         offset="0.704952" />
      <stop
         id="stop5436-8-9"
         style="stop-color:#2b2b2b;stop-opacity:1"
         offset="1" />
    </linearGradient>
    <linearGradient
       id="linearGradient3707-319-631-407-324-616-674-812-821-107-178-392-400-6-7">
      <stop
         id="stop5440-4-4"
         style="stop-color:#272727;stop-opacity:1"
         offset="0" />
      <stop
         id="stop5442-3-5"
         style="stop-color:#454545;stop-opacity:1"
         offset="1" />
    </linearGradient>
    <linearGradient
       gradientTransform="matrix(1.0337837,0,0,1.2175675,-12.209871,-12.282628)"
       gradientUnits="userSpaceOnUse"
       xlink:href="#linearGradient4070"
       id="linearGradient3032-5"
       y2="32.463085"
       x2="23.99999"
       y1="14.077706"
       x1="23.99999" />
    <linearGradient
       id="linearGradient4070">
      <stop
         offset="0"
         style="stop-color:#ffffff;stop-opacity:1"
         id="stop4072" />
      <stop
         offset="0.134046"
         style="stop-color:#ffffff;stop-opacity:0.23529412"
         id="stop4074" />
      <stop
         offset="0.94730771"
         style="stop-color:#ffffff;stop-opacity:0.15686275"
         id="stop4076" />
      <stop
         offset="1"
         style="stop-color:#ffffff;stop-opacity:0.39215687"
         id="stop4078" />
    </linearGradient>
    <radialGradient
       gradientTransform="matrix(0,1.6278471,-1.3804581,0,27.127183,-17.043171)"
       gradientUnits="userSpaceOnUse"
       xlink:href="#linearGradient2867-449-88-871-390-598-476-591-434-148-57-177-641-289-620-227-114-444-680-744-8-7"
       id="radialGradient3035-8"
       fy="8.4497671"
       fx="13.003181"
       r="19.99999"
       cy="8.4497671"
       cx="13.003181" />
    <linearGradient
       gradientTransform="matrix(1.452828,0,0,1.5403376,-19.405395,-20.5207)"
       gradientUnits="userSpaceOnUse"
       xlink:href="#linearGradient3707-319-631-407-324-616-674-812-821-107-178-392-400-6-7"
       id="linearGradient3037-5"
       y2="10.165503"
       x2="24"
       y1="31.260178"
       x1="24" />
  </defs>
  <metadata
     id="metadata3187">
    <rdf:RDF>
      <cc:Work
         rdf:about="">
        <dc:format>image/svg+xml</dc:format>
        <dc:type
           rdf:resource="http://purl.org/dc/dcmitype/StillImage" />
        <dc:title />
      </cc:Work>
    </rdf:RDF>
  </metadata>
  <rect
     width="19.549999"
     height="1.7"
     x="5.7212501"
     y="27.123646"
     id="rect2879"
     style="display:inline;overflow:visible;visibility:visible;opacity:0.15;fill:url(#linearGradient3027);fill-opacity:1;fill-rule:nonzero;stroke:none;stroke-width:1;marker:none;stroke-miterlimit:4;stroke-dasharray:none" />
  <path
     d="m 5.6787518,27.123719 c 0,0 0,1.699906 0,1.699906 -0.6856227,0.0032 -1.6575017,-0.380863 -1.6575017,-0.850063 0,-0.4692 0.7651029,-0.849843 1.6575017,-0.849843 z"
     id="path2881"
     style="display:inline;overflow:visible;visibility:visible;opacity:0.15;fill:url(#radialGradient3024);fill-opacity:1;fill-rule:nonzero;stroke:none;stroke-width:1;marker:none;stroke-miterlimit:4;stroke-dasharray:none"
     inkscape:connector-curvature="0" />
  <path
     d="m 25.27125,27.123719 c 0,0 0,1.699906 0,1.699906 0.685622,0.0032 1.657502,-0.380863 1.657502,-0.850063 0,-0.4692 -0.765104,-0.849843 -1.657502,-0.849843 z"
     id="path2883"
     style="display:inline;overflow:visible;visibility:visible;opacity:0.15;fill:url(#radialGradient3021);fill-opacity:1;fill-rule:nonzero;stroke:none;stroke-width:1;marker:none;stroke-miterlimit:4;stroke-dasharray:none"
     inkscape:connector-curvature="0" />
  <path
     d="m 15.428637,4.6140807 c -1.104998,-0.23154 -2.139842,1.01456 -2.979673,0.48484 -0.18165,0.83232 -1.082962,0.1853 -1.043339,0.881195 -1.087288,0.846515 -1.7963891,2.23754 -1.7149285,3.647265 -0.1791324,1.1077203 0.3789285,2.4959403 -0.3167499,3.4080753 -0.2172201,1.06998 -0.043325,2.24162 0.3213263,3.26842 0.7537831,1.146055 1.9205801,2.08998 2.1821641,3.525205 0.123237,1.33229 -1.314978,2.077315 -2.1991437,2.802875 -1.3844247,0.95557 -2.8549961,1.68827 -4.3820432,2.38204 v 2.55 H 25.69625 v -2.55 c -2.057378,-0.898705 -3.967161,-2.22275 -5.532073,-3.857215 -1.109591,-1.06573 -0.03348,-2.59097 0.669378,-3.54994 0.931571,-0.7837 1.414856,-1.93018 1.425633,-3.147805 0.308964,-1.199945 -0.621293,-2.103155 -0.404003,-3.321035 -0.02947,-1.5450453 0.19658,-3.4019553 -1.097429,-4.5267603 -1.456695,-1.26837 -3.423075,-1.92593 -5.329119,-1.99716 z"
     id="path3899"
     style="color:#000000;display:inline;overflow:visible;visibility:visible;fill:url(#radialGradient3035-8);fill-opacity:1;fill-rule:nonzero;stroke:url(#linearGradient3037-5);stroke-width:1;stroke-linecap:round;stroke-linejoin:round;stroke-miterlimit:4;stroke-dasharray:none;stroke-dashoffset:0;stroke-opacity:1;marker:none;enable-background:accumulate"
     inkscape:connector-curvature="0" />
  <path
     d="m 15.336875,5.3577117 c -0.234786,-0.04919 -0.596573,0.096169 -1.115625,0.31875 -0.259526,0.1112905 -0.546913,0.2337067 -0.903125,0.2921875 -0.139216,0.022857 -0.31799,-0.066104 -0.478125,-0.079687 -0.06767,0.070456 -0.08178,0.1913682 -0.159375,0.2390625 -0.215973,0.1327462 -0.363063,0.1398752 -0.504687,0.159375 a 0.77200313,0.77200313 0 0 1 -0.2125,0.2921875 c -0.890027,0.6928835 -1.499001,1.88313 -1.434375,3.0015625 a 0.77200313,0.77200313 0 0 1 0,0.1859375 c -0.06044,0.3737928 0.01354,0.9422028 0.05312,1.5937498 0.03379,0.55613 -0.04388,1.221911 -0.371875,1.832812 -0.174536,0.859753 -0.04287,1.857908 0.265625,2.7625 0.6744,0.984121 1.942147,2.013394 2.257812,3.745313 a 0.77200313,0.77200313 0 0 1 0,0.05313 c 0.08828,0.95434 -0.417204,1.737705 -0.95625,2.257812 -0.539046,0.520108 -1.159518,0.882571 -1.540625,1.195313 a 0.77200313,0.77200313 0 0 1 -0.02656,0.05312 c -1.2978586,0.895878 -2.6781269,1.560271 -4.0640629,2.204687 v 1.328125 H 25.005625 v -1.328125 c -1.956664,-0.923935 -3.774994,-2.174029 -5.285937,-3.745312 -0.0087,-0.009 -0.0179,-0.01752 -0.02656,-0.02656 -0.750419,-0.745933 -0.798751,-1.817666 -0.53125,-2.603125 0.270813,-0.795182 0.785183,-1.451979 1.142188,-1.939062 a 0.77200313,0.77200313 0 0 1 0.10625,-0.132813 c 0.753556,-0.633935 1.159775,-1.536059 1.16875,-2.55 a 0.77200313,0.77200313 0 0 1 0.02656,-0.185937 c 0.09512,-0.369421 0.0097,-0.703008 -0.159375,-1.221875 -0.157311,-0.482687 -0.380627,-1.129619 -0.292187,-1.885938 0.0066,-0.05669 -0.01036,-0.101279 0,-0.159375 -0.0077,-0.762825 0.03368,-1.5531312 -0.05313,-2.2046868 -0.09308,-0.6986303 -0.300781,-1.2121765 -0.770313,-1.6203125 -1.294824,-1.1273898 -3.110843,-1.740868 -4.860937,-1.80625 a 0.77200313,0.77200313 0 0 1 -0.132813,-0.026562 z"
     id="path4025"
     style="color:#000000;display:inline;overflow:visible;visibility:visible;opacity:0.5;fill:none;stroke:url(#linearGradient3032-5);stroke-width:1;stroke-linecap:round;stroke-linejoin:round;stroke-miterlimit:4;stroke-dasharray:none;stroke-dashoffset:0;stroke-opacity:1;marker:none;enable-background:accumulate"
     inkscape:connector-curvature="0" />
</svg>
