<?xml version="1.0" encoding="UTF-8" standalone="no"?>
<svg
   xmlns:dc="http://purl.org/dc/elements/1.1/"
   xmlns:cc="http://creativecommons.org/ns#"
   xmlns:rdf="http://www.w3.org/1999/02/22-rdf-syntax-ns#"
   xmlns:svg="http://www.w3.org/2000/svg"
   xmlns="http://www.w3.org/2000/svg"
   xmlns:xlink="http://www.w3.org/1999/xlink"
   xmlns:sodipodi="http://sodipodi.sourceforge.net/DTD/sodipodi-0.dtd"
   xmlns:inkscape="http://www.inkscape.org/namespaces/inkscape"
   id="svg2526"
   height="32"
   width="32"
   version="1.0"
   sodipodi:docname="video.svg"
   inkscape:version="0.92.4 (5da689c313, 2019-01-14)">
  <sodipodi:namedview
     pagecolor="#ffffff"
     bordercolor="#666666"
     borderopacity="1"
     objecttolerance="10"
     gridtolerance="10"
     guidetolerance="10"
     inkscape:pageopacity="0"
     inkscape:pageshadow="2"
     inkscape:window-width="2880"
     inkscape:window-height="1706"
     id="namedview44"
     showgrid="false"
     inkscape:zoom="7.375"
     inkscape:cx="-1.4237288"
     inkscape:cy="16"
     inkscape:window-x="-11"
     inkscape:window-y="-11"
     inkscape:window-maximized="1"
     inkscape:current-layer="svg2526" />
  <metadata
     id="metadata58">
    <rdf:RDF>
      <cc:Work
         rdf:about="">
        <dc:format>image/svg+xml</dc:format>
        <dc:type
           rdf:resource="http://purl.org/dc/dcmitype/StillImage" />
        <dc:title />
      </cc:Work>
    </rdf:RDF>
  </metadata>
  <defs
     id="defs2528">
    <linearGradient
       id="linearGradient857">
      <stop
         id="stop853"
         offset="0"
         style="stop-color:#ed5353;stop-opacity:1" />
      <stop
         id="stop855"
         offset="1"
         style="stop-color:#c6262e;stop-opacity:1" />
    </linearGradient>
    <linearGradient
       id="linearGradient5060">
      <stop
         offset="0"
         style="stop-color:#000000;stop-opacity:1"
         id="stop5062" />
      <stop
         offset="1"
         style="stop-color:#000000;stop-opacity:0"
         id="stop5064" />
    </linearGradient>
    <linearGradient
       id="linearGradient5048">
      <stop
         offset="0"
         style="stop-color:#000000;stop-opacity:0"
         id="stop5050" />
      <stop
         offset="0.5"
         style="stop-color:#000000;stop-opacity:1"
         id="stop5056" />
      <stop
         offset="1"
         style="stop-color:#000000;stop-opacity:0"
         id="stop5052" />
    </linearGradient>
    <linearGradient
       gradientTransform="matrix(0.04788112,0,0,0.014,-1.3056053,20.366932)"
       gradientUnits="userSpaceOnUse"
       xlink:href="#linearGradient5048"
       id="linearGradient3188"
       y2="609.50507"
       x2="302.85715"
       y1="366.64789"
       x1="302.85715" />
    <radialGradient
       gradientTransform="matrix(-0.01638589,0,0,0.014,14.315259,20.366961)"
       gradientUnits="userSpaceOnUse"
       xlink:href="#linearGradient5060"
       id="radialGradient3190"
       fy="486.64789"
       fx="605.71429"
       r="117.14286"
       cy="486.64789"
       cx="605.71429" />
    <radialGradient
       gradientTransform="matrix(0.01638589,0,0,0.014,17.684738,20.366961)"
       gradientUnits="userSpaceOnUse"
       xlink:href="#linearGradient5060"
       id="radialGradient3192"
       fy="486.64789"
       fx="605.71429"
       r="117.14286"
       cy="486.64789"
       cx="605.71429" />
    <linearGradient
       id="linearGradient3462">
      <stop
         offset="0"
         style="stop-color:#ffffff;stop-opacity:1"
         id="stop3464" />
      <stop
         offset="0"
         style="stop-color:#ffffff;stop-opacity:0.23529412"
         id="stop3466" />
      <stop
         offset="0.99999994"
         style="stop-color:#ffffff;stop-opacity:0.15686275"
         id="stop3468" />
      <stop
         offset="1"
         style="stop-color:#ffffff;stop-opacity:0.39215687"
         id="stop3470" />
    </linearGradient>
    <linearGradient
       gradientTransform="matrix(0.66621622,0,0,0.52837838,0.01080759,4.31892)"
       gradientUnits="userSpaceOnUse"
       xlink:href="#linearGradient3462"
       id="linearGradient3217"
       y2="41.695652"
       x2="40.290417"
       y1="4.6956501"
       x1="40.290417" />
    <linearGradient
       id="linearGradient4215-8-4-07-7">
      <stop
         style="stop-color:#2b3235;stop-opacity:1"
         offset="0"
         id="stop4217-1-2-1-2" />
      <stop
         style="stop-color:#374044;stop-opacity:1"
         offset="1"
         id="stop4219-3-4-0-96" />
    </linearGradient>
    <linearGradient
       gradientUnits="userSpaceOnUse"
       y2="26"
       x2="17"
       y1="29"
       x1="17"
       id="linearGradient4355"
       xlink:href="#linearGradient4215-8-4-07-7"
       gradientTransform="matrix(0.85,0,0,0.85,2.4,2.55)" />
    <linearGradient
       gradientUnits="userSpaceOnUse"
       y2="29.89962"
       x2="18.325079"
       y1="3.6128187"
       x1="18.325079"
       id="linearGradient859"
       xlink:href="#linearGradient857"
       gradientTransform="matrix(0.85,0,0,0.85,2.4,2.55)" />
  </defs>
  <path
     id="rect5505-21-3-8-5-2"
     d="M 3.718164,5.525 C 3.22332,5.525 2.825,5.9288277 2.825,6.4297851 V 23.8 h 26.35 V 6.4297851 C 29.175,5.9288277 28.77668,5.525 28.281836,5.525 Z"
     style="color:#000000;display:inline;overflow:visible;visibility:visible;opacity:1;fill:url(#linearGradient859);fill-opacity:1;fill-rule:nonzero;stroke:none;stroke-width:1;marker:none;enable-background:accumulate;stroke-miterlimit:4;stroke-dasharray:none"
     inkscape:connector-curvature="0" />
  <path
     id="rect5505-21-3-8-9-1-1"
     d="M 3.718164,5.1 C 2.9924034,5.1 2.4,5.7035126 2.4,6.4297851 V 23.8 H 3.25 V 6.4297851 C 3.25,6.1541428 3.4542367,5.95 3.718164,5.95 H 28.281836 C 28.545764,5.95 28.75,6.1541428 28.75,6.4297851 V 23.8 H 29.6 V 6.4297851 C 29.6,5.7035126 29.007597,5.1 28.281836,5.1 Z"
     style="color:#000000;font-style:normal;font-variant:normal;font-weight:normal;font-stretch:normal;font-size:medium;line-height:normal;font-family:sans-serif;text-indent:0;text-align:start;text-decoration:none;text-decoration-line:none;text-decoration-style:solid;text-decoration-color:#000000;letter-spacing:normal;word-spacing:normal;text-transform:none;writing-mode:lr-tb;direction:ltr;baseline-shift:baseline;text-anchor:start;white-space:normal;clip-rule:nonzero;display:inline;overflow:visible;visibility:visible;opacity:0.5;isolation:auto;mix-blend-mode:normal;color-interpolation:sRGB;color-interpolation-filters:linearRGB;solid-color:#000000;solid-opacity:1;fill:#7a0000;fill-opacity:1;fill-rule:nonzero;stroke:none;stroke-width:1;stroke-linecap:round;stroke-linejoin:round;stroke-miterlimit:4;stroke-dasharray:none;stroke-dashoffset:0;stroke-opacity:1;marker:none;color-rendering:auto;image-rendering:auto;shape-rendering:auto;text-rendering:auto;enable-background:accumulate"
     inkscape:connector-curvature="0" />
  <path
     d="M 12.945168,11.906468 C 12.742821,11.946457 12.597739,12.12493 12.6,12.331077 v 7.642968 c 0.0016,0.325954 0.352576,0.530592 0.637234,0.371534 l 6.797158,-3.821485 c 0.287443,-0.164377 0.287443,-0.578688 0,-0.743065 l -6.797158,-3.821484 c -0.08791,-0.05193 -0.191493,-0.07075 -0.292066,-0.05307 z"
     id="path4010-5"
     style="opacity:0.15;fill:#7a0000;fill-opacity:1;fill-rule:evenodd;stroke:none;stroke-width:1;stroke-miterlimit:4;stroke-dasharray:none"
     inkscape:connector-curvature="0" />
  <path
     d="m 13.024822,11.030712 c 0.01271,3.7e-5 -0.118871,0.02762 -0.106205,0.02654 0.0076,-6.51e-4 -0.0438,-0.0046 -0.07965,0 -0.0177,-5.47e-4 -0.0354,-5.47e-4 -0.0531,0 -0.05381,0.0038 -0.107157,0.01272 -0.159308,0.02654 0.011,-0.0037 -0.116874,0.05763 -0.106206,0.05307 0.01068,-0.0046 -0.08992,0.03193 -0.07965,0.02654 0.01027,-0.0054 -0.116003,0.05928 -0.106205,0.05307 0.0098,-0.0062 -0.08892,0.08659 -0.07965,0.07961 0.0093,-0.007 -0.08833,0.06078 -0.07965,0.05307 0.0087,-0.0077 -0.08768,0.08799 -0.07965,0.07961 0.008,-0.0084 -0.08698,0.08861 -0.07965,0.07961 0.0073,-0.009 -0.05967,0.08917 -0.0531,0.07961 0.0065,-0.0096 -0.05888,0.08967 -0.0531,0.07961 0.0058,-0.01006 -0.05805,0.116637 -0.0531,0.106152 0.0049,-0.01049 -0.03063,0.09047 -0.02655,0.07961 0.0041,-0.01085 -0.02975,0.117297 -0.02655,0.106152 0.0032,-0.01114 -0.02884,0.117518 -0.02655,0.106152 0.0023,-0.01136 -0.02792,0.117666 -0.02655,0.106153 0.0014,-0.01152 -4.3e-4,0.0912 0,0.07961 3.23e-4,-0.0087 7.8e-5,0.04932 0,0.07961 -2.6e-5,0.0101 1.27e-4,0.02944 0,0.02654 V 19.974 c -4.6e-5,-0.0093 6.5e-4,0.08891 0,0.07961 -6.48e-4,-0.0093 0.0013,0.08885 0,0.07961 -0.0013,-0.0092 0.0284,0.115282 0.02655,0.106152 -0.0019,-0.0091 0.0025,0.08861 0,0.07961 -0.0025,-0.009 0.02957,0.08843 0.02655,0.07961 -0.003,-0.0088 0.03013,0.08822 0.02655,0.07961 -0.0036,-0.0086 0.05723,0.06142 0.0531,0.05307 -0.0042,-0.0083 0.03121,0.08768 0.02655,0.07961 -0.0047,-0.0081 0.05828,0.08736 0.0531,0.07961 -0.0052,-0.0077 0.05877,0.06048 0.0531,0.05307 -0.0057,-0.0074 0.05924,0.08663 0.0531,0.07961 -0.0061,-0.0071 0.05968,0.05967 0.0531,0.05307 -0.0065,-0.0066 0.0601,0.05925 0.0531,0.05307 -0.007,-0.0062 0.06048,0.05878 0.0531,0.05307 -0.0074,-0.0057 0.08738,0.05829 0.07965,0.05307 -0.0077,-0.0052 0.0877,0.05777 0.07965,0.05307 -0.0081,-0.0047 0.06144,0.0307 0.0531,0.02654 -0.0083,-0.0042 0.08824,0.0567 0.07965,0.05307 -0.0086,-0.0037 0.08846,0.02959 0.07965,0.02654 -0.0088,-0.0031 0.08864,0.02901 0.07965,0.02654 -0.009,-0.0025 0.08878,0.0019 0.07965,0 -0.0091,-0.0019 0.08888,0.02783 0.07965,0.02654 -0.0092,-0.0013 0.115499,6.89e-4 0.106205,0 -0.0093,-6.88e-4 0.08897,8.5e-5 0.07965,0 -0.0093,-8.5e-5 0.08896,-5.18e-4 0.07965,0 -0.0093,5.19e-4 0.0889,-0.0011 0.07965,0 -0.0093,0.0011 0.08881,-0.0017 0.07965,0 -0.0092,0.0017 0.08868,-0.02885 0.07965,-0.02654 -0.009,0.0023 0.08852,-0.02943 0.07965,-0.02654 -0.0089,0.0029 0.08831,-0.03 0.07965,-0.02654 -0.0087,0.0035 0.08807,-0.03055 0.07965,-0.02654 -0.0084,0.004 0.08779,-0.05762 0.07965,-0.05307 l 6.797158,-3.821483 c -0.0082,0.0047 0.08752,-0.05829 0.07965,-0.05307 -0.0079,0.0052 0.06061,-0.03225 0.0531,-0.02654 -0.0075,0.0057 0.08677,-0.05927 0.07965,-0.05307 -0.0071,0.0062 0.0598,-0.08627 0.0531,-0.07961 -0.0067,0.0066 0.05935,-0.06015 0.0531,-0.05307 -0.0062,0.0071 0.05886,-0.06055 0.0531,-0.05307 -0.0058,0.0075 0.05836,-0.08745 0.0531,-0.07961 -0.0053,0.0078 0.05783,-0.08778 0.0531,-0.07961 -0.0048,0.0082 0.03074,-0.06153 0.02655,-0.05307 -0.0042,0.0085 0.05673,-0.08833 0.0531,-0.07961 -0.0037,0.0087 0.0296,-0.08854 0.02655,-0.07961 -0.0031,0.0089 0.02901,-0.08873 0.02655,-0.07961 -0.0025,0.0091 0.02841,-0.115404 0.02655,-0.106153 -0.0019,0.0092 0.0013,-0.08897 0,-0.07961 -0.0013,0.0094 6.2e-4,-0.08903 0,-0.07961 -6.19e-4,0.0094 0,-0.08905 0,-0.07961 0,0.0094 -6.19e-4,-0.08903 0,-0.07961 6.2e-4,0.0094 -0.0013,-0.08897 0,-0.07961 0.0013,0.0093 -0.0019,-0.08886 0,-0.07961 0.0019,0.0092 -0.02901,-0.115262 -0.02655,-0.106152 0.0025,0.0091 -0.0296,-0.08854 -0.02655,-0.07961 0.0031,0.0089 -0.03018,-0.08832 -0.02655,-0.07961 0.0037,0.0087 -0.05729,-0.08807 -0.0531,-0.07961 0.0042,0.0085 -0.03128,-0.06123 -0.02655,-0.05307 0.0048,0.0082 -0.05836,-0.08745 -0.0531,-0.07961 0.0053,0.0078 -0.05886,-0.08708 -0.0531,-0.07961 0.0058,0.0075 -0.05935,-0.06015 -0.0531,-0.05307 0.0062,0.0071 -0.0598,-0.05972 -0.0531,-0.05307 0.0067,0.0066 -0.06022,-0.08581 -0.0531,-0.07961 0.0071,0.0062 -0.08716,-0.05879 -0.07965,-0.05307 0.0075,0.0057 -0.06097,-0.03176 -0.0531,-0.02654 0.0079,0.0052 -0.08785,-0.05777 -0.07965,-0.05307 l -6.797158,-3.821483 c 0.01094,0.0065 -0.09113,-0.05855 -0.07965,-0.05307 0.01147,0.0054 -0.118118,-0.05751 -0.106206,-0.05307 0.01191,0.0044 -0.118464,-0.02991 -0.106206,-0.02654 0.01226,0.0034 -0.145264,-0.02882 -0.132756,-0.02654 0.0125,0.0023 -0.118866,-0.0012 -0.106206,0 0.01266,0.0012 -0.118918,-0.02657 -0.106206,-0.02654 z"
     id="path4057"
     style="opacity:0.07000002;fill:#7a0000;fill-opacity:1;fill-rule:evenodd;stroke:none;stroke-width:1;stroke-miterlimit:4;stroke-dasharray:none"
     inkscape:connector-curvature="0" />
  <path
     d="M 12.945168,11.056468 C 12.742821,11.096457 12.597739,11.27493 12.6,11.481078 v 7.642967 c 0.0016,0.325954 0.352576,0.530592 0.637233,0.371534 l 6.797158,-3.821484 c 0.287444,-0.164377 0.287444,-0.578689 0,-0.743066 l -6.797158,-3.821484 c -0.08791,-0.05193 -0.191492,-0.07076 -0.292065,-0.05307 z"
     id="path4010"
     style="fill:#fafafa;fill-opacity:1;fill-rule:evenodd;stroke:none;stroke-width:1;stroke-miterlimit:4;stroke-dasharray:none"
     inkscape:connector-curvature="0" />
  <rect
     width="23.119741"
     height="3.3999996"
     x="4.4401293"
     y="25.5"
     id="rect2879"
     style="display:inline;overflow:visible;visibility:visible;fill:url(#linearGradient3188);fill-opacity:1;fill-rule:nonzero;stroke:none;stroke-width:1;marker:none;stroke-miterlimit:4;stroke-dasharray:none" />
  <path
     d="m 4.4401295,25.500147 v 3.399813 c -0.843833,0.0064 -2.0399772,-0.761726 -2.0399772,-1.700126 0,-0.938397 0.9416539,-1.699685 2.0399772,-1.699687 z"
     id="path2881"
     style="display:inline;overflow:visible;visibility:visible;fill:url(#radialGradient3190);fill-opacity:1;fill-rule:nonzero;stroke:none;stroke-width:1;marker:none;stroke-miterlimit:4;stroke-dasharray:none"
     inkscape:connector-curvature="0" />
  <path
     d="m 27.559871,25.500147 v 3.399813 c 0.843832,0.0064 2.039977,-0.761726 2.039977,-1.700126 0,-0.938397 -0.941654,-1.699685 -2.039977,-1.699687 z"
     id="path2883"
     style="display:inline;overflow:visible;visibility:visible;fill:url(#radialGradient3192);fill-opacity:1;fill-rule:nonzero;stroke:none;stroke-width:1;marker:none;stroke-miterlimit:4;stroke-dasharray:none"
     inkscape:connector-curvature="0" />
  <path
     id="rect4341"
     d="m 2.825,23.8 v 2.920215 c 0,0.500958 0.39832,0.904785 0.893164,0.904785 h 24.563672 c 0.494844,0 0.893164,-0.403827 0.893164,-0.904785 V 23.8 Z"
     style="color:#000000;display:inline;overflow:visible;visibility:visible;opacity:1;fill:url(#linearGradient4355);fill-opacity:1;fill-rule:nonzero;stroke:none;stroke-width:1;marker:none;enable-background:accumulate;stroke-miterlimit:4;stroke-dasharray:none"
     inkscape:connector-curvature="0" />
  <path
     id="rect4343"
     d="m 2.4,23.8 v 2.920215 C 2.4,27.446487 2.9924034,28.05 3.718164,28.05 H 28.281836 C 29.007597,28.05 29.6,27.446487 29.6,26.720215 V 23.8 h -0.85 v 2.920215 C 28.75,26.995857 28.545764,27.2 28.281836,27.2 H 3.718164 C 3.4542366,27.2 3.25,26.995857 3.25,26.720215 V 23.8 Z"
     style="color:#000000;font-style:normal;font-variant:normal;font-weight:normal;font-stretch:normal;font-size:medium;line-height:normal;font-family:sans-serif;text-indent:0;text-align:start;text-decoration:none;text-decoration-line:none;text-decoration-style:solid;text-decoration-color:#000000;letter-spacing:normal;word-spacing:normal;text-transform:none;writing-mode:lr-tb;direction:ltr;baseline-shift:baseline;text-anchor:start;white-space:normal;clip-rule:nonzero;display:inline;overflow:visible;visibility:visible;opacity:0.5;isolation:auto;mix-blend-mode:normal;color-interpolation:sRGB;color-interpolation-filters:linearRGB;solid-color:#000000;solid-opacity:1;fill:#000000;fill-opacity:1;fill-rule:nonzero;stroke:none;stroke-width:1;stroke-linecap:round;stroke-linejoin:round;stroke-miterlimit:4;stroke-dasharray:none;stroke-dashoffset:0;stroke-opacity:1;marker:none;color-rendering:auto;image-rendering:auto;shape-rendering:auto;text-rendering:auto;enable-background:accumulate"
     inkscape:connector-curvature="0" />
  <path
     id="rect4497"
     d="M 4.4933272,25.5 H 27.506673 C 27.724576,25.5 27.9,25.675424 27.9,25.893327 v 0.06334 C 27.9,26.174576 27.724576,26.35 27.506673,26.35 H 4.4933272 C 4.2754239,26.35 4.1,26.174576 4.1,25.956673 v -0.06334 C 4.1,25.675424 4.2754239,25.5 4.4933272,25.5 Z"
     style="opacity:0.4;fill:#000000;fill-opacity:1;stroke:none;stroke-width:1;stroke-linecap:round;stroke-linejoin:round;stroke-miterlimit:4;stroke-dasharray:none;stroke-opacity:1"
     inkscape:connector-curvature="0" />
  <path
     d="m 3.675,6.375 h 24.65 v 20.4 H 3.675 Z m 0.425,17 h 23.8 z"
     style="opacity:0.3;fill:none;stroke:url(#linearGradient3217);stroke-width:1;stroke-linecap:round;stroke-linejoin:round;stroke-miterlimit:4;stroke-dashoffset:0;stroke-opacity:1;stroke-dasharray:none"
     id="rect6741-5-0-2-3"
     inkscape:connector-curvature="0" />
  <circle
     r="1.275"
     cy="25.924999"
     cx="9.625"
     id="path4649"
     style="opacity:1;fill:#161b1e;fill-opacity:1;stroke:none;stroke-width:1;stroke-linecap:round;stroke-linejoin:round;stroke-miterlimit:4;stroke-dasharray:none;stroke-opacity:1" />
  <rect
     y="24.65"
     x="9.1999998"
     height="0.85000002"
     width="0.85000002"
     id="rect4653"
     style="opacity:0.2;fill:#ffffff;fill-opacity:1;stroke:none;stroke-width:1;stroke-linecap:round;stroke-linejoin:round;stroke-miterlimit:4;stroke-dasharray:none;stroke-opacity:1" />
  <path
     id="path4202"
     d="m 3.25,23.8 v 0.85 h 25.5 V 23.8 Z"
     style="color:#000000;font-style:normal;font-variant:normal;font-weight:normal;font-stretch:normal;font-size:medium;line-height:normal;font-family:sans-serif;text-indent:0;text-align:start;text-decoration:none;text-decoration-line:none;text-decoration-style:solid;text-decoration-color:#000000;letter-spacing:normal;word-spacing:normal;text-transform:none;writing-mode:lr-tb;direction:ltr;baseline-shift:baseline;text-anchor:start;white-space:normal;clip-rule:nonzero;display:inline;overflow:visible;visibility:visible;opacity:0.5;isolation:auto;mix-blend-mode:normal;color-interpolation:sRGB;color-interpolation-filters:linearRGB;solid-color:#000000;solid-opacity:1;fill:#000000;fill-opacity:1;fill-rule:evenodd;stroke:none;stroke-width:1;stroke-linecap:butt;stroke-linejoin:miter;stroke-miterlimit:4;stroke-dasharray:none;stroke-dashoffset:0;stroke-opacity:1;color-rendering:auto;image-rendering:auto;shape-rendering:auto;text-rendering:auto;enable-background:accumulate"
     inkscape:connector-curvature="0" />
</svg>
