<?xml version="1.0" encoding="UTF-8" standalone="no"?>
<svg
   xmlns:dc="http://purl.org/dc/elements/1.1/"
   xmlns:cc="http://creativecommons.org/ns#"
   xmlns:rdf="http://www.w3.org/1999/02/22-rdf-syntax-ns#"
   xmlns:svg="http://www.w3.org/2000/svg"
   xmlns="http://www.w3.org/2000/svg"
   xmlns:xlink="http://www.w3.org/1999/xlink"
   xmlns:sodipodi="http://sodipodi.sourceforge.net/DTD/sodipodi-0.dtd"
   xmlns:inkscape="http://www.inkscape.org/namespaces/inkscape"
   id="svg4057"
   height="32"
   width="32"
   version="1.1"
   sodipodi:docname="warning.svg"
   inkscape:version="0.92.4 (5da689c313, 2019-01-14)">
  <sodipodi:namedview
     pagecolor="#ffffff"
     bordercolor="#666666"
     borderopacity="1"
     objecttolerance="10"
     gridtolerance="10"
     guidetolerance="10"
     inkscape:pageopacity="0"
     inkscape:pageshadow="2"
     inkscape:window-width="2880"
     inkscape:window-height="1706"
     id="namedview34"
     showgrid="false"
     inkscape:zoom="7.375"
     inkscape:cx="-1.4237288"
     inkscape:cy="16"
     inkscape:window-x="-11"
     inkscape:window-y="-11"
     inkscape:window-maximized="1"
     inkscape:current-layer="svg4057" />
  <defs
     id="defs4059">
    <linearGradient
       id="linearGradient3117">
      <stop
         offset="0"
         style="stop-color:#ffffff;stop-opacity:1"
         id="stop3119" />
      <stop
         offset="0.56911701"
         style="stop-color:#ffffff;stop-opacity:0.23529412"
         id="stop3121" />
      <stop
         offset="0.93297637"
         style="stop-color:#ffffff;stop-opacity:0.15686275"
         id="stop3123" />
      <stop
         offset="1"
         style="stop-color:#ffffff;stop-opacity:0.39215687"
         id="stop3125" />
    </linearGradient>
    <linearGradient
       gradientTransform="matrix(0.56656189,0,-0.00246622,0.57619307,-0.4533177,-6.2106315)"
       gradientUnits="userSpaceOnUse"
       xlink:href="#linearGradient3117"
       id="linearGradient3039"
       y2="57.567127"
       x2="29.291178"
       y1="19.787613"
       x1="29.126724" />
    <linearGradient
       gradientTransform="matrix(0.5478004,0,0,0.53374705,2.852761,3.7720755)"
       gradientUnits="userSpaceOnUse"
       xlink:href="#linearGradient4171"
       id="linearGradient3042"
       y2="44.745136"
       x2="24"
       y1="1.4287592"
       x1="24" />
    <linearGradient
       id="linearGradient5048-4">
      <stop
         offset="0"
         style="stop-color:#000000;stop-opacity:0"
         id="stop5050-6" />
      <stop
         offset="0.5"
         style="stop-color:#000000;stop-opacity:1"
         id="stop5056-9" />
      <stop
         offset="1"
         style="stop-color:#000000;stop-opacity:0"
         id="stop5052-3" />
    </linearGradient>
    <linearGradient
       id="linearGradient5060-3">
      <stop
         offset="0"
         style="stop-color:#000000;stop-opacity:1"
         id="stop5062-9" />
      <stop
         offset="1"
         style="stop-color:#000000;stop-opacity:0"
         id="stop5064-4" />
    </linearGradient>
    <linearGradient
       gradientTransform="matrix(0.08449704,0,0,0.01235294,-6.5396456,38.470822)"
       gradientUnits="userSpaceOnUse"
       xlink:href="#linearGradient5048-4"
       id="linearGradient3196"
       y2="609.50507"
       x2="302.85715"
       y1="366.64789"
       x1="302.85715" />
    <radialGradient
       gradientTransform="matrix(-0.0289166,0,0,0.01235294,21.026894,38.470848)"
       gradientUnits="userSpaceOnUse"
       xlink:href="#linearGradient5060-3"
       id="radialGradient3198"
       fy="486.64789"
       fx="605.71429"
       r="117.14286"
       cy="486.64789"
       cx="605.71429" />
    <radialGradient
       gradientTransform="matrix(0.02891661,0,0,0.01235294,26.973101,38.470848)"
       gradientUnits="userSpaceOnUse"
       xlink:href="#linearGradient5060-3"
       id="radialGradient3200"
       fy="486.64789"
       fx="605.71429"
       r="117.14286"
       cy="486.64789"
       cx="605.71429" />
    <linearGradient
       id="linearGradient4171">
      <stop
         style="stop-color:#ffe16b;stop-opacity:1"
         offset="0"
         id="stop4173" />
      <stop
         style="stop-color:#f9c440;stop-opacity:1"
         offset="1"
         id="stop4175" />
    </linearGradient>
  </defs>
  <metadata
     id="metadata4062">
    <rdf:RDF>
      <cc:Work
         rdf:about="">
        <dc:format>image/svg+xml</dc:format>
        <dc:type
           rdf:resource="http://purl.org/dc/dcmitype/StillImage" />
        <dc:title />
      </cc:Work>
    </rdf:RDF>
  </metadata>
  <g
     style="opacity:0.4;stroke-width:1.2478425;stroke-miterlimit:4;stroke-dasharray:none"
     id="g3257"
     transform="matrix(0.56666032,0,0,1.1333333,2.3999731,-23.308332)">
    <rect
       style="display:inline;overflow:visible;visibility:visible;fill:url(#linearGradient3196);fill-opacity:1;fill-rule:nonzero;stroke:none;stroke-width:1.2478425;marker:none;stroke-miterlimit:4;stroke-dasharray:none"
       id="rect2879"
       y="43"
       x="3.5999999"
       height="2.9999998"
       width="40.799999" />
    <path
       style="display:inline;overflow:visible;visibility:visible;fill:url(#radialGradient3198);fill-opacity:1;fill-rule:nonzero;stroke:none;stroke-width:1.2478425;marker:none;stroke-miterlimit:4;stroke-dasharray:none"
       id="path2881"
       d="m 3.6,43.00013 c 0,0 0,2.999835 0,2.999835 C 2.1108662,46.005612 0,45.327854 0,44.499854 0,43.671856 1.6617608,43.000131 3.6,43.00013 Z"
       inkscape:connector-curvature="0" />
    <path
       style="display:inline;overflow:visible;visibility:visible;fill:url(#radialGradient3200);fill-opacity:1;fill-rule:nonzero;stroke:none;stroke-width:1.2478425;marker:none;stroke-miterlimit:4;stroke-dasharray:none"
       id="path2883"
       d="m 44.4,43.00013 c 0,0 0,2.999835 0,2.999835 1.489133,0.0056 3.6,-0.672111 3.6,-1.500111 0,-0.827998 -1.661761,-1.499723 -3.6,-1.499724 z"
       inkscape:connector-curvature="0" />
  </g>
  <path
     style="fill:url(#linearGradient3042);fill-opacity:1;fill-rule:nonzero;stroke:none;stroke-width:1;stroke-miterlimit:4;stroke-dasharray:none"
     id="path11155"
     d="M 28.149549,25.121428 17.450893,5.4499992 C 17.143382,4.903572 16.586952,4.6000009 15.967251,4.6000009 c -0.619697,0 -1.178984,0.3642821 -1.491166,0.9107134 L 3.8570981,25.182143 c -0.2499551,0.485716 -0.2528128,1.153573 0.054961,1.639285 0.3077699,0.485717 0.8024912,0.728573 1.4221923,0.728573 H 26.651886 c 0.619701,0 1.178725,-0.303572 1.428685,-0.789287 0.311923,-0.485712 0.314521,-1.092855 0.06898,-1.639286 z"
     inkscape:connector-curvature="0" />
  <path
     style="opacity:0.6;fill:none;stroke:url(#linearGradient3039);stroke-width:1;stroke-miterlimit:4;stroke-dasharray:none;stroke-opacity:1"
     id="path11159"
     d="M 26.963726,24.476113 17.158137,6.4743082 C 16.740528,5.6988091 16.590741,5.4499991 15.956089,5.4499991 c -0.545848,0 -0.831454,0.3623598 -1.225912,1.0943672 L 5.0334272,24.531674 c -0.5630722,1.009882 -0.6233985,1.273122 -0.352375,1.717609 0.2710193,0.444492 0.6190017,0.420282 1.9047532,0.449277 H 25.644185 c 1.197012,0.01448 1.466646,-0.07485 1.68689,-0.519335 0.274824,-0.444491 0.157928,-0.797138 -0.367349,-1.703112 z"
     inkscape:connector-curvature="0" />
  <path
     style="color:#000000;clip-rule:nonzero;display:inline;overflow:visible;visibility:visible;opacity:0.5;isolation:auto;mix-blend-mode:normal;color-interpolation:sRGB;color-interpolation-filters:linearRGB;solid-color:#000000;solid-opacity:1;fill:none;fill-opacity:1;fill-rule:nonzero;stroke:#ad5f00;stroke-width:1;stroke-linecap:butt;stroke-linejoin:miter;stroke-miterlimit:4;stroke-dasharray:none;stroke-dashoffset:0;stroke-opacity:1;marker:none;color-rendering:auto;image-rendering:auto;shape-rendering:auto;text-rendering:auto;enable-background:accumulate"
     id="path11155-59"
     d="M 28.149549,25.121427 17.450893,5.4499983 C 17.143382,4.903571 16.586953,4.5999999 15.967252,4.5999999 c -0.619698,0 -1.178985,0.3642821 -1.491167,0.9107135 L 3.8570981,25.182143 C 3.607143,25.667858 3.6042852,26.335715 3.9120591,26.821428 4.219829,27.307144 4.7145503,27.55 5.3342513,27.55 H 26.651886 c 0.619701,0 1.178725,-0.303571 1.428685,-0.789286 0.311923,-0.485713 0.314521,-1.092856 0.06898,-1.639287 z"
     inkscape:connector-curvature="0" />
  <path
     style="opacity:0.3;fill:#ffffff;fill-opacity:1;stroke:none;stroke-width:1;stroke-linejoin:round;stroke-miterlimit:4;stroke-dasharray:none;stroke-opacity:0.49803922"
     d="m 15.999973,10.975 c -0.938884,0 -1.7,0.761116 -1.7,1.7 0,1.7 0.566667,3.966667 1.133333,8.5 h 1.133334 c 0.566666,-4.533333 1.133333,-6.8 1.133333,-8.5 0,-0.938884 -0.761116,-1.7 -1.7,-1.7 z m 0,11.9 c -0.938884,0 -1.7,0.761116 -1.7,1.7 0,0.938884 0.761116,1.7 1.7,1.7 0.938884,0 1.7,-0.761116 1.7,-1.7 0,-0.938884 -0.761116,-1.7 -1.7,-1.7 z"
     id="path4238"
     inkscape:connector-curvature="0" />
  <path
     id="path4159-3"
     d="m 15.999973,10.125 c -0.938884,0 -1.7,0.761117 -1.7,1.7 0,1.7 0.566667,3.966667 1.133333,8.5 h 1.133334 c 0.566666,-4.533333 1.133333,-6.8 1.133333,-8.5 0,-0.938883 -0.761116,-1.7 -1.7,-1.7 z m 0,11.9 c -0.938884,0 -1.7,0.761116 -1.7,1.7 0,0.938884 0.761116,1.7 1.7,1.7 0.938884,0 1.7,-0.761116 1.7,-1.7 0,-0.938884 -0.761116,-1.7 -1.7,-1.7 z"
     style="color:#000000;clip-rule:nonzero;display:inline;overflow:visible;visibility:visible;opacity:1;isolation:auto;mix-blend-mode:normal;color-interpolation:sRGB;color-interpolation-filters:linearRGB;solid-color:#000000;solid-opacity:1;fill:#7a0000;fill-opacity:1;fill-rule:nonzero;stroke:none;stroke-width:1;stroke-linecap:butt;stroke-linejoin:round;stroke-miterlimit:4;stroke-dasharray:none;stroke-dashoffset:0;stroke-opacity:0.49803922;color-rendering:auto;image-rendering:auto;shape-rendering:auto;text-rendering:auto;enable-background:accumulate"
     inkscape:connector-curvature="0" />
</svg>
